<svg id="图层_1" data-name="图层 1" xmlns="http://www.w3.org/2000/svg" xmlns:xlink="http://www.w3.org/1999/xlink" viewBox="0 0 140 140"><defs><style>.cls-1{fill:#f3dcbb;}.cls-2{fill:#edcb9b;}.cls-3{fill:#ffdb6d;}.cls-4{fill:url(#未命名的渐变_11);}.cls-5{fill:url(#未命名的渐变_11-2);}.cls-6{fill:url(#未命名的渐变_11-3);}.cls-7{fill:url(#未命名的渐变_18);}.cls-8{fill:#ecc995;}.cls-9{fill:#ffe9a4;}.cls-10{fill:#dd9e41;}.cls-11{fill:url(#未命名的渐变_18-2);}.cls-12{fill:url(#未命名的渐变_18-3);}.cls-13{fill:#3d2f25;}</style><linearGradient id="未命名的渐变_11" x1="107.61" y1="132.18" x2="107.61" y2="118.06" gradientUnits="userSpaceOnUse"><stop offset="0" stop-color="#bfa272" stop-opacity="0"/><stop offset="1" stop-color="#f7d89f"/></linearGradient><linearGradient id="未命名的渐变_11-2" x1="40.75" y1="133.26" x2="40.75" y2="120.04" xlink:href="#未命名的渐变_11"/><linearGradient id="未命名的渐变_11-3" x1="120.79" y1="122.98" x2="120.79" y2="110.24" xlink:href="#未命名的渐变_11"/><linearGradient id="未命名的渐变_18" x1="28.25" y1="87.25" x2="29.45" y2="121.58" gradientUnits="userSpaceOnUse"><stop offset="0" stop-color="#f3dcbb"/><stop offset="1" stop-color="#dd9e41"/></linearGradient><linearGradient id="未命名的渐变_18-2" x1="37.57" y1="112.35" x2="37.57" y2="123.58" xlink:href="#未命名的渐变_18"/><linearGradient id="未命名的渐变_18-3" x1="24.26" y1="107.99" x2="24.26" y2="121.59" xlink:href="#未命名的渐变_18"/></defs><path class="cls-1" d="M102.9,32.37a47.36,47.36,0,0,1,3.93,3.83A51.38,51.38,0,0,0,77,10,59.39,59.39,0,0,0,57.17,7.05,56.4,56.4,0,0,1,91,19,66.46,66.46,0,0,1,102.9,32.37Z"/><path class="cls-1" d="M9.73,48.64A63.65,63.65,0,0,0,1,73,78.22,78.22,0,0,1,9.73,48.64Z"/><path class="cls-1" d="M54.8,22.36c1.44-.46,2.92-.85,4.41-1.18A46.57,46.57,0,0,0,39,24a63.71,63.71,0,0,0-9.81,5A45.55,45.55,0,0,1,36,26,68.73,68.73,0,0,1,54.8,22.36Z"/><path class="cls-1" d="M125,63a43.36,43.36,0,0,1-6.19,17.83c-.22,1-.47,2-.74,2.92A47.42,47.42,0,0,0,125,66a55.21,55.21,0,0,0-4-32.25A61.33,61.33,0,0,1,125,63Z"/><path class="cls-1" d="M121,33.75A59.61,59.61,0,0,0,102,9C110,16,116.75,24.25,121,33.75Z"/><path class="cls-1" d="M33,11A93.18,93.18,0,0,1,57.17,7.05,72.06,72.06,0,0,0,33,11Z"/><path class="cls-1" d="M29.19,29A50.39,50.39,0,0,0,9.73,48.64,60.32,60.32,0,0,1,29.19,29Z"/><path class="cls-1" d="M130.27,91.36A63.65,63.65,0,0,0,139,67,78.22,78.22,0,0,1,130.27,91.36Z"/><path class="cls-1" d="M15,77a43.36,43.36,0,0,1,6.19-17.83c.22-1,.47-2,.74-2.92A47.42,47.42,0,0,0,15,74a55.21,55.21,0,0,0,4,32.25A61.33,61.33,0,0,1,15,77Z"/><path class="cls-1" d="M85.2,117.64c-1.44.46-2.92.85-4.41,1.18A46.57,46.57,0,0,0,101,116a63.71,63.71,0,0,0,9.81-5,45.55,45.55,0,0,1-6.81,3A68.73,68.73,0,0,1,85.2,117.64Z"/><path class="cls-1" d="M130.27,91.36A60.32,60.32,0,0,1,110.81,111,50.39,50.39,0,0,0,130.27,91.36Z"/><path class="cls-1" d="M37.1,107.63a47.36,47.36,0,0,1-3.93-3.83A51.38,51.38,0,0,0,63,130,59.39,59.39,0,0,0,82.83,133,56.4,56.4,0,0,1,49,121,66.46,66.46,0,0,1,37.1,107.63Z"/><path class="cls-1" d="M19,106.25A59.61,59.61,0,0,0,38,131C30,124,23.25,115.75,19,106.25Z"/><path class="cls-1" d="M107,129A93.18,93.18,0,0,1,82.83,133,72.06,72.06,0,0,0,107,129Z"/><path class="cls-2" d="M11,107A93.18,93.18,0,0,1,7.05,82.83,72.06,72.06,0,0,0,11,107Z"/><path class="cls-2" d="M33.75,19A59.61,59.61,0,0,0,9,38C16,30,24.25,23.25,33.75,19Z"/><path class="cls-2" d="M63,15a43.36,43.36,0,0,1,17.83,6.19c1,.22,2,.47,2.92.74A47.42,47.42,0,0,0,66,15a55.21,55.21,0,0,0-32.25,4A61.33,61.33,0,0,1,63,15Z"/><path class="cls-2" d="M91.36,9.73A63.65,63.65,0,0,0,67,1,78.22,78.22,0,0,1,91.36,9.73Z"/><path class="cls-2" d="M32.37,37.1a47.36,47.36,0,0,1,3.83-3.93A51.38,51.38,0,0,0,10,63,59.39,59.39,0,0,0,7.05,82.83,56.4,56.4,0,0,1,19,49,66.46,66.46,0,0,1,32.37,37.1Z"/><path class="cls-2" d="M117.64,54.8c.46,1.44.85,2.92,1.18,4.41A46.57,46.57,0,0,0,116,39a63.71,63.71,0,0,0-5-9.81A45.55,45.55,0,0,1,114,36,68.73,68.73,0,0,1,117.64,54.8Z"/><path class="cls-2" d="M111,29.19A50.39,50.39,0,0,0,91.36,9.73,60.32,60.32,0,0,1,111,29.19Z"/><path class="cls-2" d="M29,110.81a50.39,50.39,0,0,0,19.61,19.46A60.32,60.32,0,0,1,29,110.81Z"/><path class="cls-2" d="M22.36,85.2c-.46-1.44-.85-2.92-1.18-4.41A46.57,46.57,0,0,0,24,101a63.71,63.71,0,0,0,5,9.81A45.55,45.55,0,0,1,26,104,68.73,68.73,0,0,1,22.36,85.2Z"/><path class="cls-2" d="M129,33A93.18,93.18,0,0,1,133,57.17,72.06,72.06,0,0,0,129,33Z"/><path class="cls-2" d="M106.25,121A59.61,59.61,0,0,0,131,102C124,110,115.75,116.75,106.25,121Z"/><path class="cls-2" d="M121,91a66.46,66.46,0,0,1-13.37,11.9,47.36,47.36,0,0,1-3.83,3.93A51.38,51.38,0,0,0,130,77,59.39,59.39,0,0,0,133,57.17,56.4,56.4,0,0,1,121,91Z"/><path class="cls-2" d="M77,125a43.36,43.36,0,0,1-17.83-6.19c-1-.22-2-.47-2.92-.74A47.42,47.42,0,0,0,74,125a55.21,55.21,0,0,0,32.25-4A61.33,61.33,0,0,1,77,125Z"/><path class="cls-2" d="M48.64,130.27A63.65,63.65,0,0,0,73,139,78.22,78.22,0,0,1,48.64,130.27Z"/><path class="cls-3" d="M55,17a48.15,48.15,0,0,1,17.2,3.06,49.4,49.4,0,0,1,4.92.45c-.37-.17-.74-.35-1.12-.51C48,9,21,23,5,45,18,28,35,17,55,17Z"/><path class="cls-3" d="M112.2,96.81a51.14,51.14,0,0,1-4,5.46A45.85,45.85,0,0,0,123,87c11-20,11-41,1-60,8,19,10,38,0,56A56.3,56.3,0,0,1,112.2,96.81Z"/><path class="cls-3" d="M114.11,46.46a48.8,48.8,0,0,1,2.38,5.13A53.45,53.45,0,0,0,111,33C100,13,81,3,60,1,74,3,87,7,97,16A56.67,56.67,0,0,1,114.11,46.46Z"/><path class="cls-3" d="M85,123a48.15,48.15,0,0,1-17.2-3.06,49.4,49.4,0,0,1-4.92-.45c.37.17.74.35,1.12.51,28,11,55-3,71-25C122,112,105,123,85,123Z"/><path class="cls-3" d="M25.89,93.54a48.8,48.8,0,0,1-2.38-5.13A53.45,53.45,0,0,0,29,107c11,20,30,30,51,32-14-2-27-6-37-15A56.67,56.67,0,0,1,25.89,93.54Z"/><path class="cls-3" d="M27.8,43.19a51.14,51.14,0,0,1,4-5.46A45.85,45.85,0,0,0,17,53C6,73,6,94,16,113,8,94,6,75,16,57A56.3,56.3,0,0,1,27.8,43.19Z"/><path class="cls-1" d="M103.29,44.48a42.36,42.36,0,0,1,2.6,3.79A43.12,43.12,0,0,0,85.67,21.79a49.92,49.92,0,0,0-15.82-5.71A47.36,47.36,0,0,1,95.71,31.51,56.46,56.46,0,0,1,103.29,44.48Z"/><path class="cls-1" d="M23.94,42.46A53.64,53.64,0,0,0,12.73,61.07,65.9,65.9,0,0,1,23.94,42.46Z"/><path class="cls-1" d="M65.37,28.29c1.26-.14,2.54-.22,3.82-.24A39.06,39.06,0,0,0,52.1,27a54.59,54.59,0,0,0-8.91,2.51,39.92,39.92,0,0,1,6.11-1.36A57.65,57.65,0,0,1,65.37,28.29Z"/><path class="cls-1" d="M116.41,73.33a36.39,36.39,0,0,1-8,13.64c-.34.78-.71,1.54-1.09,2.29a39.74,39.74,0,0,0,8.63-13.46,46.31,46.31,0,0,0,2-27.2A51.5,51.5,0,0,1,116.41,73.33Z"/><path class="cls-1" d="M118,48.6a50,50,0,0,0-11.54-23.5A61.35,61.35,0,0,1,118,48.6Z"/><path class="cls-1" d="M49.31,15.34a78.65,78.65,0,0,1,20.54.74A60.61,60.61,0,0,0,49.31,15.34Z"/><path class="cls-1" d="M43.19,29.54A42.4,42.4,0,0,0,23.94,42.46,50.75,50.75,0,0,1,43.19,29.54Z"/><path class="cls-1" d="M116.06,97.54a53.64,53.64,0,0,0,11.21-18.61A65.9,65.9,0,0,1,116.06,97.54Z"/><path class="cls-1" d="M23.59,66.67a36.39,36.39,0,0,1,8-13.64c.34-.78.71-1.54,1.09-2.29A39.74,39.74,0,0,0,24.09,64.2a46.31,46.31,0,0,0-2,27.2A51.5,51.5,0,0,1,23.59,66.67Z"/><path class="cls-1" d="M74.63,111.71c-1.26.14-2.54.22-3.82.24a39.06,39.06,0,0,0,17.09,1,54.59,54.59,0,0,0,8.91-2.51,39.92,39.92,0,0,1-6.11,1.36A57.65,57.65,0,0,1,74.63,111.71Z"/><path class="cls-1" d="M116.06,97.54a50.75,50.75,0,0,1-19.25,12.92A42.4,42.4,0,0,0,116.06,97.54Z"/><path class="cls-1" d="M36.71,95.52a42.36,42.36,0,0,1-2.6-3.79,43.12,43.12,0,0,0,20.22,26.48,49.92,49.92,0,0,0,15.82,5.71,47.36,47.36,0,0,1-25.86-15.43A56.46,56.46,0,0,1,36.71,95.52Z"/><path class="cls-1" d="M22.05,91.4a50,50,0,0,0,11.54,23.5A61.35,61.35,0,0,1,22.05,91.4Z"/><path class="cls-1" d="M90.69,124.66a78.65,78.65,0,0,1-20.54-.74A60.61,60.61,0,0,0,90.69,124.66Z"/><path class="cls-2" d="M15.34,90.69a78.65,78.65,0,0,1,.74-20.54A60.61,60.61,0,0,0,15.34,90.69Z"/><path class="cls-2" d="M48.6,22.05A50,50,0,0,0,25.1,33.59,61.35,61.35,0,0,1,48.6,22.05Z"/><path class="cls-2" d="M73.33,23.59a36.39,36.39,0,0,1,13.64,8c.78.34,1.54.71,2.29,1.09A39.74,39.74,0,0,0,75.8,24.09a46.31,46.31,0,0,0-27.2-2A51.5,51.5,0,0,1,73.33,23.59Z"/><path class="cls-2" d="M97.54,23.94A53.64,53.64,0,0,0,78.93,12.73,65.9,65.9,0,0,1,97.54,23.94Z"/><path class="cls-2" d="M44.48,36.71a42.36,42.36,0,0,1,3.79-2.6A43.12,43.12,0,0,0,21.79,54.33a49.92,49.92,0,0,0-5.71,15.82A47.36,47.36,0,0,1,31.51,44.29,56.46,56.46,0,0,1,44.48,36.71Z"/><path class="cls-2" d="M111.71,65.37c.14,1.26.22,2.54.24,3.82a39.06,39.06,0,0,0,1-17.09,54.59,54.59,0,0,0-2.51-8.91,39.92,39.92,0,0,1,1.36,6.11A57.65,57.65,0,0,1,111.71,65.37Z"/><path class="cls-2" d="M110.46,43.19A42.4,42.4,0,0,0,97.54,23.94,50.75,50.75,0,0,1,110.46,43.19Z"/><path class="cls-2" d="M29.54,96.81a42.4,42.4,0,0,0,12.92,19.25A50.75,50.75,0,0,1,29.54,96.81Z"/><path class="cls-2" d="M28.29,74.63c-.14-1.26-.22-2.54-.24-3.82A39.06,39.06,0,0,0,27,87.9a54.59,54.59,0,0,0,2.51,8.91,39.92,39.92,0,0,1-1.36-6.11A57.65,57.65,0,0,1,28.29,74.63Z"/><path class="cls-2" d="M124.66,49.31a78.65,78.65,0,0,1-.74,20.54A60.61,60.61,0,0,0,124.66,49.31Z"/><path class="cls-2" d="M91.4,118a50,50,0,0,0,23.5-11.54A61.35,61.35,0,0,1,91.4,118Z"/><path class="cls-2" d="M108.49,95.71a56.46,56.46,0,0,1-13,7.58,42.36,42.36,0,0,1-3.79,2.6,43.12,43.12,0,0,0,26.48-20.22,49.92,49.92,0,0,0,5.71-15.82A47.36,47.36,0,0,1,108.49,95.71Z"/><path class="cls-2" d="M66.67,116.41a36.39,36.39,0,0,1-13.64-8c-.78-.34-1.54-.71-2.29-1.09a39.74,39.74,0,0,0,13.46,8.63,46.31,46.31,0,0,0,27.2,2A51.5,51.5,0,0,1,66.67,116.41Z"/><path class="cls-2" d="M42.46,116.06a53.64,53.64,0,0,0,18.61,11.21A65.9,65.9,0,0,1,42.46,116.06Z"/><path class="cls-3" d="M66.42,23.92a40.49,40.49,0,0,1,13.65,5.35c1.35.34,2.68.74,4,1.19l-.84-.61C62,16.18,37.45,23.23,20.65,38.69,34.16,26.85,50,20.61,66.42,23.92Z"/><path class="cls-3" d="M100.29,99a42.4,42.4,0,0,1-4.21,3.83A38.62,38.62,0,0,0,110.8,92.75c12.35-14.64,15.82-31.92,10.73-49.2,3.45,17,2,32.91-9.25,46.07A47.15,47.15,0,0,1,100.29,99Z"/><path class="cls-3" d="M110.18,57.92a39.85,39.85,0,0,1,1.11,4.62,45,45,0,0,0-1.44-16.21C104.1,28.06,90.12,16.69,73.17,11.58c11.19,4,21.23,9.4,28,18.45A47.56,47.56,0,0,1,110.18,57.92Z"/><path class="cls-3" d="M73.58,116.08a40.49,40.49,0,0,1-13.65-5.35c-1.35-.34-2.68-.74-4-1.19l.84.61c21.22,13.67,45.75,6.62,62.55-8.84C105.84,113.15,90,119.39,73.58,116.08Z"/><path class="cls-3" d="M29.82,82.08a39.85,39.85,0,0,1-1.11-4.62,45,45,0,0,0,1.44,16.21c5.75,18.27,19.73,29.64,36.68,34.75-11.19-4-21.23-9.4-28-18.45A47.56,47.56,0,0,1,29.82,82.08Z"/><path class="cls-3" d="M39.71,41a42.4,42.4,0,0,1,4.21-3.83A38.62,38.62,0,0,0,29.2,47.25C16.85,61.89,13.38,79.17,18.47,96.45c-3.45-17-1.95-32.91,9.25-46.07A47.33,47.33,0,0,1,39.71,41Z"/><path class="cls-4" d="M73.41,126.14c4.42-3.76,11.67-7.48,27-8.31s20.22,11.15,45.8,15c-6.58,7.82-20,15-21.19,15.14s-56-9.32-56-9.32S69,129.91,73.41,126.14Z"/><path class="cls-5" d="M1.56,127.61c5.05-3.53,13.37-7,31-7.78s23.18,10.43,52.49,14c-7.54,7.31-22.89,14-24.29,14.16S-3.5,139.28-3.5,139.28-3.5,131.13,1.56,127.61Z"/><path class="cls-6" d="M103.78,117.53c2.2-3.4,5.81-6.74,13.44-7.49s10.06,10,22.78,13.49c-3.27,7.05-9.94,13.5-10.54,13.65s-27.87-8.4-27.87-8.4S101.59,120.93,103.78,117.53Z"/><path class="cls-7" d="M20.22,120.72c0,.55-.3,1.12-.79.86s-1.6-.07-1.67-1.12c0-.23-.18-.3-.35-.39a6.09,6.09,0,0,0-.17-.85c-.84-2.65-.41-4.15,1.87-5.74,1.07-.75.86-1.72.61-2.59s-1-1.06-2-.67a1.24,1.24,0,0,1-1.66-.4c-.48-.88.52-.8.76-1.2s1-.65,1.07-1.3c.32-.21.39-.4,0-.55h0c.13-.93-.54-1.09-1.21-1.25.95-.73.66-1.49.06-2.26l-.61-.76-.37-1.31c-.46-.75-1.2-1.36-1.1-2.38s.68-1.54,1.45-1.14c.55.63.5,0,.62-.3.08-1.16,1.3-2,.83-3.34-.08-.22.15-.45.46-.4.84.13.73-.34.57-.87-.08-.27-.23-.65-.11-.82.32-.47.41-1.35,1.16-1.23s.36.84.37,1.33a7.33,7.33,0,0,1-1.25,3.67c-.41.16-.95.35-.75.89.35,1,.63-1,1.06-.07l.81-.59a1.21,1.21,0,0,1,1,.33A6.29,6.29,0,0,1,18.2,98c-1.22.33-1.46,1.36-.87,3,.33.53-1,1.39.34,1.71-.15.28-.19.6.11.74.14.07.42-.13.63-.2.06.45.05.93.57,1.16.07.78.65.7,1.16.64s.86-.56.92-1.14c1.63-.14,2.46-1,2.34-2.54a.85.85,0,0,1,1.2-.4c-.8,1-.19,1.69.57,2.33,0,.19-.77.44,0,.55a3.71,3.71,0,0,0,1.21-.28l.24-.21c.16.2.22.1.24-.09.62-.14,1.16-.37,1.19-1.13,0-.18-.09-.27-.27-.16l-.06-.07.06-.07c.66-.43.78-1.19,1-1.83.16-.41.16-1,.71-.87s-.29.71.26,1c.1,0,.05.43.07.69,2.37-1.24,2.69-1.69,1.94-5.18-.36-1.67-2-1.92-2.59-3.14a2.79,2.79,0,0,0,1-.25c.45-.3.6-1.15.84-1.14,1,0-.1,1,.44,1.3,1.25.81,1.42,2.18,1.77,3.46.07.27.05.65.43.66s.58-.29.6-.68c.77-.57,1.73-1,1.77-2.16.17-.14.26-.39.1-.48-1-.59-.95-1.08.07-1.55.32-.15.47-.5.28-.7-.61-.65-.45-1.68-1.18-2.24l.08-.31q.35-.13,0-.27h0l-.28-.29c0-.69.2-1.08.91-.49a4,4,0,0,1,.88.74c.57.87,1,.51,1.36-.13.24-.43.48-1,1-.62s0,.89-.19,1.28a4,4,0,0,1-.78.86,2,2,0,0,0-.71,2.31,8.16,8.16,0,0,1,.12,1.58c0,.37-.46.78,0,1.07s1,0,1.35-.25c1-.77,2.52-1.25,1.91-3.06a.44.44,0,0,1,.26-.59c.27-.09.46.07.65.22.46.38.76,1,.47,1.42-.7,1-.88,2.32-2.43,2.84-2.38.78-4.89,1.56-6.28,4-.26.46-.7.81-.6,1.41-.65-.3-.8.24-1.1.6-.7.84-1.29,1.83-2.58,1.75-.11.9.85.3,1,.92-.48.39-1.06.18-1.59.16-1.77,0-2.07.22-2,1.91-1.33.45-2,2-3.57,2.1-.18,0-.19.29,0,.43l-.26.57c-.41.41-.19.62.23.78a.87.87,0,0,0,.88.6l.57.27c.19.34.54.31.85.37l1.11,1.66a2.86,2.86,0,0,1-.76,2.31c-.75,1.13-2.16,1.87-2.06,3.51-.13.46-.52.41-.87.43a4.09,4.09,0,0,0-3.09.94c-.23.44.17.42.43.49Z"/><path class="cls-8" d="M29.21,91c0,.42.75,1-.27,1.2l-.36-.3c.07-.42-.14-.58-.52-.57-.17-.76-1-1.43-.32-2.45Z"/><path class="cls-8" d="M9.71,122.52c-.54,1.74-2,1.86-3.48,2Z"/><path class="cls-8" d="M15.86,120.19c-.59.57-1.47,0-2.07.53-.39,0-.87.32-1.17-.24l1.53-.51C14.73,120,15.34,119.71,15.86,120.19Z"/><path class="cls-9" d="M14.15,120l-1.53.51C12.67,119.61,13,119.49,14.15,120Z"/><path class="cls-10" d="M19.05,96.54c-.43-.88-.71,1-1.06.07-.2-.54.34-.73.75-.89C19.26,95.83,19,96.26,19.05,96.54Z"/><path class="cls-8" d="M42.27,94.64c-.14.13-.23.27-.33.29s-.21-.08-.32-.13c.08-.1.14-.24.24-.27S42.09,94.58,42.27,94.64Z"/><path class="cls-9" d="M28.06,91.34c.38,0,.59.15.52.57C27.89,92.2,28.12,91.63,28.06,91.34Z"/><path class="cls-10" d="M16.71,97.38c-.12.29-.07.93-.62.3C16.19,97.35,16.53,97.54,16.71,97.38Z"/><path class="cls-10" d="M36.8,100.07l-.11.34-.12-.32A.15.15,0,0,1,36.8,100.07Z"/><path class="cls-10" d="M17.86,106.77c.43.15.36.34,0,.55Z"/><path class="cls-8" d="M10,122.34l-.25.2Z"/><path class="cls-9" d="M35.37,88.08q.35.14,0,.27Z"/><path class="cls-9" d="M35.09,87.78l.28.29Z"/><path class="cls-11" d="M34.44,124.9a6.3,6.3,0,0,1-2.57-.47,2.88,2.88,0,0,0,.83-2.2,3.51,3.51,0,0,1,1.17-3.39c.18-.15.37-.51.08-.57-.84-.15-1.25-1.5-2.44-.77-.39.23-1.56.25-1.5-.22.13-1-.74-1.9-.22-2.89.79.15,1.6.44,2.31-.22l.6,0,.32-.1a.56.56,0,0,1,0,.88c-.18.53-1.3.67-.91,1.23s1-.25,1.6-.37a2,2,0,0,0,.48-.26l.9,0,.29.58c-.27.17-.75.27-.49.7s.54,0,.77-.09c1.82-1.06,3.4-.55,5.14.42,1,.57,1.9,1.36,2.92,1.94l.12.55c.09.38.18.75.28,1.13,0,.68,0,1.36,0,2s0,1.45.93,1.72c.23.07.46.21.46.5s-.33.39-.61.47a23.78,23.78,0,0,1-7.27.8c-.15-.92,1-1.28.91-2.3,0-.56,0-1-.43-1.33s-.94-.18-1.35.19Z"/><path class="cls-12" d="M29.79,114.39c-.52,1,.35,1.87.22,2.89-.06.47,1.11.45,1.5.22,1.19-.73,1.6.62,2.44.77.29.06.1.42-.08.57a3.51,3.51,0,0,0-1.17,3.39,2.88,2.88,0,0,1-.83,2.2c-1.58-.12-3.27-.68-4.35,1.15a.76.76,0,0,1-.93.19,6.68,6.68,0,0,0-3.81-.09c-.12-.7-.86-.78-1.23-1.24,0-.14.05-.35,0-.41a2.75,2.75,0,0,0-3.65.86l-1.23.1-.51.1a3.76,3.76,0,0,0-1.72-.56c.36-.7,1.1-.72,1.72-.82a42,42,0,0,0,4.46-1.25A1.45,1.45,0,0,0,21.79,121c.74,1,.85-1.11,1.52-.35.15.46-.52.61-.29,1.11.89-.12,1.5-.61,1.18-1.51a1.88,1.88,0,0,1,.47-1.94,2.87,2.87,0,0,0,.75-1.68v0l.29-.41.09-.44a.54.54,0,0,0,.05-.92l-.08-.1a2.86,2.86,0,0,0,.76-2.31c.59.33,1.36-.89,1.84.24C28.16,113.88,29.21,113.94,29.79,114.39Z"/><path class="cls-8" d="M34.61,110.86c1.29-1.82,2.39-2,4.1-.8.45.32.82.16,1.29-.12,1.06-.62,1.92-.1,1.93,1.07-1.47-.84-1.58-.81-2,.82a5.41,5.41,0,0,1-3.54,3.49l-.28-.27c.16-.89,1.16-1.22,1.36-2.15s1-2,.21-2.68-1.72.37-2.56.77Z"/><path class="cls-9" d="M29.79,114.39c-.58-.45-1.63-.51-1.41-1.65,1.34.21,2.83.06,3.72,1.43C31.39,114.83,30.58,114.54,29.79,114.39Z"/><path class="cls-10" d="M34.61,110.86l.48.13c-.39.67-1.08,1.14-1.05,2.07a1,1,0,0,1-1,1l-.32.1A7,7,0,0,1,34.61,110.86Z"/><path class="cls-8" d="M27.45,106.46c-.34-.07-.45-.32-.5-.62l3.32-.43A4.83,4.83,0,0,1,27.45,106.46Z"/><path class="cls-10" d="M35.4,116.08l-.29-.58c.13-.3.42-.27.68-.3l.45.4A.82.82,0,0,1,35.4,116.08Z"/><path class="cls-8" d="M36.24,115.6l-.45-.4.28-.15.28.27C36.31,115.42,36.28,115.51,36.24,115.6Z"/><path class="cls-10" d="M16.14,125.09l.51-.1c-1,1.06.25,1.2.65,1.68a3.64,3.64,0,0,1-3.1,1.41c-.32,0-.73.11-.89-.29s.15-.74.45-1c.59-.43,1.31-.72,1.2-1.64Z"/><path class="cls-8" d="M4.71,126.91l4.67-.28c-.64,1-1.76.59-2.65.76A2.87,2.87,0,0,1,4.71,126.91Z"/><path class="cls-8" d="M43.47,130.73a4.88,4.88,0,0,1,3.18-.9c.56.07,1.16.11,1.26.87a3.2,3.2,0,0,0-3.42.09C44.14,131,43.78,131.17,43.47,130.73Z"/><path class="cls-8" d="M25.84,128.1c.5.33.2-.95,1-.42s-.15.55-.15.84c0,.54.57.77.52,1.27C26.32,129.57,25.46,129.33,25.84,128.1Z"/><path class="cls-8" d="M17.3,126.67c-.4-.48-1.69-.62-.65-1.68l1.23-.1a3.42,3.42,0,0,0-.1,1.65Z"/><path class="cls-8" d="M16.14,125.09l-1.18.1-.58-.33,0-.33A3.76,3.76,0,0,1,16.14,125.09Z"/><path class="cls-8" d="M34.44,124.9l2.34-2.08c.41-.37.83-.67,1.35-.19s.39.77.43,1.33c.06,1-1.06,1.38-.91,2.3-.94.19-1.88.39-2.83.56-.65.13-1,.46-1,1.17,0-1.29-1.41-1-1.94-1.68-.1-.2-.32-.45-.27-.61.13-.45.41-.13.65,0a3.43,3.43,0,0,0,3.51-.32C35.43,124.9,34.77,125.38,34.44,124.9Z"/><path class="cls-10" d="M31.91,126.31c.53.69,1.93.39,1.94,1.68l0,.33a13.21,13.21,0,0,1-2.88.11c-.77-.23-.79.75-1.37.85-.4.07-.84.48-1.13-.1s.25-.6.49-.87C29.81,127.38,31.36,127.57,31.91,126.31Z"/><path class="cls-10" d="M25.42,116.66a2.87,2.87,0,0,1-.75,1.68,1.88,1.88,0,0,0-.47,1.94c.32.9-.29,1.39-1.18,1.51-.23-.5.44-.65.29-1.11-.67-.76-.78,1.36-1.52.35-.44-.56-1.09,0-1.57-.31l0-.54c.86-.53,2-.43,2.66-1.43.35,0,.74,0,.87-.43C24.6,118.09,24.53,116.88,25.42,116.66Z"/><path class="cls-9" d="M22.85,118.75c-.61,1-1.8.9-2.66,1.43-.26-.07-.66-.05-.43-.49A4.09,4.09,0,0,1,22.85,118.75Z"/><path class="cls-9" d="M25.42,116.66c-.89.22-.82,1.43-1.7,1.66-.1-1.64,1.31-2.38,2.06-3.51l.08.1c0,.31,0,.61-.05.92l-.09.44-.29.41Z"/><path class="cls-9" d="M25.17,103.27c.39.11.94-.44,1.21.27a3.71,3.71,0,0,1-1.21.28C24.4,103.71,25.16,103.46,25.17,103.27Z"/><path class="cls-10" d="M16.72,103.27c-.46,0-1,0-.61-.76C16.31,102.77,16.51,103,16.72,103.27Z"/><path class="cls-10" d="M28.05,102.11l-.27-.16C28,101.84,28,101.93,28.05,102.11Z"/><path class="cls-10" d="M26.62,103.33a.78.78,0,0,1,.24-.09C26.84,103.43,26.78,103.53,26.62,103.33Z"/><path class="cls-9" d="M33,114.93a2.13,2.13,0,0,1,1.17.6,2,2,0,0,1-.48.26c-.56.12-1.13,1-1.6.37S32.86,115.46,33,114.93Z"/><path class="cls-8" d="M25.81,115.83c0-.31,0-.61.05-.92A.54.54,0,0,1,25.81,115.83Z"/><path class="cls-13" d="M25.43,116.68l.29-.41Z"/><path class="cls-13" d="M44.7,117l.12.07-.11-.07Z"/></svg>