<?xml version="1.0" encoding="utf-8"?>
<!-- Generator: Adobe Illustrator 25.1.0, SVG Export Plug-In . SVG Version: 6.00 Build 0)  -->
<svg version="1.1" id="图层_1" xmlns="http://www.w3.org/2000/svg" xmlns:xlink="http://www.w3.org/1999/xlink" x="0px" y="0px"
	 viewBox="0 0 140 140" style="enable-background:new 0 0 140 140;" xml:space="preserve">
<style type="text/css">
	.st0{fill:#3B4B3F;}
	.st1{display:none;fill:#C6C6C6;}
	.st2{fill:url(#SVGID_1_);stroke:#90734E;stroke-width:0.2;stroke-miterlimit:10;}
	.st3{fill:url(#SVGID_2_);stroke:#B4A484;stroke-width:0.3;stroke-linecap:round;stroke-linejoin:round;stroke-miterlimit:10;}
	.st4{fill:url(#SVGID_3_);stroke:#B4A484;stroke-width:0.3;stroke-linecap:round;stroke-linejoin:round;stroke-miterlimit:10;}
	.st5{fill:url(#SVGID_4_);stroke:#90734E;stroke-width:0.2;stroke-miterlimit:10;}
	.st6{fill:url(#SVGID_5_);stroke:#B4A484;stroke-width:0.3;stroke-linecap:round;stroke-linejoin:round;stroke-miterlimit:10;}
	.st7{fill:url(#SVGID_6_);stroke:#90734E;stroke-width:0.2;stroke-miterlimit:10;}
	.st8{fill:url(#SVGID_7_);stroke:#B4A484;stroke-width:0.3;stroke-linecap:round;stroke-linejoin:round;stroke-miterlimit:10;}
	.st9{fill:url(#SVGID_8_);stroke:#B4A484;stroke-width:0.3;stroke-linecap:round;stroke-linejoin:round;stroke-miterlimit:10;}
	.st10{fill:url(#SVGID_9_);stroke:#90734E;stroke-width:0.2;stroke-miterlimit:10;}
	.st11{fill:url(#SVGID_10_);stroke:#273427;stroke-width:0.1;stroke-linecap:round;stroke-linejoin:round;stroke-miterlimit:10;}
	.st12{fill:url(#SVGID_11_);}
	.st13{fill:none;stroke:#808080;stroke-miterlimit:10;}
	.st14{fill:url(#SVGID_12_);}
	.st15{fill:url(#SVGID_13_);}
	.st16{fill:none;stroke:#233B29;stroke-width:0.5;stroke-miterlimit:10;}
	.st17{fill:none;stroke:#232C29;stroke-miterlimit:10;}
	.st18{fill:none;stroke:#E2D2B2;stroke-width:0.6;stroke-miterlimit:10;}
	.st19{fill:none;stroke:#BF9C4C;stroke-width:0.3;stroke-linecap:round;stroke-miterlimit:10;}
	.st20{fill:none;stroke:#BF9C4C;stroke-width:0.5;stroke-linecap:round;stroke-miterlimit:10;}
	.st21{fill:#BF9C4C;}
	.st22{fill:url(#SVGID_14_);stroke:#BF8F21;stroke-width:0.5;stroke-miterlimit:10;}
	.st23{fill:#FFFFE1;stroke:#BF9C4C;stroke-width:0.5;stroke-miterlimit:10;}
	.st24{fill:#FFE8A5;stroke:#BF9C4C;stroke-width:0.5;stroke-miterlimit:10;}
	.st25{fill:url(#SVGID_15_);stroke:#E0B96C;stroke-width:0.3;stroke-linecap:round;stroke-linejoin:round;stroke-miterlimit:10;}
	.st26{fill:url(#SVGID_16_);stroke:#B4A27E;stroke-width:0.3;stroke-linecap:round;stroke-linejoin:round;stroke-miterlimit:10;}
	.st27{fill:none;stroke:#C18E5B;stroke-width:0.1;stroke-miterlimit:10;}
	.st28{fill:url(#SVGID_17_);stroke:#273427;stroke-width:0.2;stroke-linejoin:round;stroke-miterlimit:10;}
	.st29{fill:url(#SVGID_18_);stroke:#1F3835;stroke-width:0.3;stroke-miterlimit:10;}
	.st30{fill:url(#SVGID_19_);stroke:#1F3835;stroke-width:0.3;stroke-miterlimit:10;}
	.st31{fill:url(#SVGID_20_);stroke:#1F3835;stroke-width:0.3;stroke-miterlimit:10;}
	.st32{fill:url(#SVGID_21_);stroke:#1F3835;stroke-width:0.3;stroke-miterlimit:10;}
	.st33{fill:url(#SVGID_22_);stroke:#1F3835;stroke-width:0.3;stroke-miterlimit:10;}
	.st34{fill:url(#SVGID_23_);stroke:#1F3835;stroke-width:0.3;stroke-miterlimit:10;}
	.st35{fill:url(#SVGID_24_);stroke:#1F3835;stroke-width:0.3;stroke-miterlimit:10;}
	.st36{fill:url(#SVGID_25_);stroke:#1F3835;stroke-width:0.3;stroke-miterlimit:10;}
	.st37{fill:url(#SVGID_26_);stroke:#192B19;stroke-width:0.3;stroke-miterlimit:10;}
	.st38{fill:url(#SVGID_27_);stroke:#192B19;stroke-width:0.3;stroke-miterlimit:10;}
	.st39{fill:url(#SVGID_28_);stroke:#192B19;stroke-width:0.3;stroke-miterlimit:10;}
	.st40{fill:url(#SVGID_29_);stroke:#192B19;stroke-width:0.3;stroke-miterlimit:10;}
	.st41{fill:url(#SVGID_30_);stroke:#192B19;stroke-width:0.3;stroke-miterlimit:10;}
	.st42{fill:url(#SVGID_31_);stroke:#192B19;stroke-width:0.3;stroke-miterlimit:10;}
	.st43{fill:url(#SVGID_32_);stroke:#192B19;stroke-width:0.3;stroke-miterlimit:10;}
	.st44{fill:url(#SVGID_33_);stroke:#192B19;stroke-width:0.3;stroke-miterlimit:10;}
	.st45{fill:url(#SVGID_34_);stroke:#273427;stroke-width:0.2;stroke-linecap:round;stroke-linejoin:round;stroke-miterlimit:10;}
</style>
<path class="st0" d="M70.3,21c-27,0-48.9,21.9-48.9,48.9s21.9,48.9,48.9,48.9S119.2,97,119.2,70C119.2,42.9,97.3,21,70.3,21z
	 M70.3,114.4c-24.6,0-44.4-20-44.4-44.4s20-44.4,44.4-44.4s44.4,20,44.4,44.4S94.9,114.4,70.3,114.4z"/>
<circle class="st1" cx="85" cy="70" r="50"/>
<linearGradient id="SVGID_1_" gradientUnits="userSpaceOnUse" x1="71.1" y1="518.65" x2="103.2" y2="518.65" gradientTransform="matrix(1 0 0 1 0 -408)">
	<stop  offset="0" style="stop-color:#916F38"/>
	<stop  offset="1" style="stop-color:#DBCAA8"/>
</linearGradient>
<polygon class="st2" points="103.2,105.1 82.6,104.2 71.1,111.5 72.7,116.7 83.3,117.1 93.7,113.3 "/>
<g>
	
		<linearGradient id="SVGID_2_" gradientUnits="userSpaceOnUse" x1="98.9753" y1="497.15" x2="103.6612" y2="497.15" gradientTransform="matrix(1 0 0 1 0 -408)">
		<stop  offset="0" style="stop-color:#EAE0CE"/>
		<stop  offset="1" style="stop-color:#CAA96D"/>
	</linearGradient>
	<polygon class="st3" points="99,92.3 99,87.7 99.9,87.7 99.9,89.5 101.2,89.5 101.2,86 103.7,86 103.7,92.1 	"/>
	
		<linearGradient id="SVGID_3_" gradientUnits="userSpaceOnUse" x1="96.1837" y1="501.9" x2="106.7519" y2="501.9" gradientTransform="matrix(1 0 0 1 0 -408)">
		<stop  offset="0" style="stop-color:#EAE0CE"/>
		<stop  offset="1" style="stop-color:#CAA96D"/>
	</linearGradient>
	<polygon class="st4" points="96.2,96.6 96.2,91.1 106.8,91.1 106.8,96.7 	"/>
	
		<linearGradient id="SVGID_4_" gradientUnits="userSpaceOnUse" x1="101.4" y1="501.1342" x2="101.4" y2="503.8013" gradientTransform="matrix(1 0 0 1 0 -408)">
		<stop  offset="0" style="stop-color:#916F38"/>
		<stop  offset="1" style="stop-color:#DBCAA8"/>
	</linearGradient>
	<rect x="100.1" y="92.2" class="st5" width="2.6" height="5"/>
	
		<linearGradient id="SVGID_5_" gradientUnits="userSpaceOnUse" x1="93.5" y1="508.4" x2="108.455" y2="508.4" gradientTransform="matrix(1 0 0 1 0 -408)">
		<stop  offset="0" style="stop-color:#EAE0CE"/>
		<stop  offset="1" style="stop-color:#CAA96D"/>
	</linearGradient>
	<polygon class="st6" points="93.5,104.6 94.4,96.2 107.6,96.2 108.4,103.8 	"/>
	
		<linearGradient id="SVGID_6_" gradientUnits="userSpaceOnUse" x1="100.05" y1="505.877" x2="100.05" y2="512.661" gradientTransform="matrix(1 0 0 1 0 -408)">
		<stop  offset="0" style="stop-color:#916F38"/>
		<stop  offset="1" style="stop-color:#DBCAA8"/>
	</linearGradient>
	<path class="st7" d="M103,105.3h-5.9v-4.8c0-0.5,0.2-0.9,0.6-1.2l2.3-1.8l2.4,1.8c0.4,0.3,0.6,0.8,0.6,1.2V105.3z"/>
</g>
<g>
	
		<linearGradient id="SVGID_7_" gradientUnits="userSpaceOnUse" x1="83.3" y1="510.2" x2="94.0769" y2="510.2" gradientTransform="matrix(1 0 0 1 0 -408)">
		<stop  offset="0" style="stop-color:#EAE0CE"/>
		<stop  offset="1" style="stop-color:#CAA96D"/>
	</linearGradient>
	<polygon class="st8" points="86.1,100.9 84,100.9 83.3,104.3 94.1,104.3 93.6,100.1 91.1,100.1 	"/>
	
		<linearGradient id="SVGID_8_" gradientUnits="userSpaceOnUse" x1="84.8544" y1="508.4" x2="91.7125" y2="508.4" gradientTransform="matrix(1 0 0 1 0 -408)">
		<stop  offset="0" style="stop-color:#EAE0CE"/>
		<stop  offset="1" style="stop-color:#CAA96D"/>
	</linearGradient>
	<polygon class="st9" points="89.5,96.4 89.5,98.9 87.1,98.9 87.1,97.7 84.9,97.7 84.9,104.4 87.1,104.4 87.1,104.4 89.5,104.4 
		89.5,104.4 91.7,104.4 91.7,96.4 	"/>
	
		<linearGradient id="SVGID_9_" gradientUnits="userSpaceOnUse" x1="88.1064" y1="509.1945" x2="88.1064" y2="511.8107" gradientTransform="matrix(1 0 0 1 0 -408)">
		<stop  offset="0" style="stop-color:#916F38"/>
		<stop  offset="1" style="stop-color:#DBCAA8"/>
	</linearGradient>
	<path class="st10" d="M88.1,101L88.1,101c-0.7,0-1.1,0.6-1.1,1.4v2h2.2v-2C89.3,101.6,88.8,101,88.1,101z"/>
</g>
<linearGradient id="SVGID_10_" gradientUnits="userSpaceOnUse" x1="19.1" y1="-70.475" x2="57.2277" y2="-70.475" gradientTransform="matrix(1 0 0 -1 0 44)">
	<stop  offset="4.425218e-02" style="stop-color:#B4C6B3"/>
	<stop  offset="0.4865" style="stop-color:#607C6E"/>
	<stop  offset="0.8969" style="stop-color:#313F30"/>
</linearGradient>
<path class="st11" d="M19.1,120.2c7.6,1.3,13.6,0.9,17.7,0.3c4.4-0.7,8.9-1.9,8.9-2.8c0-0.4-1.9-0.6-6.6-1.6c-2.7-0.7-4.3-1-4.3-1.5
	c0-0.7,7.6-0.9,9.7-0.9c8.5-0.1,12.2,0.6,12.6-0.3c0.2-0.6-1.1-1.8-8.7-5c-2.8-0.4-8.5-1.2-14.5,0.7c-3,0.9-8.3,3.1-8,4.8
	c0.5,2.5,12.9,2.2,12.9,3.5c0,1-8.2,2.1-8.9,2.2C25.5,120.3,21.6,120.3,19.1,120.2z"/>
<linearGradient id="SVGID_11_" gradientUnits="userSpaceOnUse" x1="59.05" y1="-60.2927" x2="59.05" y2="-71.1188" gradientTransform="matrix(1 0 0 -1 0 44)">
	<stop  offset="0" style="stop-color:#E0E5E2"/>
	<stop  offset="1" style="stop-color:#ADADAD"/>
</linearGradient>
<path class="st12" d="M43.6,111.2c0,0,4.9-4.9,5.5-7c1.7-0.5,4.4-1.9,5.6-3.2c2.6,0.9,5,2.9,6.4,2.6c2,2.9,11.5,13.9,13.4,14.3
	C66.5,118.4,59.8,118.9,43.6,111.2z"/>
<path class="st13" d="M67.4,118.8c0,0-8.3-8.9-9.9-13.3c-2.7-0.7-3.3-1-4.1-1.7c-1.6,1-4.5,2.4-4.5,2.4l-3,5.6"/>
<linearGradient id="SVGID_12_" gradientUnits="userSpaceOnUse" x1="44.15" y1="-50.6353" x2="44.15" y2="-68.234" gradientTransform="matrix(1 0 0 -1 0 44)">
	<stop  offset="0" style="stop-color:#E0E5E2"/>
	<stop  offset="1" style="stop-color:#ADADAD"/>
</linearGradient>
<path class="st14" d="M55.7,115c0,0-6.4-7-7.8-14.2c-3.4-2.7-7.5-5.6-7.8-6.6c-1.4-0.1-4.4,1.8-5.5,2.4c-0.8,2-2,3.8-2,3.8
	S44.4,112.5,55.7,115z"/>
<path class="st13" d="M50.2,114.3c0,0-4.9-5.5-5.7-11.8c-3.6-2.5-4-2.7-5.6-4.3c-1.2,1.1-3.4,4.6-3.4,4.6"/>
<linearGradient id="SVGID_13_" gradientUnits="userSpaceOnUse" x1="70.3" y1="-77.0213" x2="70.3" y2="24.3787" gradientTransform="matrix(1 0 0 -1 0 44)">
	<stop  offset="0" style="stop-color:#394C4C"/>
	<stop  offset="1" style="stop-color:#5A716E"/>
</linearGradient>
<path class="st15" d="M70.3,19.2c-28,0-50.7,22.7-50.7,50.7s22.7,50.7,50.7,50.7S121,98,121,70C121,41.9,98.3,19.2,70.3,19.2z
	 M70.3,116.1c-25.5,0-46.1-20.7-46.1-46.1s20.7-46.1,46.1-46.1s46.1,20.7,46.1,46.1S95.8,116.1,70.3,116.1z"/>
<g>
	<polygon class="st16" points="70.3,20.5 73.9,22.6 77.7,21.1 80.9,23.7 84.9,22.7 87.7,25.8 91.8,25.4 94,28.9 98.2,29.1 
		99.9,32.9 104,33.7 105.1,37.7 109,39.1 109.5,43.2 113.2,45.3 113.1,49.4 116.4,51.9 115.7,56 118.6,59 117.3,62.9 119.7,66.3 
		117.8,70 119.7,73.7 117.3,77.1 118.6,81 115.7,84 116.4,88.1 113.1,90.6 113.2,94.7 109.5,96.8 109,100.9 105.1,102.3 104,106.3 
		99.9,107.1 98.2,110.9 94,111.1 91.8,114.6 87.7,114.2 84.9,117.3 80.9,116.3 77.7,118.9 73.9,117.4 70.3,119.5 66.7,117.4 
		62.9,118.9 59.7,116.3 55.7,117.3 52.9,114.2 48.8,114.6 46.6,111.1 42.4,110.9 40.7,107.1 36.6,106.3 35.5,102.3 31.6,100.9 
		31.1,96.8 27.4,94.7 27.5,90.6 24.2,88.1 24.9,84 22,81 23.3,77.1 20.9,73.7 22.8,70 20.9,66.3 23.3,62.9 22,59 24.9,56 24.2,51.9 
		27.5,49.4 27.4,45.3 31.1,43.2 31.6,39.1 35.5,37.7 36.6,33.7 40.7,32.9 42.4,29.1 46.6,28.9 48.8,25.4 52.9,25.8 55.7,22.7 
		59.7,23.7 62.9,21.1 66.7,22.6 	"/>
</g>
<circle class="st17" cx="70.3" cy="70" r="50.7"/>
<circle class="st17" cx="70.3" cy="69.9" r="46.2"/>
<circle class="st18" cx="70.3" cy="72.2" r="48.5"/>
<g>
	<g>
		<g>
			<line class="st19" x1="93.8" y1="34.4" x2="115.8" y2="41"/>
			<line class="st19" x1="108.1" y1="26.7" x2="101.5" y2="48.7"/>
			<line class="st19" x1="99.4" y1="27.6" x2="110.3" y2="47.8"/>
			<line class="st19" x1="114.9" y1="32.3" x2="94.7" y2="43.2"/>
			<line class="st19" x1="94.7" y1="32.3" x2="114.9" y2="43.1"/>
			<line class="st19" x1="110.2" y1="27.6" x2="99.4" y2="47.8"/>
			<line class="st19" x1="101.5" y1="26.7" x2="108.1" y2="48.7"/>
			<line class="st19" x1="115.8" y1="34.4" x2="93.8" y2="41"/>
		</g>
		<g>
			<line class="st20" x1="91.1" y1="37.7" x2="118.6" y2="37.7"/>
			<line class="st20" x1="104.8" y1="24" x2="104.8" y2="51.5"/>
			<line class="st20" x1="95.1" y1="28" x2="114.5" y2="47.4"/>
			<line class="st20" x1="114.5" y1="28" x2="95.1" y2="47.4"/>
		</g>
		<g>
			<path class="st21" d="M117.8,41.7l0.4,0.1l0.1-0.3l-0.4-0.1C117.8,41.6,117.8,41.6,117.8,41.7z"/>
			<path class="st21" d="M91.4,33.5l-0.1,0.3l0.4,0.1c0-0.1,0-0.2,0.1-0.3L91.4,33.5z"/>
			<path class="st21" d="M109,24.3l-0.3-0.1l-0.1,0.4c0.1,0,0.2,0,0.3,0.1L109,24.3z"/>
			<path class="st21" d="M100.6,51.1l0.3,0.1l0.1-0.4c-0.1,0-0.2,0-0.3-0.1L100.6,51.1z"/>
			<path class="st21" d="M111.3,50.1l0.3-0.1l-0.2-0.4c-0.1,0-0.2,0.1-0.3,0.1L111.3,50.1z"/>
			<path class="st21" d="M98.3,25.3L98,25.4l0.2,0.4c0.1,0,0.2-0.1,0.3-0.1L98.3,25.3z"/>
			<path class="st21" d="M117.2,31.2l-0.1-0.3l-0.4,0.2c0,0.1,0.1,0.2,0.1,0.3L117.2,31.2z"/>
			<path class="st21" d="M92.4,44.2l0.1,0.3l0.4-0.2c0-0.1-0.1-0.2-0.1-0.3L92.4,44.2z"/>
			<path class="st21" d="M117.1,44.5l0.1-0.3l-0.4-0.2c0,0.1-0.1,0.2-0.1,0.3L117.1,44.5z"/>
			<path class="st21" d="M92.5,30.9l-0.1,0.3l0.4,0.2c0-0.1,0.1-0.2,0.1-0.3L92.5,30.9z"/>
			<path class="st21" d="M98,50l0.3,0.1l0.2-0.4c-0.1,0-0.2-0.1-0.3-0.1L98,50z"/>
			<path class="st21" d="M111.6,25.4l-0.3-0.1l-0.2,0.4c0.1,0,0.2,0.1,0.3,0.1L111.6,25.4z"/>
			<path class="st21" d="M100.9,24.2l-0.3,0.1l0.1,0.4c0.1,0,0.2,0,0.3-0.1L100.9,24.2z"/>
			<path class="st21" d="M108.7,51.2l0.3-0.1l-0.1-0.4c-0.1,0-0.2,0-0.3,0.1L108.7,51.2z"/>
			<path class="st21" d="M118.3,33.8l-0.1-0.3l-0.4,0.1c0,0.1,0,0.2,0.1,0.3L118.3,33.8z"/>
			<path class="st21" d="M91.3,41.6l0.1,0.3l0.4-0.1c0-0.1,0-0.2-0.1-0.3L91.3,41.6z"/>
		</g>
	</g>
	<g>
		
			<linearGradient id="SVGID_14_" gradientUnits="userSpaceOnUse" x1="104.5" y1="438.6" x2="104.5" y2="453.4" gradientTransform="matrix(1 0 0 1 0 -408)">
			<stop  offset="4.787233e-02" style="stop-color:#FCF7DB"/>
			<stop  offset="0.2139" style="stop-color:#FFF3B5"/>
			<stop  offset="0.7156" style="stop-color:#6D4200"/>
			<stop  offset="1" style="stop-color:#4F2E00"/>
		</linearGradient>
		<circle class="st22" cx="104.5" cy="37.6" r="7.4"/>
		<circle class="st23" cx="106.3" cy="35.8" r="4.9"/>
		<circle class="st24" cx="105.4" cy="36.6" r="3.8"/>
	</g>
</g>
<linearGradient id="SVGID_15_" gradientUnits="userSpaceOnUse" x1="23.5814" y1="-12.8" x2="53.3085" y2="19.3466" gradientTransform="matrix(1 0 0 -1 0 44)">
	<stop  offset="0.5209" style="stop-color:#FFFFFF"/>
	<stop  offset="1" style="stop-color:#CBBEAA"/>
</linearGradient>
<path class="st25" d="M54.7,29.7c-7.7,0.1-11.2-1.4-18.4,0c-4.2,0.8-9.9,2.6-9.9,4.7c0,2.1,5.9,2.9,5.9,5c0,1.5-3.6,2-8.8,4.6
	c-1.5,0.7-9.4,4.7-8.9,7c0.6,2.8,14.1,1.5,14.3,3.2c0.1,0.7-2.4,1.6-5.2,2.4c-0.2,0.1,7.5-1.2,7.5-2.4c0-0.6-2-0.8-6.1-2
	c-4.3-1.3-5.4-1.2-5.6-1.9c-0.4-1.3,2.4-3.6,5-4.9c4.9-2.4,8-0.8,14.2-1.9c1.6-0.3,9.3-1.5,9.4-3.4c0.2-2.5-16.4-3.5-16.3-6.1
	c0-1.5,5.7-2.7,6.5-2.8c5.6-1.1,9.7-0.2,12.6,0.1c4.1,0.4,10.1,0.2,17.9-3.5C62.7,29.3,57.9,29.7,54.7,29.7z M37.2,37.6
	c5,0.7,7.5,1.3,7.5,1.9c0,0.6-2.6,1.2-7.8,1.8c-0.3,0-0.6,0.1-0.9,0.1c0.3,0,0.6-0.1,0.9-0.1c2-0.3,3.4-1.1,3.4-1.8
	C40.3,38.8,39,38.1,37.2,37.6z"/>
<linearGradient id="SVGID_16_" gradientUnits="userSpaceOnUse" x1="60.7973" y1="-69.3061" x2="89.8152" y2="-61.4295" gradientTransform="matrix(1 0 0 -1 0 44)">
	<stop  offset="0" style="stop-color:#FEFFE6"/>
	<stop  offset="1" style="stop-color:#FFDE78"/>
</linearGradient>
<path class="st26" d="M92.1,103.8c-10.5-2.9-16.2-1.3-19.5,1c-2.8,1.9-3.8,4.1-7.5,5.9c-4.5,2.2-9.3,1.9-12.7,1.3
	c2,1.3,5.5,3.2,10.2,4c3.8,0.7,7.9,1.5,11.5-0.5c4.1-2.2,3.5-5.9,7.6-8.9C85,104,89.2,103.7,92.1,103.8z"/>
<g>
	<path class="st27" d="M92.1,103.8c-10.5-2.9-16.2-1.3-19.5,1c-2.8,1.9-3.8,4.1-7.5,5.9c-4.5,2.2-9.3,1.9-12.7,1.3"/>
	<path class="st27" d="M92.1,103.8c-9.7-2.6-15.2-1.2-18.4,1c-2.6,1.7-3.7,3.7-7.1,5.5c-1.7,0.9-2.9,1.6-4.6,2.1
		c-1.7,0.4-3.4,0.5-5,0.4c-1.8-0.1-3.3-0.4-4.6-0.8"/>
	<path class="st27" d="M92.1,103.8c-8.9-2.4-14.1-1.1-17.3,1c-2.5,1.6-3.6,3.4-6.7,5.1c-1.9,1-2.9,2.1-4.9,2.8
		c-1.9,0.6-3.9,0.5-5.7,0.4c-2.1-0.2-3.8-0.7-5.2-1.1"/>
	<path class="st27" d="M92.1,103.8c-8.2-2.1-13.1-1-16.2,1c-2.3,1.4-3.4,3.1-6.3,4.7c-2.2,1.2-3,2.7-5.2,3.4
		c-2.1,0.8-4.3,0.6-6.3,0.4c-2.3-0.3-4.3-0.9-5.7-1.4"/>
	<path class="st27" d="M92.1,103.8c-7.4-1.9-12.1-0.8-15.1,1c-2.2,1.3-3.3,2.8-5.9,4.4c-2.5,1.4-3.1,3.2-5.5,4.1
		c-2.3,0.9-4.7,0.7-7,0.4c-2.6-0.3-4.8-1.1-6.3-1.7"/>
	<path class="st27" d="M92.1,103.8c-6.6-1.6-11-0.7-14,1c-2,1.2-3.1,2.5-5.5,4c-2.7,1.6-3.1,3.7-5.8,4.8c-2.5,1.1-5.1,0.8-7.6,0.4
		c-2.9-0.4-5.3-1.4-6.8-2.1"/>
	<path class="st27" d="M92.1,103.8c-5.9-1.4-10-0.6-12.9,1c-1.9,1-3,2.3-5.1,3.6c-3,1.8-3.2,4.2-6.1,5.5c-2.6,1.2-5.6,0.8-8.3,0.4
		c-3.2-0.5-5.7-1.6-7.4-2.4"/>
	<path class="st27" d="M92.1,103.8c-5.1-1.1-8.9-0.5-11.8,1c-1.7,0.9-2.8,2-4.7,3.2c-3.2,2-3.2,4.7-6.4,6.2c-2.8,1.4-6,0.9-8.9,0.4
		c-3.5-0.6-6.2-1.8-7.9-2.7"/>
	<path class="st27" d="M92.1,103.8c-4.3-0.8-7.9-0.4-10.7,1c-1.6,0.8-2.6,1.7-4.3,2.8c-3.5,2.3-3.3,5.2-6.7,6.9
		c-3,1.5-6.4,1-9.6,0.4c-3.8-0.6-6.7-2-8.5-3"/>
	<path class="st27" d="M92.1,103.8c-3.6-0.6-6.8-0.3-9.6,1c-1.4,0.6-2.5,1.5-3.9,2.5c-3.7,2.5-3.4,5.7-7,7.6
		c-3.2,1.7-6.9,1-10.2,0.5c-4.1-0.7-7.2-2.3-9.1-3.4"/>
	<path class="st27" d="M92.1,103.8c-2.8-0.3-5.8-0.1-8.5,1c-1.2,0.5-2.3,1.2-3.5,2.1c-3.9,2.8-3.4,6.2-7.3,8.3
		c-3.4,1.8-7.3,1.1-10.9,0.5c-4.4-0.8-7.6-2.5-9.6-3.7"/>
	<path class="st27" d="M52.3,111.9c2,1.3,5.5,3.2,10.2,4c3.8,0.7,7.9,1.5,11.5-0.5c4.1-2.2,3.5-5.9,7.6-8.9
		c3.4-2.6,7.7-2.9,10.5-2.7"/>
</g>
<linearGradient id="SVGID_17_" gradientUnits="userSpaceOnUse" x1="129.7419" y1="22.7342" x2="143.4958" y2="3.6938" gradientTransform="matrix(0.9901 0.1404 0.1404 -0.9901 -31.6172 94.0768)">
	<stop  offset="0" style="stop-color:#9EBFB3"/>
	<stop  offset="1" style="stop-color:#59756D"/>
</linearGradient>
<path class="st28" d="M133.2,85.6c-2,0.8-5.3,1.8-9.2,1.7c-4.9-0.1-6.6-1.7-10.9-1.1c-4.4,0.7-8.8,3.1-8.7,4.7
	c0.2,1,2.9,1.8,8.4,3.4c5.3,1.5,6.8,1.6,6.9,2.3c0.4,2-7.9,7.9-17.6,8.3s-15.5-4.7-22.3-1.3c-2.9,1.4-3.6,3.2-3.9,3.7
	c-0.9,2.5,0.4,5.2,1.9,6.7c2.3,2.4,6.1,2.9,8.8,1.6c0.7-0.3,3.2-1.5,3.3-3.8c0.1-1.9-1.5-3.7-3.2-4c-0.3,0-1.4-0.2-2.2,0.6
	c-0.9,1-0.5,2.3-0.5,2.4c0.2-0.8,1.2-1.2,1.9-0.9c0.8,0.3,1.1,1.2,0.9,1.7c-0.3,0.8-1.4,0.9-1.7,0.9c-1.4,0.1-3.1-0.9-3.4-2.4
	c-0.2-1.3,0.9-2.7,1.9-3.4c2.3-1.4,4.9,0.3,11.4,2.1c5.1,1.4,7.6,2.2,9.2,1.8c4.9-0.9,4.6-5.4,11.2-7.9c1.3-0.5,3.1-0.9,6.5-1.7
	c5.6-1.2,7.7-1.2,8-2.2c0.4-1.5-3.6-3.8-6.4-4.9c-3.3-1.3-4.5,0.1-7.7-1.2c-2.7-1-5.4-3-5.1-4.1c0.3-1,3.7-0.9,6.9-0.7
	c3.5,0.2,4.5,0.6,6.4,0.6C126.1,88.8,129.3,88.3,133.2,85.6z"/>
<g>
	
		<linearGradient id="SVGID_18_" gradientUnits="userSpaceOnUse" x1="35.5835" y1="-46.4543" x2="35.5835" y2="-50.7334" gradientTransform="matrix(1 0 0 -1 0 44)">
		<stop  offset="0" style="stop-color:#1F3A3C"/>
		<stop  offset="1" style="stop-color:#365D5A"/>
	</linearGradient>
	<path class="st29" d="M43.2,93.7c-0.8,0.1-2.6,0.3-4.5-0.5c-2.5-1-4.2-3.3-4.3-5.9c-1.1-0.4-2.2-0.8-3.3-1.3
		c-0.1,0.2-4.8,3.8-2.5,7.6c1.5,2.4,6.1,3.3,6.8,3.5C35.2,97,34,96.3,34,94.9c0-0.7,0.3-1.2,0.5-1.4c0.5,0.4,1.5,1.1,3,1.4
		C40.5,95.5,42.9,93.8,43.2,93.7z"/>
	
		<linearGradient id="SVGID_19_" gradientUnits="userSpaceOnUse" x1="34.2753" y1="-41.9047" x2="34.2753" y2="-45.2681" gradientTransform="matrix(1 0 0 -1 0 44)">
		<stop  offset="0" style="stop-color:#1F3A3C"/>
		<stop  offset="1" style="stop-color:#365D5A"/>
	</linearGradient>
	<path class="st30" d="M39.9,88.2c-0.7,0.1-2.1,0.3-3.7-0.5c-2.1-1.1-3.4-3.5-3.6-6.3c-0.9-0.5-1.8-0.9-2.7-1.4
		c-0.1,0.2-2.4,4.2-0.5,8.1c1.2,2.5,3.4,3.4,3.9,3.7c-0.1-0.1-1.1-0.9-1.2-2.3c0-0.7,0.2-1.3,0.4-1.6c0.4,0.4,1.2,1.2,2.5,1.6
		C37.7,90.2,39.7,88.4,39.9,88.2z"/>
	
		<linearGradient id="SVGID_20_" gradientUnits="userSpaceOnUse" x1="32.4536" y1="-34.4249" x2="32.4536" y2="-39.7587" gradientTransform="matrix(1 0 0 -1 0 44)">
		<stop  offset="0" style="stop-color:#1F3A3C"/>
		<stop  offset="1" style="stop-color:#365D5A"/>
	</linearGradient>
	<path class="st31" d="M37.7,81.5c-0.6,0.1-1.9,0.2-3.2-0.4c-1.8-0.9-3-3-3.1-5.4c-0.8-0.4-1.6-0.8-2.4-1.2
		c-0.1,0.2-2.9,3.6-1.3,6.9c1.1,2.1,3.8,3,4.4,3.1c-0.1-0.1-1-0.8-1-1.9c0-0.7,0.2-1.1,0.3-1.3c0.3,0.4,1.1,1,2.1,1.3
		C35.8,83.2,37.5,81.7,37.7,81.5z"/>
	
		<linearGradient id="SVGID_21_" gradientUnits="userSpaceOnUse" x1="31.9209" y1="-30.6003" x2="31.9209" y2="-33.2199" gradientTransform="matrix(1 0 0 -1 0 44)">
		<stop  offset="0" style="stop-color:#233D41"/>
		<stop  offset="1" style="stop-color:#3E5E5F"/>
	</linearGradient>
	<path class="st32" d="M29,70.9c0,0.3,0.7,2,1.9,3.3c0.1,0.1,1.5,1.4,3.3,1.1c0.7-0.1,1.1-0.5,1.5-0.7c-0.2,0.4-1,1.1-2.1,1.6
		c-1.5,0.5-2.7-0.1-3-0.2c0.1,0.4,0.4,1,0.8,1.6c0.3,0.4,0.7,0.7,0.9,0.8c-0.4,0-1.1,0-1.9-0.3c-0.2-0.1-1.5-0.7-2.1-1.9
		C27.7,74.5,29,71.8,29,70.9z"/>
	
		<linearGradient id="SVGID_22_" gradientUnits="userSpaceOnUse" x1="-951.1697" y1="-46.57" x2="-951.1697" y2="-50.849" gradientTransform="matrix(-1 0 0 -1 -928.7082 44)">
		<stop  offset="0" style="stop-color:#1F3A3C"/>
		<stop  offset="1" style="stop-color:#365D5A"/>
	</linearGradient>
	<path class="st33" d="M20.5,95c1.5-0.3,2.5-1,3-1.4c0.2,0.2,0.5,0.7,0.5,1.4c-0.1,1.3-1.2,2.1-1.4,2.2c0.7-0.2,5.4-1.2,6.9-3.6
		c2.3-3.7-2.5-7.4-2.6-7.6c-1.1,0.5-2.2,0.9-3.3,1.3c-0.2,2.6-1.8,4.9-4.3,5.9c-1.9,0.8-3.6,0.6-4.5,0.5C15,94,17.5,95.6,20.5,95z"
		/>
	
		<linearGradient id="SVGID_23_" gradientUnits="userSpaceOnUse" x1="-952.9291" y1="-42.0204" x2="-952.9291" y2="-45.3838" gradientTransform="matrix(-1 0 0 -1 -928.7082 44)">
		<stop  offset="0" style="stop-color:#1F3A3C"/>
		<stop  offset="1" style="stop-color:#365D5A"/>
	</linearGradient>
	<path class="st34" d="M22.8,89.6c1.2-0.4,2.1-1.1,2.5-1.6c0.2,0.2,0.4,0.8,0.4,1.6c-0.1,1.4-1.1,2.2-1.2,2.3c0.6-0.2,4.2-2,5.4-4.5
		c1.9-3.9-1.8-7.1-1.9-7.3c-0.9,0.5-1.8,0.9-2.7,1.4c-0.2,2.8-1.5,5.2-3.6,6.3c-1.5,0.8-3,0.6-3.7,0.5
		C18.3,88.5,20.3,90.3,22.8,89.6z"/>
	
		<linearGradient id="SVGID_24_" gradientUnits="userSpaceOnUse" x1="-953.7773" y1="-34.5406" x2="-953.7773" y2="-39.8744" gradientTransform="matrix(-1 0 0 -1 -928.7082 44)">
		<stop  offset="0" style="stop-color:#1F3A3C"/>
		<stop  offset="1" style="stop-color:#365D5A"/>
	</linearGradient>
	<path class="st35" d="M24.5,82.8c1.1-0.3,1.8-1,2.1-1.3c0.1,0.2,0.3,0.7,0.3,1.3c-0.1,1.1-0.9,1.8-1,1.9c0.5-0.2,2.4-1,3.4-3.1
		c1.6-3.4-0.3-6.8-0.4-6.9c-0.8,0.4-1.6,0.8-2.4,1.2c-0.1,2.4-1.3,4.5-3.1,5.4c-1.4,0.7-2.6,0.5-3.2,0.4
		C20.5,81.8,22.2,83.3,24.5,82.8z"/>
	
		<linearGradient id="SVGID_25_" gradientUnits="userSpaceOnUse" x1="-954.7293" y1="-30.6572" x2="-954.7293" y2="-33.3177" gradientTransform="matrix(-1 0 0 -1 -928.7082 44)">
		<stop  offset="0" style="stop-color:#233D41"/>
		<stop  offset="1" style="stop-color:#3E5E5F"/>
	</linearGradient>
	<path class="st36" d="M29.6,76.3c-0.6,1.3-1.9,1.9-2.1,1.9c-0.8,0.3-1.5,0.3-1.9,0.3c0.2-0.2,0.6-0.5,0.9-0.8
		c0.5-0.5,0.7-1.2,0.8-1.6c-0.3,0.1-1.6,0.7-3,0.2c-1.1-0.4-1.9-1.2-2.1-1.6c0.3,0.2,0.8,0.6,1.5,0.7c1.8,0.4,3.2-1,3.3-1.1
		c1.2-1.3,1.9-3.1,1.9-3.4C29.3,72.9,30.3,74.6,29.6,76.3z"/>
</g>
<g>
	
		<linearGradient id="SVGID_26_" gradientUnits="userSpaceOnUse" x1="51.3019" y1="-57.7611" x2="51.3019" y2="-64.374" gradientTransform="matrix(1 0 0 -1 0 44)">
		<stop  offset="0" style="stop-color:#27352D"/>
		<stop  offset="1" style="stop-color:#6A847D"/>
	</linearGradient>
	<path class="st37" d="M63.1,106.7c-1.3,0.2-4,0.5-6.9-0.7c-3.9-1.6-6.5-5.1-6.7-9.1c-1.7-0.7-3.4-1.3-5.1-2.1
		c-0.2,0.3-7.5,5.9-3.9,11.7c2.3,3.6,9.4,5.2,10.5,5.4c-0.3-0.2-2.1-1.3-2.2-3.4c0-1.1,0.4-1.9,0.7-2.2c0.7,0.7,2.3,1.8,4.6,2.2
		C58.9,109.5,62.6,107,63.1,106.7z"/>
	
		<linearGradient id="SVGID_27_" gradientUnits="userSpaceOnUse" x1="49.2952" y1="-44.9431" x2="49.2952" y2="-52.4894" gradientTransform="matrix(1 0 0 -1 0 44)">
		<stop  offset="0" style="stop-color:#27352D"/>
		<stop  offset="1" style="stop-color:#6A847D"/>
	</linearGradient>
	<path class="st38" d="M58,98.2c-1,0.2-3.3,0.5-5.7-0.7c-3.2-1.7-5.3-5.4-5.6-9.7c-1.4-0.7-2.8-1.4-4.2-2.1
		c-0.2,0.3-3.7,6.4-0.7,12.5c1.9,3.8,5.2,5.3,6.1,5.7c-0.2-0.2-1.7-1.4-1.8-3.5c0-1.1,0.3-2.1,0.6-2.4c0.6,0.7,1.9,1.9,3.8,2.4
		C54.5,101.3,57.6,98.6,58,98.2z"/>
	
		<linearGradient id="SVGID_28_" gradientUnits="userSpaceOnUse" x1="46.3403" y1="-39.1711" x2="46.3403" y2="-47.4139" gradientTransform="matrix(1 0 0 -1 0 44)">
		<stop  offset="0" style="stop-color:#27352D"/>
		<stop  offset="1" style="stop-color:#6A847D"/>
	</linearGradient>
	<path class="st39" d="M54.5,87.9c-1,0.2-2.9,0.4-5-0.7c-2.8-1.4-4.6-4.7-4.8-8.3c-1.2-0.7-2.4-1.2-3.7-1.9c-0.2,0.3-4.6,5.5-2,10.7
		c1.7,3.3,5.9,4.6,6.7,4.9c-0.2-0.2-1.5-1.2-1.6-3c0-1,0.3-1.8,0.5-2.1c0.5,0.6,1.7,1.6,3.3,2.1C51.6,90.6,54.3,88.2,54.5,87.9z"/>
	
		<linearGradient id="SVGID_29_" gradientUnits="userSpaceOnUse" x1="45.6848" y1="-33.2605" x2="45.6848" y2="-37.3089" gradientTransform="matrix(1 0 0 -1 0 44)">
		<stop  offset="0" style="stop-color:#27352D"/>
		<stop  offset="1" style="stop-color:#6A847D"/>
	</linearGradient>
	<path class="st40" d="M41.1,71.6c0,0.5,1.1,3.1,3,5c0.2,0.2,2.4,2.2,5.1,1.7c1-0.2,1.7-0.7,2.3-1.1c-0.3,0.6-1.5,1.8-3.2,2.4
		c-2.3,0.7-4.2-0.1-4.7-0.3c0.2,0.6,0.6,1.6,1.3,2.4c0.5,0.6,1,1,1.4,1.3c-0.6,0-1.7,0-2.9-0.5c-0.3-0.1-2.4-1-3.2-3
		C39.1,77.1,41.1,72.9,41.1,71.6z"/>
	
		<linearGradient id="SVGID_30_" gradientUnits="userSpaceOnUse" x1="-959.5513" y1="-57.9399" x2="-959.5513" y2="-64.5527" gradientTransform="matrix(-1 0 0 -1 -928.7082 44)">
		<stop  offset="0" style="stop-color:#27352D"/>
		<stop  offset="1" style="stop-color:#6A847D"/>
	</linearGradient>
	<path class="st41" d="M28,108.8c2.4-0.5,3.9-1.6,4.6-2.2c0.3,0.4,0.7,1.1,0.7,2.2c-0.1,2.1-1.9,3.2-2.2,3.4
		c1.1-0.3,8.3-1.9,10.6-5.5c3.6-5.8-3.8-11.4-4-11.7c-1.7,0.7-3.4,1.4-5.1,2.1c-0.3,4-2.8,7.6-6.7,9.1c-2.9,1.2-5.6,0.9-6.9,0.7
		C19.5,107.2,23.3,109.7,28,108.8z"/>
	
		<linearGradient id="SVGID_31_" gradientUnits="userSpaceOnUse" x1="-962.4384" y1="-45.0368" x2="-962.4384" y2="-52.2383" gradientTransform="matrix(-1 0 0 -1 -928.7082 44)">
		<stop  offset="0" style="stop-color:#27352D"/>
		<stop  offset="1" style="stop-color:#6A847D"/>
	</linearGradient>
	<path class="st42" d="M31.6,100.4c1.9-0.6,3.2-1.8,3.8-2.4c0.3,0.4,0.6,1.3,0.6,2.4c-0.1,2.1-1.7,3.4-1.8,3.5
		c0.9-0.4,6.4-3.1,8.3-7c3-6.1-2.8-10.9-2.9-11.2c-1.4,0.7-2.8,1.4-4.2,2.1c-0.3,4.3-2.4,8-5.6,9.7c-2.4,1.2-4.6,0.9-5.7,0.7
		C24.6,98.8,27.7,101.5,31.6,100.4z"/>
	
		<linearGradient id="SVGID_32_" gradientUnits="userSpaceOnUse" x1="-963.7635" y1="-39.3498" x2="-963.7635" y2="-47.5926" gradientTransform="matrix(-1 0 0 -1 -928.7082 44)">
		<stop  offset="0" style="stop-color:#27352D"/>
		<stop  offset="1" style="stop-color:#6A847D"/>
	</linearGradient>
	<path class="st43" d="M34.1,89.9c1.7-0.5,2.8-1.5,3.3-2.1c0.2,0.3,0.5,1,0.5,2.1c-0.1,1.8-1.4,2.8-1.6,3c0.8-0.3,3.7-1.6,5.3-4.9
		c2.5-5.2-0.4-10.5-0.6-10.7c-1.2,0.7-2.4,1.2-3.7,1.9c-0.2,3.6-2,6.9-4.8,8.3c-2.1,1-4,0.8-5,0.7C27.9,88.4,30.6,90.7,34.1,89.9z"
		/>
	
		<linearGradient id="SVGID_33_" gradientUnits="userSpaceOnUse" x1="-965.2473" y1="-33.3485" x2="-965.2473" y2="-37.4599" gradientTransform="matrix(-1 0 0 -1 -928.7082 44)">
		<stop  offset="0" style="stop-color:#27352D"/>
		<stop  offset="1" style="stop-color:#6A847D"/>
	</linearGradient>
	<path class="st44" d="M42,79.8c-0.9,2-3,2.9-3.2,3c-1.2,0.5-2.3,0.5-2.9,0.5c0.3-0.3,0.9-0.7,1.4-1.3c0.7-0.8,1.1-1.9,1.3-2.4
		c-0.5,0.2-2.4,1-4.7,0.3c-1.7-0.7-2.9-1.9-3.2-2.4c0.5,0.4,1.2,0.9,2.3,1.1c2.8,0.6,5-1.5,5.1-1.7c1.9-2,2.9-4.8,2.9-5.2
		C41.5,74.6,43.1,77.3,42,79.8z"/>
</g>
<linearGradient id="SVGID_34_" gradientUnits="userSpaceOnUse" x1="51.338" y1="-66.224" x2="72.27" y2="-77.23" gradientTransform="matrix(1 0 0 -1 0 44)">
	<stop  offset="0" style="stop-color:#D3D8A8"/>
	<stop  offset="1" style="stop-color:#28362E"/>
</linearGradient>
<path class="st45" d="M83,119.5c-6.2,1.4-10.3,0.4-13-0.8c-2.4-1.1-3.5-3.3-10.6-6.1c-2.5-1-4.2-2.2-6.5-1.8
	c-2.1,0.4-4.8,1.9-4.8,3.7c0.1,1.4,1.8,2.8,3.6,2.8c1.2,0,3.1-0.5,3.3-1.7c0.1-0.9-0.8-2-1.7-2.3c-0.6-0.2-1.6-0.3-1.9,0.2
	c-0.2,0.4,0.1,1,0.4,1.2c0.2,0.2,0.5,0.1,0.5,0.1s-0.4,0.2-0.8,0c-0.4-0.3-0.5-0.9-0.4-1.4c0.3-0.8,1.6-1.1,2.4-1.1
	c2,0,3.5,1.7,4.4,2.7c2.2,2.6,1.8,4.1,3.7,5.5c0.3,0.3,1.1,0.8,3.7,1.2c2.4,0.4,5.3,0.4,9.8-0.3C77.1,121.1,79.8,120.5,83,119.5z"/>
</svg>
