<?xml version="1.0" encoding="UTF-8" ?>
<!DOCTYPE svg PUBLIC "-//W3C//DTD SVG 1.1//EN" "http://www.w3.org/Graphics/SVG/1.1/DTD/svg11.dtd">
<svg width="840pt" height="840pt" viewBox="0 0 840 840" version="1.1" xmlns="http://www.w3.org/2000/svg">
<g id="#0000001a">
<path fill="#000000" opacity="0.10" d=" M 0.00 0.00 L 8.15 0.00 C 8.18 2.68 8.16 5.36 8.09 8.04 C 5.40 8.13 2.70 8.18 0.00 8.17 L 0.00 0.00 Z" />
<path fill="#000000" opacity="0.10" d=" M 831.82 0.00 L 840.00 0.00 L 840.00 8.18 C 837.29 8.20 834.59 8.17 831.89 8.09 C 831.83 5.39 831.81 2.70 831.82 0.00 Z" />
<path fill="#000000" opacity="0.10" d=" M 0.00 831.80 C 2.67 831.80 5.34 831.86 8.01 831.97 C 8.13 834.64 8.20 837.32 8.22 840.00 L 0.00 840.00 L 0.00 831.80 Z" />
<path fill="#000000" opacity="0.10" d=" M 831.90 831.89 C 834.59 831.83 837.29 831.83 840.00 831.87 L 840.00 840.00 L 831.83 840.00 C 831.79 837.29 831.81 834.59 831.90 831.89 Z" />
</g>
<g id="#000000ff">
<path fill="#000000" opacity="1.00" d=" M 457.35 8.19 C 458.78 5.57 460.21 2.95 461.69 0.35 C 552.77 50.44 643.78 100.65 734.94 150.58 C 733.69 153.39 732.18 156.08 730.48 158.64 C 639.57 108.26 548.31 58.48 457.35 8.19 Z" />
<path fill="#000000" opacity="1.00" d=" M 105.05 180.18 C 210.07 122.61 315.01 64.88 420.00 7.25 C 524.99 64.88 629.94 122.61 734.96 180.19 C 735.04 189.53 734.99 198.87 734.99 208.21 C 629.96 150.61 525.01 92.89 420.00 35.26 C 314.99 92.88 210.05 150.62 105.02 208.20 C 105.01 198.86 104.95 189.52 105.05 180.18 Z" />
<path fill="#000000" opacity="1.00" d=" M 105.00 230.24 C 210.02 172.60 315.00 114.89 420.01 57.26 C 525.01 114.91 629.99 172.60 735.00 230.23 C 735.00 336.71 735.00 443.18 734.99 549.65 C 723.33 556.01 711.67 562.36 700.06 568.82 C 699.82 557.10 700.25 545.37 699.83 533.65 C 692.71 551.11 683.97 567.91 673.81 583.79 C 671.53 587.27 667.23 590.12 662.96 589.07 C 664.62 584.91 667.46 581.42 669.76 577.64 C 687.78 548.93 700.99 517.18 708.32 484.08 C 700.34 476.27 692.54 468.28 684.58 460.44 C 683.10 458.95 681.50 457.54 680.31 455.79 C 679.68 452.58 680.06 449.28 680.00 446.03 C 679.99 427.69 680.03 409.36 679.97 391.03 C 679.96 389.08 679.90 386.87 681.61 385.56 C 690.69 376.45 699.83 367.40 708.89 358.26 C 694.57 291.86 657.05 230.41 603.46 188.47 C 577.02 167.62 547.02 151.26 515.13 140.43 C 504.04 151.61 492.83 162.67 481.79 173.90 C 440.83 174.07 399.87 173.91 358.90 173.98 C 347.55 162.86 336.46 151.47 325.14 140.31 C 266.75 160.16 214.52 198.41 179.13 249.05 C 156.00 281.73 139.60 319.12 131.10 358.25 C 140.14 367.38 149.29 376.42 158.35 385.53 C 159.74 386.64 160.10 388.35 160.01 390.06 C 160.00 411.04 160.00 432.03 160.01 453.01 C 160.10 454.68 159.71 456.36 158.36 457.47 C 149.47 466.33 140.63 475.26 131.68 484.08 C 139.12 517.71 152.65 549.95 171.11 579.02 C 173.39 582.68 176.08 586.10 177.85 590.06 C 177.34 590.33 176.32 590.87 175.81 591.13 C 172.60 589.62 168.94 588.32 167.04 585.09 C 156.56 568.86 147.46 551.71 140.28 533.76 C 139.63 545.66 140.19 557.58 139.98 569.49 C 128.30 563.17 116.70 556.70 105.01 550.39 C 104.99 443.67 105.00 336.95 105.00 230.24 M 420.46 59.04 C 415.67 64.05 410.60 68.80 405.88 73.88 C 403.88 73.89 401.89 73.87 399.91 73.87 C 399.90 75.90 399.92 77.92 399.91 79.94 C 391.48 88.05 383.36 96.49 375.07 104.74 C 376.90 106.58 378.70 108.46 380.49 110.35 C 377.89 113.25 375.04 115.91 372.29 118.66 C 378.27 124.35 383.77 130.54 389.99 135.98 C 410.02 135.95 430.06 135.80 450.09 136.05 C 456.19 130.49 461.90 124.51 467.73 118.67 C 465.26 116.11 462.79 113.54 460.14 111.17 C 462.15 108.91 464.35 106.82 466.31 104.52 C 459.70 98.43 453.79 91.59 447.02 85.67 C 447.15 81.74 447.11 77.80 446.95 73.86 C 443.07 73.87 439.20 73.88 435.34 73.87 C 430.57 68.75 425.68 63.70 420.46 59.04 M 375.62 98.38 C 377.77 97.90 379.19 96.17 380.65 94.67 C 383.40 91.74 386.42 89.08 388.99 85.98 C 388.54 85.96 387.64 85.92 387.19 85.90 C 383.25 89.94 378.49 93.49 375.62 98.38 M 462.23 127.46 C 462.10 127.95 461.83 128.93 461.70 129.42 C 465.22 127.11 467.74 123.66 470.86 120.87 C 472.20 119.40 474.30 118.15 474.04 115.87 C 469.81 119.41 466.02 123.46 462.23 127.46 M 394.30 139.51 C 394.25 143.60 394.27 147.70 394.27 151.80 C 395.37 151.78 396.47 151.76 397.59 151.75 C 397.57 150.91 397.53 149.25 397.51 148.41 C 399.84 147.74 400.24 150.37 401.26 151.71 C 402.55 151.75 403.85 151.79 405.16 151.84 C 404.17 149.83 401.76 147.87 403.47 145.52 L 403.82 142.80 C 401.89 144.17 400.13 146.15 397.52 145.81 C 397.51 144.62 397.52 143.43 397.52 142.24 C 399.66 142.10 401.85 143.01 403.94 142.32 C 402.91 141.23 401.74 140.33 400.43 139.62 C 398.38 139.69 396.34 139.62 394.30 139.51 M 428.17 139.46 C 428.11 141.30 428.07 143.14 428.03 144.99 C 425.89 143.00 423.84 140.93 421.73 138.92 C 420.24 143.02 421.32 147.50 420.99 151.77 C 421.82 151.78 423.49 151.79 424.32 151.80 C 424.33 149.87 424.36 147.94 424.43 146.01 C 426.55 148.21 428.43 150.76 431.16 152.28 C 431.33 149.37 431.35 146.46 431.45 143.56 C 431.06 143.52 430.29 143.44 429.91 143.41 L 431.35 143.12 C 431.35 142.24 431.36 140.47 431.37 139.59 C 430.30 139.54 429.23 139.50 428.17 139.46 M 406.13 151.88 C 407.72 151.69 409.90 152.29 410.41 150.19 C 411.90 150.21 413.41 150.07 414.90 150.34 C 415.90 151.65 417.29 152.19 419.07 151.96 C 417.68 148.60 416.08 145.34 414.59 142.03 C 414.06 140.86 413.40 139.55 412.02 139.22 C 409.96 143.40 408.19 147.71 406.13 151.88 M 434.19 139.52 C 434.16 143.61 434.23 147.70 434.20 151.80 C 435.04 151.79 436.72 151.77 437.55 151.76 C 437.54 150.79 437.52 148.85 437.51 147.88 C 439.64 148.38 440.91 150.29 442.38 151.76 C 443.94 151.77 445.50 151.77 447.07 151.77 C 444.92 149.50 442.65 147.34 440.49 145.08 C 442.39 143.22 444.28 141.35 446.16 139.47 C 445.07 139.50 442.90 139.55 441.81 139.58 C 440.22 140.58 438.98 142.04 437.47 143.16 C 437.49 142.26 437.53 140.44 437.54 139.54 C 436.71 139.53 435.03 139.52 434.19 139.52 M 408.83 154.67 C 412.10 159.00 416.30 162.53 420.02 166.48 C 423.87 162.71 427.68 158.89 431.30 154.90 C 430.90 154.99 430.09 155.19 429.69 155.28 C 423.28 154.49 416.70 154.53 410.29 155.27 C 409.92 155.12 409.19 154.82 408.83 154.67 M 139.99 255.76 C 140.15 272.56 139.72 289.37 140.21 306.16 C 151.19 279.60 165.61 254.36 183.74 232.01 C 168.93 239.47 154.60 247.88 139.99 255.76 M 656.25 231.96 C 674.34 254.35 688.82 279.57 699.78 306.15 C 700.26 289.75 699.90 273.32 699.97 256.91 C 700.37 255.35 698.45 255.06 697.57 254.35 C 683.73 247.02 670.23 239.02 656.25 231.96 Z" />
<path fill="#000000" opacity="1.00" d=" M 420.52 61.04 C 425.03 65.12 429.08 69.66 433.47 73.85 C 430.11 73.86 426.75 73.87 423.39 73.89 C 422.26 72.78 421.13 71.67 420.00 70.56 C 418.94 71.67 417.89 72.78 416.84 73.90 C 413.81 73.88 410.78 73.86 407.75 73.86 C 412.12 69.71 416.35 65.40 420.52 61.04 Z" />
<path fill="#000000" opacity="1.00" d=" M 377.15 104.79 C 384.51 96.91 392.42 89.54 399.89 81.76 C 399.88 83.54 399.90 85.32 399.91 87.10 C 400.89 87.09 402.84 87.08 403.82 87.07 C 400.85 90.00 397.88 92.93 395.04 95.99 C 390.53 100.39 386.14 104.91 381.61 109.29 C 380.07 107.84 378.49 106.42 377.15 104.79 Z" />
<path fill="#000000" opacity="1.00" d=" M 444.35 92.03 C 445.20 90.40 446.11 88.81 446.93 87.16 C 452.42 93.35 458.63 98.87 464.27 104.92 C 462.49 106.61 460.71 108.29 458.90 109.93 C 455.95 106.73 452.80 103.72 449.77 100.59 C 447.22 98.25 445.78 95.11 444.35 92.03 Z" />
<path fill="#000000" opacity="1.00" d=" M 411.49 147.74 C 409.55 144.37 415.64 144.59 413.59 147.81 C 413.06 147.79 412.02 147.75 411.49 147.74 Z" />
<path fill="#000000" opacity="1.00" d=" M 47.01 278.00 C 57.83 278.01 68.66 278.01 79.48 278.00 C 79.52 283.16 79.51 288.32 79.49 293.48 C 68.66 293.47 57.83 293.53 46.99 293.45 C 47.01 288.30 46.99 283.15 47.01 278.00 Z" />
<path fill="#000000" opacity="1.00" d=" M 47.00 307.01 C 57.83 307.00 68.66 307.02 79.48 307.00 C 79.52 312.16 79.51 317.32 79.49 322.48 C 68.66 322.47 57.83 322.51 47.00 322.46 C 47.00 317.31 46.99 312.16 47.00 307.01 Z" />
<path fill="#000000" opacity="1.00" d=" M 47.00 335.02 C 57.82 335.00 68.64 335.05 79.46 335.00 C 79.54 340.16 79.50 345.32 79.49 350.49 C 68.66 350.49 57.83 350.51 47.00 350.48 C 47.00 345.32 47.00 340.17 47.00 335.02 Z" />
<path fill="#000000" opacity="1.00" d=" M 47.14 365.41 C 57.93 365.64 68.73 365.37 79.52 365.56 C 79.48 370.70 79.53 375.85 79.48 381.00 C 68.65 380.96 57.83 381.00 47.00 380.97 C 47.05 375.79 46.87 370.60 47.14 365.41 Z" />
<path fill="#000000" opacity="1.00" d=" M 48.60 399.98 C 49.36 400.03 50.89 400.11 51.66 400.15 C 51.15 402.78 56.12 406.72 51.64 407.77 C 51.84 409.28 51.18 411.23 52.61 412.32 C 54.38 413.73 53.44 415.97 51.84 417.01 C 51.79 417.71 51.68 419.10 51.63 419.79 C 50.59 419.74 49.56 419.68 48.52 419.64 C 48.54 417.54 48.55 415.44 48.56 413.34 C 47.85 413.86 46.43 414.91 45.72 415.43 C 45.69 413.63 45.68 411.84 45.69 410.05 C 49.55 407.99 48.50 403.59 48.60 399.98 Z" />
<path fill="#000000" opacity="1.00" d=" M 54.68 400.10 C 55.47 400.12 57.05 400.16 57.84 400.18 C 57.87 404.11 57.81 408.04 57.82 411.98 C 57.48 416.22 62.34 417.95 64.34 421.13 C 62.53 421.20 60.73 421.24 58.92 421.29 C 57.46 419.90 56.02 418.50 54.59 417.08 C 54.65 411.42 54.51 405.76 54.68 400.10 Z" />
<path fill="#000000" opacity="1.00" d=" M 59.18 400.18 C 60.75 400.16 62.32 400.14 63.88 400.13 C 64.38 403.67 62.38 408.63 66.09 410.90 C 66.18 407.80 66.16 404.69 66.28 401.59 C 67.32 401.62 68.36 401.66 69.40 401.70 C 73.85 406.05 78.35 410.35 82.66 414.84 C 80.77 414.85 78.88 414.87 76.99 414.89 C 74.44 412.56 72.21 409.86 69.38 407.84 C 69.37 410.03 69.40 412.23 69.47 414.42 C 71.12 415.86 72.72 417.37 73.96 419.19 C 72.10 419.02 70.03 419.61 68.27 418.81 C 66.78 417.65 65.51 416.25 64.18 414.93 C 64.07 415.57 63.84 416.84 63.73 417.48 C 61.67 415.99 60.01 413.95 60.72 411.24 L 59.05 411.66 C 58.54 408.18 60.40 405.19 60.87 401.86 C 60.44 401.44 59.60 400.60 59.18 400.18 Z" />
<path fill="#000000" opacity="1.00" d=" M 53.28 420.43 C 55.80 419.89 56.86 421.06 56.73 423.43 C 64.04 423.36 71.34 423.41 78.64 423.39 C 80.04 424.78 81.43 426.19 82.80 427.61 C 79.00 427.51 75.19 427.48 71.38 427.62 C 73.33 429.77 75.42 431.79 77.42 433.89 C 77.26 440.72 77.49 447.56 77.28 454.39 C 76.24 453.51 75.22 452.64 74.19 451.76 C 74.17 449.47 74.16 447.17 74.15 444.89 C 72.57 444.88 70.99 444.87 69.41 444.87 C 69.48 447.27 68.82 450.01 70.69 451.92 C 66.85 451.87 63.02 451.91 59.18 451.88 C 59.18 449.55 59.18 447.22 59.17 444.90 L 57.87 444.87 C 57.86 446.87 57.86 448.88 57.85 450.89 C 54.77 450.88 51.70 450.89 48.62 450.93 C 47.95 445.55 49.74 439.74 47.56 434.66 C 50.99 434.72 54.42 434.68 57.84 434.74 C 58.13 436.88 57.02 439.68 59.01 441.23 C 59.19 438.69 59.21 436.14 59.28 433.60 C 62.65 433.66 66.02 433.66 69.40 433.69 C 69.40 436.02 69.41 438.36 69.39 440.70 C 70.95 440.72 72.51 440.75 74.07 440.79 C 73.94 439.08 74.78 436.96 73.38 435.62 C 70.70 432.80 67.86 430.14 65.03 427.48 C 62.11 427.54 59.18 427.53 56.26 427.58 C 56.72 428.58 57.18 429.59 57.64 430.61 C 56.21 430.54 54.78 430.50 53.35 430.46 C 53.31 429.74 53.24 428.29 53.21 427.56 C 51.19 427.55 49.18 427.57 47.17 427.61 C 47.14 426.18 47.13 424.76 47.12 423.35 C 49.15 423.39 51.19 423.37 53.23 423.29 C 53.24 422.58 53.26 421.15 53.28 420.43 M 62.52 437.74 C 62.49 438.71 62.46 439.69 62.43 440.68 C 63.67 440.71 64.91 440.75 66.16 440.80 C 66.05 439.74 65.94 438.69 65.83 437.65 C 64.72 437.67 63.62 437.71 62.52 437.74 M 51.70 440.05 C 51.65 442.26 51.70 444.48 51.67 446.70 C 52.65 446.72 53.63 446.74 54.61 446.78 C 54.60 444.29 54.73 441.80 54.57 439.32 C 53.80 438.11 51.53 438.57 51.70 440.05 M 62.25 447.70 C 63.54 447.75 64.84 447.81 66.13 447.88 C 66.15 447.10 66.17 445.56 66.18 444.79 C 63.92 444.48 61.79 444.95 62.25 447.70 Z" />
<path fill="#000000" opacity="1.00" d=" M 48.61 453.92 C 52.28 453.90 55.95 453.82 59.61 454.13 C 59.56 456.15 59.53 458.17 59.52 460.20 C 60.32 460.14 61.91 460.02 62.71 459.96 C 62.69 457.95 62.69 455.94 62.69 453.93 C 66.43 454.33 71.29 452.50 73.93 456.04 C 77.56 459.78 81.44 463.28 84.97 467.11 C 82.86 466.86 80.23 467.92 78.46 466.32 C 75.56 463.65 72.88 460.75 70.02 458.05 C 68.63 458.05 67.25 458.06 65.86 458.08 C 65.87 460.15 65.86 462.29 66.84 464.19 C 63.38 464.19 59.91 464.20 56.45 464.18 C 56.46 462.17 56.48 460.17 56.52 458.17 C 54.93 458.11 53.34 458.06 51.75 458.01 C 51.77 464.05 51.61 470.09 51.79 476.13 C 52.64 478.28 54.83 479.50 56.43 481.05 C 56.23 476.86 57.18 472.47 55.60 468.45 C 62.23 468.58 68.86 468.58 75.49 468.47 C 75.75 476.01 75.55 483.56 75.60 491.11 C 75.95 491.57 76.66 492.49 77.02 492.96 C 70.14 492.83 63.26 493.04 56.39 492.82 C 56.42 490.90 56.44 488.97 56.46 487.06 C 54.95 485.56 53.41 484.09 51.81 482.71 C 51.74 488.83 51.56 494.97 51.84 501.08 C 53.21 502.09 54.14 503.86 53.19 505.48 C 51.04 506.29 51.81 508.60 51.65 510.33 C 54.11 510.58 54.43 514.94 51.80 515.34 C 51.73 516.73 51.68 518.12 51.63 519.53 C 50.60 519.46 49.57 519.41 48.53 519.36 C 48.53 516.90 48.55 514.44 48.60 511.99 C 47.61 512.64 46.62 513.30 45.62 513.96 C 45.61 512.25 45.59 510.54 45.57 508.84 C 46.56 507.77 47.56 506.71 48.55 505.65 C 48.59 488.41 48.48 471.16 48.61 453.92 M 59.47 488.75 C 63.79 488.87 68.11 488.79 72.43 488.86 C 72.56 483.44 72.50 478.02 72.47 472.60 C 68.19 472.60 63.90 472.62 59.62 472.59 C 59.40 477.97 59.62 483.36 59.47 488.75 Z" />
<path fill="#000000" opacity="1.00" d=" M 62.82 474.81 C 65.07 476.83 67.21 478.98 69.39 481.08 C 69.39 482.94 69.38 484.79 69.36 486.65 C 67.07 484.53 64.47 482.62 62.74 479.99 C 62.50 478.26 62.72 476.53 62.82 474.81 Z" />
<path fill="#000000" opacity="1.00" d=" M 761.55 477.00 C 772.36 477.04 783.18 477.02 794.00 477.01 C 794.00 482.16 793.99 487.32 794.00 492.48 C 783.17 492.51 772.34 492.50 761.51 492.48 C 761.50 487.32 761.45 482.16 761.55 477.00 Z" />
<path fill="#000000" opacity="1.00" d=" M 68.45 495.08 C 70.35 495.11 72.24 495.14 74.13 495.14 C 75.27 496.28 76.39 497.45 77.47 498.67 C 77.34 502.08 77.37 505.50 77.32 508.91 C 75.04 508.89 72.76 508.88 70.49 508.93 C 70.81 510.04 71.38 511.02 72.20 511.84 C 76.45 516.13 80.93 520.20 85.02 524.66 C 83.12 524.63 81.23 524.62 79.33 524.61 C 76.69 522.11 74.17 519.48 71.48 517.04 C 71.16 517.36 70.53 518.01 70.21 518.34 C 66.55 518.55 62.88 518.31 59.21 518.41 C 59.12 511.69 59.21 504.96 59.15 498.24 C 61.76 498.29 64.37 498.37 66.98 498.39 C 68.26 498.70 69.79 498.09 70.25 496.82 C 69.80 496.38 68.90 495.51 68.45 495.08 M 70.68 504.78 C 71.58 504.78 73.39 504.78 74.29 504.78 C 74.36 502.43 73.87 500.15 72.24 498.38 C 70.06 499.83 70.71 502.56 70.68 504.78 M 62.21 502.48 C 61.68 506.47 62.08 510.51 62.03 514.53 C 62.46 514.37 63.33 514.06 63.77 513.90 C 64.08 509.95 63.84 505.99 63.72 502.04 C 63.35 502.15 62.59 502.37 62.21 502.48 M 66.27 501.98 C 66.01 505.97 65.86 509.99 66.14 513.99 C 66.60 514.10 67.53 514.32 67.99 514.43 C 67.97 510.91 68.15 507.40 67.97 503.89 C 68.04 502.72 67.48 502.08 66.27 501.98 Z" />
<path fill="#000000" opacity="1.00" d=" M 53.61 495.79 C 55.03 495.82 56.45 495.86 57.87 495.90 C 57.85 504.70 57.85 513.50 57.87 522.30 C 60.54 522.32 63.21 522.31 65.88 522.27 C 65.45 521.77 64.60 520.78 64.18 520.29 C 66.06 520.27 67.95 520.26 69.83 520.23 C 72.29 522.83 75.45 524.95 77.28 528.03 C 77.51 534.07 77.31 540.13 77.34 546.18 C 75.18 546.18 73.02 546.19 70.87 546.22 C 72.79 548.13 74.71 550.04 76.55 552.02 C 74.67 552.06 72.79 552.10 70.91 552.12 C 68.92 550.13 66.92 548.16 64.90 546.21 C 61.59 546.22 58.28 546.21 54.97 546.23 C 52.83 544.22 50.72 542.18 48.77 539.99 C 51.17 540.01 53.96 539.27 55.80 541.25 C 57.06 542.57 58.98 541.98 60.59 542.14 C 58.68 540.02 56.64 538.03 54.60 536.04 C 54.60 532.81 54.60 529.58 54.62 526.36 C 52.08 526.35 49.54 526.33 47.00 526.31 C 47.05 524.95 47.10 523.59 47.15 522.25 C 49.59 522.29 52.03 522.32 54.47 522.37 C 54.79 515.94 54.50 509.49 54.62 503.05 C 54.57 500.60 55.02 497.97 53.61 495.79 M 57.84 526.39 C 58.01 528.79 57.38 531.40 58.23 533.69 C 60.92 536.70 63.93 539.43 66.87 542.22 C 69.29 542.16 71.72 542.14 74.15 542.14 C 74.01 538.13 74.54 534.06 73.90 530.10 C 72.82 528.66 71.42 527.51 70.11 526.30 C 66.02 526.39 61.93 526.32 57.84 526.39 Z" />
<path fill="#000000" opacity="1.00" d=" M 761.52 507.50 C 772.35 507.51 783.17 507.47 794.00 507.52 C 793.99 512.67 794.00 517.83 794.00 522.98 C 783.17 522.98 772.35 522.96 761.53 523.00 C 761.47 517.83 761.48 512.66 761.52 507.50 Z" />
<path fill="#000000" opacity="1.00" d=" M 59.73 531.84 C 61.52 531.71 63.31 531.63 65.10 531.56 C 67.34 533.64 69.57 535.74 71.59 538.03 C 69.73 538.07 67.87 538.10 66.01 538.12 C 63.88 536.06 61.75 534.01 59.73 531.84 Z" />
<path fill="#000000" opacity="1.00" d=" M 761.54 534.99 C 772.35 535.02 783.17 535.01 793.99 535.00 C 794.01 540.15 793.99 545.31 794.00 550.46 C 783.18 550.51 772.36 550.46 761.54 550.49 C 761.47 545.32 761.47 540.16 761.54 534.99 Z" />
<path fill="#000000" opacity="1.00" d=" M 58.69 548.09 C 60.47 548.05 62.25 547.96 64.03 548.13 C 65.76 548.98 66.89 550.64 68.20 552.00 C 66.48 552.07 64.74 552.22 63.02 552.03 C 61.16 551.29 60.05 549.46 58.69 548.09 Z" />
<path fill="#000000" opacity="1.00" d=" M 55.33 549.46 C 56.38 549.54 57.42 549.62 58.47 549.70 C 58.43 551.06 58.39 552.43 58.35 553.80 C 64.56 554.03 70.78 553.80 76.99 553.90 C 79.63 553.71 80.93 556.48 82.64 558.00 C 79.20 558.07 75.76 558.06 72.32 558.09 C 73.56 559.36 74.81 560.63 76.03 561.92 C 74.08 561.94 72.12 561.94 70.17 561.93 C 68.83 560.64 67.75 558.92 66.03 558.15 C 63.37 557.85 60.70 558.08 58.05 558.25 C 58.46 559.53 58.90 560.81 59.42 562.06 C 58.01 562.01 56.60 561.96 55.19 561.93 C 55.18 560.61 55.17 559.31 55.16 558.01 C 54.44 558.04 52.99 558.10 52.27 558.13 C 52.31 558.83 52.38 560.23 52.42 560.94 C 51.62 560.92 50.02 560.88 49.22 560.86 C 49.00 557.91 48.80 554.97 48.63 552.02 C 48.25 551.57 47.50 550.67 47.13 550.22 C 48.64 550.25 50.16 550.28 51.67 550.31 C 51.81 551.51 51.95 552.72 52.09 553.93 C 52.85 553.92 54.35 553.91 55.11 553.90 C 55.18 552.41 55.25 550.93 55.33 549.46 Z" />
<path fill="#000000" opacity="1.00" d=" M 761.52 564.00 C 772.34 564.01 783.17 564.01 793.99 564.00 C 794.01 569.16 793.99 574.31 794.00 579.47 C 783.18 579.49 772.35 579.47 761.53 579.48 C 761.47 574.32 761.48 569.16 761.52 564.00 Z" />
<path fill="#000000" opacity="1.00" d=" M 391.74 612.45 C 401.38 603.36 410.51 593.73 419.99 584.47 C 423.36 587.95 426.85 591.32 430.22 594.81 C 432.11 596.53 434.03 599.76 436.89 597.74 C 452.22 592.10 470.08 593.40 484.13 601.83 C 492.51 606.84 498.66 614.82 502.89 623.50 C 534.27 623.51 565.65 623.47 597.03 623.52 C 598.84 623.59 600.62 623.15 602.23 622.32 C 591.28 628.34 580.33 634.36 569.35 640.33 C 567.48 641.41 565.35 642.21 563.83 643.78 C 561.83 649.02 560.65 654.55 558.95 659.89 C 545.97 666.90 532.98 673.91 519.93 680.79 C 517.25 678.02 514.56 675.26 511.69 672.70 C 510.94 677.03 515.01 679.40 517.57 682.12 C 514.16 684.09 510.70 685.98 507.18 687.75 C 507.75 681.54 507.92 675.31 507.81 669.09 C 507.24 650.54 504.82 630.72 493.38 615.43 C 475.92 592.36 436.82 592.73 418.80 614.92 C 415.85 618.44 413.50 622.41 411.53 626.54 C 407.34 635.69 405.09 645.61 403.97 655.58 C 402.10 672.05 402.79 688.93 406.97 705.01 C 400.53 708.59 394.05 712.10 387.62 715.69 C 388.11 677.41 387.68 639.10 387.81 600.81 C 378.91 600.80 370.02 600.79 361.12 600.81 C 350.44 616.44 334.91 628.42 317.54 635.78 C 317.47 641.93 317.44 648.08 317.56 654.23 C 333.10 650.40 348.99 644.74 360.80 633.52 C 361.48 656.63 360.87 679.77 361.09 702.90 C 348.13 696.06 335.23 689.09 322.32 682.14 C 333.40 670.94 344.60 659.87 355.71 648.71 C 357.23 647.53 357.10 645.61 357.14 643.90 C 344.69 656.10 332.46 668.53 320.09 680.81 C 307.05 673.90 294.06 666.91 281.06 659.92 C 279.55 654.74 278.01 649.58 276.55 644.40 C 263.77 637.23 250.86 630.29 238.03 623.21 C 239.34 623.36 240.66 623.46 241.99 623.50 C 270.01 623.52 298.03 623.46 326.06 623.53 C 328.78 623.39 331.89 624.10 334.19 622.23 C 343.15 616.05 350.96 608.28 357.30 599.44 C 359.31 596.00 363.72 597.01 367.04 596.84 C 374.34 597.14 381.70 596.36 388.96 597.23 C 393.22 599.06 391.19 604.82 392.13 608.44 L 392.13 608.80 C 392.02 610.01 391.89 611.22 391.74 612.45 Z" />
<path fill="#000000" opacity="1.00" d=" M 761.52 592.01 C 772.34 592.03 783.17 592.02 794.00 592.01 C 794.00 597.17 793.99 602.32 794.00 607.48 C 783.17 607.50 772.34 607.50 761.51 607.48 C 761.49 602.32 761.48 597.16 761.52 592.01 Z" />
<path fill="#000000" opacity="1.00" d=" M 105.04 609.82 C 195.06 659.14 284.98 708.64 374.98 758.01 C 377.59 759.39 380.23 760.76 382.53 762.63 C 394.14 770.27 407.04 775.82 418.78 783.28 C 419.28 783.29 420.28 783.32 420.78 783.33 C 428.58 778.43 436.88 774.37 444.89 769.83 C 448.95 767.43 453.40 765.64 457.07 762.63 C 460.84 760.04 465.01 758.13 468.97 755.85 C 557.64 707.19 646.25 658.42 734.96 609.83 C 735.02 626.49 735.03 643.15 734.96 659.81 C 629.96 717.40 525.01 775.08 420.05 832.74 C 315.01 775.15 210.06 717.39 105.03 659.79 C 104.99 643.13 104.97 626.47 105.04 609.82 Z" />
<path fill="#000000" opacity="1.00" d=" M 445.78 619.71 C 453.31 615.49 464.13 616.23 469.87 623.14 C 476.32 630.76 478.05 641.04 479.37 650.63 C 480.95 668.20 480.88 686.04 477.72 703.45 C 471.46 707.29 464.70 710.22 458.41 714.02 C 457.86 715.34 457.26 716.68 456.05 717.55 C 455.22 717.14 454.39 716.74 453.57 716.34 C 447.19 712.93 440.78 709.56 434.51 705.98 C 431.37 695.25 430.49 684.03 430.41 672.90 C 430.37 662.91 430.78 652.85 432.80 643.05 C 434.64 634.32 437.77 624.66 445.78 619.71 M 456.73 620.98 C 461.72 626.48 467.02 631.74 472.54 636.71 C 471.69 631.27 467.10 627.89 463.41 624.32 C 464.86 622.98 462.37 620.72 461.10 622.12 C 460.09 620.92 458.10 621.42 456.73 620.98 Z" />
<path fill="#000000" opacity="1.00" d=" M 761.51 622.51 C 772.34 622.49 783.17 622.49 794.00 622.51 C 794.00 627.67 794.00 632.83 794.00 637.99 C 783.17 637.98 772.34 637.97 761.52 637.99 C 761.48 632.83 761.49 627.66 761.51 622.51 Z" />
<path fill="#000000" opacity="1.00" d=" M 105.03 689.51 C 106.06 686.56 107.63 683.85 109.45 681.33 C 143.05 700.25 177.01 718.56 210.75 737.23 C 259.49 764.12 308.36 790.77 357.01 817.80 C 354.53 819.93 352.04 822.08 349.25 823.81 C 277.74 784.20 206.00 744.98 134.41 705.52 C 124.60 700.22 114.94 694.62 105.03 689.51 Z" />
<path fill="#000000" opacity="1.00" d=" M 384.77 719.93 C 395.61 713.63 406.65 707.68 417.77 701.91 C 417.80 704.74 417.78 707.57 417.68 710.41 C 416.12 711.72 414.62 713.09 413.12 714.48 C 411.50 712.82 409.78 711.01 407.24 711.37 C 407.59 712.86 407.95 714.36 408.32 715.86 C 404.76 717.53 401.37 719.65 398.88 722.75 C 401.10 724.50 401.65 726.93 400.41 729.48 C 398.52 729.60 396.65 729.35 394.86 728.77 C 393.76 733.02 392.13 737.42 393.24 741.86 C 394.47 749.17 398.93 756.20 406.08 758.90 C 403.89 755.60 401.64 752.12 401.28 748.08 C 400.52 744.20 401.83 740.43 402.67 736.70 C 400.82 738.66 399.50 741.03 398.14 743.34 C 398.42 735.01 403.57 726.74 411.75 724.17 C 410.95 725.51 410.14 726.85 409.32 728.19 C 410.64 729.42 411.98 730.66 413.32 731.90 C 413.28 733.23 413.25 734.58 413.23 735.93 C 413.59 736.44 414.31 737.44 414.68 737.94 C 411.55 742.34 412.94 747.96 412.56 752.99 C 409.91 750.84 407.65 748.31 405.33 745.85 C 406.17 750.06 408.31 753.77 410.51 757.40 C 411.27 761.97 411.67 766.63 412.91 771.11 C 413.82 774.01 415.62 776.52 417.08 779.16 C 406.25 773.32 395.40 767.49 384.71 761.38 C 384.87 747.57 384.75 733.74 384.77 719.93 Z" />
<path fill="#000000" opacity="1.00" d=" M 421.42 701.86 C 431.77 706.78 441.69 712.55 451.77 717.98 C 452.40 718.32 453.67 719.00 454.31 719.34 C 454.75 732.54 454.37 745.75 454.52 758.96 C 455.16 761.53 452.54 762.63 450.81 763.83 C 443.23 767.93 435.68 772.08 428.14 776.25 C 426.21 777.25 424.21 778.09 422.21 778.93 C 425.46 774.43 427.34 769.21 427.67 763.66 C 432.59 762.03 437.14 759.44 440.76 755.71 C 439.07 754.15 437.06 751.33 439.30 749.37 C 440.75 747.59 442.84 749.17 444.52 749.61 C 449.42 738.62 444.88 723.62 433.17 719.20 C 438.50 725.30 439.83 733.91 436.89 741.41 C 438.74 739.47 439.96 737.06 441.46 734.87 C 441.00 744.06 434.79 752.71 425.62 754.87 C 427.38 750.34 426.46 745.46 426.24 740.77 C 425.71 739.92 425.19 739.09 424.67 738.26 C 425.62 736.10 425.94 733.75 426.58 731.51 C 427.58 730.17 428.88 729.11 430.08 727.97 C 431.38 729.42 432.68 730.88 434.03 732.30 C 433.27 728.14 431.34 724.33 428.93 720.90 C 430.11 717.90 431.17 714.86 432.11 711.78 C 431.36 711.71 429.87 711.55 429.12 711.48 C 428.12 712.50 427.11 713.54 426.11 714.57 C 424.57 713.13 423.02 711.72 421.43 710.36 C 421.41 707.52 421.41 704.69 421.42 701.86 Z" />
<path fill="#000000" opacity="1.00" d=" M 381.69 713.95 C 383.09 714.69 384.50 715.43 385.96 716.10 L 386.93 716.01 L 386.43 716.24 C 385.50 716.65 384.59 717.12 383.72 717.63 C 382.81 716.54 382.12 715.29 381.69 713.95 Z" />
</g>
<g id="#f1112fff">
<path fill="#f1112f" opacity="1.00" d=" M 105.02 208.20 C 210.05 150.62 314.99 92.88 420.00 35.26 C 525.01 92.89 629.96 150.61 734.99 208.21 C 735.01 215.55 735.00 222.89 735.00 230.23 C 629.99 172.60 525.01 114.91 420.01 57.26 C 315.00 114.89 210.02 172.60 105.00 230.24 C 105.00 222.89 104.98 215.54 105.02 208.20 Z" />
<path fill="#f1112f" opacity="1.00" d=" M 761.48 229.53 C 772.28 229.41 783.08 229.62 793.88 229.42 C 794.12 234.94 793.95 240.47 794.00 246.00 C 783.16 246.00 772.33 246.00 761.50 246.00 C 761.48 240.51 761.51 235.02 761.48 229.53 Z" />
<path fill="#f1112f" opacity="1.00" d=" M 139.99 255.76 C 154.60 247.88 168.93 239.47 183.74 232.01 C 165.61 254.36 151.19 279.60 140.21 306.16 C 139.72 289.37 140.15 272.56 139.99 255.76 Z" />
<path fill="#f1112f" opacity="1.00" d=" M 656.25 231.96 C 670.23 239.02 683.73 247.02 697.57 254.35 C 698.45 255.06 700.37 255.35 699.97 256.91 C 699.90 273.32 700.26 289.75 699.78 306.15 C 688.82 279.57 674.34 254.35 656.25 231.96 Z" />
<path fill="#f1112f" opacity="1.00" d=" M 761.50 253.51 C 772.29 253.44 783.09 253.60 793.89 253.43 C 794.14 304.95 793.93 356.48 794.00 408.00 C 783.14 407.93 772.28 408.14 761.42 407.89 C 761.59 356.43 761.45 304.97 761.50 253.51 Z" />
<path fill="#f1112f" opacity="1.00" d=" M 761.51 420.00 C 772.34 420.01 783.17 420.01 794.00 420.01 C 794.00 425.16 794.00 430.32 794.00 435.48 C 783.17 435.48 772.33 435.48 761.50 435.48 C 761.49 430.32 761.49 425.16 761.51 420.00 Z" />
<path fill="#f1112f" opacity="1.00" d=" M 761.51 449.00 C 772.34 449.01 783.17 449.01 794.00 449.01 C 794.00 454.16 794.00 459.32 794.00 464.48 C 783.17 464.48 772.33 464.48 761.50 464.48 C 761.49 459.32 761.48 454.16 761.51 449.00 Z" />
<path fill="#f1112f" opacity="1.00" d=" M 139.98 569.49 C 140.19 557.58 139.63 545.66 140.28 533.76 C 147.46 551.71 156.56 568.86 167.04 585.09 C 168.94 588.32 172.60 589.62 175.81 591.13 C 176.32 590.87 177.34 590.33 177.85 590.06 C 197.81 601.28 217.97 612.15 238.03 623.21 C 250.86 630.29 263.77 637.23 276.55 644.40 C 278.01 649.58 279.55 654.74 281.06 659.92 C 294.06 666.91 307.05 673.90 320.09 680.81 C 332.46 668.53 344.69 656.10 357.14 643.90 C 357.10 645.61 357.23 647.53 355.71 648.71 C 344.60 659.87 333.40 670.94 322.32 682.14 C 335.23 689.09 348.13 696.06 361.09 702.90 C 368.01 706.47 374.88 710.16 381.69 713.95 C 382.12 715.29 382.81 716.54 383.72 717.63 C 383.45 717.92 382.92 718.50 382.65 718.79 C 382.51 733.40 382.76 748.02 382.53 762.63 C 380.23 760.76 377.59 759.39 374.98 758.01 C 284.98 708.64 195.06 659.14 105.04 609.82 C 104.95 590.01 105.02 570.19 105.01 550.39 C 116.70 556.70 128.30 563.17 139.98 569.49 Z" />
<path fill="#f1112f" opacity="1.00" d=" M 673.81 583.79 C 683.97 567.91 692.71 551.11 699.83 533.65 C 700.25 545.37 699.82 557.10 700.06 568.82 C 711.67 562.36 723.33 556.01 734.99 549.65 C 734.98 569.71 735.05 589.77 734.96 609.83 C 646.25 658.42 557.64 707.19 468.97 755.85 C 465.01 758.13 460.84 760.04 457.07 762.63 C 456.81 748.75 457.01 734.86 456.96 720.98 C 457.01 719.73 456.78 718.55 456.05 717.55 C 457.26 716.68 457.86 715.34 458.41 714.02 C 464.70 710.22 471.46 707.29 477.72 703.45 C 487.55 698.24 497.29 692.85 507.18 687.75 C 510.70 685.98 514.16 684.09 517.57 682.12 C 515.01 679.40 510.94 677.03 511.69 672.70 C 514.56 675.26 517.25 678.02 519.93 680.79 C 532.98 673.91 545.97 666.90 558.95 659.89 C 560.65 654.55 561.83 649.02 563.83 643.78 C 565.35 642.21 567.48 641.41 569.35 640.33 C 580.33 634.36 591.28 628.34 602.23 622.32 C 622.43 611.14 642.69 600.09 662.96 589.07 C 667.23 590.12 671.53 587.27 673.81 583.79 Z" />
<path fill="#f1112f" opacity="1.00" d=" M 392.13 608.44 C 401.78 599.64 410.68 590.03 420.04 580.91 C 425.72 586.45 431.29 592.11 436.89 597.74 C 434.03 599.76 432.11 596.53 430.22 594.81 C 426.85 591.32 423.36 587.95 419.99 584.47 C 410.51 593.73 401.38 603.36 391.74 612.45 C 391.89 611.22 392.02 610.01 392.13 608.80 L 392.13 608.44 Z" />
<path fill="#f1112f" opacity="1.00" d=" M 456.73 620.98 C 458.10 621.42 460.09 620.92 461.10 622.12 C 461.66 623.03 462.47 623.76 463.41 624.32 C 467.10 627.89 471.69 631.27 472.54 636.71 C 467.02 631.74 461.72 626.48 456.73 620.98 Z" />
<path fill="#f1112f" opacity="1.00" d=" M 417.33 696.06 C 418.80 696.02 420.27 696.00 421.74 695.99 C 421.69 696.69 421.58 698.10 421.53 698.80 C 425.90 701.10 430.26 703.44 434.51 705.98 C 440.78 709.56 447.19 712.93 453.57 716.34 C 453.12 716.75 452.22 717.57 451.77 717.98 C 441.69 712.55 431.77 706.78 421.42 701.86 C 421.41 704.69 421.41 707.52 421.43 710.36 C 423.02 711.72 424.57 713.13 426.11 714.57 C 427.11 713.54 428.12 712.50 429.12 711.48 C 429.87 711.55 431.36 711.71 432.11 711.78 C 431.17 714.86 430.11 717.90 428.93 720.90 C 431.34 724.33 433.27 728.14 434.03 732.30 C 432.68 730.88 431.38 729.42 430.08 727.97 C 428.88 729.11 427.58 730.17 426.58 731.51 C 425.94 733.75 425.62 736.10 424.67 738.26 C 425.19 739.09 425.71 739.92 426.24 740.77 C 426.46 745.46 427.38 750.34 425.62 754.87 C 434.79 752.71 441.00 744.06 441.46 734.87 C 439.96 737.06 438.74 739.47 436.89 741.41 C 439.83 733.91 438.50 725.30 433.17 719.20 C 444.88 723.62 449.42 738.62 444.52 749.61 C 442.84 749.17 440.75 747.59 439.30 749.37 C 437.06 751.33 439.07 754.15 440.76 755.71 C 437.14 759.44 432.59 762.03 427.67 763.66 C 427.34 769.21 425.46 774.43 422.21 778.93 C 424.21 778.09 426.21 777.25 428.14 776.25 C 424.87 778.00 421.54 779.83 419.21 782.83 C 418.51 781.58 417.82 780.36 417.08 779.16 C 415.62 776.52 413.82 774.01 412.91 771.11 C 411.67 766.63 411.27 761.97 410.51 757.40 C 408.31 753.77 406.17 750.06 405.33 745.85 C 407.65 748.31 409.91 750.84 412.56 752.99 C 412.94 747.96 411.55 742.34 414.68 737.94 C 414.31 737.44 413.59 736.44 413.23 735.93 C 413.25 734.58 413.28 733.23 413.32 731.90 C 411.98 730.66 410.64 729.42 409.32 728.19 C 410.14 726.85 410.95 725.51 411.75 724.17 C 403.57 726.74 398.42 735.01 398.14 743.34 C 399.50 741.03 400.82 738.66 402.67 736.70 C 401.83 740.43 400.52 744.20 401.28 748.08 C 401.64 752.12 403.89 755.60 406.08 758.90 C 398.93 756.20 394.47 749.17 393.24 741.86 C 392.13 737.42 393.76 733.02 394.86 728.77 C 396.65 729.35 398.52 729.60 400.41 729.48 C 401.65 726.93 401.10 724.50 398.88 722.75 C 401.37 719.65 404.76 717.53 408.32 715.86 C 407.95 714.36 407.59 712.86 407.24 711.37 C 409.78 711.01 411.50 712.82 413.12 714.48 C 414.62 713.09 416.12 711.72 417.68 710.41 C 417.78 707.57 417.80 704.74 417.77 701.91 C 406.65 707.68 395.61 713.63 384.77 719.93 C 385.87 719.19 386.98 718.46 388.07 717.73 C 387.66 717.35 386.84 716.61 386.43 716.24 L 386.93 716.01 C 387.10 715.93 387.45 715.77 387.62 715.69 C 394.05 712.10 400.53 708.59 406.97 705.01 C 410.46 702.92 414.06 701.01 417.62 699.03 C 417.55 698.29 417.41 696.80 417.33 696.06 Z" />
</g>
<g id="#b67402ff">
<path fill="#b67402" opacity="1.00" d=" M 420.46 59.04 C 425.68 63.70 430.57 68.75 435.34 73.87 C 434.87 73.86 433.94 73.85 433.47 73.85 C 429.08 69.66 425.03 65.12 420.52 61.04 C 416.35 65.40 412.12 69.71 407.75 73.86 C 407.28 73.87 406.34 73.88 405.88 73.88 C 410.60 68.80 415.67 64.05 420.46 59.04 Z" />
</g>
<g id="#c9a414ff">
<path fill="#c9a414" opacity="1.00" d=" M 416.84 73.90 C 417.89 72.78 418.94 71.67 420.00 70.56 C 421.13 71.67 422.26 72.78 423.39 73.89 C 421.20 73.91 419.02 73.92 416.84 73.90 Z" />
</g>
<g id="#fbfbfbff">
<path fill="#fbfbfb" opacity="1.00" d=" M 399.91 73.87 C 401.89 73.87 403.88 73.89 405.88 73.88 C 406.34 73.88 407.28 73.87 407.75 73.86 C 410.78 73.86 413.81 73.88 416.84 73.90 C 419.02 73.92 421.20 73.91 423.39 73.89 C 426.75 73.87 430.11 73.86 433.47 73.85 C 433.94 73.85 434.87 73.86 435.34 73.87 C 439.20 73.88 443.07 73.87 446.95 73.86 C 447.11 77.80 447.15 81.74 447.02 85.67 L 446.93 87.16 C 446.11 88.81 445.20 90.40 444.35 92.03 C 444.04 92.59 443.43 93.72 443.13 94.28 C 437.29 103.67 431.98 113.37 426.49 122.96 C 428.09 122.95 429.69 122.94 431.30 122.93 C 431.32 123.58 431.36 124.88 431.38 125.53 C 430.75 125.57 429.48 125.66 428.85 125.71 C 428.80 127.86 428.74 130.01 428.70 132.16 C 427.68 132.15 426.67 132.13 425.66 132.12 C 426.27 129.81 426.27 127.42 426.01 125.06 C 424.80 126.22 423.72 127.53 422.92 129.01 C 418.09 128.75 413.22 129.16 408.42 128.43 C 416.35 114.65 424.33 100.89 432.16 87.05 C 423.70 87.08 415.24 87.17 406.79 87.00 C 406.43 87.00 405.72 87.00 405.37 87.00 C 404.98 87.02 404.21 87.05 403.82 87.07 C 402.84 87.08 400.89 87.09 399.91 87.10 C 399.90 85.32 399.88 83.54 399.89 81.76 C 399.90 81.31 399.91 80.40 399.91 79.94 C 399.92 77.92 399.90 75.90 399.91 73.87 Z" />
<path fill="#fbfbfb" opacity="1.00" d=" M 408.83 154.67 C 409.19 154.82 409.92 155.12 410.29 155.27 C 411.42 156.23 412.50 157.25 413.56 158.29 C 415.72 160.46 417.87 162.64 420.03 164.82 C 422.52 162.37 424.99 159.89 427.44 157.40 C 428.17 156.68 428.92 155.97 429.69 155.28 C 430.09 155.19 430.90 154.99 431.30 154.90 C 427.68 158.89 423.87 162.71 420.02 166.48 C 416.30 162.53 412.10 159.00 408.83 154.67 Z" />
</g>
<g id="#c57703ff">
<path fill="#c57703" opacity="1.00" d=" M 375.07 104.74 C 383.36 96.49 391.48 88.05 399.91 79.94 C 399.91 80.40 399.90 81.31 399.89 81.76 C 392.42 89.54 384.51 96.91 377.15 104.79 C 378.49 106.42 380.07 107.84 381.61 109.29 C 381.83 109.49 382.26 109.90 382.48 110.11 C 388.62 116.16 394.77 122.19 400.85 128.30 C 401.73 129.46 402.53 130.68 403.39 131.88 C 402.41 131.29 401.44 130.71 400.50 130.08 C 393.80 124.11 387.86 117.33 381.31 111.19 C 381.10 110.98 380.69 110.56 380.49 110.35 C 378.70 108.46 376.90 106.58 375.07 104.74 Z" />
</g>
<g id="#915c00ff">
<path fill="#915c00" opacity="1.00" d=" M 375.62 98.38 C 378.49 93.49 383.25 89.94 387.19 85.90 C 387.64 85.92 388.54 85.96 388.99 85.98 C 386.42 89.08 383.40 91.74 380.65 94.67 C 379.19 96.17 377.77 97.90 375.62 98.38 Z" />
</g>
<g id="#ae6f00ff">
<path fill="#ae6f00" opacity="1.00" d=" M 447.02 85.67 C 453.79 91.59 459.70 98.43 466.31 104.52 C 464.35 106.82 462.15 108.91 460.14 111.17 C 459.97 111.01 459.65 110.70 459.49 110.55 C 459.34 110.40 459.05 110.09 458.90 109.93 C 460.71 108.29 462.49 106.61 464.27 104.92 C 458.63 98.87 452.42 93.35 446.93 87.16 L 447.02 85.67 Z" />
</g>
<g id="#fff15aff">
<path fill="#fff15a" opacity="1.00" d=" M 403.82 87.07 C 404.21 87.05 404.98 87.02 405.37 87.00 C 404.96 87.45 404.16 88.35 403.75 88.80 C 403.10 89.49 402.44 90.16 401.78 90.83 C 399.45 93.13 397.12 95.42 394.70 97.61 L 395.04 95.99 C 397.88 92.93 400.85 90.00 403.82 87.07 Z" />
<path fill="#fff15a" opacity="1.00" d=" M 388.67 133.46 L 390.14 132.82 C 395.50 132.60 400.88 132.83 406.25 132.69 C 411.10 132.78 415.96 132.72 420.81 132.65 C 426.64 132.82 432.48 132.75 438.31 132.59 C 438.86 132.58 439.96 132.56 440.50 132.55 C 443.68 132.54 446.86 132.53 450.04 132.73 L 450.42 134.55 C 450.34 134.92 450.17 135.68 450.09 136.05 C 430.06 135.80 410.02 135.95 389.99 135.98 C 389.57 135.13 389.13 134.29 388.67 133.46 Z" />
</g>
<g id="#232315ff">
<path fill="#232315" opacity="1.00" d=" M 405.37 87.00 C 405.72 87.00 406.43 87.00 406.79 87.00 C 406.46 87.53 405.80 88.60 405.48 89.14 C 405.04 89.05 404.18 88.88 403.75 88.80 C 404.16 88.35 404.96 87.45 405.37 87.00 Z" />
</g>
<g id="#414140ff">
<path fill="#414140" opacity="1.00" d=" M 406.79 87.00 C 415.24 87.17 423.70 87.08 432.16 87.05 C 424.33 100.89 416.35 114.65 408.42 128.43 C 408.13 128.94 407.55 129.95 407.26 130.45 C 406.80 131.18 406.34 131.90 405.87 132.61 C 405.26 132.44 404.05 132.08 403.44 131.91 C 411.15 117.45 419.87 103.57 427.79 89.23 C 420.35 89.15 412.91 89.53 405.48 89.14 C 405.80 88.60 406.46 87.53 406.79 87.00 Z" />
</g>
<g id="#cb664bff">
<path fill="#cb664b" opacity="1.00" d=" M 401.78 90.83 C 402.44 90.16 403.10 89.49 403.75 88.80 C 404.18 88.88 405.04 89.05 405.48 89.14 C 412.91 89.53 420.35 89.15 427.79 89.23 C 419.87 103.57 411.15 117.45 403.44 131.91 L 403.39 131.88 C 402.53 130.68 401.73 129.46 400.85 128.30 C 408.06 116.04 415.28 103.77 421.98 91.23 C 415.25 91.04 408.50 91.26 401.78 90.83 Z" />
<path fill="#cb664b" opacity="1.00" d=" M 454.31 719.34 L 454.72 719.58 C 454.90 733.70 454.70 747.84 454.81 761.96 C 453.46 762.57 452.12 763.17 450.81 763.83 C 452.54 762.63 455.16 761.53 454.52 758.96 C 454.37 745.75 454.75 732.54 454.31 719.34 Z" />
</g>
<g id="#b92806ff">
<path fill="#b92806" opacity="1.00" d=" M 394.70 97.61 C 397.12 95.42 399.45 93.13 401.78 90.83 C 408.50 91.26 415.25 91.04 421.98 91.23 C 415.28 103.77 408.06 116.04 400.85 128.30 C 394.77 122.19 388.62 116.16 382.48 110.11 C 386.53 105.92 390.64 101.80 394.70 97.61 Z" />
</g>
<g id="#be3006ff">
<path fill="#be3006" opacity="1.00" d=" M 443.13 94.28 C 443.43 93.72 444.04 92.59 444.35 92.03 C 445.78 95.11 447.22 98.25 449.77 100.59 L 447.82 100.17 C 451.27 103.71 454.75 107.23 458.28 110.70 C 453.20 115.89 447.84 120.81 443.10 126.32 C 442.31 127.13 441.45 127.88 440.64 128.65 C 440.65 126.80 440.65 124.96 440.65 123.11 C 440.01 123.05 438.73 122.93 438.09 122.87 C 438.05 123.77 437.97 125.58 437.93 126.48 C 437.17 126.47 435.65 126.44 434.90 126.43 C 434.88 125.55 434.86 123.79 434.85 122.91 C 434.18 122.94 432.85 123.00 432.19 123.04 C 432.20 126.07 432.24 129.11 432.29 132.15 C 431.39 132.15 429.60 132.16 428.70 132.16 C 428.74 130.01 428.80 127.86 428.85 125.71 C 429.48 125.66 430.75 125.57 431.38 125.53 C 431.36 124.88 431.32 123.58 431.30 122.93 C 429.69 122.94 428.09 122.95 426.49 122.96 C 431.98 113.37 437.29 103.67 443.13 94.28 M 445.13 118.20 C 443.68 119.68 441.78 121.05 441.63 123.31 C 444.92 121.13 447.28 117.91 450.22 115.33 C 451.68 113.73 454.02 112.42 453.96 109.97 C 450.56 112.19 448.10 115.48 445.13 118.20 Z" />
</g>
<g id="#fffcc3ff">
<path fill="#fffcc3" opacity="1.00" d=" M 381.61 109.29 C 386.14 104.91 390.53 100.39 395.04 95.99 L 394.70 97.61 C 390.64 101.80 386.53 105.92 382.48 110.11 C 382.26 109.90 381.83 109.49 381.61 109.29 Z" />
<path fill="#fffcc3" opacity="1.00" d=" M 418.80 614.92 C 436.82 592.73 475.92 592.36 493.38 615.43 C 504.82 630.72 507.24 650.54 507.81 669.09 C 507.25 669.19 506.11 669.38 505.55 669.48 C 504.11 665.98 500.61 664.88 497.45 663.53 C 491.70 658.85 485.52 654.75 479.37 650.63 C 478.05 641.04 476.32 630.76 469.87 623.14 C 464.13 616.23 453.31 615.49 445.78 619.71 C 437.77 624.66 434.64 634.32 432.80 643.05 C 431.36 638.30 426.12 637.18 422.65 634.38 C 419.14 631.47 414.89 629.64 411.53 626.54 C 413.50 622.41 415.85 618.44 418.80 614.92 Z" />
</g>
<g id="#fffde1ff">
<path fill="#fffde1" opacity="1.00" d=" M 447.82 100.17 L 449.77 100.59 C 452.80 103.72 455.95 106.73 458.90 109.93 C 459.05 110.09 459.34 110.40 459.49 110.55 C 459.65 110.70 459.97 111.01 460.14 111.17 C 462.79 113.54 465.26 116.11 467.73 118.67 C 461.90 124.51 456.19 130.49 450.09 136.05 C 450.17 135.68 450.34 134.92 450.42 134.55 C 451.16 133.68 451.92 132.83 452.71 132.01 C 457.15 127.55 461.54 123.06 466.09 118.71 C 463.46 116.06 460.90 113.34 458.28 110.70 C 454.75 107.23 451.27 103.71 447.82 100.17 Z" />
<path fill="#fffde1" opacity="1.00" d=" M 380.49 110.35 C 380.69 110.56 381.10 110.98 381.31 111.19 C 378.85 113.67 376.40 116.16 373.98 118.68 C 378.57 123.14 383.09 127.66 387.58 132.22 C 387.86 132.53 388.40 133.15 388.67 133.46 C 389.13 134.29 389.57 135.13 389.99 135.98 C 383.77 130.54 378.27 124.35 372.29 118.66 C 375.04 115.91 377.89 113.25 380.49 110.35 Z" />
<path fill="#fffde1" opacity="1.00" d=" M 360.80 633.52 C 360.96 633.34 361.30 632.99 361.46 632.82 C 362.69 638.11 361.47 643.56 362.23 648.90 C 363.08 650.56 364.78 651.55 366.20 652.68 C 371.56 656.46 376.76 660.53 382.57 663.61 C 384.06 664.53 385.89 665.36 386.63 667.07 C 387.09 670.02 386.88 673.03 386.90 676.01 C 386.76 686.01 387.16 696.00 387.00 706.00 C 386.92 709.24 387.07 712.49 387.62 715.69 C 387.45 715.77 387.10 715.93 386.93 716.01 L 385.96 716.10 C 384.50 715.43 383.09 714.69 381.69 713.95 C 374.88 710.16 368.01 706.47 361.09 702.90 C 360.87 679.77 361.48 656.63 360.80 633.52 Z" />
</g>
<g id="#e68601ff">
<path fill="#e68601" opacity="1.00" d=" M 445.13 118.20 C 448.10 115.48 450.56 112.19 453.96 109.97 C 454.02 112.42 451.68 113.73 450.22 115.33 C 447.28 117.91 444.92 121.13 441.63 123.31 C 441.78 121.05 443.68 119.68 445.13 118.20 Z" />
</g>
<g id="#c43706ff">
<path fill="#c43706" opacity="1.00" d=" M 458.28 110.70 C 460.90 113.34 463.46 116.06 466.09 118.71 C 461.54 123.06 457.15 127.55 452.71 132.01 C 449.65 129.87 446.11 128.53 443.10 126.32 C 447.84 120.81 453.20 115.89 458.28 110.70 Z" />
</g>
<g id="#ba2906ff">
<path fill="#ba2906" opacity="1.00" d=" M 373.98 118.68 C 376.40 116.16 378.85 113.67 381.31 111.19 C 387.86 117.33 393.80 124.11 400.50 130.08 C 398.47 129.92 396.43 129.80 394.40 129.66 C 390.68 125.00 386.38 120.79 381.79 116.99 C 382.21 119.55 384.31 121.17 386.03 122.90 C 388.33 125.11 390.47 127.52 392.94 129.56 C 390.99 130.09 389.25 131.11 387.58 132.22 C 383.09 127.66 378.57 123.14 373.98 118.68 Z" />
</g>
<g id="#b97600ff">
<path fill="#b97600" opacity="1.00" d=" M 462.23 127.46 C 466.02 123.46 469.81 119.41 474.04 115.87 C 474.30 118.15 472.20 119.40 470.86 120.87 C 467.74 123.66 465.22 127.11 461.70 129.42 C 461.83 128.93 462.10 127.95 462.23 127.46 Z" />
</g>
<g id="#e07d02ff">
<path fill="#e07d02" opacity="1.00" d=" M 381.79 116.99 C 386.38 120.79 390.68 125.00 394.40 129.66 L 392.94 129.56 C 390.47 127.52 388.33 125.11 386.03 122.90 C 384.31 121.17 382.21 119.55 381.79 116.99 Z" />
</g>
<g id="#fbfcfcff">
<path fill="#fbfcfc" opacity="1.00" d=" M 432.19 123.04 C 432.85 123.00 434.18 122.94 434.85 122.91 C 434.86 123.79 434.88 125.55 434.90 126.43 C 435.65 126.44 437.17 126.47 437.93 126.48 C 437.97 125.58 438.05 123.77 438.09 122.87 C 438.73 122.93 440.01 123.05 440.65 123.11 C 440.65 124.96 440.65 126.80 440.64 128.65 C 440.60 129.95 440.55 131.25 440.50 132.55 C 439.96 132.56 438.86 132.58 438.31 132.59 C 438.22 131.38 438.14 130.17 438.06 128.97 C 436.01 128.96 433.31 129.21 435.40 132.11 C 434.36 132.12 433.32 132.14 432.29 132.15 C 432.24 129.11 432.20 126.07 432.19 123.04 Z" />
</g>
<g id="#a4310eff">
<path fill="#a4310e" opacity="1.00" d=" M 422.92 129.01 C 423.72 127.53 424.80 126.22 426.01 125.06 C 426.27 127.42 426.27 129.81 425.66 132.12 C 426.67 132.13 427.68 132.15 428.70 132.16 C 429.60 132.16 431.39 132.15 432.29 132.15 C 433.32 132.14 434.36 132.12 435.40 132.11 C 433.31 129.21 436.01 128.96 438.06 128.97 C 438.14 130.17 438.22 131.38 438.31 132.59 C 432.48 132.75 426.64 132.82 420.81 132.65 C 421.00 132.34 421.38 131.72 421.57 131.41 C 422.02 130.61 422.47 129.81 422.92 129.01 Z" />
</g>
<g id="#a6320dff">
<path fill="#a6320d" opacity="1.00" d=" M 440.64 128.65 C 441.45 127.88 442.31 127.13 443.10 126.32 C 446.11 128.53 449.65 129.87 452.71 132.01 C 451.92 132.83 451.16 133.68 450.42 134.55 L 450.04 132.73 C 446.86 132.53 443.68 132.54 440.50 132.55 C 440.55 131.25 440.60 129.95 440.64 128.65 Z" />
</g>
<g id="#dfdfdfff">
<path fill="#dfdfdf" opacity="1.00" d=" M 407.26 130.45 C 407.55 129.95 408.13 128.94 408.42 128.43 C 413.22 129.16 418.09 128.75 422.92 129.01 C 422.47 129.81 422.02 130.61 421.57 131.41 C 416.80 131.07 411.87 132.03 407.26 130.45 Z" />
</g>
<g id="#a32f0fff">
<path fill="#a32f0f" opacity="1.00" d=" M 387.58 132.22 C 389.25 131.11 390.99 130.09 392.94 129.56 L 394.40 129.66 C 396.43 129.80 398.47 129.92 400.50 130.08 C 398.23 133.71 393.60 131.79 390.14 132.82 L 388.67 133.46 C 388.40 133.15 387.86 132.53 387.58 132.22 Z" />
</g>
<g id="#bd823aff">
<path fill="#bd823a" opacity="1.00" d=" M 400.50 130.08 C 401.44 130.71 402.41 131.29 403.39 131.88 L 403.44 131.91 C 404.05 132.08 405.26 132.44 405.87 132.61 L 406.25 132.69 C 400.88 132.83 395.50 132.60 390.14 132.82 C 393.60 131.79 398.23 133.71 400.50 130.08 Z" />
</g>
<g id="#d2d0b2ff">
<path fill="#d2d0b2" opacity="1.00" d=" M 405.87 132.61 C 406.34 131.90 406.80 131.18 407.26 130.45 C 411.87 132.03 416.80 131.07 421.57 131.41 C 421.38 131.72 421.00 132.34 420.81 132.65 C 415.96 132.72 411.10 132.78 406.25 132.69 L 405.87 132.61 Z" />
</g>
<g id="#ffffffff">
<path fill="#ffffff" opacity="1.00" d=" M 394.30 139.51 C 396.34 139.62 398.38 139.69 400.43 139.62 C 401.74 140.33 402.91 141.23 403.94 142.32 C 401.85 143.01 399.66 142.10 397.52 142.24 C 397.52 143.43 397.51 144.62 397.52 145.81 C 400.13 146.15 401.89 144.17 403.82 142.80 L 403.47 145.52 C 401.76 147.87 404.17 149.83 405.16 151.84 C 403.85 151.79 402.55 151.75 401.26 151.71 C 400.24 150.37 399.84 147.74 397.51 148.41 C 397.53 149.25 397.57 150.91 397.59 151.75 C 396.47 151.76 395.37 151.78 394.27 151.80 C 394.27 147.70 394.25 143.60 394.30 139.51 Z" />
<path fill="#ffffff" opacity="1.00" d=" M 428.17 139.46 C 429.23 139.50 430.30 139.54 431.37 139.59 C 431.36 140.47 431.35 142.24 431.35 143.12 L 429.91 143.41 C 430.29 143.44 431.06 143.52 431.45 143.56 C 431.35 146.46 431.33 149.37 431.16 152.28 C 428.43 150.76 426.55 148.21 424.43 146.01 C 424.36 147.94 424.33 149.87 424.32 151.80 C 423.49 151.79 421.82 151.78 420.99 151.77 C 421.32 147.50 420.24 143.02 421.73 138.92 C 423.84 140.93 425.89 143.00 428.03 144.99 C 428.07 143.14 428.11 141.30 428.17 139.46 Z" />
<path fill="#ffffff" opacity="1.00" d=" M 406.13 151.88 C 408.19 147.71 409.96 143.40 412.02 139.22 C 413.40 139.55 414.06 140.86 414.59 142.03 C 416.08 145.34 417.68 148.60 419.07 151.96 C 417.29 152.19 415.90 151.65 414.90 150.34 C 413.41 150.07 411.90 150.21 410.41 150.19 C 409.90 152.29 407.72 151.69 406.13 151.88 M 411.49 147.74 C 412.02 147.75 413.06 147.79 413.59 147.81 C 415.64 144.59 409.55 144.37 411.49 147.74 Z" />
<path fill="#ffffff" opacity="1.00" d=" M 453.57 716.34 C 454.39 716.74 455.22 717.14 456.05 717.55 C 456.78 718.55 457.01 719.73 456.96 720.98 C 457.01 734.86 456.81 748.75 457.07 762.63 C 453.40 765.64 448.95 767.43 444.89 769.83 C 436.88 774.37 428.58 778.43 420.78 783.33 C 420.28 783.32 419.28 783.29 418.78 783.28 C 407.04 775.82 394.14 770.27 382.53 762.63 C 382.76 748.02 382.51 733.40 382.65 718.79 C 382.92 718.50 383.45 717.92 383.72 717.63 C 384.59 717.12 385.50 716.65 386.43 716.24 C 386.84 716.61 387.66 717.35 388.07 717.73 C 386.98 718.46 385.87 719.19 384.77 719.93 C 384.75 733.74 384.87 747.57 384.71 761.38 C 395.40 767.49 406.25 773.32 417.08 779.16 C 417.82 780.36 418.51 781.58 419.21 782.83 C 421.54 779.83 424.87 778.00 428.14 776.25 C 435.68 772.08 443.23 767.93 450.81 763.83 C 452.12 763.17 453.46 762.57 454.81 761.96 C 454.70 747.84 454.90 733.70 454.72 719.58 L 454.31 719.34 C 453.67 719.00 452.40 718.32 451.77 717.98 C 452.22 717.57 453.12 716.75 453.57 716.34 Z" />
</g>
<g id="#fefefeff">
<path fill="#fefefe" opacity="1.00" d=" M 434.19 139.52 C 435.03 139.52 436.71 139.53 437.54 139.54 C 437.53 140.44 437.49 142.26 437.47 143.16 C 438.98 142.04 440.22 140.58 441.81 139.58 C 442.90 139.55 445.07 139.50 446.16 139.47 C 444.28 141.35 442.39 143.22 440.49 145.08 C 442.65 147.34 444.92 149.50 447.07 151.77 C 445.50 151.77 443.94 151.77 442.38 151.76 C 440.91 150.29 439.64 148.38 437.51 147.88 C 437.52 148.85 437.54 150.79 437.55 151.76 C 436.72 151.77 435.04 151.79 434.20 151.80 C 434.23 147.70 434.16 143.61 434.19 139.52 M 438.30 145.30 C 438.80 145.83 438.80 145.83 438.30 145.30 Z" />
</g>
<g id="#c3c3c3ff">
<path fill="#c3c3c3" opacity="1.00" d=" M 438.30 145.30 C 438.80 145.83 438.80 145.83 438.30 145.30 Z" />
</g>
<g id="#a5350fff">
<path fill="#a5350f" opacity="1.00" d=" M 410.29 155.27 C 416.70 154.53 423.28 154.49 429.69 155.28 C 428.92 155.97 428.17 156.68 427.44 157.40 C 422.80 156.97 418.02 156.69 413.56 158.29 C 412.50 157.25 411.42 156.23 410.29 155.27 Z" />
</g>
<g id="#c13807ff">
<path fill="#c13807" opacity="1.00" d=" M 413.56 158.29 C 418.02 156.69 422.80 156.97 427.44 157.40 C 424.99 159.89 422.52 162.37 420.03 164.82 C 417.87 162.64 415.72 160.46 413.56 158.29 Z" />
</g>
<g id="#0000000e">
<path fill="#000000" opacity="0.05" d=" M 70.68 504.78 C 70.71 502.56 70.06 499.83 72.24 498.38 C 73.87 500.15 74.36 502.43 74.29 504.78 C 73.39 504.78 71.58 504.78 70.68 504.78 Z" />
</g>
<g id="#0000008f">
<path fill="#000000" opacity="0.56" d=" M 62.21 502.48 C 62.59 502.37 63.35 502.15 63.72 502.04 C 63.84 505.99 64.08 509.95 63.77 513.90 C 63.33 514.06 62.46 514.37 62.03 514.53 C 62.08 510.51 61.68 506.47 62.21 502.48 Z" />
</g>
<g id="#00000085">
<path fill="#000000" opacity="0.52" d=" M 66.27 501.98 C 67.48 502.08 68.04 502.72 67.97 503.89 C 68.15 507.40 67.97 510.91 67.99 514.43 C 67.53 514.32 66.60 514.10 66.14 513.99 C 65.86 509.99 66.01 505.97 66.27 501.98 Z" />
</g>
<g id="#fffdd7ff">
<path fill="#fffdd7" opacity="1.00" d=" M 361.12 600.81 C 370.02 600.79 378.91 600.80 387.81 600.81 C 387.68 639.10 388.11 677.41 387.62 715.69 C 387.07 712.49 386.92 709.24 387.00 706.00 C 387.16 696.00 386.76 686.01 386.90 676.01 C 386.88 673.03 387.09 670.02 386.63 667.07 C 385.89 665.36 384.06 664.53 382.57 663.61 C 376.76 660.53 371.56 656.46 366.20 652.68 C 364.78 651.55 363.08 650.56 362.23 648.90 C 361.47 643.56 362.69 638.11 361.46 632.82 C 361.30 632.99 360.96 633.34 360.80 633.52 C 348.99 644.74 333.10 650.40 317.56 654.23 C 317.44 648.08 317.47 641.93 317.54 635.78 C 334.91 628.42 350.44 616.44 361.12 600.81 Z" />
</g>
<g id="#54071191">
<path fill="#540711" opacity="0.57" d=" M 461.10 622.12 C 462.37 620.72 464.86 622.98 463.41 624.32 C 462.47 623.76 461.66 623.03 461.10 622.12 Z" />
</g>
<g id="#fffdd3ff">
<path fill="#fffdd3" opacity="1.00" d=" M 403.97 655.58 C 405.09 645.61 407.34 635.69 411.53 626.54 C 414.89 629.64 419.14 631.47 422.65 634.38 C 426.12 637.18 431.36 638.30 432.80 643.05 C 430.78 652.85 430.37 662.91 430.41 672.90 C 428.60 672.12 426.79 671.34 425.01 670.52 C 422.66 667.63 419.14 666.13 416.34 663.78 C 412.21 661.05 408.25 658.06 403.97 655.58 Z" />
</g>
<g id="#fffccdff">
<path fill="#fffccd" opacity="1.00" d=" M 479.37 650.63 C 485.52 654.75 491.70 658.85 497.45 663.53 C 500.61 664.88 504.11 665.98 505.55 669.48 C 506.11 669.38 507.25 669.19 507.81 669.09 C 507.92 675.31 507.75 681.54 507.18 687.75 C 497.29 692.85 487.55 698.24 477.72 703.45 C 480.88 686.04 480.95 668.20 479.37 650.63 Z" />
</g>
<g id="#fffddbff">
<path fill="#fffddb" opacity="1.00" d=" M 403.97 655.58 C 408.25 658.06 412.21 661.05 416.34 663.78 C 419.14 666.13 422.66 667.63 425.01 670.52 C 426.79 671.34 428.60 672.12 430.41 672.90 C 430.49 684.03 431.37 695.25 434.51 705.98 C 430.26 703.44 425.90 701.10 421.53 698.80 C 421.58 698.10 421.69 696.69 421.74 695.99 C 420.27 696.00 418.80 696.02 417.33 696.06 C 417.41 696.80 417.55 698.29 417.62 699.03 C 414.06 701.01 410.46 702.92 406.97 705.01 C 402.79 688.93 402.10 672.05 403.97 655.58 Z" />
</g>
</svg>
