<?xml version="1.0" encoding="UTF-8" ?>
<!DOCTYPE svg PUBLIC "-//W3C//DTD SVG 1.1//EN" "http://www.w3.org/Graphics/SVG/1.1/DTD/svg11.dtd">
<svg width="840pt" height="840pt" viewBox="0 0 840 840" version="1.1" xmlns="http://www.w3.org/2000/svg">
<g id="#0000001a">
<path fill="#000000" opacity="0.10" d=" M 0.00 0.00 L 8.19 0.00 C 8.16 2.70 8.10 5.39 8.02 8.09 C 5.35 8.13 2.68 8.16 0.00 8.16 L 0.00 0.00 Z" />
<path fill="#000000" opacity="0.10" d=" M 831.85 0.00 L 840.00 0.00 L 840.00 8.19 C 837.30 8.19 834.60 8.15 831.91 8.06 C 831.86 5.38 831.84 2.69 831.85 0.00 Z" />
<path fill="#000000" opacity="0.10" d=" M 0.00 831.83 C 2.68 831.83 5.37 831.86 8.05 831.92 C 8.11 834.61 8.13 837.30 8.14 840.00 L 0.00 840.00 L 0.00 831.83 Z" />
<path fill="#000000" opacity="0.10" d=" M 831.94 831.88 C 834.62 831.84 837.31 831.82 840.00 831.84 L 840.00 840.00 L 831.79 840.00 C 831.80 837.29 831.85 834.58 831.94 831.88 Z" />
</g>
<g id="#000000ff">
<path fill="#000000" opacity="1.00" d=" M 457.35 8.18 C 458.77 5.56 460.22 2.94 461.70 0.35 C 552.77 50.45 643.79 100.64 734.94 150.58 C 733.68 153.38 732.18 156.08 730.48 158.63 C 639.57 108.25 548.31 58.49 457.35 8.18 Z" />
<path fill="#000000" opacity="1.00" d=" M 105.00 230.25 C 210.01 172.59 315.00 114.89 420.02 57.26 C 525.01 114.92 630.00 172.59 735.00 230.25 C 735.00 336.71 735.00 443.18 735.00 549.65 C 723.33 556.00 711.67 562.38 700.05 568.81 C 699.82 557.12 700.27 545.41 699.80 533.73 C 692.68 551.15 683.97 567.92 673.82 583.77 C 671.53 587.30 667.23 590.06 662.91 589.11 C 664.75 584.77 667.69 581.05 670.13 577.05 C 687.95 548.50 701.06 516.95 708.31 484.06 C 699.98 475.94 691.87 467.59 683.56 459.44 C 682.41 458.29 681.22 457.17 680.34 455.80 C 679.76 453.26 680.01 450.62 679.98 448.04 C 680.04 428.67 679.98 409.30 680.00 389.94 C 679.89 388.25 680.34 386.60 681.68 385.50 C 690.73 376.39 699.87 367.37 708.90 358.24 C 694.64 292.32 657.57 231.25 604.57 189.35 C 577.85 168.08 547.46 151.40 515.11 140.44 C 505.22 150.44 495.20 160.30 485.34 170.34 C 483.58 172.08 481.84 174.49 479.01 173.99 C 442.34 173.96 405.67 173.98 369.00 173.97 C 365.67 173.93 362.32 174.22 359.02 173.78 C 356.67 172.25 354.92 170.00 352.92 168.08 C 343.63 158.84 334.46 149.47 325.10 140.30 C 293.82 151.03 264.27 166.86 238.18 187.19 C 183.73 229.17 145.55 291.20 131.12 358.29 C 138.90 366.06 146.66 373.86 154.46 381.62 C 156.24 383.44 158.24 385.10 159.68 387.22 C 160.23 389.78 159.98 392.44 160.02 395.04 C 159.96 414.38 160.02 433.72 160.00 453.06 C 160.23 455.01 159.32 456.72 157.88 457.98 C 149.12 466.62 140.52 475.44 131.70 484.03 C 139.01 517.43 152.45 549.43 170.68 578.34 C 173.09 582.24 175.94 585.89 177.87 590.08 C 177.36 590.34 176.32 590.87 175.81 591.13 C 172.57 589.62 168.90 588.28 167.00 585.02 C 156.50 568.80 147.48 551.62 140.22 533.71 C 139.72 545.61 140.15 557.54 139.98 569.46 C 128.27 563.20 116.70 556.67 105.01 550.39 C 105.00 443.67 105.00 336.96 105.00 230.25 M 405.88 73.88 C 403.88 73.89 401.89 73.87 399.90 73.87 C 399.90 75.90 399.92 77.92 399.91 79.94 C 391.49 88.07 383.33 96.48 375.07 104.77 C 376.92 106.58 378.71 108.46 380.46 110.36 C 377.87 113.26 375.04 115.92 372.29 118.67 C 378.28 124.35 383.77 130.55 390.00 135.98 C 410.04 135.95 430.09 135.81 450.14 136.04 C 456.18 130.45 461.91 124.51 467.73 118.68 C 465.28 116.09 462.77 113.58 460.16 111.15 C 462.20 108.93 464.33 106.79 466.31 104.50 C 459.68 98.41 453.76 91.59 447.02 85.64 C 447.16 81.72 447.10 77.79 446.97 73.87 C 443.08 73.87 439.21 73.88 435.33 73.87 C 430.66 68.71 425.61 63.92 420.67 59.02 C 415.65 63.87 410.68 68.80 405.88 73.88 M 375.59 98.37 C 377.95 97.82 379.47 95.89 381.07 94.25 C 383.70 91.46 386.62 88.93 388.97 85.89 C 388.52 85.91 387.62 85.96 387.16 85.98 C 383.16 89.91 378.54 93.54 375.59 98.37 M 465.74 123.78 C 464.11 125.44 462.12 126.97 461.53 129.35 C 465.10 127.45 467.37 123.96 470.37 121.35 C 471.80 119.69 474.33 118.37 473.97 115.84 C 471.03 118.28 468.47 121.12 465.74 123.78 M 394.30 139.51 C 394.25 143.60 394.27 147.69 394.27 151.79 C 395.36 151.77 396.46 151.76 397.57 151.75 C 397.57 150.89 397.55 149.17 397.54 148.30 C 399.79 148.09 400.34 150.22 401.27 151.73 C 402.57 151.76 403.87 151.79 405.19 151.81 C 403.84 149.53 401.37 147.21 403.96 144.58 C 402.45 143.71 401.10 144.78 399.88 145.61 C 399.30 145.64 398.12 145.71 397.53 145.74 C 397.51 144.59 397.50 143.44 397.49 142.29 C 399.83 142.10 402.12 142.49 404.00 143.99 C 403.85 138.68 397.83 139.80 394.30 139.51 M 428.21 139.41 C 428.13 141.26 428.07 143.12 428.01 144.98 C 425.88 142.98 423.82 140.91 421.71 138.90 C 420.29 143.03 421.27 147.50 420.99 151.78 C 421.83 151.78 423.51 151.79 424.35 151.79 C 424.34 149.87 424.33 147.95 424.32 146.03 C 426.55 148.05 428.26 150.81 431.07 152.11 C 431.51 149.30 431.30 146.43 431.41 143.59 L 429.96 143.64 C 430.31 143.52 431.01 143.28 431.36 143.15 C 431.37 142.27 431.37 140.51 431.37 139.63 C 430.31 139.55 429.26 139.48 428.21 139.41 M 406.12 151.86 C 407.72 151.70 409.88 152.30 410.41 150.20 C 411.87 150.22 413.37 150.05 414.82 150.36 C 415.91 151.57 417.32 152.12 419.04 152.03 C 417.38 148.08 415.70 144.11 413.67 140.34 C 413.26 140.05 412.45 139.47 412.05 139.17 C 409.98 143.36 408.21 147.69 406.12 151.86 M 434.19 139.52 C 434.17 143.61 434.23 147.70 434.20 151.79 C 435.03 151.78 436.68 151.77 437.51 151.77 C 438.01 150.71 436.44 147.67 438.63 148.07 C 440.00 149.15 441.15 150.47 442.35 151.74 C 443.91 151.76 445.49 151.77 447.06 151.77 C 444.91 149.51 442.67 147.32 440.49 145.08 C 442.39 143.24 444.27 141.37 446.13 139.47 C 442.42 138.49 439.90 140.85 437.48 143.18 C 437.50 142.27 437.53 140.45 437.54 139.54 C 436.70 139.53 435.03 139.53 434.19 139.52 M 408.76 154.85 C 412.32 158.90 416.22 162.63 420.02 166.45 C 423.87 162.67 427.79 158.93 431.26 154.79 C 430.87 154.92 430.07 155.17 429.68 155.30 C 423.27 154.46 416.69 154.54 410.28 155.28 C 409.90 155.17 409.14 154.96 408.76 154.85 M 166.24 241.32 C 157.57 246.24 148.61 250.70 140.12 255.88 C 139.96 272.65 139.82 289.45 140.20 306.23 C 151.16 279.62 165.63 254.37 183.74 231.98 C 177.71 234.71 172.09 238.25 166.24 241.32 M 656.32 232.12 C 674.44 254.40 688.82 279.63 699.76 306.15 C 700.23 289.40 700.01 272.62 699.89 255.88 C 694.40 252.33 688.42 249.55 682.76 246.26 C 673.90 241.63 665.41 236.26 656.32 232.12 Z" />
<path fill="#000000" opacity="1.00" d=" M 407.74 73.86 C 412.18 69.71 416.33 65.26 420.69 61.03 C 424.98 65.27 429.14 69.63 433.45 73.85 C 430.09 73.86 426.73 73.87 423.37 73.89 C 422.24 72.77 421.11 71.66 419.99 70.55 C 418.93 71.67 417.89 72.78 416.85 73.90 C 413.81 73.88 410.78 73.86 407.74 73.86 Z" />
<path fill="#000000" opacity="1.00" d=" M 376.99 104.61 C 384.75 97.13 392.30 89.42 399.89 81.76 C 399.88 83.53 399.90 85.30 399.91 87.07 C 400.88 87.07 402.83 87.08 403.80 87.08 C 400.87 89.97 397.94 92.87 395.14 95.89 C 390.60 100.33 386.18 104.87 381.63 109.28 C 380.03 107.77 378.50 106.20 376.99 104.61 Z" />
<path fill="#000000" opacity="1.00" d=" M 444.29 92.12 C 445.16 90.46 446.11 88.83 446.93 87.14 C 452.26 93.42 458.77 98.62 464.05 104.93 C 462.52 106.77 460.69 108.33 458.93 109.94 C 455.94 106.78 452.84 103.72 449.79 100.63 C 447.37 98.20 445.62 95.25 444.29 92.12 Z" />
<path fill="#000000" opacity="1.00" d=" M 412.17 145.12 C 413.99 144.70 414.54 147.87 412.91 148.42 C 411.02 148.89 410.64 145.70 412.17 145.12 Z" />
<path fill="#000000" opacity="1.00" d=" M 47.00 278.01 C 57.83 278.00 68.65 278.02 79.47 278.00 C 79.52 283.15 79.51 288.30 79.48 293.46 C 68.65 293.49 57.82 293.50 46.99 293.45 C 47.00 288.30 47.00 283.16 47.00 278.01 Z" />
<path fill="#000000" opacity="1.00" d=" M 47.00 307.01 C 57.82 306.99 68.64 307.03 79.46 306.99 C 79.53 312.15 79.52 317.32 79.47 322.48 C 68.64 322.47 57.82 322.51 47.00 322.46 C 47.00 317.31 47.00 312.16 47.00 307.01 Z" />
<path fill="#000000" opacity="1.00" d=" M 47.01 335.01 C 57.83 335.02 68.64 335.04 79.46 335.00 C 79.54 340.16 79.52 345.33 79.47 350.50 C 68.64 350.47 57.82 350.54 46.99 350.46 C 47.01 345.31 46.99 340.16 47.01 335.01 Z" />
<path fill="#000000" opacity="1.00" d=" M 47.18 365.38 C 57.96 365.69 68.75 365.33 79.52 365.58 C 79.48 370.71 79.52 375.85 79.48 380.99 C 68.66 380.96 57.83 380.99 47.00 380.98 C 47.05 375.78 46.83 370.57 47.18 365.38 Z" />
<path fill="#000000" opacity="1.00" d=" M 48.59 399.99 C 49.34 400.03 50.84 400.11 51.59 400.14 C 51.31 402.77 55.96 406.58 51.70 407.81 C 51.69 409.02 51.68 410.23 51.68 411.46 C 54.11 412.62 54.03 415.68 51.86 417.07 C 51.80 417.75 51.69 419.09 51.64 419.77 C 50.60 419.72 49.57 419.68 48.53 419.65 C 48.54 417.60 48.53 415.54 48.53 413.50 C 47.82 413.94 46.41 414.84 45.70 415.28 C 45.69 413.51 45.69 411.74 45.69 409.98 C 46.63 409.10 47.57 408.23 48.51 407.36 C 48.54 404.90 48.56 402.45 48.59 399.99 Z" />
<path fill="#000000" opacity="1.00" d=" M 54.70 400.08 C 55.49 400.11 57.05 400.16 57.84 400.19 C 57.88 404.10 57.81 408.03 57.82 411.95 C 57.50 416.20 62.31 418.01 64.39 421.13 C 62.55 421.19 60.71 421.24 58.88 421.29 C 57.43 419.87 55.99 418.44 54.57 417.00 C 54.68 411.36 54.48 405.72 54.70 400.08 Z" />
<path fill="#000000" opacity="1.00" d=" M 59.28 400.11 C 60.82 400.13 62.36 400.15 63.90 400.16 C 64.33 403.74 62.47 408.52 66.03 410.95 C 66.18 407.82 66.18 404.70 66.27 401.58 C 67.33 401.62 68.39 401.66 69.44 401.71 C 73.77 406.12 78.45 410.19 82.49 414.88 C 80.70 414.87 78.91 414.96 77.14 414.76 C 74.26 412.80 72.29 409.78 69.38 407.84 C 69.41 410.02 69.18 412.26 69.65 414.42 C 71.10 416.00 72.67 417.47 74.01 419.16 C 72.14 419.04 70.12 419.56 68.33 418.85 C 66.82 417.69 65.54 416.28 64.20 414.94 C 64.08 415.54 63.84 416.73 63.72 417.33 C 61.55 415.99 60.18 413.97 60.64 411.34 L 59.06 411.56 C 57.89 407.53 62.81 403.47 59.28 400.11 Z" />
<path fill="#000000" opacity="1.00" d=" M 53.32 420.40 C 55.76 419.93 56.80 421.12 56.74 423.39 C 64.05 423.41 71.36 423.38 78.67 423.40 C 80.04 424.79 81.42 426.18 82.79 427.59 C 79.03 427.51 75.27 427.46 71.52 427.68 C 73.40 429.82 75.41 431.84 77.42 433.87 C 77.25 440.70 77.52 447.52 77.25 454.35 C 76.23 453.49 75.21 452.64 74.20 451.79 C 74.17 449.49 74.16 447.19 74.15 444.90 C 72.59 444.88 71.03 444.86 69.47 444.85 C 69.43 446.62 69.39 448.40 69.34 450.19 C 69.71 450.60 70.46 451.41 70.83 451.82 C 66.94 451.92 63.06 451.91 59.17 451.87 C 58.75 449.50 60.34 445.97 57.95 444.51 C 57.87 446.63 57.86 448.75 57.86 450.87 C 54.78 450.88 51.71 450.89 48.63 450.94 C 48.18 445.53 49.26 439.99 47.91 434.69 C 51.22 434.69 54.53 434.69 57.83 434.75 C 57.85 436.92 57.89 439.10 58.08 441.28 C 60.04 439.24 58.92 436.12 59.27 433.60 C 62.64 433.65 66.00 433.66 69.37 433.69 C 69.40 436.01 69.40 438.34 69.39 440.67 C 70.93 440.71 72.48 440.76 74.02 440.82 C 73.95 439.06 74.80 436.91 73.30 435.54 C 70.69 432.75 67.84 430.18 65.12 427.51 C 62.16 427.52 59.21 427.53 56.26 427.58 C 56.74 428.56 57.20 429.57 57.62 430.60 C 56.20 430.55 54.78 430.51 53.36 430.48 C 53.32 429.74 53.23 428.27 53.18 427.54 C 51.17 427.55 49.16 427.57 47.15 427.61 C 47.13 426.19 47.12 424.77 47.11 423.36 C 49.15 423.36 51.19 423.35 53.23 423.33 C 53.25 422.60 53.30 421.14 53.32 420.40 M 62.51 437.65 C 62.48 438.67 62.45 439.69 62.42 440.73 C 64.05 440.61 66.61 441.51 66.36 438.89 C 65.85 437.09 63.84 437.90 62.51 437.65 M 51.60 439.17 C 51.71 441.66 51.73 444.16 51.67 446.67 C 52.66 446.69 53.64 446.72 54.63 446.75 C 54.38 444.15 55.23 441.21 54.16 438.82 C 53.52 438.91 52.24 439.08 51.60 439.17 M 62.39 445.13 C 62.39 445.77 62.39 447.05 62.40 447.69 C 63.63 447.75 64.86 447.82 66.10 447.90 C 66.12 447.13 66.17 445.58 66.19 444.80 C 64.92 444.90 63.66 445.01 62.39 445.13 Z" />
<path fill="#000000" opacity="1.00" d=" M 48.58 453.93 C 52.26 453.87 55.95 453.84 59.62 454.14 C 59.57 456.16 59.54 458.18 59.52 460.21 C 60.32 460.14 61.92 460.00 62.72 459.93 C 62.70 457.93 62.69 455.93 62.68 453.94 C 65.78 454.11 69.07 453.38 72.05 454.37 C 76.48 458.45 80.76 462.72 84.91 467.09 C 82.65 466.93 79.78 467.94 78.04 465.96 C 75.34 463.37 72.75 460.66 70.05 458.06 C 68.65 458.06 67.25 458.06 65.84 458.07 C 65.86 460.13 65.97 462.23 66.77 464.16 C 63.34 464.19 59.91 464.21 56.48 464.17 C 56.43 462.17 56.73 460.11 56.26 458.15 C 54.76 458.05 53.26 458.00 51.76 457.99 C 51.77 464.02 51.59 470.05 51.80 476.08 C 52.57 478.25 54.84 479.46 56.38 481.05 C 56.37 476.87 56.97 472.58 55.78 468.50 C 62.35 468.54 68.93 468.58 75.50 468.48 C 75.73 476.01 75.56 483.54 75.59 491.07 C 75.95 491.54 76.65 492.48 77.01 492.95 C 70.13 492.84 63.26 493.03 56.38 492.82 C 56.42 490.90 56.44 488.98 56.47 487.07 C 54.96 485.59 53.43 484.13 51.86 482.72 C 51.70 488.80 51.54 494.91 51.87 500.99 C 52.97 502.05 54.42 504.05 53.03 505.46 C 51.15 506.45 51.78 508.59 51.63 510.28 C 53.57 510.67 54.22 513.24 52.88 514.60 C 51.33 515.83 51.78 517.84 51.58 519.56 C 50.56 519.46 49.55 519.38 48.54 519.30 C 48.53 516.86 48.55 514.42 48.60 511.99 C 47.60 512.63 46.60 513.28 45.60 513.93 C 45.06 510.67 45.82 507.61 48.55 505.60 C 48.58 488.38 48.51 471.16 48.58 453.93 M 59.46 488.74 C 63.77 488.87 68.08 488.79 72.38 488.88 C 72.61 483.46 72.47 478.04 72.48 472.62 C 68.19 472.60 63.90 472.62 59.62 472.58 C 59.41 477.96 59.61 483.35 59.46 488.74 Z" />
<path fill="#000000" opacity="1.00" d=" M 62.84 474.82 C 65.07 476.85 67.22 478.97 69.39 481.06 C 69.38 482.89 69.36 484.72 69.32 486.56 C 66.90 484.59 64.69 482.38 62.56 480.11 C 62.66 478.34 62.74 476.58 62.84 474.82 Z" />
<path fill="#000000" opacity="1.00" d=" M 761.54 477.00 C 772.36 477.03 783.17 477.02 793.99 477.01 C 794.00 482.16 793.99 487.31 794.00 492.47 C 783.17 492.51 772.35 492.50 761.52 492.47 C 761.49 487.31 761.46 482.16 761.54 477.00 Z" />
<path fill="#000000" opacity="1.00" d=" M 68.50 495.05 C 70.38 495.10 72.26 495.14 74.14 495.15 C 75.23 496.33 76.70 497.29 77.29 498.86 C 77.54 502.20 77.33 505.55 77.31 508.91 C 75.02 508.89 72.73 508.89 70.44 508.95 C 70.94 510.20 71.65 511.40 72.66 512.33 C 76.79 516.41 81.07 520.35 84.99 524.64 C 83.12 524.63 81.24 524.62 79.36 524.62 C 76.73 522.14 74.14 519.61 71.66 516.97 C 71.31 517.34 70.61 518.09 70.27 518.46 C 66.59 518.36 62.92 518.38 59.25 518.43 C 59.09 511.70 59.22 504.97 59.16 498.24 C 61.78 498.30 64.41 498.38 67.03 498.38 C 68.22 498.61 69.86 498.15 70.17 496.82 C 69.75 496.38 68.92 495.49 68.50 495.05 M 70.64 504.81 C 71.55 504.80 73.38 504.77 74.30 504.75 C 74.57 501.99 73.52 499.62 71.30 497.98 C 70.80 500.22 70.65 502.51 70.64 504.81 M 62.24 501.81 C 61.84 506.02 61.92 510.27 62.02 514.50 C 62.45 514.33 63.29 513.98 63.71 513.80 C 64.00 510.08 64.10 506.29 63.57 502.59 C 63.24 502.40 62.57 502.00 62.24 501.81 M 66.34 502.53 C 65.79 506.31 65.95 510.17 66.17 513.97 C 66.63 514.10 67.53 514.35 67.98 514.48 C 68.04 510.25 68.18 506.01 67.72 501.80 C 67.38 501.99 66.69 502.35 66.34 502.53 Z" />
<path fill="#000000" opacity="1.00" d=" M 53.84 495.78 C 55.18 495.83 56.53 495.87 57.87 495.92 C 57.85 504.72 57.84 513.51 57.88 522.30 C 60.50 522.31 63.13 522.31 65.75 522.30 C 65.36 521.77 64.57 520.71 64.18 520.19 C 66.56 520.49 69.60 519.44 71.34 521.61 C 73.35 523.67 75.69 525.48 77.28 527.91 C 77.52 533.99 77.30 540.08 77.34 546.17 C 75.19 546.18 73.04 546.19 70.89 546.21 C 72.79 548.11 74.67 550.03 76.50 552.01 C 74.65 552.06 72.81 552.10 70.96 552.15 C 68.94 550.16 66.92 548.17 64.88 546.20 C 61.58 546.22 58.28 546.21 54.98 546.23 C 52.83 544.22 50.72 542.16 48.76 539.98 C 51.11 540.02 53.86 539.29 55.72 541.16 C 56.96 542.45 58.80 542.04 60.40 542.14 C 58.61 539.95 56.61 537.94 54.58 535.98 C 54.61 532.77 54.61 529.56 54.61 526.35 C 52.07 526.35 49.53 526.33 47.00 526.29 C 47.04 524.94 47.09 523.60 47.13 522.26 C 49.58 522.29 52.03 522.32 54.49 522.37 C 54.74 516.57 54.54 510.76 54.61 504.96 C 54.57 501.89 54.98 498.71 53.84 495.78 M 57.84 526.39 C 57.98 528.79 57.43 531.35 58.21 533.66 C 60.79 536.47 63.51 539.18 66.37 541.70 C 68.77 542.70 71.59 541.96 74.15 542.13 C 74.10 538.38 74.34 534.62 74.08 530.88 C 73.47 528.91 71.63 527.53 69.98 526.45 C 65.94 526.17 61.88 526.42 57.84 526.39 Z" />
<path fill="#000000" opacity="1.00" d=" M 761.52 507.52 C 772.35 507.48 783.17 507.48 794.00 507.52 C 794.00 512.67 794.00 517.82 794.00 522.98 C 783.18 522.99 772.35 522.96 761.53 523.00 C 761.47 517.84 761.48 512.68 761.52 507.52 Z" />
<path fill="#000000" opacity="1.00" d=" M 59.77 531.85 C 61.50 531.73 63.25 531.43 64.98 531.74 C 67.56 533.40 69.49 535.86 71.60 538.05 C 69.76 538.07 67.90 538.23 66.07 537.97 C 63.71 536.22 61.79 533.96 59.77 531.85 Z" />
<path fill="#000000" opacity="1.00" d=" M 761.54 535.00 C 772.36 535.02 783.18 535.00 794.00 535.01 C 794.00 540.16 794.00 545.31 794.00 550.47 C 783.18 550.50 772.35 550.48 761.53 550.48 C 761.48 545.31 761.47 540.15 761.54 535.00 Z" />
<path fill="#000000" opacity="1.00" d=" M 58.75 548.08 C 60.53 548.04 62.31 547.96 64.09 548.14 C 65.77 549.04 66.91 550.65 68.22 552.00 C 66.48 552.06 64.74 552.20 63.00 552.04 C 61.16 551.27 60.05 549.48 58.75 548.08 Z" />
<path fill="#000000" opacity="1.00" d=" M 55.32 549.46 C 56.34 549.53 57.36 549.61 58.39 549.69 C 58.40 551.07 58.41 552.45 58.41 553.84 C 65.21 553.99 72.02 553.79 78.82 553.96 C 80.07 555.30 81.34 556.63 82.58 557.99 C 79.18 558.07 75.77 558.06 72.36 558.10 C 73.59 559.38 74.84 560.66 76.08 561.94 C 74.10 561.94 72.12 561.93 70.14 561.91 C 68.84 560.61 67.73 559.01 66.08 558.15 C 63.40 557.84 60.70 558.08 58.03 558.27 C 58.47 559.53 58.91 560.79 59.36 562.06 C 57.96 562.00 56.56 561.95 55.17 561.91 C 55.17 560.60 55.17 559.30 55.18 558.01 C 54.45 558.04 53.01 558.11 52.29 558.15 C 52.30 558.86 52.32 560.29 52.33 561.00 C 51.54 560.95 49.98 560.86 49.20 560.82 C 48.99 557.89 48.80 554.96 48.63 552.04 C 48.25 551.59 47.51 550.69 47.14 550.24 C 48.66 550.26 50.18 550.28 51.71 550.32 C 51.80 551.49 51.90 552.68 52.00 553.87 C 52.78 553.88 54.33 553.91 55.11 553.93 C 55.17 552.43 55.24 550.94 55.32 549.46 Z" />
<path fill="#000000" opacity="1.00" d=" M 761.52 564.00 C 772.34 564.01 783.17 564.01 793.99 564.00 C 794.00 569.15 793.99 574.31 794.00 579.47 C 783.18 579.49 772.35 579.49 761.53 579.47 C 761.47 574.31 761.48 569.15 761.52 564.00 Z" />
<path fill="#000000" opacity="1.00" d=" M 391.64 612.48 C 401.38 603.45 410.46 593.73 419.99 584.48 C 423.37 587.95 426.84 591.33 430.22 594.81 C 432.10 596.52 434.05 599.74 436.91 597.73 C 452.22 592.10 470.07 593.41 484.12 601.82 C 492.52 606.83 498.64 614.82 502.90 623.50 C 534.26 623.51 565.62 623.47 596.98 623.52 C 598.79 623.57 600.58 623.14 602.22 622.34 C 591.26 628.33 580.33 634.37 569.35 640.32 C 567.48 641.39 565.38 642.21 563.84 643.77 C 561.81 649.00 560.66 654.54 558.95 659.89 C 545.97 666.90 532.98 673.90 519.94 680.79 C 517.26 678.03 514.58 675.28 511.70 672.74 C 510.98 677.07 515.06 679.46 517.64 682.15 C 514.18 684.05 510.72 685.96 507.19 687.75 C 507.74 681.55 507.93 675.34 507.81 669.12 C 507.24 650.39 504.78 630.30 493.02 614.97 C 475.39 592.36 436.77 592.89 418.85 614.87 C 415.88 618.40 413.51 622.40 411.52 626.55 C 407.35 635.68 405.10 645.57 403.97 655.52 C 402.09 672.01 402.79 688.90 406.96 705.01 C 400.53 708.61 394.02 712.06 387.63 715.73 C 388.10 677.43 387.68 639.11 387.81 600.80 C 378.91 600.81 370.01 600.78 361.11 600.82 C 350.44 616.47 334.88 628.41 317.52 635.80 C 317.47 641.91 317.51 648.02 317.48 654.13 C 333.16 650.62 348.82 644.56 360.87 633.64 C 361.38 656.72 360.92 679.81 361.09 702.90 C 348.14 696.05 335.23 689.13 322.36 682.13 C 333.38 670.89 344.63 659.88 355.71 648.70 C 357.21 647.51 357.08 645.58 357.17 643.88 C 344.70 656.08 332.48 668.53 320.09 680.81 C 307.04 673.89 294.03 666.92 281.04 659.89 C 279.55 654.71 278.01 649.54 276.52 644.36 C 263.73 637.23 250.84 630.27 238.01 623.20 C 239.68 623.40 241.37 623.49 243.05 623.52 C 271.69 623.50 300.33 623.46 328.97 623.54 C 330.53 623.47 332.23 623.60 333.56 622.62 C 342.84 616.44 350.83 608.41 357.35 599.39 C 358.92 596.62 362.30 596.84 365.05 596.83 C 372.03 596.93 379.01 596.79 385.99 596.88 C 388.08 596.85 390.88 597.25 391.38 599.74 C 391.85 602.65 391.80 605.63 392.26 608.56 C 391.99 609.86 391.82 611.15 391.64 612.48 Z" />
<path fill="#000000" opacity="1.00" d=" M 761.53 592.01 C 772.35 592.03 783.17 592.02 793.99 592.01 C 794.00 597.15 793.99 602.30 794.01 607.45 C 783.18 607.54 772.35 607.49 761.52 607.48 C 761.48 602.32 761.48 597.16 761.53 592.01 Z" />
<path fill="#000000" opacity="1.00" d=" M 105.04 609.83 C 195.07 659.13 284.98 708.66 374.99 758.01 C 377.60 759.38 380.21 760.79 382.54 762.63 C 394.19 770.38 407.31 775.78 418.97 783.52 C 421.90 782.93 424.29 781.07 426.88 779.70 C 433.96 775.81 441.05 771.93 448.14 768.05 C 451.19 766.38 454.37 764.87 457.07 762.64 C 463.15 758.71 469.71 755.60 475.98 752.00 C 562.32 704.63 648.58 657.13 734.96 609.83 C 735.01 626.50 735.05 643.17 734.94 659.84 C 629.93 717.39 525.00 775.10 420.04 832.74 C 315.01 775.16 210.09 717.38 105.05 659.82 C 104.96 643.15 104.98 626.49 105.04 609.83 Z" />
<path fill="#000000" opacity="1.00" d=" M 445.71 619.75 C 453.25 615.48 464.13 616.21 469.88 623.16 C 476.31 630.77 478.05 641.04 479.37 650.61 C 480.83 668.24 481.13 686.22 477.49 703.62 C 471.25 707.29 464.65 710.28 458.46 714.03 C 457.74 715.27 457.00 716.51 456.25 717.74 C 455.35 717.25 454.45 716.77 453.55 716.31 C 447.17 712.93 440.77 709.56 434.50 705.98 C 431.38 695.24 430.49 684.00 430.41 672.86 C 430.37 662.89 430.79 652.84 432.80 643.04 C 434.64 634.33 437.75 624.73 445.71 619.75 M 456.75 621.00 C 461.71 626.48 467.00 631.70 472.49 636.66 C 471.68 631.24 467.09 627.86 463.41 624.33 C 464.89 622.98 462.37 620.71 461.09 622.14 C 460.10 620.89 458.12 621.44 456.75 621.00 Z" />
<path fill="#000000" opacity="1.00" d=" M 761.52 622.51 C 772.35 622.51 783.18 622.45 794.01 622.54 C 793.99 627.68 794.00 632.83 794.00 637.99 C 783.18 637.98 772.36 637.96 761.54 638.00 C 761.46 632.83 761.49 627.67 761.52 622.51 Z" />
<path fill="#000000" opacity="1.00" d=" M 109.09 681.42 C 183.28 721.99 257.28 762.90 331.41 803.60 C 339.93 808.36 348.57 812.91 357.02 817.80 C 354.64 819.81 352.20 821.77 349.82 823.78 C 333.36 815.24 317.29 805.97 300.99 797.15 C 235.64 761.30 170.45 725.15 105.01 689.49 C 106.10 686.67 107.62 684.05 109.09 681.42 Z" />
<path fill="#000000" opacity="1.00" d=" M 384.80 720.01 C 395.56 713.56 406.66 707.71 417.79 701.91 C 417.80 704.75 417.77 707.60 417.67 710.44 C 416.13 711.74 414.63 713.08 413.12 714.41 C 411.49 712.82 409.74 711.09 407.25 711.33 C 407.58 712.83 407.92 714.35 408.28 715.88 C 404.75 717.53 401.46 719.69 398.89 722.66 C 399.95 724.25 402.32 725.89 400.85 728.01 C 399.88 730.59 396.78 729.25 394.80 729.07 C 393.58 733.39 392.10 737.94 393.36 742.45 C 394.66 749.55 399.14 756.16 405.98 758.92 C 403.93 755.53 401.61 752.08 401.27 748.02 C 400.56 744.15 401.85 740.39 402.63 736.66 C 400.89 738.71 399.48 741.01 398.16 743.35 C 398.39 735.06 403.50 726.89 411.56 724.23 C 410.83 725.56 410.10 726.90 409.36 728.23 C 410.68 729.47 412.00 730.69 413.33 731.93 C 413.29 733.24 413.25 734.56 413.22 735.89 C 413.57 736.40 414.28 737.41 414.63 737.92 C 411.65 742.37 412.88 747.93 412.57 752.96 C 409.95 750.80 407.61 748.34 405.31 745.86 C 406.18 750.05 408.35 753.73 410.46 757.40 C 411.37 761.97 411.61 766.69 412.94 771.19 C 413.87 774.05 415.61 776.54 417.07 779.16 C 406.24 773.32 395.41 767.48 384.72 761.40 C 384.88 747.60 384.72 733.80 384.80 720.01 Z" />
<path fill="#000000" opacity="1.00" d=" M 421.40 710.42 C 421.40 707.50 421.43 704.59 421.56 701.68 C 431.68 707.05 441.77 712.44 451.79 717.99 C 452.41 718.32 453.66 718.99 454.28 719.32 C 454.76 732.54 454.36 745.78 454.52 759.01 C 455.12 761.55 452.48 762.62 450.79 763.84 C 443.18 768.03 435.48 772.05 427.99 776.43 C 426.09 777.22 424.21 778.04 422.33 778.86 C 425.58 774.41 427.03 769.17 427.84 763.80 C 432.49 761.72 437.17 759.56 440.74 755.78 C 439.18 754.14 437.04 751.30 439.29 749.39 C 440.78 747.63 442.81 749.15 444.52 749.57 C 449.43 738.58 444.84 723.66 433.20 719.18 C 435.55 722.44 437.69 725.99 438.28 730.05 C 439.14 733.87 437.66 737.62 437.01 741.35 C 438.70 739.30 440.10 737.05 441.46 734.77 C 441.06 743.98 434.88 752.53 425.81 754.88 C 427.15 750.26 426.56 745.42 426.24 740.71 C 425.72 739.92 425.21 739.13 424.71 738.35 C 425.97 734.66 426.00 730.09 430.08 728.22 C 431.50 729.42 432.74 730.83 434.06 732.15 C 433.16 728.09 431.35 724.32 428.95 720.94 C 430.12 717.83 431.23 714.70 432.16 711.52 C 429.73 711.30 427.90 712.81 425.98 714.00 C 424.24 713.10 422.88 711.64 421.40 710.42 Z" />
<path fill="#000000" opacity="1.00" d=" M 381.64 713.92 C 383.08 714.71 384.53 715.51 386.01 716.25 L 387.05 716.00 L 386.32 716.34 C 385.43 716.74 384.55 717.19 383.70 717.68 C 382.89 716.50 382.20 715.22 381.64 713.92 Z" />
</g>
<g id="#f1112fff">
<path fill="#f1112f" opacity="1.00" d=" M 105.03 180.20 C 210.06 122.61 315.01 64.88 420.02 7.25 C 525.00 64.90 629.95 122.61 734.97 180.19 C 735.04 196.88 734.98 213.56 735.00 230.25 C 630.00 172.59 525.01 114.92 420.02 57.26 C 315.00 114.89 210.01 172.59 105.00 230.25 C 105.02 213.57 104.96 196.88 105.03 180.20 Z" />
<path fill="#f1112f" opacity="1.00" d=" M 761.48 229.53 C 772.28 229.41 783.08 229.62 793.89 229.42 C 794.11 234.94 793.95 240.47 794.00 246.00 C 783.17 246.00 772.33 246.00 761.50 246.00 C 761.49 240.51 761.51 235.02 761.48 229.53 Z" />
<path fill="#f1112f" opacity="1.00" d=" M 166.24 241.32 C 172.09 238.25 177.71 234.71 183.74 231.98 C 165.63 254.37 151.16 279.62 140.20 306.23 C 139.82 289.45 139.96 272.65 140.12 255.88 C 148.61 250.70 157.57 246.24 166.24 241.32 Z" />
<path fill="#f1112f" opacity="1.00" d=" M 656.32 232.12 C 665.41 236.26 673.90 241.63 682.76 246.26 C 688.42 249.55 694.40 252.33 699.89 255.88 C 700.01 272.62 700.23 289.40 699.76 306.15 C 688.82 279.63 674.44 254.40 656.32 232.12 Z" />
<path fill="#f1112f" opacity="1.00" d=" M 761.51 253.50 C 772.30 253.45 783.09 253.59 793.89 253.42 C 794.15 304.94 793.92 356.47 794.00 408.00 C 783.13 407.91 772.26 408.18 761.40 407.86 C 761.63 356.41 761.42 304.95 761.51 253.50 Z" />
<path fill="#f1112f" opacity="1.00" d=" M 761.52 420.00 C 772.34 420.02 783.17 420.00 794.00 420.01 C 794.00 425.16 794.00 430.32 794.00 435.48 C 783.17 435.48 772.34 435.48 761.51 435.48 C 761.49 430.32 761.48 425.16 761.52 420.00 Z" />
<path fill="#f1112f" opacity="1.00" d=" M 761.51 449.00 C 772.34 449.01 783.17 449.01 794.00 449.00 C 794.00 454.16 794.00 459.32 794.00 464.48 C 783.17 464.48 772.34 464.48 761.50 464.48 C 761.49 459.32 761.48 454.16 761.51 449.00 Z" />
<path fill="#f1112f" opacity="1.00" d=" M 140.22 533.71 C 147.48 551.62 156.50 568.80 167.00 585.02 C 168.90 588.28 172.57 589.62 175.81 591.13 C 176.32 590.87 177.36 590.34 177.87 590.08 C 197.83 601.28 217.97 612.16 238.01 623.20 C 250.84 630.27 263.73 637.23 276.52 644.36 C 278.01 649.54 279.55 654.71 281.04 659.89 C 294.03 666.92 307.04 673.89 320.09 680.81 C 332.48 668.53 344.70 656.08 357.17 643.88 C 357.08 645.58 357.21 647.51 355.71 648.70 C 344.63 659.88 333.38 670.89 322.36 682.13 C 335.23 689.13 348.14 696.05 361.09 702.90 C 367.99 706.47 374.85 710.13 381.64 713.92 C 382.20 715.22 382.89 716.50 383.70 717.68 C 383.44 717.96 382.92 718.53 382.66 718.81 C 382.51 733.42 382.76 748.03 382.54 762.63 C 380.21 760.79 377.60 759.38 374.99 758.01 C 284.98 708.66 195.07 659.13 105.04 609.83 C 104.95 590.01 105.02 570.20 105.01 550.39 C 116.70 556.67 128.27 563.20 139.98 569.46 C 140.15 557.54 139.72 545.61 140.22 533.71 Z" />
<path fill="#f1112f" opacity="1.00" d=" M 673.82 583.77 C 683.97 567.92 692.68 551.15 699.80 533.73 C 700.27 545.41 699.82 557.12 700.05 568.81 C 711.67 562.38 723.33 556.00 735.00 549.65 C 734.98 569.71 735.05 589.77 734.96 609.83 C 648.58 657.13 562.32 704.63 475.98 752.00 C 469.71 755.60 463.15 758.71 457.07 762.64 C 456.84 750.10 456.97 737.55 456.98 725.02 C 456.90 722.59 457.32 720.01 456.25 717.74 C 457.00 716.51 457.74 715.27 458.46 714.03 C 464.65 710.28 471.25 707.29 477.49 703.62 C 487.36 698.28 497.22 692.91 507.19 687.75 C 510.72 685.96 514.18 684.05 517.64 682.15 C 515.06 679.46 510.98 677.07 511.70 672.74 C 514.58 675.28 517.26 678.03 519.94 680.79 C 532.98 673.90 545.97 666.90 558.95 659.89 C 560.66 654.54 561.81 649.00 563.84 643.77 C 565.38 642.21 567.48 641.39 569.35 640.32 C 580.33 634.37 591.26 628.33 602.22 622.34 C 622.39 611.15 642.64 600.11 662.91 589.11 C 667.23 590.06 671.53 587.30 673.82 583.77 Z" />
<path fill="#f1112f" opacity="1.00" d=" M 392.26 608.56 C 401.62 599.46 410.76 590.12 420.03 580.91 C 425.73 586.44 431.28 592.12 436.91 597.73 C 434.05 599.74 432.10 596.52 430.22 594.81 C 426.84 591.33 423.37 587.95 419.99 584.48 C 410.46 593.73 401.38 603.45 391.64 612.48 C 391.82 611.15 391.99 609.86 392.26 608.56 Z" />
<path fill="#f1112f" opacity="1.00" d=" M 456.75 621.00 C 458.12 621.44 460.10 620.89 461.09 622.14 C 461.69 623.02 462.47 623.77 463.41 624.33 C 467.09 627.86 471.68 631.24 472.49 636.66 C 467.00 631.70 461.71 626.48 456.75 621.00 Z" />
<path fill="#f1112f" opacity="1.00" d=" M 417.29 696.10 C 418.77 696.06 420.26 696.02 421.76 696.00 C 421.71 696.70 421.59 698.11 421.54 698.81 C 425.91 701.10 430.26 703.44 434.50 705.98 C 440.77 709.56 447.17 712.93 453.55 716.31 C 453.11 716.73 452.23 717.57 451.79 717.99 C 441.77 712.44 431.68 707.05 421.56 701.68 C 421.43 704.59 421.40 707.50 421.40 710.42 C 422.88 711.64 424.24 713.10 425.98 714.00 C 427.90 712.81 429.73 711.30 432.16 711.52 C 431.23 714.70 430.12 717.83 428.95 720.94 C 431.35 724.32 433.16 728.09 434.06 732.15 C 432.74 730.83 431.50 729.42 430.08 728.22 C 426.00 730.09 425.97 734.66 424.71 738.35 C 425.21 739.13 425.72 739.92 426.24 740.71 C 426.56 745.42 427.15 750.26 425.81 754.88 C 434.88 752.53 441.06 743.98 441.46 734.77 C 440.10 737.05 438.70 739.30 437.01 741.35 C 437.66 737.62 439.14 733.87 438.28 730.05 C 437.69 725.99 435.55 722.44 433.20 719.18 C 444.84 723.66 449.43 738.58 444.52 749.57 C 442.81 749.15 440.78 747.63 439.29 749.39 C 437.04 751.30 439.18 754.14 440.74 755.78 C 437.17 759.56 432.49 761.72 427.84 763.80 C 427.03 769.17 425.58 774.41 422.33 778.86 C 424.21 778.04 426.09 777.22 427.99 776.43 C 424.87 778.27 421.45 779.76 419.22 782.78 C 418.51 781.54 417.81 780.35 417.07 779.16 C 415.61 776.54 413.87 774.05 412.94 771.19 C 411.61 766.69 411.37 761.97 410.46 757.40 C 408.35 753.73 406.18 750.05 405.31 745.86 C 407.61 748.34 409.95 750.80 412.57 752.96 C 412.88 747.93 411.65 742.37 414.63 737.92 C 414.28 737.41 413.57 736.40 413.22 735.89 C 413.25 734.56 413.29 733.24 413.33 731.93 C 412.00 730.69 410.68 729.47 409.36 728.23 C 410.10 726.90 410.83 725.56 411.56 724.23 C 403.50 726.89 398.39 735.06 398.16 743.35 C 399.48 741.01 400.89 738.71 402.63 736.66 C 401.85 740.39 400.56 744.15 401.27 748.02 C 401.61 752.08 403.93 755.53 405.98 758.92 C 399.14 756.16 394.66 749.55 393.36 742.45 C 392.10 737.94 393.58 733.39 394.80 729.07 C 396.78 729.25 399.88 730.59 400.85 728.01 C 402.32 725.89 399.95 724.25 398.89 722.66 C 401.46 719.69 404.75 717.53 408.28 715.88 C 407.92 714.35 407.58 712.83 407.25 711.33 C 409.74 711.09 411.49 712.82 413.12 714.41 C 414.63 713.08 416.13 711.74 417.67 710.44 C 417.77 707.60 417.80 704.75 417.79 701.91 C 406.66 707.71 395.56 713.56 384.80 720.01 C 385.93 719.09 387.07 718.19 388.19 717.26 L 386.32 716.34 L 387.05 716.00 C 387.20 715.93 387.49 715.79 387.63 715.73 C 394.02 712.06 400.53 708.61 406.96 705.01 C 410.46 702.93 414.04 701.01 417.61 699.06 C 417.53 698.32 417.37 696.84 417.29 696.10 Z" />
</g>
<g id="#b67402ff">
<path fill="#b67402" opacity="1.00" d=" M 405.88 73.88 C 410.68 68.80 415.65 63.87 420.67 59.02 C 425.61 63.92 430.66 68.71 435.33 73.87 C 434.86 73.86 433.92 73.85 433.45 73.85 C 429.14 69.63 424.98 65.27 420.69 61.03 C 416.33 65.26 412.18 69.71 407.74 73.86 C 407.28 73.86 406.35 73.87 405.88 73.88 Z" />
</g>
<g id="#c9a414ff">
<path fill="#c9a414" opacity="1.00" d=" M 416.85 73.90 C 417.89 72.78 418.93 71.67 419.99 70.55 C 421.11 71.66 422.24 72.77 423.37 73.89 C 421.19 73.91 419.02 73.92 416.85 73.90 Z" />
</g>
<g id="#fbfbfbff">
<path fill="#fbfbfb" opacity="1.00" d=" M 399.90 73.87 C 401.89 73.87 403.88 73.89 405.88 73.88 C 406.35 73.87 407.28 73.86 407.74 73.86 C 410.78 73.86 413.81 73.88 416.85 73.90 C 419.02 73.92 421.19 73.91 423.37 73.89 C 426.73 73.87 430.09 73.86 433.45 73.85 C 433.92 73.85 434.86 73.86 435.33 73.87 C 439.21 73.88 443.08 73.87 446.97 73.87 C 447.10 77.79 447.16 81.72 447.02 85.64 L 446.93 87.14 C 446.11 88.83 445.16 90.46 444.29 92.12 C 443.97 92.74 443.33 93.98 443.01 94.60 C 437.11 103.77 432.03 113.44 426.52 122.85 C 428.67 123.07 431.98 122.12 431.65 125.47 C 430.95 125.54 429.56 125.67 428.86 125.73 C 428.80 127.87 428.74 130.02 428.69 132.16 C 427.69 132.14 426.69 132.12 425.70 132.10 C 426.19 129.76 426.23 127.37 426.03 125.00 C 424.85 126.22 423.76 127.53 422.92 129.00 C 418.09 128.74 413.22 129.24 408.43 128.42 C 416.35 114.64 424.34 100.89 432.15 87.05 C 423.71 87.09 415.26 87.16 406.82 87.00 C 406.45 87.01 405.73 87.01 405.37 87.02 C 404.98 87.03 404.19 87.06 403.80 87.08 C 402.83 87.08 400.88 87.07 399.91 87.07 C 399.90 85.30 399.88 83.53 399.89 81.76 C 399.90 81.31 399.91 80.40 399.91 79.94 C 399.92 77.92 399.90 75.90 399.90 73.87 Z" />
<path fill="#fbfbfb" opacity="1.00" d=" M 408.76 154.85 C 409.14 154.96 409.90 155.17 410.28 155.28 C 411.40 156.22 412.48 157.23 413.53 158.26 C 415.70 160.44 417.86 162.63 420.04 164.82 C 422.51 162.38 424.96 159.91 427.40 157.44 C 428.14 156.71 428.90 155.99 429.68 155.30 C 430.07 155.17 430.87 154.92 431.26 154.79 C 427.79 158.93 423.87 162.67 420.02 166.45 C 416.22 162.63 412.32 158.90 408.76 154.85 Z" />
</g>
<g id="#c57703ff">
<path fill="#c57703" opacity="1.00" d=" M 375.07 104.77 C 383.33 96.48 391.49 88.07 399.91 79.94 C 399.91 80.40 399.90 81.31 399.89 81.76 C 392.30 89.42 384.75 97.13 376.99 104.61 C 378.50 106.20 380.03 107.77 381.63 109.28 C 381.84 109.49 382.28 109.91 382.49 110.11 C 388.59 116.18 394.77 122.17 400.80 128.30 C 401.71 129.47 402.55 130.70 403.43 131.90 C 402.44 131.32 401.45 130.75 400.49 130.13 C 393.83 124.09 387.87 117.34 381.29 111.21 C 381.08 111.00 380.67 110.58 380.46 110.36 C 378.71 108.46 376.92 106.58 375.07 104.77 Z" />
</g>
<g id="#915c00ff">
<path fill="#915c00" opacity="1.00" d=" M 375.59 98.37 C 378.54 93.54 383.16 89.91 387.16 85.98 C 387.62 85.96 388.52 85.91 388.97 85.89 C 386.62 88.93 383.70 91.46 381.07 94.25 C 379.47 95.89 377.95 97.82 375.59 98.37 Z" />
</g>
<g id="#ae6f00ff">
<path fill="#ae6f00" opacity="1.00" d=" M 447.02 85.64 C 453.76 91.59 459.68 98.41 466.31 104.50 C 464.33 106.79 462.20 108.93 460.16 111.15 C 459.74 110.75 459.33 110.35 458.93 109.94 C 460.69 108.33 462.52 106.77 464.05 104.93 C 458.77 98.62 452.26 93.42 446.93 87.14 L 447.02 85.64 Z" />
</g>
<g id="#fff15aff">
<path fill="#fff15a" opacity="1.00" d=" M 403.80 87.08 C 404.19 87.06 404.98 87.03 405.37 87.02 C 404.97 87.46 404.17 88.34 403.77 88.79 C 403.11 89.48 402.45 90.16 401.78 90.83 C 399.47 93.13 397.12 95.39 394.71 97.58 L 395.14 95.89 C 397.94 92.87 400.87 89.97 403.80 87.08 Z" />
<path fill="#fff15a" opacity="1.00" d=" M 388.58 133.36 L 390.11 132.85 C 395.48 132.57 400.86 132.86 406.23 132.68 C 411.09 132.74 415.95 132.73 420.81 132.66 C 426.65 132.81 432.49 132.84 438.32 132.57 C 438.87 132.57 439.97 132.55 440.52 132.54 C 443.68 132.55 446.86 132.53 450.03 132.71 L 450.40 134.51 C 450.33 134.90 450.20 135.66 450.14 136.04 C 430.09 135.81 410.04 135.95 390.00 135.98 C 389.54 135.09 389.07 134.22 388.58 133.36 Z" />
</g>
<g id="#232315ff">
<path fill="#232315" opacity="1.00" d=" M 405.37 87.02 C 405.73 87.01 406.45 87.01 406.82 87.00 C 406.48 87.53 405.82 88.60 405.49 89.13 C 405.06 89.04 404.20 88.87 403.77 88.79 C 404.17 88.34 404.97 87.46 405.37 87.02 Z" />
</g>
<g id="#414140ff">
<path fill="#414140" opacity="1.00" d=" M 406.82 87.00 C 415.26 87.16 423.71 87.09 432.15 87.05 C 424.34 100.89 416.35 114.64 408.43 128.42 C 408.13 128.93 407.54 129.95 407.24 130.46 C 406.79 131.18 406.32 131.89 405.85 132.60 C 405.26 132.43 404.06 132.09 403.46 131.92 C 411.13 117.45 419.86 103.57 427.77 89.24 C 420.34 89.14 412.91 89.54 405.49 89.13 C 405.82 88.60 406.48 87.53 406.82 87.00 Z" />
</g>
<g id="#cb664bff">
<path fill="#cb664b" opacity="1.00" d=" M 401.78 90.83 C 402.45 90.16 403.11 89.48 403.77 88.79 C 404.20 88.87 405.06 89.04 405.49 89.13 C 412.91 89.54 420.34 89.14 427.77 89.24 C 419.86 103.57 411.13 117.45 403.46 131.92 L 403.43 131.90 C 402.55 130.70 401.71 129.47 400.80 128.30 C 408.10 116.07 415.20 103.72 422.03 91.23 C 415.28 91.09 408.52 91.13 401.78 90.83 Z" />
<path fill="#cb664b" opacity="1.00" d=" M 454.28 719.32 L 454.73 719.58 C 454.91 733.72 454.71 747.87 454.81 762.01 C 453.46 762.60 452.11 763.19 450.79 763.84 C 452.48 762.62 455.12 761.55 454.52 759.01 C 454.36 745.78 454.76 732.54 454.28 719.32 Z" />
</g>
<g id="#b92806ff">
<path fill="#b92806" opacity="1.00" d=" M 394.71 97.58 C 397.12 95.39 399.47 93.13 401.78 90.83 C 408.52 91.13 415.28 91.09 422.03 91.23 C 415.20 103.72 408.10 116.07 400.80 128.30 C 394.77 122.17 388.59 116.18 382.49 110.11 C 386.52 105.89 390.67 101.79 394.71 97.58 Z" />
</g>
<g id="#be3006ff">
<path fill="#be3006" opacity="1.00" d=" M 443.01 94.60 C 443.33 93.98 443.97 92.74 444.29 92.12 C 445.62 95.25 447.37 98.20 449.79 100.63 L 447.94 100.21 C 451.31 103.81 454.82 107.28 458.32 110.75 C 453.11 115.83 447.85 120.89 443.01 126.33 C 442.24 127.13 441.41 127.90 440.64 128.68 C 440.65 126.84 440.66 125.00 440.67 123.15 C 440.02 123.09 438.72 122.96 438.07 122.89 C 438.05 123.78 438.00 125.56 437.97 126.45 C 437.20 126.44 435.66 126.44 434.89 126.44 C 434.88 125.56 434.86 123.79 434.84 122.91 C 434.18 122.95 432.84 123.03 432.17 123.08 C 432.21 126.11 432.24 129.15 432.28 132.18 C 431.38 132.18 429.58 132.17 428.69 132.16 C 428.74 130.02 428.80 127.87 428.86 125.73 C 429.56 125.67 430.95 125.54 431.65 125.47 C 431.98 122.12 428.67 123.07 426.52 122.85 C 432.03 113.44 437.11 103.77 443.01 94.60 M 441.51 122.10 L 442.07 122.94 C 444.90 121.31 446.76 118.44 449.21 116.31 C 450.94 114.32 453.80 112.80 453.97 109.90 C 449.40 113.49 445.46 117.86 441.51 122.10 Z" />
</g>
<g id="#fffcc3ff">
<path fill="#fffcc3" opacity="1.00" d=" M 381.63 109.28 C 386.18 104.87 390.60 100.33 395.14 95.89 L 394.71 97.58 C 390.67 101.79 386.52 105.89 382.49 110.11 C 382.28 109.91 381.84 109.49 381.63 109.28 Z" />
<path fill="#fffcc3" opacity="1.00" d=" M 418.85 614.87 C 436.77 592.89 475.39 592.36 493.02 614.97 C 504.78 630.30 507.24 650.39 507.81 669.12 C 507.28 669.20 506.21 669.36 505.68 669.44 C 504.32 667.56 502.73 665.88 500.93 664.42 C 500.44 664.50 499.45 664.65 498.96 664.72 C 492.74 659.59 486.04 655.11 479.37 650.61 C 478.05 641.04 476.31 630.77 469.88 623.16 C 464.13 616.21 453.25 615.48 445.71 619.75 C 437.75 624.73 434.64 634.33 432.80 643.04 C 431.30 638.29 426.10 637.14 422.61 634.32 C 419.10 631.46 414.86 629.64 411.52 626.55 C 413.51 622.40 415.88 618.40 418.85 614.87 Z" />
</g>
<g id="#fffde1ff">
<path fill="#fffde1" opacity="1.00" d=" M 447.94 100.21 L 449.79 100.63 C 452.84 103.72 455.94 106.78 458.93 109.94 C 459.33 110.35 459.74 110.75 460.16 111.15 C 462.77 113.58 465.28 116.09 467.73 118.68 C 461.91 124.51 456.18 130.45 450.14 136.04 C 450.20 135.66 450.33 134.90 450.40 134.51 C 451.17 133.63 451.96 132.77 452.78 131.93 C 457.20 127.50 461.58 123.04 466.07 118.69 C 463.47 116.06 460.92 113.37 458.32 110.75 C 454.82 107.28 451.31 103.81 447.94 100.21 Z" />
<path fill="#fffde1" opacity="1.00" d=" M 380.46 110.36 C 380.67 110.58 381.08 111.00 381.29 111.21 C 378.83 113.69 376.39 116.17 373.98 118.68 C 378.54 123.11 383.03 127.60 387.49 132.12 C 387.76 132.43 388.31 133.05 388.58 133.36 C 389.07 134.22 389.54 135.09 390.00 135.98 C 383.77 130.55 378.28 124.35 372.29 118.67 C 375.04 115.92 377.87 113.26 380.46 110.36 Z" />
<path fill="#fffde1" opacity="1.00" d=" M 360.87 633.64 C 361.09 633.41 361.54 632.95 361.77 632.72 C 362.13 638.16 362.08 643.61 362.01 649.07 C 368.97 655.26 376.89 660.31 384.89 665.06 C 387.25 666.11 386.77 668.89 386.92 671.01 C 386.86 683.68 387.04 696.34 386.99 709.01 C 387.01 711.26 387.27 713.50 387.63 715.73 C 387.49 715.79 387.20 715.93 387.05 716.00 L 386.01 716.25 C 384.53 715.51 383.08 714.71 381.64 713.92 C 374.85 710.13 367.99 706.47 361.09 702.90 C 360.92 679.81 361.38 656.72 360.87 633.64 Z" />
</g>
<g id="#e68601ff">
<path fill="#e68601" opacity="1.00" d=" M 441.51 122.10 C 445.46 117.86 449.40 113.49 453.97 109.90 C 453.80 112.80 450.94 114.32 449.21 116.31 C 446.76 118.44 444.90 121.31 442.07 122.94 L 441.51 122.10 Z" />
</g>
<g id="#c43706ff">
<path fill="#c43706" opacity="1.00" d=" M 458.32 110.75 C 460.92 113.37 463.47 116.06 466.07 118.69 C 461.58 123.04 457.20 127.50 452.78 131.93 C 449.59 129.94 446.15 128.39 443.01 126.33 C 447.85 120.89 453.11 115.83 458.32 110.75 Z" />
</g>
<g id="#ba2906ff">
<path fill="#ba2906" opacity="1.00" d=" M 373.98 118.68 C 376.39 116.17 378.83 113.69 381.29 111.21 C 387.87 117.34 393.83 124.09 400.49 130.13 C 398.47 129.95 396.46 129.80 394.45 129.65 C 390.65 125.01 386.32 120.82 381.77 116.93 C 382.27 118.40 382.86 119.89 384.06 120.94 C 387.02 123.82 389.82 126.85 392.96 129.53 C 391.05 130.22 389.25 131.14 387.49 132.12 C 383.03 127.60 378.54 123.11 373.98 118.68 Z" />
</g>
<g id="#b97600ff">
<path fill="#b97600" opacity="1.00" d=" M 465.74 123.78 C 468.47 121.12 471.03 118.28 473.97 115.84 C 474.33 118.37 471.80 119.69 470.37 121.35 C 467.37 123.96 465.10 127.45 461.53 129.35 C 462.12 126.97 464.11 125.44 465.74 123.78 Z" />
</g>
<g id="#e07d02ff">
<path fill="#e07d02" opacity="1.00" d=" M 381.77 116.93 C 386.32 120.82 390.65 125.01 394.45 129.65 L 392.96 129.53 C 389.82 126.85 387.02 123.82 384.06 120.94 C 382.86 119.89 382.27 118.40 381.77 116.93 Z" />
</g>
<g id="#fbfcfcff">
<path fill="#fbfcfc" opacity="1.00" d=" M 432.17 123.08 C 432.84 123.03 434.18 122.95 434.84 122.91 C 434.86 123.79 434.88 125.56 434.89 126.44 C 435.66 126.44 437.20 126.44 437.97 126.45 C 438.00 125.56 438.05 123.78 438.07 122.89 C 438.72 122.96 440.02 123.09 440.67 123.15 C 440.66 125.00 440.65 126.84 440.64 128.68 C 440.60 129.97 440.55 131.26 440.52 132.54 C 439.97 132.55 438.87 132.57 438.32 132.57 C 438.22 131.36 438.12 130.14 438.03 128.93 C 435.82 128.97 433.53 129.26 435.39 132.18 C 434.35 132.18 433.31 132.18 432.28 132.18 C 432.24 129.15 432.21 126.11 432.17 123.08 Z" />
</g>
<g id="#a4310eff">
<path fill="#a4310e" opacity="1.00" d=" M 422.92 129.00 C 423.76 127.53 424.85 126.22 426.03 125.00 C 426.23 127.37 426.19 129.76 425.70 132.10 C 426.69 132.12 427.69 132.14 428.69 132.16 C 429.58 132.17 431.38 132.18 432.28 132.18 C 433.31 132.18 434.35 132.18 435.39 132.18 C 433.53 129.26 435.82 128.97 438.03 128.93 C 438.12 130.14 438.22 131.36 438.32 132.57 C 432.49 132.84 426.65 132.81 420.81 132.66 C 420.99 132.36 421.35 131.77 421.53 131.47 C 421.99 130.65 422.45 129.82 422.92 129.00 Z" />
</g>
<g id="#a6320dff">
<path fill="#a6320d" opacity="1.00" d=" M 440.64 128.68 C 441.41 127.90 442.24 127.13 443.01 126.33 C 446.15 128.39 449.59 129.94 452.78 131.93 C 451.96 132.77 451.17 133.63 450.40 134.51 L 450.03 132.71 C 446.86 132.53 443.68 132.55 440.52 132.54 C 440.55 131.26 440.60 129.97 440.64 128.68 Z" />
</g>
<g id="#dfdfdfff">
<path fill="#dfdfdf" opacity="1.00" d=" M 407.24 130.46 C 407.54 129.95 408.13 128.93 408.43 128.42 C 413.22 129.24 418.09 128.74 422.92 129.00 C 422.45 129.82 421.99 130.65 421.53 131.47 C 416.77 131.06 411.86 131.99 407.24 130.46 Z" />
</g>
<g id="#a32f0fff">
<path fill="#a32f0f" opacity="1.00" d=" M 387.49 132.12 C 389.25 131.14 391.05 130.22 392.96 129.53 L 394.45 129.65 C 396.46 129.80 398.47 129.95 400.49 130.13 C 398.17 133.62 393.55 131.80 390.11 132.85 L 388.58 133.36 C 388.31 133.05 387.76 132.43 387.49 132.12 Z" />
</g>
<g id="#bd823aff">
<path fill="#bd823a" opacity="1.00" d=" M 400.49 130.13 C 401.45 130.75 402.44 131.32 403.43 131.90 L 403.46 131.92 C 404.06 132.09 405.26 132.43 405.85 132.60 L 406.23 132.68 C 400.86 132.86 395.48 132.57 390.11 132.85 C 393.55 131.80 398.17 133.62 400.49 130.13 Z" />
</g>
<g id="#d2d0b2ff">
<path fill="#d2d0b2" opacity="1.00" d=" M 405.85 132.60 C 406.32 131.89 406.79 131.18 407.24 130.46 C 411.86 131.99 416.77 131.06 421.53 131.47 C 421.35 131.77 420.99 132.36 420.81 132.66 C 415.95 132.73 411.09 132.74 406.23 132.68 L 405.85 132.60 Z" />
</g>
<g id="#ffffffff">
<path fill="#ffffff" opacity="1.00" d=" M 394.30 139.51 C 397.83 139.80 403.85 138.68 404.00 143.99 C 402.12 142.49 399.83 142.10 397.49 142.29 C 397.50 143.44 397.51 144.59 397.53 145.74 C 398.12 145.71 399.30 145.64 399.88 145.61 C 401.10 144.78 402.45 143.71 403.96 144.58 C 401.37 147.21 403.84 149.53 405.19 151.81 C 403.87 151.79 402.57 151.76 401.27 151.73 C 400.34 150.22 399.79 148.09 397.54 148.30 C 397.55 149.17 397.57 150.89 397.57 151.75 C 396.46 151.76 395.36 151.77 394.27 151.79 C 394.27 147.69 394.25 143.60 394.30 139.51 Z" />
<path fill="#ffffff" opacity="1.00" d=" M 428.21 139.41 C 429.26 139.48 430.31 139.55 431.37 139.63 C 431.37 140.51 431.37 142.27 431.36 143.15 C 431.01 143.28 430.31 143.52 429.96 143.64 L 431.41 143.59 C 431.30 146.43 431.51 149.30 431.07 152.11 C 428.26 150.81 426.55 148.05 424.32 146.03 C 424.33 147.95 424.34 149.87 424.35 151.79 C 423.51 151.79 421.83 151.78 420.99 151.78 C 421.27 147.50 420.29 143.03 421.71 138.90 C 423.82 140.91 425.88 142.98 428.01 144.98 C 428.07 143.12 428.13 141.26 428.21 139.41 Z" />
<path fill="#ffffff" opacity="1.00" d=" M 406.12 151.86 C 408.21 147.69 409.98 143.36 412.05 139.17 C 412.45 139.47 413.26 140.05 413.67 140.34 C 415.70 144.11 417.38 148.08 419.04 152.03 C 417.32 152.12 415.91 151.57 414.82 150.36 C 413.37 150.05 411.87 150.22 410.41 150.20 C 409.88 152.30 407.72 151.70 406.12 151.86 M 412.17 145.12 C 410.64 145.70 411.02 148.89 412.91 148.42 C 414.54 147.87 413.99 144.70 412.17 145.12 Z" />
<path fill="#ffffff" opacity="1.00" d=" M 453.55 716.31 C 454.45 716.77 455.35 717.25 456.25 717.74 C 457.32 720.01 456.90 722.59 456.98 725.02 C 456.97 737.55 456.84 750.10 457.07 762.64 C 454.37 764.87 451.19 766.38 448.14 768.05 C 441.05 771.93 433.96 775.81 426.88 779.70 C 424.29 781.07 421.90 782.93 418.97 783.52 C 407.31 775.78 394.19 770.38 382.54 762.63 C 382.76 748.03 382.51 733.42 382.66 718.81 C 382.92 718.53 383.44 717.96 383.70 717.68 C 384.55 717.19 385.43 716.74 386.32 716.34 L 388.19 717.26 C 387.07 718.19 385.93 719.09 384.80 720.01 C 384.72 733.80 384.88 747.60 384.72 761.40 C 395.41 767.48 406.24 773.32 417.07 779.16 C 417.81 780.35 418.51 781.54 419.22 782.78 C 421.45 779.76 424.87 778.27 427.99 776.43 C 435.48 772.05 443.18 768.03 450.79 763.84 C 452.11 763.19 453.46 762.60 454.81 762.01 C 454.71 747.87 454.91 733.72 454.73 719.58 L 454.28 719.32 C 453.66 718.99 452.41 718.32 451.79 717.99 C 452.23 717.57 453.11 716.73 453.55 716.31 Z" />
</g>
<g id="#fefefeff">
<path fill="#fefefe" opacity="1.00" d=" M 434.19 139.52 C 435.03 139.53 436.70 139.53 437.54 139.54 C 437.53 140.45 437.50 142.27 437.48 143.18 C 439.90 140.85 442.42 138.49 446.13 139.47 C 444.27 141.37 442.39 143.24 440.49 145.08 C 442.67 147.32 444.91 149.51 447.06 151.77 C 445.49 151.77 443.91 151.76 442.35 151.74 C 441.15 150.47 440.00 149.15 438.63 148.07 C 436.44 147.67 438.01 150.71 437.51 151.77 C 436.68 151.77 435.03 151.78 434.20 151.79 C 434.23 147.70 434.17 143.61 434.19 139.52 M 438.18 145.32 C 438.74 145.78 438.74 145.78 438.18 145.32 Z" />
</g>
<g id="#c3c3c3ff">
<path fill="#c3c3c3" opacity="1.00" d=" M 438.18 145.32 C 438.74 145.78 438.74 145.78 438.18 145.32 Z" />
</g>
<g id="#a5350fff">
<path fill="#a5350f" opacity="1.00" d=" M 410.28 155.28 C 416.69 154.54 423.27 154.46 429.68 155.30 C 428.90 155.99 428.14 156.71 427.40 157.44 C 422.77 156.97 418.02 156.79 413.53 158.26 C 412.48 157.23 411.40 156.22 410.28 155.28 Z" />
</g>
<g id="#c13807ff">
<path fill="#c13807" opacity="1.00" d=" M 413.53 158.26 C 418.02 156.79 422.77 156.97 427.40 157.44 C 424.96 159.91 422.51 162.38 420.04 164.82 C 417.86 162.63 415.70 160.44 413.53 158.26 Z" />
</g>
<g id="#0000000e">
<path fill="#000000" opacity="0.05" d=" M 70.64 504.81 C 70.65 502.51 70.80 500.22 71.30 497.98 C 73.52 499.62 74.57 501.99 74.30 504.75 C 73.38 504.77 71.55 504.80 70.64 504.81 Z" />
</g>
<g id="#0000008f">
<path fill="#000000" opacity="0.56" d=" M 62.24 501.81 C 62.57 502.00 63.24 502.40 63.57 502.59 C 64.10 506.29 64.00 510.08 63.71 513.80 C 63.29 513.98 62.45 514.33 62.02 514.50 C 61.92 510.27 61.84 506.02 62.24 501.81 Z" />
</g>
<g id="#00000085">
<path fill="#000000" opacity="0.52" d=" M 66.34 502.53 C 66.69 502.35 67.38 501.99 67.72 501.80 C 68.18 506.01 68.04 510.25 67.98 514.48 C 67.53 514.35 66.63 514.10 66.17 513.97 C 65.95 510.17 65.79 506.31 66.34 502.53 Z" />
</g>
<g id="#fffdd7ff">
<path fill="#fffdd7" opacity="1.00" d=" M 361.11 600.82 C 370.01 600.78 378.91 600.81 387.81 600.80 C 387.68 639.11 388.10 677.43 387.63 715.73 C 387.27 713.50 387.01 711.26 386.99 709.01 C 387.04 696.34 386.86 683.68 386.92 671.01 C 386.77 668.89 387.25 666.11 384.89 665.06 C 376.89 660.31 368.97 655.26 362.01 649.07 C 362.08 643.61 362.13 638.16 361.77 632.72 C 361.54 632.95 361.09 633.41 360.87 633.64 C 348.82 644.56 333.16 650.62 317.48 654.13 C 317.51 648.02 317.47 641.91 317.52 635.80 C 334.88 628.41 350.44 616.47 361.11 600.82 Z" />
</g>
<g id="#54071191">
<path fill="#540711" opacity="0.57" d=" M 461.09 622.14 C 462.37 620.71 464.89 622.98 463.41 624.33 C 462.47 623.77 461.69 623.02 461.09 622.14 Z" />
</g>
<g id="#fffdd3ff">
<path fill="#fffdd3" opacity="1.00" d=" M 403.97 655.52 C 405.10 645.57 407.35 635.68 411.52 626.55 C 414.86 629.64 419.10 631.46 422.61 634.32 C 426.10 637.14 431.30 638.29 432.80 643.04 C 430.79 652.84 430.37 662.89 430.41 672.86 C 428.60 672.11 426.81 671.33 425.04 670.51 C 418.62 664.75 411.07 660.38 403.97 655.52 Z" />
</g>
<g id="#fffccdff">
<path fill="#fffccd" opacity="1.00" d=" M 479.37 650.61 C 486.04 655.11 492.74 659.59 498.96 664.72 C 499.45 664.65 500.44 664.50 500.93 664.42 C 502.73 665.88 504.32 667.56 505.68 669.44 C 506.21 669.36 507.28 669.20 507.81 669.12 C 507.93 675.34 507.74 681.55 507.19 687.75 C 497.22 692.91 487.36 698.28 477.49 703.62 C 481.13 686.22 480.83 668.24 479.37 650.61 Z" />
</g>
<g id="#fffddbff">
<path fill="#fffddb" opacity="1.00" d=" M 403.97 655.52 C 411.07 660.38 418.62 664.75 425.04 670.51 C 426.81 671.33 428.60 672.11 430.41 672.86 C 430.49 684.00 431.38 695.24 434.50 705.98 C 430.26 703.44 425.91 701.10 421.54 698.81 C 421.59 698.11 421.71 696.70 421.76 696.00 C 420.26 696.02 418.77 696.06 417.29 696.10 C 417.37 696.84 417.53 698.32 417.61 699.06 C 414.04 701.01 410.46 702.93 406.96 705.01 C 402.79 688.90 402.09 672.01 403.97 655.52 Z" />
</g>
</svg>
