<svg id="图层_3" data-name="图层 3" xmlns="http://www.w3.org/2000/svg" viewBox="0 0 140 140"><defs><style>.cls-1{fill:#131313;}.cls-1,.cls-10{opacity:0.5;}.cls-2{fill:#2b2b2b;}.cls-3{fill:#fcfcfc;}.cls-4{fill:#1e1e1e;}.cls-5,.cls-6{fill:#242524;}.cls-5{opacity:0.2;}.cls-7{fill:#fdfdfd;}.cls-10,.cls-8{fill:#0e0f0e;}.cls-9{fill:#fff;}.cls-11{fill:#c44228;}.cls-12{fill:#775018;}.cls-13{fill:#fcd260;}</style></defs><path class="cls-1" d="M19.27,48.94a5.5,5.5,0,0,1,3,.84v.49a8,8,0,0,0-2.95-.53Z"/><path class="cls-2" d="M112.54,44.66a1.31,1.31,0,0,1-1-.92c-1-2.67-2.83-4.77-4.47-7a13.86,13.86,0,0,0-4.4-4,45,45,0,0,0-5-2.35c-3.73-1.53-7.35-3.33-11.05-4.93a48.36,48.36,0,0,0-6.48-2.38,38.28,38.28,0,0,0-6.64-1.15,25.36,25.36,0,0,0-8.55.46A2.51,2.51,0,0,1,62.88,22a1.51,1.51,0,0,0-2.14.24c-.41.42-.89.95-1.62.51.61-.76,1.88-.94,2-2.19,1.6.49,2.94-.5,4.34-.91,1-.28-.36-.69-.27-1.21a6.08,6.08,0,0,1,4.11-1.57c1.38.11,2.41-.81,3.54-1.29A7.72,7.72,0,0,1,76,15.05c1.48,0,3,0,4.42,0,.88,0,1.79-.07,2.37.81,0,.07.16.15.22.14,2.33-.68,3.78,1.24,5.64,1.93a2.46,2.46,0,0,0,1.28.32c.39-.06.49,0,.39.52a.8.8,0,0,0,.85,1c.22,0,.54.19.24.36-.9.51,0,.58.17.67.67.49,1.39.91,2.09,1.35-.27.47-.94,1-.48,1.48a7.16,7.16,0,0,0,4.27,2.59,3.49,3.49,0,0,1,2.15.81c1.17,1.16,1.36,1.05,1.66-.57.19-.21.38-.43.71-.31.57.16.49-.21.45-.54a.33.33,0,0,0,.11-.21c.66,0,.69.45.65.89a1.06,1.06,0,0,0,.87,1.16c1.21.08,1.19.75.93,1.63.43.13,1.11-.48,1-.12-.22,1,.89,1,.91,1.71.35,0,.36-.22.42-.38.19-.57.77-.59.66-.07-.4,1.9,2.57,1.34,2.12,3.13.17,0,.34-.07.5-.12s.44,0,.39.19c-.25.92,1.15,1.59.35,2.6-.15.2.19.33.42.33.13.27.26.28.39,0v0c.23,0,.41,0,.49.3a5.93,5.93,0,0,1-.55,4.5c-.42.72.24,1.36-.08,2C113.44,43.27,112.33,44.19,112.54,44.66Z"/><path class="cls-2" d="M47.65,24.85c.37,1.44.08,1.84-1.41,2.16-1,.23-2.05.53-3.07.82a1.55,1.55,0,0,0-1.05.76C41.5,30,40.68,31,38.92,30.32a.76.76,0,0,0-.71.25c-.68,1.2-2.17,1.8-2.37,3.38-.11.84-1,.93-1.66,1.07-.28.06-.8,0-.55.46.77,1.43-.47,2.28-.94,3.3-.26.58-.6,1-.35,1.67a1.37,1.37,0,0,1-.26,1.36,2.42,2.42,0,0,0-.8,1.9c0,.14-.11.43-.21.45-2,.4-1.31,2.27-1.91,3.43-.14.26-.29.57,0,.87.51.56.12,1-.24,1.4a8.7,8.7,0,0,0-2.19,4.68c-.25,1.88-1.08,3.75-.75,5.73.09.54.18,1.19-.52,1.51l-1.4-3c0-.12,0-.23,0-.35.25,0,.3-.12.25-.31s-.11-.11-.17-.17l-.09.38-.7-1.44a4.42,4.42,0,0,1,.86-1.7l0,0a4,4,0,0,0,.52-.12c.82-.29,1-1,1.16-1.74s-.62-.68-1.05-.82c-.61-.2-1-.42-.49-1.1.3-.37-.06-.35-.25-.51a2.5,2.5,0,0,0-1.63-.39l-.27-.27v-.49c.55-.05,1,.43,1.61.16a1.77,1.77,0,0,0,2.39-.13c.16-.15.62-.06.47-.44-.06-.15-.45-.16-.69-.24l.06-.85c-.15-.51,2.08-1.12-.06-1.56,0-1,.26-1.65,1.54-1.86a5.26,5.26,0,0,0,2.39-1.72c.2-.19.51-.27.63-.54,1.48-1.54,1.47-1.68-.25-2.11-.43-.29-1.18-.17-1.26-.94,0,0,0-.08-.09-.09l-.22,0c.11,0,.23.06.31,0s.3-.29.13-.41c-1-.79,0-1,.38-1.35.68-.19.8-1,1.41-1.29.25-.12.23-.57,0-.82s-.78-.68-.53-.93a2.34,2.34,0,0,1,1.44-.42c1.87,0,2.46-.45,2.67-2.28a4,4,0,0,1,2.54-3.25c.76-.36,1-.72,1-1.48a.18.18,0,0,0,.21-.08c.07,0,.2,0,.22,0s-.05-.21-.18-.25l-.93-1.05c.85.06.87-.9,1.75-1.15a1.61,1.61,0,0,1-1.21-1.9c1.18.25,2.32.38,3.45.7,1.36.37,2.62,1.4,4.25.64A1.69,1.69,0,0,1,47.65,24.85Z"/><path class="cls-1" d="M42.3,112.43c0,.49.62,1.24.37,1.3-.81.21-1.25.93-1.94,1.19s-.43-.68-.92-.82c-.27.62-.5,1.57-1.2.25-.15-.27-.56-.34-.59.22-.05,1-.59.9-1.16.5a.94.94,0,0,0-1.49.27,2.91,2.91,0,0,1-3.22,1.31,22.48,22.48,0,0,0-3.84-.27c-.67,0-.88-.29-.35-.77a1.77,1.77,0,0,0,.48-2.15c-.19-.57,0-1,.57-1.53,1.22-1.21,2.62-2.16,3.9-3.27.55-.47.64-1.33,1-2s-.39-.8-.86-.66a8.77,8.77,0,0,1-2.65.2c-2.54,0-2.68.11-4.08-1.81a3,3,0,0,1,.2-3.74,5.89,5.89,0,0,1,2.74.5c.3.15.94-.28.92.35,0,.42-.6.37-1,.44a2,2,0,0,0-1.4.89c-.23.38-.14.84.36.65,1.3-.51.85.44.91,1a6.16,6.16,0,0,1,1.17-.18c1.76.1,3.51.22,5.26.39.54,0,1-.61,1.56-.07s1.49.55,2.29.6l0,0-.4.65c.22.11.45.32.66.31s.59-.48.82-.1-.18.74-.49,1.06c-.5.54-.7,1.11.35,1.26.39,0,.66.3.4.59-.75.84-1,1.42.35,1.93C41.58,111.12,41.59,112.13,42.3,112.43Z"/><path class="cls-2" d="M39.29,105.21c-.8,0-1.64.06-2.29-.6s-1,.12-1.56.07c-1.75-.17-3.5-.29-5.26-.39a6.16,6.16,0,0,0-1.17.18c-.06-.54.39-1.49-.91-1-.5.19-.59-.27-.36-.65a2,2,0,0,1,1.4-.89c.41-.07,1,0,1-.44,0-.63-.62-.2-.92-.35a5.89,5.89,0,0,0-2.74-.5c-.44-.17-1.12-.21-.54-1,1.45-.33,1.79-.87,1.11-1.71-.37-.45-.94-.12-1.33-.41,0-1.87.12-3.75.05-5.62A6.58,6.58,0,0,1,26,89.62c.8-.58,1.16.6,1.87.48l.15-1c.28,0,.72,0,.69.24-.18,1.47,1.12,2.22,1.54,3.36A7.47,7.47,0,0,0,32.43,96a3.39,3.39,0,0,1,1.36,1.93c.19,2.06,1.57,3.16,3,4.28.77.61,1,1.72,2.16,2C39.39,104.29,39.37,104.8,39.29,105.21Z"/><path class="cls-1" d="M47.65,24.85a1.69,1.69,0,0,0-2-.68c-1.63.76-2.89-.27-4.25-.64-1.13-.32-2.27-.45-3.45-.7a1.61,1.61,0,0,0,1.21,1.9c-.88.25-.9,1.21-1.75,1.15l-.24-.45C36,26.08,35,25,33.76,25.14c-1,.14-1.28-1.11-1.59-1.9-.25-.64.26-.91.94-1.11a3.36,3.36,0,0,0,2.22-1.43c.69-1.19,1.74-1.1,2.51.05.19.29.3.64.51.92s.67.64.86.26c.93-1.83,2.32-.42,2.86-.05,1.26.88,2.31.4,3.43.09.48-.13.65-.35,1.18.13s1.57-.05,2.29-.38c2-.9,3.93-1.68,6.19-1.32a7.15,7.15,0,0,0,2.11-.27,2.43,2.43,0,0,1,1.67.17,2.84,2.84,0,0,0,2.13.28c-.07,1.25-1.34,1.43-2,2.19l-.7-.08c-.33-.28-.66-.46-1,0-1.3.36-2.51,1.11-4,.57-.64-.24-.52.74-1,.82a25.29,25.29,0,0,0-4,.64Z"/><path class="cls-1" d="M38.06,27.28c.06.76-.23,1.12-1,1.48A4,4,0,0,0,34.53,32c-.21,1.83-.8,2.23-2.67,2.28a2.34,2.34,0,0,0-1.44.42c-.25.25.24.66.53.93s.28.7,0,.82c-.61.31-.73,1.1-1.41,1.29a8.25,8.25,0,0,0-2.64-1.53c0-.63,1.14-.24.83-1S27,34.79,26.43,35c-.38.18-.63,0-.63-.52,0-1.84-.06-3.68-.09-5.53,0-.52.21-.7.75-.55,2.51.71,5.07.3,7.61.4.21,0,.54,0,.62-.15.51-.87,1.25-.62,2.08-.34-.21-.69-1.18-.69-1-1.5Z"/><path class="cls-1" d="M111.8,36.38c-.23,0-.57-.13-.42-.33.8-1-.6-1.68-.35-2.6,0-.17-.19-.25-.39-.19s-.33.08-.5.12c.45-1.79-2.52-1.23-2.12-3.13.11-.52-.47-.5-.66.07-.06.16-.07.36-.42.38,0-.68-1.13-.69-.91-1.71.07-.36-.61.25-1,.12.26-.88.28-1.55-.93-1.63a1.06,1.06,0,0,1-.87-1.16c0-.44,0-.92-.65-.89a1.53,1.53,0,0,1,1.24-1.51c.81-.24,1.65-.36,2.08-1.41.19-.48,1.2-.13,1.76.14s.27.68,0,1.05-.31.83.37.88c.32,0,.64,0,.68.46s-.1.79-.51.82c-.94.06-.36,1-.84,1.32a5.77,5.77,0,0,0,2.15.82,1,1,0,0,0,1-1c-.15-1,.26-.9.81-.47s.87-.05,1.16-.21c1.07,1.14-.32,1.89-.27,2.84l-.06.11.06-.11c.44.1,1-.26,1.28.36s-.57.86-.65,1.17c-.17.67-.62.68-1.07.77,0,.15,0,.21.07.23.48.4,1.52.18,1.57.72a18.26,18.26,0,0,1,.14,2.46c0,.4-.14.71-.6.7s-.76.32-.71.85v0Z"/><path class="cls-2" d="M113.19,86.94c-1-.16-1.6-1-2.34-1.58-.2-.16-.82-.62,0-1,.35-.13,0-.56.06-.85a4.09,4.09,0,0,1,.15-1.81c.52-1,.16-1.67-.79-2.16-.77-.4-1.28-.84-.55-1.82a3.42,3.42,0,0,0-.24-4.68,6.49,6.49,0,0,1-1.7-3.17c-.06-.28-.28-.3-.52-.27-.8,0-.94-.71-1.32-1.16l0-.56c0-.78,1-.88,1.13-1.59.78.24,1-.44,1.43-.84,1.09,0,1.13,1,1.44,1.7l-1,.1a1.14,1.14,0,0,0-1.86.31c-.26.47,1,2.14,1.54,2.11s.67.27.83.64c.35.86.67,1.75,1.94,1.29.19-.06.59.22.79.43a1.57,1.57,0,0,0,1.93.39c.24,1.24-.4,2.46,0,3.73.24.84-.5,1-1.15,1.07-.53-.49-.57-.09-.51.32.1.61.31,1.3,0,1.79a1.07,1.07,0,0,0,.13,1.4,2,2,0,0,1,.07,1.94c-.71,1-.4,1.55.53,2.07S114.07,86.16,113.19,86.94Z"/><path class="cls-2" d="M61.22,115.82c4.14.28,8.26.83,12.38,1.29,2,.22,4,.24,5.93.34.58,0,1.21-.07,1.3.77-.77.18-.18,1.22-1.14,1.51a11.83,11.83,0,0,1-6.67,0c-.28-.07-.49-.34-.84-.18-1.73.81-3.31.1-4.91-.5A3.85,3.85,0,0,0,66,119c-.59,0-1.23.36-1.35-.71-.07-.73-.88-.23-1.31-.4,0-.4.53-.34.5-.52s-.43-.32-.69-.4c-.72-.21-1.45-.39-2.17-.61-.18-.06-.47-.18-.22-.44S61.05,115.85,61.22,115.82Z"/><path class="cls-2" d="M42.3,112.43c-.71-.3-.72-1.31-1.34-1.54-1.37-.51-1.1-1.09-.35-1.93.26-.29,0-.54-.4-.59-1.05-.15-.85-.72-.35-1.26.31-.32.81-.55.49-1.06s-.54.07-.82.1-.44-.2-.66-.31l.4-.65c.89-.19,1.33.48,2,.88,1.5.91,3,1.92,4.47,2.81a39.39,39.39,0,0,0,5.44,2.71c.41.16.83.35.77.93-.39.07-.78.18-1.13-.13s-.8-.56-1,.23c-.07.3-.43.23-.69.22-1.55,0-3.14.29-4.6-.51A2.19,2.19,0,0,0,42.3,112.43Z"/><path class="cls-2" d="M26,63.66c.44.53,1,1,.14,1.7-.41.35.28.73.56,1,.45.49.86.88-.17,1.15-.49.13-.62.46-.25.89a.84.84,0,0,1,.11,1c-1.17,1.89,0,3.9-.36,5.77s.12,3.46-.1,5.18c0,.25-.23.36-.47.39-1.32-.38-1.74-1.75-2.76-2.47-.13-.1-.18-.26-.08-.32,1.39-.8.28-1-.29-1.48a1.39,1.39,0,0,1,.07-1.85c.24-.25.2-.45-.14-.58.87,0,1.49-.07,1.06-1.26-.31-.88.05-1.31.83-1.64.18-.08,0-.39-.15-.55v-.53c0-.08,0-.21,0-.23s-.21,0-.25.17c-.49-.06-.33-.46-.4-.74a2,2,0,0,0,1.19-2.36A3.26,3.26,0,0,1,26,63.66Z"/><path class="cls-2" d="M105.19,111.3l-4,1.08c0-.29,0-.54-.41-.47a8.68,8.68,0,0,1,.7-1.08c.55-.62,1-1.41,2.1-.87.37.19.79-.1,1.18-.17,1.69-.29,3.28-1,4.94-1.34.17,0,.45,0,.49-.07.75-1.44,2.08-1,3.85-1.11-1.77.81-.21,1.76-.82,2.72s-1.83.93-2.63,1.55c-.46-.43-1.33.48-1.38-.07-.07-.91-.53-.45-.88-.5-.67-.08-.67.4-.71.84-.52.08-.7-.17-.71-.67s-.1-.75-.64-.53c-.29-.61-.69-.55-1.79.29C104.64,111.12,105.1,110.9,105.19,111.3Z"/><path class="cls-1" d="M110,61.77c.09-.58-.19-.72-.74-.78-.3,0-1.23-.08-.25-.82a2.26,2.26,0,0,0,.68-2.13c.32-.29.49-.92,1.14-.46.29.2.44-.11.42-.29-.13-1.25,1.3-1.78,1.34-3,0-.26.5-.26.81-.18.31,1.21-.13,2.5.78,3.69.48.61-.37,1.59-1,1.91-1,.46-.52.75-.09,1.19.66.65,1.42,1.2,1.27,2.34-.12.88-.85.64-1.31.83s-.77-.14-.81-.62C112.05,62.13,110.9,62.11,110,61.77Z"/><path class="cls-2" d="M81.63,118c0-.31,0-.63.38-.76,2.06-.65,4.33-.55,6.21-1.82,1.55.66,2.79-.41,4.15-.76.37-.1.48.08.51.39a8.22,8.22,0,0,1-4.54,2.59,3.86,3.86,0,0,0-3,2.3c-.35-1.62-1.82-1.45-2.71-2.15C82.21,117.4,82,117.79,81.63,118Z"/><path class="cls-1" d="M109.47,98.48c-.26-.29-.74-.23-.9-.78s-.39-1,.58-1c.34,0,.7-.28,1-.44.51.08,1.26-.58,1.43.5a.5.5,0,0,0,.41.28c1.61-.21,1.46.85,1.47,1.9a19.19,19.19,0,0,1,.25,2.63c-.05.46.11.92-.54,1.19s-.65-.17-.86-.51c-.06-.12-.41-.06-.63-.08-.71-.84.09-2.6-1.69-2.8.06-.06.17-.11.19-.18C110.36,98.59,110,98.49,109.47,98.48Z"/><path class="cls-1" d="M101.27,26.49c-.3,1.62-.49,1.73-1.66.57a3.49,3.49,0,0,0-2.15-.81,7.16,7.16,0,0,1-4.27-2.59c-.46-.51.21-1,.48-1.48.83,0,1.91-.47,2.12.95,1.85-.05,2.66,2,4.41,2.16C100.87,25.36,101.11,25.91,101.27,26.49Z"/><path class="cls-1" d="M113.19,86.94c.88-.78.87-1.66-.06-2.16s-1.24-1-.53-2.07a2,2,0,0,0-.07-1.94,1.07,1.07,0,0,1-.13-1.4c.36-.49.15-1.18,0-1.79-.06-.41,0-.81.51-.32a14.27,14.27,0,0,1,1,3.4c.69,2.81.26,5.53.23,8.28,0,.19-.11.32,0,.55a1.11,1.11,0,0,1,0,1.26c-.43.45-.7-.35-1.13-.34l-.34-1.79C114.89,88.62,113.21,87.55,113.19,86.94Z"/><path class="cls-1" d="M26,63.66a3.26,3.26,0,0,0-1.48,3.27,2,2,0,0,1-1.19,2.36c-1.2-1.1-1.31-1.7-.53-3A1.36,1.36,0,0,0,23,65.7a4.65,4.65,0,0,1,1.05-3.2c.37-.39.29-.88-.21-.89-.9,0-.82-1-1.41-1.27a.34.34,0,0,1,.18-.65c.72,0,.85-.76,1.42-.86l1.4,3C25.42,62.47,25.34,63.18,26,63.66Z"/><path class="cls-1" d="M114.14,72.46a1.57,1.57,0,0,1-1.93-.39c-.2-.21-.6-.49-.79-.43-1.27.46-1.59-.43-1.94-1.29-.16-.37-.26-.66-.83-.64s-1.8-1.64-1.54-2.11a1.14,1.14,0,0,1,1.86-.31c0,.26-.31.61.26.66.75.06,1.75-.4,2,.86,1.69-.12,1.75,1.59,2.67,2.34A1,1,0,0,1,114.14,72.46Z"/><path class="cls-1" d="M109.93,67.19c-.31-.72-.35-1.66-1.44-1.7-.46-1,.93-1.08,1-1.84,1.63-.29,2.46.92,3.46,1.81a.52.52,0,0,1,.14.35c-.06.55-2.55,1.74-3.11,1.5C110,67.29,110,67.23,109.93,67.19Z"/><path class="cls-2" d="M113.39,54.14c-.31-.08-.8-.08-.81.18,0,1.19-1.47,1.72-1.34,3,0,.18-.13.49-.42.29-.65-.46-.82.17-1.14.46-.75-.24-.53-1-.85-1.53-.21-.34.38-.31.66-.36.92-.15,1.45-.51,1.1-1.6s.8-1.52.9-2.39c.36.08.83,0,.88.54.06.74.63.56,1.08.61Z"/><path class="cls-2" d="M25.51,81.83c1,.06,2.08,1.4,2.63,2.6a7.43,7.43,0,0,1,.36,3.08c0,.64-.49.87-.92,1.17-1.31-.51-1.65-1.56-.58-2.29.87-.6.14-.71-.07-1,.86-1,.78-1.36-.74-2.35C25.71,82.7,25.29,82.49,25.51,81.83Z"/><path class="cls-1" d="M22.49,50.54a2.5,2.5,0,0,1,1.63.39c.19.16.55.14.25.51-.52.68-.12.9.49,1.1.43.14,1.21-.06,1.05.82s-.34,1.45-1.16,1.74a4,4,0,0,1-.52.12c-.54-1.32-.28-3-2-3.8C21.74,51.18,22.09,50.76,22.49,50.54Z"/><path class="cls-2" d="M109.47,98.48c.49,0,.89.11.76.74,0,.07-.13.12-.19.18,1.78.2,1,2,1.69,2.8a11.48,11.48,0,0,1-3.36-.12c.3-.49.18-1.14.64-1.57.08-.08.16-.32.13-.34C108,99.36,109.11,99,109.47,98.48Z"/><path class="cls-1" d="M26.93,85.36c.21.32.94.43.07,1-1.07.73-.73,1.78.58,2.29l.41.42-.15,1c-.71.12-1.07-1.06-1.87-.48C25.7,88.07,25.43,86.52,26.93,85.36Z"/><path class="cls-1" d="M24,70.62c.17.16.33.47.15.55-.78.33-1.14.76-.83,1.64.43,1.19-.19,1.28-1.06,1.26s-.75-.52-.51-.84A1.4,1.4,0,0,0,21.31,71,4,4,0,0,1,24,70.62Z"/><path class="cls-2" d="M94.16,112.77l-4.09.92c.23-1.29,1.46-1.54,2-2.39.67.25,1.46.12,2,.77C94.29,112.34,94.1,112.55,94.16,112.77Z"/><path class="cls-1" d="M113.45,53.31c-.45-.05-1,.13-1.08-.61-.05-.57-.52-.46-.88-.54,1.4-.75,1-2.39,1.76-3.48C113.79,50.2,113.47,51.76,113.45,53.31Z"/><path class="cls-2" d="M98.78,106.18c.22-.13.61-.22.64-.39.51-2.22,1.79-.91,2.84-.65-.42.24-.68.82-1.35.48a.54.54,0,0,0-.78.45c0,.61-.54.61-.9.81s-.56.23-.69,0S98.69,106.41,98.78,106.18Z"/><path class="cls-1" d="M24.53,47.75a5.75,5.75,0,0,1-4.05-.87c-.28-.14-.81-.14-.44-.68s1-.68,1.1-.36c.59,1.68,2.19,1.09,3.27,1.63C24.44,47.48,24.45,47.54,24.53,47.75Z"/><path class="cls-1" d="M63.36,16.88C61,16.67,60.3,16.42,59,15.26c1-.49,3.1.21,4.5,1.48A.93.93,0,0,1,63.36,16.88Z"/><path class="cls-2" d="M94.48,114.69c0-.2,0-.54.17-.59,1.33-.54,2.45-1.85,4.12-1.2A11.27,11.27,0,0,1,94.48,114.69Z"/><path class="cls-2" d="M112.72,88.62l.34,1.79c0,.44-.58.87,0,1.36.06,0,0,.81-.6.8a2.69,2.69,0,0,0-.44-1.75c-.61-.85-.08-1.73.25-2.5C112.39,88,112.59,88.44,112.72,88.62Z"/><path class="cls-1" d="M24.2,55.24a4.42,4.42,0,0,0-.86,1.7,2.16,2.16,0,0,1-1.43-.58c-.3-.33-1-.65-.51-1.13s.88,0,1.21.42l.32.34C23,55.13,23.48,54.91,24.2,55.24Z"/><path class="cls-1" d="M25.73,97.58c.39.29,1,0,1.33.41.68.84.34,1.38-1.11,1.71Z"/><path class="cls-1" d="M107.57,111.81c0-.44,0-.92.71-.84.35,0,.81-.41.88.5,0,.55.92-.36,1.38.07,0,1.18-.86,1.19-1.48.82S108,112,107.57,111.81Z"/><path class="cls-2" d="M99.6,111.84c-.72-.13-1.49.25-2.16-.26a6.5,6.5,0,0,1,2-.75c.35-.14.72-.36,1.09,0C100,111,100.38,111.93,99.6,111.84Z"/><path class="cls-1" d="M26,49.13c.24.08.63.09.69.24.15.38-.31.29-.47.44a1.77,1.77,0,0,1-2.39.13C24.64,49.88,25,48.57,26,49.13Z"/><path class="cls-1" d="M30.32,40.49c1.72.43,1.73.57.25,2.11C29.33,42,30.2,41.21,30.32,40.49Z"/><path class="cls-1" d="M105.19,111.3c-.09-.4-.55-.18-.76-.4,1.1-.84,1.5-.9,1.79-.29Z"/><path class="cls-2" d="M59.53,113.77c.59-.19,1.11.13,1.65.25s.46.45.11.76A2.07,2.07,0,0,1,59.53,113.77Z"/><path class="cls-2" d="M53.26,112.65c.84-.56,1.26,0,1.62.63A1.23,1.23,0,0,1,53.26,112.65Z"/><path class="cls-2" d="M105.19,103.76c.06-.54.47-.49.84-.5.6,0,.67.59.41.82S105.61,103.89,105.19,103.76Z"/><path class="cls-1" d="M26,46.72c2.14.44-.09,1.05.06,1.56C25.36,47.79,25.57,47.26,26,46.72Z"/><path class="cls-2" d="M102.81,104.33h1.29C103.65,105.06,103.38,105.05,102.81,104.33Z"/><path class="cls-1" d="M63.5,16.74c.3.11.73,0,.73.53,0,.09-.13.25-.21.25-.44,0-.53-.33-.66-.64A.93.93,0,0,0,63.5,16.74Z"/><path class="cls-1" d="M22.12,57.36c-.08.07-.18.23-.32.28s-.33,0-.33-.26a.32.32,0,0,1,.29-.36C21.93,57,22.1,57,22.12,57.36Z"/><path class="cls-1" d="M113.23,47.33c-.52-.08-.25-.51-.34-.77C113.49,46.59,113.71,46.81,113.23,47.33Z"/><path class="cls-1" d="M102.43,25.64c0,.33.12.7-.45.54C102,25.86,102.09,25.66,102.43,25.64Z"/><path class="cls-1" d="M100.73,111.91c.4-.07.43.18.41.47C100.85,112.36,100.53,112.35,100.73,111.91Z"/><path class="cls-2" d="M61.29,115l0,.62c-.17-.09-.48-.17-.49-.27C60.73,115,61.06,115.07,61.29,115Z"/><path class="cls-1" d="M24,58.38l.09-.38c.06.06.15.1.17.17s0,.34-.25.31Z"/><path class="cls-1" d="M38.31,26.93c.13,0,.25.1.18.25s-.15,0-.22,0Z"/><path class="cls-1" d="M23.74,70c0-.12.1-.24.25-.17s0,.15,0,.23Z"/><path class="cls-2" d="M48.42,24.75a25.29,25.29,0,0,1,4-.64C51.35,25.7,49.6,26.41,48.42,24.75Z"/><path class="cls-1" d="M107.41,94.16a1.4,1.4,0,0,0-1,1.19c-.12.5-.51.49-.93.44s-.65-.1-.62-.33a1,1,0,0,1,.67-.82C106.09,94.44,106.48,93.69,107.41,94.16Z"/><path class="cls-2" d="M107.32,65.31a.57.57,0,0,1-.55-.58c.42-.93-.31-.73-.78-.79l-.45-1.23c1.15-.24,1.29,1,2.08,1.2A2.36,2.36,0,0,1,107.32,65.31Z"/><path class="cls-2" d="M112.23,46.9c0,.58-.09,1.1-.74,1.19-.09,0-.29-.12-.29-.18C111.23,47.28,111.77,47.13,112.23,46.9Z"/><path class="cls-2" d="M57.46,22.72c.3-.49.63-.31,1,0C58.12,23.4,57.79,23.34,57.46,22.72Z"/><path class="cls-2" d="M35,98.38c0,.08,0,.19-.1.21s-.15,0-.22-.08.05-.19.1-.21S34.89,98.35,35,98.38Z"/><path class="cls-2" d="M105.87,101.91l-.21-.12c.08,0,.15-.11.22-.1s.14.07.21.11Z"/><path class="cls-3" d="M111.8,36.38h.39C112.06,36.66,111.93,36.65,111.8,36.38Z"/><path class="cls-3" d="M112.15,29.13l-.06.11.06-.11Z"/><path class="cls-4" d="M106,68.48c-.17,0-.38,0-.4-.26s.18-.26.35-.3C105.94,68.11,106,68.29,106,68.48Z"/><path class="cls-4" d="M106,63.94c.47.06,1.2-.14.78.79A.76.76,0,0,1,106,63.94Z"/><path class="cls-5" d="M98.41,128.65c-.15-.27.65-.62,0-.75-1.3-.28-1.12-1-.7-1.84.17-.33.28-.68.43-1.06-.7,0-1.14-.67-1.9-.64-.37,0-1.12.09-1-.6.09-.41-.57-1.39.67-1.26.19,0,.41-.19.44-.46-.15-.51-.86,0-1-.69,1.73-.65,3.69.41,5.62-.64a9.79,9.79,0,0,0-5.65-.28c-1.24.22-2.45-.22-3.67-.08,0-.38-.23-.58-.52-.87l2-.56c-.54-.15-1-.26-1.5-.44-.18-.06-.59.22-.53-.29a2.23,2.23,0,0,1,1.2-1.58.59.59,0,0,1,.77.07c.32.39-.55.28-.33.7a3.87,3.87,0,0,0,2.15-.16c.63-.16.65-.16.32-.79-.07-.15-.07-.24,0-.33.68-.55,1.43-1.62,2-1.54,1.49.21,1.86-1.29,3-1.48.08,0,.14-.11.22-.16.35-.21.7-.54,1.14-.29s-.31.56-.09.89a.48.48,0,0,1-.07.68l2.22-.41c-.48-.62.25-2-1.42-1.81,1-.33,1.59-1.64,2.84-.81.09.06.44-.15.57-.31.88-1.06.87-1.06,2.1-.37.07,0,.18,0,.31,0a9.29,9.29,0,0,1,1.21-4.37c.54-.82,1.13-1.12,2-.65.62.34,1.1.36,1.54-.3s1.45-.51,1.9-1.29c.21-.38.79-.65.48-1.14s-.51-1.11-1.32-1c-.35,0-.94.3-1-.34-.11-.8.66-.49,1-.59.77-.22,1.56-.42,1.4-1.37-.11-.6.29-.69.52-.7.69,0,.2.39.17.65a.43.43,0,0,0,.13.33.32.32,0,0,0,.47-.15c.36-1.28,1.27-1.46,2.41-1.29.56.08,1.06-.69,1.69-.2a8.72,8.72,0,0,0-2.74,3.82c-.11.4-.51.45-.77.66-.54.44-1.54,1-.15,1.75.55.29.34.72-.08,1s-1.44.29-1.41.93a7.9,7.9,0,0,0,.77,2.89,3.83,3.83,0,0,0,1.4,1.87.75.75,0,0,1,.37,1c-.13.34-.44.42-.79.47-1.35.2-2.65.79-4.08.31a1.44,1.44,0,0,0-1.56.58c-1,1.1-2.61,1.83-3.28,3.08-1.09,2.06-2.85,1.82-4.48,1.79-.87,0-1.72,0-2.58.11-.33,0-.69,0-.69.49,0,.62.48.35.69.27.9-.34,1.26.65,2.08.78a30.69,30.69,0,0,1,3.6.92c.78.23.9.6.63,1.34a10.49,10.49,0,0,1-1.77,2.45,2.55,2.55,0,0,0-.63,2.79c-1.4-1.11-2.18.26-3.23.49-.46.1-.8,1-1.35.06-.08-.14-.26.11-.35.28C99.84,128.93,99.17,129,98.41,128.65Zm19-29.16c-.84.6-.87,1.56-1.31,2.66C117.39,101.41,118,100.69,117.46,99.49Z"/><path class="cls-5" d="M103.06,19.06c-.58.72-1.43,1.35-.65,2.49-.89.15-1.69.34-2.31-.48a.61.61,0,0,0-.31-.16c-1.58,1.94-2.52-.72-3.91-.44.64-.37,1.57-.51,1-1.42-.37-.64-1.09-.47-1.66,0s-1.05-.35-1.57.05c.34-.6-.43-1.23.08-1.85.75-.91-.59-1.55-.36-2.4a1.91,1.91,0,0,0-2,.63c-.65,1.11-1.5.62-1.94.17a3.42,3.42,0,0,1-1.26-2c-.57.18-.65.71-.78,1.19-.79-.27-1.07-1-2.13-1.1-1.34-.06-2,.34-2.25,1.39-.37,1.38-2.17,1.08-2.54,2.37-.84-.5-1.82,0-2.65-.34-1.73-.67-3.42-1.33-5.32-.73-.22.08-.69,0-.76-.15-.47-1-1.23-.7-2-.51s-1.61-.2-2.29-.11-1.36.63-2.14.36c-.63-.22-1.89.42-1.6-1.18,0-.22-.77-.5-1.27-.47s-.86-.21-1.14.46c-.39.91-2.65,1.73-3.39,1.25a1.63,1.63,0,0,1-.66-1.57c.32-1.7.37-1.69-1.2-1.8a.9.9,0,0,1-.27-.07,3.88,3.88,0,0,1,3.45-1.42,4.7,4.7,0,0,0,2-.34c1.41-.59,2.93-.75,4.34-1.22a26.33,26.33,0,0,1,8-1.32c2,0,4.06-.47,6.09-.28a6.43,6.43,0,0,1,2.84,1.4,18.66,18.66,0,0,0,8,2.78c.18,0,.43-.05.45.15.27,2,2,1.35,3.11,1.67l0,.62a1.3,1.3,0,0,0,1.25,1.38c1,.14,2,.66,3.11.35,2.5-.69,3-.44,4.31,1.88A5.16,5.16,0,0,1,103.06,19.06ZM59.77,15c0-.52-.18-1-.63-1.09s-.66.5-.74.85c-.15.56.45.57.79.69S59.8,15.39,59.77,15Z"/><path class="cls-5" d="M10.93,72.69c.3.31.72.12,1.16.17-.23.68-1.77,1.49.15,1.82-.44.24-.14.81-.38,1-.55.56-.12.68.26.55.92-.32,1.71-.75,2.54.27A3.48,3.48,0,0,1,15,79.82a13.44,13.44,0,0,1-1.63,4.48,2.69,2.69,0,0,0,0,2,6.48,6.48,0,0,1,.27,3.56c-.11.82-.26,1.7,1,1.94.56.11.64.61.75,1.17.34,1.78.14,3.72,1.43,5.24.29.34.34.81.85,1s.89.56.53,1.21-.47,1.26-1.36,1.1c-.41-.08-.9-.18-1,.37s.42.57.65.83c.52.57.62-.05.85-.35a.61.61,0,0,1,.46-.22c2,.38,4.11.13,6,1,.18.08.19.18.17.26-.38,1,.44,1,.86.82.77-.27.33-.88.09-1.5.85.25,1.1.65.8,1.43-.13.35-.93.44-.58.75s.63,1.08,1.35,1a1.21,1.21,0,0,1,1.4.88c.12.37.89.45.51,1a.71.71,0,0,1-1.11,0c-.24-.33-1.34.19-.8-.82.08-.15.15-.48-.06-.43-.91.26-1.08.07-.71-.82.12-.29-2.05-1.06-2.07-.8a10.43,10.43,0,0,0-.11,1.64,12.31,12.31,0,0,0,.78,2.58c.1.32.44.52.63.32,1.32-1.38,2.67-.14,4.11-.1-.22.68-.79,1.28-.53,2s1.09.94,1.54,1.5c1-.91.73-1.7-.14-2.39,1.37-1,1.39,2.15,2.95.66-.57.75-.34,1.56-.92,2.19-.4.44.66,1.29,1.46.86,1-.54,1.21.45,1.74.52,1.57.24.34,1,.45,1.55a1.15,1.15,0,0,0,.12.25c-1.3.33-2-.77-3-1.25a7,7,0,0,0-3-1.09c-2.33,0-3.65-1.63-5.22-2.85a12.54,12.54,0,0,0-2.38-1.63c-1.53-.69-2.53-2.09-3.86-3.06-.39-.28-.36-.83-.54-1.24-.24-.58-.2-1.64-1.39-1.16a.6.6,0,0,1-.7-.35A5.4,5.4,0,0,0,12,101.1c-1.76-.55-2.12-2.46-3.13-3.73-.19-.24.17-1.31.56-1.56.84-.54,1.08-1.54,1.95-2.07a1.24,1.24,0,0,0,.39-2c-1.67-2.4-1-5.11-.32-7.67a3.43,3.43,0,0,0-.83-3.42c-.76-.87-1.41-1.83-2.18-2.69s-.55-1.52.47-1.84c.61-.2.94-.6.86-1.09C9.55,73.87,10.27,73.31,10.93,72.69Z"/><path class="cls-5" d="M36,116.59c.8,1.15,1.76.42,2.32-.06a1.28,1.28,0,0,1,1.85,0,1.71,1.71,0,0,0,1.22.42c1.4-.86,3,.12,4.67-.75a12.18,12.18,0,0,1-2,2.81c-1.24,1.11-1.11,1.6.31,2.34.26.14.73.15.6.6s-.56.19-.85.22a5.25,5.25,0,0,0-1.89.32c.11.52.59.49,1.09.65-1.4.7-1,1.84-.74,2.76.13.57.82.6,1.15,0,.21-.39.37-.69.77-.34s.91.53.33,1.13c-.17.17.12.52.51.45a2.44,2.44,0,0,1,2,.42c-1.17.35-2.41-.28-3.34.76,3.72-.67,7.32.07,11,.6-1.87,1-3.78.24-6,0,1.26,1,2.39.6,3.45.72.39,0,1-.12,1.11.33.26,1.52,1.3,1,2.14.89,2.07-.23,4.09-1,6.23-.48.34.08.77-.26,1.17-.36a15,15,0,0,1,7.53.45,5.76,5.76,0,0,1-.53,2.54c-.24.49-3.1.94-3.65.63s-.88-.55-1.19.2c-.16.38-.54.3-.86.22s-.51-.22-.7.15c-.93,1.84-2.64,1.81-4.23,1.49a4.3,4.3,0,0,0-2.83.24c-2.08,1.05-3.64.57-5.16-1a7.58,7.58,0,0,0-3-1.4c-1-.39-1.83-1.09-2.83-1.49-.15-.06-.35-.26-.35-.4,0-1.68-1.26-1.38-2.31-1.44,1.08-1.05,1-1.09-.35-1.64s-3-1.13-3.92-2.35a13.7,13.7,0,0,1-2.07-3.52,1.38,1.38,0,0,1,1.3-2c.38,0,.82-.12.95-.47s-.34-.71-.63-1A11.14,11.14,0,0,0,36.67,118,1.27,1.27,0,0,1,36,116.59Z"/><path class="cls-5" d="M24.57,26.07l-.34,2.25c.53-.41,1-1,1.21.27A14.47,14.47,0,0,1,26,30.72c.63.19.74-.5,1.24-.45.31.39.08.6-.3.79-1.32.67-1.52,1.19-1,2.48A.64.64,0,0,1,26,34c-.09.22-.28.18-.45.08l-.25-.11c-.6-.34-1.26-1.16-1.88-.57s.22,1.35.29,2c.1,1,.07,2.05.07,3.07,0,.65-.85.39-1,1.16l-.62-2.39a12.87,12.87,0,0,0-.58,2.51c-.2,1.16.33,1.9.62,2.83.09.26-.8.68-.82,1.42,0,.55,0,1,.57,1,.75.11,1,.68.69,1.12s-.59,2-1.9,1c-.69-.89-1-2-2.38-2.43-.83-.27-1.29-1.54-1.43-2.46a16,16,0,0,1-.1-1.87c0-.87.16-1.73-1-2.11-.27-.09-.59-.47-.22-.78,1.22-1,1.22-3,2.94-3.73a1.48,1.48,0,0,0,.57-2.33c-.4-.54-.07-.92.47-1.2.69-.37,1.1-1.07.64-1.71a1,1,0,0,1,.13-1.57c.63-.51,1.21-1.54,2.2-1A2.83,2.83,0,0,0,24.57,26.07ZM20.51,36c.91,0,2,.36,2.16-1.07,0-.22.41-.51,0-.67s-.71-.12-.79.31C21.74,35.33,21.05,35.5,20.51,36Zm-1.74,3a1.23,1.23,0,0,0,1.56-.4.37.37,0,0,0-.23-.56C19.3,37.85,19.24,38.59,18.77,39Zm.92.69c-.16.51-.08.9.48,1,.17,0,.39,0,.39-.24C20.55,40,20.19,39.77,19.69,39.7Z"/><path class="cls-5" d="M48.94,13.55c-.22.73-.23,1.62-1.45,1.43-.35-.06-.78.41-.83.83-.12,1.3-1.29,1.93-1.8,3-.12.25-.2.59-.67.55s-.7.44-.56.63c.91,1.18-.46,1.52-.76,2.24a.49.49,0,0,1-.2.18c-.53.28.71.7-.05.86s-.54-.82-1.12-1.2c0,.84-.57,1.42-.37,2.24a.66.66,0,0,1-.51.85c-.34,0-.51-.19-.21-.51a1.59,1.59,0,0,0,.29-.29,1.09,1.09,0,0,0,0-.95c-.74.16-1.06.86-1.66,1.19-.43.24-.27.64.15.85.85.41.23.73-.09,1-.74.54-1.57.24-2-.66-.06-.12-.29-.19-.45-.23-.91-.2-.42-.61-.13-.94s.6-.46.81-.75.77-.19.84-.82c-1.55.07-2.48,1-3.38,2.16-.38-.72.12-1.55-.44-2.14.25-.6.89-.53,1.35-.69,1.6-.57,2.57-2.16,4.28-2.57a1.12,1.12,0,0,0,.7-1.1c0-2.7.57-3.57,3-4.57.53-.23,1.17-.23,1.44-.93.14-.34.6-.31.87-.13C46.89,13.66,47.94,13.43,48.94,13.55Z"/><path class="cls-5" d="M118.34,37.86c-.53-.07-.72-.45-.93-.89s-.34-1.13-1.2-1c-.67.13-.31-.7-.4-.92a14.57,14.57,0,0,0-1.32-3c-.29-.41.36-.84.53-1.28.46,0,.93.28.82.74-.38,1.48.77,2,1.56,2.84A3.44,3.44,0,0,1,118.34,37.86Z"/><path class="cls-5" d="M124.4,64.19c.12-1.08-.9-1.83-.82-2.92,0-.24.18-.38.18-.59a3.38,3.38,0,0,1,.54-.09c.57,0,1-1.41,1.65-.23.45.83.94,1.83-.78,2.51l1.69.14C126.32,64.13,125.71,64.89,124.4,64.19Z"/><path class="cls-5" d="M13.49,49.22c-.94,0-1.25-.38-1.09-1.13a4.86,4.86,0,0,1,1.77-2.74.94.94,0,0,1,1.37,0c.52.45.44.81,0,1.24a1.69,1.69,0,0,0-.41,1.15C15,48.82,14.2,49.07,13.49,49.22Z"/><path class="cls-5" d="M119.26,43.39c0-.33-1.39-.52-.1-1,.09,0,.43-.53.09-.69-2-.9-.64-2.54-.9-3.81.12-.06.24-.13.37-.18s.29,0,.29.25c0,1.29,1,1.75,2,2.22-1,.51-1,2-.17,3.29-.2,0-.42.23-.61,0Z"/><path class="cls-5" d="M114.79,30.32c-.63.69-.63.68-1.28,0-.09-.09-.3-.19-.37-.15-1.1.7-1.25-.48-1.78-.89s-1.17-.24-1.92.29a2.89,2.89,0,0,1,1.73-1.84C112.7,28.14,113.54,29.52,114.79,30.32Z"/><path class="cls-5" d="M55.54,13.22c-.27.53-.53,1.08-.84,1.6-.19.34-.63.66-.88.31-.67-.9-1.33-.56-2-.09-.17-.54-.49-1-.39-1.49C52.73,12.83,54.17,13.42,55.54,13.22Z"/><path class="cls-6" d="M29.94,24.34c-.16-1.5.61-2.39,2.69-3a2.7,2.7,0,0,1-1.18,1.89c-.73.51-.45.86.12,1.21A2.29,2.29,0,0,1,29.94,24.34Z"/><path class="cls-5" d="M125.39,67.94c-1.3,0-1.41-.8-1.23-1.76a3.51,3.51,0,0,0,.24-1.2c.61,0,.94.78,1.73.58A2.09,2.09,0,0,0,125.39,67.94Z"/><path class="cls-5" d="M122.82,83.6c-.43,0-.46-.47-.65-.73.78-.21,1.62.43,2.4-.21.24-.19.5.19.62.41.27.51-.29.72-.49,1a.6.6,0,0,1-1,.12c-.09-.1-.18-.22-.26-.32l0,0C123.32,83.64,123.07,83.61,122.82,83.6Z"/><path class="cls-6" d="M49.79,9.08c.38.38-.18.53.08.84.9,1.06.89,1.07-.65,2.21C49.69,11.16,48.62,10,49.79,9.08Z"/><path class="cls-5" d="M29.94,24.34a2.29,2.29,0,0,0,1.63.06h.31c-.08.82-1,1-1.31,1.72-.19.4-.62-.35-.95-.55Z"/><path class="cls-5" d="M11.44,65.43c.09.2.13.48.29.58,1.25.79.54,1.2-.28,1.61C10.88,66.9,10.09,66.17,11.44,65.43Z"/><path class="cls-6" d="M32.66,17.85c-.18-.6-.51-1.19.14-1.63a.46.46,0,0,1,.7.2C33.78,17.16,33,17.37,32.66,17.85Z"/><path class="cls-5" d="M122.49,87.23c-.43-.36.08-.58.14-.86.59.26,1.69-.84,1.76.31C124.43,87.43,123.18,87.12,122.49,87.23Z"/><path class="cls-5" d="M28.24,26.35c.29.34,1,.68.2,1.1s-1.13-.14-1.38-.78A2,2,0,0,1,28.24,26.35Z"/><path class="cls-6" d="M42.65,10.52c.66.67.27,1.24,0,1.77a.3.3,0,0,1-.55,0A2.12,2.12,0,0,1,42.65,10.52Z"/><path class="cls-6" d="M94.11,14.67l0-.62c.44-.33.61-1,1.38-1C95.64,14.17,94.69,14.26,94.11,14.67Z"/><path class="cls-6" d="M120.26,43.42c.19.26.41,0,.61,0,.15.28.67.42.52.73s-.6.19-.91.3-.48-.34-.71,0l0,0C120,44.16,120.11,43.79,120.26,43.42Z"/><path class="cls-5" d="M66.52,135.18c-.07.32-.13.8-.51.85s-.63-.47-.7-.86a.56.56,0,0,1,.65-.68A.58.58,0,0,1,66.52,135.18Z"/><path class="cls-5" d="M11.46,105.07a1.17,1.17,0,0,1-.88.84.36.36,0,0,1-.47-.37c0-.52.34-.72.81-.75A.49.49,0,0,1,11.46,105.07Z"/><path class="cls-5" d="M11.17,58.22a.48.48,0,0,1-.53.5c-.43,0-.55-.27-.52-.64a.47.47,0,0,1,.59-.43A.48.48,0,0,1,11.17,58.22Z"/><path class="cls-5" d="M91.79,12.9a.6.6,0,0,1-.48-.56c0-.25.11-.52.35-.41a1.08,1.08,0,0,1,.42.63C92.14,12.73,92,12.91,91.79,12.9Z"/><path class="cls-5" d="M72.17,130.64c-.06-.43.1-.74.54-.77a.57.57,0,0,1,.69.64A1.21,1.21,0,0,1,72.17,130.64Z"/><path class="cls-5" d="M50.59,13.43c-.24.12-.47.2-.59-.15C50.32,12.83,50.49,13,50.59,13.43Z"/><polygon class="cls-5" points="35.64 117.18 35.66 117.25 35.59 117.24 35.64 117.18"/><path class="cls-5" d="M21,97.79c-.66-.16-.73-1.13-1.46-.74-.49.27.14.64,0,1a2.3,2.3,0,0,1-1.45-.57c.57-1,1.51-.86,2.4-.76C21.05,96.75,21.13,97.2,21,97.79Z"/><path class="cls-5" d="M54.09,16.16c-.38.17-.76.2-1,.66s-.62.77-1.18.3c-.34-.28-1-.46-.7-1a.94.94,0,0,1,1.36-.45C53,15.87,53.6,15.64,54.09,16.16Z"/><path class="cls-5" d="M17.48,84.55a1.14,1.14,0,0,1-1.22.7c-.34,0-.92-.09-.68-.55s.37-1.22,1-1.25S17.25,84.1,17.48,84.55Z"/><path class="cls-5" d="M49.32,17.4c-.12-.36,1.23-1-.24-1-.4,0-.41-.42-.46-.7s.25-.32.46-.37c.4-.09.93-.25,1.12.15a2.59,2.59,0,0,1,.22,1.55C50.34,17.53,49.79,17.49,49.32,17.4Z"/><path class="cls-5" d="M16.68,86.44c.46,0,.51.54.58.86.12.55-.47.57-.81.66s-.47-.25-.46-.59S16,86.54,16.68,86.44Z"/><path class="cls-5" d="M85.87,15.25a7.84,7.84,0,0,0-1.19-.06c-.3,0-.56,0-.63-.32a.48.48,0,0,1,.1-.37.66.66,0,0,1,.77-.07c.35.19.68.4,1,.6Z"/><path class="cls-7" d="M120.26,43.42c-.15.37-.3.74-.46,1.1-.21-.36-1.08-.4-.54-1.13Z"/><path class="cls-7" d="M122.82,83.6c.25,0,.5,0,.61.33C123.09,84.07,122.94,83.86,122.82,83.6Z"/><path class="cls-7" d="M121.9,50.37a1.22,1.22,0,0,1,.07.17s0,.06-.08.09a.67.67,0,0,1-.07-.18S121.87,50.4,121.9,50.37Z"/><path class="cls-6" d="M117.46,99.49c.51,1.2-.07,1.92-1.31,2.66C116.59,101.05,116.62,100.09,117.46,99.49Z"/><path class="cls-6" d="M59.77,15c0,.41-.23.58-.58.45s-.94-.13-.79-.69c.08-.35.31-.91.74-.85S59.78,14.46,59.77,15Z"/><path class="cls-6" d="M20.51,36c.54-.46,1.23-.63,1.36-1.43.08-.43.5-.42.79-.31s0,.45,0,.67C22.5,36.32,21.42,36,20.51,36Z"/><path class="cls-6" d="M18.77,39c.47-.42.53-1.16,1.33-1a.37.37,0,0,1,.23.56A1.23,1.23,0,0,1,18.77,39Z"/><path class="cls-6" d="M19.69,39.7c.5.07.86.27.87.81,0,.25-.22.28-.39.24C19.61,40.6,19.53,40.21,19.69,39.7Z"/><path class="cls-8" d="M83.27,15.94a1.48,1.48,0,0,0,1.17.06,1,1,0,0,1,.91.05,17.73,17.73,0,0,0,4.75,2.26.69.69,0,0,1,.44.44,5.11,5.11,0,0,0,2.64,3.06,38.94,38.94,0,0,1,7.18,4c.78.5,1.39.48,1.82-.2.89-1.41,2.6-1.6,3.71-2.68a1.19,1.19,0,0,1,1.6.15c.49.45-.1.77-.3,1.12-.09.15-.19.3-.27.45.74-.25,1-.9,1.28-1.43a.81.81,0,0,0-.65-1.2c-1.19.67-2-.66-3-.4.17-.51.34-.93.46-1.37s.64-.71,0-.88c-.44-.13-.85-.93-1.39-.24-.27.34-.37-.09-.55,0-.58.72-1.43,1.35-.65,2.49-.89.15-1.69.34-2.31-.48a.61.61,0,0,0-.31-.16c-1.58,1.94-2.52-.72-3.91-.44.64-.37,1.57-.51,1-1.42-.37-.64-1.09-.47-1.66,0s-1.05-.35-1.57.05c.34-.6-.43-1.23.08-1.85.75-.91-.59-1.55-.36-2.4a1.91,1.91,0,0,0-2,.63c-.65,1.11-1.5.62-1.94.17a3.37,3.37,0,0,1-1.26-2c-.57.18-.65.71-.78,1.19-.79-.27-1.07-1-2.13-1.1-1.34-.06-2,.34-2.25,1.39a1.36,1.36,0,0,1-.29.56Zm.88-1.44a.66.66,0,0,1,.77-.07c.35.19.68.4,1,.6l-.07.22a7.84,7.84,0,0,0-1.19-.06c-.3,0-.56,0-.63-.32A.47.47,0,0,1,84.15,14.5Z"/><path class="cls-8" d="M44.48,22.9a8.72,8.72,0,0,1,2.22.16,3.4,3.4,0,0,0,3.13-.62c.69-.6,1.39-.73,2,.22.32.51,4.19.24,4.5-.26.11-.17.06-.44.16-.62.19-.34-.64-1.11.51-1.09.47,0,.9-.49,1.5-.27,1,.36,1.88.92,3.18.24A10.67,10.67,0,0,1,64.6,20c.61-.1,1.05-.33.46-1.05-.28-.35-.4-.75.24-1,2.06-.89,4.37-.91,6.44-1.78-.47-.92-1.21-.61-1.93-.42s-1.61-.2-2.29-.11-1.36.63-2.14.36c-.63-.22-1.89.42-1.6-1.18,0-.22-.77-.5-1.27-.47s-.86-.21-1.14.46c-.39.91-2.65,1.73-3.39,1.25a1.63,1.63,0,0,1-.66-1.57c.32-1.7.37-1.69-1.2-1.8a.9.9,0,0,1-.27-.07c-.32.08-.26.36-.31.59-.27.53-.53,1.08-.84,1.6-.19.34-.63.66-.88.31-.67-.9-1.33-.56-2-.09-.17-.54-.49-1-.39-1.49l-.8-.12c-.24.12-.47.2-.59-.15-.52-.58-.8-.19-1.06.27-.22.73-.23,1.62-1.45,1.43-.35-.06-.78.41-.83.83-.12,1.3-1.29,1.93-1.8,3-.12.25-.2.59-.67.55s-.7.44-.56.63c.91,1.18-.46,1.52-.76,2.24a.49.49,0,0,1-.2.18c-.18.1-.16.21-.08.32A5.93,5.93,0,0,0,44.48,22.9Zm6.74-6.77a.94.94,0,0,1,1.36-.45c.43.19,1,0,1.51.48-.38.17-.76.2-1,.66s-.62.77-1.18.3C51.58,16.84,51,16.66,51.22,16.13Zm-2.14-.76c.4-.09.93-.25,1.12.15a2.59,2.59,0,0,1,.22,1.55c-.08.46-.63.42-1.1.33-.12-.36,1.23-1-.24-1-.4,0-.41-.42-.46-.7S48.87,15.42,49.08,15.37Z"/><path class="cls-8" d="M41.79,22.38a.91.91,0,0,0-.29-.33.85.85,0,0,1,0,.16Z"/><path class="cls-8" d="M106.9,24.66a1.15,1.15,0,0,0-.13,1c.12.34.56.72,0,1s-.86.48-1.34,0-.68,0-.76.37,1.3,1.54,1.67,1.61c.83.17,1.42-.63,2.28-.47,1.42.27,1.75,0,2-1.52a1.07,1.07,0,0,1,.56.21,1.59,1.59,0,0,0-.73-.6c-.23-.12-.92-.13-.24-.74.25-.22-.93-.62-.52-1.33-.5-.28-.58.39-.87.42C108.19,24.68,107.64,25.28,106.9,24.66Z"/><path class="cls-8" d="M105.13,111.18a1,1,0,0,0,.55-.32A4.57,4.57,0,0,0,105.13,111.18Z"/><path class="cls-8" d="M123.41,83.9v0h0Z"/><path class="cls-8" d="M113.89,101.72l-.38.06a1.07,1.07,0,0,1-.34.6.58.58,0,0,1-.6.17c-1.6-.63-3.29-.34-4.94-.5-.78-.08-1.23.38-1.15,1.22,0,.27,0,.73-.24.67-1.07-.35-1.76.38-2.64.67a14.31,14.31,0,0,0-3.86,1.85c-.38.27-.89.69-1.42.14-.14-.13.1-.54-.28-.45s-.39.32-.31.63,0,.66-.42.68-.52-.32-.58-.62a4.25,4.25,0,0,1,0-.84c-.82.42-1.62.6-1.76,1.75-.07.61-.67,1.17-.66,1.9-.94-.46-1.57.54-2.69.51,1,.57,2.06.73,2.61,1.56.34.52.62.43,1.08.17a11.53,11.53,0,0,1,4.36-1.52,3.72,3.72,0,0,0,2.27-.58,1.93,1.93,0,0,1,1.59-.37,10.69,10.69,0,0,0,3.84-.84l1-.3a6.56,6.56,0,0,1,.88-2.15c.54-.82,1.13-1.12,2-.65.62.34,1.1.36,1.54-.3s1.45-.51,1.9-1.29c.21-.38.79-.65.48-1.14S114.7,101.64,113.89,101.72Z"/><path class="cls-8" d="M126.27,93.41a.66.66,0,0,0-.76.07c-1.13.83-1.6.62-1.78-.75-.14-1.13-.14-1.12-1.28-1.11a.6.6,0,0,1-.43-.3c-.17-.4-.5-.76-.46-1.27.57-.15,1.25.19,1.63-.68s-.16-1.14-.5-1.64a2.48,2.48,0,0,1-.2-.5c-.43-.36.08-.58.14-.86,0-.89,1-1.48.78-2.44-.33.14-.47-.07-.59-.33-.43,0-.46-.47-.65-.73a2.92,2.92,0,0,1-.24-1.64c.06-.74.77-1.4.4-2.08-.71-1.32-.21-2.12,1-2.72.73-.38.79-.81.19-1.38-.81-.75-.67-1.35.32-1.78a1.11,1.11,0,0,0,.74-1.44c-.22-.76.24-1.43.23-2.16,0-.51.33-.88.94-.53.28.16.55.37.92.18.2-1-.79-.95-1.23-1.38-1.3,0-1.41-.8-1.23-1.76a3.51,3.51,0,0,0,.24-1.2.75.75,0,0,1,0-.79c.12-1.08-.9-1.83-.82-2.92,0-.24.18-.38.18-.59-.56-.51,0-.58.29-.78a.53.53,0,0,0,.17-.62c0-.14-.15-.18-.3-.07-.39.29-1,.17-1-.13s.36-.64.84-.67c.31,0,.37-.36.53-.57.78-1,.23-2,.07-3-.13-.86-.49-.43-.93-.45.2.57.74.85.64,1.43-.06.36-.21.47-.54.45s-.12-.3-.17-.43c-.42-1-.46-2.2-1.26-3.12,1-.46,1.52-.92.85-2.19-.46-.87-.93-.2-1.36-.35s-.7-.09-.69-.62a1.6,1.6,0,0,1,.49-1.09c.34,1,1.43.28,1.93.85s.86.2,1.22-.21c-.71-.69-2.92-.68-1-2.49-.93-.17-1.72-.44-2,.69-.1.4-.54.28-.74.54s-.64.53-.89,0,.32-.42.51-.62.86-.14.73-.67-.78-.58-1.11-.46c-.78.28-.83-.24-1-.74l.69-.07c.2,0,.47.11.57-.21l-.5-.59,0,0c-.21-.36-1.08-.4-.54-1.13,0-.33-1.39-.52-.1-1,.09,0,.43-.53.09-.69-2-.9-.64-2.54-.9-3.81l0,0,0,0c-.53-.07-.72-.45-.93-.89s-.34-1.13-1.2-1c-.67.13-.31-.7-.4-.92a14.57,14.57,0,0,0-1.32-3c-.29-.41.36-.84.53-1.28,0-.2.11-.46-.23-.5-.63.69-.63.68-1.28,0-.09-.09-.3-.19-.37-.15-1,.64-1.22-.28-1.65-.77l-.09.15c-.42.79,1.07.89.5,1.51-.41.44-1.12.49-1.42,1.24s.55.86.68,1.4a9.44,9.44,0,0,0,1.13,2.64,6.59,6.59,0,0,1,.56,3.19c-.31.78-1.06,1.74-.67,2.35,1.12,1.73.39,3.69,1,5.56a16.88,16.88,0,0,1,.16,7.63,4,4,0,0,0,.09,2.18c.47,1.28-.29,2-1.57,1.75-.28-.07-.61-.2-.94.45.45.37,1,.77,1.47,1.21.22.19.51.45.1.76s-1.11-.31-1.74.14c-.27.19-.12-.46-.19-.72s-.35-.68-.75-.55c-.63.21-.24.48,0,.75s.24.46.09.61c-1.06,1-.56,1.75.35,2.56.4.35.61.93,1,1.33.7.65.4,1.45-.54,1.63-.52.1-1,.14-1.57.26-.27.06-.72,0-.63.49s.42.31.68.23c.64-.18,1,.09,1.23.67a5.73,5.73,0,0,0,2.9,2.8c.27.13.63.17.72.51.35,1.4,0,2.82.08,4.23,0,.52-.39.76-.81,1-.25.12-.27.3-.1.53a5.59,5.59,0,0,1,.91,3.39c.06,2.66.06,5.32.06,8,0,.43,0,1-.21,1.28-1.28,1.44-1.92,3.3-3.27,4.68a2.87,2.87,0,0,0-.41,1c1.38.44,1.57,1.93,2.46,2.75a3.4,3.4,0,0,1,.76,1.91,1.05,1.05,0,0,0,.32,0c.77-.22,1.56-.42,1.4-1.37-.11-.6.29-.69.52-.7.69,0,.2.39.17.65a.43.43,0,0,0,.13.33.32.32,0,0,0,.47-.15c.36-1.28,1.27-1.46,2.41-1.29.56.08,1.06-.69,1.69-.2.19-.27.53-.31.64-.77.25-1,2.73-2.2,3.62-1.93a1.29,1.29,0,0,0,1.75-1.13A.84.84,0,0,0,126.27,93.41Zm-4.37-43a1.22,1.22,0,0,1,.07.17s0,.06-.08.09a.67.67,0,0,1-.07-.18S121.87,50.4,121.9,50.37Z"/><path class="cls-8" d="M29.13,112.13a4.51,4.51,0,0,1,.37-.32l.95-.8a2.87,2.87,0,0,0-.49-.5.69.69,0,0,1,1,0,16.19,16.19,0,0,0,3-3.37c.22-.34.5-.66.22-1.08s-.69-.36-1.09-.3a36.12,36.12,0,0,1-4.65.14,1.93,1.93,0,0,1-2.09-1.83A44,44,0,0,1,26,99.68c-.08-2.7-.23-5.4-.08-8.09.13-2.3-.51-4.8,1.31-6.8.55-.6,0-1-.36-1.31-.72-.57-1.37-1.12-1.27-2.16a.83.83,0,0,0-.48-.75c-1.72-1.12-2.2-3-2.84-4.74a8.72,8.72,0,0,1-.14-1.31c-.16-1,.5-1.89.18-2.64-.77-1.81.76-1.29,1.45-1.63C22.67,68,22.64,68,23.33,65.46c.27-1,.22-2.19,1.35-2.88.54-.33.23-.79-.3-.95-.85-.27-1.2-.94-1.58-1.8,1.69,0,1.52-.92,1.13-2-.28-.75-.78-1.64-.15-2.26a2.3,2.3,0,0,0,.52-2.79c-.49-.82-.83-1.9-1.85-2.41a5.67,5.67,0,0,0-2.82-.64V49A54.15,54.15,0,0,0,25,50c.94.18,1.59.14,1.28-1.16-.21-.87.27-1.76,0-2.7a1,1,0,0,1,.85-1.18c1.13-.15,1.87-1,2.79-1.48a1.69,1.69,0,0,0-.06-2.88,1.69,1.69,0,0,1-.56-2.69c.32-.45.77-1-.38-1.06-.91,0-1.66-.79-2.82-.46.65-.73,1.61-.11,2-1-.82-.29-2,.21-2.06-1.3s1-1.08,1.87-1.42c-.25-.14-.36-.26-.47-.25-.63,0-1.11-.08-1.31-.81a.06.06,0,0,1,0,0c-.61.49-.62,1-.21,2A.64.64,0,0,1,26,34c-.09.22-.28.18-.45.08l-.25-.11c-.6-.34-1.26-1.16-1.88-.57s.22,1.35.29,2c.1,1,.07,2.05.07,3.07,0,.65-.85.39-1,1.16l-.62-2.39a12.87,12.87,0,0,0-.58,2.51c-.2,1.16.33,1.9.62,2.83.09.26-.8.68-.82,1.42,0,.55,0,1,.57,1,.75.11,1,.68.69,1.12s-.59,2-1.9,1a3,3,0,0,0-2.51.4c-.52.42-1,.91,0,1.53C19,49.5,20,50.1,20,51.2c0,.78.44.83,1,.9-1,.82-1.75,1.71-3.09,1.77-.46,0-.95.67-1.34,1.1-.88,1-.37,2.81-2,3.4-.12,0-.21.32-.22.49,0,.61-.43.86-.9,1.11-1.75.93-1.79,1-.95,3,.27.65-.29.71-.48,1-.32.41-.53.1-.61-.28-.12-.56-.45-.29-.73-.17-.54.22-.05.49-.05.75,0,.61,1.11.46.82,1.23.09.2.13.48.29.58,1.25.79.54,1.2-.28,1.61-.38.19-.87.21-1.11.67.45.33.93.45.75,1.24a17.44,17.44,0,0,0-.16,3.16c.3.31.72.12,1.16.17-.23.68-1.77,1.49.15,1.82-.44.24-.14.81-.38,1-.55.56-.12.68.26.55.92-.32,1.71-.75,2.54.27A3.48,3.48,0,0,1,15,79.82a13.44,13.44,0,0,1-1.63,4.48,2.69,2.69,0,0,0,0,2,6.48,6.48,0,0,1,.27,3.56c-.11.82-.26,1.7,1,1.94.56.11.64.61.75,1.17.34,1.78.14,3.72,1.43,5.24.29.34.34.81.85,1s.89.56.53,1.21-.47,1.26-1.36,1.1c-.41-.08-.9-.18-1,.37s.42.57.65.83c.52.57.62-.05.85-.35a.61.61,0,0,1,.46-.22c2,.38,4.11.13,6,1,.18.08.19.18.17.26-.38,1,.44,1,.86.82.77-.27.33-.88.09-1.5.85.25,1.1.65.8,1.43-.13.35-.93.44-.58.75s.63,1.08,1.35,1a1.21,1.21,0,0,1,1.4.88c.12.37.89.45.51,1a.71.71,0,0,1-1.11,0c-.24-.33-1.34.19-.8-.82.08-.15.15-.48-.06-.43-.91.26-1.08.07-.71-.82.12-.29-2.05-1.06-2.07-.8a10.43,10.43,0,0,0-.11,1.64,12.31,12.31,0,0,0,.78,2.58c.1.32.44.52.63.32,1.32-1.38,2.67-.14,4.11-.1-.22.68-.79,1.28-.53,2A1.55,1.55,0,0,0,29.13,112.13ZM16.45,88c-.46.13-.47-.25-.46-.59s0-.83.69-.93c.46,0,.51.54.58.86C17.38,87.85,16.79,87.87,16.45,88Zm-.19-2.71c-.34,0-.92-.09-.68-.55s.37-1.22,1-1.25.68.65.91,1.1A1.14,1.14,0,0,1,16.26,85.25ZM21,97.79c-.66-.16-.73-1.13-1.46-.74-.49.27.14.64,0,1a2.3,2.3,0,0,1-1.45-.57c.57-1,1.51-.86,2.4-.76C21.05,96.75,21.13,97.2,21,97.79Z"/><path class="cls-8" d="M25.44,28.59A14.47,14.47,0,0,1,26,30.72h0a6.34,6.34,0,0,1,.35-2c0-.06.32-.09.48-.06,2.23.5,4.5.12,6.74.31,1.16.09,1.87-1.21,3.14-.62-.19-.52-.7-.67-.61-1.13.7,0,1.35.33,1.93,0a2.19,2.19,0,0,0-.23-.64,1.83,1.83,0,0,1-.72-.74c-.53-.31-1.18-.46-1.76-.73a1.53,1.53,0,0,1,1-.36l.13-.15c.24-.28.6-.46.81-.75s.35-.2.54-.32a1.61,1.61,0,0,0-.21-.44,4.92,4.92,0,0,0-2.87,2.1c-.38-.72.12-1.55-.44-2.14-1.23-.25-1.73.78-2.47,1.39-.08.82-1,1-1.31,1.72-.19.4-.62-.35-.95-.55a3.14,3.14,0,0,1-1.49-.06l.11.83c.29.34,1,.68.2,1.1s-1.13-.14-1.38-.78c-.26-.35-.69-.56-.76-1.07s-.29-1-1.07-.86-.88.67-.66,1.33l-.34,2.25C24.76,27.91,25.24,27.3,25.44,28.59Z"/><path class="cls-8" d="M102.73,112a22.92,22.92,0,0,0-3.93,1,51.07,51.07,0,0,0-6.23,2.47c-1.65.82-2.94,2.43-5,2.32.18.91-.36,1.08-1.07,1.52s-.88,1-1.34.26a5.15,5.15,0,0,0-2.4-1.66,1.44,1.44,0,0,0-2,.51c-.89,1.6-2.39,1.56-3.82,1.72-2.14.25-4.21-1.16-6.39-.3-.1.05-.26,0-.39,0-1.6-.33-3.14-1-4.82-.82a.6.6,0,0,1-.56-.27,5.5,5.5,0,0,0-3.29-2.34c-.66-.17-1.15-.47-.75-1.26.24-.5,0-.66-.43-.85a10,10,0,0,0-4.45-1,6.84,6.84,0,0,1-2.55-.49,5.66,5.66,0,0,0-3.5-.22c-1.31.35-2.81.93-4.22-.08-.82-.6-1.81.21-2.71-.18-.16-.06-.29.18-.24.38.31,1.29-1,1.46-1.51,1.54-1.15.18-2.41-.29-3.44.66-.09.07-.36,0-.51-.06a1.4,1.4,0,0,0-1.45.13c.66.33-.19,1-.1,1.39a1.15,1.15,0,0,0,.12.25.58.58,0,0,1,.26,0c.8,1.15,1.76.42,2.32-.06a1.28,1.28,0,0,1,1.85,0,1.71,1.71,0,0,0,1.22.42c1.4-.86,3,.12,4.67-.75a12.4,12.4,0,0,1-2,2.81c-1.24,1.11-1.11,1.6.31,2.34.26.14.73.15.6.6s-.56.19-.85.22a5.25,5.25,0,0,0-1.89.32c.11.52.59.49,1.09.65-1.4.7-1,1.84-.74,2.76.13.57.82.6,1.15,0,.21-.39.37-.69.77-.34s.91.53.33,1.13c-.17.17.12.52.51.45a2.44,2.44,0,0,1,2,.42c-1.17.35-2.41-.28-3.34.76,3.72-.67,7.32.07,11,.6-1.87,1-3.78.24-6,0,1.26,1,2.39.6,3.45.72.39,0,1-.12,1.11.33.26,1.52,1.3,1,2.14.89,2.07-.23,4.09-1,6.23-.48.34.08.77-.26,1.17-.36a15,15,0,0,1,7.53.45c.51.06,1-.11,1.52.19-.06-.43.1-.74.54-.77a.57.57,0,0,1,.69.64c1.34-.6,2.77-.39,4.16-.53,1-.11,1.54.78,2.5.63a22.24,22.24,0,0,1,4.47-.57c2.54.11,5.12-.84,7.62.29.44.2.7-.13,1-.31a10.92,10.92,0,0,1,5.27-1.37c-.15-.27.65-.62,0-.75-1.3-.28-1.12-1-.7-1.84.17-.33.28-.68.43-1.06-.7,0-1.14-.67-1.9-.64-.37,0-1.12.09-1-.6.09-.41-.57-1.39.67-1.26.19,0,.41-.19.44-.46-.15-.51-.86,0-1-.69,1.73-.65,3.69.41,5.62-.64a9.79,9.79,0,0,0-5.65-.28c-1.24.22-2.45-.22-3.67-.08,0-.38-.23-.58-.52-.87l2-.56c-.54-.15-1-.26-1.5-.44-.18-.06-.59.22-.53-.29a2.23,2.23,0,0,1,1.2-1.58.59.59,0,0,1,.77.07c.32.39-.55.28-.33.7a3.87,3.87,0,0,0,2.15-.16c.63-.16.65-.16.32-.79-.07-.15-.07-.24,0-.33.68-.55,1.43-1.62,2-1.54,1.49.21,1.86-1.29,3-1.48.08,0,.14-.11.22-.16.35-.21.7-.54,1.14-.29s-.3.56-.09.89a.48.48,0,0,1-.07.68l2.22-.41C103.26,113.24,103.79,112.07,102.73,112Z"/><path class="cls-9" d="M35.47,44.36H28a5.3,5.3,0,0,1-5.29-5.3V16.59A5.3,5.3,0,0,1,28,11.3h7.5a5.31,5.31,0,0,1,5.3,5.29V39.06A5.31,5.31,0,0,1,35.47,44.36ZM28,12.55a4,4,0,0,0-4,4V39.06a4,4,0,0,0,4,4h7.5a4.05,4.05,0,0,0,4.05-4V16.59a4.05,4.05,0,0,0-4.05-4Z"/><rect class="cls-10" x="22.3" y="11.92" width="16.84" height="31.81" rx="4.8"/><path class="cls-11" d="M34.47,44.36H27a5.3,5.3,0,0,1-5.29-5.3V16.59A5.3,5.3,0,0,1,27,11.3h7.5a5.31,5.31,0,0,1,5.3,5.29V39.06A5.31,5.31,0,0,1,34.47,44.36ZM27,12.55a4,4,0,0,0-4,4V39.06a4,4,0,0,0,4,4h7.5a4.05,4.05,0,0,0,4.05-4V16.59a4.05,4.05,0,0,0-4.05-4Z"/><path class="cls-9" d="M25.5,20.08a2,2,0,0,0,.6.12c1.61,0,3.35,0,5.2-.12q2.06,0,4.23.12c1.61.09,2.74.17,3.39.25.16.08,0,.4-.49,1s-.88.65-1.21.49a8.84,8.84,0,0,0-2-.61c0,.65,0,1.41.12,2.3a3,3,0,0,1-.73,1.93,3.16,3.16,0,0,1-2.05,1A4.81,4.81,0,0,1,29,25.4a.21.21,0,0,1,.24-.24,4.93,4.93,0,0,0,2.66.24,2.54,2.54,0,0,0,1.7-1A7.08,7.08,0,0,0,34,21.29a14.66,14.66,0,0,0-3.75-.36c-1,.08-1.93.12-2.9.12a10.65,10.65,0,0,0-2.42.6q-.48.26-.48-.24A1.83,1.83,0,0,1,25.5,20.08Zm2.17-2.54a1.81,1.81,0,0,1,.61.13H30.7a5.14,5.14,0,0,1,.48-1,.88.88,0,0,1,1,.12.59.59,0,0,1,0,.85h2.29a16.8,16.8,0,0,1,2.06.12q.24.36,0,.48H32.27a16.36,16.36,0,0,1,3,1.33q.48.48-.36.48a17.08,17.08,0,0,1-3.39-1.45A10.81,10.81,0,0,1,29,20a.61.61,0,0,1-.72-.24.24.24,0,0,1,.12-.36,5.75,5.75,0,0,0,1.93-1.09c-.88.08-1.65.16-2.29.24l-1,.24c-.24,0-.33-.16-.24-.48S27.19,17.71,27.67,17.54Zm.73,4.11a7.88,7.88,0,0,0,.84.25h2.18a1.34,1.34,0,0,1,.6-.12c.57,0,.81.32.73,1A6.69,6.69,0,0,1,32.39,24c-.16.32-.37.45-.61.36l-.48-.24H29.61c-.33.08-.61.16-.85.24-.48.17-.77,0-.85-.48a12,12,0,0,1-.12-1.69C27.79,21.82,28,21.65,28.4,21.65Zm2.78.73H29.73c-.57.16-.85.4-.85.73a.47.47,0,0,0,.49.36h1.57c.4-.08.6-.24.6-.49A.55.55,0,0,0,31.18,22.38Z"/><path class="cls-9" d="M33.72,34.07v1l.48-.12q-.24-.48.48-.6a1.72,1.72,0,0,1,.37.48c.16.41.28.73.36,1s0,.44-.36.36l-.61-.6c-.56.16-1.29.32-2.17.48-.49.16-.77.08-.85-.24s0-.52.24-.6a3.6,3.6,0,0,0,1-.13v-1a3.73,3.73,0,0,0-1.57.12.78.78,0,0,0-.36.36v1.57a.43.43,0,0,1-.49.49,32.52,32.52,0,0,0,4.72.72,38.57,38.57,0,0,0,4.23-.24A5,5,0,0,1,38,38.9c-.4.49-1.25.61-2.54.37q-3.63-1.34-7.25-2.42a2.49,2.49,0,0,0-2.18.24,1.86,1.86,0,0,1-.85.48q-.6-.36-.48-.72a1.1,1.1,0,0,1,.73-.85,5,5,0,0,1,2.17,0,1.13,1.13,0,0,0-.24-1q-.24-.24.12-.6a1.88,1.88,0,0,0,.36-.48.25.25,0,0,0-.12-.37,1.81,1.81,0,0,0-1.33,0,3.65,3.65,0,0,1-1,.25c-.49.08-.61-.13-.37-.61a1.11,1.11,0,0,1,.61-.6,1.29,1.29,0,0,1,.72.24,6.23,6.23,0,0,0,1.7-.24q.84-.12,1,.6c0,.32-.32.81-1,1.45-.17.08-.13.28.12.61A.79.79,0,0,1,28,36a9.25,9.25,0,0,1,1.57.36,3.74,3.74,0,0,0,.24-1.57,7.36,7.36,0,0,1-.12-1,.44.44,0,0,1,.6-.37,10.13,10.13,0,0,0,2.3,0V33a4.92,4.92,0,0,0-1.57.24c-.41,0-.61-.12-.61-.36a7.29,7.29,0,0,0-.36-2.3.57.57,0,0,1,.48-.6,1.19,1.19,0,0,1,.61.24,10.19,10.19,0,0,0,1.33-.12,18.49,18.49,0,0,1,2.42.12,2.67,2.67,0,0,1,.84-.36,1.19,1.19,0,0,1,.61.24,1.07,1.07,0,0,1,.12.48,19.91,19.91,0,0,0-.12,2.18c0,.4-.2.56-.61.48L35.05,33H33.72a.51.51,0,0,0,0,.48c.88.08,1.65.12,2.29.12a1.41,1.41,0,0,1,.61-.12.54.54,0,0,1,.6.61,6.44,6.44,0,0,0-.12,1.45v1.21a.86.86,0,0,1-.6.36.84.84,0,0,1-.61-.24C36,36,36,35.2,36,34.55a.32.32,0,0,0-.36-.36A11,11,0,0,0,33.72,34.07Zm-7-3.87a.85.85,0,0,1,.72.12c.4.24.77.44,1.09.6a6.66,6.66,0,0,1,1,.49c.08.24-.12.36-.61.36a6.13,6.13,0,0,1-2.17-.36.62.62,0,0,1,0-1.21Zm4.71,1.09h1.21c.16-.25.16-.45,0-.61h-.85a1.4,1.4,0,0,0-.36.24Zm1.21,1.21a.8.8,0,0,0,0-.61H31.42v.48a.24.24,0,0,0,.36.13Zm1.21-1.7a.53.53,0,0,0,0,.49h1.45c.08-.25,0-.41-.12-.49A1.9,1.9,0,0,0,33.84,30.8ZM34,32.5h1c.24,0,.36-.09.36-.25a.38.38,0,0,0-.24-.36H33.84C33.76,32.21,33.8,32.41,34,32.5Z"/><path class="cls-11" d="M24.5,20.08a2,2,0,0,0,.6.12c1.61,0,3.35,0,5.2-.12q2.06,0,4.23.12c1.61.09,2.74.17,3.39.25.16.08,0,.4-.49,1s-.88.65-1.21.49a8.84,8.84,0,0,0-2-.61c0,.65,0,1.41.12,2.3a3,3,0,0,1-.73,1.93,3.16,3.16,0,0,1-2.05,1A4.81,4.81,0,0,1,28,25.4a.21.21,0,0,1,.24-.24,4.93,4.93,0,0,0,2.66.24,2.54,2.54,0,0,0,1.7-1A7.08,7.08,0,0,0,33,21.29a14.66,14.66,0,0,0-3.75-.36c-1,.08-1.93.12-2.9.12a10.65,10.65,0,0,0-2.42.6q-.48.26-.48-.24A1.83,1.83,0,0,1,24.5,20.08Zm2.17-2.54a1.81,1.81,0,0,1,.61.13H29.7a5.14,5.14,0,0,1,.48-1,.88.88,0,0,1,1,.12.59.59,0,0,1,0,.85h2.29a16.8,16.8,0,0,1,2.06.12q.24.36,0,.48H31.27a16.36,16.36,0,0,1,3,1.33q.48.48-.36.48a17.08,17.08,0,0,1-3.39-1.45A10.81,10.81,0,0,1,28,20a.61.61,0,0,1-.72-.24.24.24,0,0,1,.12-.36,5.75,5.75,0,0,0,1.93-1.09c-.88.08-1.65.16-2.29.24l-1,.24c-.24,0-.33-.16-.24-.48S26.19,17.71,26.67,17.54Zm.73,4.11a7.88,7.88,0,0,0,.84.25h2.18a1.34,1.34,0,0,1,.6-.12c.57,0,.81.32.73,1A6.69,6.69,0,0,1,31.39,24c-.16.32-.37.45-.61.36l-.48-.24H28.61c-.33.08-.61.16-.85.24-.48.17-.77,0-.85-.48a12,12,0,0,1-.12-1.69C26.79,21.82,27,21.65,27.4,21.65Zm2.78.73H28.73c-.57.16-.85.4-.85.73a.47.47,0,0,0,.49.36h1.57c.4-.08.6-.24.6-.49A.55.55,0,0,0,30.18,22.38Z"/><path class="cls-11" d="M32.72,34.07v1l.48-.12q-.24-.48.48-.6a1.72,1.72,0,0,1,.37.48c.16.41.28.73.36,1s0,.44-.36.36l-.61-.6c-.56.16-1.29.32-2.17.48-.49.16-.77.08-.85-.24s0-.52.24-.6a3.6,3.6,0,0,0,1-.13v-1a3.73,3.73,0,0,0-1.57.12.78.78,0,0,0-.36.36v1.57a.43.43,0,0,1-.49.49,32.52,32.52,0,0,0,4.72.72,38.57,38.57,0,0,0,4.23-.24A5,5,0,0,1,37,38.9c-.4.49-1.25.61-2.54.37q-3.63-1.34-7.25-2.42a2.49,2.49,0,0,0-2.18.24,1.86,1.86,0,0,1-.85.48q-.6-.36-.48-.72a1.1,1.1,0,0,1,.73-.85,5,5,0,0,1,2.17,0,1.13,1.13,0,0,0-.24-1q-.24-.24.12-.6a1.88,1.88,0,0,0,.36-.48.25.25,0,0,0-.12-.37,1.81,1.81,0,0,0-1.33,0,3.65,3.65,0,0,1-1,.25c-.49.08-.61-.13-.37-.61a1.11,1.11,0,0,1,.61-.6,1.29,1.29,0,0,1,.72.24,6.23,6.23,0,0,0,1.7-.24q.84-.12,1,.6c0,.32-.32.81-1,1.45-.17.08-.13.28.12.61A.79.79,0,0,1,27,36a9.25,9.25,0,0,1,1.57.36,3.74,3.74,0,0,0,.24-1.57,7.36,7.36,0,0,1-.12-1,.44.44,0,0,1,.6-.37,10.13,10.13,0,0,0,2.3,0V33a4.92,4.92,0,0,0-1.57.24c-.41,0-.61-.12-.61-.36a7.29,7.29,0,0,0-.36-2.3.57.57,0,0,1,.48-.6,1.19,1.19,0,0,1,.61.24,10.19,10.19,0,0,0,1.33-.12,18.49,18.49,0,0,1,2.42.12,2.67,2.67,0,0,1,.84-.36,1.19,1.19,0,0,1,.61.24,1.07,1.07,0,0,1,.12.48,19.91,19.91,0,0,0-.12,2.18c0,.4-.2.56-.61.48L34.05,33H32.72a.51.51,0,0,0,0,.48c.88.08,1.65.12,2.29.12a1.41,1.41,0,0,1,.61-.12.54.54,0,0,1,.6.61,6.44,6.44,0,0,0-.12,1.45v1.21a.86.86,0,0,1-.6.36.84.84,0,0,1-.61-.24C35,36,35,35.2,35,34.55a.32.32,0,0,0-.36-.36A11,11,0,0,0,32.72,34.07Zm-7-3.87a.85.85,0,0,1,.72.12c.4.24.77.44,1.09.6a6.66,6.66,0,0,1,1,.49c.08.24-.12.36-.61.36a6.13,6.13,0,0,1-2.17-.36.62.62,0,0,1,0-1.21Zm4.71,1.09h1.21c.16-.25.16-.45,0-.61h-.85a1.4,1.4,0,0,0-.36.24Zm1.21,1.21a.8.8,0,0,0,0-.61H30.42v.48a.24.24,0,0,0,.36.13Zm1.21-1.7a.53.53,0,0,0,0,.49h1.45c.08-.25,0-.41-.12-.49A1.9,1.9,0,0,0,32.84,30.8ZM33,32.5h1c.24,0,.36-.09.36-.25a.38.38,0,0,0-.24-.36H32.84C32.76,32.21,32.8,32.41,33,32.5Z"/><path class="cls-12" d="M52,122.77c.4.34.6.54.6.63s-.23.29-.69.37a2.79,2.79,0,0,1-1.36-.37,1.48,1.48,0,0,1-.51-.75,1.52,1.52,0,0,1,.26-.88c.11-.17.22-.21.34-.13C50.94,121.89,51.39,122.27,52,122.77Zm.77,2.76c.28-.09.42,0,.42.12a2.27,2.27,0,0,1-.34.75,10.74,10.74,0,0,1-.68.88c-.34.34-.63.46-.85.38a.79.79,0,0,1-.51-.75.88.88,0,0,1,.34-.76l.59-.25A5.09,5.09,0,0,1,52.73,125.53ZM51.36,119a1.83,1.83,0,0,1,.85.63,3,3,0,0,1,.69.88.65.65,0,0,1-.43.37,2.24,2.24,0,0,1-1.28-.5.8.8,0,0,1-.25-.75A.73.73,0,0,1,51.36,119Zm2.13,2.13a5.52,5.52,0,0,1,1.36.13.36.36,0,0,1,.09.5c-.17.08-.4.21-.68.37a5.92,5.92,0,0,0-.09,1.38,1,1,0,0,0,.85.38,5.21,5.21,0,0,0,.18-2c-.06-.5-.12-.91-.18-1.25s.12-.67.35-.75H56a5.19,5.19,0,0,1,.43-1.25c0-.25.25-.25.59,0a.61.61,0,0,1,.17.62q0,.26-.51.63a3,3,0,0,0,1.2,0,.54.54,0,0,1,.25-.13.54.54,0,0,1,.51.38,2.38,2.38,0,0,1,.09.75,5.55,5.55,0,0,1-.09,1A3.16,3.16,0,0,1,58,123.4c-.29.33-.54.46-.77.37a1.31,1.31,0,0,1-.68-.62c0-.09.08-.13.25-.13a.55.55,0,0,0,.68-.25,3.81,3.81,0,0,0,.26-1.63c-.06-.33-.2-.5-.43-.5a1.85,1.85,0,0,0-1.27.13.63.63,0,0,0-.09.37l-.08,2.63c0,.34.17.46.34.38h2a1.91,1.91,0,0,1,.6-.13,1.21,1.21,0,0,1,.68.25,1.73,1.73,0,0,1,.25,1.13,6.37,6.37,0,0,1-.42,1.88c-.4.67-.8,1-1.19,1-.12.09-.46,0-1-.25a1.41,1.41,0,0,1-.68-.75c.06-.17.31-.17.77,0a1.27,1.27,0,0,0,1.28-.5,2.35,2.35,0,0,0,.25-1.5.94.94,0,0,0-.93-.5H56.56a1.19,1.19,0,0,0-.51.12,1.94,1.94,0,0,1-.77.25c-.17-.08-.26-.29-.26-.63a9.87,9.87,0,0,0-1.53.13c-.28.08-.59.17-.93.25s-.35.08-.35-.25c.06-.5.2-.79.43-.88a1,1,0,0,0,.6.13,1,1,0,0,0,.25-.75c.06-.59,0-.92-.17-1a.87.87,0,0,0-.51.13c-.23,0-.31-.13-.25-.38a1.5,1.5,0,0,1,.51-.87A.7.7,0,0,0,53.49,121.14Zm.43,4.39a1,1,0,0,0,.34.12h.51a14.64,14.64,0,0,0,1.62-.12,7.81,7.81,0,0,1,1.36.12A.42.42,0,0,1,58,126a.39.39,0,0,1-.26.37H55.37a4.23,4.23,0,0,0-1.71.38c-.17.08-.25-.08-.25-.5A1.4,1.4,0,0,1,53.92,125.53Zm3-3.89a4.48,4.48,0,0,1,.34.63c-.06.33-.26.38-.6.12a1.43,1.43,0,0,1-.42-.75.84.84,0,0,1,.25-.5A2.13,2.13,0,0,1,56.9,121.64Z"/><path class="cls-12" d="M61.79,121.14a2.15,2.15,0,0,0,1.62.13c.23.08.31.29.25.62a5.46,5.46,0,0,0-.42,1.26,1.15,1.15,0,0,0,.34.62.74.74,0,0,1-.09.75,1.49,1.49,0,0,1-.51.63q1.37.25,3.15.63a14.25,14.25,0,0,0,4.18.37c.45-.08.68-.08.68,0a3.47,3.47,0,0,1-.68,1.63c-.46.67-1,.79-1.54.38-.73-.34-1.61-.75-2.64-1.25a8.83,8.83,0,0,0-3.4-1,2.59,2.59,0,0,0-1.54.75.29.29,0,0,1-.42-.12.83.83,0,0,1,0-.75c.17-.42.42-.63.76-.63a1.67,1.67,0,0,0,.94,0,1.71,1.71,0,0,0,.43-.75c.17-.25.11-.46-.17-.63s-.29-.33-.17-.5a4.8,4.8,0,0,0,.34-.62c0-.34-.12-.51-.34-.51a1,1,0,0,0-1,.38c-.22,0-.34-.25-.34-.75A.93.93,0,0,1,61.79,121.14Zm.43-2.25A7.25,7.25,0,0,1,63.83,120c-.11.34-.51.51-1.19.51q-1.19-.26-1-1.26C61.73,118.93,61.93,118.8,62.22,118.89ZM64.6,121a11,11,0,0,0,3.32.12h1.45c.28.09.43.21.43.38s-.17.37-.52.37H66.9c-.17.42-.4.92-.68,1.51a.71.71,0,0,0-.17.62,2.1,2.1,0,0,0,.94.5,1.58,1.58,0,0,0,.85-.75,6.57,6.57,0,0,1-.6-.75c-.11-.17-.06-.37.17-.63a.47.47,0,0,1,.68.13,6.55,6.55,0,0,1,1.37,2c.05.34-.06.46-.35.38a5.25,5.25,0,0,1-.76-.75A2.09,2.09,0,0,1,67,125.28a1,1,0,0,1-.94-.38q-.6-.63-1.11,0c-.17.08-.31,0-.42-.38a.8.8,0,0,1,.25-.75c.45-.08.91-.71,1.36-1.88a2.06,2.06,0,0,0-1.78.5c-.23.09-.32-.12-.26-.62A1.4,1.4,0,0,1,64.6,121Zm.43-2.13a16.52,16.52,0,0,0,3.57.12.42.42,0,0,1,.26.38.27.27,0,0,1-.17.37,9.57,9.57,0,0,0-3.75.38c-.17.17-.31.08-.42-.25A1,1,0,0,1,65,118.89Z"/><path class="cls-12" d="M77,122.52a6.42,6.42,0,0,0,2.21-.13.52.52,0,0,1,.43-.25c.39,0,.68.3.85.88-.12,1.42-.17,2.92-.17,4.51,0,.59-.23.75-.68.5a4.74,4.74,0,0,0-1.37-.5H73.58a3.47,3.47,0,0,0-1,.25.69.69,0,0,1-.43.13c-.17,0-.25-.13-.25-.38a1.32,1.32,0,0,1,.25-.75.61.61,0,0,1,.6-.38,6.22,6.22,0,0,0,1.36.13h5c.11,0,.17-.13.17-.38v-1H74.77a2.39,2.39,0,0,0-1,.25c-.45.17-.65,0-.6-.37s.26-.8.43-.88a1.87,1.87,0,0,1,.6.12,49.15,49.15,0,0,1,5.11.13c.11-.75,0-1.13-.34-1.13H75a9.86,9.86,0,0,0-2.47.5c-.34.17-.48,0-.43-.37.12-.67.4-1.05.85-1.13.12.17.37.25.77.25a16.8,16.8,0,0,0,2-.13c0-1,0-2-.08-3.13,0-.5.17-.71.51-.62.62.25.94.62.94,1.12-.06.34-.12.71-.17,1.13Zm-3.58-1.63a1.33,1.33,0,0,1-.09-1.5.41.41,0,0,1,.69,0,16.52,16.52,0,0,0,1.19,2.38l-.09.25A3.45,3.45,0,0,1,73.41,120.89Zm4.17.88a.31.31,0,0,1,.09-.38,3.9,3.9,0,0,0,1.19-2c.06-.25.17-.38.34-.38a1.63,1.63,0,0,1,.77,1,1.46,1.46,0,0,1-.17,1A3,3,0,0,1,77.58,121.77Z"/><path class="cls-12" d="M87.76,118.39q.58,0,.51,1.62c-.06.59-.12,1.47-.17,2.64.17.25.62.37,1.36.37,1.08.09,2,.13,2.81.13-.46,1.42-1,1.92-1.79,1.5a7.43,7.43,0,0,0-2.55-.63l-.52.88a9.38,9.38,0,0,1-2.64,2.76,2,2,0,0,1-2,0,1,1,0,0,1-.52-.63c0-.17.18-.25.52-.25A5.87,5.87,0,0,0,86.73,124a10.45,10.45,0,0,0-3.23.5,2.84,2.84,0,0,1-1.11.38c-.23,0-.34-.12-.34-.38a1.94,1.94,0,0,1,.25-.87,1.5,1.5,0,0,1,.52-.5,18.06,18.06,0,0,0,3.49-.13,1,1,0,0,0,.68-.37,7.77,7.77,0,0,0,.17-2v-1.25C87.22,118.72,87.41,118.39,87.76,118.39ZM83.84,121c0-.09.17,0,.34.12a5,5,0,0,0,1.87.38.43.43,0,0,1,.09.25c-.12.25-.46.46-1,.62a2.62,2.62,0,0,1-1.53-.12.57.57,0,0,1-.25-.63A.93.93,0,0,1,83.84,121Zm.93-2a.52.52,0,0,1,.34.13l1,.5c.51.25.76.42.76.5l-.17.25a3.94,3.94,0,0,1-1.62.13c-.62-.17-.9-.38-.85-.63A1.09,1.09,0,0,1,84.77,119Zm3.67,5.51a13.71,13.71,0,0,0,2.64,3.14c.11.16.08.29-.09.37s-.51,0-1-.25a8.13,8.13,0,0,1-2.13-1.88.87.87,0,0,1-.08-1C88,124.48,88.27,124.36,88.44,124.52Z"/><path class="cls-13" d="M52,122.17q.6.51.6.63c0,.17-.23.29-.69.38a2.8,2.8,0,0,1-1.36-.38,1.48,1.48,0,0,1-.51-.75,1.52,1.52,0,0,1,.26-.88c.11-.16.22-.21.34-.12C50.94,121.3,51.39,121.67,52,122.17Zm.77,2.76c.28-.08.42,0,.42.13a2.27,2.27,0,0,1-.34.75,10.79,10.79,0,0,1-.68.87c-.34.34-.63.46-.85.38s-.46-.33-.51-.75a.85.85,0,0,1,.34-.75,4.76,4.76,0,0,1,.59-.25A4.59,4.59,0,0,1,52.73,124.93Zm-1.37-6.51a1.8,1.8,0,0,1,.85.62,3.28,3.28,0,0,1,.69.88.63.63,0,0,1-.43.37,2.17,2.17,0,0,1-1.28-.5.8.8,0,0,1-.25-.75A.71.71,0,0,1,51.36,118.42Zm2.13,2.13a6.15,6.15,0,0,1,1.36.12.36.36,0,0,1,.09.5c-.17.09-.4.21-.68.38a5.8,5.8,0,0,0-.09,1.38,1,1,0,0,0,.85.37,5.18,5.18,0,0,0,.18-2q-.09-.75-.18-1.26c0-.41.12-.66.35-.75H56a5.19,5.19,0,0,1,.43-1.25c0-.25.25-.25.59,0a.63.63,0,0,1,.17.63c0,.16-.17.37-.51.62a2.65,2.65,0,0,0,1.2,0,.49.49,0,0,1,.25-.12.53.53,0,0,1,.51.37,2.38,2.38,0,0,1,.09.75,5.75,5.75,0,0,1-.09,1,3.08,3.08,0,0,1-.59,1.5c-.29.33-.54.46-.77.38a1.36,1.36,0,0,1-.68-.63c0-.08.08-.13.25-.13a.55.55,0,0,0,.68-.25,3.75,3.75,0,0,0,.26-1.62c-.06-.34-.2-.51-.43-.51a1.85,1.85,0,0,0-1.27.13.64.64,0,0,0-.09.38l-.08,2.63c0,.33.17.46.34.37h2a1.87,1.87,0,0,1,.6-.12,1.14,1.14,0,0,1,.68.25,1.7,1.7,0,0,1,.25,1.12,6.37,6.37,0,0,1-.42,1.88c-.4.67-.8,1-1.19,1-.12.08-.46,0-1-.25a1.42,1.42,0,0,1-.68-.76c.06-.16.31-.16.77,0a1.27,1.27,0,0,0,1.28-.5,2.34,2.34,0,0,0,.25-1.5,1,1,0,0,0-.93-.5H56.56a1.19,1.19,0,0,0-.51.12,1.94,1.94,0,0,1-.77.25c-.17-.08-.26-.29-.26-.62a9.86,9.86,0,0,0-1.53.12c-.28.09-.59.17-.93.25s-.35.09-.35-.25c.06-.5.2-.79.43-.87a1.08,1.08,0,0,0,.6.12,1,1,0,0,0,.25-.75c.06-.58,0-.92-.17-1a.87.87,0,0,0-.51.12c-.23,0-.31-.12-.25-.37a1.53,1.53,0,0,1,.51-.88A.7.7,0,0,0,53.49,120.55Zm.43,4.38a1.16,1.16,0,0,0,.34.13h.51a15.1,15.1,0,0,0,1.62-.13,7,7,0,0,1,1.36.13.39.39,0,0,1,.26.37.42.42,0,0,1-.26.38H55.37a4.22,4.22,0,0,0-1.71.37c-.17.09-.25-.08-.25-.5A1.4,1.4,0,0,1,53.92,124.93Zm3-3.88a3.83,3.83,0,0,1,.34.62c-.06.34-.26.38-.6.13a1.51,1.51,0,0,1-.42-.75.81.81,0,0,1,.25-.5A1.94,1.94,0,0,1,56.9,121.05Z"/><path class="cls-13" d="M61.79,120.55a2.11,2.11,0,0,0,1.62.12c.23.08.31.29.25.63a5.21,5.21,0,0,0-.42,1.25,1.22,1.22,0,0,0,.34.63.74.74,0,0,1-.09.75,1.46,1.46,0,0,1-.51.62q1.37.26,3.15.63a14.27,14.27,0,0,0,4.18.38c.45-.09.68-.09.68,0a3.56,3.56,0,0,1-.68,1.63c-.46.66-1,.79-1.54.37-.73-.33-1.61-.75-2.64-1.25a8.64,8.64,0,0,0-3.4-1,2.48,2.48,0,0,0-1.54.75.3.3,0,0,1-.42-.13.83.83,0,0,1,0-.75c.17-.42.42-.63.76-.63a1.67,1.67,0,0,0,.94,0,1.71,1.71,0,0,0,.43-.75c.17-.25.11-.46-.17-.62s-.29-.34-.17-.5a5.82,5.82,0,0,0,.34-.63c0-.34-.12-.5-.34-.5a1,1,0,0,0-1,.37c-.22,0-.34-.25-.34-.75A.91.91,0,0,1,61.79,120.55Zm.43-2.26a7.33,7.33,0,0,1,1.61,1.13c-.11.33-.51.5-1.19.5-.79-.17-1.13-.59-1-1.25C61.73,118.33,61.93,118.21,62.22,118.29Zm2.38,2.13a10.9,10.9,0,0,0,3.32.13h1.45c.28.08.43.2.43.37s-.17.38-.52.38H66.9c-.17.41-.4.92-.68,1.5a.73.73,0,0,0-.17.63,2.2,2.2,0,0,0,.94.5,1.66,1.66,0,0,0,.85-.75,5.87,5.87,0,0,1-.6-.76c-.11-.16-.06-.37.17-.62a.46.46,0,0,1,.68.12,6.54,6.54,0,0,1,1.37,2c.05.33-.06.46-.35.37a4.37,4.37,0,0,1-.76-.75A2.06,2.06,0,0,1,67,124.68a1,1,0,0,1-.94-.38q-.6-.61-1.11,0c-.17.09-.31,0-.42-.37a.8.8,0,0,1,.25-.75c.45-.09.91-.71,1.36-1.88a2,2,0,0,0-1.78.5c-.23.08-.32-.13-.26-.63A1.4,1.4,0,0,1,64.6,120.42Zm.43-2.13a16.49,16.49,0,0,0,3.57.13.39.39,0,0,1,.26.37.28.28,0,0,1-.17.38,9.41,9.41,0,0,0-3.75.37c-.17.17-.31.09-.42-.25A1,1,0,0,1,65,118.29Z"/><path class="cls-13" d="M77,121.92a6.19,6.19,0,0,0,2.21-.12.5.5,0,0,1,.43-.25c.39,0,.68.29.85.87-.12,1.42-.17,2.93-.17,4.51,0,.59-.23.76-.68.51a4.77,4.77,0,0,0-1.37-.51H73.58a3.26,3.26,0,0,0-1,.26.75.75,0,0,1-.43.12c-.17,0-.25-.12-.25-.38a1.32,1.32,0,0,1,.25-.75.6.6,0,0,1,.6-.37,7,7,0,0,0,1.36.12h5c.11,0,.17-.12.17-.37v-1H74.77a2.39,2.39,0,0,0-1,.25c-.45.17-.65,0-.6-.37s.26-.79.43-.88a1.67,1.67,0,0,1,.6.13,51,51,0,0,1,5.11.12c.11-.75,0-1.12-.34-1.12H75a9.43,9.43,0,0,0-2.47.5c-.34.16-.48,0-.43-.38.12-.67.4-1,.85-1.13.12.17.37.25.77.25a18.94,18.94,0,0,0,2-.12c0-1,0-2-.08-3.13,0-.51.17-.71.51-.63.62.25.94.63.94,1.13-.06.33-.12.71-.17,1.12Zm-3.58-1.63a1.33,1.33,0,0,1-.09-1.5.41.41,0,0,1,.69,0,16,16,0,0,0,1.19,2.38l-.09.25A3.38,3.38,0,0,1,73.41,120.29Zm4.17.88a.3.3,0,0,1,.09-.37,4,4,0,0,0,1.19-2c.06-.25.17-.37.34-.37a1.6,1.6,0,0,1,.77,1,1.43,1.43,0,0,1-.17,1A3,3,0,0,1,77.58,121.17Z"/><path class="cls-13" d="M87.76,117.79c.39,0,.56.54.51,1.63-.06.58-.12,1.46-.17,2.63.17.25.62.37,1.36.37,1.08.09,2,.13,2.81.13-.46,1.42-1,1.92-1.79,1.5a7.26,7.26,0,0,0-2.55-.62l-.52.87a9.38,9.38,0,0,1-2.64,2.76,2,2,0,0,1-2,0,1,1,0,0,1-.52-.63c0-.16.18-.25.52-.25a5.89,5.89,0,0,0,3.91-2.75,10.16,10.16,0,0,0-3.23.5,3,3,0,0,1-1.11.37c-.23,0-.34-.12-.34-.37a2,2,0,0,1,.25-.88,1.5,1.5,0,0,1,.52-.5,18.06,18.06,0,0,0,3.49-.13,1,1,0,0,0,.68-.37,7.71,7.71,0,0,0,.17-2v-1.25C87.22,118.12,87.41,117.79,87.76,117.79Zm-3.92,2.63c0-.08.17,0,.34.13a5,5,0,0,0,1.87.37.45.45,0,0,1,.09.25c-.12.25-.46.46-1,.63a2.69,2.69,0,0,1-1.53-.13.55.55,0,0,1-.25-.62A1,1,0,0,1,83.84,120.42Zm.93-2a.56.56,0,0,1,.34.12l1,.5c.51.25.76.42.76.5a2.2,2.2,0,0,1-.17.25,3.94,3.94,0,0,1-1.62.13c-.62-.17-.9-.38-.85-.63A1.07,1.07,0,0,1,84.77,118.42Zm3.67,5.51a13.69,13.69,0,0,0,2.64,3.13c.11.17.08.29-.09.38s-.51,0-1-.25a8.5,8.5,0,0,1-2.13-1.88.88.88,0,0,1-.08-1C88,123.89,88.27,123.76,88.44,123.93Z"/></svg>