<?xml version="1.0" encoding="UTF-8" ?>
<!DOCTYPE svg PUBLIC "-//W3C//DTD SVG 1.1//EN" "http://www.w3.org/Graphics/SVG/1.1/DTD/svg11.dtd">
<svg width="840pt" height="840pt" viewBox="0 0 840 840" version="1.1" xmlns="http://www.w3.org/2000/svg">
<g id="#06050517">
<path fill="#060505" opacity="0.09" d=" M 0.00 0.00 L 7.06 0.00 C 7.03 1.73 6.96 5.20 6.92 6.93 C 5.19 6.96 1.73 7.02 0.00 7.05 L 0.00 0.00 Z" />
<path fill="#060505" opacity="0.09" d=" M 832.94 0.00 L 840.00 0.00 L 840.00 7.05 C 838.27 7.02 834.81 6.96 833.08 6.93 C 833.04 5.20 832.97 1.73 832.94 0.00 Z" />
<path fill="#060505" opacity="0.09" d=" M 0.00 832.95 C 1.73 832.98 5.19 833.04 6.92 833.07 C 6.96 834.80 7.03 838.27 7.06 840.00 L 0.00 840.00 L 0.00 832.95 Z" />
<path fill="#060505" opacity="0.09" d=" M 833.07 833.08 C 834.80 833.04 838.27 832.97 840.00 832.94 L 840.00 840.00 L 832.95 840.00 C 832.98 838.27 833.04 834.81 833.07 833.08 Z" />
</g>
<g id="#2f2924a5">
<path fill="#2f2924" opacity="0.65" d=" M 191.15 1.95 C 191.95 0.14 197.03 0.15 197.86 1.94 C 196.18 1.95 192.83 1.95 191.15 1.95 Z" />
</g>
<g id="#494038fe">
<path fill="#494038" opacity="1.00" d=" M 174.02 20.01 C 178.27 12.93 182.12 3.59 191.15 1.95 C 192.83 1.95 196.18 1.95 197.86 1.94 C 201.56 1.97 204.75 4.39 207.93 6.07 C 257.95 38.06 301.87 79.49 336.06 128.06 C 340.21 132.18 345.12 135.78 348.03 141.00 C 345.81 144.37 343.19 147.52 339.75 149.73 C 328.71 156.40 316.42 162.54 303.08 161.11 C 294.25 166.94 292.09 178.59 285.12 186.23 C 283.85 187.07 282.56 187.89 281.23 188.63 C 278.44 188.29 275.62 188.91 272.86 189.12 C 268.37 186.77 265.04 182.77 260.69 180.25 C 252.06 178.65 248.01 187.61 245.00 194.00 C 242.47 199.69 238.61 207.49 230.98 206.03 C 225.82 206.18 221.29 202.61 216.10 202.95 C 218.55 214.59 211.88 227.05 200.27 230.29 C 197.09 230.21 193.94 230.13 190.77 230.18 C 185.91 228.71 181.56 226.02 176.90 224.08 C 173.21 223.07 171.43 227.50 170.01 230.00 C 165.78 238.16 164.19 248.71 155.85 253.88 C 154.51 255.02 152.69 254.91 151.05 255.11 C 150.65 253.23 151.66 251.60 152.44 249.98 C 153.12 247.74 153.32 245.47 153.02 243.16 C 152.94 239.67 153.41 236.11 152.30 232.74 C 152.06 228.15 152.03 223.58 151.99 219.00 C 152.00 215.32 152.03 211.67 152.00 208.00 C 152.00 197.99 152.03 188.00 152.00 178.00 C 152.04 172.66 151.92 167.33 152.06 162.00 C 152.11 161.56 152.21 160.69 152.25 160.25 C 152.81 156.48 153.04 152.68 152.97 148.87 C 152.96 147.19 152.95 143.81 152.95 142.13 C 152.98 139.41 152.99 136.70 152.98 133.99 C 155.42 95.60 155.91 54.98 174.02 20.01 M 191.30 40.27 C 187.34 41.37 186.67 45.89 185.27 49.15 C 180.05 64.99 179.71 81.85 178.46 98.33 C 177.46 125.15 175.03 152.26 178.92 178.99 C 180.14 186.38 180.70 194.93 184.89 201.07 C 185.52 193.09 187.56 185.21 190.87 177.92 C 192.64 173.40 194.35 168.33 199.03 166.02 C 200.63 164.72 203.49 164.32 204.81 166.21 C 209.23 170.15 209.57 177.49 213.90 181.05 C 214.13 174.22 214.41 165.86 220.23 161.19 C 227.87 159.01 232.21 167.05 236.16 171.90 C 236.59 171.93 237.45 171.99 237.88 172.02 C 238.47 164.90 242.89 154.61 251.99 157.01 C 264.04 159.46 277.06 157.57 287.00 150.00 C 287.33 148.66 292.21 147.60 290.70 145.29 C 285.21 135.94 278.31 127.55 272.63 118.34 C 252.60 91.16 232.39 63.07 204.33 43.62 C 200.25 41.67 196.16 38.52 191.30 40.27 Z" />
<path fill="#494038" opacity="1.00" d=" M 646.05 9.07 C 651.08 6.33 656.31 3.41 662.16 2.95 C 663.83 2.95 667.18 2.95 668.86 2.95 C 678.45 3.87 685.50 11.64 691.69 18.30 C 703.04 34.59 707.65 54.44 708.98 73.99 C 709.26 78.38 708.42 82.97 709.66 87.27 C 709.74 88.95 709.92 92.31 710.00 93.98 C 710.01 103.66 709.97 113.33 710.01 123.01 C 709.89 125.92 709.97 128.86 709.78 131.78 C 709.05 136.15 708.96 140.58 708.99 145.01 C 707.81 169.95 703.65 194.72 698.15 219.07 C 695.57 231.34 691.40 243.30 689.70 255.74 C 689.23 258.85 688.99 262.02 688.83 265.17 C 677.93 264.11 668.73 255.45 665.98 245.01 C 665.11 241.44 665.63 237.52 663.72 234.28 C 658.01 231.34 651.12 231.15 646.01 226.98 C 641.40 223.59 637.13 219.40 634.98 213.99 C 632.72 209.71 632.85 204.17 629.19 200.70 C 627.43 198.53 623.62 198.92 621.87 200.78 C 619.25 201.35 616.76 202.35 614.21 203.17 C 610.68 203.12 607.25 203.04 603.76 203.24 C 595.91 201.86 589.00 196.45 586.00 189.01 C 580.13 178.20 579.42 165.17 571.77 155.21 C 558.33 141.79 536.94 150.36 522.18 139.83 C 518.38 136.51 516.08 131.97 512.88 128.16 C 517.05 130.09 518.83 124.74 521.76 122.76 C 531.19 115.29 538.96 105.96 547.82 97.83 C 557.27 90.71 564.22 80.76 573.72 73.69 C 582.88 65.20 590.91 55.48 600.75 47.74 C 614.76 33.65 628.92 19.41 646.05 9.07 M 663.34 38.38 C 646.50 44.18 633.14 56.52 619.82 67.83 C 599.65 87.09 582.04 108.77 564.36 130.31 C 563.35 132.40 560.16 134.06 561.18 136.76 C 569.43 145.05 581.25 149.79 592.90 149.79 C 597.47 148.09 602.52 149.26 606.83 151.21 C 609.65 155.59 611.85 160.72 611.13 166.08 C 617.04 163.82 620.39 154.98 627.73 155.30 C 635.65 158.54 635.01 169.27 635.12 176.15 C 641.33 172.78 641.27 158.74 650.80 162.12 C 659.78 168.49 655.49 180.06 655.02 189.01 C 653.23 193.59 657.70 200.33 662.81 198.89 C 674.99 161.59 679.78 122.11 680.03 82.99 C 678.89 69.63 679.35 55.58 674.04 42.98 C 671.98 39.44 667.63 36.49 663.34 38.38 Z" />
<path fill="#494038" opacity="1.00" d=" M 1.99 444.99 C 3.15 398.13 41.13 352.46 88.99 348.99 C 93.99 349.00 99.00 349.00 104.00 348.97 C 108.00 347.74 108.55 351.23 109.32 354.24 C 101.65 369.54 94.37 385.06 85.97 399.99 C 82.70 406.76 77.52 414.09 81.06 421.94 C 87.34 432.84 102.81 434.13 108.21 445.84 C 108.25 447.67 108.33 451.34 108.37 453.17 C 103.45 466.24 94.15 477.73 91.74 491.76 C 91.11 495.50 90.49 499.54 91.65 503.29 C 92.51 507.48 94.67 511.27 97.70 514.29 C 105.20 522.45 116.72 523.83 126.96 525.98 C 124.12 529.76 122.86 534.31 121.72 538.86 C 120.26 540.93 119.53 544.46 121.84 546.13 C 122.95 551.59 124.57 557.32 128.69 561.30 C 137.48 571.40 151.51 573.56 163.93 576.21 C 163.39 587.38 157.83 597.65 151.98 606.95 C 141.48 624.28 125.54 637.20 111.82 651.82 C 105.87 659.32 97.73 665.38 94.71 674.85 C 93.16 676.89 92.64 680.37 94.75 682.18 C 97.35 688.92 104.08 692.78 110.88 694.22 C 112.95 695.58 116.56 696.55 118.09 694.06 C 121.40 693.68 124.70 693.15 128.03 692.96 C 119.36 704.29 112.71 716.96 104.68 728.71 C 94.54 738.42 85.63 749.39 78.26 761.36 C 71.02 752.75 64.22 742.45 62.97 731.01 C 62.99 727.61 63.00 724.34 62.99 720.98 C 62.92 716.79 66.14 713.34 66.80 709.36 C 55.77 701.85 45.49 692.78 39.16 680.81 C 32.62 668.89 30.39 653.38 36.96 640.98 C 37.40 638.49 40.81 636.96 39.84 634.23 C 27.20 622.80 18.10 607.33 14.46 590.66 C 12.64 583.10 14.03 573.36 21.75 569.62 C 21.78 569.26 21.83 568.55 21.86 568.19 C 13.15 561.82 5.31 553.53 1.84 543.10 C -1.33 533.69 3.94 520.51 13.97 518.03 C 16.40 517.64 22.81 519.59 20.35 516.10 C 9.62 498.56 3.30 478.53 2.00 458.01 C 1.99 453.65 2.01 449.33 1.99 444.99 Z" />
</g>
<g id="#19161359">
<path fill="#191613" opacity="0.35" d=" M 662.16 2.95 C 662.94 1.14 668.04 1.15 668.86 2.95 C 667.18 2.95 663.83 2.95 662.16 2.95 Z" />
<path fill="#191613" opacity="0.35" d=" M 151.04 162.00 L 152.06 162.00 C 151.92 167.33 152.04 172.66 152.00 178.00 L 151.04 178.00 C 150.92 172.67 150.92 167.34 151.04 162.00 Z" />
</g>
<g id="#26211fff">
<path fill="#26211f" opacity="1.00" d=" M 663.34 38.38 C 667.63 36.49 671.98 39.44 674.04 42.98 C 679.35 55.58 678.89 69.63 680.03 82.99 C 679.78 122.11 674.99 161.59 662.81 198.89 C 657.70 200.33 653.23 193.59 655.02 189.01 C 655.49 180.06 659.78 168.49 650.80 162.12 C 641.27 158.74 641.33 172.78 635.12 176.15 C 635.01 169.27 635.65 158.54 627.73 155.30 C 620.39 154.98 617.04 163.82 611.13 166.08 C 611.85 160.72 609.65 155.59 606.83 151.21 C 602.52 149.26 597.47 148.09 592.90 149.79 C 581.25 149.79 569.43 145.05 561.18 136.76 C 560.16 134.06 563.35 132.40 564.36 130.31 C 582.04 108.77 599.65 87.09 619.82 67.83 C 633.14 56.52 646.50 44.18 663.34 38.38 Z" />
<path fill="#26211f" opacity="1.00" d=" M 191.30 40.27 C 196.16 38.52 200.25 41.67 204.33 43.62 C 232.39 63.07 252.60 91.16 272.63 118.34 C 278.31 127.55 285.21 135.94 290.70 145.29 C 292.21 147.60 287.33 148.66 287.00 150.00 C 277.06 157.57 264.04 159.46 251.99 157.01 C 242.89 154.61 238.47 164.90 237.88 172.02 C 237.45 171.99 236.59 171.93 236.16 171.90 C 232.21 167.05 227.87 159.01 220.23 161.19 C 214.41 165.86 214.13 174.22 213.90 181.05 C 209.57 177.49 209.23 170.15 204.81 166.21 C 203.49 164.32 200.63 164.72 199.03 166.02 C 194.35 168.33 192.64 173.40 190.87 177.92 C 187.56 185.21 185.52 193.09 184.89 201.07 C 180.70 194.93 180.14 186.38 178.92 178.99 C 175.03 152.26 177.46 125.15 178.46 98.33 C 179.71 81.85 180.05 64.99 185.27 49.15 C 186.67 45.89 187.34 41.37 191.30 40.27 Z" />
</g>
<g id="#2c26229c">
<path fill="#2c2622" opacity="0.61" d=" M 708.98 73.99 L 709.99 74.01 C 710.16 78.08 710.10 82.14 709.81 86.20 L 709.66 87.27 C 708.42 82.97 709.26 78.38 708.98 73.99 Z" />
</g>
<g id="#0f0d0c36">
<path fill="#0f0d0c" opacity="0.21" d=" M 709.81 86.20 L 710.91 85.93 C 711.07 88.62 711.07 91.32 710.96 94.01 L 710.00 93.98 C 709.92 92.31 709.74 88.95 709.66 87.27 L 709.81 86.20 Z" />
</g>
<g id="#211c1972">
<path fill="#211c19" opacity="0.45" d=" M 710.00 93.98 L 710.96 94.01 C 711.00 103.67 711.10 113.33 710.96 122.99 L 710.01 123.01 C 709.97 113.33 710.01 103.66 710.00 93.98 Z" />
</g>
<g id="#685e568a">
<path fill="#685e56" opacity="0.54" d=" M 405.00 120.01 C 405.78 117.06 412.40 119.65 415.26 119.29 C 411.84 119.76 408.44 120.13 405.00 120.01 Z" />
</g>
<g id="#c1ad9ffe">
<path fill="#c1ad9f" opacity="1.00" d=" M 415.26 119.29 C 448.03 117.52 480.87 121.22 512.88 128.16 C 516.08 131.97 518.38 136.51 522.18 139.83 C 536.94 150.36 558.33 141.79 571.77 155.21 C 579.42 165.17 580.13 178.20 586.00 189.01 C 589.00 196.45 595.91 201.86 603.76 203.24 C 607.24 204.22 610.73 204.20 614.21 203.17 C 616.76 202.35 619.25 201.35 621.87 200.78 C 623.70 200.76 627.36 200.72 629.19 200.70 C 632.85 204.17 632.72 209.71 634.98 213.99 C 637.13 219.40 641.40 223.59 646.01 226.98 C 651.12 231.15 658.01 231.34 663.72 234.28 C 665.63 237.52 665.11 241.44 665.98 245.01 C 668.73 255.45 677.93 264.11 688.83 265.17 C 689.08 266.21 689.36 267.25 689.66 268.28 C 692.76 287.52 700.87 305.43 707.39 323.68 C 715.77 346.12 725.66 367.95 735.06 389.97 C 742.11 406.44 746.64 424.03 747.02 442.00 C 746.95 447.67 746.99 453.34 747.00 459.02 C 746.79 466.18 745.22 473.43 741.74 479.75 C 740.42 481.74 738.12 482.32 735.94 482.85 C 734.34 482.94 732.75 482.98 731.17 483.16 C 730.96 484.35 730.80 485.56 730.69 486.77 C 729.95 491.80 729.92 496.92 730.01 502.00 C 729.16 515.75 723.79 531.03 710.98 537.96 C 706.32 539.91 701.09 542.09 699.38 547.31 C 697.08 564.44 691.03 582.02 677.80 593.79 C 670.68 600.80 661.08 604.36 651.73 607.14 C 650.84 609.12 650.59 611.39 650.96 613.94 C 650.57 616.35 650.74 618.70 651.46 621.00 C 653.55 631.12 653.51 641.58 654.96 651.81 C 652.67 652.38 650.36 652.89 648.03 653.23 C 647.60 658.75 649.72 663.95 650.67 669.30 C 656.12 694.52 664.08 719.19 674.07 742.97 C 677.59 751.90 682.44 760.27 685.63 769.33 C 686.25 774.11 686.93 780.16 682.25 783.25 C 676.79 789.09 667.96 786.29 660.95 787.05 C 661.18 790.78 663.22 794.20 663.03 797.99 C 662.97 801.62 663.05 805.35 662.97 809.00 C 467.37 808.91 271.76 809.16 76.17 808.88 C 76.06 808.39 75.85 807.40 75.75 806.91 C 78.19 802.26 81.45 797.96 85.18 794.21 C 88.72 790.05 92.41 786.03 96.09 781.99 C 92.36 782.86 88.83 784.44 85.07 785.19 C 81.12 784.44 76.11 783.64 74.98 779.04 C 71.65 773.02 75.81 766.73 78.26 761.36 C 85.63 749.39 94.54 738.42 104.68 728.71 C 112.71 716.96 119.36 704.29 128.03 692.96 C 124.70 693.15 121.40 693.68 118.09 694.06 C 116.29 694.10 112.68 694.18 110.88 694.22 C 104.08 692.78 97.35 688.92 94.75 682.18 C 94.74 680.34 94.72 676.68 94.71 674.85 C 97.73 665.38 105.87 659.32 111.82 651.82 C 125.54 637.20 141.48 624.28 151.98 606.95 C 157.83 597.65 163.39 587.38 163.93 576.21 C 151.51 573.56 137.48 571.40 128.69 561.30 C 124.57 557.32 122.95 551.59 121.84 546.13 C 121.81 544.31 121.75 540.68 121.72 538.86 C 122.86 534.31 124.12 529.76 126.96 525.98 C 116.72 523.83 105.20 522.45 97.70 514.29 C 94.67 511.27 92.51 507.48 91.65 503.29 C 91.86 499.42 92.09 495.60 91.74 491.76 C 94.15 477.73 103.45 466.24 108.37 453.17 C 109.70 450.84 110.42 447.66 108.21 445.84 C 102.81 434.13 87.34 432.84 81.06 421.94 C 77.52 414.09 82.70 406.76 85.97 399.99 C 94.37 385.06 101.65 369.54 109.32 354.24 C 124.71 322.00 138.61 288.97 150.24 255.21 L 151.05 255.11 C 152.69 254.91 154.51 255.02 155.85 253.88 C 164.19 248.71 165.78 238.16 170.01 230.00 C 171.43 227.50 173.21 223.07 176.90 224.08 C 181.56 226.02 185.91 228.71 190.77 230.18 C 193.79 230.82 197.31 231.72 200.27 230.29 C 211.88 227.05 218.55 214.59 216.10 202.95 C 221.29 202.61 225.82 206.18 230.98 206.03 C 238.61 207.49 242.47 199.69 245.00 194.00 C 248.01 187.61 252.06 178.65 260.69 180.25 C 265.04 182.77 268.37 186.77 272.86 189.12 C 274.29 189.88 275.87 190.34 277.36 190.99 C 253.11 206.76 229.28 224.51 212.18 248.19 C 174.91 294.91 152.91 353.21 148.75 412.78 C 147.80 418.21 147.67 423.80 148.64 429.26 C 152.13 481.50 169.98 532.50 198.98 576.01 C 213.33 596.23 228.76 616.30 249.05 630.96 C 283.46 658.41 324.06 678.16 366.99 688.02 C 382.34 691.79 398.09 693.54 413.78 695.24 C 419.84 695.85 426.26 696.96 432.27 695.34 C 484.15 691.58 534.78 673.87 578.01 645.02 C 598.44 630.54 618.68 614.92 633.39 594.37 C 670.90 547.53 693.08 489.03 697.25 429.22 C 698.18 423.77 698.32 418.18 697.36 412.74 C 693.87 360.50 676.02 309.50 647.02 265.99 C 632.54 245.56 616.92 225.32 596.37 210.61 C 549.53 173.09 491.02 150.95 431.22 146.73 C 425.77 145.86 420.16 145.59 414.73 146.67 C 369.22 149.62 324.70 163.72 285.12 186.23 C 292.09 178.59 294.25 166.94 303.08 161.11 C 316.42 162.54 328.71 156.40 339.75 149.73 C 343.19 147.52 345.81 144.37 348.03 141.00 C 345.12 135.78 340.21 132.18 336.06 128.06 C 358.84 124.13 381.89 120.93 405.00 120.01 C 408.44 120.13 411.84 119.76 415.26 119.29 M 718.20 412.16 C 717.93 412.42 717.38 412.94 717.11 413.20 C 718.75 419.53 719.96 426.15 723.15 431.96 C 724.42 432.25 726.09 431.42 725.98 429.97 C 725.93 423.74 723.32 417.97 721.90 412.02 C 720.65 411.91 719.42 411.95 718.20 412.16 M 713.36 436.69 C 713.70 439.16 710.69 445.80 714.03 446.01 C 713.28 447.70 717.18 447.35 717.14 446.08 C 718.68 441.96 718.80 436.61 715.83 433.07 C 713.64 432.43 712.33 434.90 713.36 436.69 M 131.07 470.98 C 127.73 477.92 124.10 485.11 124.01 493.02 C 128.67 494.04 128.79 488.10 130.13 485.08 C 131.33 481.19 133.29 477.62 134.95 473.94 C 135.65 471.52 132.99 470.54 131.07 470.98 M 135.16 493.07 C 132.72 496.12 132.37 500.22 131.98 503.98 C 130.31 505.84 131.97 510.78 134.83 509.93 C 137.09 506.75 136.50 502.24 137.58 498.67 C 139.68 496.51 137.89 492.36 135.16 493.07 M 123.18 746.10 C 120.83 749.19 118.93 752.61 116.97 755.98 C 115.51 758.05 115.06 762.49 118.80 760.86 C 121.61 756.63 124.68 752.51 126.99 748.00 C 126.94 746.05 124.70 745.69 123.18 746.10 M 133.22 752.19 C 128.06 757.25 123.97 763.41 121.04 770.01 C 121.01 771.91 123.31 772.34 124.79 771.85 C 127.45 769.54 128.28 765.94 130.08 763.05 C 131.77 759.27 136.39 756.52 136.03 751.98 C 135.33 752.03 133.92 752.14 133.22 752.19 M 141.19 762.10 C 138.70 765.42 138.14 769.99 137.02 773.98 C 133.29 780.17 138.19 779.02 140.81 778.88 C 142.63 774.38 143.90 769.69 144.99 765.00 C 145.61 762.67 143.14 761.39 141.19 762.10 Z" />
</g>
<g id="#0f0d0b36">
<path fill="#0f0d0b" opacity="0.21" d=" M 710.01 123.01 L 710.96 122.99 C 711.01 126.33 711.13 129.71 710.92 133.05 L 709.85 132.83 L 709.78 131.78 C 709.97 128.86 709.89 125.92 710.01 123.01 Z" />
</g>
<g id="#29241f90">
<path fill="#29241f" opacity="0.56" d=" M 708.99 145.01 C 708.96 140.58 709.05 136.15 709.78 131.78 L 709.85 132.83 C 708.62 135.77 712.37 143.91 708.99 145.01 Z" />
</g>
<g id="#14120f48">
<path fill="#14120f" opacity="0.28" d=" M 152.35 142.10 C 152.31 139.72 150.80 134.90 152.98 133.99 C 152.99 136.70 152.98 139.41 152.95 142.13 L 152.35 142.10 Z" />
</g>
<g id="#2b262198">
<path fill="#2b2621" opacity="0.60" d=" M 152.35 142.10 L 152.95 142.13 C 152.95 143.81 152.96 147.19 152.97 148.87 L 152.36 148.90 C 151.56 146.83 151.57 144.18 152.35 142.10 Z" />
</g>
<g id="#59504a76">
<path fill="#59504a" opacity="0.46" d=" M 414.73 146.67 C 420.16 145.59 425.77 145.86 431.22 146.73 C 425.71 146.84 420.21 147.31 414.73 146.67 Z" />
<path fill="#59504a" opacity="0.46" d=" M 148.64 429.26 C 147.67 423.80 147.80 418.21 148.75 412.78 C 149.21 418.26 148.89 423.76 148.64 429.26 Z" />
<path fill="#59504a" opacity="0.46" d=" M 697.36 412.74 C 698.32 418.18 698.18 423.77 697.25 429.22 C 696.80 423.74 697.08 418.21 697.36 412.74 Z" />
</g>
<g id="#39322bc8">
<path fill="#39322b" opacity="0.78" d=" M 152.36 148.90 L 152.97 148.87 C 153.04 152.68 152.81 156.48 152.25 160.25 C 152.20 156.48 151.55 152.63 152.36 148.90 Z" />
</g>
<g id="#27221e8a">
<path fill="#27221e" opacity="0.54" d=" M 151.04 178.00 L 152.00 178.00 C 152.03 188.00 152.00 197.99 152.00 208.00 L 151.05 208.01 C 151.00 198.00 150.88 188.00 151.04 178.00 Z" />
</g>
<g id="#a7968af2">
<path fill="#a7968a" opacity="0.95" d=" M 272.86 189.12 C 275.62 188.91 278.44 188.29 281.23 188.63 C 279.94 189.42 278.65 190.21 277.36 190.99 C 275.87 190.34 274.29 189.88 272.86 189.12 Z" />
</g>
<g id="#908277fd">
<path fill="#908277" opacity="1.00" d=" M 621.87 200.78 C 623.62 198.92 627.43 198.53 629.19 200.70 C 627.36 200.72 623.70 200.76 621.87 200.78 Z" />
</g>
<g id="#83756afc">
<path fill="#83756a" opacity="1.00" d=" M 603.76 203.24 C 607.25 203.04 610.68 203.12 614.21 203.17 C 610.73 204.20 607.24 204.22 603.76 203.24 Z" />
</g>
<g id="#1e1b176c">
<path fill="#1e1b17" opacity="0.42" d=" M 151.05 208.01 L 152.00 208.00 C 152.03 211.67 152.00 215.32 151.99 219.00 L 151.03 219.01 C 150.95 215.33 150.90 211.67 151.05 208.01 Z" />
</g>
<g id="#100e0c39">
<path fill="#100e0c" opacity="0.22" d=" M 151.03 219.01 L 151.99 219.00 C 152.03 223.58 152.06 228.15 152.30 232.74 C 152.23 233.55 152.09 235.18 152.01 235.99 L 151.01 236.01 C 150.99 230.34 150.85 224.67 151.03 219.01 Z" />
</g>
<g id="#9a8a7efc">
<path fill="#9a8a7e" opacity="1.00" d=" M 190.77 230.18 C 193.94 230.13 197.09 230.21 200.27 230.29 C 197.31 231.72 193.79 230.82 190.77 230.18 Z" />
</g>
<g id="#37302ac1">
<path fill="#37302a" opacity="0.76" d=" M 152.30 232.74 C 153.41 236.11 152.94 239.67 153.02 243.16 L 152.36 243.09 C 152.27 241.32 152.10 237.76 152.01 235.99 C 152.09 235.18 152.23 233.55 152.30 232.74 Z" />
</g>
<g id="#28231f8e">
<path fill="#28231f" opacity="0.56" d=" M 152.36 243.09 L 153.02 243.16 C 153.32 245.47 153.12 247.74 152.44 249.98 C 151.57 247.91 151.31 245.13 152.36 243.09 Z" />
</g>
<g id="#27221e63">
<path fill="#27221e" opacity="0.39" d=" M 688.83 265.17 C 688.99 262.02 689.23 258.85 689.70 255.74 C 690.06 259.92 690.04 264.10 689.66 268.28 C 689.36 267.25 689.08 266.21 688.83 265.17 Z" />
</g>
<g id="#1f1b186d">
<path fill="#1f1b18" opacity="0.43" d=" M 89.01 348.02 C 92.76 348.02 100.25 348.01 104.00 348.01 L 104.00 348.97 C 99.00 349.00 93.99 349.00 88.99 348.99 L 89.01 348.02 Z" />
</g>
<g id="#7b6b5eff">
<path fill="#7b6b5e" opacity="1.00" d=" M 718.20 412.16 C 719.42 411.95 720.65 411.91 721.90 412.02 C 723.32 417.97 725.93 423.74 725.98 429.97 C 726.09 431.42 724.42 432.25 723.15 431.96 C 719.96 426.15 718.75 419.53 717.11 413.20 C 717.38 412.94 717.93 412.42 718.20 412.16 Z" />
<path fill="#7b6b5e" opacity="1.00" d=" M 713.36 436.69 C 712.33 434.90 713.64 432.43 715.83 433.07 C 718.80 436.61 718.68 441.96 717.14 446.08 C 717.18 447.35 713.28 447.70 714.03 446.01 C 713.91 442.86 714.32 439.71 713.36 436.69 Z" />
<path fill="#7b6b5e" opacity="1.00" d=" M 131.07 470.98 C 132.99 470.54 135.65 471.52 134.95 473.94 C 133.29 477.62 131.33 481.19 130.13 485.08 C 128.79 488.10 128.67 494.04 124.01 493.02 C 124.10 485.11 127.73 477.92 131.07 470.98 Z" />
<path fill="#7b6b5e" opacity="1.00" d=" M 133.22 752.19 C 133.92 752.14 135.33 752.03 136.03 751.98 C 136.39 756.52 131.77 759.27 130.08 763.05 C 128.28 765.94 127.45 769.54 124.79 771.85 C 123.31 772.34 121.01 771.91 121.04 770.01 C 123.97 763.41 128.06 757.25 133.22 752.19 Z" />
</g>
<g id="#a39184ff">
<path fill="#a39184" opacity="1.00" d=" M 713.36 436.69 C 714.32 439.71 713.91 442.86 714.03 446.01 C 710.69 445.80 713.70 439.16 713.36 436.69 Z" />
</g>
<g id="#5149436b">
<path fill="#514943" opacity="0.42" d=" M 747.02 442.00 L 747.99 442.00 C 747.99 447.65 748.14 453.31 747.96 458.98 L 747.00 459.02 C 746.99 453.34 746.95 447.67 747.02 442.00 Z" />
</g>
<g id="#0d0c0a30">
<path fill="#0d0c0a" opacity="0.19" d=" M 1.04 445.03 L 1.99 444.99 C 2.01 449.33 1.99 453.65 2.00 458.01 L 1.02 457.99 C 1.00 453.65 0.83 449.34 1.04 445.03 Z" />
</g>
<g id="#7b6e63ff">
<path fill="#7b6e63" opacity="1.00" d=" M 108.21 445.84 C 110.42 447.66 109.70 450.84 108.37 453.17 C 108.33 451.34 108.25 447.67 108.21 445.84 Z" />
</g>
<g id="#23201d2f">
<path fill="#23201d" opacity="0.18" d=" M 731.17 483.16 C 732.75 482.98 734.34 482.94 735.94 482.85 C 736.48 484.93 733.18 483.54 732.06 484.14 C 731.79 486.60 731.26 491.53 730.99 494.00 C 730.92 492.19 730.77 488.58 730.69 486.77 C 730.80 485.56 730.96 484.35 731.17 483.16 Z" />
</g>
<g id="#897c72b6">
<path fill="#897c72" opacity="0.71" d=" M 730.01 502.00 C 729.92 496.92 729.95 491.80 730.69 486.77 C 730.77 488.58 730.92 492.19 730.99 494.00 C 730.40 496.31 732.43 501.33 730.01 502.00 Z" />
</g>
<g id="#98887dff">
<path fill="#98887d" opacity="1.00" d=" M 91.65 503.29 C 90.49 499.54 91.11 495.50 91.74 491.76 C 92.09 495.60 91.86 499.42 91.65 503.29 Z" />
</g>
<g id="#7d6d60ff">
<path fill="#7d6d60" opacity="1.00" d=" M 135.16 493.07 C 137.89 492.36 139.68 496.51 137.58 498.67 C 136.50 502.24 137.09 506.75 134.83 509.93 C 131.97 510.78 130.31 505.84 131.98 503.98 C 132.37 500.22 132.72 496.12 135.16 493.07 Z" />
</g>
<g id="#25201c82">
<path fill="#25201c" opacity="0.51" d=" M 20.35 516.10 C 22.81 519.59 16.40 517.64 13.97 518.03 C 14.44 515.71 18.70 517.99 20.35 516.10 Z" />
</g>
<g id="#685d53ff">
<path fill="#685d53" opacity="1.00" d=" M 121.84 546.13 C 119.53 544.46 120.26 540.93 121.72 538.86 C 121.75 540.68 121.81 544.31 121.84 546.13 Z" />
</g>
<g id="#5a524b78">
<path fill="#5a524b" opacity="0.47" d=" M 650.96 613.94 C 650.59 611.39 650.84 609.12 651.73 607.14 C 652.44 609.23 652.55 611.96 651.46 613.96 L 650.96 613.94 Z" />
</g>
<g id="#918378c1">
<path fill="#918378" opacity="0.76" d=" M 650.96 613.94 L 651.46 613.96 C 652.70 616.00 652.53 618.91 651.46 621.00 C 650.74 618.70 650.57 616.35 650.96 613.94 Z" />
</g>
<g id="#776a60ff">
<path fill="#776a60" opacity="1.00" d=" M 94.75 682.18 C 92.64 680.37 93.16 676.89 94.71 674.85 C 94.72 676.68 94.74 680.34 94.75 682.18 Z" />
</g>
<g id="#60564cff">
<path fill="#60564c" opacity="1.00" d=" M 110.88 694.22 C 112.68 694.18 116.29 694.10 118.09 694.06 C 116.56 696.55 112.95 695.58 110.88 694.22 Z" />
</g>
<g id="#5f554e7d">
<path fill="#5f554e" opacity="0.49" d=" M 413.78 695.24 C 419.93 694.97 426.10 694.97 432.27 695.34 C 426.26 696.96 419.84 695.85 413.78 695.24 Z" />
</g>
<g id="#1613114c">
<path fill="#161311" opacity="0.30" d=" M 62.00 730.99 C 62.24 728.49 62.74 723.49 62.99 720.98 C 63.00 724.34 62.99 727.61 62.97 731.01 L 62.00 730.99 Z" />
</g>
<g id="#7b6a5dff">
<path fill="#7b6a5d" opacity="1.00" d=" M 123.18 746.10 C 124.70 745.69 126.94 746.05 126.99 748.00 C 124.68 752.51 121.61 756.63 118.80 760.86 C 115.06 762.49 115.51 758.05 116.97 755.98 C 118.93 752.61 120.83 749.19 123.18 746.10 Z" />
</g>
<g id="#7c6c5fff">
<path fill="#7c6c5f" opacity="1.00" d=" M 141.19 762.10 C 143.14 761.39 145.61 762.67 144.99 765.00 C 143.90 769.69 142.63 774.38 140.81 778.88 C 138.19 779.02 133.29 780.17 137.02 773.98 C 138.14 769.99 138.70 765.42 141.19 762.10 Z" />
</g>
<g id="#51473ffb">
<path fill="#51473f" opacity="1.00" d=" M 85.07 785.19 C 88.83 784.44 92.36 782.86 96.09 781.99 C 92.41 786.03 88.72 790.05 85.18 794.21 C 85.02 791.14 84.86 788.20 85.07 785.19 Z" />
</g>
<g id="#80736aae">
<path fill="#80736a" opacity="0.68" d=" M 663.03 797.99 L 664.00 798.01 C 664.00 799.50 664.01 802.50 664.02 804.00 C 663.96 806.70 663.91 809.43 663.86 812.17 L 662.98 812.04 L 662.96 811.02 L 662.96 810.01 L 662.97 809.00 C 663.05 805.35 662.97 801.62 663.03 797.99 Z" />
</g>
<g id="#0101012a">
<path fill="#010101" opacity="0.16" d=" M 664.02 804.00 C 666.02 803.68 664.52 806.85 665.00 808.02 C 665.01 808.51 665.02 809.50 665.03 809.99 L 665.08 810.95 C 720.39 811.07 775.70 810.95 831.01 811.00 C 832.48 810.69 833.42 811.67 834.13 812.83 C 833.66 812.80 832.74 812.75 832.27 812.72 C 825.55 811.72 818.75 812.00 812.00 811.98 C 762.62 812.15 713.23 811.75 663.86 812.17 C 663.91 809.43 663.96 806.70 664.02 804.00 Z" />
</g>
<g id="#bba99cff">
<path fill="#bba99c" opacity="1.00" d=" M 74.16 808.36 C 74.55 808.00 75.35 807.27 75.75 806.91 C 75.85 807.40 76.06 808.39 76.17 808.88 C 271.76 809.16 467.37 808.91 662.97 809.00 L 662.96 810.01 C 466.56 810.13 270.14 809.71 73.75 810.22 C 73.85 809.75 74.05 808.82 74.16 808.36 Z" />
</g>
<g id="#01010017">
<path fill="#010100" opacity="0.09" d=" M 9.66 816.12 C 7.06 813.91 9.00 810.29 12.07 810.08 C 32.34 809.96 52.61 809.82 72.88 810.21 L 72.71 811.26 L 71.92 811.24 C 53.27 810.73 34.62 811.11 15.97 810.97 C 14.04 810.76 12.30 811.61 10.85 812.80 C 10.65 813.12 10.26 813.75 10.07 814.06 L 9.87 815.05 L 9.66 816.12 Z" />
</g>
<g id="#a19186ff">
<path fill="#a19186" opacity="1.00" d=" M 72.88 810.21 L 73.75 810.22 C 82.10 811.50 90.58 810.87 99.00 811.01 C 286.99 811.00 474.97 810.97 662.96 811.02 L 662.98 812.04 C 467.32 811.94 271.65 812.03 75.98 812.00 C 74.85 811.91 73.76 811.66 72.71 811.26 L 72.88 810.21 Z" />
</g>
<g id="#b1a093ff">
<path fill="#b1a093" opacity="1.00" d=" M 73.75 810.22 C 270.14 809.71 466.56 810.13 662.96 810.01 L 662.96 811.02 C 474.97 810.97 286.99 811.00 99.00 811.01 C 90.58 810.87 82.10 811.50 73.75 810.22 Z" />
</g>
<g id="#00000015">
<path fill="#000000" opacity="0.08" d=" M 665.03 809.99 C 718.02 810.00 771.02 810.02 824.01 809.97 C 827.88 810.33 832.24 809.36 835.92 811.19 C 835.84 812.42 836.51 814.13 835.45 815.08 L 834.96 814.17 C 834.75 813.84 834.34 813.17 834.13 812.83 C 833.42 811.67 832.48 810.69 831.01 811.00 C 775.70 810.95 720.39 811.07 665.08 810.95 L 665.03 809.99 Z" />
</g>
<g id="#00000030">
<path fill="#000000" opacity="0.19" d=" M 10.85 812.80 C 12.30 811.61 14.04 810.76 15.97 810.97 C 34.62 811.11 53.27 810.73 71.92 811.24 L 71.51 812.03 C 71.35 812.28 71.04 812.79 70.89 813.05 C 50.88 812.79 30.86 813.32 10.85 812.80 Z" />
</g>
<g id="#97887eff">
<path fill="#97887e" opacity="1.00" d=" M 71.92 811.24 L 72.71 811.26 C 73.76 811.66 74.85 811.91 75.98 812.00 C 271.65 812.03 467.32 811.94 662.98 812.04 L 662.98 813.00 C 467.66 812.93 272.33 813.14 77.01 812.90 C 75.63 812.68 72.88 812.24 71.51 812.03 L 71.92 811.24 Z" />
</g>
<g id="#48413cff">
<path fill="#48413c" opacity="1.00" d=" M 70.89 813.05 C 71.04 812.79 71.35 812.28 71.51 812.03 C 72.88 812.24 75.63 812.68 77.01 812.90 C 272.33 813.14 467.66 812.93 662.98 813.00 L 663.01 813.98 C 465.67 814.00 268.32 814.03 70.97 813.97 L 70.89 813.05 Z" />
</g>
<g id="#0000009e">
<path fill="#000000" opacity="0.62" d=" M 662.98 812.04 L 663.86 812.17 C 670.48 813.49 677.28 812.87 684.00 813.02 C 733.42 812.78 782.86 813.39 832.27 812.72 C 832.74 812.75 833.66 812.80 834.13 812.83 C 834.34 813.17 834.75 813.84 834.96 814.17 C 777.65 813.75 720.33 814.14 663.01 813.98 L 662.98 813.00 L 662.98 812.04 Z" />
<path fill="#000000" opacity="0.62" d=" M 10.07 814.06 C 10.26 813.75 10.65 813.12 10.85 812.80 C 30.86 813.32 50.88 812.79 70.89 813.05 L 70.97 813.97 C 50.67 814.11 30.37 813.85 10.07 814.06 Z" />
</g>
<g id="#00000037">
<path fill="#000000" opacity="0.22" d=" M 663.86 812.17 C 713.23 811.75 762.62 812.15 812.00 811.98 C 818.75 812.00 825.55 811.72 832.27 812.72 C 782.86 813.39 733.42 812.78 684.00 813.02 C 677.28 812.87 670.48 813.49 663.86 812.17 Z" />
</g>
<g id="#000000ff">
<path fill="#000000" opacity="1.00" d=" M 10.07 814.06 C 30.37 813.85 50.67 814.11 70.97 813.97 C 268.32 814.03 465.67 814.00 663.01 813.98 C 720.33 814.14 777.65 813.75 834.96 814.17 L 835.45 815.08 C 560.26 814.93 285.06 814.98 9.87 815.05 L 10.07 814.06 Z" />
</g>
<g id="#0000008f">
<path fill="#000000" opacity="0.56" d=" M 9.87 815.05 C 285.06 814.98 560.26 814.93 835.45 815.08 C 835.14 815.36 834.52 815.92 834.21 816.20 C 559.36 815.81 284.51 815.98 9.66 816.12 L 9.87 815.05 Z" />
</g>
<g id="#0000000e">
<path fill="#000000" opacity="0.05" d=" M 9.66 816.12 C 284.51 815.98 559.36 815.81 834.21 816.20 C 833.11 817.30 831.40 816.90 830.03 817.05 C 556.76 816.82 283.49 817.25 10.23 816.84 L 9.66 816.12 Z" />
</g>
</svg>
