<svg xmlns="http://www.w3.org/2000/svg" xmlns:xlink="http://www.w3.org/1999/xlink" viewBox="0 0 210 210"><defs><style>.cls-1{fill:#65c187;}.cls-2{fill:#fc7d9d;}.cls-3{fill:#ffabb5;}.cls-4{fill:url(#未命名的渐变_121);}.cls-5{fill:url(#未命名的渐变_57);}.cls-6{fill:#fd7c9e;}.cls-7{fill:url(#未命名的渐变_57-2);}.cls-8{fill:url(#未命名的渐变_57-3);}.cls-9{fill:url(#未命名的渐变_111);}.cls-10{fill:url(#未命名的渐变_111-2);}.cls-11{fill:url(#未命名的渐变_86);}.cls-12{fill:url(#未命名的渐变_106);}.cls-13{fill:url(#未命名的渐变_40);}.cls-14{fill:url(#未命名的渐变_40-2);}.cls-15{fill:url(#未命名的渐变_43);}.cls-16{fill:url(#未命名的渐变_43-2);}.cls-17{fill:#b4c2b1;}.cls-18{fill:url(#未命名的渐变_40-3);}.cls-19{fill:url(#未命名的渐变_106-2);}.cls-20{fill:#ef5f83;}.cls-21{fill:url(#未命名的渐变_63);}.cls-22{fill:#fff;}</style><linearGradient id="未命名的渐变_121" x1="15" y1="105" x2="195" y2="105" gradientUnits="userSpaceOnUse"><stop offset="0" stop-color="#ffc0da"/><stop offset="0.05" stop-color="#ffd2e4"/><stop offset="0.13" stop-color="#ffe6f0"/><stop offset="0.22" stop-color="#fff4f9"/><stop offset="0.32" stop-color="#fffcfe"/><stop offset="0.5" stop-color="#fff"/><stop offset="0.66" stop-color="#fffcfd"/><stop offset="0.77" stop-color="#fff3f8"/><stop offset="0.87" stop-color="#ffe4ef"/><stop offset="0.95" stop-color="#ffcfe3"/><stop offset="1" stop-color="#ffc0da"/></linearGradient><linearGradient id="未命名的渐变_57" x1="50.07" y1="50.91" x2="44.93" y2="45.77" gradientUnits="userSpaceOnUse"><stop offset="0.39" stop-color="#ffd2e4"/><stop offset="1" stop-color="#fe7699"/></linearGradient><linearGradient id="未命名的渐变_57-2" x1="51.05" y1="49.35" x2="39.65" y2="37.95" xlink:href="#未命名的渐变_57"/><linearGradient id="未命名的渐变_57-3" x1="55.25" y1="50.41" x2="27.06" y2="22.22" xlink:href="#未命名的渐变_57"/><linearGradient id="未命名的渐变_111" x1="150.67" y1="186.19" x2="150.67" y2="165.17" gradientUnits="userSpaceOnUse"><stop offset="0.16" stop-color="#da6584"/><stop offset="1" stop-color="#ce4367"/></linearGradient><linearGradient id="未命名的渐变_111-2" x1="177.83" y1="184.22" x2="177.83" y2="163.81" xlink:href="#未命名的渐变_111"/><linearGradient id="未命名的渐变_86" x1="163.17" y1="195.44" x2="163.17" y2="164.27" gradientUnits="userSpaceOnUse"><stop offset="0.43" stop-color="#65c187"/><stop offset="0.57" stop-color="#7cc88b"/><stop offset="0.76" stop-color="#9fd292"/><stop offset="1" stop-color="#78d667"/></linearGradient><linearGradient id="未命名的渐变_106" x1="166.88" y1="189.48" x2="166.88" y2="160.52" gradientUnits="userSpaceOnUse"><stop offset="0.16" stop-color="#ffd2e4"/><stop offset="0.85" stop-color="#fe7699"/><stop offset="1" stop-color="#ff3972"/></linearGradient><linearGradient id="未命名的渐变_40" x1="312.11" y1="94.02" x2="323.98" y2="94.02" gradientTransform="matrix(0.97, 0.24, -0.27, 1.05, -88.67, -27.81)" gradientUnits="userSpaceOnUse"><stop offset="0" stop-color="#fdb8cd"/><stop offset="1" stop-color="#fd8baa"/></linearGradient><linearGradient id="未命名的渐变_40-2" x1="313.36" y1="93.39" x2="320.37" y2="93.39" xlink:href="#未命名的渐变_40"/><linearGradient id="未命名的渐变_43" x1="305.31" y1="90.04" x2="311.05" y2="90.04" gradientTransform="matrix(0.97, 0.24, -0.27, 1.05, -88.67, -27.81)" gradientUnits="userSpaceOnUse"><stop offset="0" stop-color="#ffc8d7"/><stop offset="1" stop-color="#ffc2d2"/></linearGradient><linearGradient id="未命名的渐变_43-2" x1="304.59" y1="97.27" x2="304.59" y2="88.41" xlink:href="#未命名的渐变_43"/><linearGradient id="未命名的渐变_40-3" x1="300.12" y1="91.82" x2="317.65" y2="91.82" xlink:href="#未命名的渐变_40"/><linearGradient id="未命名的渐变_106-2" x1="163.41" y1="114.59" x2="205.19" y2="114.59" xlink:href="#未命名的渐变_106"/><linearGradient id="未命名的渐变_63" x1="21.08" y1="171.67" x2="44.53" y2="148.22" gradientUnits="userSpaceOnUse"><stop offset="0.05" stop-color="#fff"/><stop offset="1" stop-color="#ffc0d7"/></linearGradient></defs><g id="图层_5" data-name="图层 5"><path class="cls-1" d="M128.19,203.82c.08.29.45.38,3.05.77,2.22.33,3,.41,3.93.06.39-.14,1.19-.44,1.27-1s-.77-1.21-.95-1.33c-.45-.29-.88-.37-2.86-.38s-2.44.07-2.73.19C129,202.47,128,203.29,128.19,203.82Z"/><path class="cls-1" d="M144.32,189.86c-1.27.59-1.35.78-1.34.89,0,.39,1.27.33,2.8,1.07a12.38,12.38,0,0,1,1.9,1.34c1.66,1.08,3.51.93,6.42.7a14.82,14.82,0,0,0,4.44-1c1.11-.43,2.51-1,2.54-1.77s-1.15-1.34-2-1.78a12.24,12.24,0,0,0-4-1.08,17.22,17.22,0,0,0-4-.32,18.24,18.24,0,0,0-4.38,1A19,19,0,0,0,144.32,189.86Z"/><path class="cls-1" d="M170.41,191a3.58,3.58,0,0,0-1.46,2.6,3.51,3.51,0,0,0,1.27,2.8c1.41,1.15,3.41.71,5.15.44.52-.08,3.54-.1,9.58-.13,3.75,0,7.49-.08,11.24-.12,2.07,0,4.27-.05,5.33-1.53a3,3,0,0,0,.45-2.66c-.52-1.49-2.4-2-4.57-2.54a17.68,17.68,0,0,0-6.8-.64c-2.51.29-4,1.06-5.2.13-.59-.45-.69-.95-1.59-1.46a4.7,4.7,0,0,0-2.48-.57c-1.88.06-2.06,1.15-4.38,1.84-1.62.48-1.94.07-3.81.63A12.32,12.32,0,0,0,170.41,191Z"/><path class="cls-2" d="M55.28,166.91a204.06,204.06,0,0,1-23.36,8.64c-11.41,3.17-16,2-19.31,6.6-2.08,2.85-3.22,7.24-1.52,10.41s5.85,4.16,10.67,4.83c17.1,2.36,27.43.25,27.43.25,24.75-5,29.2-11.45,46.47-14.22a87.44,87.44,0,0,1,31,.76c-4.24.67-10.19,1.67-17.27,3-7.5,1.46-14.3,2.79-22.86,5.08-15.57,4.17-14.08,5.75-21.59,6.86-13.48,2-29.21-1.35-30.22-6.86-.6-3.25,4-6.59,6.86-8.63,11-7.93,20.41-4,25.14-10.93,2.13-3.14,2.69-7.6,1-9.14S62.17,164,55.28,166.91Z"/><path class="cls-3" d="M105,15a90,90,0,1,1-90,90,90,90,0,0,1,90-90m0,160a70,70,0,1,0-70-70,70,70,0,0,0,70,70m0-161a91,91,0,1,0,91,91,91.1,91.1,0,0,0-91-91Zm0,160a69,69,0,1,1,69-69,69.07,69.07,0,0,1-69,69Z"/><path class="cls-4" d="M105,15a90,90,0,1,0,90,90A90,90,0,0,0,105,15Zm0,160a70,70,0,1,1,70-70A70,70,0,0,1,105,175Z"/><path class="cls-5" d="M51.15,46.68l-1.5.49-.37-1.12a2.24,2.24,0,0,0-2.8-1.5h0a2.26,2.26,0,0,0-1.38,2.87h0l.37,1.12L44,49a.63.63,0,0,0-.39.8,2.42,2.42,0,0,0,3,1.6l3.89-1.28A2.4,2.4,0,0,0,52,47.09a.62.62,0,0,0-.78-.42Z"/><ellipse class="cls-6" cx="12.16" cy="48.73" rx="2.02" ry="2.09" transform="translate(-14.54 6.19) rotate(-18.11)"/><ellipse class="cls-6" cx="15.41" cy="33.97" rx="2.02" ry="2.09" transform="translate(-9.79 6.47) rotate(-18.1)"/><ellipse class="cls-6" cx="22.99" cy="21.3" rx="2.02" ry="2.09" transform="translate(-5.48 8.2) rotate(-18.1)"/><ellipse class="cls-6" cx="35.82" cy="12.06" rx="2.02" ry="2.09" transform="translate(-1.97 11.73) rotate(-18.1)"/><path class="cls-7" d="M57.5,39.38a.67.67,0,0,0-1,.06l-3.71,4.45L52,43l3-4.37a.71.71,0,0,0-.16-1l0,0-.52-.34a.67.67,0,0,0-.94.21v0l-2.63,4.64-1.16-.56,1.94-4.82a.71.71,0,0,0-.37-.92h0l-.33-.15a.65.65,0,0,0-.88.36h0L48,41l-.84-.21,1-4.79a.72.72,0,0,0-.52-.85h0l-.39-.07a.67.67,0,0,0-.78.57v0l-.66,4.88-1.37-4.47a.7.7,0,0,0-.85-.48h0a.7.7,0,0,0-.42.89h0l1.53,4.42-3.42-3.55a.66.66,0,0,0-1,0h0L40,37.6a.72.72,0,0,0,0,1l0,0,3.63,3.26-.54.66-4.44-2.81a.66.66,0,0,0-.94.23h0l-.18.31a.72.72,0,0,0,.25,1h0L42.26,44l-.6,1.15-4.88-2.19a.66.66,0,0,0-.89.36h0l-.22.59a.71.71,0,0,0,.38.91l.05,0,5,1.75L41,47.77l-5.62-1.4a.67.67,0,0,0-.8.52l-.38,1.68a.73.73,0,0,0,.52.85l.18,0L43,49.26a.31.31,0,0,0,.27-.35.06.06,0,0,0,0,0,4,4,0,0,1,2.46-5.08l.95-.31a4,4,0,0,1,5,2.65.3.3,0,0,0,.37.19s.05,0,.08,0l6.65-4.65a.72.72,0,0,0,.17-1l-.12-.14Z"/><path class="cls-8" d="M73.84,30.06l-6.21-3.64a3,3,0,0,1-1.21-1.32l-1.91-4a3,3,0,0,0-2.65-1.72l-4.67-.05a2.88,2.88,0,0,1-1.83-.66L52.1,16a2.84,2.84,0,0,0-2.72-.53L45.3,16.81a2.89,2.89,0,0,1-1.65,0L39.8,15.73a4.72,4.72,0,0,0-5,1.65L32.3,20.55A2.79,2.79,0,0,1,31,21.5l-4.08,1.34a2.85,2.85,0,0,0-1.88,2l-1,4.07a2.85,2.85,0,0,1-1.08,1.62l-3.75,2.8a3,3,0,0,0-1.12,3l.82,4.35a3,3,0,0,1-.19,1.78L15.77,49a1,1,0,0,0,.5,1.29,1,1,0,0,0,.41.09l15.81-.36h0a21.21,21.21,0,0,1,4.08-11.33,14.19,14.19,0,0,1,5.85-4.56l.55-.23h0l.59-.13A14.13,14.13,0,0,1,51,34a21.12,21.12,0,0,1,10,6.74h0l13-9a1,1,0,0,0,.24-1.35A.92.92,0,0,0,73.84,30.06ZM22.47,42.12a.47.47,0,1,1,.29-.59A.45.45,0,0,1,22.47,42.12Zm6.32-.5a.77.77,0,0,1-1-.52.76.76,0,1,1,1.45-.47.78.78,0,0,1-.48,1Zm-1.73-7.48a.63.63,0,0,1-.78-.42.61.61,0,0,1,.39-.79.64.64,0,0,1,.4,1.21Zm28-4.42a2.28,2.28,0,0,1-1.55,1.18l-.29.1a4.83,4.83,0,0,1-1.78.18.64.64,0,0,1-.58-.68.6.6,0,0,1,.65-.58,3.55,3.55,0,0,0,1.34-.14c.43-.15,1-.31,1.1-.57s-.34-1.47-1.19-1.88a2,2,0,0,0-1.09-.15,3.9,3.9,0,0,1-.59,0A3.57,3.57,0,0,1,49.79,29a3.1,3.1,0,0,1-2.75.28,2.44,2.44,0,0,1-1.53,1.58l-.29.08a2.56,2.56,0,0,1-2.16-.77.64.64,0,0,1,0-.9.61.61,0,0,1,.87,0,1.3,1.3,0,0,0,1.07.4,1.28,1.28,0,0,0,1-1.2,3.36,3.36,0,0,1-.74-2.1,3.13,3.13,0,0,1,.48-1.61,1.82,1.82,0,0,0,.16-.31s-.24-.51-2.76-.72l-.07,0a3.86,3.86,0,0,1-.93.78,3.64,3.64,0,0,1-.69.33,1.8,1.8,0,0,1-.95.07,1.78,1.78,0,0,1-.8.5,3.3,3.3,0,0,1-.76.15,4.39,4.39,0,0,1-1.2-.08s0,0-.05.05c-1.91,1.66-1.81,2.2-1.8,2.21a1.14,1.14,0,0,0,.31.16,3.16,3.16,0,0,1,1.33,1A3.41,3.41,0,0,1,38.14,31a1.3,1.3,0,0,0,1.5.39,1.34,1.34,0,0,0,.62-.95A.61.61,0,0,1,41,30a.65.65,0,0,1,.52.74h0a2.53,2.53,0,0,1-1.29,1.89l-.28.12a2.49,2.49,0,0,1-2.17-.38,3.11,3.11,0,0,1-2.43,1.4,3.63,3.63,0,0,1-2.14-.7,3.82,3.82,0,0,1-.47.35,2,2,0,0,0-.79.76,2,2,0,0,0,.15,2.23c.24.14.78,0,1.23-.2a3.51,3.51,0,0,0,1.15-.67.61.61,0,0,1,.87.08.65.65,0,0,1-.06.9,5,5,0,0,1-1.54.9l-.3.09a2.24,2.24,0,0,1-1.94,0c-1.14-.69-1.28-2.72-.65-3.94A3.27,3.27,0,0,1,32,32.27l.15-.1a7.35,7.35,0,0,1-1.34-1.79.81.81,0,0,1,0-.93.65.65,0,0,1,.65-.19,3.44,3.44,0,0,1,2,2l0,.05a2.37,2.37,0,0,1,.11.46,2.59,2.59,0,0,0,1.61.63,1.82,1.82,0,0,0,1.59-1.17,1.92,1.92,0,0,0-.34-1.62,1.79,1.79,0,0,0-.84-.6,1.62,1.62,0,0,1-1-.86c-.35-.86.19-1.88,1.73-3.3a1.77,1.77,0,0,1-.63-1A2.47,2.47,0,0,1,37,21.43a.62.62,0,0,1,.86.19.65.65,0,0,1-.17.88A1.29,1.29,0,0,0,37,23.63c.11.48,1.12.7,1.75.65a1.51,1.51,0,0,0,.77-.23l0-.13a.61.61,0,0,1,.39-.77l.05,0a.63.63,0,0,1,.77.4l0,.12a1.37,1.37,0,0,0,.75-.27c.54-.32,1.23-1.11,1-1.55a1.26,1.26,0,0,0-1.22-.5.64.64,0,0,1-.63-.63.6.6,0,0,1,.54-.64,2.43,2.43,0,0,1,2.41,1.26,1.75,1.75,0,0,1,.09,1.19c2.08.23,3.12.75,3.35,1.64a1.59,1.59,0,0,1-.28,1.27,1.84,1.84,0,0,0-.32,1,1.91,1.91,0,0,0,.69,1.51,1.82,1.82,0,0,0,2,0A2.6,2.6,0,0,0,50,26.45a1.63,1.63,0,0,1-.18-.43l0-.06a3.46,3.46,0,0,1,.39-2.81.67.67,0,0,1,.65-.23.82.82,0,0,1,.56.74,7.32,7.32,0,0,1,0,2.24h.19a3.15,3.15,0,0,1,1.68.28c1.26.6,2.35,2.33,1.84,3.56ZM55.92,24a.63.63,0,0,1,.39-.79.64.64,0,0,1,.4,1.21.63.63,0,0,1-.79-.41h0Zm3.81,7.48a.8.8,0,1,1,.48-1,.78.78,0,0,1-.48,1h0Zm5.39-3.33a.46.46,0,0,1-.58-.31.48.48,0,0,1,.29-.6.48.48,0,0,1,.29.91Z"/><ellipse class="cls-6" cx="76.57" cy="27.67" rx="2.02" ry="2.09" transform="translate(-4.81 25.16) rotate(-18.1)"/><ellipse class="cls-6" cx="65.23" cy="17.68" rx="2.02" ry="2.09" transform="translate(-2.26 21.15) rotate(-18.1)"/><ellipse class="cls-6" cx="51.62" cy="11.94" rx="2.02" ry="2.09" transform="translate(-1.16 16.63) rotate(-18.1)"/><path class="cls-9" d="M157.81,184.22a26.56,26.56,0,0,0-1.43-7.43c-1.07-3-2.5-5.25-3-9.33-.13-1-.17-1.76-.19-2.29A6.13,6.13,0,0,0,149,172.5a8.68,8.68,0,0,0-2.19-2.38,8.32,8.32,0,0,0-2.38-1.23c-.17,1.14-.4,2.78-.57,4.76-.3,3.37-.44,5.08,0,6.47a8.81,8.81,0,0,0,4.48,5.24A9.35,9.35,0,0,0,157.81,184.22Z"/><path class="cls-10" d="M167.43,184.22a19.57,19.57,0,0,1-.38-8.48,20.23,20.23,0,0,1,6.38-11.33,12.67,12.67,0,0,1,3,4.29,12.47,12.47,0,0,1,1,6.09,6.44,6.44,0,0,0,3.14-1.14,7.55,7.55,0,0,0,2.76-5,10.35,10.35,0,0,0-.19-4.86,5.21,5.21,0,0,1,3.81,1c.73.62,1.33,1.6,1.62,4.47.43,4.17.72,7-.95,9.34-.59.82-1.76,2-8.19,3.61A74.34,74.34,0,0,1,167.43,184.22Z"/><path class="cls-11" d="M163.56,195.44l1.65-.38c-.06-2.68-.08-5-.07-6.85a35.49,35.49,0,0,1,.26-5,29.88,29.88,0,0,1,.63-3.36,11.63,11.63,0,0,0,4.32-4.83,11.49,11.49,0,0,0,1-6.79,9.8,9.8,0,0,0-5.33-3.68,10.07,10.07,0,0,0-6.92.76,11.07,11.07,0,0,0-4.13,3.36,11.28,11.28,0,0,0,1.46,6.61,11.52,11.52,0,0,0,6.54,5.08,19.46,19.46,0,0,1,.38,2.92,19.74,19.74,0,0,1-.13,3.74A32.27,32.27,0,0,0,163.56,195.44Z"/><path class="cls-12" d="M157,187.82a17,17,0,0,1-8.58.7c-2.07-.38-6.14-1.12-8.69-4.76a10.6,10.6,0,0,1-1-10.67,9.51,9.51,0,0,1,3.24-3.55,9,9,0,0,0,.06,3.68c.42,1.87,1.47,2.82,2.8,4.76a32.52,32.52,0,0,1,2.79,5,17.09,17.09,0,0,1-.89-5.21,15.08,15.08,0,0,1,.83-5.46,14.48,14.48,0,0,1,4.12-6,4.06,4.06,0,0,0,.83,2.1c.64.81,1.31.9,2.22,1.78a6.23,6.23,0,0,1,1.21,1.65,7.1,7.1,0,0,1,.25-3,7.89,7.89,0,0,1,3.94-4.51c.58.6,1.51,1.51,2.73,2.54,2.17,1.84,3.07,2.22,4.12,3.3a10.79,10.79,0,0,1,2.73,5.46,49.21,49.21,0,0,1,3.69-5.58c1.56-2.05,2.52-3,4.12-5.21a44.13,44.13,0,0,0,2.73-4.32,8.67,8.67,0,0,1,3.5,2c1.85,1.75,2.32,3.87,2.92,6.54a11.22,11.22,0,0,1,.25,5.46,9.43,9.43,0,0,1-1.21,2.86,47.74,47.74,0,0,1,4-3.43c2.37-1.8,3.88-2.58,4.32-4.32a4.37,4.37,0,0,0-.06-2.22,6.83,6.83,0,0,1,1.9,3.17c.19.71.48,2.36-1,5.66-1.22,2.82-2.86,6.6-7.11,8.76a14.16,14.16,0,0,1-7.68,1.39,14.32,14.32,0,0,1-3.5-.76,11.4,11.4,0,0,1-3.74,2.73c-.54.24-1.31.54-7.94,1a13.46,13.46,0,0,1-5-.19A10.31,10.31,0,0,1,157,187.82Z"/><path class="cls-13" d="M188.34,152.86s9.85,4.53,12.63-4.43l.95-3.75s-1.39,2.6-7.16,3.22S186.92,151.5,188.34,152.86Z"/><path class="cls-14" d="M198.28,143.91s-1.23,9.32-6,8.48-2.13-3.74-1.08-4.13S197.41,146.77,198.28,143.91Z"/><path class="cls-15" d="M187.8,136.32a8.37,8.37,0,0,1-3.06,3.94c-2.07,1.19-3,7.33.43,7.81S190.37,140.76,187.8,136.32Z"/><path class="cls-16" d="M182,139.25s-4.67,6.8-1.71,9.11,3.82-1.57,3.58-3.08S181.53,140.84,182,139.25Z"/><path class="cls-17" d="M186.44,147.55s-2.31-3.11-.9-6.17c.73-1.32,6.77.47,7.19,2.12s-2.85,4.65-4,4.64A6.47,6.47,0,0,1,186.44,147.55Z"/><path class="cls-18" d="M179.78,140s-4.82,6.21-1.79,9.13,4.27,1.48,4.27,1.48,2,1.54,5.77.82,8.21-2.72,7.95-13.08c-3.38,1.14-14.35,3.4-13.28,11.41C181.69,146.51,178.55,142,179.78,140Z"/><path class="cls-1" d="M64,193.38c-3.26.74-4.06.09-5,.86a3.91,3.91,0,0,0-.85,4.66c.43.7,1.11,1,7.23,1.62,7.18.75,4.81.2,7.43.57,2,.29,3,.55,4.19,0s2.77-2,2.57-3.52c-.22-1.8-2.55-2.63-2.66-2.67-1.46-.49-2.17.15-3.72-.19s-1.47-1.52-3.14-2a8.16,8.16,0,0,0-3.62.1C65.31,193,65.14,193.12,64,193.38Z"/><path class="cls-19" d="M172.76,122.36c-5-.09-8.67-1.7-9.27-4.07a4.11,4.11,0,0,1,.64-3c2.91-5.43,10.14-7.14,12.19-7.62a31,31,0,0,1,19.55,1.9c3.83,1.73,9.9,5.43,9.27,7.75-.58,2.13-6.59,2.24-9.27,2.28-6.18.11-7.81-1.75-14.22-2.54-6.72-.82-14.33,0-14.6,1.65C166.94,119.35,167.94,120.45,172.76,122.36Z"/><path class="cls-20" d="M12.85,151.4a14.14,14.14,0,0,0,.07,4.58c.37,1.75.89,2.2,1.6,5,.54,2.17.51,3,.31,3.72a8.76,8.76,0,0,1-1.21,2.35A22,22,0,0,1,12,169.4c.65.27,1.36.53,2.14.77s1.68.46,2.43.61a4.24,4.24,0,0,1,.31.86,3.2,3.2,0,0,1,.07.41l.69.19a2,2,0,0,0-.12.52,2.4,2.4,0,0,0,0,.38,2,2,0,0,1,.86.22,2.56,2.56,0,0,1,1.07,1.16,25.21,25.21,0,0,1,1.41,3.53c.21.59.4,1,.52,1.33a22,22,0,0,0,3.48-.74,25.35,25.35,0,0,0,11.66-7.81c3.42-3.79,5.87-6.5,6.19-10.57.61-7.69-6.9-13.26-8.28-14.28-5.86-4.35-15.33-6.81-19-3C13.5,144.92,13.12,148.78,12.85,151.4Z"/><path class="cls-20" d="M16.2,136.74a10.06,10.06,0,0,0-5.84,3.81c-1.82,2.66-2.84,7.71-2.86,10a4.45,4.45,0,0,1-.5,2.16,4.46,4.46,0,0,1-1.53,1.58,4.32,4.32,0,0,0,2.29-.95A4.37,4.37,0,0,0,8.84,152,8.63,8.63,0,0,0,8,155a10.3,10.3,0,0,0,.57,4.13,15.26,15.26,0,0,0,1,2.48,7,7,0,0,1,.44-1.21,6.89,6.89,0,0,1,.77-1.21,3.81,3.81,0,0,0,.06,2.23,3.76,3.76,0,0,0,1,1.58A3.34,3.34,0,0,1,12,161.5,4.76,4.76,0,0,1,14.17,159,11.18,11.18,0,0,0,18,153.82c0,.75,0,1.9.13,3.3.22,3.16.58,4.13.45,5.84a11.48,11.48,0,0,1-1.4,4.57,18.73,18.73,0,0,0,3.3-1.52,22.18,22.18,0,0,0,3.05-2.23c1-.87,1.87-1.67,2.47-2.28-.16,1.06-.35,1.94-.5,2.6-.54,2.27-.92,2.89-1.27,3.3a4.75,4.75,0,0,1-1.21,1,11.45,11.45,0,0,0,3.17-1.52,11.73,11.73,0,0,0,3.37-3.69,13.15,13.15,0,0,0,1.59-3.81,7.45,7.45,0,0,1-.51,4.07,16.41,16.41,0,0,0,1.43-1.53,11.14,11.14,0,0,0,1.27-1.81,8.23,8.23,0,0,0,.95-3.23,43.17,43.17,0,0,1-.86,8.25c-.17.85-.87,3.14-2.28,7.71s-2,6.16-3.5,8a14.65,14.65,0,0,1-2.31,2.22,14.45,14.45,0,0,0,5.74-4c0,.6,0,1.53-.12,2.66-.27,3.22-.77,4.18-.58,5.78a7.82,7.82,0,0,0,2,4.13,14.31,14.31,0,0,1,.32-3.11,16.33,16.33,0,0,1,1.52-4c.68-1.39,1.61-3.4,2.67-6a8.18,8.18,0,0,1,.64,2.86,8.87,8.87,0,0,1-2.23,6c.72-.2,1.78-.51,3-1a15.63,15.63,0,0,0,4.38-1.91,8.86,8.86,0,0,0,2.67-3.36,9.27,9.27,0,0,0,.7-2.41,10.52,10.52,0,0,1-.32,6.15A10.83,10.83,0,0,0,48.84,172a4.15,4.15,0,0,1,2.16.76c1.63,1.22,1.38,3.25,2,5.71a14.46,14.46,0,0,0,5.33,7.75,9.73,9.73,0,0,0,6.29,1.84c4.52-.46,5.25-4.7,10.09-5,.58,0,3.16-.21,4.51,1.39a2.91,2.91,0,0,1,.76,2.1,2.78,2.78,0,0,1-1,1.78c.68-.29,1.68-.73,2.86-1.34,3.24-1.68,4.86-2.52,5.14-3.93.31-1.58-1-3.25-2.1-4.07a5.25,5.25,0,0,0-2.66-1,7.82,7.82,0,0,1,7.43.63,8.86,8.86,0,0,0-4.38-2.35c-.55-.1-2-.31-5.78.89A75.08,75.08,0,0,0,72,180.36c-4.36,1.85-4.69,2.28-5.65,2.15-2.39-.31-3.44-2.59-5.9-5.58a38,38,0,0,0-8.19-7.37c.06-.27.24-.82.63-.95s1.05.81,2,1.78a10.48,10.48,0,0,0,2.6,2,5.11,5.11,0,0,1-1.39-1.78c-1-2.14,0-4.39.69-6.6a66.35,66.35,0,0,0,1.78-8.26c.54-3.19-.25-8-6.54-15.11a10.29,10.29,0,0,1,2.8,1.08,10.43,10.43,0,0,1,3.11,2.73,14.35,14.35,0,0,0-4.32-4.57A14.15,14.15,0,0,0,48,137.63a10.51,10.51,0,0,0-1.27-1.72,11.57,11.57,0,0,0-3.49-2.54,44.31,44.31,0,0,0-6.54-3.11c-2.35-.6-5.21,0-10.92,1.08-4,.78-5.78,1.43-7.43,2.86A11.07,11.07,0,0,0,16.2,136.74Z"/><path class="cls-21" d="M21.52,152.61a13.82,13.82,0,0,0,.08,4.57c.36,1.76.88,2.2,1.59,5,.54,2.16.51,3,.31,3.71a8.94,8.94,0,0,1-1.21,2.36,22,22,0,0,1-1.67,2.31c.65.26,1.36.52,2.14.76a23.51,23.51,0,0,0,2.43.62,3.71,3.71,0,0,1,.31.86,3.38,3.38,0,0,1,.07.4l.69.19a2.09,2.09,0,0,0-.12.53,2.4,2.4,0,0,0,0,.38,2.18,2.18,0,0,1,.86.21,2.53,2.53,0,0,1,1.07,1.17,25.57,25.57,0,0,1,1.41,3.52c.21.59.4,1.06.52,1.34a24.56,24.56,0,0,0,3.48-.74A25.42,25.42,0,0,0,45.14,172c3.42-3.79,5.87-6.5,6.19-10.57.62-7.69-6.9-13.26-8.28-14.29-5.86-4.34-15.33-6.8-18.95-3.05C22.17,146.13,21.79,150,21.52,152.61Z"/><path class="cls-22" d="M23.87,135.94A10.11,10.11,0,0,0,18,139.75c-1.82,2.66-2.84,7.72-2.86,10a4.16,4.16,0,0,1-2,3.75,4.28,4.28,0,0,0,3.37-2.28,8.86,8.86,0,0,0-.83,3,10.36,10.36,0,0,0,.57,4.13,14.72,14.72,0,0,0,1,2.47,6.93,6.93,0,0,1,.44-1.2,6.53,6.53,0,0,1,.77-1.21,3.78,3.78,0,0,0,.06,2.22,3.89,3.89,0,0,0,1,1.59,3.34,3.34,0,0,1,.06-1.52,4.73,4.73,0,0,1,2.22-2.54A11.16,11.16,0,0,0,25.71,153c0,.76,0,1.91.13,3.3.22,3.17.58,4.14.45,5.85a11.48,11.48,0,0,1-1.4,4.57,18,18,0,0,0,3.3-1.53,21.38,21.38,0,0,0,3-2.22c1-.87,1.87-1.67,2.47-2.28-.16,1.06-.35,1.94-.5,2.6-.54,2.26-.92,2.88-1.27,3.3a4.75,4.75,0,0,1-1.21,1,11.12,11.12,0,0,0,3.17-1.53,11.62,11.62,0,0,0,3.37-3.68,13.4,13.4,0,0,0,1.59-3.81,7.39,7.39,0,0,1-.51,4.06,16.1,16.1,0,0,0,1.43-1.52,11.61,11.61,0,0,0,1.27-1.81,8.35,8.35,0,0,0,1-3.24,43.26,43.26,0,0,1-.86,8.26c-.17.85-.87,3.14-2.28,7.71s-2,6.16-3.49,8a14.17,14.17,0,0,1-2.32,2.22,14.55,14.55,0,0,0,3.62-2,13.87,13.87,0,0,0,2.12-2c0,.6,0,1.53-.12,2.67-.27,3.22-.77,4.18-.57,5.78a7.66,7.66,0,0,0,2,4.12,14.37,14.37,0,0,1,.32-3.11,16.49,16.49,0,0,1,1.52-4c.68-1.38,1.61-3.4,2.67-6a8.18,8.18,0,0,1,.64,2.86,8.92,8.92,0,0,1-2.23,6c.72-.2,1.78-.52,3.05-1a15.39,15.39,0,0,0,4.38-1.9,8.87,8.87,0,0,0,2.67-3.37,9.06,9.06,0,0,0,.7-2.41,10.54,10.54,0,0,1,.32,2.86,10.43,10.43,0,0,1-.64,3.3,11.14,11.14,0,0,0,2-2.22,10.72,10.72,0,0,0,1-10.6,4.07,4.07,0,0,1,2.16.76c1.63,1.21,1.38,3.24,2,5.71A14.46,14.46,0,0,0,66,185.47a9.79,9.79,0,0,0,6.29,1.84c4.52-.47,5.25-4.71,10.09-5,.58,0,3.16-.2,4.51,1.4a2.86,2.86,0,0,1,.76,2.09,2.78,2.78,0,0,1-1,1.78c.68-.28,1.68-.72,2.86-1.33,3.24-1.69,4.86-2.53,5.14-3.94.31-1.58-1-3.24-2.1-4.06a5.39,5.39,0,0,0-2.66-1,7.84,7.84,0,0,1,3.62-.63,8,8,0,0,1,3.81,1.27A8.78,8.78,0,0,0,93,175.5c-.55-.1-2-.31-5.78.89a74.84,74.84,0,0,0-7.56,3.17c-4.35,1.86-4.69,2.29-5.65,2.16-2.39-.32-3.44-2.6-5.9-5.59a38.31,38.31,0,0,0-8.19-7.36c.06-.28.24-.82.63-1s1,.81,2,1.77a10.25,10.25,0,0,0,2.6,2,5,5,0,0,1-1.39-1.78c-1-2.13,0-4.38.69-6.6a65.76,65.76,0,0,0,1.78-8.25c.54-3.2-.25-8.05-6.54-15.11a9.67,9.67,0,0,1,2.8,1.08,10.16,10.16,0,0,1,3.11,2.73,14.21,14.21,0,0,0-9.91-6.8,10.09,10.09,0,0,0-1.27-1.71,11.57,11.57,0,0,0-3.49-2.54,44.31,44.31,0,0,0-6.54-3.11c-2.35-.6-5.21,0-10.92,1.08-4,.78-5.78,1.43-7.43,2.85A11.28,11.28,0,0,0,23.87,135.94Z"/></g></svg>