<?xml version="1.0" encoding="UTF-8" ?>
<!DOCTYPE svg PUBLIC "-//W3C//DTD SVG 1.1//EN" "http://www.w3.org/Graphics/SVG/1.1/DTD/svg11.dtd">
<svg width="840pt" height="840pt" viewBox="0 0 840 840" version="1.1" xmlns="http://www.w3.org/2000/svg">
<g id="#4d4d4d4d">
<path fill="#4d4d4d" opacity="0.30" d=" M 0.00 0.00 L 8.35 0.00 C 8.35 2.78 8.34 5.56 8.34 8.34 C 5.56 8.34 2.78 8.35 0.00 8.35 L 0.00 0.00 Z" />
<path fill="#4d4d4d" opacity="0.30" d=" M 831.65 0.00 L 840.00 0.00 L 840.00 8.35 C 837.21 8.35 834.43 8.34 831.66 8.34 C 831.65 5.56 831.64 2.78 831.65 0.00 Z" />
<path fill="#4d4d4d" opacity="0.30" d=" M 0.00 831.65 C 2.78 831.65 5.56 831.65 8.34 831.66 C 8.34 834.43 8.35 837.21 8.35 840.00 L 0.00 840.00 L 0.00 831.65 Z" />
<path fill="#4d4d4d" opacity="0.30" d=" M 831.66 831.66 C 834.44 831.65 837.21 831.65 840.00 831.65 L 840.00 840.00 L 831.65 840.00 C 831.64 837.21 831.65 834.43 831.66 831.66 Z" />
</g>
<g id="#24292eff">
<path fill="#24292e" opacity="1.00" d=" M 401.23 52.33 C 465.91 49.65 531.34 64.05 588.63 94.34 C 648.94 125.91 700.08 174.60 734.84 233.10 C 762.69 279.92 779.97 333.00 784.86 387.27 C 785.97 395.15 785.40 403.15 786.54 411.03 C 786.28 420.33 787.19 429.70 785.86 438.94 C 785.55 459.58 782.24 480.06 778.23 500.28 C 764.63 563.40 734.16 622.80 690.60 670.49 C 672.91 689.59 653.67 707.33 632.44 722.44 C 621.10 729.49 610.08 737.10 598.39 743.59 C 548.10 772.05 490.95 788.44 433.22 790.75 C 413.85 792.00 394.43 790.83 375.15 788.87 C 305.52 781.29 238.41 753.06 184.06 708.94 C 177.48 704.66 171.93 699.09 166.01 693.99 C 161.00 688.61 154.87 684.37 150.32 678.53 C 103.16 629.83 69.80 567.81 55.46 501.52 C 47.55 466.34 45.57 429.99 47.96 394.09 C 53.56 311.75 88.50 231.99 144.47 171.46 C 149.73 166.36 153.98 160.27 159.85 155.77 C 202.02 114.83 254.22 84.32 310.53 67.49 C 339.97 58.63 370.57 53.79 401.23 52.33 M 396.53 56.65 C 390.41 57.56 384.16 57.19 378.04 58.22 C 347.98 61.30 318.37 68.34 290.02 78.77 C 234.29 99.34 183.75 133.84 144.18 178.10 C 112.04 214.14 86.77 256.44 71.12 302.16 C 59.68 334.92 53.10 369.35 51.27 403.98 C 51.20 407.66 51.55 411.36 50.99 415.01 C 50.13 420.97 50.80 426.97 51.31 432.92 C 51.00 441.32 51.97 449.68 52.65 458.04 C 57.14 502.23 69.61 545.63 89.47 585.37 C 100.54 607.76 114.60 628.48 129.90 648.16 C 137.46 657.84 145.85 666.83 154.06 675.95 C 171.67 693.53 190.56 709.98 211.31 723.78 C 266.68 761.86 332.92 783.72 400.02 786.72 C 418.67 786.57 437.39 787.46 455.93 784.92 C 544.98 775.82 629.82 731.93 689.17 665.06 C 705.56 647.06 719.53 627.03 732.42 606.43 C 749.88 576.29 763.58 543.82 771.61 509.88 C 778.07 485.43 781.00 460.17 782.26 434.98 C 782.20 425.64 782.22 416.31 782.26 406.97 C 781.30 394.93 780.64 382.84 778.84 370.88 C 768.80 297.62 735.44 227.89 685.18 173.72 C 679.94 169.01 676.07 162.95 670.38 158.71 C 610.15 100.12 528.96 63.39 445.11 57.34 C 440.37 57.35 435.73 56.15 430.98 56.43 C 419.50 56.62 408.00 56.16 396.53 56.65 Z" />
<path fill="#24292e" opacity="1.00" d=" M 395.75 72.55 C 398.25 72.55 400.75 72.56 403.25 72.59 C 403.24 73.82 403.23 75.05 403.22 76.28 C 400.74 76.29 398.26 76.29 395.78 76.30 C 395.76 75.05 395.76 73.80 395.75 72.55 Z" />
<path fill="#24292e" opacity="1.00" d=" M 409.35 72.56 C 412.44 72.56 415.54 72.56 418.63 72.56 C 418.63 73.58 418.63 74.60 418.64 75.62 C 415.54 75.63 412.44 75.63 409.35 75.62 C 409.35 74.60 409.35 73.58 409.35 72.56 Z" />
<path fill="#24292e" opacity="1.00" d=" M 424.75 72.58 C 427.25 72.56 429.75 72.56 432.26 72.57 C 432.24 73.81 432.23 75.04 432.23 76.28 C 429.74 76.29 427.25 76.29 424.77 76.29 C 424.76 75.05 424.75 73.81 424.75 72.58 Z" />
<path fill="#24292e" opacity="1.00" d=" M 381.54 73.81 C 383.87 73.85 386.22 73.77 388.46 73.08 C 388.85 74.27 389.25 75.46 389.64 76.65 C 386.98 77.22 384.27 77.51 381.55 77.54 C 381.55 76.61 381.54 74.74 381.54 73.81 Z" />
<path fill="#24292e" opacity="1.00" d=" M 438.43 73.23 C 441.18 73.23 443.94 73.23 446.71 73.29 C 446.45 74.39 446.25 75.51 445.84 76.57 C 443.39 76.96 440.91 76.81 438.45 76.80 C 438.44 75.61 438.43 74.42 438.43 73.23 Z" />
<path fill="#24292e" opacity="1.00" d=" M 452.72 74.38 C 455.28 74.42 458.05 74.00 460.32 75.48 C 460.27 76.26 460.17 77.81 460.12 78.59 C 457.54 78.33 454.97 78.11 452.41 77.82 C 452.51 76.67 452.61 75.53 452.72 74.38 Z" />
<path fill="#24292e" opacity="1.00" d=" M 367.81 75.71 C 370.28 75.22 372.79 75.04 375.30 75.01 C 375.31 75.85 375.33 77.52 375.33 78.35 C 372.81 78.59 370.31 78.94 367.82 79.38 C 367.82 78.46 367.81 76.63 367.81 75.71 Z" />
<path fill="#24292e" opacity="1.00" d=" M 466.38 75.43 C 468.85 76.11 471.38 76.58 473.92 76.90 C 473.77 78.18 473.61 79.46 473.47 80.74 C 471.06 80.18 468.64 79.69 466.22 79.21 C 466.27 77.95 466.32 76.69 466.38 75.43 Z" />
<path fill="#24292e" opacity="1.00" d=" M 354.00 77.67 C 356.44 77.30 358.87 76.92 361.33 76.67 C 361.49 77.92 361.66 79.16 361.82 80.41 C 359.35 80.70 356.90 81.05 354.45 81.43 C 354.29 80.17 354.15 78.92 354.00 77.67 Z" />
<path fill="#24292e" opacity="1.00" d=" M 479.54 81.50 C 478.96 76.08 485.14 78.97 488.02 79.58 C 487.67 80.78 487.33 81.98 487.00 83.18 C 484.51 82.60 482.02 82.06 479.54 81.50 Z" />
<path fill="#24292e" opacity="1.00" d=" M 339.99 80.78 C 342.36 80.12 344.75 79.52 347.19 79.18 C 347.54 79.98 348.25 81.60 348.61 82.40 C 346.09 83.24 343.49 83.78 340.85 84.02 C 340.56 82.94 340.28 81.86 339.99 80.78 Z" />
<path fill="#24292e" opacity="1.00" d=" M 493.47 81.44 C 496.31 81.06 499.06 81.96 501.74 82.78 C 501.27 83.98 500.80 85.18 500.34 86.38 C 498.09 85.59 495.79 84.98 493.49 84.41 C 493.48 83.42 493.47 82.43 493.47 81.44 Z" />
<path fill="#24292e" opacity="1.00" d=" M 326.30 83.99 C 328.96 83.51 331.63 81.88 334.38 82.76 C 334.43 83.41 334.54 84.71 334.59 85.36 C 332.32 86.29 329.93 86.90 327.59 87.62 C 327.15 86.41 326.72 85.20 326.30 83.99 Z" />
<path fill="#24292e" opacity="1.00" d=" M 222.29 142.31 C 275.34 105.16 339.32 83.84 404.03 81.74 C 415.02 81.87 426.02 81.54 437.01 81.90 C 450.79 83.31 464.76 84.24 478.40 87.05 C 511.49 93.00 543.66 104.03 573.44 119.64 C 640.96 154.32 696.00 212.58 727.06 281.82 C 742.97 316.53 752.47 354.05 755.87 392.05 C 757.31 406.99 756.63 422.01 756.81 437.00 C 754.92 479.81 745.07 522.35 727.34 561.40 C 708.30 603.97 680.29 642.45 645.81 673.81 C 639.00 679.76 632.40 686.04 624.74 690.91 C 571.60 732.08 505.98 757.06 438.83 761.01 C 426.59 761.94 414.28 761.14 402.01 761.45 C 350.23 759.42 299.00 745.12 253.52 720.30 C 235.64 710.44 218.57 699.08 202.67 686.26 C 185.66 672.08 169.14 657.14 155.10 639.94 C 109.14 585.13 81.26 515.41 76.99 444.00 C 76.66 433.89 75.73 423.71 76.49 413.58 C 77.73 335.62 107.60 258.58 158.66 199.68 C 177.48 178.14 198.68 158.54 222.29 142.31 M 388.51 95.67 C 340.32 99.86 293.08 114.79 251.39 139.33 C 220.41 157.48 192.49 180.81 169.02 207.97 C 119.69 264.57 90.83 338.77 89.51 413.86 C 88.53 421.23 89.70 428.61 89.64 435.99 C 91.71 487.91 106.59 539.32 132.50 584.38 C 138.97 595.38 145.54 606.44 153.79 616.22 C 167.37 634.68 183.04 651.59 200.20 666.75 C 255.97 716.49 329.41 745.88 404.07 748.48 C 415.32 748.18 426.62 749.01 437.84 748.02 C 506.63 743.85 573.77 716.92 626.46 672.51 C 638.02 662.78 649.23 652.55 659.11 641.09 C 668.30 631.49 676.06 620.68 684.30 610.30 C 717.26 563.90 737.60 508.69 742.71 452.00 C 744.36 437.73 743.63 423.34 743.82 409.00 C 743.31 393.18 741.47 377.41 738.53 361.86 C 723.79 280.82 676.70 206.28 610.09 157.91 C 553.11 115.70 481.89 92.94 411.00 94.74 C 403.47 94.41 396.00 95.21 388.51 95.67 Z" />
<path fill="#24292e" opacity="1.00" d=" M 506.98 87.73 C 507.44 86.71 506.80 84.61 508.15 84.30 C 510.41 84.74 512.61 85.50 514.86 86.07 C 514.61 87.31 514.37 88.55 514.13 89.79 C 511.73 89.15 509.35 88.47 506.98 87.73 Z" />
<path fill="#24292e" opacity="1.00" d=" M 313.06 87.78 C 315.56 86.89 318.13 86.21 320.78 85.91 C 320.81 87.09 320.85 88.27 320.89 89.45 C 318.59 90.20 316.23 90.73 313.83 90.99 C 313.57 89.92 313.32 88.85 313.06 87.78 Z" />
<path fill="#24292e" opacity="1.00" d=" M 520.72 87.95 C 523.05 88.68 525.44 89.31 527.67 90.35 C 527.80 91.49 527.74 92.63 527.49 93.78 C 525.06 93.29 522.57 92.82 520.39 91.61 C 520.06 90.40 520.61 89.16 520.72 87.95 Z" />
<path fill="#24292e" opacity="1.00" d=" M 300.18 91.91 C 302.46 91.14 304.77 90.45 307.11 89.88 C 307.43 91.01 307.77 92.15 308.10 93.28 C 305.67 94.26 303.18 95.10 300.63 95.67 C 300.47 94.42 300.33 93.16 300.18 91.91 Z" />
<path fill="#24292e" opacity="1.00" d=" M 533.02 95.95 C 533.44 94.76 533.88 93.57 534.33 92.38 C 536.69 93.35 539.09 94.26 541.55 94.98 C 541.09 96.20 540.64 97.41 540.20 98.62 C 537.80 97.74 535.41 96.85 533.02 95.95 Z" />
<path fill="#24292e" opacity="1.00" d=" M 286.72 96.98 C 289.14 96.03 291.60 95.13 294.13 94.53 C 294.38 95.67 294.63 96.82 294.89 97.97 C 292.52 98.82 290.18 99.74 287.84 100.67 C 287.47 99.44 287.09 98.21 286.72 96.98 Z" />
<path fill="#24292e" opacity="1.00" d=" M 545.78 101.02 C 546.35 99.82 546.97 98.65 547.67 97.52 C 549.75 98.39 551.86 99.22 554.00 99.96 C 553.76 101.24 553.51 102.52 553.27 103.80 C 550.76 102.89 548.28 101.93 545.78 101.02 Z" />
<path fill="#24292e" opacity="1.00" d=" M 273.56 102.78 C 276.07 101.64 278.57 100.50 281.10 99.42 C 281.40 100.66 281.71 101.90 282.03 103.14 C 279.74 104.15 277.44 105.13 275.10 105.99 C 274.59 104.92 274.07 103.85 273.56 102.78 Z" />
<path fill="#24292e" opacity="1.00" d=" M 559.88 102.93 C 562.29 103.93 564.70 104.92 567.12 105.90 C 566.62 107.13 566.13 108.36 565.64 109.59 C 563.53 108.38 561.30 107.40 559.02 106.57 C 559.29 105.36 559.58 104.14 559.88 102.93 Z" />
<path fill="#24292e" opacity="1.00" d=" M 261.21 108.74 C 263.42 107.43 265.71 106.27 268.03 105.15 C 268.47 106.00 269.36 107.69 269.80 108.54 C 267.50 109.79 265.13 110.93 262.71 111.93 C 262.33 111.13 261.58 109.53 261.21 108.74 Z" />
<path fill="#24292e" opacity="1.00" d=" M 396.11 108.11 C 407.38 107.24 418.72 108.00 430.02 107.71 C 493.32 110.17 555.72 132.43 606.16 170.79 C 646.08 200.85 678.73 240.58 700.21 285.74 C 718.62 323.50 728.86 365.13 730.81 407.04 C 730.58 422.34 731.51 437.70 729.61 452.92 C 722.22 533.08 682.05 609.60 620.54 661.43 C 614.28 665.77 608.56 670.85 602.38 675.31 C 556.37 709.03 501.02 729.85 444.16 734.63 C 430.14 736.10 416.03 735.17 401.96 735.47 C 339.22 732.75 277.43 710.57 227.40 672.57 C 222.39 668.97 217.82 664.78 212.72 661.30 C 153.54 611.46 114.18 538.80 104.75 462.00 C 103.63 451.69 102.45 441.36 102.62 430.97 C 101.39 422.66 102.86 414.33 102.65 406.01 C 104.33 370.52 112.03 335.25 125.71 302.43 C 157.17 224.54 221.59 160.76 299.70 129.91 C 330.37 117.48 363.11 110.23 396.11 108.11 M 397.45 110.48 C 358.44 113.02 319.86 122.68 284.49 139.37 C 254.81 153.28 227.33 171.90 203.50 194.40 C 197.55 199.46 192.22 205.19 187.04 211.02 C 139.04 262.78 109.67 331.43 105.39 401.89 C 104.89 406.64 105.54 411.45 104.75 416.18 C 103.79 423.47 105.56 430.72 105.18 438.02 C 107.31 482.80 119.65 526.98 140.38 566.70 C 150.00 584.43 160.61 601.82 173.95 617.03 C 181.84 626.76 190.22 636.08 199.08 644.92 C 208.56 653.47 217.94 662.18 228.24 669.76 C 245.87 683.31 265.09 694.80 285.24 704.20 C 322.09 721.56 362.47 731.06 403.08 733.11 C 413.43 732.94 423.80 733.34 434.14 732.89 C 466.85 730.79 499.40 724.09 529.90 711.97 C 566.02 698.06 599.26 676.96 627.81 650.87 C 631.97 646.37 637.07 642.82 640.83 637.94 C 649.49 629.50 656.91 619.93 664.78 610.78 C 703.80 560.07 726.31 496.97 728.40 433.04 C 728.10 422.06 728.99 411.02 727.77 400.08 C 723.66 335.78 698.40 273.19 657.36 223.58 C 651.05 215.62 643.74 208.57 637.05 200.98 C 634.07 198.29 630.91 195.79 628.22 192.81 C 578.60 146.73 513.60 117.47 446.12 111.36 C 434.13 109.84 422.03 110.37 409.98 110.29 C 405.80 110.34 401.61 110.11 397.45 110.48 Z" />
<path fill="#24292e" opacity="1.00" d=" M 571.15 112.30 C 571.75 111.15 572.35 110.01 572.96 108.87 C 575.10 109.99 577.27 111.04 579.48 112.03 C 579.07 113.33 578.69 114.65 578.32 115.96 C 575.92 114.75 573.54 113.51 571.15 112.30 Z" />
<path fill="#24292e" opacity="1.00" d=" M 248.94 115.05 C 251.17 113.58 253.52 112.31 256.00 111.32 C 256.35 112.56 256.70 113.80 257.05 115.04 C 254.81 116.06 252.70 117.62 250.20 117.89 C 249.75 116.95 249.33 116.00 248.94 115.05 Z" />
<path fill="#24292e" opacity="1.00" d=" M 583.41 118.75 C 584.15 117.62 584.91 116.50 585.69 115.39 C 587.72 116.73 589.82 117.98 591.98 119.13 C 591.23 120.07 590.77 122.68 589.07 121.71 C 587.10 120.88 585.30 119.73 583.41 118.75 Z" />
<path fill="#24292e" opacity="1.00" d=" M 236.48 121.92 C 238.78 120.69 241.05 119.40 243.31 118.09 C 243.86 119.25 244.44 120.41 245.03 121.56 C 242.88 122.84 240.69 124.03 238.44 125.13 C 237.79 124.06 237.13 122.99 236.48 121.92 Z" />
<path fill="#24292e" opacity="1.00" d=" M 595.21 125.37 C 596.05 124.33 596.88 123.28 597.69 122.22 C 599.74 123.72 601.79 125.22 603.84 126.72 C 603.36 127.47 602.41 128.99 601.93 129.74 C 599.65 128.34 597.41 126.88 595.21 125.37 Z" />
<path fill="#24292e" opacity="1.00" d=" M 224.77 129.82 C 226.78 128.11 228.98 126.66 231.26 125.32 C 231.87 126.48 232.50 127.64 233.13 128.79 C 231.02 130.04 228.96 131.38 226.91 132.73 C 226.20 131.76 225.48 130.79 224.77 129.82 Z" />
<path fill="#24292e" opacity="1.00" d=" M 607.05 132.97 C 607.88 132.00 608.72 131.03 609.54 130.05 C 611.50 131.50 613.54 132.83 615.63 134.11 C 614.79 135.13 613.98 136.17 613.17 137.20 C 611.14 135.77 609.10 134.36 607.05 132.97 Z" />
<path fill="#24292e" opacity="1.00" d=" M 213.24 137.42 C 215.31 135.89 217.39 134.39 219.51 132.93 C 220.24 133.99 220.97 135.04 221.70 136.10 C 219.52 137.62 217.32 139.12 215.12 140.61 C 214.49 139.54 213.86 138.48 213.24 137.42 Z" />
<path fill="#24292e" opacity="1.00" d=" M 620.13 137.98 C 622.91 138.86 625.07 140.88 627.09 142.91 C 626.09 143.67 625.09 144.43 624.09 145.19 C 622.35 143.79 620.61 142.39 618.93 140.92 C 619.32 139.94 619.72 138.96 620.13 137.98 Z" />
<path fill="#24292e" opacity="1.00" d=" M 201.91 146.02 C 203.85 144.30 205.73 142.37 208.17 141.38 C 209.42 141.73 210.02 143.36 209.69 144.53 C 208.08 146.00 206.32 147.31 204.71 148.79 C 203.77 147.87 202.84 146.95 201.91 146.02 Z" />
<path fill="#24292e" opacity="1.00" d=" M 630.34 149.69 C 629.78 148.29 631.12 147.18 631.65 146.03 C 633.78 147.60 635.87 149.21 637.92 150.89 C 637.25 152.16 636.31 153.15 635.10 153.88 C 633.57 152.41 631.89 151.12 630.34 149.69 Z" />
<path fill="#24292e" opacity="1.00" d=" M 196.56 150.24 C 198.07 150.00 198.57 151.77 199.24 152.75 C 197.31 154.49 195.29 156.13 193.16 157.61 C 192.46 156.57 191.77 155.53 191.08 154.48 C 192.89 153.05 194.60 151.47 196.56 150.24 Z" />
<path fill="#24292e" opacity="1.00" d=" M 640.25 158.04 C 641.11 157.02 641.99 155.99 642.87 154.97 C 644.65 156.80 646.59 158.48 648.68 159.96 C 647.82 160.96 646.98 161.98 646.15 163.00 C 644.23 161.28 642.24 159.66 640.25 158.04 Z" />
<path fill="#24292e" opacity="1.00" d=" M 180.62 163.40 C 182.68 161.87 184.75 160.33 186.82 158.81 C 187.47 159.85 188.12 160.88 188.77 161.92 C 186.77 163.47 184.80 165.07 182.97 166.81 C 182.19 165.66 181.40 164.53 180.62 163.40 Z" />
<path fill="#24292e" opacity="1.00" d=" M 651.23 166.34 C 651.66 165.77 652.52 164.65 652.95 164.09 C 655.11 165.83 657.09 167.80 658.86 169.95 C 657.73 170.67 656.25 172.88 654.88 171.27 C 653.56 169.80 651.17 168.52 651.23 166.34 Z" />
<path fill="#24292e" opacity="1.00" d=" M 171.01 173.06 C 172.41 171.11 174.54 169.83 176.21 168.14 C 177.03 168.97 177.85 169.80 178.68 170.64 C 176.78 172.47 174.89 174.31 172.96 176.11 C 172.34 175.10 170.96 174.37 171.01 173.06 Z" />
<path fill="#24292e" opacity="1.00" d=" M 660.90 176.48 C 661.55 175.70 662.15 174.84 662.97 174.21 C 665.36 175.40 666.87 177.87 668.70 179.77 C 667.61 180.34 666.81 182.14 665.39 181.74 C 663.79 180.07 662.43 178.20 660.90 176.48 Z" />
<path fill="#24292e" opacity="1.00" d=" M 160.89 183.31 C 162.68 181.60 164.42 179.83 166.11 178.03 C 166.78 178.57 168.12 179.66 168.79 180.20 C 167.38 181.75 166.03 183.35 164.92 185.12 C 164.43 185.34 163.46 185.78 162.97 186.00 C 162.27 185.10 161.58 184.21 160.89 183.31 Z" />
<path fill="#24292e" opacity="1.00" d=" M 670.33 186.56 C 671.20 185.71 672.09 184.87 672.98 184.03 C 674.75 185.79 676.46 187.61 678.12 189.47 C 677.36 190.43 676.62 191.39 675.91 192.38 C 673.70 190.79 672.16 188.52 670.33 186.56 Z" />
<path fill="#24292e" opacity="1.00" d=" M 151.19 194.12 C 152.97 191.93 154.92 189.90 156.98 187.99 C 157.61 189.11 159.28 190.08 158.74 191.59 C 157.58 193.16 156.19 194.58 154.62 195.74 C 153.25 196.49 152.25 194.64 151.19 194.12 Z" />
<path fill="#24292e" opacity="1.00" d=" M 679.13 196.67 C 680.33 196.17 681.41 195.06 682.80 195.12 C 684.38 196.80 686.47 198.44 686.99 200.79 C 686.09 201.45 685.17 202.09 684.25 202.70 C 682.61 200.63 680.92 198.60 679.13 196.67 Z" />
<path fill="#24292e" opacity="1.00" d=" M 142.32 205.11 C 143.92 202.82 145.56 200.53 147.66 198.66 C 148.49 199.60 149.34 200.55 150.19 201.48 C 148.64 203.18 147.21 204.97 145.84 206.81 C 144.66 206.25 143.49 205.68 142.32 205.11 Z" />
<path fill="#24292e" opacity="1.00" d=" M 688.18 207.22 C 688.96 206.75 690.53 205.79 691.32 205.31 C 692.79 207.25 694.29 209.17 695.82 211.07 C 694.90 212.00 693.99 212.93 693.09 213.87 C 691.40 211.69 689.72 209.50 688.18 207.22 Z" />
<path fill="#24292e" opacity="1.00" d=" M 138.28 209.94 C 139.49 210.45 140.66 211.05 141.80 211.72 C 140.22 214.00 138.72 216.43 136.44 218.10 C 135.88 217.55 134.74 216.46 134.17 215.91 C 135.48 213.88 136.85 211.89 138.28 209.94 Z" />
<path fill="#24292e" opacity="1.00" d=" M 696.44 218.72 C 697.53 217.95 698.62 217.18 699.74 216.42 C 701.37 218.51 702.93 220.68 704.05 223.12 C 703.27 223.54 701.69 224.38 700.90 224.80 C 699.56 222.67 698.08 220.63 696.44 218.72 Z" />
<path fill="#24292e" opacity="1.00" d=" M 130.37 221.05 C 131.48 221.67 132.59 222.29 133.70 222.92 C 132.27 225.08 130.77 227.20 129.21 229.26 C 128.13 228.77 127.05 228.28 125.98 227.79 C 127.15 225.36 128.71 223.16 130.37 221.05 Z" />
<path fill="#24292e" opacity="1.00" d=" M 704.93 230.71 C 705.44 229.32 706.11 227.89 707.90 228.54 C 709.38 230.32 710.63 232.28 711.97 234.17 C 711.04 234.98 710.02 235.59 708.90 236.00 C 707.27 234.49 706.25 232.47 704.93 230.71 Z" />
<path fill="#24292e" opacity="1.00" d=" M 122.05 233.01 C 123.30 233.30 124.55 233.61 125.81 233.92 C 124.79 236.44 123.23 238.67 121.89 241.02 C 120.97 240.63 120.07 240.22 119.19 239.77 C 118.81 237.17 121.01 235.20 122.05 233.01 Z" />
<path fill="#24292e" opacity="1.00" d=" M 712.04 241.59 C 713.24 241.02 714.47 240.49 715.72 240.01 C 716.71 242.00 718.13 243.82 718.79 245.97 C 718.63 247.55 716.71 247.48 715.61 248.02 C 714.52 245.82 713.30 243.69 712.04 241.59 Z" />
<path fill="#24292e" opacity="1.00" d=" M 111.25 251.27 C 112.58 249.03 113.87 246.76 115.04 244.44 C 116.16 244.98 117.29 245.52 118.41 246.06 C 117.35 248.40 116.14 250.66 114.88 252.90 C 113.67 252.36 112.46 251.81 111.25 251.27 Z" />
<path fill="#24292e" opacity="1.00" d=" M 719.03 253.35 C 720.18 252.82 721.35 252.29 722.51 251.76 C 723.63 254.11 724.76 256.44 725.85 258.81 C 724.81 259.23 723.77 259.66 722.74 260.09 C 721.27 257.98 720.04 255.72 719.03 253.35 Z" />
<path fill="#24292e" opacity="1.00" d=" M 108.08 256.85 C 109.12 257.57 111.66 257.12 111.33 259.00 C 110.59 261.21 109.32 263.17 108.16 265.18 C 107.12 264.63 106.08 264.09 105.04 263.56 C 105.93 261.27 106.99 259.05 108.08 256.85 Z" />
<path fill="#24292e" opacity="1.00" d=" M 725.53 265.85 C 726.65 265.23 727.77 264.61 728.91 264.01 C 730.10 266.30 731.25 268.62 732.37 270.95 C 731.19 271.51 730.03 272.08 728.87 272.65 C 727.74 270.38 726.63 268.12 725.53 265.85 Z" />
<path fill="#24292e" opacity="1.00" d=" M 102.04 269.19 C 103.18 269.77 104.31 270.35 105.45 270.94 C 104.40 273.14 103.31 275.33 102.21 277.51 C 100.98 277.05 99.75 276.60 98.52 276.15 C 99.70 273.83 100.89 271.52 102.04 269.19 Z" />
<path fill="#24292e" opacity="1.00" d=" M 731.37 277.88 C 732.61 277.56 733.85 277.26 735.11 276.96 C 736.03 279.28 737.49 281.52 737.58 284.08 C 736.48 284.56 735.34 284.83 734.14 284.88 C 733.40 282.48 732.44 280.15 731.37 277.88 Z" />
<path fill="#24292e" opacity="1.00" d=" M 96.00 282.16 C 97.18 282.42 98.36 282.68 99.54 282.94 C 98.71 285.34 97.80 287.72 96.83 290.07 C 95.61 289.74 94.38 289.41 93.16 289.08 C 94.01 286.73 94.96 284.42 96.00 282.16 Z" />
<path fill="#24292e" opacity="1.00" d=" M 737.02 291.06 C 738.13 290.47 739.26 289.87 740.39 289.28 C 741.52 291.79 742.49 294.39 743.16 297.07 C 742.02 297.32 740.89 297.58 739.76 297.83 C 738.79 295.60 737.88 293.34 737.02 291.06 Z" />
<path fill="#24292e" opacity="1.00" d=" M 90.70 295.00 C 91.84 295.29 92.98 295.59 94.12 295.90 C 93.47 298.25 92.71 300.57 91.87 302.86 C 90.62 302.70 89.37 302.53 88.12 302.37 C 88.83 299.86 89.70 297.40 90.70 295.00 Z" />
<path fill="#24292e" opacity="1.00" d=" M 742.03 304.04 C 743.15 303.45 744.29 302.85 745.43 302.26 C 746.37 304.80 747.24 307.37 748.00 309.97 C 746.85 310.29 745.70 310.61 744.57 310.94 C 743.73 308.63 742.88 306.34 742.03 304.04 Z" />
<path fill="#24292e" opacity="1.00" d=" M 85.72 308.20 C 87.02 308.38 88.31 308.56 89.61 308.74 C 88.78 311.15 87.97 313.57 87.14 315.98 C 85.89 315.77 84.64 315.57 83.39 315.37 C 84.21 313.00 84.99 310.61 85.72 308.20 Z" />
<path fill="#24292e" opacity="1.00" d=" M 746.44 316.74 C 747.66 316.77 749.14 315.87 750.23 316.59 C 751.15 318.74 751.53 321.07 752.03 323.35 C 750.88 323.57 749.74 323.79 748.61 324.02 C 747.86 321.60 747.16 319.16 746.44 316.74 Z" />
<path fill="#24292e" opacity="1.00" d=" M 79.53 328.31 C 80.27 326.04 80.95 323.75 81.58 321.45 C 82.46 321.56 84.21 321.79 85.08 321.90 C 84.55 324.59 83.87 327.26 83.22 329.93 C 81.99 329.39 80.76 328.85 79.53 328.31 Z" />
<path fill="#24292e" opacity="1.00" d=" M 750.45 329.81 C 751.69 329.69 752.95 329.58 754.21 329.48 C 754.86 332.03 755.46 334.60 755.78 337.23 C 754.90 337.25 753.13 337.28 752.24 337.30 C 751.54 334.82 750.93 332.33 750.45 329.81 Z" />
<path fill="#24292e" opacity="1.00" d=" M 77.91 334.63 C 79.15 334.91 80.39 335.23 81.63 335.56 C 80.99 337.95 80.47 340.39 79.64 342.73 C 78.44 342.72 77.26 342.46 76.08 342.26 C 76.67 339.71 77.27 337.17 77.91 334.63 Z" />
<path fill="#24292e" opacity="1.00" d=" M 753.71 343.46 C 754.91 343.32 756.13 343.18 757.36 343.05 C 758.09 345.53 758.67 348.07 758.84 350.66 C 757.65 350.71 756.47 350.77 755.30 350.83 C 754.87 348.35 754.35 345.89 753.71 343.46 Z" />
<path fill="#24292e" opacity="1.00" d=" M 74.86 348.35 C 76.05 348.53 77.24 348.71 78.43 348.88 C 77.82 351.22 77.59 353.65 76.91 355.96 C 76.09 356.75 74.68 356.16 73.64 356.38 C 73.48 353.64 74.11 350.96 74.86 348.35 Z" />
<path fill="#24292e" opacity="1.00" d=" M 756.61 357.56 C 757.85 357.10 759.10 356.65 760.36 356.21 C 760.69 358.97 761.20 361.70 761.77 364.43 C 760.78 364.41 758.79 364.36 757.79 364.33 C 757.50 362.06 757.13 359.79 756.61 357.56 Z" />
<path fill="#24292e" opacity="1.00" d=" M 71.91 362.26 C 73.13 362.39 74.35 362.53 75.56 362.67 C 75.32 365.08 74.97 367.47 74.62 369.87 C 73.42 369.85 72.21 369.82 71.00 369.81 C 71.30 367.29 71.63 364.78 71.91 362.26 Z" />
<path fill="#24292e" opacity="1.00" d=" M 759.28 370.56 C 760.37 370.56 761.47 370.56 762.57 370.56 C 763.03 372.91 763.40 375.28 763.81 377.65 C 762.51 377.91 761.23 378.17 759.95 378.45 C 759.58 375.83 759.32 373.20 759.28 370.56 Z" />
<path fill="#24292e" opacity="1.00" d=" M 69.98 376.19 C 71.23 376.20 72.47 376.22 73.71 376.25 C 73.37 378.69 73.02 381.13 72.74 383.59 C 71.55 383.58 70.37 383.57 69.20 383.57 C 69.33 381.09 69.63 378.64 69.98 376.19 Z" />
<path fill="#24292e" opacity="1.00" d=" M 760.55 384.79 C 761.78 384.58 763.01 384.37 764.26 384.18 C 764.81 386.83 764.99 389.55 764.53 392.24 C 763.43 392.23 762.33 392.24 761.25 392.24 C 761.31 389.73 761.20 387.22 760.55 384.79 Z" />
<path fill="#24292e" opacity="1.00" d=" M 68.80 389.57 C 69.78 389.70 70.75 389.83 71.73 389.97 C 71.73 392.62 71.72 395.27 71.69 397.92 C 70.37 397.70 69.05 397.49 67.73 397.28 C 67.80 394.67 68.16 392.09 68.80 389.57 Z" />
<path fill="#24292e" opacity="1.00" d=" M 67.40 411.42 C 67.40 408.80 67.43 406.18 67.58 403.56 C 68.65 403.94 70.99 403.42 71.11 405.06 C 71.23 407.16 71.15 409.27 71.13 411.37 C 69.89 411.38 68.64 411.40 67.40 411.42 Z" />
<path fill="#24292e" opacity="1.00" d=" M 762.43 412.13 C 763.67 412.13 764.92 412.15 766.18 412.16 C 766.17 414.85 766.17 417.54 766.17 420.24 C 764.91 420.05 763.67 419.86 762.44 419.67 C 762.43 417.15 762.43 414.64 762.43 412.13 Z" />
<path fill="#24292e" opacity="1.00" d=" M 66.70 417.57 C 67.65 417.56 69.53 417.56 70.48 417.55 C 70.49 420.23 70.49 422.91 70.49 425.59 C 69.54 425.58 67.64 425.56 66.69 425.55 C 66.70 422.89 66.70 420.23 66.70 417.57 Z" />
<path fill="#24292e" opacity="1.00" d=" M 762.44 426.28 C 763.37 426.29 765.24 426.31 766.18 426.32 C 766.17 428.75 766.17 431.19 766.18 433.64 C 765.24 433.65 763.37 433.66 762.43 433.67 C 762.43 431.20 762.43 428.74 762.44 426.28 Z" />
<path fill="#24292e" opacity="1.00" d=" M 67.44 431.73 C 68.36 431.74 70.21 431.76 71.13 431.77 C 71.13 434.26 71.13 436.75 71.13 439.25 C 70.21 439.26 68.36 439.29 67.44 439.30 C 67.42 436.77 67.43 434.25 67.44 431.73 Z" />
<path fill="#24292e" opacity="1.00" d=" M 68.15 445.36 C 69.34 445.37 70.53 445.38 71.72 445.40 C 71.72 447.87 71.71 450.34 71.70 452.81 C 70.92 453.03 69.37 453.47 68.60 453.69 C 68.16 450.93 68.08 448.14 68.15 445.36 Z" />
<path fill="#24292e" opacity="1.00" d=" M 761.32 453.53 C 762.53 453.82 763.73 454.11 764.97 454.41 C 764.68 456.76 764.39 459.11 764.20 461.48 C 762.93 461.48 761.67 461.49 760.42 461.50 C 760.70 458.84 761.02 456.18 761.32 453.53 Z" />
<path fill="#24292e" opacity="1.00" d=" M 69.23 459.68 C 70.43 459.52 71.63 459.35 72.83 459.19 C 72.88 461.85 73.22 464.50 73.64 467.13 C 72.74 467.13 70.95 467.12 70.06 467.12 C 69.51 464.68 69.25 462.18 69.23 459.68 Z" />
<path fill="#24292e" opacity="1.00" d=" M 759.68 467.69 C 760.87 467.68 762.07 467.68 763.27 467.69 C 763.04 470.38 762.69 473.07 762.30 475.75 C 761.39 475.57 759.57 475.20 758.66 475.02 C 759.03 472.58 759.32 470.13 759.68 467.69 Z" />
<path fill="#24292e" opacity="1.00" d=" M 71.05 473.28 C 72.25 473.27 73.45 473.28 74.66 473.28 C 74.85 475.66 75.19 478.01 75.55 480.37 C 74.31 480.70 73.08 481.04 71.85 481.38 C 71.56 478.68 71.24 475.98 71.05 473.28 Z" />
<path fill="#24292e" opacity="1.00" d=" M 757.67 481.24 C 758.71 481.26 759.77 481.28 760.84 481.30 C 761.34 484.16 760.37 486.93 759.50 489.61 C 758.65 489.30 756.95 488.67 756.09 488.35 C 756.68 485.99 757.23 483.63 757.67 481.24 Z" />
<path fill="#24292e" opacity="1.00" d=" M 73.26 486.90 C 74.04 486.82 75.59 486.66 76.37 486.58 C 77.39 488.96 77.72 491.54 77.88 494.11 C 76.83 494.39 75.78 494.67 74.74 494.96 C 74.05 492.31 73.51 489.62 73.26 486.90 Z" />
<path fill="#24292e" opacity="1.00" d=" M 755.18 495.19 C 756.36 495.19 757.55 495.27 758.74 495.42 C 758.13 497.73 757.66 500.07 757.14 502.40 C 756.01 503.13 754.71 502.38 753.56 502.24 C 754.04 499.88 754.03 497.34 755.18 495.19 Z" />
<path fill="#24292e" opacity="1.00" d=" M 76.26 500.50 C 77.35 500.42 78.45 500.35 79.54 500.28 C 80.24 502.69 80.77 505.15 81.00 507.65 C 80.21 507.92 78.64 508.45 77.85 508.71 C 77.04 506.03 76.32 503.31 76.26 500.50 Z" />
<path fill="#24292e" opacity="1.00" d=" M 749.91 515.47 C 750.46 513.06 751.12 510.68 751.82 508.32 C 753.07 508.57 754.33 508.84 755.59 509.12 C 754.79 511.67 754.02 514.23 753.32 516.82 C 752.47 516.48 750.76 515.80 749.91 515.47 Z" />
<path fill="#24292e" opacity="1.00" d=" M 79.56 514.29 C 80.72 514.02 81.88 513.74 83.04 513.48 C 83.74 516.05 84.69 518.63 84.55 521.35 C 83.49 521.51 82.44 521.68 81.38 521.85 C 80.65 519.36 80.04 516.84 79.56 514.29 Z" />
<path fill="#24292e" opacity="1.00" d=" M 747.90 521.49 C 749.14 521.80 750.37 522.12 751.62 522.45 C 751.01 524.89 750.27 527.31 749.36 529.66 C 748.52 529.51 746.86 529.21 746.02 529.07 C 746.66 526.54 747.33 524.02 747.90 521.49 Z" />
<path fill="#24292e" opacity="1.00" d=" M 83.25 527.82 C 84.51 527.54 85.77 527.27 87.03 527.01 C 87.70 529.41 88.47 531.79 89.30 534.15 C 88.07 534.50 86.85 534.87 85.62 535.24 C 84.85 532.76 84.04 530.29 83.25 527.82 Z" />
<path fill="#24292e" opacity="1.00" d=" M 743.80 535.12 C 744.58 535.17 746.13 535.26 746.90 535.31 C 746.88 537.96 745.98 540.46 745.09 542.92 C 743.83 542.67 742.59 542.42 741.35 542.18 C 742.01 539.77 742.82 537.41 743.80 535.12 Z" />
<path fill="#24292e" opacity="1.00" d=" M 87.95 540.93 C 89.10 540.64 90.26 540.35 91.41 540.08 C 92.40 542.46 93.28 544.89 94.11 547.34 C 92.88 547.44 91.64 547.90 90.40 547.65 C 89.09 545.62 88.62 543.21 87.95 540.93 Z" />
<path fill="#24292e" opacity="1.00" d=" M 738.83 548.05 C 740.14 548.29 741.47 548.53 742.80 548.79 C 741.74 551.11 740.79 553.49 739.99 555.92 C 738.80 555.67 737.61 555.43 736.44 555.21 C 737.00 552.74 737.81 550.35 738.83 548.05 Z" />
<path fill="#24292e" opacity="1.00" d=" M 92.66 553.89 C 93.95 553.62 95.24 553.36 96.54 553.11 C 97.49 555.51 98.84 557.86 98.81 560.53 C 98.06 560.65 96.57 560.88 95.83 561.00 C 94.65 558.68 93.65 556.29 92.66 553.89 Z" />
<path fill="#24292e" opacity="1.00" d=" M 733.81 560.17 C 734.88 560.76 735.96 561.35 737.06 561.95 C 736.23 564.34 735.20 566.65 734.14 568.95 C 733.05 568.53 731.95 568.11 730.88 567.71 C 731.68 565.13 732.74 562.64 733.81 560.17 Z" />
<path fill="#24292e" opacity="1.00" d=" M 98.27 566.94 C 99.52 566.61 100.77 566.28 102.03 565.97 C 103.21 568.11 104.32 570.31 105.01 572.68 C 103.94 573.14 102.87 573.61 101.79 574.08 C 100.58 571.72 99.39 569.34 98.27 566.94 Z" />
<path fill="#24292e" opacity="1.00" d=" M 727.84 573.20 C 729.11 573.65 730.38 574.11 731.67 574.59 C 730.41 576.89 729.18 579.22 728.01 581.57 C 726.83 581.00 725.66 580.43 724.50 579.87 C 725.66 577.67 726.77 575.44 727.84 573.20 Z" />
<path fill="#24292e" opacity="1.00" d=" M 104.42 579.54 C 105.78 579.21 107.73 577.23 108.60 579.26 C 109.79 580.98 110.45 582.99 111.16 584.95 C 110.08 585.49 109.01 586.04 107.93 586.60 C 106.80 584.23 105.63 581.87 104.42 579.54 Z" />
<path fill="#24292e" opacity="1.00" d=" M 718.24 592.00 C 719.30 589.73 720.44 587.50 721.69 585.32 C 722.51 585.71 724.17 586.49 725.00 586.88 C 723.86 589.32 722.61 591.71 721.18 593.99 C 720.19 593.32 719.21 592.66 718.24 592.00 Z" />
<path fill="#24292e" opacity="1.00" d=" M 111.07 592.19 C 112.16 591.47 113.26 590.76 114.35 590.05 C 115.64 592.28 116.91 594.54 118.03 596.87 C 116.97 597.54 115.92 598.23 114.86 598.92 C 113.67 596.63 112.37 594.41 111.07 592.19 Z" />
<path fill="#24292e" opacity="1.00" d=" M 711.07 603.89 C 712.13 601.50 713.73 599.40 715.12 597.20 C 716.02 597.84 716.90 598.51 717.78 599.22 C 717.42 601.80 715.29 603.75 714.11 606.00 C 712.97 605.43 711.96 604.72 711.07 603.89 Z" />
<path fill="#24292e" opacity="1.00" d=" M 118.00 604.09 C 119.04 603.40 120.08 602.71 121.11 602.04 C 122.83 604.14 124.18 606.50 125.19 609.02 C 124.14 609.58 123.08 610.16 122.03 610.74 C 120.75 608.48 119.39 606.28 118.00 604.09 Z" />
<path fill="#24292e" opacity="1.00" d=" M 703.43 615.77 C 704.64 613.36 706.15 611.14 707.81 609.04 C 708.79 609.72 709.78 610.41 710.78 611.10 C 709.43 613.36 707.94 615.54 706.29 617.60 C 705.58 617.14 704.15 616.22 703.43 615.77 Z" />
<path fill="#24292e" opacity="1.00" d=" M 126.21 616.68 C 125.72 614.70 127.95 614.38 129.30 613.94 C 130.78 616.03 132.27 618.11 133.71 620.23 C 132.52 621.00 131.33 621.78 130.14 622.56 C 128.78 620.63 127.28 618.78 126.21 616.68 Z" />
<path fill="#24292e" opacity="1.00" d=" M 695.31 626.99 C 697.02 623.95 699.07 621.14 701.03 618.26 C 702.06 619.16 704.40 619.80 703.49 621.62 C 702.31 624.28 700.39 626.55 698.62 628.84 C 697.41 628.41 696.37 627.64 695.31 626.99 Z" />
<path fill="#24292e" opacity="1.00" d=" M 133.44 627.10 C 134.59 626.39 135.74 625.71 136.90 625.02 C 138.56 627.08 140.17 629.17 141.78 631.27 C 140.54 631.78 139.52 634.07 138.05 633.23 C 136.24 631.40 134.92 629.18 133.44 627.10 Z" />
<path fill="#24292e" opacity="1.00" d=" M 687.07 637.97 C 688.67 634.85 690.96 632.18 693.07 629.41 C 693.97 630.27 694.88 631.14 695.80 632.01 C 694.23 634.95 692.17 637.57 689.99 640.08 C 689.01 639.36 688.04 638.66 687.07 637.97 Z" />
<path fill="#24292e" opacity="1.00" d=" M 142.14 638.11 C 142.90 637.61 144.40 636.59 145.15 636.09 C 147.06 637.96 148.76 640.03 150.42 642.12 C 149.29 643.01 148.16 643.91 147.03 644.81 C 145.22 642.71 143.47 640.55 142.14 638.11 Z" />
<path fill="#24292e" opacity="1.00" d=" M 678.10 648.26 C 680.04 645.71 682.03 643.20 684.07 640.74 C 685.20 641.30 686.69 641.60 687.10 643.01 C 685.52 646.01 683.21 648.53 680.93 651.00 C 679.98 650.08 679.04 649.17 678.10 648.26 Z" />
<path fill="#24292e" opacity="1.00" d=" M 151.01 648.89 C 152.00 648.20 153.00 647.52 153.99 646.85 C 155.82 648.62 157.65 650.40 159.46 652.19 C 158.56 653.40 157.45 654.41 156.16 655.19 C 154.22 653.28 152.36 651.26 151.01 648.89 Z" />
<path fill="#24292e" opacity="1.00" d=" M 668.79 658.85 C 670.80 656.34 672.65 653.68 674.89 651.36 C 676.54 650.69 677.13 652.70 678.19 653.48 C 676.18 656.32 674.11 659.13 671.57 661.52 C 670.63 660.62 669.71 659.73 668.79 658.85 Z" />
<path fill="#24292e" opacity="1.00" d=" M 160.50 659.95 C 160.88 659.30 161.62 657.99 162.00 657.33 C 165.38 657.31 166.64 661.10 168.89 663.02 C 167.80 663.73 166.84 665.31 165.32 664.75 C 163.55 663.32 162.07 661.58 160.50 659.95 Z" />
<path fill="#24292e" opacity="1.00" d=" M 659.14 669.03 C 661.39 666.31 663.52 663.49 665.94 660.92 C 666.83 661.85 667.72 662.79 668.62 663.75 C 666.55 666.48 664.16 668.95 661.72 671.35 C 660.85 670.57 659.99 669.80 659.14 669.03 Z" />
<path fill="#24292e" opacity="1.00" d=" M 169.78 669.97 C 170.82 668.94 171.85 667.90 172.87 666.87 C 174.88 668.85 176.87 670.86 178.85 672.87 C 177.76 673.38 176.85 675.25 175.45 674.67 C 173.31 673.42 171.59 671.61 169.78 669.97 Z" />
<path fill="#24292e" opacity="1.00" d=" M 649.23 678.27 C 651.32 675.63 653.60 673.15 656.06 670.85 C 656.95 671.80 657.84 672.76 658.74 673.73 C 656.76 676.31 654.50 678.66 652.03 680.79 C 651.09 679.94 650.16 679.10 649.23 678.27 Z" />
<path fill="#24292e" opacity="1.00" d=" M 180.43 679.74 C 181.31 678.67 182.18 677.60 183.04 676.54 C 184.93 678.18 186.88 679.77 188.82 681.37 C 188.16 682.36 187.49 683.33 186.84 684.34 C 184.69 682.82 182.59 681.24 180.43 679.74 Z" />
<path fill="#24292e" opacity="1.00" d=" M 638.87 687.71 C 640.65 684.62 643.51 682.47 646.14 680.17 C 646.96 681.18 647.79 682.20 648.63 683.23 C 646.24 685.63 643.97 688.23 641.01 689.96 C 640.48 689.40 639.40 688.27 638.87 687.71 Z" />
<path fill="#24292e" opacity="1.00" d=" M 191.10 688.97 C 191.74 687.89 192.38 686.81 193.03 685.75 C 195.12 687.04 197.27 688.37 198.78 690.36 C 199.04 691.70 197.71 692.50 197.09 693.51 C 195.15 691.92 193.17 690.38 191.10 688.97 Z" />
<path fill="#24292e" opacity="1.00" d=" M 628.20 695.78 C 630.34 693.41 632.80 691.40 635.21 689.33 C 636.11 690.20 637.04 691.07 637.98 691.92 C 635.85 694.82 632.89 696.86 630.05 698.98 C 629.43 697.90 628.81 696.83 628.20 695.78 Z" />
<path fill="#24292e" opacity="1.00" d=" M 201.93 697.06 C 202.82 696.18 203.70 695.30 204.60 694.43 C 206.35 695.97 208.31 697.31 209.91 699.03 C 209.63 699.94 209.32 700.84 208.97 701.74 C 208.45 701.67 207.41 701.55 206.89 701.48 C 205.15 700.10 203.48 698.64 201.93 697.06 Z" />
<path fill="#24292e" opacity="1.00" d=" M 619.06 702.10 C 620.76 700.75 622.47 699.41 624.13 698.01 C 625.09 698.91 626.07 699.80 627.07 700.69 C 624.89 702.44 622.75 704.42 619.99 705.21 C 619.67 704.17 619.36 703.13 619.06 702.10 Z" />
<path fill="#24292e" opacity="1.00" d=" M 215.12 702.62 C 217.28 704.09 219.45 705.53 221.62 706.99 C 220.94 708.11 220.25 709.23 219.57 710.37 C 217.48 708.85 215.38 707.35 213.23 705.94 C 213.85 704.82 214.49 703.71 215.12 702.62 Z" />
<path fill="#24292e" opacity="1.00" d=" M 607.34 710.70 C 608.50 708.62 610.95 707.52 612.97 706.37 C 614.77 706.22 614.58 708.27 615.09 709.47 C 613.35 710.55 611.71 711.77 609.89 712.71 C 608.51 713.17 607.90 711.60 607.34 710.70 Z" />
<path fill="#24292e" opacity="1.00" d=" M 224.81 713.89 C 225.57 712.68 225.98 710.60 227.88 711.24 C 229.79 712.24 231.50 713.58 233.28 714.81 C 232.56 715.82 231.85 716.84 231.15 717.86 C 229.07 716.48 226.95 715.16 224.81 713.89 Z" />
<path fill="#24292e" opacity="1.00" d=" M 595.26 717.77 C 597.49 716.31 599.73 714.85 602.01 713.45 C 602.58 714.61 603.16 715.78 603.74 716.96 C 601.73 718.10 599.87 719.46 597.88 720.62 C 596.35 720.70 596.18 718.56 595.26 717.77 Z" />
<path fill="#24292e" opacity="1.00" d=" M 238.50 718.02 C 240.65 719.20 242.79 720.39 244.95 721.55 C 244.50 722.69 244.04 723.83 243.59 724.99 C 241.13 723.90 238.77 722.60 236.49 721.18 C 237.16 720.12 237.83 719.06 238.50 718.02 Z" />
<path fill="#24292e" opacity="1.00" d=" M 583.25 724.82 C 585.52 723.32 587.82 721.82 590.44 721.03 C 590.81 721.79 591.55 723.30 591.92 724.05 C 590.23 725.04 588.58 726.11 586.87 727.05 C 585.16 728.48 584.15 725.75 583.25 724.82 Z" />
<path fill="#24292e" opacity="1.00" d=" M 250.18 725.04 C 252.53 725.96 254.83 727.03 257.08 728.18 C 256.68 729.43 256.28 730.69 255.88 731.96 C 253.45 730.89 251.15 729.59 248.97 728.09 C 249.37 727.07 249.77 726.05 250.18 725.04 Z" />
<path fill="#24292e" opacity="1.00" d=" M 571.15 730.89 C 573.53 729.71 575.90 728.49 578.27 727.29 C 578.68 728.56 579.12 729.84 579.59 731.11 C 577.36 732.18 575.14 733.27 572.97 734.45 C 572.36 733.25 571.75 732.07 571.15 730.89 Z" />
<path fill="#24292e" opacity="1.00" d=" M 261.14 734.24 C 261.55 733.52 262.37 732.09 262.78 731.38 C 265.16 732.38 267.50 733.49 269.81 734.65 C 269.21 735.75 268.62 736.87 268.03 738.00 C 265.64 736.93 263.27 735.78 261.14 734.24 Z" />
<path fill="#24292e" opacity="1.00" d=" M 558.63 736.91 C 561.00 735.79 563.44 734.80 565.94 734.00 C 566.32 735.06 566.70 736.13 567.09 737.21 C 564.79 738.33 562.41 739.28 560.00 740.14 C 559.54 739.05 559.08 737.98 558.63 736.91 Z" />
<path fill="#24292e" opacity="1.00" d=" M 274.75 737.18 C 277.15 738.02 279.63 738.75 281.81 740.11 C 281.66 741.33 281.47 742.56 281.24 743.78 C 279.06 742.89 276.83 742.13 274.73 741.07 C 273.35 740.23 274.80 738.33 274.75 737.18 Z" />
<path fill="#24292e" opacity="1.00" d=" M 545.87 742.12 C 548.36 741.26 550.83 740.37 553.31 739.48 C 553.54 740.70 553.78 741.94 554.02 743.19 C 551.86 744.01 549.72 744.87 547.60 745.76 C 546.94 744.57 546.36 743.36 545.87 742.12 Z" />
<path fill="#24292e" opacity="1.00" d=" M 286.71 746.25 C 287.09 745.01 287.47 743.77 287.85 742.55 C 290.14 743.47 292.45 744.38 294.78 745.23 C 294.59 746.40 294.39 747.57 294.19 748.75 C 291.64 748.08 289.15 747.23 286.71 746.25 Z" />
<path fill="#24292e" opacity="1.00" d=" M 533.07 747.28 C 535.04 746.52 536.99 745.66 539.07 745.23 C 540.90 744.46 540.91 747.20 541.70 748.16 C 539.14 749.00 536.59 749.87 534.04 750.70 C 533.71 749.55 533.39 748.41 533.07 747.28 Z" />
<path fill="#24292e" opacity="1.00" d=" M 300.06 751.08 C 300.28 749.90 300.50 748.72 300.72 747.56 C 303.20 748.21 305.67 748.93 308.08 749.84 C 307.74 751.09 307.40 752.34 307.07 753.61 C 304.71 752.83 302.37 752.00 300.06 751.08 Z" />
<path fill="#24292e" opacity="1.00" d=" M 520.04 751.65 C 522.44 750.74 524.88 749.97 527.36 749.32 C 527.54 750.55 527.72 751.79 527.89 753.04 C 525.49 753.66 523.14 754.47 520.86 755.43 C 520.58 754.16 520.31 752.90 520.04 751.65 Z" />
<path fill="#24292e" opacity="1.00" d=" M 313.72 752.22 C 316.36 752.40 318.91 753.12 321.43 753.94 C 321.11 755.16 320.79 756.40 320.49 757.64 C 318.02 756.97 315.57 756.27 313.13 755.53 C 313.32 754.42 313.52 753.32 313.72 752.22 Z" />
<path fill="#24292e" opacity="1.00" d=" M 507.08 755.50 C 509.39 754.76 511.72 754.06 514.06 753.37 C 514.36 754.59 514.65 755.81 514.96 757.05 C 512.47 757.84 509.93 758.48 507.36 758.94 C 507.26 757.78 507.16 756.64 507.08 755.50 Z" />
<path fill="#24292e" opacity="1.00" d=" M 327.31 755.92 C 329.82 756.36 332.30 756.94 334.75 757.68 C 334.53 758.41 334.07 759.87 333.85 760.60 C 331.27 761.08 328.79 759.72 326.30 759.25 C 326.55 758.42 327.06 756.76 327.31 755.92 Z" />
<path fill="#24292e" opacity="1.00" d=" M 493.41 758.73 C 495.77 758.29 498.11 757.71 500.40 756.93 C 500.83 758.07 501.30 759.26 501.75 760.42 C 499.39 761.11 497.01 761.75 494.66 762.47 C 493.58 761.47 493.41 760.09 493.41 758.73 Z" />
<path fill="#24292e" opacity="1.00" d=" M 339.95 762.41 C 340.26 761.29 340.58 760.19 340.90 759.10 C 343.38 759.59 345.88 760.03 348.38 760.46 C 348.06 761.59 347.74 762.73 347.42 763.88 C 344.88 763.65 342.37 763.18 339.95 762.41 Z" />
<path fill="#24292e" opacity="1.00" d=" M 466.18 763.98 C 468.57 763.59 470.94 763.08 473.28 762.43 C 473.63 763.67 474.00 764.91 474.38 766.17 C 471.69 766.59 469.02 767.13 466.38 767.76 C 466.30 766.49 466.24 765.23 466.18 763.98 Z" />
<path fill="#24292e" opacity="1.00" d=" M 367.83 764.11 C 370.30 764.36 372.77 764.54 375.25 764.71 C 375.27 765.89 375.29 767.09 375.32 768.29 C 372.77 768.36 370.22 768.16 367.78 767.40 C 367.80 766.58 367.82 764.93 367.83 764.11 Z" />
<path fill="#24292e" opacity="1.00" d=" M 452.36 765.49 C 454.98 765.29 457.61 765.02 460.20 764.49 C 460.07 765.83 460.32 767.36 459.33 768.47 C 457.17 768.96 454.93 768.78 452.74 768.84 C 452.60 767.71 452.48 766.59 452.36 765.49 Z" />
<path fill="#24292e" opacity="1.00" d=" M 381.55 765.60 C 384.26 765.67 386.94 766.04 389.60 766.52 C 389.30 767.70 388.98 768.87 388.69 770.07 C 386.34 769.52 383.94 769.40 381.55 769.44 C 381.55 768.15 381.55 766.87 381.55 765.60 Z" />
<path fill="#24292e" opacity="1.00" d=" M 438.44 766.36 C 440.89 766.36 443.34 766.36 445.80 766.36 C 446.07 767.59 446.34 768.84 446.61 770.10 C 443.89 770.10 441.16 770.11 438.44 770.10 C 438.44 768.85 438.43 767.60 438.44 766.36 Z" />
<path fill="#24292e" opacity="1.00" d=" M 395.79 766.84 C 398.20 767.13 401.15 766.03 403.18 767.65 C 403.22 768.39 403.31 769.89 403.36 770.64 C 400.82 770.66 398.29 770.67 395.75 770.69 C 395.76 769.72 395.78 767.80 395.79 766.84 Z" />
<path fill="#24292e" opacity="1.00" d=" M 409.36 767.58 C 412.44 767.58 415.53 767.58 418.62 767.58 C 418.62 768.60 418.63 769.63 418.64 770.68 C 415.54 770.68 412.44 770.67 409.35 770.67 C 409.35 769.63 409.35 768.60 409.36 767.58 Z" />
<path fill="#24292e" opacity="1.00" d=" M 424.81 767.57 C 427.42 766.07 433.88 765.81 432.36 770.66 C 429.78 770.67 427.21 770.67 424.65 770.66 C 424.69 769.89 424.77 768.34 424.81 767.57 Z" />
</g>
<g id="#24292efe">
<path fill="#24292e" opacity="1.00" d=" M 761.59 398.49 C 762.85 398.47 764.13 398.45 765.41 398.43 C 765.63 400.88 765.96 403.33 766.29 405.77 C 765.03 405.78 763.78 405.80 762.54 405.82 C 762.41 403.35 762.09 400.90 761.59 398.49 Z" />
<path fill="#24292e" opacity="1.00" d=" M 479.75 761.60 C 482.18 761.18 484.60 760.65 487.02 760.12 C 487.34 761.26 487.66 762.39 488.00 763.55 C 485.38 764.57 482.57 764.94 479.77 764.70 C 479.76 763.65 479.75 762.62 479.75 761.60 Z" />
</g>
<g id="#24292efd">
<path fill="#24292e" opacity="1.00" d=" M 762.62 439.75 C 763.44 439.76 765.10 439.76 765.92 439.76 C 765.59 442.50 765.47 445.25 765.43 448.01 C 764.15 447.69 762.86 447.37 761.61 447.06 C 761.84 444.61 762.21 442.18 762.62 439.75 Z" />
</g>
<g id="#23282dfe">
<path fill="#23282d" opacity="1.00" d=" M 354.38 762.09 C 356.85 762.29 359.31 762.53 361.79 762.71 C 361.66 763.95 361.53 765.20 361.40 766.45 C 358.89 766.35 356.41 765.95 353.96 765.44 C 354.09 764.32 354.24 763.20 354.38 762.09 Z" />
</g>
</svg>
