<?xml version="1.0" encoding="UTF-8" ?>
<!DOCTYPE svg PUBLIC "-//W3C//DTD SVG 1.1//EN" "http://www.w3.org/Graphics/SVG/1.1/DTD/svg11.dtd">
<svg width="840pt" height="840pt" viewBox="0 0 840 840" version="1.1" xmlns="http://www.w3.org/2000/svg">
<g id="#0000001a">
<path fill="#000000" opacity="0.10" d=" M 0.00 0.00 L 8.11 0.00 C 8.26 2.67 8.24 5.35 7.91 8.00 C 5.28 8.29 2.64 8.29 0.00 8.11 L 0.00 0.00 Z" />
<path fill="#000000" opacity="0.10" d=" M 831.93 0.00 L 840.00 0.00 L 840.00 8.09 C 837.34 8.28 834.68 8.27 832.04 7.98 C 831.74 5.33 831.73 2.66 831.93 0.00 Z" />
<path fill="#000000" opacity="0.10" d=" M 0.00 831.90 C 2.67 831.72 5.34 831.76 8.00 832.04 C 8.28 834.68 8.29 837.34 8.11 840.00 L 0.00 840.00 L 0.00 831.90 Z" />
<path fill="#000000" opacity="0.10" d=" M 831.97 832.03 C 834.63 831.75 837.31 831.72 840.00 831.88 L 840.00 840.00 L 831.88 840.00 C 831.70 837.34 831.72 834.67 831.97 832.03 Z" />
</g>
<g id="#945f049f">
<path fill="#945f04" opacity="0.62" d=" M 406.08 57.18 C 410.50 52.50 415.00 47.85 419.78 43.53 C 424.68 48.38 429.86 53.06 434.25 58.36 C 433.77 58.37 432.81 58.37 432.33 58.37 C 428.25 54.19 424.24 49.90 419.90 45.98 C 418.68 46.12 418.05 47.43 417.16 48.13 C 413.82 51.60 410.29 54.89 407.05 58.45 L 406.42 58.46 L 406.08 57.18 Z" />
</g>
<g id="#95870398">
<path fill="#958703" opacity="0.60" d=" M 418.01 56.04 C 419.37 53.87 421.60 56.91 422.03 58.35 C 420.55 57.94 418.09 58.13 418.01 56.04 Z" />
</g>
<g id="#fff15aff">
<path fill="#fff15a" opacity="1.00" d=" M 415.99 58.51 C 416.66 57.69 417.34 56.87 418.01 56.04 C 418.09 58.13 420.55 57.94 422.03 58.35 C 420.02 58.56 418.00 58.63 415.99 58.51 Z" />
<path fill="#fff15a" opacity="1.00" d=" M 388.13 117.67 C 392.47 116.65 397.00 117.10 401.43 116.84 C 401.84 116.87 402.66 116.93 403.07 116.97 C 403.58 116.97 404.61 116.98 405.13 116.99 C 409.93 116.51 414.78 116.54 419.60 116.90 C 421.51 117.03 423.43 117.07 425.36 117.04 C 425.93 117.03 427.06 117.02 427.63 117.01 C 428.56 117.01 430.43 117.01 431.37 117.01 C 431.94 117.00 433.07 116.98 433.64 116.97 C 434.55 116.96 436.38 116.94 437.29 116.92 C 437.84 116.93 438.93 116.96 439.47 116.97 C 442.68 117.15 445.90 116.99 449.11 117.13 C 449.09 117.67 449.07 118.76 449.05 119.31 L 448.74 119.90 C 440.22 121.08 431.59 119.90 423.03 120.01 C 411.65 119.69 400.24 121.14 388.90 119.87 C 388.71 119.32 388.32 118.22 388.13 117.67 Z" />
</g>
<g id="#fbfbfbff">
<path fill="#fbfbfb" opacity="1.00" d=" M 405.30 58.41 C 405.50 58.10 405.88 57.48 406.08 57.18 L 406.42 58.46 L 407.05 58.45 C 410.03 58.38 413.01 58.34 415.99 58.51 C 418.00 58.63 420.02 58.56 422.03 58.35 C 425.46 58.40 428.89 58.43 432.33 58.37 C 432.81 58.37 433.77 58.37 434.25 58.36 C 438.19 58.43 442.13 58.36 446.08 58.43 C 446.03 62.30 446.15 66.17 446.02 70.03 C 446.00 70.46 445.95 71.30 445.93 71.73 C 444.94 73.69 443.79 75.57 442.62 77.43 C 445.11 77.05 444.05 79.58 444.41 80.86 C 448.98 85.35 453.41 89.97 458.10 94.34 C 457.87 94.57 457.41 95.01 457.18 95.23 C 452.11 89.91 446.78 84.85 441.82 79.42 C 437.62 85.53 434.37 92.27 430.52 98.62 C 428.97 101.57 426.77 104.23 425.94 107.50 C 427.39 107.48 428.85 107.46 430.31 107.43 C 430.32 108.09 430.33 109.40 430.34 110.06 C 429.72 110.08 428.49 110.11 427.87 110.13 C 427.81 112.42 427.72 114.72 427.63 117.01 C 427.06 117.02 425.93 117.03 425.36 117.04 C 425.27 114.59 425.18 112.14 424.99 109.70 C 422.34 111.35 421.69 114.71 419.60 116.90 C 414.78 116.54 409.93 116.51 405.13 116.99 C 413.72 101.83 422.69 86.83 431.07 71.54 C 422.34 71.61 413.61 71.43 404.88 71.60 L 404.16 71.62 C 403.39 71.22 402.60 71.15 401.78 71.39 C 401.11 71.46 399.78 71.62 399.12 71.70 C 398.98 70.03 398.90 68.36 398.90 66.69 C 398.90 66.14 398.90 65.05 398.90 64.50 C 398.91 62.48 398.90 60.45 398.90 58.43 C 401.03 58.40 403.16 58.39 405.30 58.41 Z" />
<path fill="#fbfbfb" opacity="1.00" d=" M 458.23 96.33 C 458.51 96.03 458.80 95.74 459.10 95.45 C 461.62 98.01 464.20 100.53 466.69 103.13 C 461.54 108.53 456.15 113.71 450.86 118.99 L 451.30 119.53 L 450.29 119.68 C 449.91 119.73 449.13 119.84 448.74 119.90 L 449.05 119.31 C 449.83 118.55 450.59 117.78 451.33 116.99 C 455.86 112.31 460.51 107.75 465.12 103.15 C 462.83 100.86 460.58 98.54 458.23 96.33 Z" />
</g>
<g id="#ab6d01e8">
<path fill="#ab6d01" opacity="0.91" d=" M 388.17 74.95 C 391.84 71.57 395.16 67.81 398.90 64.50 C 398.90 65.05 398.90 66.14 398.90 66.69 C 391.07 73.99 383.71 81.78 376.04 89.26 C 377.60 90.84 379.20 92.37 380.83 93.90 L 380.74 94.56 C 380.43 94.74 379.82 95.09 379.52 95.27 C 377.91 93.06 375.88 91.23 374.05 89.23 C 378.71 84.43 383.52 79.77 388.17 74.95 Z" />
</g>
<g id="#000000ff">
<path fill="#000000" opacity="1.00" d=" M 376.04 89.26 C 383.71 81.78 391.07 73.99 398.90 66.69 C 398.90 68.36 398.98 70.03 399.12 71.70 C 399.78 71.62 401.11 71.46 401.78 71.39 L 401.85 72.37 C 400.79 73.41 399.76 74.47 398.83 75.62 C 393.09 81.96 386.64 87.63 380.83 93.90 C 379.20 92.37 377.60 90.84 376.04 89.26 Z" />
<path fill="#000000" opacity="1.00" d=" M 402.74 73.12 C 403.09 72.74 403.81 71.99 404.16 71.62 L 404.88 71.60 C 404.67 72.16 404.25 73.27 404.03 73.82 C 403.71 73.65 403.06 73.29 402.74 73.12 Z" />
<path fill="#000000" opacity="1.00" d=" M 442.62 77.43 C 443.79 75.57 444.94 73.69 445.93 71.73 C 451.63 77.53 457.32 83.37 463.22 88.99 C 461.77 91.01 459.87 92.62 458.10 94.34 C 453.41 89.97 448.98 85.35 444.41 80.86 C 444.05 79.58 445.11 77.05 442.62 77.43 Z" />
<path fill="#000000" opacity="1.00" d=" M 379.71 79.04 C 382.76 78.20 385.18 75.96 388.17 74.95 C 383.52 79.77 378.71 84.43 374.05 89.23 C 375.88 91.23 377.91 93.06 379.52 95.27 C 376.59 97.69 374.13 100.60 371.30 103.12 C 376.88 108.64 382.37 114.25 387.98 119.74 C 320.63 126.72 255.97 157.24 207.94 204.99 C 199.33 213.37 191.36 222.37 183.81 231.71 C 169.10 239.59 154.44 247.59 139.93 255.83 C 140.08 271.27 139.98 286.72 139.98 302.16 C 139.98 303.37 140.12 304.57 140.42 305.75 C 125.73 341.91 117.96 380.90 118.00 419.95 C 117.94 459.03 125.72 498.06 140.42 534.26 C 140.12 535.44 139.97 536.63 139.98 537.85 C 139.99 548.40 140.07 558.96 139.94 569.51 C 128.30 563.11 116.66 556.72 105.01 550.37 C 105.04 443.63 104.90 336.89 105.08 230.15 C 194.68 181.09 284.16 131.79 373.73 82.68 C 373.95 82.62 374.38 82.52 374.60 82.47 C 376.88 82.58 378.16 80.33 379.71 79.04 Z" />
<path fill="#000000" opacity="1.00" d=" M 451.53 75.15 C 453.71 75.20 455.38 76.88 457.30 77.74 C 549.84 128.51 642.31 179.44 734.90 230.12 C 735.09 240.48 735.01 250.85 734.94 261.21 C 742.31 265.61 749.98 269.52 757.47 273.73 C 757.53 400.24 757.52 526.76 757.47 653.27 C 653.52 710.37 549.55 767.44 445.61 824.56 C 444.29 825.11 442.80 826.69 441.34 825.61 C 370.99 786.98 300.64 748.34 230.29 709.70 C 196.03 690.80 161.61 672.16 127.45 653.09 C 127.59 643.27 127.41 633.45 127.53 623.65 L 127.98 622.43 C 132.80 624.95 137.53 627.64 142.32 630.23 C 142.66 634.28 142.43 638.35 142.54 642.41 C 242.19 697.08 341.80 751.85 441.44 806.54 C 442.56 807.44 443.77 806.35 444.80 805.90 C 516.86 766.25 588.98 726.70 661.06 687.09 C 688.21 672.10 715.49 657.36 742.55 642.22 C 742.46 523.07 742.47 403.92 742.54 284.77 C 740.10 283.25 737.57 281.88 735.02 280.58 C 734.98 370.28 735.01 459.98 735.00 549.68 C 723.28 555.98 711.64 562.43 699.98 568.84 C 700.03 558.51 699.96 548.17 700.02 537.84 C 700.02 536.63 699.87 535.44 699.57 534.27 C 714.40 497.77 722.18 458.39 722.00 418.98 C 721.92 380.26 714.14 341.62 699.58 305.75 C 700.40 302.25 699.86 298.62 700.00 295.07 C 699.90 281.86 700.21 268.64 699.84 255.44 C 685.19 247.74 670.87 239.39 656.20 231.72 C 633.81 203.77 606.53 179.72 575.82 161.27 C 538.04 138.41 495.16 124.34 451.30 119.53 L 450.86 118.99 C 456.15 113.71 461.54 108.53 466.69 103.13 C 464.20 100.53 461.62 98.01 459.10 95.45 C 461.13 93.46 463.16 91.46 465.24 89.51 C 461.03 84.40 455.74 80.28 451.53 75.15 M 460.58 112.33 C 460.83 112.71 461.31 113.47 461.56 113.85 C 464.72 110.58 467.90 107.32 471.18 104.17 C 472.14 103.22 473.41 102.22 473.05 100.65 C 468.30 103.75 464.96 108.69 460.58 112.33 Z" />
<path fill="#000000" opacity="1.00" d=" M 45.99 242.56 C 56.82 242.44 67.65 242.53 78.48 242.52 C 78.51 247.68 78.53 252.84 78.47 258.00 C 67.65 257.96 56.84 257.98 46.02 257.99 C 45.97 252.85 46.01 247.71 45.99 242.56 Z" />
<path fill="#000000" opacity="1.00" d=" M 46.00 271.53 C 56.83 271.50 67.66 271.50 78.48 271.53 C 78.50 276.68 78.54 281.84 78.47 286.99 C 67.65 286.97 56.84 286.97 46.02 286.99 C 45.97 281.84 46.01 276.68 46.00 271.53 Z" />
<path fill="#000000" opacity="1.00" d=" M 46.00 299.55 C 56.82 299.47 67.64 299.54 78.47 299.51 C 78.53 304.68 78.51 309.84 78.48 315.00 C 67.66 314.98 56.83 315.00 46.01 314.99 C 45.99 309.84 46.01 304.70 46.00 299.55 Z" />
<path fill="#000000" opacity="1.00" d=" M 46.00 330.01 C 56.82 329.99 67.64 330.01 78.46 330.00 C 78.54 335.15 78.50 340.31 78.48 345.47 C 67.66 345.46 56.82 345.54 46.00 345.43 C 46.00 340.29 45.99 335.15 46.00 330.01 Z" />
<path fill="#000000" opacity="1.00" d=" M 47.56 364.72 C 48.56 364.61 49.56 364.50 50.56 364.40 C 50.70 365.86 50.34 367.78 52.22 368.33 C 53.00 369.92 52.73 372.11 50.67 372.50 C 50.67 373.79 50.67 375.09 50.66 376.39 C 52.84 376.49 52.49 378.71 52.59 380.25 C 52.10 380.57 51.12 381.19 50.63 381.50 C 50.64 382.19 50.68 383.56 50.69 384.24 C 49.91 384.23 48.36 384.21 47.58 384.20 C 47.54 382.12 47.56 380.04 47.62 377.97 C 46.63 378.60 45.65 379.26 44.69 379.95 C 44.14 376.69 44.69 373.55 47.58 371.64 C 47.55 369.33 47.54 367.02 47.56 364.72 Z" />
<path fill="#000000" opacity="1.00" d=" M 53.64 364.82 C 54.63 364.70 55.63 364.59 56.63 364.49 C 57.26 369.31 56.42 374.23 57.05 379.05 C 58.95 381.44 61.60 383.16 63.30 385.74 C 61.51 385.75 59.73 385.81 57.95 385.66 C 56.31 384.41 54.61 382.98 53.62 381.16 C 53.57 375.71 53.59 370.26 53.64 364.82 Z" />
<path fill="#000000" opacity="1.00" d=" M 58.85 364.67 C 60.20 364.67 61.56 364.68 62.92 364.70 C 63.51 368.17 61.19 373.24 65.10 375.27 C 65.22 372.23 65.16 369.18 65.19 366.14 C 66.71 366.25 68.63 365.80 69.62 367.31 C 73.32 371.42 77.95 374.80 81.16 379.29 C 79.43 379.35 77.70 379.36 75.98 379.37 C 73.41 376.98 71.00 374.43 68.44 372.04 C 68.41 374.24 68.40 376.45 68.36 378.65 C 69.95 380.34 71.76 381.85 73.07 383.78 C 71.19 383.74 69.30 383.68 67.41 383.63 C 66.05 382.30 64.85 380.73 63.13 379.83 C 63.02 380.40 62.81 381.53 62.70 382.10 C 61.66 381.08 60.64 380.04 59.66 378.97 C 59.65 377.84 59.65 376.71 59.64 375.60 L 58.02 375.81 C 58.11 374.18 58.19 372.56 58.27 370.95 C 60.29 369.41 59.91 366.64 58.85 364.67 Z" />
<path fill="#000000" opacity="1.00" d=" M 52.26 385.05 C 53.36 385.07 54.46 385.12 55.56 385.20 C 55.55 385.88 55.53 387.24 55.52 387.92 C 62.69 387.89 69.87 387.85 77.05 387.93 C 78.92 388.55 80.20 390.40 81.28 391.99 C 77.62 392.14 73.95 392.00 70.29 392.08 C 72.14 394.21 74.24 396.11 76.28 398.05 C 76.47 405.00 76.32 411.96 76.36 418.91 C 72.29 417.32 73.12 412.92 73.18 409.46 C 71.59 409.38 70.00 409.35 68.41 409.37 C 68.38 411.69 68.18 414.07 68.99 416.30 C 65.41 416.51 61.82 416.34 58.23 416.41 C 58.14 414.09 58.24 411.77 58.20 409.46 C 55.58 409.08 57.36 413.65 56.90 415.28 C 53.79 415.50 50.68 415.38 47.57 415.37 C 47.51 410.93 47.59 406.49 47.56 402.05 C 47.76 400.82 46.82 399.99 46.14 399.14 C 49.71 399.25 53.28 399.18 56.85 399.21 C 56.85 401.23 56.86 403.25 56.89 405.28 L 58.17 405.18 C 58.18 402.84 58.19 400.50 58.19 398.17 C 61.62 398.17 65.05 398.06 68.48 398.27 C 68.38 400.60 68.36 402.93 68.49 405.26 C 70.04 405.24 71.60 405.22 73.15 405.19 C 73.16 403.78 73.17 402.36 73.19 400.96 C 70.36 398.03 67.46 395.17 64.51 392.37 C 61.66 391.61 58.55 392.28 55.60 392.02 L 55.42 392.99 C 55.73 393.50 56.36 394.51 56.68 395.02 C 55.21 394.97 53.74 394.94 52.28 394.92 C 52.25 394.20 52.21 392.77 52.18 392.05 C 50.14 392.06 48.11 392.06 46.07 392.05 C 46.06 390.66 46.05 389.28 46.05 387.91 C 48.09 387.89 50.14 387.89 52.18 387.90 C 52.20 387.19 52.24 385.76 52.26 385.05 M 61.43 402.35 C 61.46 403.32 61.48 404.31 61.51 405.30 C 62.73 405.25 63.94 405.22 65.16 405.18 C 65.11 404.43 65.01 402.95 64.96 402.21 C 63.79 402.25 62.61 402.30 61.43 402.35 M 50.67 403.39 C 50.73 405.99 50.71 408.59 50.77 411.20 C 51.68 411.26 52.60 411.34 53.51 411.42 C 53.64 408.71 53.62 406.00 53.61 403.29 C 52.63 403.32 51.65 403.35 50.67 403.39 M 61.44 409.41 C 61.46 410.38 61.49 411.36 61.51 412.34 C 62.87 412.17 65.04 413.14 65.36 411.10 C 65.52 408.53 63.05 409.46 61.44 409.41 Z" />
<path fill="#000000" opacity="1.00" d=" M 47.51 418.56 C 51.18 418.27 54.86 418.48 58.53 418.42 C 58.53 420.47 58.52 422.52 58.50 424.57 C 59.28 424.61 60.85 424.67 61.64 424.71 C 61.68 422.62 61.68 420.54 61.64 418.46 C 64.64 418.40 67.65 418.43 70.65 418.40 C 75.11 422.82 79.79 427.03 83.96 431.72 C 82.10 431.68 80.25 431.65 78.40 431.68 C 75.15 428.73 72.16 425.52 68.96 422.52 C 67.61 422.54 66.26 422.56 64.91 422.59 C 64.79 424.73 64.82 426.93 65.87 428.87 C 62.40 428.55 58.91 428.75 55.43 428.65 C 55.46 426.62 55.46 424.58 55.45 422.56 C 53.88 422.54 52.31 422.55 50.73 422.57 C 50.70 428.72 50.76 434.87 50.70 441.02 C 52.14 442.59 53.59 444.17 55.34 445.40 C 55.10 441.30 56.56 436.62 54.27 432.98 C 61.07 433.18 67.88 432.92 74.67 433.15 C 74.54 440.44 74.63 447.74 74.61 455.04 C 74.88 455.66 75.43 456.89 75.71 457.51 C 69.02 457.36 62.32 457.40 55.63 457.49 C 55.38 455.62 55.43 453.74 55.53 451.88 C 54.11 450.22 52.65 448.60 50.86 447.34 C 50.57 453.29 50.78 459.25 50.72 465.21 C 51.86 466.64 53.10 467.90 52.35 470.02 C 50.24 470.66 50.69 472.85 50.61 474.55 C 51.08 474.87 52.03 475.51 52.51 475.83 C 52.74 477.49 52.49 479.25 50.76 479.97 C 50.75 481.26 50.75 482.54 50.76 483.84 C 49.97 483.88 48.40 483.95 47.62 483.99 C 47.48 481.39 47.50 478.78 47.63 476.18 C 46.66 476.96 45.68 477.71 44.68 478.47 C 44.60 476.64 44.61 474.83 44.68 473.02 C 45.63 472.12 46.56 471.22 47.50 470.32 C 47.60 453.07 47.57 435.81 47.51 418.56 M 58.62 437.07 C 58.42 442.48 58.54 447.90 58.56 453.32 C 62.87 453.32 67.18 453.35 71.49 453.30 C 71.45 447.88 71.62 442.47 71.40 437.06 C 67.14 437.13 62.88 437.12 58.62 437.07 Z" />
<path fill="#000000" opacity="1.00" d=" M 61.73 439.43 C 64.23 441.22 66.25 443.56 68.41 445.73 C 68.40 447.46 68.45 449.19 68.48 450.94 C 65.80 449.55 64.12 446.84 61.76 445.00 C 61.66 443.14 61.63 441.28 61.73 439.43 Z" />
<path fill="#000000" opacity="1.00" d=" M 52.23 460.25 C 53.75 460.30 55.28 460.32 56.80 460.33 C 56.99 469.16 56.70 477.99 56.95 486.82 C 59.59 486.79 62.23 486.80 64.87 486.87 C 64.55 486.36 63.93 485.33 63.61 484.81 C 65.41 484.77 67.22 484.77 69.02 484.80 C 71.44 487.24 73.91 489.63 76.35 492.06 C 76.39 498.25 76.34 504.45 76.38 510.65 C 74.28 510.70 72.18 510.68 70.08 510.64 C 71.64 512.94 73.94 514.58 75.78 516.65 C 73.78 516.56 71.75 516.81 69.77 516.43 C 67.77 514.62 65.95 512.63 63.99 510.77 C 60.73 510.61 57.46 510.83 54.20 510.67 C 51.88 508.91 49.53 506.86 48.00 504.34 C 49.85 504.37 51.70 504.43 53.54 504.50 C 54.17 505.17 54.79 505.85 55.41 506.54 C 56.87 506.61 58.34 506.67 59.80 506.72 C 57.76 504.61 55.62 502.60 53.59 500.49 C 53.61 497.27 53.64 494.05 53.56 490.84 C 51.06 490.84 48.56 490.84 46.06 490.85 C 46.06 489.50 46.05 488.16 46.05 486.82 C 48.58 486.81 51.11 486.81 53.63 486.77 C 53.57 478.88 53.62 470.99 53.61 463.10 C 53.78 461.93 52.82 461.11 52.23 460.25 M 56.86 490.87 C 56.95 493.24 56.54 495.68 57.06 498.02 C 59.86 501.04 62.84 503.93 65.89 506.71 C 68.32 506.66 70.75 506.67 73.18 506.59 C 73.11 502.73 73.26 498.88 73.12 495.03 C 72.17 493.30 70.49 492.15 69.09 490.82 C 65.02 490.89 60.94 490.83 56.86 490.87 Z" />
<path fill="#000000" opacity="1.00" d=" M 67.68 459.72 C 69.46 459.64 71.24 459.62 73.02 459.61 C 74.19 460.68 75.31 461.79 76.39 462.96 C 76.34 466.43 76.39 469.91 76.34 473.39 C 74.34 474.08 69.96 471.83 69.76 474.86 C 74.40 479.62 79.28 484.15 83.91 488.92 C 82.00 489.14 80.08 489.15 78.16 489.03 C 75.58 486.32 72.69 483.90 70.34 480.98 C 70.30 481.46 70.23 482.41 70.20 482.89 C 66.19 482.89 62.19 482.89 58.18 482.90 C 58.10 476.21 58.30 469.52 58.07 462.83 C 61.93 462.81 65.78 462.82 69.64 462.83 C 70.35 464.85 68.51 468.16 70.71 469.38 C 71.32 469.34 72.53 469.26 73.14 469.23 C 74.50 464.69 69.59 462.96 67.68 459.72 M 61.00 466.83 C 60.97 470.88 60.90 474.94 61.06 479.00 C 61.48 478.94 62.32 478.81 62.74 478.74 C 62.93 474.89 62.88 471.03 62.81 467.18 C 62.36 467.09 61.46 466.92 61.00 466.83 M 65.06 467.05 C 65.11 470.96 64.87 474.88 65.20 478.79 C 65.63 478.84 66.49 478.93 66.92 478.98 C 67.08 474.96 67.01 470.95 67.00 466.93 C 66.52 466.96 65.55 467.02 65.06 467.05 Z" />
<path fill="#000000" opacity="1.00" d=" M 58.67 496.15 C 60.62 496.26 62.70 495.80 64.56 496.46 C 66.74 498.42 68.73 500.59 70.84 502.64 C 68.84 502.50 66.74 502.91 64.80 502.37 C 62.64 500.41 60.55 498.37 58.67 496.15 Z" />
<path fill="#000000" opacity="1.00" d=" M 58.04 512.54 C 59.73 512.53 61.43 512.51 63.13 512.49 C 64.55 513.76 66.16 514.93 67.04 516.68 C 65.18 516.66 63.31 516.59 61.45 516.51 C 60.27 515.23 58.68 514.22 58.04 512.54 Z" />
<path fill="#000000" opacity="1.00" d=" M 46.46 514.79 C 47.89 514.75 49.33 514.80 50.76 514.95 C 50.81 515.79 50.92 517.47 50.97 518.31 C 54.21 519.68 54.79 516.56 54.17 514.13 C 55.00 514.14 56.66 514.18 57.48 514.20 C 57.47 515.60 57.46 517.01 57.45 518.43 C 64.25 518.41 71.05 518.28 77.84 518.50 C 79.14 519.88 80.47 521.24 81.80 522.60 C 78.42 522.59 75.02 522.31 71.65 522.73 C 72.64 524.03 73.91 525.10 74.79 526.50 C 72.87 526.52 70.96 526.47 69.05 526.35 C 67.76 525.05 66.66 523.49 65.06 522.57 C 62.52 522.44 59.98 522.56 57.44 522.53 C 57.59 523.49 57.88 525.41 58.03 526.37 C 56.74 526.50 55.45 526.49 54.17 526.33 C 54.60 524.14 54.20 521.63 51.41 522.43 C 51.40 523.17 51.39 524.64 51.38 525.37 C 50.59 525.27 49.01 525.07 48.22 524.97 C 47.47 521.61 48.72 517.69 46.46 514.79 Z" />
<path fill="#000000" opacity="1.00" d=" M 422.36 653.04 C 436.59 660.63 450.63 668.58 464.85 676.19 C 465.26 686.95 464.48 697.77 465.24 708.50 C 464.45 715.80 465.28 723.18 464.77 730.51 C 450.73 737.93 436.92 745.76 422.94 753.30 C 424.20 749.93 426.68 747.22 428.16 743.96 C 429.14 740.18 429.91 736.35 430.43 732.48 C 436.83 730.71 443.10 727.38 447.11 721.95 C 443.63 720.84 442.62 715.45 446.12 713.76 C 448.13 712.50 450.13 714.12 451.89 715.02 C 454.17 708.33 455.38 700.97 453.19 694.08 C 450.98 686.21 445.53 678.33 437.23 676.26 C 441.70 680.62 443.91 686.87 444.22 693.02 C 444.50 696.88 442.79 700.42 441.98 704.11 C 445.42 702.58 445.33 698.15 447.84 695.94 C 447.47 707.66 439.33 719.12 427.46 721.35 C 430.33 716.29 428.48 710.42 428.62 704.93 C 428.87 703.23 427.52 702.12 426.54 700.98 C 425.73 699.32 427.85 698.39 428.22 696.98 C 428.26 695.31 428.12 693.65 428.20 692.00 C 429.84 690.25 431.91 688.94 433.37 687.00 C 435.16 688.62 436.31 690.81 438.13 692.41 C 437.78 687.00 434.77 682.31 431.85 677.94 C 433.69 674.25 434.67 670.26 435.95 666.37 C 435.49 666.29 434.57 666.12 434.11 666.04 C 430.81 664.60 430.26 671.01 427.00 669.06 C 425.79 667.21 424.30 665.66 422.28 664.73 C 422.31 660.83 422.32 656.93 422.36 653.04 Z" />
<path fill="#000000" opacity="1.00" d=" M 375.33 676.41 C 389.43 668.85 403.41 661.06 417.45 653.39 C 418.00 657.12 417.64 660.91 417.63 664.67 C 414.64 665.39 414.15 669.51 411.02 669.42 C 409.21 667.43 406.96 664.11 404.04 666.77 C 404.61 668.28 405.20 669.80 405.79 671.33 C 401.14 673.79 396.28 676.36 393.15 680.76 C 396.47 681.77 397.77 686.61 394.69 688.64 C 392.61 690.31 390.41 688.51 388.29 688.03 C 387.17 692.61 385.45 697.18 385.88 701.98 C 386.80 712.27 392.52 723.22 402.89 726.59 C 398.50 721.44 395.83 714.77 396.19 707.96 C 396.29 704.76 397.65 701.83 398.25 698.73 C 395.12 700.10 394.95 703.99 392.90 706.20 C 392.59 695.69 399.91 685.50 409.88 682.19 C 409.21 684.19 407.62 685.71 406.90 687.70 C 408.64 689.07 410.35 690.48 411.95 692.02 C 411.90 694.39 411.10 697.12 413.07 698.98 C 414.99 700.86 411.35 702.10 411.44 704.06 C 411.10 708.93 410.83 713.82 411.04 718.71 C 407.18 716.72 404.81 713.04 402.02 709.93 C 402.64 715.94 405.82 721.23 409.51 725.86 C 409.25 726.36 408.72 727.35 408.45 727.85 C 409.91 733.20 410.30 738.78 411.87 744.10 C 413.44 747.14 415.59 749.86 416.99 753.00 C 403.17 745.36 389.33 737.73 375.42 730.24 C 375.21 723.60 375.45 716.94 375.29 710.30 C 375.31 699.00 375.24 687.71 375.33 676.41 Z" />
</g>
<g id="#bb7700cd">
<path fill="#bb7700" opacity="0.80" d=" M 374.60 82.47 C 378.32 77.84 382.64 73.54 387.22 69.74 L 387.29 70.92 C 385.27 74.00 382.07 76.18 379.71 79.04 C 378.16 80.33 376.88 82.58 374.60 82.47 Z" />
</g>
<g id="#bc7302f9">
<path fill="#bc7302" opacity="0.98" d=" M 446.02 70.03 C 447.72 71.88 449.71 73.42 451.53 75.15 C 455.74 80.28 461.03 84.40 465.24 89.51 C 463.16 91.46 461.13 93.46 459.10 95.45 C 458.80 95.74 458.51 96.03 458.23 96.33 C 453.24 101.64 447.90 106.61 442.91 111.92 C 441.85 112.85 440.71 113.67 439.59 114.50 C 439.61 113.98 439.65 112.95 439.67 112.43 C 445.70 106.90 451.24 100.86 457.18 95.23 C 457.41 95.01 457.87 94.57 458.10 94.34 C 459.87 92.62 461.77 91.01 463.22 88.99 C 457.32 83.37 451.63 77.53 445.93 71.73 C 445.95 71.30 446.00 70.46 446.02 70.03 Z" />
</g>
<g id="#e0d777ff">
<path fill="#e0d777" opacity="1.00" d=" M 401.78 71.39 C 402.60 71.15 403.39 71.22 404.16 71.62 C 403.81 71.99 403.09 72.74 402.74 73.12 L 401.85 72.37 L 401.78 71.39 Z" />
</g>
<g id="#464646ff">
<path fill="#464646" opacity="1.00" d=" M 404.88 71.60 C 413.61 71.43 422.34 71.61 431.07 71.54 C 422.69 86.83 413.72 101.83 405.13 116.99 C 404.61 116.98 403.58 116.97 403.07 116.97 L 402.32 116.09 C 410.33 102.01 418.82 88.18 426.49 73.90 C 419.01 73.61 411.52 73.97 404.03 73.82 C 404.25 73.27 404.67 72.16 404.88 71.60 Z" />
<path fill="#464646" opacity="1.00" d=" M 388.14 120.95 C 389.66 120.60 391.29 120.62 392.83 120.91 C 392.43 122.34 388.34 122.68 388.14 120.95 Z" />
<path fill="#464646" opacity="1.00" d=" M 446.14 120.87 C 447.37 120.52 448.61 120.54 449.84 120.92 C 449.79 122.48 446.15 122.41 446.14 120.87 Z" />
</g>
<g id="#ca654bff">
<path fill="#ca654b" opacity="1.00" d=" M 398.83 75.62 C 399.76 74.47 400.79 73.41 401.85 72.37 L 402.74 73.12 C 403.06 73.29 403.71 73.65 404.03 73.82 C 411.52 73.97 419.01 73.61 426.49 73.90 C 418.82 88.18 410.33 102.01 402.32 116.09 C 401.48 115.08 400.63 114.07 399.76 113.09 C 406.91 100.74 414.12 88.41 420.95 75.87 C 414.00 75.44 407.03 75.75 400.08 75.66 L 398.83 75.62 Z" />
</g>
<g id="#ffffffff">
<path fill="#ffffff" opacity="1.00" d=" M 380.83 93.90 C 386.64 87.63 393.09 81.96 398.83 75.62 L 400.08 75.66 C 393.83 81.90 387.80 88.36 381.39 94.43 C 381.09 94.73 380.51 95.31 380.22 95.61 C 377.93 98.22 375.41 100.63 372.96 103.09 C 377.36 107.67 382.02 112.00 386.35 116.64 C 386.79 116.90 387.69 117.41 388.13 117.67 C 388.32 118.22 388.71 119.32 388.90 119.87 C 388.67 119.84 388.21 119.77 387.98 119.74 C 382.37 114.25 376.88 108.64 371.30 103.12 C 374.13 100.60 376.59 97.69 379.52 95.27 C 379.82 95.09 380.43 94.74 380.74 94.56 L 380.83 93.90 Z" />
<path fill="#ffffff" opacity="1.00" d=" M 465.24 708.50 C 466.18 708.89 466.97 709.48 467.63 710.27 C 467.19 717.51 467.61 724.77 467.39 732.02 C 453.01 740.63 438.01 748.20 423.42 756.45 C 421.68 757.67 419.20 757.75 417.42 756.60 C 402.69 748.22 387.51 740.57 372.97 731.90 C 372.53 724.36 372.92 716.74 372.78 709.18 C 373.41 709.46 374.67 710.02 375.29 710.30 C 375.45 716.94 375.21 723.60 375.42 730.24 C 389.33 737.73 403.17 745.36 416.99 753.00 C 418.26 754.17 418.69 756.01 420.00 757.19 C 421.01 755.92 421.76 754.42 422.94 753.30 C 436.92 745.76 450.73 737.93 464.77 730.51 C 465.28 723.18 464.45 715.80 465.24 708.50 Z" />
</g>
<g id="#b92806ff">
<path fill="#b92806" opacity="1.00" d=" M 400.08 75.66 C 407.03 75.75 414.00 75.44 420.95 75.87 C 414.12 88.41 406.91 100.74 399.76 113.09 C 393.81 106.70 387.24 100.91 381.39 94.43 C 387.80 88.36 393.83 81.90 400.08 75.66 Z" />
</g>
<g id="#be3006ff">
<path fill="#be3006" opacity="1.00" d=" M 430.52 98.62 C 434.37 92.27 437.62 85.53 441.82 79.42 C 446.78 84.85 452.11 89.91 457.18 95.23 C 451.24 100.86 445.70 106.90 439.67 112.43 C 439.65 110.74 439.62 109.05 439.59 107.36 C 438.71 107.44 437.83 107.52 436.96 107.60 C 436.94 108.45 436.91 110.16 436.89 111.02 C 436.15 110.98 434.68 110.91 433.94 110.88 C 433.93 110.05 433.92 108.40 433.91 107.57 C 433.22 107.56 431.84 107.54 431.15 107.53 C 431.19 110.69 431.24 113.85 431.37 117.01 C 430.43 117.01 428.56 117.01 427.63 117.01 C 427.72 114.72 427.81 112.42 427.87 110.13 C 428.49 110.11 429.72 110.08 430.34 110.06 C 430.33 109.40 430.32 108.09 430.31 107.43 C 428.85 107.46 427.39 107.48 425.94 107.50 C 426.77 104.23 428.97 101.57 430.52 98.62 M 446.91 99.82 C 444.85 102.27 441.80 104.07 440.62 107.14 L 441.84 106.92 C 445.50 103.58 448.89 99.92 452.46 96.47 C 452.64 96.05 452.99 95.22 453.17 94.80 C 450.41 95.35 448.94 98.12 446.91 99.82 Z" />
</g>
<g id="#dd7f05ff">
<path fill="#dd7f05" opacity="1.00" d=" M 380.22 95.61 C 380.51 95.31 381.09 94.73 381.39 94.43 C 387.24 100.91 393.81 106.70 399.76 113.09 C 400.63 114.07 401.48 115.08 402.32 116.09 L 403.07 116.97 C 402.66 116.93 401.84 116.87 401.43 116.84 C 400.34 115.90 399.29 114.91 398.28 113.89 C 392.30 107.76 386.32 101.62 380.22 95.61 Z" />
</g>
<g id="#e37f02ff">
<path fill="#e37f02" opacity="1.00" d=" M 446.91 99.82 C 448.94 98.12 450.41 95.35 453.17 94.80 C 452.99 95.22 452.64 96.05 452.46 96.47 C 448.89 99.92 445.50 103.58 441.84 106.92 L 440.62 107.14 C 441.80 104.07 444.85 102.27 446.91 99.82 Z" />
</g>
<g id="#bb2906ff">
<path fill="#bb2906" opacity="1.00" d=" M 372.96 103.09 C 375.41 100.63 377.93 98.22 380.22 95.61 C 386.32 101.62 392.30 107.76 398.28 113.89 C 396.63 113.93 394.99 113.99 393.36 113.92 C 389.33 109.70 385.53 105.03 380.69 101.76 C 380.93 103.16 381.74 104.30 382.79 105.22 C 385.66 107.96 388.44 110.81 391.15 113.72 C 389.34 114.32 387.82 115.47 386.35 116.64 C 382.02 112.00 377.36 107.67 372.96 103.09 Z" />
</g>
<g id="#c53706ff">
<path fill="#c53706" opacity="1.00" d=" M 442.91 111.92 C 447.90 106.61 453.24 101.64 458.23 96.33 C 460.58 98.54 462.83 100.86 465.12 103.15 C 460.51 107.75 455.86 112.31 451.33 116.99 C 449.10 114.45 446.00 113.07 442.91 111.92 Z" />
</g>
<g id="#996200ff">
<path fill="#996200" opacity="1.00" d=" M 460.58 112.33 C 464.96 108.69 468.30 103.75 473.05 100.65 C 473.41 102.22 472.14 103.22 471.18 104.17 C 467.90 107.32 464.72 110.58 461.56 113.85 C 461.31 113.47 460.83 112.71 460.58 112.33 Z" />
</g>
<g id="#e38302ff">
<path fill="#e38302" opacity="1.00" d=" M 380.69 101.76 C 385.53 105.03 389.33 109.70 393.36 113.92 C 392.81 113.87 391.70 113.77 391.15 113.72 C 388.44 110.81 385.66 107.96 382.79 105.22 C 381.74 104.30 380.93 103.16 380.69 101.76 Z" />
</g>
<g id="#f9fcfcff">
<path fill="#f9fcfc" opacity="1.00" d=" M 436.96 107.60 C 437.83 107.52 438.71 107.44 439.59 107.36 C 439.62 109.05 439.65 110.74 439.67 112.43 C 439.65 112.95 439.61 113.98 439.59 114.50 C 439.56 115.11 439.50 116.35 439.47 116.97 C 438.93 116.96 437.84 116.93 437.29 116.92 C 437.24 116.10 437.14 114.46 437.09 113.63 C 436.27 113.64 434.63 113.66 433.81 113.66 C 433.77 114.49 433.68 116.15 433.64 116.97 C 433.07 116.98 431.94 117.00 431.37 117.01 C 431.24 113.85 431.19 110.69 431.15 107.53 C 431.84 107.54 433.22 107.56 433.91 107.57 C 433.92 108.40 433.93 110.05 433.94 110.88 C 434.68 110.91 436.15 110.98 436.89 111.02 C 436.91 110.16 436.94 108.45 436.96 107.60 Z" />
</g>
<g id="#ab310dff">
<path fill="#ab310d" opacity="1.00" d=" M 419.60 116.90 C 421.69 114.71 422.34 111.35 424.99 109.70 C 425.18 112.14 425.27 114.59 425.36 117.04 C 423.43 117.07 421.51 117.03 419.60 116.90 Z" />
</g>
<g id="#a8350dff">
<path fill="#a8350d" opacity="1.00" d=" M 439.59 114.50 C 440.71 113.67 441.85 112.85 442.91 111.92 C 446.00 113.07 449.10 114.45 451.33 116.99 C 450.59 117.78 449.83 118.55 449.05 119.31 C 449.07 118.76 449.09 117.67 449.11 117.13 C 445.90 116.99 442.68 117.15 439.47 116.97 C 439.50 116.35 439.56 115.11 439.59 114.50 Z" />
</g>
<g id="#a22e0eff">
<path fill="#a22e0e" opacity="1.00" d=" M 386.35 116.64 C 387.82 115.47 389.34 114.32 391.15 113.72 C 391.70 113.77 392.81 113.87 393.36 113.92 C 394.99 113.99 396.63 113.93 398.28 113.89 C 399.29 114.91 400.34 115.90 401.43 116.84 C 397.00 117.10 392.47 116.65 388.13 117.67 C 387.69 117.41 386.79 116.90 386.35 116.64 Z" />
</g>
<g id="#a63910ff">
<path fill="#a63910" opacity="1.00" d=" M 433.81 113.66 C 434.63 113.66 436.27 113.64 437.09 113.63 C 437.14 114.46 437.24 116.10 437.29 116.92 C 436.38 116.94 434.55 116.96 433.64 116.97 C 433.68 116.15 433.77 114.49 433.81 113.66 Z" />
</g>
<g id="#f1112fff">
<path fill="#f1112f" opacity="1.00" d=" M 207.94 204.99 C 255.97 157.24 320.63 126.72 387.98 119.74 C 388.21 119.77 388.67 119.84 388.90 119.87 C 400.24 121.14 411.65 119.69 423.03 120.01 C 431.59 119.90 440.22 121.08 448.74 119.90 C 449.13 119.84 449.91 119.73 450.29 119.68 L 451.30 119.53 C 495.16 124.34 538.04 138.41 575.82 161.27 C 606.53 179.72 633.81 203.77 656.20 231.72 C 674.05 254.20 688.73 279.18 699.58 305.75 C 714.14 341.62 721.92 380.26 722.00 418.98 C 722.18 458.39 714.40 497.77 699.57 534.27 C 692.60 551.15 684.28 567.50 674.33 582.81 C 682.96 578.31 691.43 573.50 699.98 568.84 C 711.64 562.43 723.28 555.98 735.00 549.68 C 734.98 569.71 735.04 589.75 734.97 609.79 C 629.96 667.40 525.00 725.11 419.99 782.74 C 327.44 731.91 234.87 681.09 142.32 630.23 C 137.53 627.64 132.80 624.95 127.98 622.43 C 120.38 618.17 112.74 613.95 105.06 609.84 C 104.93 590.01 105.03 570.19 105.01 550.37 C 116.66 556.72 128.30 563.11 139.94 569.51 C 148.68 574.33 157.41 579.17 166.21 583.88 C 156.22 568.11 147.47 551.55 140.42 534.26 C 125.72 498.06 117.94 459.03 118.00 419.95 C 117.96 380.90 125.73 341.91 140.42 305.75 C 151.27 279.18 165.96 254.19 183.81 231.71 C 191.36 222.37 199.33 213.37 207.94 204.99 M 388.14 120.95 C 388.34 122.68 392.43 122.34 392.83 120.91 C 391.29 120.62 389.66 120.60 388.14 120.95 M 446.14 120.87 C 446.15 122.41 449.79 122.48 449.84 120.92 C 448.61 120.54 447.37 120.52 446.14 120.87 M 353.08 132.31 C 310.93 142.14 271.03 161.37 237.00 188.11 C 177.60 234.41 137.81 304.62 127.44 379.12 C 116.73 452.85 135.86 530.31 179.18 590.85 C 186.11 594.99 193.36 598.58 200.36 602.60 C 200.86 606.62 203.06 610.23 205.67 613.25 C 210.08 616.58 214.35 620.16 219.21 622.82 C 223.81 626.23 229.32 628.46 235.02 629.06 C 238.21 628.73 241.33 627.82 244.32 626.66 C 254.99 632.63 265.93 638.22 276.41 644.46 C 278.02 649.60 279.44 654.80 280.99 659.96 C 311.57 676.39 342.14 692.85 372.80 709.13 C 372.77 697.75 372.80 686.36 372.78 674.98 C 375.05 673.01 377.84 671.83 380.44 670.37 C 392.78 663.64 405.07 656.81 417.44 650.13 C 417.36 648.57 417.30 647.03 417.23 645.49 C 419.09 645.52 420.94 645.51 422.81 645.46 C 422.84 646.90 421.90 648.55 422.77 649.88 C 435.52 656.86 448.28 663.85 461.03 670.85 C 463.24 672.08 465.65 673.07 467.47 674.89 C 467.19 685.75 467.89 696.69 467.12 707.50 C 467.49 708.07 467.86 708.66 468.24 709.25 L 468.90 708.22 C 498.99 692.23 529.00 676.09 559.01 659.96 C 560.70 654.37 562.19 648.73 564.02 643.19 C 595.78 625.92 627.43 608.42 659.20 591.16 C 660.20 590.51 661.44 590.12 662.15 589.10 C 692.11 546.19 710.43 495.24 714.54 443.06 C 718.36 395.84 710.28 347.76 691.67 304.23 C 676.92 269.56 655.49 237.78 628.98 211.02 C 603.64 185.93 573.81 165.35 541.27 150.74 C 482.82 124.20 415.57 117.42 353.08 132.31 M 422.36 653.04 C 422.32 656.93 422.31 660.83 422.28 664.73 C 424.30 665.66 425.79 667.21 427.00 669.06 C 430.26 671.01 430.81 664.60 434.11 666.04 C 434.57 666.12 435.49 666.29 435.95 666.37 C 434.67 670.26 433.69 674.25 431.85 677.94 C 434.77 682.31 437.78 687.00 438.13 692.41 C 436.31 690.81 435.16 688.62 433.37 687.00 C 431.91 688.94 429.84 690.25 428.20 692.00 C 428.12 693.65 428.26 695.31 428.22 696.98 C 427.85 698.39 425.73 699.32 426.54 700.98 C 427.52 702.12 428.87 703.23 428.62 704.93 C 428.48 710.42 430.33 716.29 427.46 721.35 C 439.33 719.12 447.47 707.66 447.84 695.94 C 445.33 698.15 445.42 702.58 441.98 704.11 C 442.79 700.42 444.50 696.88 444.22 693.02 C 443.91 686.87 441.70 680.62 437.23 676.26 C 445.53 678.33 450.98 686.21 453.19 694.08 C 455.38 700.97 454.17 708.33 451.89 715.02 C 450.13 714.12 448.13 712.50 446.12 713.76 C 442.62 715.45 443.63 720.84 447.11 721.95 C 443.10 727.38 436.83 730.71 430.43 732.48 C 429.91 736.35 429.14 740.18 428.16 743.96 C 426.68 747.22 424.20 749.93 422.94 753.30 C 421.76 754.42 421.01 755.92 420.00 757.19 C 418.69 756.01 418.26 754.17 416.99 753.00 C 415.59 749.86 413.44 747.14 411.87 744.10 C 410.30 738.78 409.91 733.20 408.45 727.85 C 408.72 727.35 409.25 726.36 409.51 725.86 C 405.82 721.23 402.64 715.94 402.02 709.93 C 404.81 713.04 407.18 716.72 411.04 718.71 C 410.83 713.82 411.10 708.93 411.44 704.06 C 411.35 702.10 414.99 700.86 413.07 698.98 C 411.10 697.12 411.90 694.39 411.95 692.02 C 410.35 690.48 408.64 689.07 406.90 687.70 C 407.62 685.71 409.21 684.19 409.88 682.19 C 399.91 685.50 392.59 695.69 392.90 706.20 C 394.95 703.99 395.12 700.10 398.25 698.73 C 397.65 701.83 396.29 704.76 396.19 707.96 C 395.83 714.77 398.50 721.44 402.89 726.59 C 392.52 723.22 386.80 712.27 385.88 701.98 C 385.45 697.18 387.17 692.61 388.29 688.03 C 390.41 688.51 392.61 690.31 394.69 688.64 C 397.77 686.61 396.47 681.77 393.15 680.76 C 396.28 676.36 401.14 673.79 405.79 671.33 C 405.20 669.80 404.61 668.28 404.04 666.77 C 406.96 664.11 409.21 667.43 411.02 669.42 C 414.15 669.51 414.64 665.39 417.63 664.67 C 417.64 660.91 418.00 657.12 417.45 653.39 C 403.41 661.06 389.43 668.85 375.33 676.41 C 375.24 687.71 375.31 699.00 375.29 710.30 C 374.67 710.02 373.41 709.46 372.78 709.18 C 372.92 716.74 372.53 724.36 372.97 731.90 C 387.51 740.57 402.69 748.22 417.42 756.60 C 419.20 757.75 421.68 757.67 423.42 756.45 C 438.01 748.20 453.01 740.63 467.39 732.02 C 467.61 724.77 467.19 717.51 467.63 710.27 C 466.97 709.48 466.18 708.89 465.24 708.50 C 464.48 697.77 465.26 686.95 464.85 676.19 C 450.63 668.58 436.59 660.63 422.36 653.04 Z" />
</g>
<g id="#0000008d">
<path fill="#000000" opacity="0.55" d=" M 61.00 466.83 C 61.46 466.92 62.36 467.09 62.81 467.18 C 62.88 471.03 62.93 474.89 62.74 478.74 C 62.32 478.81 61.48 478.94 61.06 479.00 C 60.90 474.94 60.97 470.88 61.00 466.83 Z" />
</g>
<g id="#00000083">
<path fill="#000000" opacity="0.51" d=" M 65.06 467.05 C 65.55 467.02 66.52 466.96 67.00 466.93 C 67.01 470.95 67.08 474.96 66.92 478.98 C 66.49 478.93 65.63 478.84 65.20 478.79 C 64.87 474.88 65.11 470.96 65.06 467.05 Z" />
</g>
<g id="#de0f2bec">
<path fill="#de0f2b" opacity="0.93" d=" M 200.36 602.60 C 202.66 603.88 204.98 605.15 207.29 606.43 C 208.14 609.97 211.64 611.62 214.24 613.74 C 219.70 617.59 225.46 621.43 232.12 622.78 C 233.51 623.10 234.90 622.52 236.27 622.28 C 238.96 623.73 241.65 625.16 244.32 626.66 C 241.33 627.82 238.21 628.73 235.02 629.06 C 229.32 628.46 223.81 626.23 219.21 622.82 C 214.35 620.16 210.08 616.58 205.67 613.25 C 203.06 610.23 200.86 606.62 200.36 602.60 Z" />
</g>
<g id="#c80e27d4">
<path fill="#c80e27" opacity="0.83" d=" M 207.29 606.43 C 216.97 611.68 226.62 616.98 236.27 622.28 C 234.90 622.52 233.51 623.10 232.12 622.78 C 225.46 621.43 219.70 617.59 214.24 613.74 C 211.64 611.62 208.14 609.97 207.29 606.43 Z" />
</g>
</svg>
