<?xml version="1.0" encoding="utf-8"?>
<!-- Generator: Adobe Illustrator 25.1.0, SVG Export Plug-In . SVG Version: 6.00 Build 0)  -->
<svg version="1.1" id="_图层_1" xmlns="http://www.w3.org/2000/svg" xmlns:xlink="http://www.w3.org/1999/xlink" x="0px" y="0px"
	 viewBox="0 0 140 140" style="enable-background:new 0 0 140 140;" xml:space="preserve">
<style type="text/css">
	.st0{fill:url(#SVGID_1_);enable-background:new    ;}
	.st1{fill:url(#SVGID_2_);enable-background:new    ;}
	.st2{fill:#FEFEFE;}
	.st3{fill:#FFFFFF;}
	.st4{fill:url(#SVGID_3_);}
</style>
<image style="display:none;overflow:visible;enable-background:new    ;" width="156" height="79" xlink:href="19B9D479.png"  transform="matrix(1 0 0 1 -96.9888 143.6186)">
</image>
<g>
	<linearGradient id="SVGID_1_" gradientUnits="userSpaceOnUse" x1="70" y1="17.9551" x2="70" y2="124.1146">
		<stop  offset="0" style="stop-color:#ADADC9"/>
		<stop  offset="0.3532" style="stop-color:#918FC9"/>
		<stop  offset="0.4526" style="stop-color:#6A4DB6"/>
		<stop  offset="0.6326" style="stop-color:#000000"/>
	</linearGradient>
	<path class="st0" d="M70,16.9c-29.3,0-53.1,23.8-53.1,53.1s23.8,53.1,53.1,53.1c29.3,0,53.1-23.8,53.1-53.1S99.3,16.9,70,16.9z
		 M70,119.4c-27.3,0-49.4-22.1-49.4-49.4S42.7,20.6,70,20.6c27.3,0,49.4,22.1,49.4,49.4S97.3,119.4,70,119.4z"/>
	
		<linearGradient id="SVGID_2_" gradientUnits="userSpaceOnUse" x1="20.6281" y1="70" x2="119.3719" y2="70" gradientTransform="matrix(6.123234e-17 -1 1 6.123234e-17 5.143411e-06 140)">
		<stop  offset="0" style="stop-color:#ADADC9"/>
		<stop  offset="0.328" style="stop-color:#918FC9"/>
		<stop  offset="1" style="stop-color:#000000"/>
	</linearGradient>
	<path class="st1" d="M20.6,70c0,27.3,22.1,49.4,49.4,49.4s49.4-22.1,49.4-49.4c0-27.3-22.1-49.4-49.4-49.4S20.6,42.7,20.6,70z
		 M115.8,70c0,25.3-20.5,45.8-45.8,45.8S24.2,95.3,24.2,70S44.7,24.2,70,24.2S115.8,44.7,115.8,70z"/>
</g>
<path class="st2" d="M126.9,64.2c-0.3-1.6-1.6-2.9-3.2-3.2c1.6-0.3,2.8-1.5,3.2-3.1c0.5,1.7,1.2,2.9,3,3.2
	C128.4,61.7,127.3,62.8,126.9,64.2z"/>
<path class="st2" d="M20.6,101.3c-1.5,0.5-2.7,1.7-3.1,3.3c-0.4-1.6-1.6-2.9-3.2-3.4c1.6-0.3,2.8-1.6,3.2-3.2
	C17.9,99.7,18.6,100.9,20.6,101.3z"/>
<path class="st2" d="M53.7,92.9c0.5,0.9,1.5,1.3,2.5,1c-0.4,0.9-1.3,1.5-1.1,2.7c-0.7-0.8-1.8-1.3-2.9-1.3
	C53.2,94.8,53.7,93.9,53.7,92.9z"/>
<polygon class="st3" points="66.7,114.6 68.4,115.1 66.7,115.7 66.2,117.4 65.6,115.7 63.9,115.1 65.6,114.6 66.2,112.9 "/>
<polygon class="st3" points="84.2,115 85.6,115.5 84.2,115.9 83.7,117.3 83.3,115.9 81.8,115.5 83.3,115 83.7,113.6 "/>
<polygon class="st3" points="22.4,83.3 23.9,83.7 22.4,84.2 22,85.6 21.5,84.2 20.1,83.7 21.5,83.3 22,81.8 "/>
<polygon class="st3" points="24.3,62.4 25.7,62.9 24.3,63.4 23.8,64.8 23.3,63.4 21.9,62.9 23.3,62.4 23.8,61 "/>
<polygon class="st3" points="25.8,41.3 28,42 25.8,42.8 25.1,44.9 24.4,42.8 22.3,42 24.4,41.3 25.1,39.2 "/>
<polygon class="st3" points="42.7,26.9 44.3,27.5 42.7,28 42.2,29.5 41.7,28 40.2,27.5 41.7,26.9 42.2,25.4 "/>
<polygon class="st3" points="117.7,55.2 119.2,55.7 117.7,56.2 117.2,57.8 116.7,56.2 115.1,55.7 116.7,55.2 117.2,53.7 "/>
<polygon class="st3" points="100.5,98.4 102.2,99 100.5,99.5 100,101.2 99.4,99.5 97.7,99 99.4,98.4 100,96.7 "/>
<polygon class="st3" points="113.2,91.2 114.9,91.7 113.2,92.3 112.6,94 112.1,92.3 110.4,91.7 112.1,91.2 112.6,89.5 "/>
<polygon class="st3" points="107.4,98.9 110.2,99.8 107.4,100.7 106.5,103.5 105.6,100.7 102.8,99.8 105.6,98.9 106.5,96.1 "/>
<g>
	
		<image style="overflow:visible;opacity:0.75;" width="133" height="63" xlink:href="19B9D47B.png"  transform="matrix(1 0 0 1 2.573 42)">
	</image>
	<g>
		<path class="st3" d="M127.7,54.3c-0.6-2-1.9-3.7-3.9-5.2c0.3,0.3,0.5,0.6,0.8,0.9c0,0,0.4,0.5,0.6,0.9c0.8,1.3,1,2.8,1.1,2.9
			c0,0.3,0.2,1.4-0.1,3.2c0,0-0.4,2.1-1.4,4c-10.3,18.8-49,29-49,29c-38.5,10.2-57.8,3.5-61.1-0.3c-2.1-2.4-2.6-5.1-2.6-5.1
			c-0.6-3.2,0.5-6.1,1.3-7.5c-2.4,3.4-3.4,6.7-2.6,9.7c3.2,11.6,32,13.7,64.3,4.7C107.4,82.5,131,65.9,127.7,54.3z"/>
	</g>
</g>
<g>
	
		<image style="overflow:visible;opacity:0.75;" width="133" height="52" xlink:href="19B9D47E.png"  transform="matrix(1 0 0 1 4.573 49)">
	</image>
	<g>
		<linearGradient id="SVGID_3_" gradientUnits="userSpaceOnUse" x1="12.1249" y1="74.4481" x2="129.673" y2="74.4481">
			<stop  offset="0" style="stop-color:#FFFFFF"/>
			<stop  offset="0.5206" style="stop-color:#918FC9"/>
			<stop  offset="1" style="stop-color:#FFFFFF"/>
		</linearGradient>
		<path class="st4" d="M129.6,61.3c-0.3-2-1.4-3.9-3.2-5.5c0.5,0.6,0.9,1.2,1.2,1.9c0,0,0.4,1,0.6,2c0.3,1.6-1.5,6.9-5.6,10.8
			c-15.1,14.2-47.7,19.6-47.7,19.6c-23.9,3.9-38,1.9-48.1-2c-4.3-1.7-12.2-4.8-13-10.8c-0.4-2.9,1-5.5,2.1-7.2
			c-2.7,3-4.1,6.2-3.6,9.1c1.8,11.6,29.5,17,61.9,12C106.5,86.3,131.4,72.9,129.6,61.3z"/>
	</g>
</g>
</svg>
