<?xml version="1.0" encoding="UTF-8" ?>
<!DOCTYPE svg PUBLIC "-//W3C//DTD SVG 1.1//EN" "http://www.w3.org/Graphics/SVG/1.1/DTD/svg11.dtd">
<svg width="840pt" height="840pt" viewBox="0 0 840 840" version="1.1" xmlns="http://www.w3.org/2000/svg">
<g id="#0000001a">
<path fill="#000000" opacity="0.10" d=" M 0.00 0.00 L 8.10 0.00 C 8.21 2.62 8.43 5.27 7.85 7.85 C 5.27 8.43 2.62 8.18 0.00 8.06 L 0.00 0.00 Z" />
<path fill="#000000" opacity="0.10" d=" M 831.90 0.00 L 840.00 0.00 L 840.00 8.07 C 837.43 8.06 834.69 8.73 832.25 7.78 C 831.17 5.37 831.96 2.56 831.90 0.00 Z" />
<path fill="#000000" opacity="0.10" d=" M 0.00 831.89 C 2.63 831.84 5.30 831.56 7.89 832.15 C 8.43 834.73 8.23 837.38 8.09 840.00 L 0.00 840.00 L 0.00 831.89 Z" />
<path fill="#000000" opacity="0.10" d=" M 832.11 832.15 C 834.70 831.56 837.36 831.82 840.00 831.89 L 840.00 840.00 L 831.90 840.00 C 831.80 837.38 831.56 834.73 832.11 832.15 Z" />
</g>
<g id="#f1112fff">
<path fill="#f1112f" opacity="1.00" d=" M 105.06 180.17 C 210.08 122.61 315.00 64.88 419.98 7.27 C 524.99 64.84 629.90 122.62 734.93 180.16 C 735.07 189.51 734.99 198.87 734.97 208.22 C 629.96 150.60 525.00 92.87 419.98 35.26 C 314.99 92.91 210.02 150.60 105.02 208.22 C 105.02 198.87 104.93 189.52 105.06 180.17 Z" />
<path fill="#f1112f" opacity="1.00" d=" M 699.99 568.80 C 711.67 562.45 723.29 555.98 734.99 549.67 C 734.95 569.74 735.11 589.82 734.91 609.89 C 642.23 660.59 549.68 711.55 457.09 762.41 C 456.78 748.25 457.03 734.07 456.96 719.90 C 457.08 718.83 456.68 718.02 455.76 717.48 C 457.46 717.09 458.01 715.65 458.19 714.10 C 459.82 713.17 461.47 712.27 463.11 711.35 C 474.02 705.38 484.99 699.52 495.99 693.72 C 503.28 690.01 510.45 686.05 517.63 682.14 C 513.79 678.37 510.01 674.55 506.22 670.75 C 505.02 669.73 504.50 667.48 505.56 666.28 C 510.25 671.20 515.19 675.89 519.93 680.78 C 532.98 673.93 545.95 666.90 558.93 659.91 C 560.73 654.37 561.93 648.60 564.06 643.20 C 597.11 625.07 630.14 606.92 663.25 588.91 C 667.94 590.53 672.43 586.19 674.84 582.47 C 683.30 578.05 691.58 573.32 699.99 568.80 Z" />
<path fill="#f1112f" opacity="1.00" d=" M 105.01 550.38 C 116.68 556.69 128.27 563.16 139.94 569.47 C 148.43 574.08 156.85 578.81 165.38 583.35 C 166.17 583.98 166.87 584.72 167.43 585.58 C 169.24 588.59 172.81 589.71 175.85 591.07 C 176.33 590.82 177.28 590.33 177.76 590.09 C 210.60 608.33 243.70 626.09 276.53 644.35 C 277.99 649.53 279.55 654.68 281.03 659.85 C 293.99 666.94 307.04 673.87 320.08 680.81 C 328.30 672.57 336.61 664.42 344.75 656.11 C 344.74 657.28 344.73 658.46 344.71 659.65 C 337.33 667.22 329.71 674.54 322.36 682.14 C 331.49 687.10 340.62 692.07 349.85 696.85 C 355.16 699.61 360.46 702.39 365.67 705.35 C 370.97 708.41 376.52 711.01 381.82 714.08 C 381.98 715.59 382.43 717.04 384.14 717.38 C 383.74 717.74 382.95 718.46 382.56 718.81 C 382.62 733.37 382.73 747.93 382.51 762.49 C 381.62 761.63 380.53 761.03 379.46 760.47 C 287.97 710.32 196.60 659.94 105.07 609.86 C 104.91 590.04 105.03 570.21 105.01 550.38 Z" />
<path fill="#f1112f" opacity="1.00" d=" M 370.44 630.50 C 386.91 613.93 403.48 597.45 420.04 580.97 C 432.56 593.23 444.88 605.72 457.28 618.12 C 456.32 618.49 455.34 618.74 454.34 618.88 C 442.89 607.44 431.46 595.97 420.00 584.54 C 405.47 598.81 391.17 613.32 376.71 627.67 C 374.36 629.84 372.40 632.48 369.74 634.29 C 369.54 632.95 369.26 631.48 370.44 630.50 Z" />
<path fill="#f1112f" opacity="1.00" d=" M 417.32 696.12 C 418.81 695.96 420.31 695.95 421.81 696.08 C 421.75 696.77 421.62 698.15 421.56 698.83 C 423.13 699.51 424.60 700.38 426.03 701.33 C 435.16 706.38 444.32 711.40 453.52 716.32 C 453.08 716.75 452.21 717.60 451.77 718.03 C 443.20 713.34 434.67 708.59 426.09 703.93 C 424.53 703.44 423.03 701.81 421.37 702.26 C 421.48 704.99 421.40 707.73 421.39 710.47 C 423.28 711.33 424.24 713.32 426.02 714.30 C 428.04 713.28 429.31 710.08 432.01 711.91 C 431.16 714.99 430.14 718.02 428.87 720.96 C 431.32 724.24 433.31 727.97 433.93 732.06 C 432.23 731.13 431.69 728.96 429.97 728.12 C 428.84 729.27 427.59 730.28 426.43 731.40 C 425.79 733.63 426.45 736.27 424.52 738.04 C 424.94 739.02 425.52 739.91 426.26 740.72 C 426.13 745.29 427.87 750.33 425.45 754.53 C 434.69 753.28 440.76 744.11 441.48 735.26 C 439.14 735.98 439.70 740.15 437.02 741.11 C 437.15 738.66 438.51 736.46 438.52 734.01 C 438.81 728.62 436.58 723.44 433.21 719.35 C 444.99 723.53 449.58 739.01 444.31 749.79 C 442.57 747.82 438.76 748.12 438.39 751.05 C 437.74 753.12 439.57 754.31 440.81 755.62 C 437.22 759.48 432.60 762.01 427.65 763.66 C 427.41 769.17 425.51 774.29 422.31 778.75 C 424.47 778.52 426.11 776.94 428.12 776.25 C 425.30 778.29 421.24 779.08 419.92 782.68 C 418.16 782.52 418.36 779.95 416.89 779.11 C 416.05 776.48 414.01 774.48 413.06 771.93 C 412.08 767.95 411.63 763.87 410.62 759.91 C 410.82 759.45 411.21 758.52 411.41 758.06 C 408.25 754.77 406.64 750.51 405.29 746.26 C 405.55 746.30 406.06 746.37 406.31 746.41 C 407.88 749.05 410.14 751.14 412.66 752.87 C 413.05 747.95 411.27 742.13 414.79 738.08 C 414.41 737.56 413.64 736.50 413.25 735.97 C 413.25 734.61 413.27 733.25 413.32 731.90 C 411.99 730.63 410.55 729.49 409.31 728.16 C 410.14 726.93 410.94 725.70 411.72 724.45 C 403.56 726.43 398.48 735.08 398.17 743.15 C 400.26 741.53 399.98 737.86 402.81 737.02 C 399.57 744.24 401.12 752.76 406.02 758.82 C 399.08 756.32 394.66 749.48 393.40 742.45 C 391.98 737.89 393.63 733.20 394.93 728.83 C 396.83 729.64 400.00 730.52 400.88 727.91 C 402.22 725.98 400.42 724.17 398.98 723.06 C 400.86 719.53 404.85 717.61 408.34 715.92 C 407.91 714.51 407.61 713.10 407.42 711.68 C 407.97 711.58 409.09 711.39 409.65 711.29 C 411.15 712.13 411.81 714.50 413.89 713.95 C 415.06 712.70 416.08 711.29 417.68 710.54 C 417.85 707.71 417.80 704.87 417.77 702.04 C 410.63 705.25 404.09 709.72 396.95 712.98 C 392.83 715.14 388.91 717.68 384.84 719.93 C 385.79 718.72 387.51 718.48 388.34 717.15 C 387.53 717.06 385.89 716.87 385.08 716.77 C 389.19 714.89 393.22 712.83 397.04 710.39 C 403.83 706.49 410.80 702.89 417.61 699.01 C 417.54 698.29 417.39 696.84 417.32 696.12 Z" />
</g>
<g id="#945f049f">
<path fill="#945f04" opacity="0.62" d=" M 406.10 57.12 C 410.56 52.53 414.97 47.82 419.74 43.58 C 423.96 47.23 427.63 51.49 431.69 55.33 C 432.48 56.32 433.83 57.07 434.10 58.38 C 433.64 58.38 432.72 58.38 432.26 58.38 C 428.52 54.22 424.41 50.39 420.50 46.40 C 420.20 46.28 419.60 46.04 419.30 45.93 C 415.34 50.21 410.97 54.09 407.08 58.44 L 406.35 58.47 L 406.10 57.12 Z" />
</g>
<g id="#95870398">
<path fill="#958703" opacity="0.60" d=" M 418.05 55.97 C 419.34 53.81 421.63 57.05 422.09 58.37 C 420.63 57.51 417.81 58.48 418.05 55.97 Z" />
</g>
<g id="#fff15aff">
<path fill="#fff15a" opacity="1.00" d=" M 416.00 58.47 C 416.77 57.71 417.45 56.87 418.05 55.97 C 417.81 58.48 420.63 57.51 422.09 58.37 C 420.07 58.69 418.03 58.62 416.00 58.47 Z" />
<path fill="#fff15a" opacity="1.00" d=" M 388.32 117.62 C 392.53 116.62 397.08 117.12 401.43 116.86 C 401.82 116.90 402.60 116.97 402.98 117.00 C 403.52 117.00 404.58 117.01 405.11 117.01 C 409.90 116.47 414.78 116.57 419.59 116.87 C 421.50 117.13 423.43 117.11 425.36 117.00 C 425.93 117.00 427.06 117.00 427.62 117.00 C 428.56 117.01 430.44 117.01 431.38 117.01 C 431.95 117.00 433.07 116.98 433.63 116.98 C 434.55 116.96 436.38 116.91 437.29 116.89 C 437.83 116.91 438.92 116.95 439.46 116.96 C 442.20 117.04 445.01 117.41 447.70 116.63 C 448.10 116.96 448.92 117.62 449.33 117.95 C 449.36 118.61 449.42 119.92 449.45 120.58 C 443.30 120.31 437.15 120.55 431.01 120.17 C 416.84 119.53 402.68 120.77 388.51 120.38 C 388.46 119.69 388.36 118.31 388.32 117.62 Z" />
</g>
<g id="#fbfbfbff">
<path fill="#fbfbfb" opacity="1.00" d=" M 405.34 58.40 C 405.53 58.08 405.91 57.44 406.10 57.12 L 406.35 58.47 L 407.08 58.44 C 410.05 58.41 413.03 58.33 416.00 58.47 C 418.03 58.62 420.07 58.69 422.09 58.37 C 425.48 58.43 428.87 58.41 432.26 58.38 C 432.72 58.38 433.64 58.38 434.10 58.38 C 438.09 58.44 442.08 58.34 446.07 58.44 C 446.05 62.30 446.11 66.17 446.05 70.03 C 446.01 70.46 445.94 71.32 445.90 71.74 C 444.89 73.77 443.74 75.72 442.53 77.63 L 444.32 77.72 C 444.33 78.77 444.34 79.83 444.36 80.88 C 449.03 85.28 453.36 90.03 458.12 94.32 C 457.88 94.55 457.41 95.00 457.17 95.23 C 452.26 89.87 446.66 85.11 442.12 79.43 L 441.29 79.83 C 436.13 88.97 430.75 97.99 425.68 107.19 C 427.16 107.73 428.78 107.36 430.33 107.46 C 430.33 108.11 430.33 109.41 430.33 110.06 C 429.71 110.08 428.48 110.11 427.86 110.13 C 427.82 112.42 427.74 114.71 427.62 117.00 C 427.06 117.00 425.93 117.00 425.36 117.00 C 425.22 114.64 425.21 112.27 425.06 109.90 C 422.10 110.96 421.92 114.95 419.59 116.87 C 414.78 116.57 409.90 116.47 405.11 117.01 C 410.71 107.39 416.20 97.60 421.83 87.95 C 424.79 82.43 428.41 77.21 430.94 71.49 C 422.31 71.63 413.68 71.47 405.05 71.55 L 404.23 71.62 C 403.44 71.22 402.64 71.16 401.84 71.43 C 401.16 71.48 399.81 71.57 399.14 71.62 C 398.77 70.01 398.93 68.35 398.93 66.71 C 398.92 66.18 398.91 65.12 398.90 64.59 C 398.87 62.50 398.96 60.41 398.86 58.33 C 400.71 58.60 403.24 58.27 405.34 58.40 Z" />
</g>
<g id="#ab6d01e8">
<path fill="#ab6d01" opacity="0.91" d=" M 388.10 75.01 C 391.83 71.67 395.05 67.79 398.90 64.59 C 398.91 65.12 398.92 66.18 398.93 66.71 C 391.06 73.93 383.76 81.76 376.10 89.20 C 377.32 90.79 379.03 91.93 380.18 93.60 C 380.07 93.97 379.86 94.72 379.76 95.10 C 378.06 93.02 375.49 91.42 374.23 89.14 C 378.70 84.29 383.57 79.81 388.10 75.01 Z" />
</g>
<g id="#000000ff">
<path fill="#000000" opacity="1.00" d=" M 376.10 89.20 C 383.76 81.76 391.06 73.93 398.93 66.71 C 398.93 68.35 398.77 70.01 399.14 71.62 C 399.81 71.57 401.16 71.48 401.84 71.43 L 401.92 72.40 C 400.77 73.39 399.58 74.36 398.79 75.67 C 393.28 81.73 387.15 87.21 381.52 93.16 C 381.19 93.27 380.52 93.49 380.18 93.60 C 379.03 91.93 377.32 90.79 376.10 89.20 Z" />
<path fill="#000000" opacity="1.00" d=" M 402.75 73.17 C 403.12 72.78 403.86 72.01 404.23 71.62 L 405.05 71.55 C 404.78 72.12 404.25 73.26 403.98 73.83 C 403.67 73.66 403.06 73.33 402.75 73.17 Z" />
<path fill="#000000" opacity="1.00" d=" M 442.53 77.63 C 443.74 75.72 444.89 73.77 445.90 71.74 C 451.62 77.49 457.28 83.29 463.10 88.93 C 462.07 91.15 459.70 92.48 458.12 94.32 C 453.36 90.03 449.03 85.28 444.36 80.88 C 444.34 79.83 444.33 78.77 444.32 77.72 L 442.53 77.63 Z" />
<path fill="#000000" opacity="1.00" d=" M 379.73 78.99 C 382.77 78.36 385.10 75.84 388.10 75.01 C 383.57 79.81 378.70 84.29 374.23 89.14 C 375.49 91.42 378.06 93.02 379.76 95.10 C 376.69 97.47 374.27 100.57 371.32 103.07 C 376.96 108.92 382.87 114.52 388.51 120.38 C 402.68 120.77 416.84 119.53 431.01 120.17 C 437.15 120.55 443.30 120.31 449.45 120.58 C 449.42 119.92 449.36 118.61 449.33 117.95 C 449.76 117.77 450.62 117.41 451.05 117.23 L 451.35 117.19 C 450.62 118.36 449.86 119.87 451.70 120.43 L 450.99 118.65 C 456.41 113.69 461.57 108.41 466.66 103.11 C 464.19 100.50 461.58 98.04 459.10 95.44 C 461.14 93.54 463.04 91.50 465.11 89.63 C 461.33 84.31 455.61 80.39 451.57 75.16 L 452.67 75.16 C 546.74 126.88 640.83 178.56 734.95 230.19 C 735.07 336.68 734.98 443.17 734.99 549.67 C 723.29 555.98 711.67 562.45 699.99 568.80 C 699.87 557.13 700.29 545.44 699.77 533.79 C 692.97 550.75 684.26 566.86 674.84 582.47 C 672.43 586.19 667.94 590.53 663.25 588.91 C 663.55 586.40 665.38 584.56 666.65 582.49 C 686.23 552.52 700.67 519.05 708.27 484.04 C 699.48 475.39 690.84 466.60 682.08 457.93 C 681.01 456.87 679.71 455.69 680.00 454.02 C 680.00 432.33 679.99 410.63 680.01 388.93 C 679.90 387.78 680.27 386.83 681.12 386.08 C 690.33 376.75 699.72 367.60 708.87 358.21 C 700.02 317.30 682.47 278.29 657.64 244.59 C 609.35 178.10 531.71 134.35 450.08 126.11 C 375.32 118.06 298.07 140.61 238.79 186.72 C 184.04 228.69 145.62 290.90 131.13 358.23 C 140.29 367.59 149.67 376.76 158.88 386.08 C 159.71 386.83 160.09 387.77 159.99 388.91 C 160.01 410.61 160.00 432.31 160.00 454.00 C 160.29 455.69 158.99 456.86 157.92 457.93 C 149.17 466.59 140.55 475.37 131.77 484.00 C 139.68 520.97 155.41 556.15 176.61 587.41 C 177.09 588.25 177.48 589.14 177.76 590.09 C 177.28 590.33 176.33 590.82 175.85 591.07 C 172.81 589.71 169.24 588.59 167.43 585.58 C 166.87 584.72 166.17 583.98 165.38 583.35 C 165.28 581.83 164.20 580.68 163.50 579.43 C 154.44 564.90 146.64 549.58 140.24 533.70 C 139.65 545.60 140.23 557.55 139.94 569.47 C 128.27 563.16 116.68 556.69 105.01 550.38 C 105.04 443.64 104.91 336.90 105.07 230.16 C 194.85 180.96 284.55 131.61 374.30 82.35 L 374.67 82.40 L 375.84 82.59 C 377.20 81.47 378.48 80.25 379.73 78.99 M 460.70 112.23 C 460.83 112.62 461.11 113.38 461.24 113.76 C 465.43 110.22 469.23 106.06 473.04 102.09 L 473.00 100.72 C 468.33 103.67 465.00 108.66 460.70 112.23 M 182.55 232.40 C 168.36 240.19 154.08 247.87 140.01 255.85 C 139.99 271.24 140.01 286.63 139.99 302.02 C 140.10 303.37 139.74 304.89 140.54 306.09 C 142.44 300.16 145.31 294.59 147.90 288.94 C 156.94 270.13 167.96 252.28 180.69 235.75 C 181.60 234.46 182.63 233.25 183.80 232.18 C 183.49 232.23 182.86 232.35 182.55 232.40 M 656.24 232.10 C 674.47 254.28 688.74 279.64 699.77 306.07 C 700.30 289.70 699.85 273.27 700.00 256.88 C 699.91 256.53 699.73 255.84 699.64 255.49 C 686.65 248.46 673.74 241.29 660.79 234.20 C 659.29 233.45 657.92 232.36 656.24 232.10 Z" />
<path fill="#000000" opacity="1.00" d=" M 483.09 136.31 C 484.15 135.91 485.22 135.51 486.36 135.37 C 486.41 135.96 486.50 137.15 486.54 137.74 C 485.13 138.20 484.15 136.99 483.09 136.31 Z" />
<path fill="#000000" opacity="1.00" d=" M 47.01 278.01 C 57.82 278.00 68.64 278.02 79.45 278.00 C 79.56 283.15 79.49 288.31 79.48 293.46 C 68.65 293.48 57.82 293.53 47.00 293.44 C 47.01 288.30 46.98 283.15 47.01 278.01 Z" />
<path fill="#000000" opacity="1.00" d=" M 47.02 307.00 C 57.82 307.00 68.62 307.02 79.43 307.00 C 79.60 312.14 79.47 317.29 79.49 322.43 C 68.66 322.52 57.83 322.50 47.00 322.45 C 47.01 317.30 46.97 312.15 47.02 307.00 Z" />
<path fill="#000000" opacity="1.00" d=" M 47.03 335.01 C 57.83 335.02 68.63 335.04 79.43 335.00 C 79.59 340.15 79.47 345.30 79.49 350.46 C 68.66 350.47 57.82 350.61 46.99 350.39 C 47.02 345.26 46.96 340.14 47.03 335.01 Z" />
<path fill="#000000" opacity="1.00" d=" M 47.29 365.39 C 58.03 365.78 68.83 365.15 79.53 365.70 C 79.45 370.80 79.56 375.90 79.47 381.00 C 68.65 380.95 57.83 381.00 47.01 380.97 C 47.18 375.79 46.62 370.51 47.29 365.39 Z" />
<path fill="#000000" opacity="1.00" d=" M 48.65 400.00 C 49.44 400.04 51.02 400.10 51.81 400.14 C 50.55 403.09 54.97 404.16 53.36 407.27 C 52.94 407.37 52.10 407.56 51.68 407.65 C 51.72 408.93 51.74 410.21 51.60 411.49 C 54.18 412.36 54.27 415.81 51.81 416.92 C 51.77 417.64 51.68 419.07 51.64 419.79 C 50.59 419.74 49.54 419.69 48.50 419.64 C 48.47 417.59 48.81 415.53 48.37 413.52 C 47.72 413.96 46.40 414.84 45.75 415.28 C 45.61 413.52 45.62 411.76 45.72 410.00 C 46.60 409.14 47.52 408.32 48.38 407.45 C 48.84 405.00 48.32 402.47 48.65 400.00 Z" />
<path fill="#000000" opacity="1.00" d=" M 54.87 400.11 C 55.61 400.13 57.09 400.16 57.83 400.17 C 57.88 404.78 57.81 409.39 57.85 414.00 C 59.31 416.84 62.67 418.33 64.17 421.18 C 62.43 421.27 60.68 421.24 58.94 421.24 C 57.39 419.90 55.88 418.50 54.59 416.92 C 54.80 411.33 54.23 405.61 54.87 400.11 Z" />
<path fill="#000000" opacity="1.00" d=" M 59.19 400.21 C 60.76 400.14 62.32 400.13 63.89 400.17 C 64.58 403.54 62.12 409.00 66.16 410.69 C 66.31 407.66 65.93 404.61 66.35 401.60 C 67.37 401.64 68.38 401.67 69.40 401.71 C 73.78 406.09 78.46 410.23 82.53 414.88 C 80.71 414.85 78.89 414.90 77.08 414.82 C 74.20 412.95 72.48 409.41 69.31 408.06 C 69.43 410.04 69.37 412.03 69.44 414.02 C 70.33 416.13 73.24 416.89 73.83 419.19 C 72.20 419.21 70.58 419.21 68.96 419.19 C 66.94 418.40 66.02 416.11 64.18 415.08 C 64.07 415.62 63.86 416.71 63.75 417.26 C 61.50 416.16 59.93 413.89 60.79 411.34 L 59.16 411.57 C 59.51 409.40 58.23 406.44 60.52 405.00 C 60.56 404.20 60.66 402.60 60.70 401.80 C 60.32 401.40 59.57 400.60 59.19 400.21 Z" />
<path fill="#000000" opacity="1.00" d=" M 761.57 420.00 C 772.37 420.02 783.18 419.99 793.99 420.02 C 794.01 425.13 793.98 430.25 794.01 435.37 C 783.21 435.62 772.38 435.42 761.57 435.48 C 761.45 430.32 761.44 425.15 761.57 420.00 Z" />
<path fill="#000000" opacity="1.00" d=" M 53.31 420.55 C 54.08 420.56 55.61 420.57 56.37 420.58 C 56.45 421.29 56.59 422.71 56.66 423.42 C 63.98 423.38 71.31 423.38 78.64 423.41 C 80.05 424.79 81.46 426.17 82.82 427.61 C 79.15 427.56 75.45 427.36 71.79 427.68 C 72.98 430.25 75.85 431.58 77.39 433.95 C 77.28 440.71 77.49 447.47 77.29 454.23 C 75.99 453.76 75.21 452.56 74.23 451.68 C 74.09 449.41 74.24 447.14 74.11 444.89 C 72.58 444.86 71.06 444.85 69.53 444.86 C 69.29 446.61 69.45 448.39 69.35 450.16 C 69.70 450.57 70.42 451.40 70.77 451.82 C 66.91 451.96 63.03 451.90 59.16 451.85 C 59.18 449.50 59.21 447.16 59.16 444.82 L 57.89 444.91 C 57.83 446.90 57.86 448.89 57.86 450.88 C 54.80 450.92 51.74 450.86 48.69 450.92 C 48.31 446.12 48.74 441.28 48.49 436.47 C 48.25 436.04 47.75 435.16 47.50 434.72 C 50.96 434.72 54.42 434.61 57.87 434.78 C 57.95 436.82 57.63 438.91 58.07 440.93 C 60.55 439.75 58.45 435.84 59.31 433.59 C 62.61 433.86 65.97 433.35 69.23 433.83 C 69.68 436.08 69.29 438.40 69.37 440.68 C 70.87 440.73 72.37 440.75 73.88 440.76 C 74.35 439.31 74.35 437.62 73.93 436.16 C 71.01 433.24 68.12 430.27 65.05 427.51 C 62.20 427.56 59.34 427.51 56.49 427.54 C 56.39 428.74 56.82 429.75 57.79 430.58 C 56.32 430.44 54.84 430.45 53.37 430.53 C 53.32 429.79 53.23 428.33 53.18 427.59 C 51.21 427.47 49.24 427.51 47.28 427.64 C 46.91 426.21 46.93 424.71 47.27 423.29 C 49.24 423.28 51.28 423.72 53.21 423.17 C 53.23 422.52 53.29 421.20 53.31 420.55 M 62.53 437.71 C 62.49 438.69 62.46 439.68 62.43 440.68 C 63.57 440.72 64.71 440.75 65.86 440.79 C 67.53 438.04 64.70 437.15 62.53 437.71 M 51.66 440.03 C 51.76 442.22 51.77 444.42 51.63 446.61 C 52.63 446.82 53.63 446.84 54.65 446.70 C 54.57 444.22 54.60 441.75 54.66 439.28 C 53.78 438.35 51.44 438.40 51.66 440.03 M 62.36 447.65 C 63.54 447.80 64.73 447.88 65.92 447.87 C 65.97 447.13 66.07 445.64 66.12 444.90 C 65.27 444.90 63.56 444.91 62.71 444.91 C 62.42 445.79 62.31 446.70 62.36 447.65 Z" />
<path fill="#000000" opacity="1.00" d=" M 761.55 449.00 C 772.36 449.02 783.17 449.00 793.99 449.01 C 794.01 454.15 793.99 459.28 794.00 464.42 C 783.19 464.55 772.36 464.47 761.55 464.46 C 761.46 459.31 761.46 454.15 761.55 449.00 Z" />
<path fill="#000000" opacity="1.00" d=" M 48.60 453.94 C 52.24 454.12 56.07 453.45 59.60 454.28 C 59.50 456.21 59.48 458.16 59.57 460.10 C 60.35 460.06 61.92 459.96 62.71 459.91 C 62.67 457.91 62.64 455.92 62.71 453.93 C 65.82 454.12 69.07 453.47 72.08 454.26 C 76.23 458.61 81.01 462.53 84.75 467.15 C 82.85 466.90 80.75 467.67 78.96 466.81 C 75.89 463.96 73.06 460.87 69.97 458.05 C 68.63 458.05 67.29 458.06 65.95 458.08 C 65.95 460.08 65.46 462.29 66.92 463.94 C 63.58 464.56 60.04 463.99 56.62 464.21 C 56.23 462.28 56.52 460.31 56.56 458.37 C 55.06 457.72 53.33 458.18 51.75 458.08 C 51.68 464.07 51.76 470.07 51.71 476.07 C 52.62 478.09 54.70 479.62 56.46 480.96 C 56.02 476.85 57.43 472.37 55.53 468.55 C 62.15 468.45 68.78 468.64 75.40 468.48 C 75.90 475.93 75.46 483.48 75.60 490.97 C 75.93 491.45 76.58 492.42 76.91 492.90 C 70.07 492.77 63.12 493.26 56.34 492.64 C 56.48 490.78 56.52 488.91 56.40 487.05 C 54.84 485.82 53.80 483.83 51.96 483.04 C 51.59 489.16 51.54 495.64 51.98 501.73 C 54.48 501.67 54.13 506.78 51.58 506.48 C 51.74 507.80 51.74 509.14 51.64 510.47 C 54.13 510.15 54.52 515.15 51.90 515.16 C 51.44 516.54 51.85 518.05 51.66 519.50 C 50.62 519.47 49.58 519.41 48.54 519.33 C 48.51 516.89 48.52 514.46 48.61 512.02 C 47.60 512.62 46.60 513.24 45.60 513.87 C 45.62 512.22 45.61 510.57 45.59 508.93 C 46.41 507.67 47.60 506.73 48.58 505.61 C 48.55 488.39 48.51 471.16 48.60 453.94 M 59.45 488.69 C 63.70 489.02 67.98 488.68 72.24 488.88 C 72.81 483.54 72.39 478.03 72.45 472.62 C 68.19 472.57 63.92 472.63 59.66 472.59 C 59.29 477.94 59.72 483.32 59.45 488.69 Z" />
<path fill="#000000" opacity="1.00" d=" M 62.92 474.94 C 65.21 476.78 67.13 479.03 69.30 481.01 C 69.52 482.74 69.40 484.48 69.37 486.23 C 66.69 484.90 64.70 482.25 62.65 480.07 C 62.82 478.36 62.31 476.57 62.92 474.94 Z" />
<path fill="#000000" opacity="1.00" d=" M 761.57 477.00 C 772.38 477.04 783.19 477.01 793.99 477.02 C 794.01 482.15 793.99 487.28 794.00 492.42 C 783.18 492.58 772.35 492.47 761.53 492.47 C 761.50 487.31 761.41 482.15 761.57 477.00 Z" />
<path fill="#000000" opacity="1.00" d=" M 68.65 495.10 C 70.46 495.10 72.28 495.14 74.09 495.18 C 75.39 496.62 77.81 497.75 77.39 500.06 C 77.25 503.01 77.57 505.98 77.22 508.92 C 75.09 508.89 72.96 508.83 70.83 508.95 L 70.63 510.06 C 75.06 515.21 80.62 519.42 84.84 524.72 C 83.02 524.60 81.20 524.58 79.37 524.62 C 76.55 522.22 74.24 519.22 71.28 517.00 C 71.02 517.38 70.52 518.14 70.27 518.52 C 66.62 518.28 62.96 518.42 59.31 518.43 C 58.99 511.71 59.27 504.95 59.16 498.22 C 63.09 498.41 67.04 498.32 70.97 498.30 C 70.20 497.22 69.42 496.16 68.65 495.10 M 70.63 498.36 C 70.75 500.47 70.74 502.59 70.71 504.71 C 71.58 504.69 73.31 504.65 74.18 504.63 C 74.15 503.71 74.10 501.87 74.07 500.95 C 72.89 500.14 72.40 497.87 70.63 498.36 M 62.36 502.18 C 61.48 506.05 62.20 510.19 62.00 514.16 C 62.45 514.11 63.36 514.00 63.81 513.95 C 63.89 510.05 63.99 506.14 63.67 502.26 C 63.34 502.24 62.68 502.20 62.36 502.18 M 66.29 502.22 C 65.76 506.13 66.07 510.10 66.11 514.04 C 66.58 514.08 67.51 514.15 67.98 514.19 C 67.85 510.24 68.46 506.15 67.66 502.29 C 67.32 502.27 66.64 502.24 66.29 502.22 Z" />
<path fill="#000000" opacity="1.00" d=" M 53.55 495.94 C 54.97 495.73 56.37 495.75 57.77 496.00 C 58.14 504.66 57.67 513.53 57.88 522.28 C 60.49 522.33 63.10 522.31 65.71 522.32 C 65.31 521.78 64.50 520.72 64.10 520.18 C 66.13 520.54 68.44 519.78 70.32 520.63 C 72.63 523.07 75.39 525.19 77.37 527.91 C 77.33 533.99 77.44 540.08 77.31 546.16 C 75.22 546.22 73.14 546.17 71.06 546.17 C 72.47 548.43 74.98 549.80 76.49 552.02 C 74.64 552.15 72.78 552.12 70.92 552.08 C 68.81 550.19 66.98 548.03 64.81 546.21 C 61.52 546.21 58.24 546.23 54.95 546.21 C 53.01 544.10 50.47 542.41 48.97 539.98 C 51.22 540.14 54.17 539.02 55.72 541.23 C 56.78 542.76 58.79 542.04 60.33 542.05 C 58.79 539.69 56.34 538.12 54.59 535.93 C 54.60 532.74 54.61 529.55 54.61 526.36 C 52.08 526.26 49.55 526.47 47.03 526.25 C 46.95 524.89 47.02 523.55 47.26 522.23 C 49.59 522.34 51.91 522.29 54.24 522.35 L 54.59 521.70 C 54.58 513.65 54.68 505.59 54.54 497.55 C 54.29 497.15 53.80 496.34 53.55 495.94 M 57.82 526.51 C 58.10 528.91 57.35 531.52 58.21 533.79 C 61.17 536.52 63.78 539.71 66.98 542.14 C 69.37 542.19 71.76 542.17 74.14 542.11 C 74.10 538.10 74.34 534.06 74.03 530.07 C 72.64 528.88 71.61 527.26 70.00 526.37 C 65.94 526.44 61.86 526.15 57.82 526.51 Z" />
<path fill="#000000" opacity="1.00" d=" M 761.54 507.52 C 772.36 507.54 783.19 507.36 794.01 507.61 C 793.98 512.73 794.01 517.86 793.99 522.98 C 783.18 522.99 772.37 522.95 761.57 523.00 C 761.42 517.84 761.49 512.68 761.54 507.52 Z" />
<path fill="#000000" opacity="1.00" d=" M 60.05 531.91 C 61.57 531.16 63.38 531.89 65.01 531.63 C 67.36 533.55 69.60 535.70 71.51 538.04 C 69.18 537.90 66.10 538.98 64.49 536.68 C 63.12 535.00 61.06 533.82 60.05 531.91 Z" />
<path fill="#000000" opacity="1.00" d=" M 761.54 535.00 C 772.35 535.01 783.16 535.01 793.98 535.00 C 794.03 540.14 793.98 545.28 794.00 550.42 C 783.19 550.57 772.37 550.44 761.56 550.48 C 761.45 545.32 761.47 540.15 761.54 535.00 Z" />
<path fill="#000000" opacity="1.00" d=" M 58.76 548.12 C 60.54 548.06 62.32 548.00 64.09 548.07 C 65.62 549.08 66.97 550.48 68.07 551.96 C 66.36 552.23 64.62 552.11 62.89 552.08 C 61.26 551.11 59.92 549.60 58.76 548.12 Z" />
<path fill="#000000" opacity="1.00" d=" M 55.40 549.47 C 56.40 549.53 57.41 549.62 58.41 549.73 C 58.47 551.06 58.45 552.40 58.35 553.74 C 65.16 554.26 72.08 553.46 78.84 554.14 C 79.94 555.47 81.79 556.34 82.37 558.03 C 79.08 558.10 75.78 558.04 72.49 558.05 C 73.20 559.53 74.68 560.38 75.89 561.40 C 74.46 562.70 71.96 561.68 70.15 561.89 C 68.78 560.64 67.71 558.96 66.07 558.08 C 63.47 558.14 60.80 557.76 58.25 558.33 C 58.36 559.66 58.59 560.99 59.55 562.01 C 58.10 561.98 56.64 561.96 55.19 561.94 C 55.20 560.63 55.18 559.32 55.14 558.02 C 54.42 558.06 52.96 558.15 52.23 558.19 C 52.25 558.88 52.29 560.27 52.31 560.96 C 51.54 560.93 49.99 560.87 49.22 560.84 C 48.31 557.40 50.04 552.89 47.09 550.35 C 48.62 550.27 50.15 550.26 51.68 550.29 C 51.80 551.48 51.92 552.68 52.03 553.88 C 52.81 553.89 54.36 553.90 55.14 553.91 C 55.18 552.42 55.11 550.92 55.40 549.47 Z" />
<path fill="#000000" opacity="1.00" d=" M 761.55 564.00 C 772.36 564.03 783.18 563.98 794.00 564.02 C 794.00 569.14 793.99 574.27 794.00 579.40 C 783.18 579.55 772.33 579.52 761.50 579.41 C 761.52 574.27 761.43 569.13 761.55 564.00 Z" />
<path fill="#000000" opacity="1.00" d=" M 376.71 627.67 C 391.17 613.32 405.47 598.81 420.00 584.54 C 431.46 595.97 442.89 607.44 454.34 618.88 C 455.34 618.74 456.32 618.49 457.28 618.12 C 469.39 614.18 483.89 616.79 492.95 626.02 C 502.54 636.48 504.73 651.34 505.17 664.99 C 505.27 665.31 505.46 665.95 505.56 666.28 C 504.50 667.48 505.02 669.73 506.22 670.75 C 510.01 674.55 513.79 678.37 517.63 682.14 C 510.45 686.05 503.28 690.01 495.99 693.72 C 496.40 693.44 497.24 692.90 497.65 692.63 C 500.98 682.82 501.52 672.32 501.11 662.05 C 500.55 651.25 498.73 639.81 491.99 630.99 C 480.71 616.30 455.50 616.86 444.39 631.47 C 438.76 638.75 436.49 648.00 435.50 657.00 C 434.33 647.07 431.98 636.60 425.00 629.03 C 412.70 616.03 388.61 617.66 378.35 632.41 C 371.50 642.14 369.89 654.44 369.57 666.04 C 369.62 677.78 370.98 690.28 377.75 700.23 C 381.35 705.53 386.91 709.39 393.08 711.08 C 394.45 711.86 395.86 711.09 397.04 710.39 C 393.22 712.83 389.19 714.89 385.08 716.77 L 384.14 717.38 C 382.43 717.04 381.98 715.59 381.82 714.08 C 376.52 711.01 370.97 708.41 365.67 705.35 C 365.76 677.58 365.65 649.81 365.72 622.04 C 359.96 622.19 353.97 621.54 348.35 622.35 C 341.65 632.08 331.89 639.41 321.09 644.04 C 321.17 647.94 320.85 651.86 321.27 655.75 C 331.19 653.43 340.79 649.41 348.72 642.92 C 348.63 660.62 348.68 678.31 348.70 696.01 C 348.99 696.22 349.56 696.64 349.85 696.85 C 340.62 692.07 331.49 687.10 322.36 682.14 C 329.71 674.54 337.33 667.22 344.71 659.65 C 344.73 658.46 344.74 657.28 344.75 656.11 C 344.74 654.40 344.75 652.69 344.78 651.00 C 339.27 653.39 333.90 656.44 327.98 657.91 C 325.11 658.45 322.07 660.35 319.18 659.01 C 317.55 657.91 317.02 655.84 317.12 653.99 C 317.16 650.62 317.01 647.25 317.20 643.90 C 317.32 642.21 318.44 640.75 320.04 640.22 C 329.98 635.88 338.96 629.07 345.14 620.09 C 346.08 618.37 348.18 617.95 349.98 618.00 C 354.65 617.98 359.33 617.99 364.00 617.99 C 365.85 617.91 368.01 618.38 368.99 620.15 C 370.74 623.36 368.37 627.51 370.44 630.50 C 369.26 631.48 369.54 632.95 369.74 634.29 C 372.40 632.48 374.36 629.84 376.71 627.67 Z" />
<path fill="#000000" opacity="1.00" d=" M 761.55 592.00 C 772.36 592.04 783.17 592.02 793.99 592.01 C 794.02 597.15 793.99 602.29 794.00 607.44 C 783.20 607.57 772.39 607.45 761.59 607.50 C 761.41 602.34 761.48 597.16 761.55 592.00 Z" />
<path fill="#000000" opacity="1.00" d=" M 105.07 609.86 C 196.60 659.94 287.97 710.32 379.46 760.47 C 380.53 761.03 381.62 761.63 382.51 762.49 C 383.07 763.19 383.76 763.77 384.55 764.22 C 394.55 769.66 404.51 775.14 414.48 780.62 C 415.95 781.39 417.53 782.06 418.65 783.35 C 419.22 783.35 420.37 783.35 420.94 783.34 C 422.46 781.93 424.37 781.08 426.17 780.10 C 435.59 774.92 445.01 769.75 454.45 764.60 C 455.46 764.04 456.48 763.42 457.09 762.41 C 549.68 711.55 642.23 660.59 734.91 609.89 C 735.06 626.54 735.06 643.20 734.91 659.85 C 629.87 717.37 525.00 775.20 419.96 832.71 C 314.98 775.13 210.07 717.38 105.07 659.83 C 104.95 643.18 104.95 626.52 105.07 609.86 Z" />
<path fill="#000000" opacity="1.00" d=" M 761.57 622.52 C 772.38 622.50 783.19 622.45 794.00 622.54 C 793.99 627.69 794.01 632.83 794.00 637.98 C 783.19 637.99 772.39 637.95 761.59 638.00 C 761.41 632.84 761.47 627.67 761.57 622.52 Z" />
<path fill="#000000" opacity="1.00" d=" M 399.54 632.72 C 404.85 631.15 410.97 633.40 413.53 638.41 C 418.72 648.03 418.33 659.41 418.51 670.02 C 418.00 678.70 417.83 688.15 412.71 695.58 C 409.33 700.49 402.18 701.48 397.11 698.80 C 393.90 697.12 391.88 693.90 390.49 690.67 C 387.84 684.12 387.33 676.99 386.99 670.02 C 386.93 661.27 387.07 652.32 389.72 643.90 C 391.24 639.08 394.33 634.04 399.54 632.72 Z" />
<path fill="#000000" opacity="1.00" d=" M 465.46 632.58 C 469.80 631.62 474.76 632.81 477.53 636.48 C 481.97 642.29 482.81 649.87 483.50 656.93 C 483.92 666.41 484.19 676.03 482.24 685.38 C 481.11 690.37 479.21 695.76 474.70 698.67 C 469.56 701.64 462.26 700.39 458.65 695.56 C 454.00 689.40 453.19 681.38 452.52 673.94 C 452.14 663.92 452.07 653.62 455.05 643.94 C 456.61 638.93 459.92 633.65 465.46 632.58 Z" />
<path fill="#000000" opacity="1.00" d=" M 427.76 701.40 C 432.63 694.49 434.47 686.06 435.52 677.82 C 436.89 689.62 441.28 702.69 452.41 708.64 C 455.70 710.06 459.49 712.41 463.11 711.35 C 461.47 712.27 459.82 713.17 458.19 714.10 C 458.01 715.65 457.46 717.09 455.76 717.48 C 455.02 717.07 454.27 716.68 453.52 716.32 C 444.32 711.40 435.16 706.38 426.03 701.33 C 426.47 701.35 427.33 701.39 427.76 701.40 Z" />
<path fill="#000000" opacity="1.00" d=" M 396.95 712.98 C 404.09 709.72 410.63 705.25 417.77 702.04 C 417.80 704.87 417.85 707.71 417.68 710.54 C 416.08 711.29 415.06 712.70 413.89 713.95 C 411.81 714.50 411.15 712.13 409.65 711.29 C 409.09 711.39 407.97 711.58 407.42 711.68 C 407.61 713.10 407.91 714.51 408.34 715.92 C 404.85 717.61 400.86 719.53 398.98 723.06 C 400.42 724.17 402.22 725.98 400.88 727.91 C 400.00 730.52 396.83 729.64 394.93 728.83 C 393.63 733.20 391.98 737.89 393.40 742.45 C 394.66 749.48 399.08 756.32 406.02 758.82 C 401.12 752.76 399.57 744.24 402.81 737.02 C 399.98 737.86 400.26 741.53 398.17 743.15 C 398.48 735.08 403.56 726.43 411.72 724.45 C 410.94 725.70 410.14 726.93 409.31 728.16 C 410.55 729.49 411.99 730.63 413.32 731.90 C 413.27 733.25 413.25 734.61 413.25 735.97 C 413.64 736.50 414.41 737.56 414.79 738.08 C 411.27 742.13 413.05 747.95 412.66 752.87 C 410.14 751.14 407.88 749.05 406.31 746.41 C 406.06 746.37 405.55 746.30 405.29 746.26 C 406.64 750.51 408.25 754.77 411.41 758.06 C 411.21 758.52 410.82 759.45 410.62 759.91 C 411.63 763.87 412.08 767.95 413.06 771.93 C 414.01 774.48 416.05 776.48 416.89 779.11 C 406.18 773.14 395.20 767.56 384.70 761.26 C 384.93 747.49 384.66 733.70 384.84 719.93 C 388.91 717.68 392.83 715.14 396.95 712.98 Z" />
<path fill="#000000" opacity="1.00" d=" M 421.37 702.26 C 423.03 701.81 424.53 703.44 426.09 703.93 C 434.67 708.59 443.20 713.34 451.77 718.03 C 452.37 718.33 453.57 718.95 454.18 719.25 C 454.94 732.79 454.24 746.43 454.52 760.01 C 455.07 762.48 451.86 762.20 450.85 763.80 C 443.26 767.93 435.68 772.07 428.12 776.25 C 426.11 776.94 424.47 778.52 422.31 778.75 C 425.51 774.29 427.41 769.17 427.65 763.66 C 432.60 762.01 437.22 759.48 440.81 755.62 C 439.57 754.31 437.74 753.12 438.39 751.05 C 438.76 748.12 442.57 747.82 444.31 749.79 C 449.58 739.01 444.99 723.53 433.21 719.35 C 436.58 723.44 438.81 728.62 438.52 734.01 C 438.51 736.46 437.15 738.66 437.02 741.11 C 439.70 740.15 439.14 735.98 441.48 735.26 C 440.76 744.11 434.69 753.28 425.45 754.53 C 427.87 750.33 426.13 745.29 426.26 740.72 C 425.52 739.91 424.94 739.02 424.52 738.04 C 426.45 736.27 425.79 733.63 426.43 731.40 C 427.59 730.28 428.84 729.27 429.97 728.12 C 431.69 728.96 432.23 731.13 433.93 732.06 C 433.31 727.97 431.32 724.24 428.87 720.96 C 430.14 718.02 431.16 714.99 432.01 711.91 C 429.31 710.08 428.04 713.28 426.02 714.30 C 424.24 713.32 423.28 711.33 421.39 710.47 C 421.40 707.73 421.48 704.99 421.37 702.26 Z" />
</g>
<g id="#bb7700cd">
<path fill="#bb7700" opacity="0.80" d=" M 381.72 74.77 C 383.58 73.19 384.94 70.90 387.19 69.88 L 387.36 70.84 C 385.35 73.93 382.11 76.14 379.73 78.99 C 378.48 80.25 377.20 81.47 375.84 82.59 L 374.67 82.40 C 376.47 79.44 379.44 77.36 381.72 74.77 Z" />
</g>
<g id="#bc7302f9">
<path fill="#bc7302" opacity="0.98" d=" M 446.05 70.03 C 447.72 71.93 449.75 73.44 451.57 75.16 C 455.61 80.39 461.33 84.31 465.11 89.63 C 463.04 91.50 461.14 93.54 459.10 95.44 C 458.80 95.73 458.51 96.03 458.23 96.34 C 453.27 101.66 447.83 106.54 442.94 111.92 C 441.95 112.93 440.77 113.72 439.60 114.46 C 439.61 113.93 439.63 112.87 439.64 112.34 C 445.79 106.98 451.19 100.80 457.17 95.23 C 457.41 95.00 457.88 94.55 458.12 94.32 C 459.70 92.48 462.07 91.15 463.10 88.93 C 457.28 83.29 451.62 77.49 445.90 71.74 C 445.94 71.32 446.01 70.46 446.05 70.03 Z" />
</g>
<g id="#e0d777ff">
<path fill="#e0d777" opacity="1.00" d=" M 401.84 71.43 C 402.64 71.16 403.44 71.22 404.23 71.62 C 403.86 72.01 403.12 72.78 402.75 73.17 L 401.92 72.40 L 401.84 71.43 Z" />
</g>
<g id="#464646ff">
<path fill="#464646" opacity="1.00" d=" M 405.05 71.55 C 413.68 71.47 422.31 71.63 430.94 71.49 C 428.41 77.21 424.79 82.43 421.83 87.95 C 416.20 97.60 410.71 107.39 405.11 117.01 C 404.58 117.01 403.52 117.00 402.98 117.00 L 402.34 116.01 C 409.00 104.72 415.43 93.31 422.09 82.01 C 423.53 79.32 425.35 76.81 426.42 73.93 C 418.94 73.58 411.46 73.99 403.98 73.83 C 404.25 73.26 404.78 72.12 405.05 71.55 Z" />
</g>
<g id="#ca654bff">
<path fill="#ca654b" opacity="1.00" d=" M 398.79 75.67 C 399.58 74.36 400.77 73.39 401.92 72.40 L 402.75 73.17 C 403.06 73.33 403.67 73.66 403.98 73.83 C 411.46 73.99 418.94 73.58 426.42 73.93 C 425.35 76.81 423.53 79.32 422.09 82.01 C 415.43 93.31 409.00 104.72 402.34 116.01 C 401.53 115.00 400.63 114.06 399.76 113.11 C 406.92 100.76 414.07 88.40 420.98 75.92 C 414.02 75.44 407.03 75.67 400.06 75.71 L 398.79 75.67 Z" />
<path fill="#ca654b" opacity="1.00" d=" M 454.18 719.25 L 454.73 719.56 C 454.83 733.70 454.84 747.86 454.72 762.01 C 453.45 762.65 452.16 763.25 450.85 763.80 C 451.86 762.20 455.07 762.48 454.52 760.01 C 454.24 746.43 454.94 732.79 454.18 719.25 Z" />
</g>
<g id="#ffffffff">
<path fill="#ffffff" opacity="1.00" d=" M 381.52 93.16 C 387.15 87.21 393.28 81.73 398.79 75.67 L 400.06 75.71 C 394.84 80.93 389.73 86.24 384.49 91.43 C 383.39 92.51 382.52 93.79 381.70 95.08 C 381.49 95.29 381.08 95.72 380.87 95.93 C 377.74 97.70 375.53 100.66 373.00 103.15 C 377.43 107.70 382.04 112.08 386.42 116.67 C 386.89 116.91 387.84 117.38 388.32 117.62 C 388.36 118.31 388.46 119.69 388.51 120.38 C 382.87 114.52 376.96 108.92 371.32 103.07 C 374.27 100.57 376.69 97.47 379.76 95.10 C 379.86 94.72 380.07 93.97 380.18 93.60 C 380.52 93.49 381.19 93.27 381.52 93.16 Z" />
<path fill="#ffffff" opacity="1.00" d=" M 458.23 96.34 C 458.51 96.03 458.80 95.73 459.10 95.44 C 461.58 98.04 464.19 100.50 466.66 103.11 C 461.57 108.41 456.41 113.69 450.99 118.65 L 451.70 120.43 C 449.86 119.87 450.62 118.36 451.35 117.19 C 455.68 112.27 460.55 107.83 465.13 103.14 C 462.81 100.89 460.63 98.50 458.23 96.34 Z" />
<path fill="#ffffff" opacity="1.00" d=" M 378.35 632.41 C 388.61 617.66 412.70 616.03 425.00 629.03 C 431.98 636.60 434.33 647.07 435.50 657.00 C 436.49 648.00 438.76 638.75 444.39 631.47 C 455.50 616.86 480.71 616.30 491.99 630.99 C 498.73 639.81 500.55 651.25 501.11 662.05 C 501.52 672.32 500.98 682.82 497.65 692.63 C 497.24 692.90 496.40 693.44 495.99 693.72 C 484.99 699.52 474.02 705.38 463.11 711.35 C 459.49 712.41 455.70 710.06 452.41 708.64 C 441.28 702.69 436.89 689.62 435.52 677.82 C 434.47 686.06 432.63 694.49 427.76 701.40 C 427.33 701.39 426.47 701.35 426.03 701.33 C 424.60 700.38 423.13 699.51 421.56 698.83 C 421.62 698.15 421.75 696.77 421.81 696.08 C 420.31 695.95 418.81 695.96 417.32 696.12 C 417.39 696.84 417.54 698.29 417.61 699.01 C 410.80 702.89 403.83 706.49 397.04 710.39 C 395.86 711.09 394.45 711.86 393.08 711.08 C 386.91 709.39 381.35 705.53 377.75 700.23 C 370.98 690.28 369.62 677.78 369.57 666.04 C 369.89 654.44 371.50 642.14 378.35 632.41 M 399.54 632.72 C 394.33 634.04 391.24 639.08 389.72 643.90 C 387.07 652.32 386.93 661.27 386.99 670.02 C 387.33 676.99 387.84 684.12 390.49 690.67 C 391.88 693.90 393.90 697.12 397.11 698.80 C 402.18 701.48 409.33 700.49 412.71 695.58 C 417.83 688.15 418.00 678.70 418.51 670.02 C 418.33 659.41 418.72 648.03 413.53 638.41 C 410.97 633.40 404.85 631.15 399.54 632.72 M 465.46 632.58 C 459.92 633.65 456.61 638.93 455.05 643.94 C 452.07 653.62 452.14 663.92 452.52 673.94 C 453.19 681.38 454.00 689.40 458.65 695.56 C 462.26 700.39 469.56 701.64 474.70 698.67 C 479.21 695.76 481.11 690.37 482.24 685.38 C 484.19 676.03 483.92 666.41 483.50 656.93 C 482.81 649.87 481.97 642.29 477.53 636.48 C 474.76 632.81 469.80 631.62 465.46 632.58 Z" />
<path fill="#ffffff" opacity="1.00" d=" M 348.35 622.35 C 353.97 621.54 359.96 622.19 365.72 622.04 C 365.65 649.81 365.76 677.58 365.67 705.35 C 360.46 702.39 355.16 699.61 349.85 696.85 C 349.56 696.64 348.99 696.22 348.70 696.01 C 348.68 678.31 348.63 660.62 348.72 642.92 C 340.79 649.41 331.19 653.43 321.27 655.75 C 320.85 651.86 321.17 647.94 321.09 644.04 C 331.89 639.41 341.65 632.08 348.35 622.35 Z" />
<path fill="#ffffff" opacity="1.00" d=" M 453.52 716.32 C 454.27 716.68 455.02 717.07 455.76 717.48 C 456.68 718.02 457.08 718.83 456.96 719.90 C 457.03 734.07 456.78 748.25 457.09 762.41 C 456.48 763.42 455.46 764.04 454.45 764.60 C 445.01 769.75 435.59 774.92 426.17 780.10 C 424.37 781.08 422.46 781.93 420.94 783.34 C 420.37 783.35 419.22 783.35 418.65 783.35 C 417.53 782.06 415.95 781.39 414.48 780.62 C 404.51 775.14 394.55 769.66 384.55 764.22 C 383.76 763.77 383.07 763.19 382.51 762.49 C 382.73 747.93 382.62 733.37 382.56 718.81 C 382.95 718.46 383.74 717.74 384.14 717.38 L 385.08 716.77 C 385.89 716.87 387.53 717.06 388.34 717.15 C 387.51 718.48 385.79 718.72 384.84 719.93 C 384.66 733.70 384.93 747.49 384.70 761.26 C 395.20 767.56 406.18 773.14 416.89 779.11 C 418.36 779.95 418.16 782.52 419.92 782.68 C 421.24 779.08 425.30 778.29 428.12 776.25 C 435.68 772.07 443.26 767.93 450.85 763.80 C 452.16 763.25 453.45 762.65 454.72 762.01 C 454.84 747.86 454.83 733.70 454.73 719.56 L 454.18 719.25 C 453.57 718.95 452.37 718.33 451.77 718.03 C 452.21 717.60 453.08 716.75 453.52 716.32 Z" />
</g>
<g id="#b92806ff">
<path fill="#b92806" opacity="1.00" d=" M 400.06 75.71 C 407.03 75.67 414.02 75.44 420.98 75.92 C 414.07 88.40 406.92 100.76 399.76 113.11 C 393.84 107.00 387.80 101.00 381.70 95.08 C 382.52 93.79 383.39 92.51 384.49 91.43 C 389.73 86.24 394.84 80.93 400.06 75.71 Z" />
</g>
<g id="#be3006ff">
<path fill="#be3006" opacity="1.00" d=" M 441.29 79.83 L 442.12 79.43 C 446.66 85.11 452.26 89.87 457.17 95.23 C 451.19 100.80 445.79 106.98 439.64 112.34 C 439.62 110.72 439.61 109.09 439.60 107.47 C 439.01 107.44 437.81 107.37 437.21 107.34 C 437.05 108.55 436.93 109.77 436.85 111.00 C 436.12 110.97 434.65 110.91 433.92 110.88 C 433.92 110.06 433.91 108.42 433.90 107.60 C 433.22 107.62 431.84 107.65 431.15 107.67 C 431.22 110.78 431.19 113.90 431.38 117.01 C 430.44 117.01 428.56 117.01 427.62 117.00 C 427.74 114.71 427.82 112.42 427.86 110.13 C 428.48 110.11 429.71 110.08 430.33 110.06 C 430.33 109.41 430.33 108.11 430.33 107.46 C 428.78 107.36 427.16 107.73 425.68 107.19 C 430.75 97.99 436.13 88.97 441.29 79.83 M 440.81 106.05 L 440.81 107.10 L 441.85 107.05 C 445.49 103.34 449.29 99.76 452.84 95.96 L 453.11 94.90 L 451.93 95.04 C 448.02 98.47 444.49 102.36 440.81 106.05 Z" />
</g>
<g id="#dd7f05ff">
<path fill="#dd7f05" opacity="1.00" d=" M 380.87 95.93 C 381.08 95.72 381.49 95.29 381.70 95.08 C 387.80 101.00 393.84 107.00 399.76 113.11 C 400.63 114.06 401.53 115.00 402.34 116.01 L 402.98 117.00 C 402.60 116.97 401.82 116.90 401.43 116.86 C 400.31 115.87 399.23 114.84 398.18 113.78 C 392.48 107.76 386.43 102.07 380.87 95.93 Z" />
</g>
<g id="#e37f02ff">
<path fill="#e37f02" opacity="1.00" d=" M 440.81 106.05 C 444.49 102.36 448.02 98.47 451.93 95.04 L 453.11 94.90 L 452.84 95.96 C 449.29 99.76 445.49 103.34 441.85 107.05 L 440.81 107.10 L 440.81 106.05 Z" />
</g>
<g id="#bb2906ff">
<path fill="#bb2906" opacity="1.00" d=" M 373.00 103.15 C 375.53 100.66 377.74 97.70 380.87 95.93 C 386.43 102.07 392.48 107.76 398.18 113.78 C 396.56 113.90 394.95 114.00 393.34 113.95 C 390.42 110.42 386.99 107.36 383.80 104.08 C 382.86 103.24 382.06 102.08 380.76 101.83 C 380.41 103.38 382.00 104.22 382.83 105.24 C 385.63 108.04 388.50 110.77 391.12 113.75 C 389.33 114.32 387.84 115.48 386.42 116.67 C 382.04 112.08 377.43 107.70 373.00 103.15 Z" />
</g>
<g id="#c53706ff">
<path fill="#c53706" opacity="1.00" d=" M 442.94 111.92 C 447.83 106.54 453.27 101.66 458.23 96.34 C 460.63 98.50 462.81 100.89 465.13 103.14 C 460.55 107.83 455.68 112.27 451.35 117.19 L 451.05 117.23 L 451.27 117.12 C 449.24 114.40 445.90 113.28 442.94 111.92 Z" />
</g>
<g id="#996200ff">
<path fill="#996200" opacity="1.00" d=" M 460.70 112.23 C 465.00 108.66 468.33 103.67 473.00 100.72 L 473.04 102.09 C 469.23 106.06 465.43 110.22 461.24 113.76 C 461.11 113.38 460.83 112.62 460.70 112.23 Z" />
</g>
<g id="#e38302ff">
<path fill="#e38302" opacity="1.00" d=" M 380.76 101.83 C 382.06 102.08 382.86 103.24 383.80 104.08 C 386.99 107.36 390.42 110.42 393.34 113.95 C 392.79 113.90 391.68 113.80 391.12 113.75 C 388.50 110.77 385.63 108.04 382.83 105.24 C 382.00 104.22 380.41 103.38 380.76 101.83 Z" />
</g>
<g id="#f9fcfcff">
<path fill="#f9fcfc" opacity="1.00" d=" M 437.21 107.34 C 437.81 107.37 439.01 107.44 439.60 107.47 C 439.61 109.09 439.62 110.72 439.64 112.34 C 439.63 112.87 439.61 113.93 439.60 114.46 C 439.56 115.09 439.49 116.34 439.46 116.96 C 438.92 116.95 437.83 116.91 437.29 116.89 C 437.24 116.08 437.15 114.47 437.10 113.66 C 436.28 113.65 434.64 113.64 433.82 113.63 C 433.77 114.47 433.68 116.14 433.63 116.98 C 433.07 116.98 431.95 117.00 431.38 117.01 C 431.19 113.90 431.22 110.78 431.15 107.67 C 431.84 107.65 433.22 107.62 433.90 107.60 C 433.91 108.42 433.92 110.06 433.92 110.88 C 434.65 110.91 436.12 110.97 436.85 111.00 C 436.93 109.77 437.05 108.55 437.21 107.34 Z" />
</g>
<g id="#ab310dff">
<path fill="#ab310d" opacity="1.00" d=" M 419.59 116.87 C 421.92 114.95 422.10 110.96 425.06 109.90 C 425.21 112.27 425.22 114.64 425.36 117.00 C 423.43 117.11 421.50 117.13 419.59 116.87 Z" />
</g>
<g id="#a8350dff">
<path fill="#a8350d" opacity="1.00" d=" M 439.60 114.46 C 440.77 113.72 441.95 112.93 442.94 111.92 C 445.90 113.28 449.24 114.40 451.27 117.12 L 451.05 117.23 C 450.62 117.41 449.76 117.77 449.33 117.95 C 448.92 117.62 448.10 116.96 447.70 116.63 C 445.01 117.41 442.20 117.04 439.46 116.96 C 439.49 116.34 439.56 115.09 439.60 114.46 Z" />
</g>
<g id="#a22e0eff">
<path fill="#a22e0e" opacity="1.00" d=" M 386.42 116.67 C 387.84 115.48 389.33 114.32 391.12 113.75 C 391.68 113.80 392.79 113.90 393.34 113.95 C 394.95 114.00 396.56 113.90 398.18 113.78 C 399.23 114.84 400.31 115.87 401.43 116.86 C 397.08 117.12 392.53 116.62 388.32 117.62 C 387.84 117.38 386.89 116.91 386.42 116.67 Z" />
</g>
<g id="#a63910ff">
<path fill="#a63910" opacity="1.00" d=" M 433.82 113.63 C 434.64 113.64 436.28 113.65 437.10 113.66 C 437.15 114.47 437.24 116.08 437.29 116.89 C 436.38 116.91 434.55 116.96 433.63 116.98 C 433.68 116.14 433.77 114.47 433.82 113.63 Z" />
</g>
<g id="#0000000e">
<path fill="#000000" opacity="0.05" d=" M 70.63 498.36 C 72.40 497.87 72.89 500.14 74.07 500.95 C 74.10 501.87 74.15 503.71 74.18 504.63 C 73.31 504.65 71.58 504.69 70.71 504.71 C 70.74 502.59 70.75 500.47 70.63 498.36 Z" />
</g>
<g id="#0000008f">
<path fill="#000000" opacity="0.56" d=" M 62.36 502.18 C 62.68 502.20 63.34 502.24 63.67 502.26 C 63.99 506.14 63.89 510.05 63.81 513.95 C 63.36 514.00 62.45 514.11 62.00 514.16 C 62.20 510.19 61.48 506.05 62.36 502.18 Z" />
</g>
<g id="#00000085">
<path fill="#000000" opacity="0.52" d=" M 66.29 502.22 C 66.64 502.24 67.32 502.27 67.66 502.29 C 68.46 506.15 67.85 510.24 67.98 514.19 C 67.51 514.15 66.58 514.08 66.11 514.04 C 66.07 510.10 65.76 506.13 66.29 502.22 Z" />
</g>
</svg>
