<svg xmlns="http://www.w3.org/2000/svg" viewBox="0 0 140 140"><defs><style>.cls-1{fill:#fff;}.cls-2{fill:#0a0a0a;}.cls-3{fill:#363636;}.cls-4{fill:#656565;}.cls-5{fill:#9a9a9a;}</style></defs><g id="图层_1" data-name="图层 1"><path class="cls-1" d="M25.09,47.09v0l0,0h0Z"/><polygon class="cls-1" points="56.29 106.45 56.29 106.46 56.3 106.46 56.29 106.45"/><path class="cls-1" d="M56.77,106.93h0l0,0Z"/><path class="cls-1" d="M73.3,120.19a3.07,3.07,0,0,0,1.86-1.68c.16-.27.26-.64,0-.85s-.53.11-.68.32a3.34,3.34,0,0,1-1.85,1.16c-2,.68-3.69-.07-5.4-.89a6.16,6.16,0,0,0-2.71-.63,13.57,13.57,0,0,0-7,1.58c-.36-.25-.28-.51,0-.77s.5-.37.56-.6a16.39,16.39,0,0,0,.29-7.72c-.1-.44-.77-.69-.51-1.34.49.22,1,.58,1.6.18-.71-.5-1.21-1.23-2.2-1a1,1,0,0,1-.45-1c-.36,0-.41-.22-.48-.47-.22-.09-.46-.17-.24-.47a.94.94,0,0,1-1-.19l-1.33-.54c-.75.07-1.4-.38-2.13-.46l-.27.08-.44-.1c-.35-.06-.74.08-1-.21l-.14-.25c0-.73.84-.75,1.12-1.3-1.36-.58-2.56.32-3.95.36.27-.35.66-.63.46-.95s-.64,0-.95,0a3.18,3.18,0,0,0-1,.39c-.69.39-1.29.57-1.66-.4a.68.68,0,0,0-1-.44,3.41,3.41,0,0,0-1.3.66c-1,.1-1.38-.85-2-1.37s-.51-1.68-1.25-2.25c-.48-.36-.39-.89-.43-1.38,0-1.59.89-2.87,1.55-4.22l.66-.26c0-.07,0-.14,0-.21l.11-.26L40,92.49a18.44,18.44,0,0,1,1.73-1.36c1.81-1.1,3.61-1.47,5.38.13a9.88,9.88,0,0,0,2,2.41.84.84,0,0,0,.17-.71.36.36,0,0,1-.17-.49c-.27-.32-.56-.63-.8-1-.45-.64-.25-.91.51-.85.15.2.42.32.43.62.33,0,.48.19.43.52a4.62,4.62,0,0,1,1.65,2.15c0,.28.27.21.45.26.2.86-.61.9-1.12,1.23,1,.72,1.28-.42,1.9-.59h.22c.1.21.25.54.45.44.81-.37,1.28.35,1.91.51.13-1.19-.62-1.73-1.58-2.12-.31-.49-.15-1.32-1-1.42-1-.89-.26-2-.48-3.07a14.13,14.13,0,0,0,1.17-4c.23-.28.52-.55.2-1A12.42,12.42,0,0,1,54,81.43a6.13,6.13,0,0,0,.47-2.68c0-.31-.08-.6-.39-.64-.49-.06-.24.41-.3.6-.29,1,0,2.16-.6,3.13-.36.23-.68.63-1.19.31-.05,0-.45-.33-.39.19s-.28,1.29.15,1.89a2.7,2.7,0,0,1-.46,2.36,1,1,0,0,1-1-.82c-.14-.75-.29-1.51-.44-2.27.08-.46.56-.88.17-1.4l.08-.49c.16-1.43.56-2.87.1-4.32-.1-.31.21-.87-.46-.87s-.57.58-.56,1c0,1.25.13,2.5.2,3.75-1,.81-1.54-.42-2.4-.82.31.7.44,1.24.95,1.54-.17.83.89,1,.94,1.68-.57.15-1.09,1.32-1.69.35s-1.36-1.79-1.31-3c-.12-.49.58-1.19-.42-1.5,0,.53.1,1,.15,1.52l-.22.27H44.7c-.2-.46-.85-.6-.86-1.28-.41,1-1.32,1-2.07,1.23-.26.09-.66-.41-.78.07a.88.88,0,0,0,.52,1.16l.37.69c0,.26-.09.52-.14.78h0l0,0h0c-.21,0-.51.06-.5.33s.37.42.64.53c-.39.6-1.15.31-1.65.68-.38.91-1.12.2-1.67.37a.31.31,0,0,0-.44.11l-.16,0,.16.17A1.85,1.85,0,0,0,39,87a11.44,11.44,0,0,0-4.22,1c-.28.16-.8.07-.83.42s.54.36.85.71c-.87,0-1.32.73-2.09.9s-1.21,1-2,1.11a.28.28,0,0,0-.19.37c.07.24.31.2.46.3.51.34,1.21-.31,1.63.31-.46.54-.93,1.07-1.38,1.62-.15.19-.54.33-.29.66s.55.22.85.06l.59-.12.27-.3.18-.38a.93.93,0,0,0,.24-.62.93.93,0,0,1-.24.62l-.18.38-.27.3-.59.12c0,.87-.77,1.43-.84,2.26,0,.17-.22.49,0,.47,1.55-.17.42.86.61,1.28.37.86-.31,1.91.5,2.67h0l.15.33c0,.46.39.69.66,1l.11-.1h0l.88.06h0l-.88-.06-.11.1c.35.73,1.18.88,1.69,1.41.48.12.87.63,1.45.39l.44.19,1.16.62,0,.54-.61-.2-.54-.16c-.46-.68-1.38-.47-1.92-1-.15,0-.33,0-.44,0-.42.22-.54.79-.79,1-1,.91-2.26.33-3.42.14a.93.93,0,0,1-.66-.37c-.09-.14.08-.43.09-.65,0-.38.15-.79-.17-1.11-1.06-1.06-1.79.49-2.78.38a.74.74,0,0,0-.54,1.08c.2.75.39.8,1.63.45a.79.79,0,0,0,.22.06c.07.23.25.26.46.25a7.09,7.09,0,0,1,0,.8c0,.27-.18.55.28.59.3,0,.52,0,.51-.41a2.46,2.46,0,0,1,.16-.69,9.06,9.06,0,0,1,2.43,1.53c.12.27-.06.42-.22.59a7.1,7.1,0,0,1-4.46,2.12c-.13.36-.34.62-.75.61q-1.44,0-2.88-.09c-1,0-.07-.37-.08-.56a37.89,37.89,0,0,1-7.4-1.88c-1.56-.65-2.94,0-4.25.88-.17.11-.37.23-.11.4s.36-.08.49-.22l2.83.06c1.37,0,2.51.85,3.81,1.15.67.25,1.14.88,1.91,1a25.18,25.18,0,0,0,4.89.55c1.65,0,3.33.13,4.86-.78,1.14-.68,2-1.76,3.2-2.33a6.29,6.29,0,0,1,2.31-1.26,1.21,1.21,0,0,1,.93.11c.22.14-.12.39-.18.59a.34.34,0,0,0-.19.07h-.12c-1.71-.07-2.2,1.51-3.17,2.42a10.92,10.92,0,0,0-1.18,1.57c.08.9-.39,1.73-.29,2.64.26,2.37,1.74,4.07,3.36,5.56.73.67,1.23,1.81,2.46,1.86a3.58,3.58,0,0,1,1.49.62,3.21,3.21,0,0,0,2.33.69c.2.35,1,.39.74.89a1.14,1.14,0,0,1-1.34.5c-.63-.15-1.28-.1-1.92-.28a31,31,0,0,1-4.74-1.41,7.53,7.53,0,0,0-4.51,0c-.46-.31-.95-.12-1.44-.1a.15.15,0,0,0-.17,0c-.86-.09-1.67-.74-2.6-.24-.28.15-.6.32-.57.66s.5.06.69.4c-.54.11-.67.83-1.32.8l.11.7-.36.22a.88.88,0,0,1-.6.86c0,.26.11.6,0,.79-.81,1.29-.32,2.33.56,3.31l.31-.05c.81.27,1,1.07,1.5,1.66.21.27.42.63.84.49s.2-.53.22-.8c0-.49,0-1,0-1.48.64.14,1,.9,1.7.52-1.4-2.24-1.61-3-1-4.14.37,1.21,1.35,1.13,2.3,1.2-.63-.82-1.58-1.3-1.79-2.36.18-.63-.42-1.36.24-1.93.39.35.88.28,1.35.33.93,0,1.7.69,2.65.73.34,0,.4.39.75,1.06.23.44.84.56,1.38.67,1,.2,2.18-.11,3.14.55-.22.8-1.45.43-1.51,1.4a3.9,3.9,0,0,1,1.41.19,3.06,3.06,0,0,0,3.12-1,4.11,4.11,0,0,1,1.48.08c-.07.31-.45.52-.32.88a6.23,6.23,0,0,0,3.34-1.16,2.55,2.55,0,0,1,1.19-.18c.5.41.86,0,1.17-.27.76-.57,1.45-1.22,2.16-1.84.53-.25,1.07-.47,1.57-.75,1.65-.92,3.45-1.66,4.32-3.54a42.16,42.16,0,0,1,5-1.87,7.68,7.68,0,0,1,6.7.35A8.3,8.3,0,0,0,73.3,120.19Zm-27.38,7v0Zm-11.47-14.8h0l.51-.52c.18-.4.29-.84.46-1.25-.17.41-.28.85-.46,1.25Zm-2.18-11.89,0,0Zm2.6-.9a.87.87,0,0,1-.16-.39A.87.87,0,0,0,34.87,99.59Zm3.17,4c0-.32-.16-.63.09-.91h0C37.88,102.92,38,103.23,38,103.55Zm4.22,3.93a.42.42,0,0,0,.22,0,.42.42,0,0,1-.22,0c-.07,0-.18-.07-.24-.1S42.19,107.44,42.26,107.48Zm1.49.58.73,0-.73,0a1,1,0,0,1-1-.27A1,1,0,0,0,43.75,108.06Zm2.55.78c.36,0,.69-.28.7-.51a.61.61,0,0,0-.62-.72c.19-.89,1-.18,1.42-.57.83,0,1.51.64,2.35.6l0,.69a20.17,20.17,0,0,1-3,1.58l-2.27-.21c-.34,0-.84.14-.79-.51C44.79,109.07,45.54,108.92,46.3,108.84Zm7.14.48h0l.32,0Zm-12.54-3.6a.74.74,0,0,0,0-.14A.74.74,0,0,1,40.9,105.72Zm-4,.57h0v0Zm-.41,3.4c.18.14.1.29,0,.45C36.59,110,36.67,109.83,36.49,109.69Zm-.92,2a1.53,1.53,0,0,1,.27-.3A1.53,1.53,0,0,0,35.57,111.72Zm-.63,2.1a3,3,0,0,1,.33-1,3,3,0,0,0-.33,1,.79.79,0,0,0-.16.64A.79.79,0,0,1,34.94,113.82Zm1-2.55a.79.79,0,0,0,.26-.53,5.09,5.09,0,0,1,.55,0,5.09,5.09,0,0,0-.55,0A.79.79,0,0,1,36,111.27Zm1.11-.54a.88.88,0,0,1-.28,0A.88.88,0,0,0,37.09,110.73Zm11.71.9c.94-1.06,1.68-2.44,3.43-2.29a6.2,6.2,0,0,1,.63,4.1h0l-.36.13c-.65-.45-1.52-.09-2.16-.57.17-.4.65-.28.94-.59A9.13,9.13,0,0,0,48.8,111.63Zm5.59,8-.07-.08ZM41.84,104.6l-.9.51a1.19,1.19,0,0,1,0,.46,1.19,1.19,0,0,0,0-.46Zm1.93-21.09,0,0,0,0h0Zm2.12,3.06h0l-.46-.12Zm-9.53,22.68a.62.62,0,0,0-.15.29h0A.62.62,0,0,1,36.36,109.25Zm-2.55,3.15c.15,0,.33,0,.49,0C34.14,112.38,34,112.41,33.81,112.4ZM43,121l-.7-.17.7.17a3.81,3.81,0,0,0,1.42.19,4.05,4.05,0,0,1-.44.69,4.05,4.05,0,0,0,.44-.69A3.81,3.81,0,0,1,43,121Zm-1.41-.24a8.7,8.7,0,0,1-.88-.22,8.7,8.7,0,0,0,.88.22Zm3.64-.67c-.29,0-.55-.15-.53.31a10.4,10.4,0,0,1-3.48-1.44c-.26-.18-.56.39-1.11-.05a5.19,5.19,0,0,1-1.75-2c-.07-.18-.25-.74-.75-.45-.43-.1-.35-.75-.86-.76a.85.85,0,0,0-.05.62.85.85,0,0,1,.05-.62l-.18-.69a3.38,3.38,0,0,1-.45,0h.45a4.46,4.46,0,0,1-.27-1.81l.34-.07c1.47-.14,3-1.15,4.32.46,0,0,.07,0,.11,0a6.75,6.75,0,0,1,4.28,1.76c.78.62,1.6,1.19,2.4,1.78a12,12,0,0,0,3.16-.33c.37-.62-.89-.89-.33-1.55.35.29.67.67,1.21.41,0,.62,0,1.25-.88,1.14a12,12,0,0,1-3.16.33,3.56,3.56,0,0,1,.42,1.42c-.65,0-1-.84-1.81-.31a4.68,4.68,0,0,1,1.68,1.26v.45l-.07.23C47.06,120.57,46.16,120.05,45.25,120.06Zm.67,7.38a.13.13,0,0,0,0-.08h0A.13.13,0,0,1,45.92,127.44Zm2.61-3.77a.74.74,0,0,1-.77-.4.74.74,0,0,0,.77.4,1.59,1.59,0,0,1,2.13.09A1.59,1.59,0,0,0,48.53,123.67Z"/><path class="cls-1" d="M23.91,124.93h0v0Z"/><path class="cls-1" d="M56.32,106.44h0Z"/><path class="cls-1" d="M56.07,106h0s0,0,0,0h0Z"/><path class="cls-1" d="M56.32,106.44c.5-.19.43.2.47.49l.47.41c.25-.08.44-.3.74-.26s.62,0,.69-.3-.28-.42-.5-.55a11.74,11.74,0,0,0-1.72-.9c-.38-.13-.94-.3-1.09.41.27,0,.55-.11.69.23C56.31,106.05,56.54,106.13,56.32,106.44Z"/><path class="cls-1" d="M51.73,104.32a7,7,0,0,0,2,.73c.65-.09,1.39.07,1.91-.7C54.26,103.9,53,103.27,51.73,104.32Z"/><path class="cls-1" d="M55.13,95.82v0h0v0Z"/><path class="cls-1" d="M55.64,98.33c-.06.51.19.9.87,1.36a5.33,5.33,0,0,1-.24-2.56,1.12,1.12,0,0,0-1.14-1.31A4.13,4.13,0,0,1,55.64,98.33Z"/><path class="cls-1" d="M49.55,94.46c-.54.19-.86-.24-1.3-.3-1.16-.77-2.53-.82-3.82-1.18L42,92.68l.18.46a6.57,6.57,0,0,0,2.29.31,17.19,17.19,0,0,0,3.52,1,14.87,14.87,0,0,1,1.29,1c.28.24.51.52.9.34a.43.43,0,0,0,.15-.62C50.13,94.84,50,94.29,49.55,94.46Z"/><path class="cls-1" d="M40,84.88l0-.74c-.48-.32-.83-.94-1.7-.72C38.86,84,39.25,84.63,40,84.88Z"/><path class="cls-1" d="M120.47,68.38v2.41l.32,0C120.81,70,121.07,69.15,120.47,68.38Z"/><path class="cls-1" d="M59.26,125c0,.44.19.65.52.73C59.9,125.3,59.73,125.1,59.26,125Z"/><path class="cls-1" d="M23.6,130.88l0,0h0l0,0h0Z"/></g><g id="图层_3" data-name="图层 3"><path class="cls-2" d="M119.09,93.26c.39-.22.09-.76.46-1,.43.11,0,.67.47.83.14-.82,1.08-1.51.26-2.42.14-.06.39-.1.4-.17a1.42,1.42,0,0,0-.11-.55s0,0-.06,0c.31.25.32-.11.47-.21s.63-.15.53-.59v-.09l.14-.36c.32,0,.27-.22.3-.41l.12-.22-.26,0a.35.35,0,0,0-.13.4c-.63-.77-.12-1.58.14-2.22a9.9,9.9,0,0,0,.82-3.07,7.67,7.67,0,0,1,.55-2.29,22.23,22.23,0,0,0,1.31-7.73,58.45,58.45,0,0,0-.75-14.47,16.11,16.11,0,0,0-1.11-4c-.49-3-1.93-5.73-3.07-8.51A42.69,42.69,0,0,0,113.46,36c-1.08-1.38-2.25-2.69-3.37-4-1-1.62-2.69-2.53-4-3.81h0c-.09-.85-.78-1-1.4-1.21l-.23-.24c0-.59-.43-.72-.92-.72h0a2,2,0,0,0-1.76-1.3c-.17-.06-.34-.12-.39-.33,0-.41-.21-.47-.55-.39l-.37-.14c-.1-.16-.16-.38-.31-.47a54.66,54.66,0,0,0-10.71-5.55A18.11,18.11,0,0,0,87,16.62c-2.06-.48-4.1-1-6.15-1.57-1.83-.49-3.71-.77-5.58-1.1-1.68-.29-3.34.14-5-.17a27.93,27.93,0,0,0-5.71-.1c-1.35,0-2.6.55-3.95.57a21,21,0,0,0-4.36.84c-.29.05-.63-.05-.83.26a15,15,0,0,0-2.29.46,77.12,77.12,0,0,0-9.11,3.8,5.58,5.58,0,0,0-1.85.86c-.84.79-2.2.71-2.91,1.73A12.26,12.26,0,0,0,37,23.86a9.22,9.22,0,0,0-3.49,2.24,29.37,29.37,0,0,1-2.81,2.77A14,14,0,0,0,27,32.72a10.27,10.27,0,0,1-1.24,1.4c-1.11,1.25-2.56,2.3-2.74,4.17a.79.79,0,0,0-.66,1,17.82,17.82,0,0,0-3.66,6.14,80.44,80.44,0,0,0-3.7,10,22.85,22.85,0,0,0-1,5.75,18.18,18.18,0,0,1-.38,4.18c-.44,1.77.18,3.52-.22,5.25a.35.35,0,0,0,.32.41c.2,2-.33,3.94.14,5.89a5.13,5.13,0,0,0-.24,1.36,39.5,39.5,0,0,0,1.67,7.21c.19.64.17,1.42.85,1.86a10.35,10.35,0,0,0,1.68,4c.11.25.21.5.32.76A1.74,1.74,0,0,0,19,94.39a1.88,1.88,0,0,1,.86,1.42c-.16-.11-.38-.33-.48-.29-.27.12-.17.42,0,.59.52.69.79,1.57,1.55,2.07l-.52.16c.24.33.28.9.92.82,0-.41-.49-.58-.41-1h.61c-.07.32.16.5.35.69a.21.21,0,0,0,0,.07l.06.14,0,.51c-.27,0-.71-.08-.44.46a1.65,1.65,0,0,1,.21,1,.61.61,0,0,1-.54-.31c-.47-.82-1-1.59-1.54-2.39-1.6-3.12-3.11-6.29-4.45-9.53a23.8,23.8,0,0,1-1.35-4.57c-.55-2.82-1.28-5.61-1.64-8.47a56.45,56.45,0,0,1,.68-17.64l-.09-.33v0a1.54,1.54,0,0,0,.4-1.23.15.15,0,0,0,.05-.17l.46-1.71.36.54c-.14-.59,1.4-1.23-.06-1.75L14,52.23a1.32,1.32,0,0,0,.2-.12c.22.19,0,1.16.39.61s1.18-1.35.63-2.31c.17,0,.38,0,.41-.23,0-.06-.12-.19-.17-.19-.25,0-.26.2-.28.39-.39-.33-.12-.63,0-.93s.93-.06,1.11-.69-1,0-.66-.72c.49-1.64,1.45-3,2.08-4.62.19-.47.64-.87.4-1.49-.06-.14.13-.48.29-.58,1.41-.89,1.38-2.67,2.47-3.86a18.47,18.47,0,0,0,2.34-3.41c.13.07.35.21.36.2a.93.93,0,0,0,0-.75h0c.29,0,.3.73.64.42a1.08,1.08,0,0,0,.33-1.34c0-.16-.28-.26,0-.48a64.54,64.54,0,0,0,4.69-4.81c.35.12-.34,1.24.48.67.51-.36,1-.94,1.51-1.4s.32-.68-.22-.84c1.68-1.43,3.57-2.58,5.36-3.86a2.52,2.52,0,0,0,.39-.41A35.78,35.78,0,0,1,41,19.1c4-2.45,8.32-4,12.62-5.68.36-.15.91.16,1.09-.43l.47,0a.43.43,0,0,0,.49-.17h.47a6.17,6.17,0,0,0,1.89-.47l.46-.08a.66.66,0,0,0,.72-.16c4.08-.39,8.17-.16,12.26-.23,6.25-.11,12.18,1.41,18,3.44l.65.25,5.4,2.73c.41.2.78.58,1.31.42h0c.08.47.48.59.83.74a25.61,25.61,0,0,1,5.25,3.3,61,61,0,0,1,5.57,4.42A67.23,67.23,0,0,1,116.7,37.2a45.63,45.63,0,0,1,4.53,8.21c1.06,2.48,2.41,4.87,3,7.49A60,60,0,0,1,126,63.25a82.86,82.86,0,0,1,.1,9.84c-.25,1.59-.17,3.21-.56,4.79-.34,2-.88,4-1.06,6.15,1.15-.34,1.48,0,1.68,1.61a54.24,54.24,0,0,1-3.26,6.57c-1.07,1.7-2.22,3.34-3.34,5-1,1.45-1.61,3.14-2.85,4.42a14.44,14.44,0,0,0-2.17,3.31c-.42.78-1.12,1.47-.85,2.48v0c-.56,0-1.15-.15-1.19.69l-.21,0a2.46,2.46,0,0,0-1.62,1.9c-.11.42-.25.82-.76.93-.37,0-.64.07-.65.5a26,26,0,0,1-6.35,4.34c-.3.17-.7.18-.84.58-.54,1.62-1.91,2.3-3.32,3a9.93,9.93,0,0,0-1.93,1.1,10,10,0,0,1-3.87,1.81c-.27.07-.55,0-.58.42l-.92.55a2.46,2.46,0,0,0-1.32.39c-.17.07-.42.3-.52.11-.73-1.4-1.48-.15-2.22,0-.51.36-1.1.19-1.66.28a1.28,1.28,0,0,0-1.34.64l-1.44.25c-.68-.46-1.12.59-2,.07.39.5.75.65.73,1a12.61,12.61,0,0,0-2.93.29l-.34-.18-.23-.95a2.5,2.5,0,0,0,1.66-.57l.44-.18c.33-.07.36-.42.55-.61.88.75,1.36.1,1.84-.53,1.48.35,4.36-.78,5-2a1,1,0,0,1,.57-.37,48.23,48.23,0,0,0,6-2.58,29.49,29.49,0,0,0,5.49-3.56l.41-.18c.88-.12,1.19-1.17,2.07-1.29.63.9.86-.1,1.26-.27l-.77,0,.56-.58c.46-.12.61-.7,1.12-.76l-.31.94c.84-.44.84-.44.28-1l2.27-2.07-.15.88-.31,0,.07.13.23-.18c.77-.13.2-.57.2-.87-.14-.13-.09-.23.06-.31.72.32,1.09,0,1.16-.71l.31-.22c.33,0,.38-.25.39-.51.18-.14.24-.55.61-.28.13.1,0,.4.34.36a.16.16,0,0,0,.08-.08c0-.28-.27-.19-.37-.33-.28-.39.18-.42.29-.62,1,.8,1-.18,1.19-.69.07,0,.24,0,.09-.16l-.09.16-.4,0,.2-.41c1.07,0,1.57-.71,1.92-1.59l.3-.23c-.2-.2-.3,0-.41.1a.36.36,0,0,1-.44-.21,21.71,21.71,0,0,0,3.36-4.44,15.72,15.72,0,0,0,2.34-3.57c.15-.65-.07-1.5.94-1.66C119.13,94.05,119,93.61,119.09,93.26Zm4.48-5.73a3.82,3.82,0,0,0,.88-2.87,5.81,5.81,0,0,0-.87,2.88c-.11,0-.23,0-.11.16Zm-.34.77,0-.09-.08.06Z"/><path class="cls-3" d="M28.11,38.74c.13-.32.09-.78.61-.82,0,.22-.09.48.23.55s.31,0,.3-.31c0-.5.5-.63.76-.94s.34-.65-.21-.8l.1-.46A3.39,3.39,0,0,0,32,33.84a45,45,0,0,1,4.29-4c1.66-1.49,3.58-2.64,5.14-4.22a7.22,7.22,0,0,1,2.58-1.33c3-1.3,5.78-3,8.88-4.1,1.28-.44,2.62-.67,3.94-1,.34.47.81.25,1.18.15A86,86,0,0,1,68,17.51l4,0,.22.4H68.59v.26H72.7l5.67.52h.43c.06.13.13.23.3.2l4,.89.47.05c1.11.23,2.12.89,3.31.71l.22.07.31.29a.13.13,0,0,0,.07.1,42,42,0,0,0,4.56,2c.85,1,2.16,1,3.22,1.49,2.18,1.09,4,2.61,6.1,3.88,1,.6,1.53,1.75,2.75,2,1,1.31,2.53,2.19,3.35,3.69.06.6.63.69,1,1a2.6,2.6,0,0,0,1.4,1.31c.26.14.44.11.51.48.24,1.35,1.31,2.2,2.07,3.23a14.43,14.43,0,0,0,1.63,1.59c-.22,0-.62,0-.39.32,1.28,1.77,1.82,3.95,3.19,5.67.17,1.25,1.24,2.06,1.57,3.24,0,.23,0,.46.36.48h0a7.76,7.76,0,0,0,1,2.85,3.56,3.56,0,0,0,.35,1.87,21.71,21.71,0,0,0,1.06,3.44h0l.06.54a1,1,0,0,0,0,.35c.18.41.35.35.47,0,.33.35.09.77.17,1.15-.19,0-.41,0-.3.3,0,.09.14.16.21.24l.11-.52c.7.55-.53,1.09,0,1.64a15.16,15.16,0,0,0,.28,4.09c.34-1.37-.17-2.7-.07-4l.17-.24s.07,0,.07.06c.17,1.89.34,3.79.49,5.68,0,.23,0,.57-.1.67-1,.73-.44,1.69-.54,2.64.75-.35,0-1.28.8-1.48A60.1,60.1,0,0,1,120.24,86c-1.26,4.11-3.39,7.77-5.37,11.5a29.11,29.11,0,0,1-3.65,5,37.49,37.49,0,0,1-5,5c-1.1.87-2.43,1.48-3.61,2.29-.12.08-.36.09-.41.2-.87,1.84-3.09,1.42-4.39,2.67s-3,1.71-4.57,2.51c-1,.48-2,.85-2.89,1.41a2.78,2.78,0,0,1-1.82.32l-1.43.5-.7.09.46-.89.23-.13c0,.16.1.33.28.31.33,0,.41-.32.46-.6,2-.85,4-1.83,5.92-2.8a28.62,28.62,0,0,0,4-2.42,78.79,78.79,0,0,0,6.52-4.72c.61-.55,1-1.4,1.83-1.66.67-.06.73-.41.45-.93h0c1.07.23,1.63-.29,1.86-1.69l.2-.17c.11.32.33.57.63.25s0-.46-.27-.58l.13-.43c.87.42,1.22-.45,1.31-.85s1.13-.45.38-1c.21-.38.16-.87.54-1.16,1.09-.21,1.48-1.35,2.39-1.84.18-.1.39-1,.68-1.5,1.19-2.16,2.25-4.4,3.36-6.62.16-.3.21-.6-.17-.79.26-2.16,1.51-4,1.87-6.15a11.09,11.09,0,0,0,.35-2.06l.07-.39,0-.3a12.89,12.89,0,0,0,.28-2.62,38.47,38.47,0,0,0,.2-10.39l0-.44c.32-.54-.06-1.06-.17-1.51-.33-1.33,0-2.76-.65-4a.49.49,0,0,0-.48-.44l-.06,0,.07-.25c.15,0,.4,0,.33-.3l-.41.1a.45.45,0,0,0-.2,0V58.2l.07,0c.23-.18.65-.25.56-.63a.69.69,0,0,0-.83-.59,5.76,5.76,0,0,0-1-2.36c.14-.46.22-.89-.48-.92.58-.73-.32-1-.5-1.5-.6-1.65-1.33-3.25-2-4.9A5.83,5.83,0,0,0,113.1,45,1.84,1.84,0,0,0,112,42.83a46.26,46.26,0,0,0-3.29-4.61c-1.46-1.62-2.64-3.49-4.55-4.76a11.57,11.57,0,0,1-2.28-2.16c-.89-1.08-2.23-1.47-3.28-2.31a34.78,34.78,0,0,0-6.17-3.75,31.8,31.8,0,0,0-3.8-1.48c-1.58-.56-3.18-1.1-4.76-1.67A34.73,34.73,0,0,0,76,20.43a46.17,46.17,0,0,0-19.48,1.62c-5,1.55-10,3.25-14.26,6.53A85.82,85.82,0,0,0,34.79,35a43.26,43.26,0,0,0-6.66,8.4,51.3,51.3,0,0,0-4.37,8.58A53.63,53.63,0,0,0,21.42,61a38.45,38.45,0,0,0-.76,7.09l-.16.1.18.14c.22.29.05.63.13.94-.8.21-.56.86-.6,1.4-.55.66-.13,1.42-.22,2.13l0,.31a46.4,46.4,0,0,0,1.61,10.14c-.23.64.57,1,.45,1.6a5.11,5.11,0,0,0,1,2.3h0c.2,2.72,1.83,4.85,3,7.18.17.48.54.92.25,1.62-.22-1.42-1.79-.64-2.27-1.61.15-.18,0-.26-.12-.32l-.06.06.05-.06c-.61-.75-.6-1.79-1.24-2.52-.8-1.7-1.61-3.39-2.4-5.08a4.37,4.37,0,0,1-.48-1.77c.39-.46-.08-1,.31-1.6.19-.27-.17-1.37-.42-1.42a.72.72,0,0,1-.52-1.06c.89-.92.06-1.08-.54-1.37l0-.21c.5,0,.74-.3.57-.75a10.11,10.11,0,0,1-.39-3c0-.32-.06-.53-.42-.56a.74.74,0,0,0-.07-.21c.55-1.06.16-2.2.24-3.29a10.31,10.31,0,0,0,0-2.42c0-.85,0-1.71,0-2.57,0-.36-.11-.5-.45-.51V64.59c.84-.06.63-.64.57-1.15a59.94,59.94,0,0,1,2.1-9.26,40.76,40.76,0,0,1,1.91-4.41c.2-.42,0-.94.38-1.28a3.36,3.36,0,0,0,1.2-2.36l0,0c.22.05.31,0,.26-.26l0,0c.21.07.21-.13.29-.23a.81.81,0,0,0,.43-.91,14.48,14.48,0,0,0,2.47-4.27C27.85,39.94,28.36,39.43,28.11,38.74Zm94.17,33.9a3.76,3.76,0,0,0,0,1.84A3.49,3.49,0,0,0,122.28,72.64Zm-9.77,24.93.08.06v-.09Z"/><path class="cls-4" d="M39.3,22.2c.71-1,2.07-.94,2.91-1.73,1.21.43,1.39.34,1.85-.86a77.12,77.12,0,0,1,9.11-3.8,15,15,0,0,1,2.29-.46c-.08.52-.16,1-.23,1.57-2.6,1-5.2,1.93-7.78,3a30.88,30.88,0,0,0-5.79,3.34c-.59.4-1.22.69-1.82,1.06-4.41,2.69-7.9,6.39-11.23,10.26a52.45,52.45,0,0,0-4,5.64,64.67,64.67,0,0,0-5.26,10.57c-.45,1.08-1.52,2-1.34,3.22.22,1.64-.68,3-.89,4.45-.37.16-.79-.63-.79-.29,0,.95-.74,1.71-.61,2.67s-.38,1.89-.47,2.86a30.47,30.47,0,0,1-.9,6.37h0c-.38.21-.11.8-.57,1a.35.35,0,0,1-.32-.41c.4-1.73-.22-3.48.22-5.25A18.18,18.18,0,0,0,14,61.16a22.85,22.85,0,0,1,1-5.75,80.44,80.44,0,0,1,3.7-10,17.82,17.82,0,0,1,3.66-6.14c.35-.24.75-.45.66-1,.18-1.87,1.63-2.92,2.74-4.17A10.27,10.27,0,0,0,27,32.72a14,14,0,0,1,3.71-3.85,29.37,29.37,0,0,0,2.81-2.77A9.22,9.22,0,0,1,37,23.86C38.6,23.81,39.29,23.31,39.3,22.2ZM16.69,57.41c.14-.61.66-1.17.23-1.88C16.68,56.13,16.13,56.66,16.69,57.41Z"/><path class="cls-4" d="M126.08,73.09a82.86,82.86,0,0,0-.1-9.84,60,60,0,0,0-1.72-10.35c-.62-2.62-2-5-3-7.49a45.63,45.63,0,0,0-4.53-8.21,67.23,67.23,0,0,0-8.19-10.07,61,61,0,0,0-5.57-4.42,25.61,25.61,0,0,0-5.25-3.3c-.35-.15-.75-.27-.83-.74a20.24,20.24,0,0,1,6,3.3c2.33,1.75,4.93,3.14,7,5.25a18.8,18.8,0,0,1,2,2.3c.67.94,2,1.4,2.62,2.39,1.83,2.71,4.33,4.91,5.78,7.94,1,2,2.19,3.93,3.31,5.87a50.56,50.56,0,0,1,2.07,5.22,43.56,43.56,0,0,1,2.81,11.15,53.2,53.2,0,0,1,.4,12.16,65,65,0,0,1-1.88,10.66c-.14.57-.38,1.11-.57,1.66-.43-.22.25-.72-.23-.93-.2-1.61-.53-2-1.68-1.61.18-2.11.72-4.11,1.06-6.15.74-.33,1.24-.81,1.08-1.7a.46.46,0,0,1,.13-.49A1.55,1.55,0,0,0,126.08,73.09Z"/><path class="cls-3" d="M56.61,106.73c1-.19,1.49.54,2.2,1-.65.4-1.11,0-1.6-.18-.26.65.41.9.51,1.35a16.35,16.35,0,0,1-.3,7.71c-.05.24-.35.41-.55.6s-.35.52,0,.77a.94.94,0,0,1-1.21.37c-.87-.5-1.25,0-1.61.64L54,119c-.05-.33-.32-.8-.54-.52-.71.9-1.39.52-2.13.17a.39.39,0,0,0-.53.12c-.36.56-.67.56-1.08,0s-.82-.3-1.21-.2-.06.51-.08.78c0,.48-.23.71-.72.66s-.71,0-1.05-.1-.54-.24-.73.07.08.44.16.65a.92.92,0,0,0,.92.75c1,0,.41.42.14.73-1-.36-.82.7-.9,1-.23.81-1.38,1.51-.48,2.54v0c-.35,0-.48.24-.49.57a.1.1,0,0,1,0,.14,2.75,2.75,0,0,0-1.2.18c-.52-.48-2.29-.31-3,.28a4.27,4.27,0,0,0-1.47-.07,10.11,10.11,0,0,0-3-.63c-1-.66-2.1-.36-3.15-.56-.53-.1-1.14-.23-1.37-.67-.35-.67-.41-1-.75-1.06-.95,0-1.72-.68-2.66-.72l.07-.87a7.42,7.42,0,0,1,4.5.06A32.64,32.64,0,0,0,38,123.68c.64.18,1.28.13,1.91.27a1.14,1.14,0,0,0,1.34-.49c.23-.51-.53-.54-.73-.89.3-.24.57-.62.91-.69a3.43,3.43,0,0,0,2.44-1.9c.66-.06.35-.47.28-.79s.24-.3.52-.31c.92,0,1.82.52,2.75.1.12,0,.28.08.32-.11,0,0-.16-.08-.25-.12v-.45a16.1,16.1,0,0,1,3.59-.5c.31,0,.41,0,.46-.44.18-1.31,1.15-2.3,1.7-3.45.7-1.45,1.13-1.93.64-3.61a.8.8,0,0,1,0-.46c.15-.58.2-1.06-.61-1.14-.24,0-.32-.32-.38-.56a1.68,1.68,0,0,1,1.24.15c.21.13.44.39.68,0a.7.7,0,0,0,.06-.76,1.23,1.23,0,0,0-1.38-.8c-1.3.14-2.64-.08-3.92.4l0-.69c.34-.38.37-.78-.15-1.06-1.14-.62-.85-1.27-.19-2,.3.28.7.14,1,.2l.45.1.27-.07c.73.07,1.37.52,2.13.45l1.33.54a.93.93,0,0,0,1,.18h0c-.26.33,0,.41.24.5v0c.07.26.11.55.49.49l0,0A1,1,0,0,0,56.61,106.73Zm.27,2.79c-.25-.92-1.08-.8-1.66-1.3C55.26,109.47,56,109.47,56.88,109.52Zm.23,3.11c-1,.26-1,.26-.75,1.61C56.23,113.62,56.58,113.21,57.11,112.63Zm-4.29,5.5a2,2,0,0,0-.44-.28.4.4,0,0,0-.3.07c0,.24.16.32.36.33A1.87,1.87,0,0,0,52.82,118.13Z"/><path class="cls-2" d="M49.51,107.15c1.28-.48,2.62-.26,3.92-.4a1.23,1.23,0,0,1,1.38.8.7.7,0,0,1-.06.76c-.24.37-.47.11-.68,0a1.68,1.68,0,0,0-1.24-.15l-1.22,0c-1.75-.15-2.48,1.22-3.42,2.29-.35.24-.89.19-1.07.69-.56-.19-.89.47-1.36.42-1.83-.22-3.65-.51-5.47-.75-1-.14-1.61-1.4-2.8-1.23-.17-.4-.48-.2-.75-.17-.12-.31-.4-.65.18-.83a.35.35,0,0,0,.26-.45c-.09-.25-.3-.14-.48-.14a5.39,5.39,0,0,1-.68-.12l-.24-.75c.07-.2.41-.45.19-.58a1.23,1.23,0,0,0-.94-.12,6.48,6.48,0,0,0-2.3,1.26c-1.22.57-2.06,1.65-3.21,2.33-1.52.91-3.2.74-4.85.79a26.08,26.08,0,0,1-4.9-.55c-.76-.13-1.23-.76-1.91-1,.15-.27.59-.1.69-.44.4.66,1.06.1,1.54.35a10.37,10.37,0,0,0,4.48.88,7.11,7.11,0,0,0,5.12-1.67,18.16,18.16,0,0,1,3.91-2.7l2.68-.56a8.94,8.94,0,0,1,3.32.51c.79.31.7-.27.6-.77a1.5,1.5,0,0,0,.12-.91l.91-.52c0,.84.57,1.48.71,2.27l-.27.23c-.14,0-.33,0-.3.24s.18.1.28.14a.41.41,0,0,0,.21,0,1.22,1.22,0,0,0,1.28.53l.72,0c.19.17.34.11.48-.07l1.42-.34a.61.61,0,0,1,.63.71c0,.23-.34.47-.7.51-.76.09-1.51.23-2.26.35a11.59,11.59,0,0,0-2.33-.84c-.68-.32-.45.3-.46.53,0,.65,0,1.27-1.28.9,1.88,1.93,3.9,1.83,6.17,1.6-1.18-.91-.45-1,.27-1.14.27,0,.56,0,.69-.33A20.17,20.17,0,0,0,49.51,107.15Z"/><path class="cls-2" d="M46.47,90.09c-1.77-1.61-3.57-1.24-5.38-.14a18.8,18.8,0,0,0-1.73,1.36c-.64-.23-1.58,0-1.6-1.09-.59.18-.39,1.26-1.2.92-.3-.13-.72-.79-.65-.87.43-.55,1.11-1.51,1.47-1.42.82.23.57-.34.66-.6a4,4,0,0,0,0-.78c0-.25.8-.14.36-.61s-.71,0-1,.17a11.78,11.78,0,0,0-3.69,3.37c-.66-.14-.88.41-1.13.8s0,.93-.38,1.3l-.18.38-.28.3-.58.11c-.3.16-.62.25-.85-.06s.13-.47.29-.65C31,92,31.5,91.49,32,91c-.42-.63-1.12,0-1.64-.32-.15-.1-.38-.06-.45-.29a.29.29,0,0,1,.19-.38c.8-.15,1.25-.94,2-1.11s1.21-.92,2.09-.9c-.31-.34-.89-.29-.85-.7s.55-.27.83-.42a11.25,11.25,0,0,1,4.21-1,1.9,1.9,0,0,1-.87-.88.28.28,0,0,0,0-.22.31.31,0,0,1,.44-.11c.2.6.79.61,1.25.71s1.22-.38,1.56.48c.06.14.35-.07.48-.21s.24-.33-.07-.42-.47-.34-.19-.6.47-.42.8-.09a1.56,1.56,0,0,0,1.63.23h0v.47l0,.09,0-.1a4.15,4.15,0,0,1,1.91.24c.05.08-.12.32.16.25l-.17-.24c-.07-.34.34-.65,0-1-.15-.17-.34-.4-.05-.59a.52.52,0,0,1,.65.16c.42.52.86.32,1.22.07.64.78.09,1.92,1.06,2.57.34.24,0,.54-.32.7l-.46,0c-.33-.2-.48-.69-1-.6.27.6.27.6.8.87a3.5,3.5,0,0,1-.64,2.34A.72.72,0,0,0,46.47,90.09Zm-7.62-.72c.48.41.83.69,1.31.39a.4.4,0,0,0,0-.62C39.73,88.75,39.4,89.23,38.85,89.37Z"/><path class="cls-2" d="M54.06,119c.36-.64.74-1.14,1.61-.64a.94.94,0,0,0,1.21-.37,13.55,13.55,0,0,1,7-1.58,6.19,6.19,0,0,1,2.71.63c1.7.83,3.44,1.57,5.39.89a3.28,3.28,0,0,0,1.86-1.16c.15-.21.39-.5.68-.31s.21.58,0,.85A3.08,3.08,0,0,1,72.69,119a8.3,8.3,0,0,1-6.5-.6,7.68,7.68,0,0,0-6.7-.35,43,43,0,0,0-5,1.87c-.62.26-1.44,0-1.88.72-1.17-.82-1,.69-1.84.94h1.85a1.2,1.2,0,0,1-1.11.5,1.83,1.83,0,0,0-1.47.5,1.58,1.58,0,0,0-2.12-.1.75.75,0,0,1-.78-.39c.27-.31.81-.71-.14-.73a.92.92,0,0,1-.92-.75c-.08-.21-.31-.4-.16-.65s.46-.13.73-.07.7.06,1.05.1.7-.18.72-.66c0-.27-.41-.66.08-.78s.91-.2,1.21.2.72.53,1.08,0a.39.39,0,0,1,.53-.12c.74.35,1.42.73,2.13-.17.22-.28.49.19.54.52,0,.05-.05.1-.08.14Z"/><path class="cls-5" d="M38.15,121.87a3.55,3.55,0,0,0-1.49-.61c-1.23-.06-1.73-1.19-2.46-1.87-1.62-1.49-3.1-3.18-3.36-5.56-.11-.9.36-1.74.28-2.64a10.28,10.28,0,0,1,1.19-1.57c1-.91,1.46-2.48,3.17-2.42h.12a5,5,0,0,1-1.85,1.72,2.27,2.27,0,0,0-.92,2c0,.45.64.23,1,.26.1.48.32.93-.06,1.43s0,.73.35,1c.41,1.37,1.4,2.34,2.4,3.68a11.37,11.37,0,0,0-.2-1.59c-.12-.41-.39-.78-.16-1.22.51,0,.43.67.85.76,0,1.18-.3,2.48,1.12,3.18.13.06.35.32.21.48-.45.49-.12.65.26.49.86-.37,1.61,0,2.4.18-.25.69-.25,1.54-1.43,1.39A1.36,1.36,0,0,0,38.15,121.87Z"/><path class="cls-4" d="M56.29,15.09a21,21,0,0,1,4.36-.84c1.35,0,2.6-.56,3.95-.57a27.93,27.93,0,0,1,5.71.1c1.66.31,3.32-.12,5,.17,1.87.33,3.75.61,5.58,1.1,2,.55,4.09,1.09,6.15,1.57a18.11,18.11,0,0,1,2.37,1.19,54.66,54.66,0,0,1,10.71,5.55c.15.09.21.31.31.47a4.8,4.8,0,0,1-2.24-1.18c-2.94-2.32-6.46-3.34-9.83-4.7a48.18,48.18,0,0,0-14.93-3.17A43.62,43.62,0,0,0,59.5,15.91c-1.1.28-2.23.43-3.34.64C56,16,57,15.64,56.29,15.09Z"/><path class="cls-4" d="M92.35,122.7c0-.38.31-.35.58-.42a10,10,0,0,0,3.87-1.81,9.93,9.93,0,0,1,1.93-1.1c1.41-.65,2.78-1.33,3.32-3,.14-.4.54-.41.84-.58a26,26,0,0,0,6.35-4.34c.31,0,.63-.09.65-.5.51-.11.65-.51.76-.94a2.94,2.94,0,0,0,1.62-1.89l.21,0c.44-.15,1-.07,1.19-.69v0a6.73,6.73,0,0,0,1.82-2.37c1.58-2.43,3.53-4.61,5-7.15a15,15,0,0,1,2.8-3.52,6.23,6.23,0,0,1-1.1,2.29c-.88,1.39-1.62,2.86-2.43,4.28a53.27,53.27,0,0,1-3.29,4.42,48.06,48.06,0,0,1-7.16,7.51,41.07,41.07,0,0,1-8.14,6.11c-2.69,1.42-5.25,3.12-8.17,4.12C92.48,123.29,92.39,123.12,92.35,122.7Z"/><path class="cls-3" d="M43.39,85.17V84.7l.1-.11-.11.1a1.56,1.56,0,0,1-1.63-.23c-.33-.33-.6-.11-.8.09s-.15.49.19.6.22.27.07.42-.42.35-.48.21c-.34-.86-1-.37-1.56-.48s-1.05-.11-1.25-.71c.55-.17,1.29.54,1.67-.37.49-.36,1.25-.08,1.65-.68a1.43,1.43,0,0,0-.14-.86l0,0a2.8,2.8,0,0,0,2-.32h0c.41.4.65-.12.67-.26.14-.8.82-1.31,1-2.08l.22-.27.27,0c-.06,1.21.75,2.09,1.31,3s1.11-.21,1.69-.36h1c.15.75.29,1.51.44,2.27a1,1,0,0,0,1,.81,3.35,3.35,0,0,0,.71,2.6c.22,1-.53,2.18.48,3.07-.95.17-.39,1.43-1.22,1.68A4.56,4.56,0,0,0,49,90.62c.06-.34-.09-.5-.42-.52,0-.3-.28-.42-.44-.63l1.28.07a9.88,9.88,0,0,0-1.58-2.23c.29-.16.66-.46.32-.7-1-.65-.42-1.79-1.06-2.57-.36.25-.8.45-1.22-.07a.52.52,0,0,0-.65-.16c-.29.19-.1.42.05.59.31.36-.1.67,0,1h0a4.15,4.15,0,0,0-1.91-.24Z"/><path class="cls-3" d="M31.14,93.29l.58-.11c.08.14.19.24.34.12s.12-.3-.06-.42l.18-.38c1.39-.12,1.85-.76,1.51-2.1A11.78,11.78,0,0,1,37.38,87c.34-.18.7-.55,1-.17s-.33.36-.36.61a4,4,0,0,1,0,.78c-.09.26.16.83-.66.6-.36-.09-1,.87-1.47,1.42-.07.08.35.74.65.87.81.34.61-.74,1.2-.92,0,1.08,1,.86,1.6,1.09l.07.23-.11.26c-1-.14-2,.35-2.93-.19,0,1.47,0,1.48,1.15.81a2.12,2.12,0,0,1,1.14-.14c-.67,1.35-1.52,2.63-1.56,4.21-.15,0-.38,0-.44-.07-.56-.81-.76-.45-1,.24-.12.39-.31.82-.86.8-1-1.53-1-1.75.3-3a5.71,5.71,0,0,0,.65-.82c.12-.17.32-.42,0-.59s-.34.06-.49.21a27.3,27.3,0,0,0-3.77,4.47l0,.08,0-.09c.93,0,.79.48.54,1.07-.14.33-.67.49-.46,1l-.22.23c-.81-.77-.13-1.82-.5-2.67-.19-.43.93-1.46-.61-1.29-.23,0,0-.29,0-.46C30.36,94.72,31.17,94.16,31.14,93.29Z"/><path class="cls-5" d="M45.76,106.44l-1.42.34c-.2-.29-.36-.29-.48.07l-.72,0a1.15,1.15,0,0,0-1.28-.53.41.41,0,0,1-.21,0c0-.12,0-.25,0-.38l.27-.23a1.57,1.57,0,0,0,.89-.67c.37-.49.56-1,.09-1.48s-1.08-.76-1.69-.12l-.91.52c.06-.43.29-1.13.14-1.22-.67-.42-1-1.63-2.18-1-.18.08-.51-.13-.76-.21a1.69,1.69,0,0,0-1.14-.87c-.43-.1-.93-.18-1-.76a1.34,1.34,0,0,1,.54-1.32c.24-.15.4-.78.79-.3.73.89.81.36.88-.34.73.57.52,1.66,1.25,2.25s1,1.47,2,1.37a10.85,10.85,0,0,0,4.46,1.44,8.49,8.49,0,0,0,1.91,2.93C46.8,106.25,46,105.54,45.76,106.44Z"/><path class="cls-3" d="M123.29,94.38a15,15,0,0,0-2.8,3.52c-1.47,2.54-3.42,4.72-5,7.15a6.73,6.73,0,0,1-1.82,2.37c-.27-1,.43-1.7.85-2.48a14.44,14.44,0,0,1,2.17-3.31c1.24-1.28,1.87-3,2.85-4.42,1.12-1.66,2.27-3.3,3.34-5a54.24,54.24,0,0,0,3.26-6.57c.48.21-.2.71.23.93A41.32,41.32,0,0,1,123.29,94.38Z"/><path class="cls-2" d="M27.06,124.68c.2,1.06,1.16,1.53,1.79,2.35-1-.07-1.93,0-2.31-1.2-.57,1.12-.37,1.9,1,4.15-.72.37-1.07-.39-1.7-.52,0,.5,0,1,0,1.47,0,.28.18.67-.22.81s-.63-.23-.84-.5c-.46-.59-.69-1.38-1.5-1.65-.22-.64.26-1.2.18-1.82l0-.5c.09-.23.19-.45.28-.68.82-.58,2.13-.88,1.39-2.38a.57.57,0,0,1,.07-.22C26.05,123.7,26.49,124.35,27.06,124.68Z"/><path class="cls-5" d="M33.6,105.67a18.16,18.16,0,0,0-3.91,2.7A7.11,7.11,0,0,1,24.57,110a10.37,10.37,0,0,1-4.48-.88c-.48-.25-1.14.31-1.54-.35-1.34-1-2.92-1-4.48-1.15a3,3,0,0,1-2.16,0c-.29-.14-.51.11-.68.34s-.29.35-.49.23-.06-.29.11-.41c1.31-.84,2.68-1.53,4.25-.88a38.64,38.64,0,0,0,7.4,1.89c0,.19-.88.51.07.55s1.93.08,2.89.1a.79.79,0,0,0,.75-.62,7.09,7.09,0,0,0,4.46-2.11c.15-.18.33-.33.21-.6.36,0,.4-.32.59-.48A1.53,1.53,0,0,1,33.6,105.67Z"/><path class="cls-3" d="M33.6,105.67a1.53,1.53,0,0,0-2.13,0c-.19.16-.23.51-.59.48a9.26,9.26,0,0,0-2.42-1.53,2.9,2.9,0,0,0-.17.69c0,.41-.2.44-.51.41s-.3-.32-.27-.59a6.94,6.94,0,0,0,0-.79c-.05-.27,0-.68-.46-.26a.43.43,0,0,1-.22-.06c-.29-1.09-1-.55-1.63-.45a.73.73,0,0,1,.54-1.07c1,.11,1.72-1.45,2.78-.39.32.32.17.74.16,1.11s-.17.51-.08.66a.94.94,0,0,0,.65.37c1.17.18,2.39.76,3.42-.15.25-.21.37-.78.79-1,.12-.07.3,0,.45,0,.54.53,1.46.31,1.92,1-.22.09-.48.24-.4.47.14.44.6.15.89.28l0,.28Z"/><path class="cls-4" d="M120,51.35c.51.54.46,1.27.67,1.91-.27,0-.57.11-.54.42s.41.18.63.23l.44.51a50.44,50.44,0,0,1,2,12.62,9.12,9.12,0,0,1-.15,3.49c-.79.2-.05,1.13-.8,1.48.1-1-.5-1.91.54-2.64.12-.1.12-.44.1-.67-.15-1.89-.32-3.79-.49-5.68,0,0,0,0-.07-.06l-.17.24-.21,0c-.51-.55.72-1.09,0-1.64l0,0c-.08-.38.16-.8-.17-1.15-.12.39-.29.45-.47,0a1,1,0,0,1,0-.35c.27-.21.06-.37-.06-.54h0a3.82,3.82,0,0,0-1.06-3.44,3.56,3.56,0,0,1-.35-1.87c.21-1-.57-1.87-.47-2.86H120Zm.73,3.77c0,.23,0,.49.31.7,0-.35-.09-.57-.31-.69,0-.23.13-.53-.27-.63A.49.49,0,0,0,120.74,55.12Zm.36,1.09,0,.19s.06-.06.06-.09S121.12,56.25,121.1,56.21Zm-.94-3.38,0-.1-.12.07Z"/><path class="cls-5" d="M21.62,83.29A46.4,46.4,0,0,1,20,73.15a2.69,2.69,0,0,1,.92,1.63l0,0c-.82.19-.47.65-.35,1.12.43-.13.3-.64.69-.66.54,2.46,1.09,4.93,1.63,7.4.21,1,.41,1.92.61,2.88-.43.63-.46.1-.57-.2-.54-1.47-.89-3-1.32-4.54C21.3,81.62,22,82.45,21.62,83.29Z"/><path class="cls-5" d="M26,94.38c-1.14-2.33-2.77-4.46-3-7.18.27.06.26.6.54.47s.07-.49-.07-.74c-.24-.44.09-.51.39-.59a1.09,1.09,0,0,1,.34,1c-.24.23,0,.18.13.23l2.82,5.66c-.45.25-.75-.26-1.1.06S27,94.08,26,94.38Zm-2-5.51c.06,0,.16,0,.17-.08s0-.12-.06-.18l-.22.11Z"/><path class="cls-4" d="M47.14,122.1a.75.75,0,0,0,.78.39,1.57,1.57,0,0,0,2.12.1,1.83,1.83,0,0,1,1.47-.5,1.2,1.2,0,0,0,1.11-.5c0-.31,0-.63,0-.94.44-.74,1.26-.46,1.88-.72-.86,1.88-2.66,2.62-4.31,3.54-.5.29-1,.5-1.57.75l0-.77c-1,.77-2.19,1.08-2.8,2.19-.9-1,.25-1.73.48-2.54C46.32,122.8,46.12,121.74,47.14,122.1Z"/><path class="cls-3" d="M45.28,102.93a10.85,10.85,0,0,1-4.46-1.44,3.48,3.48,0,0,1,1.3-.66.68.68,0,0,1,1,.45c.37,1,1,.79,1.66.39a3.18,3.18,0,0,1,1-.39c.31,0,.7-.41.94,0s-.18.6-.46,1c1.4,0,2.6-.94,4-.36-.29.55-1.12.58-1.12,1.3-.36.11-.72-.15-1-.1C47.1,103.18,46.22,102.15,45.28,102.93Z"/><path class="cls-4" d="M45.28,102.93c.94-.78,1.82.25,2.75.11.31-.05.67.21,1,.1l.14.26c-.66.73-1,1.38.19,2,.52.28.49.68.15,1.06-.84,0-1.52-.58-2.35-.6A8.49,8.49,0,0,1,45.28,102.93Z"/><path class="cls-4" d="M117.61,87.22c.38.19.33.49.17.79-1.11,2.22-2.17,4.46-3.36,6.62-.29.52-.5,1.4-.68,1.5-.91.49-1.3,1.63-2.39,1.84.63-.89,1.14-1.85,1.79-2.74a20.46,20.46,0,0,0,2.07-3.61c.34-.75,1-1.35,1.21-2,.21-.81.83-1.33,1-2.09.38.15.13-.2.22-.28Z"/><path class="cls-5" d="M17.19,81.37c-.61-.15-.41-.69-.52-1.08a2.56,2.56,0,0,0-.5-1.27h0c0-.17,0-.35-.21-.44a.5.5,0,0,0-.51-.52c-.5-.33.35-1.34-.71-1.39a11.09,11.09,0,0,0,.72-4.8c0-.38.22-.46.54-.44A97.41,97.41,0,0,0,17.19,81.37Z"/><path class="cls-4" d="M38.15,121.87a1.36,1.36,0,0,1,1.42-.93c1.18.15,1.18-.7,1.43-1.39,1,0,1.85.54,2.83.43a3.43,3.43,0,0,1-2.44,1.9c-.34.07-.61.45-.91.69A3.27,3.27,0,0,1,38.15,121.87Z"/><path class="cls-5" d="M68,17.51a86,86,0,0,0-9.94,1.83c-.37.1-.84.32-1.18-.15A23.16,23.16,0,0,1,63,17.55,34.23,34.23,0,0,1,67.21,17C67.7,17,68,17,68,17.51Z"/><path class="cls-3" d="M78.16,125.15l.23.95c-.27.26-.77.14-1,.56-.14.07-.22,0-.26-.12-.06-.38.25-.91-.35-1.06-.38-.1-.53.2-.53.55-.73-.09-1.6.53-2.17-.42l1.43-.71c-.4-.43-1.22.21-1.21-.71l3.1-.28c.17.32-.22.9.46,1Z"/><path class="cls-4" d="M43.15,82.32a2.8,2.8,0,0,1-2,.32c0-.26.09-.52.14-.78l-.38-.69A7.89,7.89,0,0,1,44.09,80h.73c-.17.77-.85,1.28-1,2.08,0,.14-.26.66-.67.26l.17-.26L43.24,82Z"/><path class="cls-4" d="M23.79,126.59c-.09.23-.19.45-.28.68-.12.06-.33.1-.35.18-.07.24.15.28.33.32.08.62-.4,1.18-.18,1.82l-.32,0,0,0c-.89-1-1.4-2-.58-3.35.12-.19,0-.52,0-.79a.87.87,0,0,0,.59-.86l.37-.22c.37-.09.75-.28,1.1.07A3.7,3.7,0,0,0,23.79,126.59Z"/><path class="cls-5" d="M85.25,121.58c0,.06.08.14.06.19-.14.31-.45.19-.69.26-.75.23-1.73.15-2,1.23-.48.63-1,1.28-1.84.53-.22,0-.44,0-.53-.3l.06-.1,0,.11c-.93.27,0,.6,0,.9l-.44.18c-.25-.71-1.1-.06-1.42-.62h0a1.44,1.44,0,0,0,1.08-.49.54.54,0,0,1,.32-.55,23.13,23.13,0,0,0,5-1.47C84.93,121.42,85.1,121.53,85.25,121.58Z"/><path class="cls-4" d="M37.56,97.87c-.07.7-.15,1.23-.88.34-.39-.48-.55.15-.79.3a1.34,1.34,0,0,0-.54,1.32l-.61,0a1.24,1.24,0,0,0-.3-1.21c-.58-.67-.43-1,.42-1.19.55,0,.74-.41.86-.8.2-.69.4-1,1-.24.06.08.29,0,.44.07C37.17,97,37.07,97.52,37.56,97.87Z"/><path class="cls-2" d="M48.82,80c-.07-1.26-.18-2.51-.2-3.76,0-.37-.11-1,.56-1s.36.56.46.88c.46,1.44.06,2.88-.1,4.32C49.18,80.44,48.87,80.39,48.82,80Z"/><path class="cls-5" d="M28.11,38.74c.25.69-.26,1.2-.46,1.76a14.48,14.48,0,0,1-2.47,4.27c0-.32.09-.7-.42-.74A19,19,0,0,1,28.11,38.74Z"/><path class="cls-4" d="M47.87,87.31a9.88,9.88,0,0,1,1.58,2.23l-1.28-.07c-.75-.06-1,.22-.51.85.25.34.54.65.81,1a.35.35,0,0,0,.17.49.82.82,0,0,1-.18.71,9.58,9.58,0,0,1-2-2.4.72.72,0,0,1,.08-.22,3.5,3.5,0,0,0,.64-2.34l.22-.27Z"/><path class="cls-4" d="M51.43,88a3.35,3.35,0,0,1-.71-2.6,2.66,2.66,0,0,0,.45-2.36c.7,0,.62,1.12,1.42.93A14,14,0,0,1,51.43,88Z"/><path class="cls-2" d="M36.57,126.09a10.11,10.11,0,0,1,3,.63,3.06,3.06,0,0,1-3.12,1,3.88,3.88,0,0,0-1.41-.18C35.12,126.52,36.35,126.88,36.57,126.09Z"/><path class="cls-2" d="M52.61,80.67c.61-1,.3-2.11.6-3.14,0-.19-.19-.66.3-.59.31,0,.4.33.39.63a6.26,6.26,0,0,1-.47,2.68A12.51,12.51,0,0,0,52.8,83a.86.86,0,0,1-.64-.5C51.65,81.68,52.78,81.35,52.61,80.67Z"/><path class="cls-3" d="M69.17,126.35a23.49,23.49,0,0,0-3.12-.47,7.3,7.3,0,0,0-.94-.09c-.39-.05-.94-.26-.9-.54.08-.68.62-.29,1-.21a19.9,19.9,0,0,0,3.93.29l.28,0v.91Z"/><path class="cls-5" d="M72.21,17.94l-.22-.4a34.2,34.2,0,0,1,5.45.27,1.31,1.31,0,0,1,.88.48c0,.14,0,.29.05.43L72.7,18.2Z"/><path class="cls-3" d="M85.71,124c.56-.09,1.15.08,1.66-.28l0,0c.12.53-.25.88-.47,1.28a27.74,27.74,0,0,1-4.5.88c-.05-.44.38-.65.5-1l1.44-.25C85.56,125,85.89,124.79,85.71,124Z"/><path class="cls-5" d="M24.51,124.52c-.35-.35-.73-.16-1.1-.07l-.11-.72v0c.64,0,.78-.68,1.32-.79-.19-.35-.66-.08-.69-.41s.28-.51.57-.66c.93-.5,1.74.16,2.6.24a.59.59,0,0,1-.63.41c-1.23-.19-1.39.49-1.22,1.45a.57.57,0,0,0-.07.22Z"/><path class="cls-3" d="M15.26,50.41c.55,1-.23,1.8-.63,2.31s-.17-.42-.39-.61c-.26-.41.13-.67.2-1,.2-.94.6-1.81.8-2.74.09-.41.37-.18.48-.34-.33.72.87,0,.66.72s-.88.26-1.11.69-.44.6,0,.93Z"/><path class="cls-5" d="M110.09,32v.69c-1.09-.43-1.48-1.57-2.33-2.24s-1.59-1.17-1.71-2.26C107.4,29.45,109.08,30.36,110.09,32Z"/><path class="cls-4" d="M20.93,74.78A2.69,2.69,0,0,0,20,73.15c0-.1,0-.2,0-.31.45-.67.07-1.43.22-2.13,0-.54-.2-1.19.6-1.4l.39,5.09C21.22,74.61,21.22,74.8,20.93,74.78Z"/><path class="cls-4" d="M23.88,86.34c-.3.08-.63.15-.39.59.14.25.47.54.07.74s-.27-.41-.54-.47h0a2.47,2.47,0,0,0-1-2.3c.12-.61-.68-1-.45-1.6.41-.84-.32-1.67,0-2.53.43,1.53.78,3.07,1.32,4.54.11.3.14.83.57.2C23.82,85.71,23.75,86.07,23.88,86.34Z"/><path class="cls-5" d="M44.09,80a7.89,7.89,0,0,0-3.2,1.17A.88.88,0,0,1,40.38,80c.12-.48.51,0,.78-.06.75-.26,1.65-.25,2.07-1.24C43.24,79.39,43.89,79.53,44.09,80Z"/><path class="cls-3" d="M87.37,123.71c.74-.11,1.49-1.36,2.22,0,.1.19.35,0,.52-.11a2.46,2.46,0,0,1,1.32-.39c-.15.18.73.18.07.47a14.76,14.76,0,0,1-3.42,1.07c.09-.56.86-.26,1-.79l-1.69-.26Z"/><path class="cls-3" d="M52.61,80.67c.17.68-1,1-.45,1.86a.86.86,0,0,0,.64.5c.32.4,0,.67-.21,1-.8.19-.72-1-1.42-.93-.43-.6-.06-1.26-.14-1.88s.34-.23.38-.2C51.93,81.29,52.25,80.89,52.61,80.67Z"/><path class="cls-2" d="M45.76,125.64c.61-1.11,1.84-1.42,2.8-2.19l0,.77c-.72.62-1.41,1.28-2.16,1.84-.31.24-.67.68-1.17.27a.11.11,0,0,0,0-.15c.25-.11.5-.23.49-.56Z"/><path class="cls-4" d="M96.87,18.67c-.53.16-.9-.22-1.31-.42l-5.4-2.73a43.29,43.29,0,0,1,6.39,2.71A.45.45,0,0,1,96.87,18.67Z"/><path class="cls-5" d="M119.58,59.34c.7,1.26.32,2.69.65,4,.11.45.49,1,.17,1.51l-.62,0c0-1.86-.55-3.63-.69-5.46Z"/><path class="cls-3" d="M54.76,104.56c.15-.71.72-.54,1.1-.4a10.7,10.7,0,0,1,1.71.89c.23.13.58.24.51.56s-.42.32-.69.29-.49.18-.74.26l-.5-.43,0,0c0-.3,0-.71-.49-.49v0c.27-.34,0-.42-.24-.5h0C55.33,104.45,55,104.52,54.76,104.56Z"/><path class="cls-3" d="M51.12,103.14c1.28-1,2.52-.42,3.88,0-.53.76-1.26.61-1.91.69A6.69,6.69,0,0,1,51.12,103.14Z"/><path class="cls-4" d="M86.9,116.6l-.46.89c-.73.86-1.89.28-2.72.8-.13.08-.37-.15-.34-.38s.08-.53.44-.61C84.85,117.08,85.87,116.84,86.9,116.6Z"/><path class="cls-5" d="M18.44,86.82c-1.11-.1-.64-1.24-1.14-1.8-.36-.4-.28-1.17-.61-1.72a.49.49,0,0,1,.11-.64c.35-.2.27.26.42.34s.25-.12.38-.19A19.73,19.73,0,0,1,18.44,86.82Z"/><path class="cls-3" d="M14.07,107.66c1.56.12,3.14.17,4.48,1.15-.1.34-.54.17-.69.44-1.29-.3-2.43-1.1-3.8-1.15Z"/><path class="cls-2" d="M41.06,126.79c.73-.59,2.5-.76,3-.28a6.26,6.26,0,0,1-3.33,1.17C40.62,127.31,41,127.1,41.06,126.79Z"/><path class="cls-3" d="M25.25,124c-.17-1,0-1.64,1.22-1.45a.59.59,0,0,0,.63-.41.17.17,0,0,1,.17,0l0,.64c-.67.57-.07,1.3-.24,1.93C26.49,124.35,26.05,123.7,25.25,124Z"/><path class="cls-5" d="M54.51,94.62c-.64-.16-1.11-.89-1.92-.51-.21.09-.35-.24-.45-.45a1.45,1.45,0,0,1,.77-1.17c1,.39,1.73.94,1.59,2.15Z"/><path class="cls-5" d="M16.84,60.75l-1.15,0c-.13-1,.58-1.72.61-2.67,0-.34.42.45.79.29A9.67,9.67,0,0,1,16.84,60.75Z"/><path class="cls-4" d="M52.91,92.49a1.45,1.45,0,0,0-.77,1.17h-.23c-.06-.45-.26-.73-.77-.64-.18,0-.42,0-.45-.26.83-.25.27-1.51,1.22-1.68C52.77,91.17,52.6,92,52.91,92.49Z"/><path class="cls-3" d="M23.06,102.8l-.26-.12c.05-.38-.14-.5-.49-.44L21.62,101a1.65,1.65,0,0,0-.21-1c-.27-.54.17-.43.44-.46A4.61,4.61,0,0,1,23.06,102.8Z"/><path class="cls-4" d="M73.78,126.58l-.12-.26v-.45l.47-.26c.57,1,1.44.33,2.17.42a.42.42,0,0,1,.21.45C75.62,127,74.72,127.33,73.78,126.58Z"/><path class="cls-5" d="M111.74,36.39c.35,1,1.18,1.82,1.53,2.87-1-1.31-2.51-2.21-2.7-4C111.08,35.51,111.34,36,111.74,36.39Z"/><path class="cls-2" d="M49.29,82.33h-1c-.05-.7-1.11-.85-.94-1.68l2.09.27C49.84,81.45,49.37,81.86,49.29,82.33Z"/><path class="cls-5" d="M18.34,74.74c.36,0,.4.24.42.56a10.11,10.11,0,0,0,.39,3c.17.45-.07.74-.57.75A14.44,14.44,0,0,1,18.34,74.74Z"/><path class="cls-3" d="M20.92,98.18c-.76-.5-1-1.38-1.55-2.07-.13-.17-.23-.47,0-.59.1,0,.32.18.48.29.56.45.79,1.19,1.42,1.6.19.11.54.42.21.78h-.6Z"/><path class="cls-5" d="M54.5,94.64A1.12,1.12,0,0,1,55.66,96a5.37,5.37,0,0,0,.24,2.57c-.68-.46-.93-.86-.87-1.37a4.28,4.28,0,0,0-.52-2.53Z"/><path class="cls-4" d="M47.37,93.25a16.49,16.49,0,0,1-3.51-1l0-.47c1.28.36,2.66.42,3.82,1.18Z"/><path class="cls-5" d="M83.14,19.8c.07-.43-.13-.61-.56-.68-.84-.12-1.66-.3-2.5-.43-.33-.05-.74.08-.74-.47a18.1,18.1,0,0,1,4.71,1c-.1.26-.58.27-.44.67Z"/><path class="cls-5" d="M69.41,125.38l-.28,0c0-.85-.85-.08-1.1-.67a5.32,5.32,0,0,1,3.06.08l0,.62C70.5,125.55,70,125.13,69.41,125.38Z"/><path class="cls-4" d="M33.92,102.71c-.51-.54-1.35-.69-1.69-1.42l.11-.1.87.07h0c0,.35.23.4.51.51.68.26,1.4.5,1.65,1.32C34.78,103.33,34.4,102.83,33.92,102.71Z"/><path class="cls-5" d="M117.67,95.82a15.72,15.72,0,0,1-2.34,3.57A5.37,5.37,0,0,1,117.67,95.82Z"/><path class="cls-3" d="M31.1,25.74c.54.16.62.49.22.84s-1,1-1.51,1.4c-.82.57-.13-.55-.48-.67v0l.38.06-.07-.19Z"/><path class="cls-3" d="M120.28,90.69c.82.91-.12,1.6-.26,2.42-.45-.16,0-.72-.47-.83A1.67,1.67,0,0,1,120.28,90.69Z"/><path class="cls-2" d="M38.68,92.28a2.12,2.12,0,0,0-1.14.14c-1.14.67-1.15.66-1.15-.81,1,.54,2,0,2.93.19,0,.07,0,.14,0,.21Z"/><path class="cls-3" d="M49.46,80.93l-2.09-.27c-.51-.29-.64-.84-1-1.53.87.39,1.37,1.63,2.41.82,0,.44.36.49.72.49Z"/><path class="cls-5" d="M47.37,93.25l.27-.27c.44.06.75.49,1.3.3s.58.38.78.66a.42.42,0,0,1-.15.61c-.39.19-.63-.1-.9-.34A15.57,15.57,0,0,0,47.37,93.25Z"/><path class="cls-4" d="M108.43,102c-.23,1.4-.79,1.92-1.86,1.69A2.12,2.12,0,0,1,108.43,102Z"/><path class="cls-3" d="M112.52,104.17c-.35.88-.85,1.58-1.92,1.59a4.65,4.65,0,0,1,1.37-1.93.36.36,0,0,0,.44.21Z"/><path class="cls-3" d="M24.81,105.35c-1.32-.36-1.57-1.45-1.77-2.58A8.79,8.79,0,0,1,24.81,105.35Z"/><path class="cls-4" d="M24.76,44c.51,0,.41.42.42.74a.81.81,0,0,1-.43.91c-.35-.22-.2.15-.29.23l0,0-.26.26,0,0c-.32,0-.23.69-.72.48a2.81,2.81,0,0,1,1-1.86C24.7,44.51,24.64,44.26,24.76,44Z"/><path class="cls-5" d="M21.58,94.68c-.09.36-.42.49-.55.4-.55-.39-.49-1.12-.8-1.66-.11-.18.17-.43.32-.37C21.31,93.35,21,94.32,21.58,94.68Z"/><path class="cls-5" d="M29.8,36.42c.55.15.55.41.21.8s-.78.44-.76.94c0,.26-.05.37-.3.31s-.23-.33-.23-.55c0-.56.93-.78.52-1.53C29.18,36.28,29.6,36.37,29.8,36.42Z"/><path class="cls-4" d="M110.81,99.13c.75.59-.3.66-.38,1s-.44,1.27-1.31.85l-.32-.1C109.74,100.63,110,99.54,110.81,99.13Z"/><path class="cls-4" d="M39.38,83l0,.74a4.51,4.51,0,0,1-1.68-1.45C38.55,82,38.9,82.64,39.38,83Z"/><path class="cls-5" d="M110.58,35.25a1.8,1.8,0,0,1-1.66-1.92A6.79,6.79,0,0,1,110.58,35.25Z"/><path class="cls-3" d="M56.29,15.09c.67.55-.34.95-.13,1.46l-.93.37c.07-.53.15-1.05.23-1.57C55.66,15,56,15.14,56.29,15.09Z"/><path class="cls-4" d="M71.05,125.36l0-.62c.64-.18,1.27-.68,1.93-.06-.36.08-.78.11-.51.67Z"/><path class="cls-5" d="M32,33.84A3.39,3.39,0,0,1,29.9,36,6.2,6.2,0,0,1,32,33.84Z"/><path class="cls-2" d="M87.4,123.74l1.69.26c-.15.53-.92.23-1,.79l-1.15.23C87.15,124.62,87.52,124.27,87.4,123.74Z"/><path class="cls-4" d="M82.93,124.88c-.12.37-.55.58-.5,1-.21.48-.5.2-.77.09,0-.39-.34-.54-.73-1C81.81,125.47,82.25,124.42,82.93,124.88Z"/><path class="cls-5" d="M27.3,122.75l0-.64c.48,0,1-.21,1.44.1l-.07.87A2.18,2.18,0,0,1,27.3,122.75Z"/><path class="cls-4" d="M25.21,103.61c.61-.1,1.34-.64,1.63.45C25.6,104.41,25.41,104.36,25.21,103.61Z"/><path class="cls-5" d="M119.85,69.61V67.2c.6.77.35,1.58.33,2.38Z"/><path class="cls-5" d="M43.82,91.8l0,.47A6.57,6.57,0,0,1,41.57,92l-.18-.45Z"/><path class="cls-5" d="M51.14,93c.51-.09.71.19.77.64-.61.17-.88,1.31-1.89.59C50.53,93.92,51.34,93.88,51.14,93Z"/><path class="cls-5" d="M112,42.83A1.84,1.84,0,0,1,113.1,45,5.49,5.49,0,0,1,112,42.83Z"/><path class="cls-5" d="M16.07,67.55a1.75,1.75,0,0,1,.14-2.35C16.16,66,16.11,66.77,16.07,67.55Z"/><path class="cls-5" d="M18.51,71.24l-.32,0c-.32-.69,0-1.4-.09-2.1l.4-.29A10.31,10.31,0,0,1,18.51,71.24Z"/><path class="cls-3" d="M19,94.39a1.74,1.74,0,0,1-.89-2.27C18.65,92.79,18.5,93.72,19,94.39Z"/><path class="cls-3" d="M24.67,32.6a1.08,1.08,0,0,1-.33,1.34c-.34.31-.35-.38-.64-.42A2.21,2.21,0,0,1,24.67,32.6Z"/><path class="cls-3" d="M110.8,106.22c-.24.51-.2,1.49-1.19.69a1.31,1.31,0,0,1,.79-.74l.4,0Z"/><path class="cls-4" d="M14.07,107.66v.44L11.23,108c.17-.23.39-.48.68-.34A3,3,0,0,0,14.07,107.66Z"/><path class="cls-4" d="M101.74,24.69A2,2,0,0,1,103.5,26C102.77,25.75,102.33,25.11,101.74,24.69Z"/><path class="cls-5" d="M104.66,27c.62.23,1.31.36,1.4,1.21C105.27,28.14,104.93,27.59,104.66,27Z"/><path class="cls-3" d="M108,108.59c-.07.76-.44,1-1.16.71.26-.29.52-.58.79-.86S107.91,108.37,108,108.59Z"/><path class="cls-5" d="M71.71,127.07c.5-1,1.41-.24,2.08-.49.07.58-.37.45-.68.46C72.64,127.07,72.17,127.06,71.71,127.07Z"/><path class="cls-5" d="M77.91,124.89c-.68-.08-.29-.66-.46-1,.3-.2.59-.46,1-.26l-.06.32h0C77.67,124,78.07,124.58,77.91,124.89Z"/><path class="cls-5" d="M16.38,63.34c-.21-.73-.42-1.45.26-2.06C16.56,62,16.47,62.65,16.38,63.34Z"/><path class="cls-2" d="M76.51,126.48a.42.42,0,0,0-.21-.45c0-.35.15-.65.53-.55.6.15.29.68.35,1.06A.7.7,0,0,1,76.51,126.48Z"/><path class="cls-5" d="M45.31,79.7l-.27,0-.15-1.52C45.88,78.52,45.19,79.21,45.31,79.7Z"/><path class="cls-4" d="M21.29,75.22c-.39,0-.26.53-.69.66-.12-.47-.47-.93.35-1.12C21.24,74.78,21.32,75,21.29,75.22Z"/><path class="cls-4" d="M77.44,126.66c.18-.42.68-.3,1-.56l.34.18A1.43,1.43,0,0,1,77.44,126.66Z"/><path class="cls-3" d="M104.43,111.67c.56.51.56.51-.28,1l.31-.94Z"/><path class="cls-4" d="M106.56,103.65c.28.52.22.87-.45.93C106.05,104.17,106,103.78,106.56,103.65Z"/><path class="cls-4" d="M109,101.45c.25.12.51.33.27.58s-.52.07-.63-.25Z"/><path class="cls-4" d="M32.23,101.29c-.27-.29-.63-.53-.66-1H32l.23.23.07.65Z"/><path class="cls-4" d="M103.51,26c.49,0,.88.13.92.72A1,1,0,0,1,103.51,26Z"/><path class="cls-5" d="M58.65,123.8c.47.13.64.32.52.73C58.84,124.45,58.68,124.24,58.65,123.8Z"/><path class="cls-5" d="M19.48,100.06a1.65,1.65,0,0,1,.73,1C19.66,100.94,19.5,100.55,19.48,100.06Z"/><path class="cls-4" d="M87.87,116.18c-.05.28-.13.56-.46.6-.18,0-.25-.15-.28-.31Z"/><path class="cls-3" d="M119.09,93.26c0,.35,0,.79-.48.9C119,94,118.37,93.25,119.09,93.26Z"/><path class="cls-4" d="M78.39,124l.06-.32a1.56,1.56,0,0,1,1-.17A1.44,1.44,0,0,1,78.39,124Z"/><path class="cls-3" d="M23.69,33.53a.93.93,0,0,1,0,.75s-.23-.13-.36-.2A.6.6,0,0,1,23.69,33.53Z"/><path class="cls-5" d="M20.67,102a.93.93,0,0,1,.72.49C21.05,102.44,20.76,102.35,20.67,102Z"/><path class="cls-5" d="M20.2,101a1.12,1.12,0,0,1,.48,1A1.32,1.32,0,0,1,20.2,101Z"/><path class="cls-3" d="M106.55,110.48l.15-.88h0c0,.3.57.74-.2.87Z"/><path class="cls-4" d="M119.58,59.34l-.49,0V58.9A.49.49,0,0,1,119.58,59.34Z"/><path class="cls-4" d="M27.06,104.12c.44-.42.41,0,.46.26C27.31,104.39,27.13,104.35,27.06,104.12Z"/><path class="cls-4" d="M100.8,24c.34-.08.57,0,.55.39A.75.75,0,0,1,100.8,24Z"/><path class="cls-3" d="M108.66,107.86c0,.26-.06.49-.39.51C108.38,108.18,108.31,107.85,108.66,107.86Z"/><path class="cls-3" d="M32,100.31h-.47l-.15-.33.22-.22A.5.5,0,0,1,32,100.31Z"/><path class="cls-5" d="M19.47,99.7l0,.39c-.15-.17-.31-.33-.46-.49h0Z"/><path class="cls-2" d="M29.65,27.2l.07.19-.38-.06Z"/><path class="cls-5" d="M121.69,88.44a.35.35,0,0,1,.13-.4l.14.24c0,.19,0,.43-.3.41a.85.85,0,0,1,0-.17S121.66,88.47,121.69,88.44Z"/><path class="cls-5" d="M21.85,102.91c.21.12.31.26,0,.43Z"/><path class="cls-3" d="M117.64,87.25c-.09.08.16.43-.22.28C117.45,87.4,117.41,87.22,117.64,87.25Z"/><path class="cls-5" d="M16.2,64.94c-.4-.23-.32-.42,0-.6C16.23,64.54,16.22,64.74,16.2,64.94Z"/><path class="cls-5" d="M121.52,89.05v.09c-.09,0-.2,0-.17-.12Z"/><path class="cls-3" d="M21.9,99.09,21.84,99a.21.21,0,0,1,0-.07C22,98.92,22.11,99,21.9,99.09Z"/><path class="cls-4" d="M20.68,68.37l-.18-.14.16-.1Z"/><path class="cls-5" d="M21.62,102.67l.25.25C21.68,102.94,21.61,102.84,21.62,102.67Z"/><path class="cls-4" d="M24.35,87.53c-.1,0-.37,0-.13-.23Z"/><path class="cls-3" d="M37.48,84.7a.28.28,0,0,1,0,.22l-.16-.17Z"/><path class="cls-5" d="M110.08,32.64c0,.06.07.11.1.16s-.05,0-.07.07A.91.91,0,0,1,110.08,32.64Z"/><path class="cls-5" d="M21.38,102.43l.25.25C21.46,102.69,21.39,102.59,21.38,102.43Z"/><polygon class="cls-2" points="22.99 129.64 22.99 129.7 23.02 129.67 22.99 129.64"/><path class="cls-3" d="M126.08,73.09a1.55,1.55,0,0,1,.65,2.6.46.46,0,0,0-.13.49c.16.89-.34,1.37-1.08,1.7C125.91,76.3,125.83,74.68,126.08,73.09Z"/><path class="cls-3" d="M39.3,22.2c0,1.11-.7,1.61-2.32,1.66A12.26,12.26,0,0,1,39.3,22.2Z"/><path class="cls-4" d="M77.91,124.89c.16-.31-.24-.92.49-.93.32.56,1.17-.09,1.42.62a2.5,2.5,0,0,1-1.66.57Z"/><path class="cls-4" d="M123.58,87.54a5.81,5.81,0,0,1,.87-2.88,3.82,3.82,0,0,1-.88,2.87Z"/><path class="cls-3" d="M112.27,108.17a2.94,2.94,0,0,1-1.62,1.89A2.46,2.46,0,0,1,112.27,108.17Z"/><path class="cls-3" d="M44.06,19.61c-.46,1.2-.64,1.29-1.85.86A5.58,5.58,0,0,1,44.06,19.61Z"/><path class="cls-3" d="M13.61,54.66l.3-1.21c1.46.52-.08,1.16.06,1.75Z"/><path class="cls-4" d="M85.71,124c.18.8-.15,1-1.34.64A1.28,1.28,0,0,1,85.71,124Z"/><path class="cls-3" d="M102.29,113.33l.49-.31.77,0C103.15,113.23,102.92,114.23,102.29,113.33Z"/><path class="cls-3" d="M20.91,98.18c-.08.4.38.57.41,1-.64.08-.68-.49-.92-.82l.52-.16Z"/><path class="cls-3" d="M113.67,107.44c-.17.62-.75.54-1.19.69C112.52,107.29,113.11,107.4,113.67,107.44Z"/><path class="cls-4" d="M80.28,123.49c.09.26.31.28.53.3-.19.19-.22.54-.55.61,0-.3-.9-.63,0-.9Z"/><path class="cls-3" d="M23,38.29c.09.53-.31.74-.66,1A.79.79,0,0,1,23,38.29Z"/><path class="cls-3" d="M109.89,111c0,.41-.34.45-.65.5C109.25,111.07,109.52,111,109.89,111Z"/><path class="cls-3" d="M15.22,50.38c0-.19,0-.39.28-.39.05,0,.17.13.17.19,0,.26-.24.22-.41.23Z"/><path class="cls-3" d="M109.32,107.53c.1.14.4,0,.37.33a.16.16,0,0,1-.08.08c-.29,0-.21-.26-.34-.36Z"/><path class="cls-3" d="M106.54,110.48l-.23.18-.07-.13.31,0Z"/><path class="cls-4" d="M123.23,88.3l0,0,.08-.06Z"/><path class="cls-3" d="M112.41,104c.11-.14.21-.3.41-.1l-.3.23Z"/><path class="cls-3" d="M110.8,106.22l.09-.16c.15.15,0,.13-.09.16Z"/><path class="cls-5" d="M121.82,88l.26,0-.12.22Z"/><path class="cls-4" d="M123.57,87.53l-.1.17c-.12-.16,0-.16.11-.16Z"/><path class="cls-5" d="M114.11,41.64c.57.4.56,1.25,1.28,1.64.16-.65-.5-1.07-.33-1.64h0c1,1.08,1.42,2.56,2.26,3.77.21.31.32.74.83.69.3.2.15.58.33.83l-1.57.7c-1.37-1.72-1.91-3.9-3.19-5.67C113.49,41.64,113.89,41.64,114.11,41.64Z"/><path class="cls-4" d="M116.91,47.63l1.57-.7,0,.08c-.08.43-.83.65-.45,1.2.29.4.45-.38.76-.17l.2.42c-.59.27-.51.73-.23,1.13a3.46,3.46,0,0,1,.52,1.75h-.47c0-.26,0-.46-.36-.48C118.15,49.69,117.08,48.88,116.91,47.63Z"/><path class="cls-5" d="M121.91,63.16l.21,0c-.1,1.35.41,2.68.07,4A15.16,15.16,0,0,1,121.91,63.16Z"/><path class="cls-5" d="M120.14,56.07a3.82,3.82,0,0,1,1.06,3.44A21.71,21.71,0,0,1,120.14,56.07Z"/><path class="cls-5" d="M118.83,51.35h.49c-.1,1,.68,1.85.47,2.86A7.76,7.76,0,0,1,118.83,51.35Z"/><path class="cls-5" d="M22.07,84.89a2.47,2.47,0,0,1,1,2.3A5.11,5.11,0,0,1,22.07,84.89Z"/><path class="cls-4" d="M107.5,34.05c.64,0,1.14.16,1,1C108.13,34.74,107.56,34.65,107.5,34.05Z"/><path class="cls-4" d="M118.91,58.22,118.64,57a.69.69,0,0,1,.83.59C119.56,58,119.14,58,118.91,58.22Z"/><path class="cls-5" d="M20.21,70.71c-.15.7.23,1.46-.22,2.13C20.08,72.13,19.66,71.37,20.21,70.71Z"/><path class="cls-4" d="M122.28,72.64a3.49,3.49,0,0,1,0,1.84A3.76,3.76,0,0,1,122.28,72.64Z"/><path class="cls-4" d="M121.93,61.52l-.11.52c-.07-.08-.18-.15-.21-.24-.11-.3.11-.29.3-.3Z"/><path class="cls-4" d="M119.11,58.68a.26.26,0,0,1-.08-.2l.41-.1C119.51,58.67,119.26,58.63,119.11,58.68Z"/><path class="cls-5" d="M121.2,59.5c.12.17.33.33.06.54Z"/><path class="cls-5" d="M118.48,50.87c.31,0,.37.22.36.48C118.53,51.33,118.51,51.1,118.48,50.87Z"/><polygon class="cls-4" points="112.51 97.58 112.6 97.54 112.59 97.63 112.51 97.58"/><path class="cls-5" d="M16.69,57.41c-.56-.75,0-1.28.23-1.88C17.35,56.24,16.83,56.8,16.69,57.41Z"/><path class="cls-4" d="M47.45,118.3A4.67,4.67,0,0,0,45.77,117c.77-.53,1.16.36,1.81.31a3.56,3.56,0,0,0-.42-1.42,12,12,0,0,0,3.16-.33c.93.11.89-.52.88-1.13l.57-.67c1.17-.2.73-.89.47-1.53a6.06,6.06,0,0,0-.63-4.09l1.22,0c.06.24.14.54.38.56.81.08.76.56.61,1.14a.8.8,0,0,0,0,.46c.49,1.68.06,2.16-.64,3.61-.55,1.15-1.52,2.14-1.7,3.45,0,.39-.15.47-.46.44A16.1,16.1,0,0,0,47.45,118.3Z"/><path class="cls-2" d="M37,115.22c.51-.29.68.27.76.45a5.05,5.05,0,0,0,1.75,2c.55.44.85-.13,1.11.06a10.29,10.29,0,0,0,3.48,1.43c.07.32.38.73-.28.79-1,.11-1.86-.45-2.83-.43-.79-.13-1.54-.55-2.4-.18-.38.16-.71,0-.26-.49.14-.16-.08-.42-.21-.48C36.71,117.7,37,116.4,37,115.22Z"/><path class="cls-2" d="M56.88,109.52c-.85,0-1.62,0-1.66-1.3C55.8,108.72,56.63,108.6,56.88,109.52Z"/><path class="cls-4" d="M57.11,112.63c-.53.58-.88,1-.75,1.61C56.08,112.89,56.08,112.89,57.11,112.63Z"/><path class="cls-4" d="M52.82,118.13a1.87,1.87,0,0,1-.38.12c-.2,0-.37-.09-.36-.33a.4.4,0,0,1,.3-.07A2,2,0,0,1,52.82,118.13Z"/><path class="cls-4" d="M45.77,125.62c0,.33-.24.45-.49.56C45.29,125.86,45.42,125.64,45.77,125.62Z"/><path class="cls-4" d="M47.38,119l.07-.23c.09,0,.26.1.25.12C47.66,119.06,47.5,119,47.38,119Z"/><path class="cls-5" d="M50.32,115.59a12,12,0,0,1-3.16.33c-.8-.59-1.63-1.16-2.4-1.78a6.78,6.78,0,0,0-4.28-1.76s-.1,0-.12,0c-1.28-1.61-2.84-.61-4.31-.47-.2-.7-.28-1.28.75-1.38a.82.82,0,0,0,.69-.92c1.19-.17,1.75,1.09,2.8,1.23,1.82.24,3.64.53,5.47.75.47.05.8-.61,1.36-.42.91,1,2.27,1.58,2.87,2.9C49.43,114.71,50.69,115,50.32,115.59Z"/><path class="cls-3" d="M43.43,108c0,.65.45.47.79.51.75.08,1.51.14,2.27.21-.13.33-.42.29-.69.33-.72.1-1.45.23-.27,1.14-2.27.23-4.29.33-6.17-1.6,1.25.37,1.24-.25,1.28-.9,0-.23-.22-.85.46-.53A11.59,11.59,0,0,1,43.43,108Z"/><path class="cls-3" d="M48.19,110.46a9.09,9.09,0,0,1,2.48.77c-.29.31-.78.2-1,.6.65.47,1.52.12,2.17.56a1.84,1.84,0,0,1-.12,1.4l-.57.67c-.54.26-.86-.13-1.21-.41-.6-1.32-2-1.89-2.87-2.9C47.3,110.65,47.84,110.7,48.19,110.46Z"/><path class="cls-4" d="M37,103.9l-1.16-.62c.34-.92,1.05-.37,1.54-.31.32-.54-.22-1.06.18-1.51.25.08.58.29.76.21,1.17-.58,1.51.63,2.18,1,.15.09-.08.79-.14,1.22a1.5,1.5,0,0,1-.12.91,5.82,5.82,0,0,1-1.7-.33C38,104.35,37.64,103.68,37,103.9Z"/><path class="cls-4" d="M35.6,107.2a.4.4,0,0,1,.18-.07l.24.75a.68.68,0,0,0-.42.48c-.8.57-.9,1.52-1.27,2.32l-.5.52c-.36,0-1,.19-1-.26a2.27,2.27,0,0,1,.92-2A5,5,0,0,0,35.6,107.2Z"/><path class="cls-3" d="M41.23,103.42c.61-.64,1.22-.33,1.69.12s.28,1-.09,1.48a1.57,1.57,0,0,1-.89.67C41.8,104.9,41.21,104.26,41.23,103.42Z"/><path class="cls-5" d="M37,103.9c.68-.22,1,.45,1.54.62a5.82,5.82,0,0,0,1.7.33c.1.5.19,1.08-.6.77a8.94,8.94,0,0,0-3.32-.51l0-.28c.32-.17.14-.38,0-.58l.61.19Z"/><path class="cls-4" d="M37.49,109.59a.82.82,0,0,1-.69.92c-1,.1-.95.68-.75,1.38l-.35.08c-.35-.06-.07-1.09-.82-.53l0-.51c0-.61.75-.77.77-1.37.38,0,.78.14,1.12-.14C37,109.39,37.32,109.19,37.49,109.59Z"/><path class="cls-3" d="M36.74,109.42c-.34.28-.74.09-1.12.14-.39-.39,1-.82,0-1.2a.68.68,0,0,1,.42-.48,5.39,5.39,0,0,0,.68.12c.18,0,.39-.11.48.14a.35.35,0,0,1-.26.45C36.34,108.77,36.62,109.11,36.74,109.42Z"/><path class="cls-4" d="M41.86,106.35a1.15,1.15,0,0,1,1.28.53A1.22,1.22,0,0,1,41.86,106.35Z"/><path class="cls-4" d="M43.86,106.85c.12-.36.28-.36.48-.07C44.2,107,44.05,107,43.86,106.85Z"/><path class="cls-4" d="M41.67,105.92c0,.13,0,.26,0,.38-.1,0-.27-.08-.28-.14S41.53,106,41.67,105.92Z"/><path class="cls-4" d="M33.69,90.4c.34,1.34-.12,2-1.51,2.1.37-.37.14-.93.38-1.3S33,90.26,33.69,90.4Z"/><path class="cls-3" d="M38.85,89.37c.55-.14.88-.62,1.35-.23a.4.4,0,0,1,0,.62C39.68,90.06,39.33,89.78,38.85,89.37Z"/><path class="cls-3" d="M47.41,87.26l-.22.27c-.53-.27-.53-.27-.8-.87C46.93,86.57,47.08,87.06,47.41,87.26Z"/><path class="cls-4" d="M32,92.88c.18.12.26.26.06.42s-.26,0-.34-.12Z"/><path class="cls-3" d="M45.28,85.41l.17.24c-.28.07-.11-.17-.16-.25Z"/><path class="cls-3" d="M43.38,85.16l0,.1,0-.09Z"/><path class="cls-5" d="M119,48.46c.29.07.37.33.5.54a8.94,8.94,0,0,1,.49,2.35h-.7a3.46,3.46,0,0,0-.52-1.75C118.51,49.19,118.43,48.73,119,48.46Z"/><path class="cls-5" d="M115.06,41.64a3.44,3.44,0,0,1-1.53-2,3.54,3.54,0,0,1,1.53,2Z"/><path class="cls-5" d="M120.77,53.91c-.22,0-.58.15-.63-.23s.27-.39.54-.42Z"/><path class="cls-3" d="M52.61,120.65c0,.31,0,.63,0,.94H50.77C51.59,121.34,51.44,119.83,52.61,120.65Z"/><path class="cls-3" d="M50,122.59a1.57,1.57,0,0,1-2.12-.1A1.58,1.58,0,0,1,50,122.59Z"/><path class="cls-3" d="M54.06,119l-.15.07S54,119,54,119Z"/><path class="cls-3" d="M36,113.77l.18.69c-.23.44,0,.81.16,1.22a11.37,11.37,0,0,1,.2,1.59c-1-1.34-2-2.31-2.4-3.68l.09-.08A3.35,3.35,0,0,0,36,113.77Z"/><path class="cls-3" d="M34.85,110.93l0,.51v0a2,2,0,0,0-.56,1.22.93.93,0,0,0-.12.87l-.09.08c-.36-.23-.65-.56-.35-1s.16-.95.06-1.43c.17-.17.34-.34.5-.52A.48.48,0,0,0,34.85,110.93Z"/><path class="cls-4" d="M41.24,83.54c-.28-.11-.63-.17-.64-.53s.29-.28.5-.33A1.43,1.43,0,0,1,41.24,83.54Z"/><path class="cls-2" d="M43.38,84.69l.11-.1-.1.11Z"/><path class="cls-2" d="M32,100.31a.5.5,0,0,0-.4-.55c-.21-.5.32-.66.46-1,.25-.59.39-1.09-.54-1.07h0a27.3,27.3,0,0,1,3.77-4.47c.15-.15.3-.31.49-.21s.11.42,0,.59a5.71,5.71,0,0,1-.65.82c-1.26,1.27-1.28,1.49-.3,3-.85.15-1,.52-.42,1.19a1.24,1.24,0,0,1,.3,1.21,1.87,1.87,0,0,1-1.53,1.4h0c.22-.93-.37-.81-.94-.72Z"/><path class="cls-2" d="M31.56,97.7l0,.09,0-.08Z"/><path class="cls-3" d="M33.21,101.26a1.87,1.87,0,0,0,1.53-1.4l.61,0c.1.58.6.66,1,.76a1.69,1.69,0,0,1,1.14.87c-.4.45.14,1-.18,1.51-.49-.06-1.2-.61-1.54.31l-.43-.19c-.25-.82-1-1.06-1.65-1.32C33.44,101.66,33.2,101.61,33.21,101.26Z"/><path class="cls-3" d="M24.51,124.52l.67-.31c.74,1.5-.57,1.8-1.39,2.38A3.7,3.7,0,0,1,24.51,124.52Z"/><path class="cls-3" d="M23.49,127.77c-.18,0-.4-.08-.33-.32,0-.08.23-.12.35-.18C23.51,127.44,23.5,127.6,23.49,127.77Z"/><path class="cls-5" d="M14.32,70c.5.45.59,1.42.19,2.66A5.68,5.68,0,0,1,14.29,70Z"/><path class="cls-2" d="M36.37,104.25c.1.2.28.41,0,.58-.29-.13-.75.16-.89-.28-.08-.23.18-.38.4-.47Z"/><path class="cls-5" d="M120.74,55.12a.49.49,0,0,1-.27-.62c.4.1.23.4.27.63Z"/><path class="cls-5" d="M120.74,55.13c.22.12.26.34.31.69-.34-.21-.29-.47-.31-.7Z"/><path class="cls-5" d="M121.1,56.21s.05.07,0,.1,0,.06-.06.09S121.09,56.28,121.1,56.21Z"/><path class="cls-5" d="M120.16,52.83l-.08,0,.12-.07Z"/><path class="cls-5" d="M16.42,85.65c-.23-1.11-1.26-2.05-.71-3.33A3.19,3.19,0,0,1,16.42,85.65Z"/><path class="cls-4" d="M15.73,81.59c-.09-1.18-.17-2.35-.26-3.52a.5.5,0,0,1,.51.52c0,.18,0,.37.21.44h0a4,4,0,0,0-.07,1.51C16.13,80.9,16.4,81.43,15.73,81.59Z"/><path class="cls-4" d="M24,88.87l-.11-.15.22-.11c0,.06.08.13.06.18S24,88.85,24,88.87Z"/><path class="cls-5" d="M22.31,102.24c.35-.06.54.06.49.44A.43.43,0,0,1,22.31,102.24Z"/><path class="cls-3" d="M43.15,82.32l.09-.31.09.06-.17.26Z"/><path class="cls-4" d="M80.29,123.5l0-.11-.06.1Z"/><path class="cls-2" d="M71.05,125.36h1.46c.48,0,.93,0,1.15.52v.45l-4.24,0v-.91C70,125.13,70.5,125.55,71.05,125.36Z"/><path class="cls-3" d="M19.45,82.58a2.58,2.58,0,0,1,.25-.15.38.38,0,0,1,0,.52,1.34,1.34,0,0,1-.24-.16A.18.18,0,0,0,19.45,82.58Z"/><path class="cls-3" d="M32.27,100.54c.57-.09,1.16-.21.94.72l-.87-.07C32.32,101,32.3,100.76,32.27,100.54Z"/><path class="cls-5" d="M118.51,47c.44.24.31.66.31,1-.31-.21-.47.57-.76.17C117.68,47.66,118.43,47.44,118.51,47Z"/><path class="cls-2" d="M34.21,113.51a.93.93,0,0,1,.12-.87c.49-.27.83-.6.56-1.22v0c.75-.56.47.47.82.53a4.59,4.59,0,0,0,.28,1.8A3.35,3.35,0,0,1,34.21,113.51Z"/><path class="cls-5" d="M51.77,113.79a1.84,1.84,0,0,0,.12-1.4l.35-.13C52.5,112.9,52.94,113.59,51.77,113.79Z"/><path class="cls-2" d="M34.85,110.93a.48.48,0,0,1-.52-.25c.37-.8.47-1.75,1.27-2.32,1,.38-.37.81,0,1.2C35.6,110.16,34.84,110.32,34.85,110.93Z"/><path class="cls-4" d="M34.89,111.42c.27.62-.07,1-.56,1.22A2,2,0,0,1,34.89,111.42Z"/></g></svg>