<svg id="图层_1" data-name="图层 1" xmlns="http://www.w3.org/2000/svg" xmlns:xlink="http://www.w3.org/1999/xlink" viewBox="0 0 140 140">
  <defs>
    <linearGradient id="未命名的渐变_418" data-name="未命名的渐变 418" x1="72.91" y1="77.46" x2="54.93" y2="129.43" gradientUnits="userSpaceOnUse">
      <stop offset="0" stop-color="#98f1fb"/>
      <stop offset="1" stop-color="#3384c5"/>
    </linearGradient>
    <linearGradient id="未命名的渐变_416" data-name="未命名的渐变 416" x1="105.81" y1="34.5" x2="33.58" y2="106.73" gradientUnits="userSpaceOnUse">
      <stop offset="0" stop-color="#9db1f6"/>
      <stop offset="1" stop-color="#3844c0"/>
    </linearGradient>
    <linearGradient id="未命名的渐变_431" data-name="未命名的渐变 431" x1="47.66" y1="75.16" x2="22.94" y2="120.72" gradientUnits="userSpaceOnUse">
      <stop offset="0" stop-color="#a7e4ff"/>
      <stop offset="0.72" stop-color="#5181e0"/>
      <stop offset="1" stop-color="#1a42cd" stop-opacity="0"/>
    </linearGradient>
    <linearGradient id="未命名的渐变_417" data-name="未命名的渐变 417" x1="69.99" y1="25.15" x2="69.99" y2="11.96" gradientUnits="userSpaceOnUse">
      <stop offset="0" stop-color="#a7e4ff"/>
      <stop offset="1" stop-color="#1a42cd"/>
    </linearGradient>
    <linearGradient id="未命名的渐变_416-2" x1="36.65" y1="23.85" x2="12.3" y2="48.2" gradientTransform="translate(5.42 1.43) rotate(-2.53)" xlink:href="#未命名的渐变_416"/>
    <linearGradient id="未命名的渐变_416-3" x1="18.61" y1="78.64" x2="18.61" y2="61.09" xlink:href="#未命名的渐变_416"/>
    <linearGradient id="未命名的渐变_413" data-name="未命名的渐变 413" x1="21.39" y1="-242.01" x2="21.39" y2="-252.54" gradientTransform="translate(40 -177.12) rotate(180)" gradientUnits="userSpaceOnUse">
      <stop offset="0" stop-color="#d6f7ff"/>
      <stop offset="1" stop-color="#76c0ff"/>
    </linearGradient>
    <linearGradient id="未命名的渐变_415" data-name="未命名的渐变 415" x1="23.94" y1="48.57" x2="31.98" y2="48.57" gradientUnits="userSpaceOnUse">
      <stop offset="0" stop-color="#9db1f6"/>
      <stop offset="1" stop-color="#7695f9"/>
    </linearGradient>
    <linearGradient id="未命名的渐变_413-2" x1="26.78" y1="-232.77" x2="26.78" y2="-239.67" xlink:href="#未命名的渐变_413"/>
    <linearGradient id="未命名的渐变_414" data-name="未命名的渐变 414" x1="9.22" y1="85.26" x2="9.22" y2="75.47" gradientUnits="userSpaceOnUse">
      <stop offset="0" stop-color="#d6e4ff"/>
      <stop offset="1" stop-color="#7695f9"/>
    </linearGradient>
    <linearGradient id="未命名的渐变_413-3" x1="30.78" y1="-254.71" x2="30.78" y2="-260.58" xlink:href="#未命名的渐变_413"/>
  </defs>
  <path d="M101.46,105.29c.59-2.53.75-5.05,1.6-7.58A10.22,10.22,0,0,1,101.46,105.29Zm-50,13.14.79.32c-.06-1.71-1.9-1.63-3.21-1.94l.34.17C50.23,116.92,50.87,117.59,51.49,118.43ZM59.8,121a52.41,52.41,0,0,1-7.51-2.22c0-2.22.93-4.15-2.19-4.87-.34.69-.8.52-1.53-.43-.93,1.64-.93,2.46-.48,2.91-.81-.35-1.55-.57-.88.14a52.24,52.24,0,0,1-24-25.29,8.86,8.86,0,0,0,3.43-1.82l.15-.18c.28-2.52-3-3.08-5.19-2-.19-.56-.39-1.12-.56-1.69a5,5,0,0,1,1.88-.78,3.82,3.82,0,0,1-.25-.46,14.25,14.25,0,0,1,10.63,7.23H27a9.39,9.39,0,0,0,5.21,1c1,11.46,14.58,15.63,24,19.79,0,0-2.09,5.21-1,5.21,3.13,2.09,7.3-7.29,8.34,0C64.39,118.42,61.27,119.34,59.8,121ZM31.61,93.05c-.65-.74-.72-.27-1.26-.53C30.37,92.85,31.46,92.85,31.61,93.05Zm10.45,19.28c-.77-1-1.07-.73-1.24-.15C40.63,112.59,41.64,112.24,42.06,112.33ZM119.74,87.8c-.82,1.46-1.49,2.72-1.21,3a52.26,52.26,0,0,1-20.27,23.47,24.22,24.22,0,0,0,1.26-4.06,32.18,32.18,0,0,0-5.22,5.16c.66-.47,1.22-.09,1.77.19A51.73,51.73,0,0,1,85.63,120c-.1-1.42.92-3.79.93-4.89a8.93,8.93,0,0,0-1,.23,12.74,12.74,0,0,0,0,4.66,52.06,52.06,0,0,1-22.32,1.62c.66-.74.19-.74-.71-.1-.65-.1-1.3-.22-2-.35,5.72-2.91,4.43-12,12.21-13-2.09,1-5.21,3.12-4.17,5.21s4.17,3.12,6.25,3.12c6.25-3.12,6.25-13.54,14.58-14.58-1,4.16-5.2,7.29-3.12,11.46-1-4.17,4.17-6.26,4.17-10.42v8.33c2.08-4.17,5.2-7.29,6.25-11.46,1,4.17-1,7.29-2.09,11.46,2.09-1,4.17-3.12,6.51-5.6l.23-.36a16.38,16.38,0,0,1-.49,1.79c2.61-2.08,3.91-4.94,5-7.94s1.83-6.12,3.39-8.72c0,2.08,0,5.2-1,7.29A23.1,23.1,0,0,0,117,85.22,24.71,24.71,0,0,1,121.31,79a9.83,9.83,0,0,1,.91-.8A51.65,51.65,0,0,1,119.74,87.8ZM72.67,116.91c.27,0,.34-.16,0,0Zm5.47-.71A3.44,3.44,0,0,0,75,119.44c1.06,3.2,2.07,0,3-.89C79,118,78.38,117.35,78.14,116.2Zm4.47,1.92c-.29-.1-1.34,1.11-.92,1.23A1.66,1.66,0,0,0,82.61,118.12Zm2.86-9.6c-.93,1.38-2,2.69-2,3.81,0,0,1.08-1.31,1-1C84.7,110.39,85.49,109.5,85.47,108.52Zm18.34-2.74a15.83,15.83,0,0,1-1.94,2.55c-.11.56.29.42.8.14C103.79,108.1,103.8,106.93,103.81,105.78Zm12.26-15c-.08,0-.28.13-.33.15a5.32,5.32,0,0,0-1.41,4.13A24.87,24.87,0,0,0,116.07,90.83ZM71.26,110.49c0-.45-.2-.71,0,0Zm-23.17,5.87a2.08,2.08,0,0,0,1,.45C48.81,116.68,48.45,116.51,48.09,116.36ZM20.42,83.46l.24.84a8,8,0,0,1,2-.07c-.05-.09-.1-.2-.17-.34A4.68,4.68,0,0,0,20.42,83.46Z" style="fill: url(#未命名的渐变_418)"/>
  <path d="M70.27,123.17A53.13,53.13,0,1,1,123.4,70,53.19,53.19,0,0,1,70.27,123.17ZM70.27,19A51.05,51.05,0,1,0,121.32,70,51.11,51.11,0,0,0,70.27,19Z" style="fill: url(#未命名的渐变_416)"/>
  <path d="M42.92,112.47h-.06l0,0a8.79,8.79,0,0,0-2.23.21l-.34,0c-.68-.25-1.1.16-1.55.57a26.67,26.67,0,0,0-5.86,8.36,5,5,0,0,0-.59,2l-.2.68c-.67,1-1.08,2.18-1.83,3.16l-1.6-.4c0-.61,0-1.23.05-1.84.27-2.67.59-5.33.71-8,.11-2.45,0-4.91.18-7.36,0-.38,0-.77-.48-.84-1.2-.21-2.28-.8-3.47-1l-.32-.13a9.25,9.25,0,0,1-2.37-2.46c-.82-1.49-1.5-3-.8-4.7a.42.42,0,0,0-.05-.49c.17-.45.47-.89.05-1.36a.31.31,0,0,0-.25-.4,23.42,23.42,0,0,1-1.49-3c.25-.14.15-.27,0-.41l.37-1.5a3.63,3.63,0,0,0,.78-2.82,3.07,3.07,0,0,0,0-1.75c.29-.18.55,0,.83.06s.7.37,1.08,0l1.43.38a3.86,3.86,0,0,0,2.9,1.15,1.06,1.06,0,0,0,.51-.47c.15-.27.31-.51.67-.5-.11.19,0,.33.08.49,0,.34.1.45.47.42s.7-.39,1-.71c1.07-1.26,2.47-1.71,3.5-1.12a4.17,4.17,0,0,0,4.22-.63c.67-.68.63-.74-.2-1.14-1.58-.77-3.25-.07-4.88-.35-.79-.14-1.66.31-2.36-.46a1.27,1.27,0,0,0-.67-.21,2.16,2.16,0,0,1-1.49-.84c-.08-.12-.16-.24-.23-.36-.06-.46-.43-.66-.77-.87s-.46-.3-.4-.61-.14-.63-.4-.9c-.71-.72-.67-1.23.07-1.94.29-.28.57-.56.85-.85l.18-.1c.39.19.71-.11,1.07-.17s.76-.08.85.44l-.3.37c-.24,0-.31.16-.25.39l-.32.82a.61.61,0,0,0-.16,1,.24.24,0,0,0,.13.28,4.78,4.78,0,0,0,1.77,1.63s.06,0,.09,0c1.63.17,3.27-.7,4.91,0,.09,0,.22-.08.34-.09,1.4-.08,2.12-1.21,2.94-2.06,1.15-1.21,2.08-2.59,3.73-3.26a3,3,0,0,1,2.71-.1c.28.15.53.41.89.3l.34.17c.13.44.34.7.81.35a13.18,13.18,0,0,1,1.44,2A11.23,11.23,0,0,0,48.46,84c-.05.42-.51.94-.11,1.23s.86-.3,1.31-.47c.06,0,.1-.13.15-.2a.75.75,0,0,0,.53-.49.45.45,0,0,0,.42-.39,1.54,1.54,0,0,0,.64-.6.42.42,0,0,0,.3-.44l.19-.19c.35-.06.41-.38.58-.61.33-.1.41-.41.52-.68.42-1.06.83-2.13,1.24-3.2l.16-.24a.75.75,0,0,1,.72.3v.48c.09.37.3.38.58.18a1.17,1.17,0,0,0,.71-.3c.6.11,1.16-.47,1.77-.07,0,.84-.89,1.3-.9,2.12l-1.56,1-.34.3a4.73,4.73,0,0,0-1.81,1.74L52.22,85c-.22,0-.28.16-.42.27-1.07.89-1.52,2.24-2.44,3.24-.35.38-.89.65-.86,1.28l-.13.34c-.36.3-.31.74-.42,1.13-.28,1-.28,2.17-1.23,2.87a2.2,2.2,0,0,0-.88,1.66c0,.38,0,.84-.31,1.07-.74.52-.63,1.62-1.48,2,0,0-.06.16,0,.23.23.78.13,1.66.71,2.33v0l0,0A18,18,0,0,0,46,104.39c.59,1.63,1.2,3.25,1.81,4.87-.37.77-1.27.92-1.77,1.52l-.21.13ZM32.79,90.75a.83.83,0,0,0-.9.18A4,4,0,0,1,30.1,92c-.19,0-.24.21-.19.42a.94.94,0,0,0,1.28.65,5.87,5.87,0,0,1,3.54-.44,2,2,0,0,0,2-.78c.21-.2.43-.49.31-.78s-.52-.18-.79-.16A6.46,6.46,0,0,1,32.79,90.75Zm-.72,25.33c.17-.17.28-.24.31-.33a43.72,43.72,0,0,1,1.57-4.6.36.36,0,0,0-.24-.56.44.44,0,0,0-.52.37,28.79,28.79,0,0,0-.88,2.87A5.28,5.28,0,0,0,32.07,116.08Z" style="fill: url(#未命名的渐变_431)"/>
  <path d="M51.72,19.49a2.61,2.61,0,0,0-2.52-2.37,2.77,2.77,0,0,0,1.83-1,2.68,2.68,0,0,0,.58-1.72A2.67,2.67,0,0,0,54,17.07a2.4,2.4,0,0,0-1.57.74A2.44,2.44,0,0,0,51.72,19.49Z" style="fill: #379ee3"/>
  <path d="M56,15.6a2.57,2.57,0,0,0-2.51-2.37,2.82,2.82,0,0,0,1.83-1,2.76,2.76,0,0,0,.58-1.73,2.63,2.63,0,0,0,.66,1.8,2.71,2.71,0,0,0,1.68.88,2.53,2.53,0,0,0-1.57.75A2.44,2.44,0,0,0,56,15.6Z" style="fill: #cbd2f8"/>
  <path d="M112.32,112.6a2.65,2.65,0,0,0-.71-1.57,2.74,2.74,0,0,0-1.81-.81,2.74,2.74,0,0,0,1.83-1,2.7,2.7,0,0,0,.58-1.73,2.67,2.67,0,0,0,2.34,2.68,2.51,2.51,0,0,0-1.56.74A2.47,2.47,0,0,0,112.32,112.6Z" style="fill: #379ee3"/>
  <path d="M115.81,106.61a2.62,2.62,0,0,0-.7-1.57,2.69,2.69,0,0,0-1.81-.81,2.79,2.79,0,0,0,1.83-1,2.83,2.83,0,0,0,.58-1.73,2.65,2.65,0,0,0,.66,1.8,2.71,2.71,0,0,0,1.68.88,2.42,2.42,0,0,0-1.57.74A2.47,2.47,0,0,0,115.81,106.61Z" style="fill: #cbd2f8"/>
  <path d="M70.76,25.15c-.11-.58-.64-2.44-3.94-4a27.59,27.59,0,0,0-10.14-2.22c1-.06,6.44-.25,10.25-2.46,3.18-1.85,3.86-3.87,3.83-4.46,0,.51,0,2.51,3.67,4.44a25,25,0,0,0,8.87,2.48,20.81,20.81,0,0,0-8.37,1.72C71.26,22.38,70.76,24.7,70.76,25.15Z" style="fill: url(#未命名的渐变_417)"/>
  <path d="M34.59,30.73c.14-1.28.26-2.56.4-3.84.35-3.14,2.65-4.94,4.88-7-.06.06.34,1.7.36,1.91a8.61,8.61,0,0,1-.08,2,10,10,0,0,1-.49,1.86,7.24,7.24,0,0,1-1.73,2.77A25.28,25.28,0,0,1,34.59,30.73Zm-11.8,12.2c.1.23.31,1,.53,1.14.65.25,1-.4,1.34-.86a10.66,10.66,0,0,0,1-1.87,7.19,7.19,0,0,0,0-4.33,7.17,7.17,0,0,0-.47-1.42c-.06-.13-.84-1.31-.84-1.3A14.69,14.69,0,0,0,21.8,39.4,9.85,9.85,0,0,0,22.79,42.93ZM30,35.8c1.76-.71,2.63-3.77,2.26-5.48-.3-1.35-.22-2.9-1.64-3.78-.34.78-.54,1.6-.93,2.37a14.74,14.74,0,0,0-1.06,2.45,8.26,8.26,0,0,0-.27,2.47c0,.3.14,2.27.45,2.34C29.26,36.28,29.59,36,30,35.8ZM19.9,49.22c.92.63,2.29.75,2.56-.48a5.61,5.61,0,0,0-.06-2.12,13.44,13.44,0,0,0-1.18-3.21c-.32-.64-1.06-2.24-2-2.25a10.48,10.48,0,0,0-.13,7A1.93,1.93,0,0,0,19.9,49.22Zm6.58-3.9c.73-.18,1.46-.38,2.17-.63a10.09,10.09,0,0,0,2.05-1,12.87,12.87,0,0,0,1.77-1.46s-1.31-.5-1.45-.53a5.5,5.5,0,0,0-1.4-.14,4.56,4.56,0,0,0-2.37.38,15.69,15.69,0,0,0-2.32,2.07.83.83,0,0,0-.16.21c-.17.37.4,1.13.76,1.24S26.22,45.38,26.48,45.32ZM42,27c-1.25,1.09-3.12,1.45-3.77,3.24a.44.44,0,0,1,.17.27c3.81,1.83,7,.38,10.07-1.95A20.49,20.49,0,0,0,44.12,27ZM35.07,37.4a9.67,9.67,0,0,0,4.29-2.08c.46-.36,1.5-1,1.44-1.63h0a7.81,7.81,0,0,0-1-.33c-1.73-.24-3.89-.67-5.59-.09A6.07,6.07,0,0,0,32,34.78c-.14.14-1.75,1.8-1.76,1.79a2.47,2.47,0,0,0,.44.27A7.23,7.23,0,0,0,35.07,37.4Z" style="fill: url(#未命名的渐变_416-2)"/>
  <polygon points="22.2 66.45 28.78 70.04 22.2 73.64 18.61 80.22 15.01 73.64 8.44 70.04 15.01 66.45 18.61 59.87 22.2 66.45" style="fill: url(#未命名的渐变_416-3)"/>
  <g>
    <polygon points="16.45 72.2 12.51 70.04 16.45 67.89 18.61 63.94 20.77 67.89 24.71 70.04 20.77 72.2 18.61 76.14 16.45 72.2" style="fill: url(#未命名的渐变_413)"/>
    <path d="M18.61,77.23l-2.54-4.65L11.42,70l4.65-2.54,2.54-4.64,2.54,4.64L25.79,70l-4.64,2.54Zm-5-7.19,3.24,1.78,1.78,3.24,1.77-3.24L23.62,70l-3.24-1.77L18.61,65l-1.78,3.24Z" style="fill: #f2f7ff"/>
  </g>
  <path d="M28.67,47A16.74,16.74,0,0,1,32,48.31c-2.49,1.72-5,2.74-7.92,1.18a.43.43,0,0,0-.12-.22c.56-1.37,2-1.59,3-2.4Z" style="fill: url(#未命名的渐变_415)"/>
  <polygon points="11.8 60.44 9.22 59.03 11.8 57.61 13.22 55.03 14.63 57.61 17.22 59.03 14.63 60.44 13.22 63.03 11.8 60.44" style="fill: url(#未命名的渐变_413-2)"/>
  <polygon points="11.22 78.46 14.89 80.46 11.22 82.47 9.22 86.14 7.21 82.47 3.54 80.46 7.21 78.46 9.22 74.79 11.22 78.46" style="fill: url(#未命名的渐变_414)"/>
  <g>
    <polygon points="8.02 81.67 5.81 80.46 8.02 79.26 9.22 77.06 10.42 79.26 12.62 80.46 10.42 81.67 9.22 83.87 8.02 81.67" style="fill: url(#未命名的渐变_413-3)"/>
    <path d="M9.22,84.41l-1.4-2.55-2.55-1.4,2.55-1.39,1.4-2.56,1.39,2.56,2.56,1.39-2.56,1.4Zm-2.86-4,1.85,1,1,1.85,1-1.85,1.85-1-1.85-1-1-1.85-1,1.85Z" style="fill: #f2f7ff"/>
  </g>
  <path d="M70.57,21.1c0-.23-.25-.94-1.52-1.56a10.61,10.61,0,0,0-3.92-.86,9.49,9.49,0,0,0,4-.95c1.23-.72,1.49-1.49,1.48-1.72,0,.2,0,1,1.41,1.71a9.76,9.76,0,0,0,3.43,1,8.05,8.05,0,0,0-3.23.66C70.76,20,70.57,20.93,70.57,21.1Z" style="fill: #f2f7ff"/>
  <g>
    <polygon points="104.97 39.38 108.27 45.08 108.27 39.38 104.97 39.38" style="fill: #fff6be"/>
    <polygon points="108.27 33.68 108.27 33.68 108.27 33.68 104.97 39.38 108.27 39.38 108.27 33.68" style="fill: #fff6be"/>
    <polygon points="108.27 45.08 111.56 39.38 108.27 39.38 108.27 45.08" style="fill: #da99bb"/>
    <polygon points="108.27 39.38 111.56 39.38 108.27 33.68 108.27 39.38" style="fill: #da99bb"/>
    <polygon points="108.27 33.68 108.27 33.68 108.27 33.68 108.27 33.68" style="fill: #ffd787"/>
    <polygon points="108.27 33.68 108.27 33.68 108.27 33.68 108.27 33.68" style="fill: #ffd787"/>
    <polygon points="108.27 22.27 104.97 27.98 108.27 27.98 108.27 22.27" style="fill: #fff6be"/>
    <polygon points="108.27 33.68 108.27 33.68 108.27 27.98 104.97 27.98 108.27 33.68 108.27 33.68" style="fill: #fff6be"/>
    <polygon points="111.56 27.98 108.27 22.27 108.27 27.98 111.56 27.98" style="fill: #ffb190"/>
    <polygon points="108.27 33.68 111.56 27.98 108.27 27.98 108.27 33.68" style="fill: #ffb190"/>
    <polygon points="98.39 39.38 104.97 39.38 103.33 36.53 98.39 39.38" style="fill: #ffb190"/>
    <polygon points="108.27 33.68 103.33 36.53 104.97 39.38 108.27 33.68 108.27 33.68" style="fill: #ffb190"/>
    <polygon points="113.2 36.53 111.56 39.38 118.14 39.38 113.2 36.53" style="fill: #ffb190"/>
    <polygon points="108.27 33.68 108.27 33.68 111.56 39.38 113.2 36.53 108.27 33.68" style="fill: #ffb190"/>
    <polygon points="108.27 33.68 108.27 33.68 108.27 33.68 108.27 33.68" style="fill: #ffd787"/>
    <polygon points="113.2 36.53 118.14 39.38 114.85 33.68 114.85 33.68 113.2 36.53" style="fill: #da99bb"/>
    <polygon points="108.27 33.68 113.2 36.53 114.85 33.68 108.27 33.68" style="fill: #da99bb"/>
    <polygon points="114.85 33.68 114.85 33.68 114.85 33.68 114.85 33.68" style="fill: #ffd787"/>
    <polygon points="114.85 33.68 118.14 27.98 113.2 30.83 114.85 33.68" style="fill: #da99bb"/>
    <polygon points="108.27 33.68 108.27 33.68 114.85 33.68 114.85 33.68 113.2 30.83 108.27 33.68" style="fill: #da99bb"/>
    <polygon points="98.39 39.38 103.33 36.53 101.68 33.68 98.39 39.38" style="fill: #fff6be"/>
    <polygon points="103.33 36.53 108.27 33.68 101.68 33.68 103.33 36.53" style="fill: #fff6be"/>
    <polygon points="98.39 27.98 101.68 33.68 103.33 30.83 98.39 27.98" style="fill: #ffd787"/>
    <polygon points="108.27 33.68 103.33 30.83 101.68 33.68 101.68 33.68 108.27 33.68 108.27 33.68 108.27 33.68" style="fill: #ffd787"/>
    <polygon points="103.33 30.83 104.97 27.98 98.39 27.98 103.33 30.83" style="fill: #fffff5"/>
    <polygon points="108.27 33.68 104.97 27.98 103.33 30.83 108.27 33.68" style="fill: #fffff5"/>
    <polygon points="118.14 27.98 111.56 27.98 113.2 30.83 118.14 27.98" style="fill: #fff6be"/>
    <polygon points="108.27 33.68 113.2 30.83 111.56 27.98 108.27 33.68 108.27 33.68" style="fill: #fff6be"/>
  </g>
</svg>
