<svg id="图层_3" data-name="图层 3" xmlns="http://www.w3.org/2000/svg" xmlns:xlink="http://www.w3.org/1999/xlink" viewBox="0 0 140 140"><defs><style>.cls-1{fill:none;}.cls-2{fill:url(#未命名的渐变_3);}.cls-3{fill:url(#未命名的渐变_3-2);}.cls-4{fill:url(#未命名的渐变_3-3);}.cls-5{fill:#f1a405;}.cls-6{fill:#fce7b5;}.cls-7{fill:#f6c750;}.cls-8{fill:#f8d786;}.cls-9{fill:#ba6f0b;}.cls-10{fill:url(#未命名的渐变_2);}.cls-11{fill:url(#未命名的渐变_3-4);}.cls-12{fill:url(#未命名的渐变_2-2);}.cls-13{fill:url(#未命名的渐变_3-5);}.cls-14{fill:url(#未命名的渐变_2-3);}.cls-15{fill:url(#未命名的渐变_3-6);}.cls-16{fill:url(#未命名的渐变_2-4);}.cls-17{fill:url(#未命名的渐变_3-7);}.cls-18{fill:url(#未命名的渐变_2-5);}.cls-19{fill:url(#未命名的渐变_2-6);}.cls-20{fill:url(#未命名的渐变_2-7);}.cls-21{fill:url(#未命名的渐变_2-8);}.cls-22{fill:url(#未命名的渐变_2-9);}.cls-23{fill:url(#未命名的渐变_2-10);}.cls-24{fill:url(#未命名的渐变_2-11);}.cls-25{fill:url(#未命名的渐变_2-12);}.cls-26{fill:url(#未命名的渐变_2-13);}.cls-27{fill:url(#未命名的渐变_2-14);}.cls-28{fill:url(#未命名的渐变_2-15);}.cls-29{fill:url(#未命名的渐变_2-16);}.cls-30{fill:url(#未命名的渐变_2-17);}.cls-31{fill:url(#未命名的渐变_2-18);}.cls-32{fill:url(#未命名的渐变_2-19);}.cls-33{fill:url(#未命名的渐变_2-20);}.cls-34{fill:url(#未命名的渐变_2-21);}.cls-35{fill:url(#未命名的渐变_3-8);}.cls-36{fill:url(#未命名的渐变_2-22);}.cls-37{fill:url(#未命名的渐变_2-23);}.cls-38{fill:url(#未命名的渐变_2-24);}.cls-39{fill:url(#未命名的渐变_2-25);}.cls-40{fill:url(#未命名的渐变_2-26);}.cls-41{fill:url(#未命名的渐变_2-27);}.cls-42{fill:url(#未命名的渐变_2-28);}.cls-43{fill:url(#未命名的渐变_2-29);}.cls-44{fill:url(#未命名的渐变_2-30);}.cls-45{fill:url(#未命名的渐变_2-31);}.cls-46{fill:url(#未命名的渐变_2-32);}.cls-47{fill:url(#未命名的渐变_2-33);}.cls-48{fill:url(#未命名的渐变_2-34);}.cls-49{fill:url(#未命名的渐变_2-35);}.cls-50{fill:url(#未命名的渐变_2-36);}.cls-51{fill:url(#未命名的渐变_3-9);}.cls-52{fill:url(#未命名的渐变_2-37);}.cls-53{fill:url(#未命名的渐变_3-10);}.cls-54{fill:url(#未命名的渐变_2-38);}.cls-55{fill:url(#未命名的渐变_2-39);}.cls-56{fill:url(#未命名的渐变_2-40);}.cls-57{fill:url(#未命名的渐变_2-41);}.cls-58{fill:url(#未命名的渐变_2-42);}.cls-59{fill:url(#未命名的渐变_2-43);}.cls-60{fill:url(#未命名的渐变_2-44);}.cls-61{fill:url(#未命名的渐变_2-45);}.cls-62{fill:url(#未命名的渐变_2-46);}.cls-63{fill:url(#未命名的渐变_2-47);}.cls-64{fill:url(#未命名的渐变_2-48);}.cls-65{fill:url(#未命名的渐变_2-49);}.cls-66{fill:url(#未命名的渐变_2-50);}.cls-67{fill:url(#未命名的渐变_2-51);}.cls-68{fill:url(#未命名的渐变_2-52);}.cls-69{fill:url(#未命名的渐变_2-53);}.cls-70{fill:url(#未命名的渐变_2-54);}.cls-71{fill:url(#未命名的渐变_2-55);}.cls-72{fill:url(#未命名的渐变_2-56);}.cls-73{fill:url(#未命名的渐变_2-57);}.cls-74{fill:url(#未命名的渐变_2-58);}.cls-75{fill:url(#未命名的渐变_2-59);}.cls-76{fill:url(#未命名的渐变_2-60);}.cls-77{fill:url(#未命名的渐变_2-61);}.cls-78{fill:url(#未命名的渐变_2-62);}.cls-79{fill:url(#未命名的渐变_2-63);}.cls-80{fill:#fff;}</style><linearGradient id="未命名的渐变_3" x1="10.05" y1="42.2" x2="127.23" y2="42.2" gradientUnits="userSpaceOnUse"><stop offset="0" stop-color="#5b0c02"/><stop offset="1" stop-color="#f1a405"/></linearGradient><linearGradient id="未命名的渐变_3-2" x1="10.63" y1="101.71" x2="125.45" y2="101.71" xlink:href="#未命名的渐变_3"/><linearGradient id="未命名的渐变_3-3" x1="127.78" y1="23.12" x2="127.78" y2="68.58" xlink:href="#未命名的渐变_3"/><linearGradient id="未命名的渐变_2" x1="70.11" y1="22.37" x2="109.16" y2="22.37" gradientUnits="userSpaceOnUse"><stop offset="0" stop-color="#fff"/><stop offset="1" stop-color="#f1a405"/></linearGradient><linearGradient id="未命名的渐变_3-4" x1="10.05" y1="14.5" x2="127.23" y2="14.5" xlink:href="#未命名的渐变_3"/><linearGradient id="未命名的渐变_2-2" x1="70.11" y1="14.5" x2="109.16" y2="14.5" xlink:href="#未命名的渐变_2"/><linearGradient id="未命名的渐变_3-5" x1="10.05" y1="13.67" x2="127.23" y2="13.67" xlink:href="#未命名的渐变_3"/><linearGradient id="未命名的渐变_2-3" x1="70.11" y1="13.67" x2="109.16" y2="13.67" xlink:href="#未命名的渐变_2"/><linearGradient id="未命名的渐变_3-6" x1="10.05" y1="14.05" x2="127.23" y2="14.05" xlink:href="#未命名的渐变_3"/><linearGradient id="未命名的渐变_2-4" x1="70.11" y1="14.05" x2="109.16" y2="14.05" xlink:href="#未命名的渐变_2"/><linearGradient id="未命名的渐变_3-7" x1="10.05" y1="12.99" x2="127.23" y2="12.99" xlink:href="#未命名的渐变_3"/><linearGradient id="未命名的渐变_2-5" x1="70.11" y1="12.99" x2="109.16" y2="12.99" xlink:href="#未命名的渐变_2"/><linearGradient id="未命名的渐变_2-6" x1="70.11" y1="32.09" x2="109.16" y2="32.09" xlink:href="#未命名的渐变_2"/><linearGradient id="未命名的渐变_2-7" x1="70.11" y1="22.26" x2="109.16" y2="22.26" xlink:href="#未命名的渐变_2"/><linearGradient id="未命名的渐变_2-8" x1="70.11" y1="25.42" x2="109.16" y2="25.42" xlink:href="#未命名的渐变_2"/><linearGradient id="未命名的渐变_2-9" x1="70.11" y1="18.69" x2="109.16" y2="18.69" xlink:href="#未命名的渐变_2"/><linearGradient id="未命名的渐变_2-10" x1="70.11" y1="22.63" x2="109.16" y2="22.63" xlink:href="#未命名的渐变_2"/><linearGradient id="未命名的渐变_2-11" x1="70.11" y1="24.4" x2="109.16" y2="24.4" xlink:href="#未命名的渐变_2"/><linearGradient id="未命名的渐变_2-12" x1="70.11" y1="23.43" x2="109.16" y2="23.43" xlink:href="#未命名的渐变_2"/><linearGradient id="未命名的渐变_2-13" x1="70.11" y1="14.57" x2="109.16" y2="14.57" xlink:href="#未命名的渐变_2"/><linearGradient id="未命名的渐变_2-14" x1="70.11" y1="14.59" x2="109.16" y2="14.59" xlink:href="#未命名的渐变_2"/><linearGradient id="未命名的渐变_2-15" x1="70.11" y1="16.87" x2="109.16" y2="16.87" xlink:href="#未命名的渐变_2"/><linearGradient id="未命名的渐变_2-16" x1="70.11" y1="15.76" x2="109.16" y2="15.76" xlink:href="#未命名的渐变_2"/><linearGradient id="未命名的渐变_2-17" x1="70.11" y1="22.09" x2="109.16" y2="22.09" xlink:href="#未命名的渐变_2"/><linearGradient id="未命名的渐变_2-18" x1="98.1" y1="123.74" x2="98.1" y2="79.19" xlink:href="#未命名的渐变_2"/><linearGradient id="未命名的渐变_2-19" x1="75.01" y1="123.74" x2="75.01" y2="79.19" xlink:href="#未命名的渐变_2"/><linearGradient id="未命名的渐变_2-20" x1="62.04" y1="123.74" x2="62.04" y2="79.19" xlink:href="#未命名的渐变_2"/><linearGradient id="未命名的渐变_2-21" x1="75.82" y1="123.74" x2="75.82" y2="79.19" xlink:href="#未命名的渐变_2"/><linearGradient id="未命名的渐变_3-8" x1="10.63" y1="92.41" x2="125.46" y2="92.41" xlink:href="#未命名的渐变_3"/><linearGradient id="未命名的渐变_2-22" x1="111.36" y1="123.74" x2="111.36" y2="79.19" xlink:href="#未命名的渐变_2"/><linearGradient id="未命名的渐变_2-23" x1="119.72" y1="123.74" x2="119.72" y2="79.19" xlink:href="#未命名的渐变_2"/><linearGradient id="未命名的渐变_2-24" x1="117.96" y1="123.74" x2="117.96" y2="79.19" xlink:href="#未命名的渐变_2"/><linearGradient id="未命名的渐变_2-25" x1="118.91" y1="123.74" x2="118.91" y2="79.19" xlink:href="#未命名的渐变_2"/><linearGradient id="未命名的渐变_2-26" x1="33.05" y1="123.74" x2="33.05" y2="79.19" xlink:href="#未命名的渐变_2"/><linearGradient id="未命名的渐变_2-27" x1="31.76" y1="123.74" x2="31.76" y2="79.19" xlink:href="#未命名的渐变_2"/><linearGradient id="未命名的渐变_2-28" x1="49.2" y1="123.74" x2="49.2" y2="79.19" xlink:href="#未命名的渐变_2"/><linearGradient id="未命名的渐变_2-29" x1="60.93" y1="123.74" x2="60.93" y2="79.19" xlink:href="#未命名的渐变_2"/><linearGradient id="未命名的渐变_2-30" x1="69.27" y1="123.74" x2="69.27" y2="79.19" xlink:href="#未命名的渐变_2"/><linearGradient id="未命名的渐变_2-31" x1="74.84" y1="123.74" x2="74.84" y2="79.19" xlink:href="#未命名的渐变_2"/><linearGradient id="未命名的渐变_2-32" x1="96.91" y1="123.74" x2="96.91" y2="79.19" xlink:href="#未命名的渐变_2"/><linearGradient id="未命名的渐变_2-33" x1="98.52" y1="123.74" x2="98.52" y2="79.19" xlink:href="#未命名的渐变_2"/><linearGradient id="未命名的渐变_2-34" x1="99.01" y1="123.74" x2="99.01" y2="79.19" xlink:href="#未命名的渐变_2"/><linearGradient id="未命名的渐变_2-35" x1="100.96" y1="123.74" x2="100.96" y2="79.19" xlink:href="#未命名的渐变_2"/><linearGradient id="未命名的渐变_2-36" x1="24.98" y1="109.41" x2="24.98" y2="37.84" xlink:href="#未命名的渐变_2"/><linearGradient id="未命名的渐变_3-9" x1="10.05" y1="50.7" x2="127.23" y2="50.7" xlink:href="#未命名的渐变_3"/><linearGradient id="未命名的渐变_2-37" x1="26.66" y1="109.41" x2="26.66" y2="37.84" xlink:href="#未命名的渐变_2"/><linearGradient id="未命名的渐变_3-10" x1="10.05" y1="67.6" x2="127.23" y2="67.6" xlink:href="#未命名的渐变_3"/><linearGradient id="未命名的渐变_2-38" x1="12.39" y1="109.41" x2="12.39" y2="37.84" xlink:href="#未命名的渐变_2"/><linearGradient id="未命名的渐变_2-39" x1="12.9" y1="109.41" x2="12.9" y2="37.84" xlink:href="#未命名的渐变_2"/><linearGradient id="未命名的渐变_2-40" x1="12.92" y1="109.41" x2="12.92" y2="37.84" xlink:href="#未命名的渐变_2"/><linearGradient id="未命名的渐变_2-41" x1="14.18" y1="109.41" x2="14.18" y2="37.84" xlink:href="#未命名的渐变_2"/><linearGradient id="未命名的渐变_2-42" x1="15.33" y1="109.41" x2="15.33" y2="37.84" xlink:href="#未命名的渐变_2"/><linearGradient id="未命名的渐变_2-43" x1="19.66" y1="109.41" x2="19.66" y2="37.84" xlink:href="#未命名的渐变_2"/><linearGradient id="未命名的渐变_2-44" x1="15.07" y1="109.41" x2="15.07" y2="37.84" xlink:href="#未命名的渐变_2"/><linearGradient id="未命名的渐变_2-45" x1="25.62" y1="109.41" x2="25.62" y2="37.84" xlink:href="#未命名的渐变_2"/><linearGradient id="未命名的渐变_2-46" x1="22.14" y1="109.41" x2="22.14" y2="37.84" xlink:href="#未命名的渐变_2"/><linearGradient id="未命名的渐变_2-47" x1="19.97" y1="109.41" x2="19.97" y2="37.84" xlink:href="#未命名的渐变_2"/><linearGradient id="未命名的渐变_2-48" x1="19.29" y1="109.41" x2="19.29" y2="37.84" xlink:href="#未命名的渐变_2"/><linearGradient id="未命名的渐变_2-49" x1="20.05" y1="109.41" x2="20.05" y2="37.84" xlink:href="#未命名的渐变_2"/><linearGradient id="未命名的渐变_2-50" x1="25.74" y1="109.41" x2="25.74" y2="37.84" xlink:href="#未命名的渐变_2"/><linearGradient id="未命名的渐变_2-51" x1="24.36" y1="109.41" x2="24.36" y2="37.84" xlink:href="#未命名的渐变_2"/><linearGradient id="未命名的渐变_2-52" x1="25.27" y1="109.41" x2="25.27" y2="70.28" xlink:href="#未命名的渐变_2"/><linearGradient id="未命名的渐变_2-53" x1="24.34" y1="109.41" x2="24.34" y2="37.84" xlink:href="#未命名的渐变_2"/><linearGradient id="未命名的渐变_2-54" x1="25.75" y1="109.41" x2="25.75" y2="37.84" xlink:href="#未命名的渐变_2"/><linearGradient id="未命名的渐变_2-55" x1="25.04" y1="109.41" x2="25.04" y2="37.84" xlink:href="#未命名的渐变_2"/><linearGradient id="未命名的渐变_2-56" x1="26.4" y1="109.41" x2="26.4" y2="37.84" xlink:href="#未命名的渐变_2"/><linearGradient id="未命名的渐变_2-57" x1="34.48" y1="109.01" x2="50.93" y2="109.01" xlink:href="#未命名的渐变_2"/><linearGradient id="未命名的渐变_2-58" x1="34.48" y1="118.87" x2="50.93" y2="118.87" xlink:href="#未命名的渐变_2"/><linearGradient id="未命名的渐变_2-59" x1="34.48" y1="119.66" x2="50.93" y2="119.66" xlink:href="#未命名的渐变_2"/><linearGradient id="未命名的渐变_2-60" x1="52.36" y1="123.74" x2="52.36" y2="79.19" xlink:href="#未命名的渐变_2"/><linearGradient id="未命名的渐变_2-61" x1="34.48" y1="111.55" x2="50.93" y2="111.55" xlink:href="#未命名的渐变_2"/><linearGradient id="未命名的渐变_2-62" x1="27.6" y1="109.41" x2="27.6" y2="37.84" xlink:href="#未命名的渐变_2"/><linearGradient id="未命名的渐变_2-63" x1="34.48" y1="118.42" x2="50.93" y2="118.42" xlink:href="#未命名的渐变_2"/></defs><path class="cls-1" d="M85.35,22.09a.65.65,0,0,1-.2-.05,1.09,1.09,0,0,1,0-.18,1.09,1.09,0,0,0,0,.18A.65.65,0,0,0,85.35,22.09Z"/><path class="cls-1" d="M20.05,83.63c.28,0,.24-.29.24-.55C20.29,83.34,20.33,83.58,20.05,83.63Z"/><path class="cls-1" d="M71,14.61a.9.9,0,0,1-.71-.23A.9.9,0,0,0,71,14.61Z"/><path class="cls-1" d="M14.45,124.67l-.18,0,.18,0,0-.41Z"/><path class="cls-1" d="M85.53,21.08a2.56,2.56,0,0,1-1.38-1A2.56,2.56,0,0,0,85.53,21.08Z"/><path class="cls-1" d="M13.72,103.38a.52.52,0,0,1-.11-.1.52.52,0,0,0,.11.1,18.28,18.28,0,0,1-.07,3.14h0A18.28,18.28,0,0,0,13.72,103.38Z"/><path class="cls-1" d="M18.52,77.79A8.76,8.76,0,0,0,19,79.08,8.76,8.76,0,0,1,18.52,77.79Z"/><path class="cls-1" d="M13.76,115.24c-.09.31,0,.66-.06,1a.78.78,0,0,0-.2.59.78.78,0,0,1,.2-.59C13.77,115.9,13.67,115.55,13.76,115.24Z"/><path class="cls-1" d="M83.93,15.89a1.13,1.13,0,0,1,0,.26A1.13,1.13,0,0,0,83.93,15.89Z"/><path class="cls-1" d="M83.92,16.15a2.73,2.73,0,0,1-.19.52A2.73,2.73,0,0,0,83.92,16.15Z"/><path class="cls-1" d="M73.31,16.23a.57.57,0,0,1,0-.25A.57.57,0,0,0,73.31,16.23Z"/><path class="cls-1" d="M25.08,85.5h0Z"/><path class="cls-1" d="M42,117.25a17.35,17.35,0,0,1,1.91-.15A17.35,17.35,0,0,0,42,117.25Z"/><path class="cls-1" d="M25.44,86.27a.82.82,0,0,1-.38.06A.82.82,0,0,0,25.44,86.27Z"/><path class="cls-1" d="M92.48,115.47c-.5.45-1,.92-1.46,1.38C91.53,116.41,92,116,92.48,115.47Z"/><path class="cls-1" d="M84,123.43a19.87,19.87,0,0,1,4.13-4.21c.81-.87,1.62-1.76,2.42-2.66-.3.26-.59.53-.89.78q-2.67,2.28-5.46,4.45a5.15,5.15,0,0,1-1.18.73,12.26,12.26,0,0,0,1.67-.25A.87.87,0,0,0,84,123.43Z"/><path class="cls-1" d="M25.71,85.39a1,1,0,0,1-.41.12A1,1,0,0,0,25.71,85.39Z"/><path class="cls-1" d="M25,85.48a1.43,1.43,0,0,1-.56-.33A1.43,1.43,0,0,0,25,85.48Z"/><path class="cls-1" d="M26,85.24a.94.94,0,0,1-.18.12A.94.94,0,0,0,26,85.24Z"/><path class="cls-1" d="M52.25,111.59a3.78,3.78,0,0,0-2.1,1Z"/><path class="cls-1" d="M40.07,117.5l1.91-.25Z"/><path class="cls-1" d="M13.13,71.42h0c.33,0,.59.1.63.36C13.72,71.52,13.46,71.38,13.13,71.42Z"/><path class="cls-1" d="M110.26,16.76c0-.14.07-.29.1-.43l.7-.07-.7.07C110.33,16.47,110.29,16.62,110.26,16.76Z"/><path class="cls-1" d="M115.17,50.61c-.52,1.15-1.1,2.25-1.7,3.34,0,.1.07.2.1.31.81-1.26,1.59-2.54,2.31-3.86C115.58,50.31,115.3,50.35,115.17,50.61Z"/><path class="cls-1" d="M112.2,16a1.42,1.42,0,0,0-1.09-.25c-2.89-.2-5.79-.25-8.69-.26,2.9,0,5.8.06,8.69.26A1.42,1.42,0,0,1,112.2,16Z"/><path class="cls-1" d="M63.71,14.33c.73-.1,1.46-.16,2.18-.2C65.17,14.17,64.44,14.23,63.71,14.33Z"/><path class="cls-1" d="M105.42,16.8l-.57.2Z"/><path class="cls-1" d="M105.42,16.8a2,2,0,0,1,1.52,0h0A2,2,0,0,0,105.42,16.8Z"/><path class="cls-1" d="M113.17,48.54a5.83,5.83,0,0,0-.83,2.45l.12.3A18.63,18.63,0,0,1,113.17,48.54Z"/><path class="cls-1" d="M12.71,71.42a.77.77,0,0,1-.5-.2A.77.77,0,0,0,12.71,71.42Z"/><path class="cls-1" d="M12.21,71.22a.78.78,0,0,1-.16-.43A.78.78,0,0,0,12.21,71.22Z"/><path class="cls-1" d="M116.62,50.86a1.85,1.85,0,0,0-.67-.44c2.11,1.71,1.42,5.53,4.3,6.73C117.83,55.94,117.83,53,116.62,50.86Z"/><path class="cls-1" d="M100.72,107l-.7.67a6.39,6.39,0,0,1,.58-.36c-.11.19-.23.36-.35.54L101,107a2,2,0,0,1-.26.06A.11.11,0,0,1,100.72,107Z"/><path class="cls-1" d="M98.24,109.4l-.29.28-1,1a3.65,3.65,0,0,1,.77-.46,5.46,5.46,0,0,1-2.48,2.5c.28-.39.56-.78.85-1.15-.61.63-1.2,1.28-1.78,2l.14-.05c-.11.7-.69,1-1.23,1.35l0,0L93,115l-.77,1.45A16.47,16.47,0,0,1,93.38,115c2-1.86,3.88-3.8,5.66-5.8a5.43,5.43,0,0,1-1.25.79Z"/><path class="cls-1" d="M117.63,79.84a20.33,20.33,0,0,1-3.5,2.13.19.19,0,0,1,0,.07A19,19,0,0,0,117.63,79.84Z"/><path class="cls-1" d="M72.91,122.93a2.29,2.29,0,0,1-.59-.17l-.79-.4a2.53,2.53,0,0,1,.31.64l-.54,0a5.06,5.06,0,0,1-.54.36,1.65,1.65,0,0,1,.83.09c.28.18.57.34.86.51a1.51,1.51,0,0,1-.47-.75A9.21,9.21,0,0,1,72.91,122.93Z"/><path class="cls-1" d="M57.67,123.7a.35.35,0,0,1,0,.14A.79.79,0,0,1,57,124c-2.67,0-5.35.18-8,.25,3.92,0,7.84-.19,11.75-.18a.24.24,0,0,1-.08-.06A19.12,19.12,0,0,1,57.67,123.7Z"/><path class="cls-1" d="M37.08,123.75a.44.44,0,0,0-.34.39l-5.8.09a2.4,2.4,0,0,1-1.06.24,2.4,2.4,0,0,0,1.06-.24l5.8-.09A.44.44,0,0,1,37.08,123.75Z"/><path class="cls-1" d="M71.06,123.05c-3.15.23-6.31.89-9.57.94a.33.33,0,0,0-.1.06c1,0,2,0,2.93.06a4,4,0,0,1-.58-.2A65,65,0,0,0,71.06,123.05Z"/><path class="cls-1" d="M118.75,78.91l-.45.39c.14-.13.29-.23.43-.36Z"/><path class="cls-1" d="M103.61,103.7l.85-1.1L103.29,104Z"/><path class="cls-1" d="M15.46,124.79l-1-.12,1,.12a3.72,3.72,0,0,0,3.35,0l.28-.06-.28.06A3.72,3.72,0,0,1,15.46,124.79Z"/><path class="cls-1" d="M101.49,106.23l.13,0,.58-.69Z"/><path class="cls-1" d="M54.08,113.14a1.22,1.22,0,0,0,.62-.16.69.69,0,0,1-.35.07A1,1,0,0,1,54.08,113.14Z"/><path class="cls-1" d="M24.43,119.37c-.51,0-1,.09-1.25.69-2,.69-4,1.42-6,2.06,2-.64,4-1.37,6-2.06C23.42,119.46,23.92,119.41,24.43,119.37Z"/><path class="cls-1" d="M26.12,119.16l-.53-.08h0Z"/><path class="cls-1" d="M24.62,119.87l-.42,0,.42,0a1.29,1.29,0,0,0,1.5-.71l.94-.32a2.18,2.18,0,0,1,1.14-.13,2.18,2.18,0,0,0-1.14.13h0l-.94.32A1.29,1.29,0,0,1,24.62,119.87Z"/><path class="cls-1" d="M61.25,115h0l.52.27a5.41,5.41,0,0,1-.72-.54c.06.1.14.17.2.27Z"/><path class="cls-1" d="M58.83,113.63h0a3.82,3.82,0,0,0,1.73,1.2A4.12,4.12,0,0,1,58.83,113.63Z"/><path class="cls-1" d="M26.34,84.27a.92.92,0,0,0,.25-.06h0A.92.92,0,0,1,26.34,84.27Z"/><path class="cls-1" d="M26.58,113.91a8,8,0,0,1,.1-.84c.09-.53.22-1.07.33-1.6-.11.53-.24,1.07-.33,1.6A8,8,0,0,0,26.58,113.91Z"/><path class="cls-1" d="M27.71,106.08a26.28,26.28,0,0,0-.45,3.67A26.28,26.28,0,0,1,27.71,106.08Z"/><path class="cls-1" d="M28.5,119a.43.43,0,0,0-.3-.32A.43.43,0,0,1,28.5,119Z"/><path class="cls-1" d="M28.53,98.53c.07.42.13.84.17,1.26C28.66,99.37,28.6,99,28.53,98.53Z"/><path class="cls-1" d="M24.53,120.75a.52.52,0,0,1-.37-.57A.52.52,0,0,0,24.53,120.75Z"/><path class="cls-1" d="M24.2,119.91h0l-1,.15Z"/><path class="cls-1" d="M53.56,112h0l0,.05Z"/><path class="cls-1" d="M21.05,102a2.54,2.54,0,0,1-.48,1.62,2.54,2.54,0,0,0,.48-1.62c0-.18.07-.36.11-.54a.83.83,0,0,0,.28-.16.83.83,0,0,1-.28.16C21.12,101.63,21.09,101.81,21.05,102Z"/><path class="cls-1" d="M22.54,98.18c.88-2.53,1.77-5.06,2.65-7.6l.2,0-.2,0C24.31,93.12,23.42,95.65,22.54,98.18Z"/><path class="cls-1" d="M19.37,107.76l-.05-.16.05.16Z"/><path class="cls-1" d="M20.93,98.74a4.12,4.12,0,0,0-.11,2h0A4.12,4.12,0,0,1,20.93,98.74Z"/><path class="cls-1" d="M54.83,112.91a1.27,1.27,0,0,0,.37-.36l-.07,0A.88.88,0,0,1,54.83,112.91Z"/><path class="cls-1" d="M26.37,94.51a.45.45,0,0,1,.15-.22.49.49,0,0,1,.22-.1.49.49,0,0,0-.22.1A.45.45,0,0,0,26.37,94.51Z"/><path class="cls-1" d="M28.72,101.06a10.73,10.73,0,0,0,0-1.27A10.73,10.73,0,0,1,28.72,101.06Z"/><path class="cls-1" d="M13.61,103.27s0,0,0-.06S13.59,103.25,13.61,103.27Z"/><path class="cls-1" d="M29.79,94.85C29,94,28.1,93.24,27.33,92.37,28.1,93.24,29,94,29.79,94.85Z"/><path class="cls-1" d="M15.25,119.05c.29-1.11.65-2.2,1-3.29C15.9,116.85,15.54,117.94,15.25,119.05Z"/><path class="cls-1" d="M31.72,119.1a.64.64,0,0,1-.06-.24h0A.64.64,0,0,0,31.72,119.1Z"/><path class="cls-1" d="M14.58,122.66c0-.25.06-.51.09-.76C14.64,122.15,14.6,122.41,14.58,122.66Z"/><path class="cls-1" d="M22.2,123.81c.3-.12.42-.36.47-.79C22.62,123.45,22.5,123.69,22.2,123.81Z"/><path class="cls-1" d="M22.2,123.81a2.14,2.14,0,0,1-.74.13A2.14,2.14,0,0,0,22.2,123.81Z"/><path class="cls-1" d="M57.86,116.56l-.31-.1c-1.92-.55-3.92.07-6,.59A32.19,32.19,0,0,1,57.86,116.56Z"/><path class="cls-1" d="M27.34,120.58l-.2,0Z"/><path class="cls-1" d="M48.3,123.52l2,0A8.64,8.64,0,0,0,48.3,123.52Z"/><path class="cls-1" d="M63.33,119.24a6.85,6.85,0,0,1,1,.13c.55.16,1.21.32,1.9.48h0l-2.23-1c.11.09.22.16.33.26C64,119.15,63.66,119.2,63.33,119.24Z"/><path class="cls-1" d="M55.6,123.58h-.76C55,123.88,55.3,123.77,55.6,123.58Z"/><path class="cls-1" d="M56.62,121.88c-.67.42-1.33.88-2,1.36a2.6,2.6,0,0,1-.77.37c.32,0,.64,0,1,0A16,16,0,0,1,56.62,121.88Z"/><path class="cls-1" d="M17.21,106.56a4.28,4.28,0,0,1-.15.51A4.28,4.28,0,0,0,17.21,106.56Z"/><path class="cls-1" d="M23.9,88.06c0-.11.08-.24.12-.36C24,87.82,23.94,88,23.9,88.06Z"/><path class="cls-1" d="M25.62,89.34a.62.62,0,0,1-.38-.18.62.62,0,0,0,.38.18Z"/><path class="cls-1" d="M21.64,101a.83.83,0,0,1-.2.32A.83.83,0,0,0,21.64,101Z"/><path class="cls-1" d="M19.81,98.39a1.59,1.59,0,0,0-.16,1h0A1.59,1.59,0,0,1,19.81,98.39Z"/><path class="cls-1" d="M26.49,91.47c.22.2.48.5.84.9C27,92,26.71,91.67,26.49,91.47Z"/><path class="cls-1" d="M14.52,116.46a3.77,3.77,0,0,1,0-.47,8.33,8.33,0,0,1,.6-2.29,8.24,8.24,0,0,0-.6,2.29A3.77,3.77,0,0,0,14.52,116.46Z"/><path class="cls-1" d="M79.58,123.62c-.53-.15-1.07-.23-1.32-.79q-.41-.08-.81-.18l.2.11-.88.1a28.25,28.25,0,0,1,4.77,1.69A4.43,4.43,0,0,0,79.58,123.62Z"/><path class="cls-1" d="M29.67,96.3l-.15,0Z"/><path class="cls-1" d="M13.28,85a1.19,1.19,0,0,1-.1.6A1.19,1.19,0,0,0,13.28,85Z"/><path class="cls-1" d="M16.64,107.74a1.84,1.84,0,0,0,.42-.67,1.84,1.84,0,0,1-.42.67Z"/><path class="cls-1" d="M124.81,32.26a6.62,6.62,0,0,1,0-.77h-.63l.63,0A1,1,0,0,0,124.81,32.26Z"/><path class="cls-1" d="M125.29,17.69l-.07.77c0-.26,0-.52.07-.77Z"/><path class="cls-1" d="M125,29.57s.11,0,.12.06c0,.21,0,.41,0,.62a4,4,0,0,1,.28,1.18c0-.82.09-1.62.13-2.4A.59.59,0,0,1,125,29.57Z"/><path class="cls-1" d="M124.65,34.36a.3.3,0,0,1,0,.08h0a5.76,5.76,0,0,1,.56,1.7c0-1.15,0-2.31.11-3.45a3.24,3.24,0,0,1-.19.52A1,1,0,0,1,124.65,34.36Z"/><path class="cls-1" d="M124.91,30.24v0l.23,0Z"/><path class="cls-1" d="M124.17,31.48c0,.2,0,.41,0,.61a1.63,1.63,0,0,1,.13.37C124.28,32.14,124.23,31.81,124.17,31.48Z"/><path class="cls-1" d="M30.25,119.45a1.72,1.72,0,0,0,.94-.56l.35,0-.35,0A1.72,1.72,0,0,1,30.25,119.45Z"/><path class="cls-1" d="M76.66,125.86c-.81-.3-1.61-.62-2.37-.94C75.07,125.27,75.86,125.59,76.66,125.86Z"/><path class="cls-1" d="M126.11,14.74a.53.53,0,0,0-.25.24.53.53,0,0,1,.25-.24Z"/><path class="cls-1" d="M125.12,17.46a.15.15,0,0,1,.06-.11A.15.15,0,0,0,125.12,17.46Z"/><path class="cls-1" d="M119.29,78.45l-.21.18a.79.79,0,0,1,.32-.07A.92.92,0,0,1,119.29,78.45Z"/><path class="cls-1" d="M125.15,17.57v0Z"/><path class="cls-1" d="M124.58,34.23a11.52,11.52,0,0,1-.21-1.31A3.09,3.09,0,0,0,124.58,34.23Z"/><path class="cls-1" d="M124.13,73.61c.39-.51.91.49,1.17,1.76-.17-1.09-.47-2-1.17-2-1.94.24-2.18,3.87-4.12,5.57h0c-.55,1.11-1.14,2.19-1.72,3.28C120.15,79.35,122.08,76.47,124.13,73.61Z"/><path class="cls-1" d="M124.26,34.85c0,.18,0,.36,0,.55h.41A2.6,2.6,0,0,1,124.26,34.85Z"/><path class="cls-1" d="M127.05,37.58c0,.45-.08.89-.11,1.34l.07,0a1.14,1.14,0,0,1,.07.19l.15-1.63a.73.73,0,0,1-.15.16S127.06,37.59,127.05,37.58Z"/><path class="cls-1" d="M125.82,52.07s0-.08,0-.11a6.11,6.11,0,0,1-.27-.66C125.64,51.55,125.72,51.81,125.82,52.07Z"/><path class="cls-1" d="M127.23,11.92h0l-.17.42Z"/><path class="cls-1" d="M127.11,36.73l.09,0a2.25,2.25,0,0,1,.08.24c.13-1.39.27-2.79.44-4.18a.45.45,0,0,1-.26.1C127.33,34.18,127.22,35.46,127.11,36.73Zm.25-1.33,0,0Z"/><path class="cls-1" d="M117.16,49.3c1.47,2,2.13,5.59,3.09,7.85C119.44,54.86,118.73,51.26,117.16,49.3Z"/><path class="cls-1" d="M126.55,45.05a16,16,0,0,1-1.21-5.41c-.06,1.72-.11,3.37.72,4.68s0,2.61-.22,4c.14,0,.24-.16.25-.52s0-.72.31-.94c.25-2.55.45-5.11.67-7.66a.22.22,0,0,1-.16.07C126.78,41.21,126.66,43.1,126.55,45.05Z"/><path class="cls-1" d="M89.7,21.73a1.43,1.43,0,0,0-.42,0A1.43,1.43,0,0,1,89.7,21.73Z"/><path class="cls-1" d="M125.79,48.37a9.31,9.31,0,0,1-.85-2c.11.83.16,1.65.23,2.48,0-.2,0-.41,0-.62A2.68,2.68,0,0,0,125.79,48.37Z"/><path class="cls-1" d="M124.63,38a1.63,1.63,0,0,1-.26.27l-.06-.14c.06,3.9.11,7.8.39,11.67-.06-1.59-.09-3.18-.09-4.75A31.37,31.37,0,0,1,124.63,38Z"/><path class="cls-1" d="M90.56,24.05l-.34-.23Z"/><path class="cls-1" d="M110.26,16.76c-.63.17-1.24.35-1.87.51l1.86-.5a35.66,35.66,0,0,1,3.58.09C112.63,16.7,111.45,16.81,110.26,16.76Z"/><path class="cls-1" d="M29.85,124.48a3.29,3.29,0,0,1-.54,0A3.29,3.29,0,0,0,29.85,124.48Z"/><path class="cls-1" d="M67.74,124.05l-1,.14A5.89,5.89,0,0,0,67.74,124.05Z"/><path class="cls-1" d="M89.7,21.73a.74.74,0,0,1,.41.28A.74.74,0,0,0,89.7,21.73Z"/><path class="cls-1" d="M97.66,29.35c1.07.78,2.14,1.54,3.16,2.38l.29.21-.29-.21C99.8,30.89,98.73,30.13,97.66,29.35Z"/><path class="cls-1" d="M89.93,23.54a1.94,1.94,0,0,0,.29.28A1.94,1.94,0,0,1,89.93,23.54Z"/><path class="cls-1" d="M124.33,21.94h0Z"/><path class="cls-1" d="M108.88,20.49a1.4,1.4,0,0,0,.19-1.28A1.4,1.4,0,0,1,108.88,20.49Z"/><path class="cls-1" d="M105.29,18.69c-.41,0-.47-.25-.4-.55C104.82,18.44,104.88,18.66,105.29,18.69Z"/><path class="cls-2" d="M11.36,70.08a2.71,2.71,0,0,1,.8-1.76,1.85,1.85,0,0,1,.48-1.45,17.83,17.83,0,0,1,2.56-4.52,12.37,12.37,0,0,1,1.24-1.27c1.37-1.18,2.64-2.46,4.07-3.56a1.16,1.16,0,0,1,.74-.36c1-1.22,2-2.47,3-3.7s2-2.45,3.08-3.6l1.81-1.92A46.25,46.25,0,0,1,48.89,28.13c2.27-2.37,4.5-4.79,6.73-7.22a34.17,34.17,0,0,0,3.68-4.28c.87-1.32,2.09-.48,3-.22,2,.58,4.1.71,6.1,1.26.48.13,1.13.18,1.26-.57s-.48-.76-1-.91c-1.78-.51-3.64-.46-5.43-.87a5,5,0,0,1-1.66-.63c.73-.15,1.45-.27,2.17-.36s1.46-.16,2.18-.2c1.41-.08,2.81-.07,4.22,0,.15,0,.35,0,.45-.14a5,5,0,0,1,.73-.61,5.17,5.17,0,0,1,4-.65c.56.09,1.12.23,1.69.38A42.33,42.33,0,0,0,82,14.24a14.24,14.24,0,0,0,1.74.14c.13,0,.26.15.39.23,1.83.09,3.63.45,5.45.65.61.07,1.22.12,1.83.14s1.52.09,2.28.1c2.91,0,5.81,0,8.71,0s5.8.06,8.69.26a1.42,1.42,0,0,1,1.09.25c-.36.37-.76.26-1.14.26l-.7.07c0,.14-.07.29-.1.43,1.19,0,2.37-.06,3.57.1a7.4,7.4,0,0,1,1.2.27c1.12.38,2.33-.39,3.52-.53a42.77,42.77,0,0,1,5.06-.09.67.67,0,0,1,.67,1c-1.4,3.33-2,6.89-3.07,10.32-1.44,5.6-5.31,10.68-5.31,16.49,0,.24.72.48,1,.24a74,74,0,0,0,4.18-10c1.08-2.95,1.95-6,3.1-9.26a8.28,8.28,0,0,1,.16.84,9.66,9.66,0,0,1,.07,1.6c0,1.3-.26,2.53-.2,3.76h.63c0-.42,0-.83,0-1.2h.08v0c-.43-.08-.06-.47-.06-.69h0c0-2.27,0-4.54,0-6.81a.73.73,0,0,1-.55-.8h0c0-.13,0-.27,0-.4a1.21,1.21,0,0,0,0-.19,3.73,3.73,0,0,1,.87-2.88l.07-.77a.94.94,0,0,1-.14-.12v0a.16.16,0,0,1,0-.09.15.15,0,0,1,.06-.11l.14-.1a3.2,3.2,0,0,1,.48-1.93.61.61,0,0,1,.06-.34.53.53,0,0,1,.25-.24l1-2.4.17-.42,0-.76c-11.27-.72-22.55-.29-33.83-.45-5.56-.09-11.12-.34-16.68-.53-.23,0-.49,0-.66-.18H66.2a5.13,5.13,0,0,1-2.54.36l-1.32.13a3.57,3.57,0,0,1-2.06.37,2.83,2.83,0,0,0-1.15.47,1,1,0,0,1-.76.62l-1.8,1.69a.64.64,0,0,1-.55.51l-.08.08a7,7,0,0,1-2.16,2.06l-.05.06a.42.42,0,0,1-.44.43l0,.05a.42.42,0,0,1-.45.42l0,0a.41.41,0,0,1-.43.44l0,.05c-.25.59-.46,1.21-1.18,1.4l-.28.27a.78.78,0,0,1-.61.51l-.07.06a.9.9,0,0,1-.73.62l0,0a.43.43,0,0,1-.47.43l0,0a29.84,29.84,0,0,1-4.31,4.1l-1,1A4.16,4.16,0,0,1,42,27.74l-.07.06a3.14,3.14,0,0,1-1.39,1.38l-.07.07a37.9,37.9,0,0,1-3.84,4c-4.84,4.85-9.71,9.65-14.38,14.65A142.59,142.59,0,0,0,11.34,61.36a4,4,0,0,0-.71,2.25c-.15,3.25-.38,6.5-.58,9.75,0,.34.07.69.1,1a3.41,3.41,0,0,0,.7-2,5,5,0,0,1,.26-1.22A6.08,6.08,0,0,0,11.36,70.08Z"/><path class="cls-3" d="M124.13,73.61c-2,2.86-4,5.74-5.87,8.6a118.19,118.19,0,0,1-13.8,20.39l-.85,1.1.67-.55c-.66.84-1.36,1.6-2.08,2.35l-.58.69h0a.9.9,0,0,1-.71.81l-.71.85A6.57,6.57,0,0,1,99,109.21c-1.78,2-3.65,3.94-5.66,5.8a16.47,16.47,0,0,0-1.13,1.45c-2.2,4.1-4.69,8.26-8.31,10.17-1.77.89-4.57.22-7.28-.77-.8-.27-1.59-.59-2.37-.94l-.53-.22a5.75,5.75,0,0,1-1.31-.71c-.29-.17-.58-.33-.86-.51a1.65,1.65,0,0,0-.83-.09,4,4,0,0,1-2.28.56l-.74.1a5.89,5.89,0,0,1-1,.14,6.41,6.41,0,0,1-2.43-.08c-1,0-1.95-.06-2.93-.06a.71.71,0,0,1-.65,0c-3.91,0-7.83.16-11.75.18-1.67,0-3.35,0-5-.06l-7.22,0-5.8.09a2.4,2.4,0,0,1-1.06.24h0a3.29,3.29,0,0,1-.54,0,4.9,4.9,0,0,1-.55-.13,1.28,1.28,0,0,0-.55,0c-.54.09-1.05.41-1.61.27a7.16,7.16,0,0,1-2,.12l-.68-.06-1.09,0a20,20,0,0,1-3.28-.07l-.45.09-.28.06a3.72,3.72,0,0,1-3.35,0l-1-.12-.18,0a.39.39,0,0,1-.14-.1.4.4,0,0,1-.11-.33,40,40,0,0,0-.5-7.17c0-.07,0-.14,0-.21a.78.78,0,0,1,.2-.59c.07-.32,0-.67.06-1a.73.73,0,0,1,.16-.3c0-.39,0-.77.05-1.15h0q0-3.15,0-6.28c-.35-.25-.14-.67-.3-1h0c-.44-.38-.39-.88-.4-1.37a1.86,1.86,0,0,0-.05-.48c-.66-2.68-.87-5.43-1.41-8.12-.06-.29-.09-.59-.13-.89a3.63,3.63,0,0,0-1-2.49c-.1,3.31.54,6.57.78,9.85.28,3.73.65,7.46.89,11.19a31.63,31.63,0,0,1,.2,6.38l0,.46c.52,1.51.2,3.07.28,4.61.11,2.19.07,2.15,2.17,2.9a18.4,18.4,0,0,0,5.55,1.3h.61c.59-.64,1.34-.33,2-.34l1.73-.05a35,35,0,0,1,8-.36l11.34-.06c13.79,0,27.1,2.17,41.14-.25,1.94-.24,3.88-1.94,5.09-3.87q2.26-3.27,4.5-6.34c1.5-2,3-4,4.5-6,3.1-3.86,6.25-7.74,9.74-11.55,0-.29.13-.45.45-.5,6-6.58,10.1-14.09,15.43-22.08a3.27,3.27,0,0,0,.35-1.86c0-.41-.09-.83-.15-1.22C125,74.1,124.52,73.1,124.13,73.61Z"/><path class="cls-4" d="M130.86,17.81h0c-.66-.19-.76.15-.85.73q-.52,3.34-1.07,6.69t-1,6.71c0,.24.07.64-.18.82-.17,1.39-.31,2.79-.44,4.18a.63.63,0,0,1,0,.52l-.15,1.63a.24.24,0,0,1,0,.15c-.22,2.55-.42,5.11-.67,7.66,0,0,.06-.06.11-.08a31.08,31.08,0,0,1-.65,5.19.08.08,0,0,1,0,0s0,.07,0,.11c-.1-.26-.18-.52-.25-.77a6.46,6.46,0,0,1-.4-2.41c-.07-.83-.12-1.65-.23-2.48a10.77,10.77,0,0,1-.33-1.36c0,1.57,0,3.16.09,4.75a54.09,54.09,0,0,0,3.47,16.44A24.22,24.22,0,0,0,129.7,69c1.21-14.76-.25-29.29,1-44.07a1.94,1.94,0,0,1,.14-.45c0-.44,0-.88,0-1.33a3,3,0,0,1,0-2.23ZM126.81,43h0Z"/><path class="cls-5" d="M11.66,95.66c0,.3.07.6.13.89.54,2.69.75,5.44,1.41,8.12a1.86,1.86,0,0,1,.05.48c0,.49,0,1,.4,1.37a18.28,18.28,0,0,0,.07-3.14.52.52,0,0,1-.11-.1h0s0,0,0-.06a.31.31,0,0,1,0-.19.8.8,0,0,1,0-.15c-.1-3.78-.21-7.57-.31-11.35-.45-.53-.2-1.14-.19-1.72L13,85.72c-.08-.18-.23-.35-.23-.53-.09-3.72-.67-7.46.66-11.1.23-.62.07-1.35.28-2a.51.51,0,0,0,0-.29c0-.26-.3-.4-.63-.36a2,2,0,0,1-.42,0,.62.62,0,0,1-.66-.63,3.69,3.69,0,0,1,.1-.84,2.12,2.12,0,0,0,0-1.62,2.66,2.66,0,0,0-.8,1.75,6.08,6.08,0,0,1-.25,1.14,5,5,0,0,0-.26,1.22,3.41,3.41,0,0,1-.7,2c-.13.09-.26.18-.4.26l-.12,2.84.08,2.87a13.54,13.54,0,0,1,0,4.4v1.1c.79,1.18.27,2.48.35,3.73l0,.47a4.33,4.33,0,0,1,.18,2.44l.06.45.26.22h0A3.63,3.63,0,0,1,11.66,95.66Z"/><path class="cls-5" d="M11.36,70.08a2.66,2.66,0,0,1,.8-1.75h0A2.71,2.71,0,0,0,11.36,70.08Z"/><path class="cls-5" d="M10.64,93.17h0a3.63,3.63,0,0,1,1,2.49A3.63,3.63,0,0,0,10.64,93.17Z"/><path class="cls-5" d="M13.65,106.52h0c-.44-.38-.39-.88-.4-1.37C13.26,105.64,13.21,106.14,13.65,106.52Z"/><path class="cls-6" d="M127.23,11.92a1.69,1.69,0,0,1,.12.44,1.78,1.78,0,0,1,0,.46,2.34,2.34,0,0,1-.18.88,1.55,1.55,0,0,1-1.09,1,.53.53,0,0,0-.25.24.61.61,0,0,0-.06.34c.25.14.25.39.25.63a72.85,72.85,0,0,1-.42,7.38c-.17,1.71,0,3.46-.06,5.19a2.79,2.79,0,0,1,0,.51c0,.78-.08,1.58-.13,2.4a3.55,3.55,0,0,1-.06,1.26c-.06,1.14-.1,2.3-.11,3.45a16.33,16.33,0,0,1,.09,3.5,16,16,0,0,0,1.21,5.41c.11-1.95.23-3.84.36-5.74a.34.34,0,0,1-.15,0c-.08-.23,0-.37.18-.4,0-.45.07-.89.11-1.34-.29-.34-.4-.65.06-.85.11-1.27.22-2.55.35-3.87.09-3.59.94-7.08,1.29-10.62.22-2.35.64-4.68.93-7a1.23,1.23,0,0,1,.07-.29,1.41,1.41,0,0,1,.51-.55c0-.17,0-.35-.07-.53l-.15-1c-.7-.43-.44-1.53-1.3-1.84l-1.45,0-.11.23c0,.25,0,.5,0,.76Z"/><path class="cls-6" d="M125.8,15.32a.61.61,0,0,1,.06-.34A.61.61,0,0,0,125.8,15.32Z"/><path class="cls-7" d="M130.27,14.37a1.37,1.37,0,0,0-.52.55,1.23,1.23,0,0,0-.07.29c-.29,2.35-.71,4.68-.93,7-.35,3.54-1.2,7-1.29,10.62a.45.45,0,0,0,.26-.1c.3-2.51.68-5,1.22-7.53q.54-3.35,1.07-6.69c.09-.58.19-.92.85-.73h0c.61-1.24-.32-2.28-.43-3.43Z"/><path class="cls-7" d="M127.9,31.94q.48-3.36,1-6.71c-.54,2.51-.92,5-1.22,7.53C128,32.58,127.86,32.18,127.9,31.94Z"/><path class="cls-7" d="M130,18.54c.09-.58.19-.92.85-.73h0C130.2,17.62,130.1,18,130,18.54Z"/><path class="cls-7" d="M130.27,14.37h0a1.41,1.41,0,0,0-.51.55A1.37,1.37,0,0,1,130.27,14.37Z"/><path class="cls-8" d="M130,12.81c-.12-.45-.24-.9-.38-1.35s-.37-.77-.92-.49C129.6,11.28,129.34,12.38,130,12.81Z"/><path class="cls-8" d="M130.43,14.38c.24-.32,0-.45-.24-.54,0,.18.05.36.08.53Z"/><path class="cls-8" d="M130.27,14.37c0-.17-.05-.35-.08-.53,0,.18.05.36.07.53Z"/><path class="cls-6" d="M10.4,98.07s.09,0,.09-.07a.65.65,0,0,0-.05-.2C10.43,97.89,10.41,98,10.4,98.07Z"/><path class="cls-5" d="M124.31,38.13a7.52,7.52,0,0,1-.25-2.73h.21c0-.19,0-.37,0-.55a4,4,0,0,1-.13-2.88l.06.12c0-.2,0-.41,0-.61h0c-.06-1.23.16-2.46.2-3.76a9.66,9.66,0,0,0-.07-1.6,8.28,8.28,0,0,0-.16-.84c-1.15,3.27-2,6.31-3.1,9.26a74,74,0,0,1-4.18,10c-.24.24-1,0-1-.24,0-6,3.87-10.89,5.31-16.49,1.06-3.43,1.67-7,3.07-10.32a.67.67,0,0,0-.67-1,42.77,42.77,0,0,0-5.06.09c-1.19.14-2.4.91-3.52.53a7.4,7.4,0,0,0-1.2-.27,35.66,35.66,0,0,0-3.58-.09l-1.86.5a16.35,16.35,0,0,1-1.69.35,8.31,8.31,0,0,1-1.23.06l-.46.06a2.53,2.53,0,0,0-.12.4c-.07.3,0,.52.4.55h.29a22.07,22.07,0,0,1,2.3,0,1.33,1.33,0,0,1,1.19.53,1.4,1.4,0,0,1-.19,1.28c-1,1.8-1.85,3.65-2.82,5.46a52.59,52.59,0,0,1-3.34,5.52,1.67,1.67,0,0,1-.62.58.86.86,0,0,1-.47.08,1.38,1.38,0,0,1-.52-.19l-.29-.21c-1-.84-2.09-1.6-3.16-2.38a30.46,30.46,0,0,1-3.07-2.5,9.51,9.51,0,0,0-.92-.76,23.3,23.3,0,0,0-2-1.33c-.34-.22-.68-.43-1-.66l-.09-.05-.34-.23a1.94,1.94,0,0,1-.29-.28.88.88,0,0,1-.1-.22.54.54,0,0,1,0-.22,1.44,1.44,0,0,1,.23-.59.57.57,0,0,0,.1-.35.42.42,0,0,0,0-.15.74.74,0,0,0-.41-.28,1.43,1.43,0,0,0-.42,0c-.25,0-.5,0-.74.08a3.55,3.55,0,0,0-2,1c-1.1.75-2.21,1.48-3.31,2.21a46.15,46.15,0,0,1,29.07,26,5.83,5.83,0,0,1,.83-2.45,1.31,1.31,0,0,1,1-.83,3.28,3.28,0,0,1,3,1.59c1.57,2,2.28,5.56,3.09,7.85-2.88-1.2-2.19-5-4.3-6.73l-.07,0c-.72,1.32-1.5,2.6-2.31,3.86A45.92,45.92,0,0,1,114.13,82a20.33,20.33,0,0,0,3.5-2.13c.23-.17.45-.36.67-.54l.45-.39a.77.77,0,0,1,.33-.28l.21-.18a.92.92,0,0,0,.11.11.84.84,0,0,1,.64.26l-.06.11h0c1.94-1.7,2.18-5.33,4.12-5.57.7,0,1,.91,1.17,2a8.14,8.14,0,0,1,.15,1.22c0,.4.08.79.13,1.14,1.94-2.66,4.12-5.33,4.13-8.7a3.61,3.61,0,0,1-1.11-1.7c-.16-.36-.29-.73-.43-1.09-2.46-5.13-3.24-10.81-3.47-16.44C124.42,45.93,124.37,42,124.31,38.13Z"/><path class="cls-5" d="M80.31,24.18l.47-.28c.26-.14.53-.2.73.11.45-.05.55-.44.77-.73a1.13,1.13,0,0,1,.9-1.07,2.35,2.35,0,0,1,.54-.06L85.15,22a1.09,1.09,0,0,1,0-.18.6.6,0,0,0-.21-.48A17.34,17.34,0,0,0,78,18.13a10.9,10.9,0,0,1-2.12-.62c-.69-.26-1.38-.55-2.08-.8a.65.65,0,0,1-.49-.48.57.57,0,0,1,0-.25c.4-1.12-.27-1.24-1-1.37l-.31,0a1,1,0,0,0-.25,0,4.57,4.57,0,0,0-.52.05l-.27,0a.9.9,0,0,1-.71-.23,1.37,1.37,0,0,1-.2-.26h0c-1.41-.06-2.81-.07-4.22,0-.72,0-1.45.1-2.18.2s-1.44.21-2.17.36a5,5,0,0,0,1.66.63c1.79.41,3.65.36,5.43.87.51.15,1.11.17,1,.91s-.78.7-1.26.57c-2-.55-4.09-.68-6.1-1.26-.87-.26-2.09-1.1-3,.22a34.17,34.17,0,0,1-3.68,4.28c-2.23,2.43-4.46,4.85-6.73,7.22a45.88,45.88,0,0,1,31.42-3.95Z"/><path class="cls-5" d="M124.37,27.72c0,1.3-.26,2.53-.2,3.76h0C124.11,30.25,124.33,29,124.37,27.72Z"/><path class="cls-5" d="M115.9,44.32c0-5.81,3.87-10.89,5.31-16.49C119.77,33.43,115.9,38.27,115.9,44.32Z"/><path class="cls-5" d="M124.37,27.72a9.66,9.66,0,0,0-.07-1.6A9.66,9.66,0,0,1,124.37,27.72Z"/><path class="cls-5" d="M70.11,14.12h0c-1.41-.06-2.81-.07-4.22,0C67.3,14.05,68.7,14.06,70.11,14.12Z"/><path class="cls-5" d="M125.45,76.59a8.14,8.14,0,0,0-.15-1.22C125.36,75.76,125.41,76.18,125.45,76.59Z"/><path class="cls-5" d="M128.17,66.24A54.09,54.09,0,0,1,124.7,49.8C124.93,55.43,125.71,61.11,128.17,66.24Z"/><path class="cls-8" d="M105.76,17.33a1.76,1.76,0,0,1,.39-.19,2.45,2.45,0,0,0,.79-.35,2,2,0,0,0-1.52,0l-.57.2a1.43,1.43,0,0,1-.27.09c-3.15.87-6.4,1.27-9.54,2.19a12.18,12.18,0,0,1-3.6.6c-1,0-1.28-.42-1-1.37A3.16,3.16,0,0,1,93.86,16c4.42,0,8.84,0,13.27,0,.46,0,1.1-.28,1.28.51.66,0,1.27-.43,2-.19l.7-.07c0-.17,0-.34,0-.51-2.89-.2-5.79-.25-8.69-.26s-5.8,0-8.71,0c-.76,0-1.52-.07-2.28-.1s-1.22-.07-1.83-.14c-1.82-.2-3.62-.56-5.45-.65-.31.28-.57.55-.31,1a.89.89,0,0,1,.09.26,1.13,1.13,0,0,1,0,.26,2.73,2.73,0,0,1-.19.52c-.45,1-1.19,1.76,0,2.94a4,4,0,0,1,.39.43,2.56,2.56,0,0,0,1.38,1,5.13,5.13,0,0,0,2.4.37c5.72-1.12,11.28-3,17.08-3.71l.46-.06A1,1,0,0,1,105.76,17.33Z"/><path class="cls-8" d="M93.71,15.5c2.91,0,5.81,0,8.71,0C99.52,15.47,96.62,15.51,93.71,15.5Z"/><path class="cls-8" d="M89.6,15.26c-1.82-.2-3.62-.56-5.45-.65h0C86,14.7,87.78,15.06,89.6,15.26Z"/><path class="cls-5" d="M13.68,66.59c.34-.13.67-.28,1-.39s.86-.12,1-.67A13.75,13.75,0,0,1,18,62c1.12-1.6,2.19-3.22,3.29-4.84a1.16,1.16,0,0,0-.74.36c-1.43,1.1-2.7,2.38-4.07,3.56a12.37,12.37,0,0,0-1.24,1.27,17.83,17.83,0,0,0-2.56,4.52A4.22,4.22,0,0,0,13.68,66.59Z"/><path class="cls-5" d="M15.2,62.35a17.83,17.83,0,0,0-2.56,4.52h0A17.83,17.83,0,0,1,15.2,62.35Z"/><path class="cls-8" d="M124.88,22.74c0,2.27,0,4.54,0,6.81l.14,0a.59.59,0,0,0,.54-.54c0-.17,0-.34,0-.51,0-1.73-.11-3.48.06-5.19a72.85,72.85,0,0,0,.42-7.38c0-.24,0-.49-.25-.63a3.2,3.2,0,0,0-.48,1.93c.26.17.23.31,0,.44,0,.25-.05.51-.07.77C125.28,19.9,125.63,21.36,124.88,22.74Z"/><path class="cls-8" d="M124.88,22.74h0c0,2.27,0,4.54,0,6.81h0C124.85,27.28,124.86,25,124.88,22.74Z"/><path class="cls-8" d="M125.57,28.52c0,.17,0,.34,0,.51A2.79,2.79,0,0,0,125.57,28.52Z"/><path class="cls-7" d="M124.88,22.74h0c.75-1.38.4-2.84.34-4.28a3.73,3.73,0,0,0-.87,2.88,1.21,1.21,0,0,1,0,.19c0,.13,0,.27,0,.4h0A.73.73,0,0,0,124.88,22.74Z"/><path class="cls-7" d="M124.33,21.93c0-.13,0-.27,0-.4C124.34,21.66,124.33,21.8,124.33,21.93Z"/><path class="cls-7" d="M124.88,22.74a.73.73,0,0,1-.55-.8.73.73,0,0,0,.55.8Z"/><path class="cls-7" d="M110.36,16.33c-.68-.24-1.29.18-2,.19a3.87,3.87,0,0,1-1.47.27h0a2.45,2.45,0,0,1-.79.35,1.76,1.76,0,0,0-.39.19,1,1,0,0,0-.29.35,8.31,8.31,0,0,0,1.23-.06,16.35,16.35,0,0,0,1.69-.35c.63-.16,1.24-.34,1.87-.51C110.29,16.62,110.33,16.47,110.36,16.33Z"/><path class="cls-7" d="M108.39,17.27a16.35,16.35,0,0,1-1.69.35A16.35,16.35,0,0,0,108.39,17.27Z"/><path class="cls-7" d="M106.94,16.79h0a2.45,2.45,0,0,1-.79.35A2.45,2.45,0,0,0,106.94,16.79Z"/><path class="cls-7" d="M106.15,17.14a1.76,1.76,0,0,0-.39.19A1.76,1.76,0,0,1,106.15,17.14Z"/><path class="cls-8" d="M127.2,13.7a2.34,2.34,0,0,0,.18-.88,1.78,1.78,0,0,0,0-.46,1.69,1.69,0,0,0-.12-.44l-.17.42-1,2.4h0A1.55,1.55,0,0,0,127.2,13.7Z"/><path class="cls-8" d="M127.06,12.34l-1,2.4h0Z"/><path class="cls-8" d="M127.38,12.82a2.34,2.34,0,0,1-.18.88A2.34,2.34,0,0,0,127.38,12.82Z"/><path class="cls-8" d="M127.23,11.92h0a1.69,1.69,0,0,1,.12.44A1.69,1.69,0,0,0,127.23,11.92Z"/><path class="cls-8" d="M124.81,32.26c.1.32.28.63.36,1a3.24,3.24,0,0,0,.19-.52l.06-1.26a4,4,0,0,0-.28-1.18l-.23,0a2.28,2.28,0,0,1-.06,1.21h0A6.62,6.62,0,0,0,124.81,32.26Z"/><path class="cls-8" d="M124.91,30.28h-.08c0,.37,0,.78,0,1.2h0A2.28,2.28,0,0,0,124.91,30.28Z"/><path class="cls-8" d="M125.42,31.43l-.06,1.26A3.55,3.55,0,0,0,125.42,31.43Z"/><path class="cls-7" d="M124.37,32.92a11.52,11.52,0,0,0,.21,1.31c0,.05,0,.09.07.13a1,1,0,0,0,.52-1.15c0,.07,0,.15-.07.22a2.81,2.81,0,0,1-.29-1.17,1,1,0,0,1,0-.76l-.63,0c.06.33.11.66.15,1A2.31,2.31,0,0,1,124.37,32.92Z"/><path class="cls-7" d="M125.1,33.43c0-.07,0-.15.07-.22-.08-.32-.26-.63-.36-1A2.81,2.81,0,0,0,125.1,33.43Z"/><path class="cls-7" d="M111.11,15.75c0,.17,0,.34,0,.51.38,0,.78.11,1.14-.26A1.42,1.42,0,0,0,111.11,15.75Z"/><path class="cls-7" d="M125.13,29.63s-.07-.05-.12-.06l-.14,0a3.55,3.55,0,0,0,0,.65h.23C125.14,30,125.13,29.84,125.13,29.63Z"/><path class="cls-7" d="M124.87,29.59h0v0h0c0,.22-.37.61.06.69a3.55,3.55,0,0,1,0-.65Z"/><path class="cls-7" d="M124.87,29.58h0l.14,0-.14,0Z"/><path class="cls-7" d="M124.87,29.55h0v0Z"/><path class="cls-7" d="M125.32,17.25l-.14.1a.15.15,0,0,0-.06.11.16.16,0,0,0,0,.09v0a.94.94,0,0,0,.14.12h0C125.55,17.56,125.58,17.42,125.32,17.25Z"/><path class="cls-7" d="M125.15,17.55a.16.16,0,0,1,0-.09A.16.16,0,0,0,125.15,17.55Z"/><path class="cls-7" d="M125.15,17.57a.94.94,0,0,0,.14.12h0A.94.94,0,0,1,125.15,17.57Z"/><path class="cls-8" d="M30.94,124.23l5.8-.09a.44.44,0,0,1,.34-.39,2.29,2.29,0,0,1,.53,0c3.56-.08,7.13-.27,10.69-.2a8.64,8.64,0,0,1,2,0c1.19,0,2.37.06,3.55,0a2.6,2.6,0,0,0,.77-.37c.64-.48,1.3-.94,2-1.36a10.14,10.14,0,0,1,6.71-2.64c.33,0,.66-.09,1-.11-.11-.1-.22-.17-.33-.26-2.09-.89-4.2-1.71-6.14-2.31a32.19,32.19,0,0,0-6.28.49,11.34,11.34,0,0,1-4.76.45,8.57,8.57,0,0,0-2.93-.4,17.35,17.35,0,0,0-1.91.15l-1.91.25-1,.1A25.79,25.79,0,0,0,34,118.66l-1.67.5-.25.07a.47.47,0,0,1-.29,0,.36.36,0,0,1-.08-.12.64.64,0,0,1-.06-.24h-.12l-.35,0a1.72,1.72,0,0,1-.94.56l-.35.07a5,5,0,0,0-1.4.29l-.5.24c-.08.54-.36.57-.66.53l-.2,0a1.5,1.5,0,0,0-.36,0l-1.65.34c-.16.69-.85.39-1.26.64s-.9.26-1.16.72c0,.34,0,.59,0,.81-.05.43-.17.67-.47.79a2.14,2.14,0,0,1-.74.13c-.16,0-.34,0-.55,0-.5,0-1.28-.38-1.37.63a20,20,0,0,0,3.28.07l1.09,0a2.16,2.16,0,0,1,2.69-.07h0c.56.15,1.07-.17,1.61-.26a1.28,1.28,0,0,1,.55,0A1.82,1.82,0,0,1,30.94,124.23Z"/><path class="cls-8" d="M26.6,124.55h0c.56.14,1.07-.18,1.61-.27C27.67,124.38,27.16,124.7,26.6,124.55Z"/><path class="cls-8" d="M19.54,124.6h0a20,20,0,0,0,3.28.07A20,20,0,0,1,19.54,124.6Z"/><path class="cls-8" d="M14.48,106.37c.06-1.56-.19-3.14.37-4.66.11-.32.08-.81.52-.88s.75.34.91.67a5.37,5.37,0,0,1,.68,4.24,9.73,9.73,0,0,0-.49,1.2,1,1,0,0,0,.17.8,1.84,1.84,0,0,0,.42-.67,4.28,4.28,0,0,0,.15-.51,2.87,2.87,0,0,1,.72-1.68c0-.18.06-.36.1-.54a11,11,0,0,1,1.07-3.17,3.6,3.6,0,0,1,.28-.4c-.11-.51.24-.93.27-1.42a1.59,1.59,0,0,1,.16-1,1.81,1.81,0,0,0,.09-.31,4.62,4.62,0,0,0-.14-2.82c-1-2.28-2.24-4.39-3.42-6.56a32.72,32.72,0,0,1-1.91-4l-.11-.22a.59.59,0,0,0-.58-.35c-.49.06-.45.49-.46.84a1.19,1.19,0,0,1-.1.6.61.61,0,0,1-.16.16l.06,4.08c.71.5.54,1.1.19,1.72.1,3.78.21,7.57.31,11.35.33.09.53.22.14.51a18.28,18.28,0,0,1-.07,3.14c.16.32-.05.74.3,1C14.7,107.4,14.46,106.81,14.48,106.37Z"/><path class="cls-6" d="M68.85,121.06l-1.73-.81s0,0,0,0a.87.87,0,0,1-.9-.42c-.69-.16-1.35-.32-1.9-.48a6.85,6.85,0,0,0-1-.13,17.1,17.1,0,0,0-6.71,2.64,16,16,0,0,0-1.78,1.71h.76c.54-.32,1.14-.89,1.39,0,.4-.4.58-.23.68.16a19.12,19.12,0,0,0,3,.28.65.65,0,0,1-.15-.1.78.78,0,0,1,1.14,0,1.53,1.53,0,0,1-.16.11c3.26,0,6.42-.71,9.57-.94l.29,0,0,0,.54,0a2.53,2.53,0,0,0-.31-.64L69,121.14A.3.3,0,0,1,68.85,121.06Z"/><path class="cls-6" d="M56.62,121.88a17.1,17.1,0,0,1,6.71-2.64A10.14,10.14,0,0,0,56.62,121.88Z"/><path class="cls-5" d="M92.48,115.47c-.46.48-1,.94-1.46,1.38a32.5,32.5,0,0,1-4.17,3.73l1.26-1.36A19.87,19.87,0,0,0,84,123.43c.1.44.32.91.2,1.26-.46,1.39-1.5.62-2.64-.14a28.25,28.25,0,0,0-4.77-1.69,14.49,14.49,0,0,1-3.86.07,9.21,9.21,0,0,0-.93.31,1.51,1.51,0,0,0,.47.75c.59.33,1.21.64,1.84.93s1.56.64,2.37.94c2.76.92,5.51,1.27,7.28.53,2.06-.73,3.57-2.6,5-4.78,1.09-1.67,2.13-3.51,3.32-5.15L93,115C92.83,115.16,92.65,115.32,92.48,115.47Z"/><path class="cls-5" d="M73.76,124.7l.53.22c-.63-.29-1.25-.6-1.84-.93A5.75,5.75,0,0,0,73.76,124.7Z"/><path class="cls-5" d="M83.94,126.39c-1.77.74-4.52.39-7.28-.53,2.71,1,5.51,1.66,7.28.77,3.62-1.91,6.11-6.07,8.31-10.17-1.19,1.64-2.23,3.48-3.32,5.15C87.51,123.79,86,125.66,83.94,126.39Z"/><path class="cls-6" d="M14.36,114c.11,0,.21-.12.3-.36.18-.47.08-1.12.74-1.32l0-.47a1.37,1.37,0,0,1-.13-.39.82.82,0,0,1,.54-.84c.05-.37.09-.74.13-1.11s0-.42.14-.51a.63.63,0,0,1,.22-.07c.1-.4.19-.8.29-1.19h0a1,1,0,0,1-.17-.8,9.73,9.73,0,0,1,.49-1.2,5.37,5.37,0,0,0-.68-4.24c-.16-.33-.45-.76-.91-.67s-.41.56-.52.88c-.56,1.52-.31,3.1-.37,4.66,0,.44.22,1-.53,1.14q0,3.13,0,6.28A.58.58,0,0,0,14.36,114Z"/><path class="cls-6" d="M14,107.51q0,3.13,0,6.28h0Q14,110.64,14,107.51Z"/><path class="cls-6" d="M16.47,106.94a1,1,0,0,0,.17.8h0A1,1,0,0,1,16.47,106.94Z"/><path class="cls-5" d="M14.48,124.26v-.08c0-.51,0-1,.1-1.52,0-.25.06-.51.09-.76a24.38,24.38,0,0,1,.58-2.85c.29-1.11.65-2.2,1-3.29.56-1.63,1.17-3.25,1.68-4.89a1.8,1.8,0,0,0,.05-.46,2.54,2.54,0,0,0-.85,1.47c-.08.27-.13.62-.48.55s-.23-.45-.25-.7c-.15-1.56.58-2.93,1-4.38a7.21,7.21,0,0,0,.55-2.46,2.85,2.85,0,0,0-.72,1.67,4.28,4.28,0,0,1-.15.51,1.84,1.84,0,0,1-.42.67c-.1.39-.19.79-.29,1.19.11.33-.06.5-.36.58h0l-.14,1.11a1.37,1.37,0,0,1-.41,1.23h0c0,.16,0,.31,0,.47a4.93,4.93,0,0,1-.3,1.38,8.33,8.33,0,0,0-.6,2.29,3.77,3.77,0,0,0,0,.47c0,.16,0,.29-.24.34-.39.12-.25-.51-.58-.58a.78.78,0,0,0-.2.59c0,.07,0,.14,0,.21a40,40,0,0,1,.5,7.17.4.4,0,0,0,.11.33.39.39,0,0,0,.14.1l.18,0Z"/><path class="cls-5" d="M14.27,124.62a.39.39,0,0,1-.14-.1A.39.39,0,0,0,14.27,124.62Z"/><path class="cls-5" d="M17.21,106.56a2.85,2.85,0,0,1,.72-1.67h0A2.87,2.87,0,0,0,17.21,106.56Z"/><path class="cls-5" d="M15.86,110.62l.14-1.11h0C16,109.88,15.91,110.25,15.86,110.62Z"/><path class="cls-5" d="M15.4,112.32c0-.16,0-.31,0-.47h0Z"/><path class="cls-7" d="M99.76,107.83l.26-.17.7-.67a1.07,1.07,0,0,1,.08-.27Z"/><path class="cls-7" d="M91,116.85c.48-.46,1-.93,1.46-1.38.22-.23.45-.46.66-.7L93,115l.15-.14,0,0a1.44,1.44,0,0,1,1.09-1.3c.58-.67,1.17-1.32,1.78-2a5.56,5.56,0,0,1,.86-.89l1-1c-1,1-2.06,2-3.12,3-1.4,1.32-2.84,2.61-4.3,3.87-.8.9-1.61,1.79-2.42,2.66C89.09,118.43,90.08,117.66,91,116.85Z"/><path class="cls-7" d="M101.11,106.39a1.18,1.18,0,0,1,.38-.16l.71-.73q.72-.9,1.41-1.8l-.32.27C102.58,104.79,101.85,105.59,101.11,106.39Z"/><path class="cls-7" d="M104.28,103.15l-.67.55q-.69.9-1.41,1.8C102.92,104.75,103.62,104,104.28,103.15Z"/><path class="cls-7" d="M92.48,115.47c.17-.15.35-.31.54-.46l.12-.24C92.93,115,92.7,115.24,92.48,115.47Z"/><path class="cls-7" d="M86.85,120.58A32.5,32.5,0,0,0,91,116.85c-.94.81-1.93,1.58-2.91,2.37Z"/><path class="cls-7" d="M57,124l0-.39H55.6c-.3.19-.58.3-.76,0-.32,0-.64,0-1,0a8.69,8.69,0,0,1-3.55,0l-2,0c-3.56-.07-7.13.12-10.69.2a2.29,2.29,0,0,0-.53,0,.44.44,0,0,0-.34.39l7.22,0c1.68.07,3.36.08,5,.06,2.68-.07,5.36-.25,8-.25Z"/><path class="cls-7" d="M44,124.16c1.68.11,3.36.11,5,.06C47.32,124.24,45.64,124.23,44,124.16Z"/><path class="cls-7" d="M50.33,123.57a8.69,8.69,0,0,0,3.55,0C52.7,123.63,51.52,123.6,50.33,123.57Z"/><path class="cls-7" d="M57,123.54c-.25-.85-.85-.28-1.39,0H57Z"/><path class="cls-6" d="M19.54,124.6c.09-1,.87-.61,1.37-.63.21,0,.39,0,.55,0a2.14,2.14,0,0,0,.74-.13c.3-.12.42-.36.47-.79,0-.22,0-.47,0-.81L15.93,124l.26.69,2.62.11.28-.06.45-.09Z"/><path class="cls-6" d="M19.54,124.6l-.45.09.45-.09Z"/><path class="cls-6" d="M22.67,123c0-.22,0-.47,0-.81h0C22.71,122.55,22.69,122.8,22.67,123Z"/><path class="cls-7" d="M71.06,123.05a65,65,0,0,1-7.32.86,4,4,0,0,0,.58.2c.73,0,1.46,0,2.19.1l.24,0,1-.14a30.21,30.21,0,0,1,3-.66,5.06,5.06,0,0,0,.54-.36Z"/><path class="cls-7" d="M68.48,124a4,4,0,0,0,2.28-.56,30.21,30.21,0,0,0-3,.66Z"/><path class="cls-7" d="M64.32,124.11a6.41,6.41,0,0,0,2.43.08l-.24,0C65.78,124.16,65.05,124.14,64.32,124.11Z"/><path class="cls-7" d="M71.06,123.05l.24,0,0,0Z"/><path class="cls-8" d="M14.5,116a8.24,8.24,0,0,1,.6-2.29,4.93,4.93,0,0,0,.3-1.38c-.66.2-.56.85-.74,1.32-.09.24-.19.35-.3.36a.58.58,0,0,1-.39-.21c0,.38,0,.76-.05,1.15C14.08,115.3,13.84,115.89,14.5,116Z"/><path class="cls-8" d="M14,113.79h0a.58.58,0,0,0,.39.21A.58.58,0,0,1,14,113.79Z"/><path class="cls-5" d="M100,107.66l-1.21,1.18-.57.56-.45.6a5.43,5.43,0,0,0,1.25-.79c.41-.46.82-.91,1.21-1.37.12-.18.24-.35.35-.54A6.39,6.39,0,0,0,100,107.66Z"/><path class="cls-5" d="M100.25,107.84c-.39.46-.8.91-1.21,1.37A6.57,6.57,0,0,0,100.25,107.84Z"/><path class="cls-5" d="M98.81,108.84l1.21-1.18-.26.17C99.44,108.16,99.13,108.51,98.81,108.84Z"/><path class="cls-5" d="M95.21,112.74a5.46,5.46,0,0,0,2.48-2.5,3.65,3.65,0,0,0-.77.46l-.86.89C95.77,112,95.49,112.35,95.21,112.74Z"/><path class="cls-5" d="M96.06,111.59l.86-.89A5.56,5.56,0,0,0,96.06,111.59Z"/><path class="cls-5" d="M18.81,124.75l-2.62-.11-.73.15A3.72,3.72,0,0,0,18.81,124.75Z"/><path class="cls-7" d="M26.6,124.55a2.16,2.16,0,0,0-2.69.07l.68.06A6.81,6.81,0,0,0,26.6,124.55Z"/><path class="cls-7" d="M24.59,124.68a7.16,7.16,0,0,0,2-.12h0A6.81,6.81,0,0,1,24.59,124.68Z"/><path class="cls-7" d="M28.76,124.3a4.9,4.9,0,0,0,.55.13,3.29,3.29,0,0,0,.54,0h0a2.4,2.4,0,0,0,1.06-.24A1.82,1.82,0,0,0,28.76,124.3Z"/><path class="cls-7" d="M29.88,124.47h0Z"/><path class="cls-8" d="M16.19,124.64l-.26-.69c-.52-.13-1,.17-1.45.23v.08l0,.41,1,.12Z"/><path class="cls-8" d="M14.48,124.26v-.08h0Z"/><path class="cls-5" d="M94.42,113.49l-.14.05c-.37.43-.74.86-1.09,1.3C93.73,114.5,94.31,114.19,94.42,113.49Z"/><path class="cls-5" d="M93.19,114.84c.35-.44.72-.87,1.09-1.3A1.44,1.44,0,0,0,93.19,114.84Z"/><path class="cls-7" d="M13.7,116.22c.33.07.19.7.58.58.19,0,.23-.18.24-.34a3.77,3.77,0,0,1,0-.47c-.66-.1-.42-.69-.58-1a.73.73,0,0,0-.16.3C13.67,115.55,13.77,115.9,13.7,116.22Z"/><path class="cls-7" d="M60.66,124a.24.24,0,0,0,.08.06h.65a.33.33,0,0,1,.1-.06Z"/><path class="cls-7" d="M60.74,124a.71.71,0,0,0,.65,0Z"/><path class="cls-7" d="M60.51,123.88a.65.65,0,0,0,.15.1h.83a1.53,1.53,0,0,0,.16-.11A.78.78,0,0,0,60.51,123.88Z"/><path class="cls-5" d="M100.72,107a.11.11,0,0,0,0,.06A2,2,0,0,0,101,107l.66-.8-.13,0Z"/><path class="cls-5" d="M101.67,106.18h0l-.66.8A.9.9,0,0,0,101.67,106.18Z"/><path class="cls-5" d="M100.72,107l.77-.76a1.18,1.18,0,0,0-.38.16l-.31.33A1.07,1.07,0,0,0,100.72,107Z"/><path class="cls-8" d="M57.07,124h0a.79.79,0,0,0,.68-.13.35.35,0,0,0,0-.14c-.22,0-.45-.07-.67-.12A2.78,2.78,0,0,1,57.07,124Z"/><path class="cls-8" d="M57,123.54a.08.08,0,0,0,0,0c.22,0,.45.09.67.12C57.57,123.31,57.39,123.14,57,123.54Z"/><path class="cls-8" d="M57,123.58h0l0,.39h.1A2.78,2.78,0,0,0,57,123.58Z"/><path class="cls-8" d="M57,123.54l0,0h0A.08.08,0,0,1,57,123.54Z"/><path class="cls-8" d="M125.84,48.36c.25-1.43.94-2.85.22-4s-.78-3-.72-4.68c-.08-1.13-.11-2.31-.09-3.5a5.76,5.76,0,0,0-.56-1.7c0,.32,0,.64,0,1-.06.85.71,1.72-.05,2.6a31.37,31.37,0,0,0,0,7V44.8a10.46,10.46,0,0,1,.33,1.61,9.31,9.31,0,0,0,.85,2Z"/><path class="cls-8" d="M124.61,45.05a10.77,10.77,0,0,0,.33,1.36,10.46,10.46,0,0,0-.33-1.61Z"/><path class="cls-8" d="M125.34,39.64a16.33,16.33,0,0,0-.09-3.5C125.23,37.33,125.26,38.51,125.34,39.64Z"/><path class="cls-7" d="M126.09,47.84c0,.36-.11.49-.25.52l0,.08,0-.07a2.68,2.68,0,0,1-.6-.1c0,.21,0,.42,0,.62a11.89,11.89,0,0,0,.4,2.41,6.11,6.11,0,0,0,.27.66c.22-1.69.4-3.37.56-5.06C126.09,47.12,126.1,47.53,126.09,47.84Z"/><path class="cls-7" d="M125.57,51.3a11.89,11.89,0,0,1-.4-2.41A6.46,6.46,0,0,0,125.57,51.3Z"/><path class="cls-7" d="M125.86,52a31.08,31.08,0,0,0,.65-5.19c-.05,0-.07.06-.11.08-.16,1.69-.34,3.37-.56,5.06A.08.08,0,0,0,125.86,52Z"/><path class="cls-7" d="M125.82,48.44l0-.08h0Z"/><path class="cls-8" d="M127.11,36.73l-.06.85s0,0,0,0a.73.73,0,0,0,.15-.16c0-.18,0-.35,0-.52a2.25,2.25,0,0,0-.08-.24Z"/><path class="cls-8" d="M127.28,36.94c0,.17,0,.34,0,.52A.63.63,0,0,0,127.28,36.94Z"/><path class="cls-8" d="M127.05,37.58l.06-.85C126.65,36.93,126.76,37.24,127.05,37.58Z"/><path class="cls-8" d="M126.94,38.92l0,.39a.22.22,0,0,0,.16-.07v-.15a1.14,1.14,0,0,0-.07-.19Z"/><path class="cls-8" d="M127.08,39.09v.15A.24.24,0,0,0,127.08,39.09Z"/><path class="cls-8" d="M126.76,39.32a.34.34,0,0,0,.15,0l0-.39C126.73,39,126.68,39.09,126.76,39.32Z"/><path class="cls-7" d="M13.08,89.8c0,.58-.26,1.19.19,1.72C13.62,90.9,13.79,90.3,13.08,89.8Z"/><path class="cls-7" d="M13.58,102.87a.8.8,0,0,0,0,.15.31.31,0,0,0,0,.19s0,0,0,.06h0a.52.52,0,0,0,.11.1C14.11,103.09,13.91,103,13.58,102.87Z"/><path class="cls-7" d="M13.58,103.21a.31.31,0,0,1,0-.19A.31.31,0,0,0,13.58,103.21Z"/><path class="cls-7" d="M13.61,103.28h0Z"/><path class="cls-9" d="M113.47,54c.6-1.09,1.18-2.19,1.7-3.34.13-.26.41-.3.71-.21l0,0s0,0,0,.05a1.85,1.85,0,0,1,.67.44c1.21,2.18,1.21,5.08,3.63,6.29-1-2.26-1.62-5.81-3.09-7.85a3.14,3.14,0,0,0-3-1.35,1.47,1.47,0,0,0-1,.59,18.63,18.63,0,0,0-.71,2.75C112.82,52.16,113.16,53.05,113.47,54Z"/><path class="cls-9" d="M115.88,50.4l.07,0s0,0,0-.05Z"/><path class="cls-9" d="M114.2,48a3.14,3.14,0,0,1,3,1.35,3.28,3.28,0,0,0-3-1.59,1.31,1.31,0,0,0-1,.83A1.47,1.47,0,0,1,114.2,48Z"/><path class="cls-8" d="M85.15,22l-1.43.11a2.5,2.5,0,0,1-1.44,1.13h0c-.22.29-.32.68-.77.73l-.48.33c.75.19,1.5.39,2.24.61,1.1-.73,2.21-1.46,3.31-2.21h0c0-.84-.55-.68-1-.65a.81.81,0,0,1-.22,0A.65.65,0,0,1,85.15,22Z"/><path class="cls-8" d="M86.58,22.74c-1.1.75-2.21,1.48-3.31,2.21h0c1.1-.73,2.21-1.46,3.31-2.21Z"/><path class="cls-8" d="M82.28,23.28h0c-.22.29-.32.68-.77.73C82,24,82.06,23.57,82.28,23.28Z"/><path class="cls-7" d="M81.51,24c-.2-.31-.47-.25-.73-.11l-.47.28.72.16Z"/><path class="cls-7" d="M124.63,38a25.12,25.12,0,0,0,.05-2.6h-.41c0,.91,0,1.82,0,2.73l.06.14A1.63,1.63,0,0,0,124.63,38Z"/><path class="cls-7" d="M124.06,35.4a7.52,7.52,0,0,0,.25,2.73c0-.91,0-1.82,0-2.73Z"/><path class="cls-7" d="M124.63,38c.76-.88,0-1.75.05-2.6A25.12,25.12,0,0,1,124.63,38Z"/><path class="cls-9" d="M124.69,34.44h0a.3.3,0,0,0,0-.08l0,0,0-.16a3.09,3.09,0,0,1-.21-1.31c0-.15,0-.31-.05-.46a1.63,1.63,0,0,0-.13-.37c0,.92,0,1.84.07,2.76a2.6,2.6,0,0,0,.42.55C124.69,35.08,124.69,34.76,124.69,34.44Z"/><path class="cls-9" d="M124.13,32a4,4,0,0,0,.13,2.88c0-.92,0-1.84-.07-2.76Z"/><path class="cls-9" d="M124.61,34.39l0,0s-.05-.08-.07-.13Z"/><path class="cls-9" d="M124.37,32.92a2.31,2.31,0,0,0-.05-.46C124.34,32.61,124.35,32.77,124.37,32.92Z"/><path class="cls-9" d="M124.68,35.4c0-.32,0-.64,0-1h0C124.69,34.76,124.69,35.08,124.68,35.4Z"/><path class="cls-7" d="M82.28,23.28a2.5,2.5,0,0,0,1.44-1.13,2.35,2.35,0,0,0-.54.06A1.13,1.13,0,0,0,82.28,23.28Z"/><path class="cls-7" d="M83.18,22.21a1.13,1.13,0,0,0-.9,1.07h0A1.13,1.13,0,0,1,83.18,22.21Z"/><path class="cls-8" d="M15.6,73.87c.12.32.23.64.36.95,1.09,2.76,2.3,5.46,3.48,8.18,0,.07,0,.15.08.23a.73.73,0,0,0,.27.38.43.43,0,0,0,.26,0c.28,0,.24-.29.24-.55a.83.83,0,0,1,0-.27,8,8,0,0,0-.25-1c-.33-.93-.65-1.88-1.06-2.78a8.76,8.76,0,0,1-.49-1.29,34.17,34.17,0,0,0-1.22-4,51.15,51.15,0,0,1-2.05-5.5c-.19-.59-.23-1.17-1-1s-1.29.5-1,1.53,1,1.33,1.33,2.12S15.26,72.92,15.6,73.87Z"/><path class="cls-5" d="M20.93,98.74a4.12,4.12,0,0,0-.11,2l.92-.26.8-2.3c.88-2.53,1.77-5.06,2.65-7.6-.08-.34.08-.5.42-.52h0c0-.24,0-.48,0-.72a.62.62,0,0,1-.38-.18c-.22-.25,0-.67-.11-1s.32-1.11-.42-1.17c-.43,0-.58.32-.69.69,0,.12-.08.25-.12.36a3.22,3.22,0,0,0-.2.69c-.33,2.58-1.69,4.79-2.63,7.14a3,3,0,0,0-.29,1.65A1.92,1.92,0,0,1,20.93,98.74Z"/><path class="cls-9" d="M19.26,107.45l.07-.45c-.33-.34-.12-.43.21-.48h0c.34-1,.68-1.94,1-2.91-.09-.61-.4-1.3.48-1.62,0-.18.07-.36.11-.54-.4-.1-.36-.41-.34-.71a4.12,4.12,0,0,1,.11-2,1.92,1.92,0,0,0-.15-1.2,1,1,0,0,0-.48.64c-.15.44-.19.94-.65,1.17h0c0,.49-.38.91-.27,1.42A7.29,7.29,0,0,1,18,104.33h0c0,.18-.07.36-.1.55h0a7.21,7.21,0,0,1-.55,2.46c-.38,1.45-1.11,2.82-1,4.38,0,.25-.12.64.25.7s.4-.28.48-.55a2.54,2.54,0,0,1,.85-1.47c.56-.93.34-2.19,1.26-3Z"/><path class="cls-9" d="M18,104.34h0c0,.18-.07.36-.1.54h0C18,104.7,18,104.52,18,104.34Z"/><path class="cls-8" d="M25.71,85.39a1,1,0,0,1-.41.12h-.22l-.08,0a1.43,1.43,0,0,1-.56-.33,1.34,1.34,0,0,1-.2-.21c0,.16,0,.32.05.47a2,2,0,0,0,.13.44.76.76,0,0,0,.64.48.82.82,0,0,0,.38-.06A1.13,1.13,0,0,0,26,85.19l-.07,0a.94.94,0,0,1-.18.12S25.73,85.38,25.71,85.39Z"/><path class="cls-8" d="M26.46,83.84a.78.78,0,0,0-.12.43.92.92,0,0,0,.25-.06C26.54,84.09,26.5,84,26.46,83.84Z"/><path class="cls-10" d="M85.53,21.08a2.56,2.56,0,0,1-1.38-1,4,4,0,0,0-.39-.43c-1.22-1.18-.48-2,0-2.94a2.73,2.73,0,0,0,.19-.52,1.13,1.13,0,0,0,0-.26.89.89,0,0,0-.09-.26c-.26-.47,0-.74.31-1h0c-.13-.08-.26-.22-.39-.23A14.24,14.24,0,0,1,82,14.24a42.33,42.33,0,0,1-5.08-1.14c-.57-.15-1.13-.29-1.69-.38a5.17,5.17,0,0,0-4,.65,5,5,0,0,0-.73.61c-.1.1-.3.09-.45.14a1.37,1.37,0,0,0,.2.26.9.9,0,0,0,.71.23l.27,0a4.57,4.57,0,0,1,.52-.05,1,1,0,0,1,.25,0l.31,0c.7.13,1.37.25,1,1.37a.57.57,0,0,0,0,.25.65.65,0,0,0,.49.48c.7.25,1.39.54,2.08.8a10.9,10.9,0,0,0,2.12.62,17.34,17.34,0,0,1,6.93,3.25.6.6,0,0,1,.21.48,1.09,1.09,0,0,0,0,.18.65.65,0,0,0,.2.05.81.81,0,0,0,.22,0c.46,0,1-.19,1,.65a3.55,3.55,0,0,1,2-1c.24,0,.49-.06.74-.08a1.43,1.43,0,0,1,.42,0,.74.74,0,0,1,.41.28.42.42,0,0,1,0,.15.57.57,0,0,1-.1.35,1.44,1.44,0,0,0-.23.59.54.54,0,0,0,0,.22.88.88,0,0,0,.1.22,1.94,1.94,0,0,0,.29.28l.34.23.09.05c.33.23.67.44,1,.66a23.3,23.3,0,0,1,2,1.33,9.51,9.51,0,0,1,.92.76,30.46,30.46,0,0,0,3.07,2.5c1.07.78,2.14,1.54,3.16,2.38l.29.21a1.38,1.38,0,0,0,.52.19.86.86,0,0,0,.47-.08,1.67,1.67,0,0,0,.62-.58A52.59,52.59,0,0,0,106.06,26c1-1.81,1.84-3.66,2.82-5.46a1.4,1.4,0,0,0,.19-1.28,1.33,1.33,0,0,0-1.19-.53,22.07,22.07,0,0,0-2.3,0h-.29c-.41,0-.47-.25-.4-.55a2.53,2.53,0,0,1,.12-.4c-5.8.75-11.36,2.59-17.08,3.71A5.13,5.13,0,0,1,85.53,21.08Z"/><path class="cls-11" d="M84.15,14.61h0c-.13-.08-.26-.22-.39-.23.13,0,.26.15.39.23Z"/><path class="cls-12" d="M84.15,14.61h0c-.13-.08-.26-.22-.39-.23.13,0,.26.15.39.23Z"/><path class="cls-13" d="M76.94,13.1A42.33,42.33,0,0,0,82,14.24,42.33,42.33,0,0,1,76.94,13.1Z"/><path class="cls-14" d="M76.94,13.1A42.33,42.33,0,0,0,82,14.24,42.33,42.33,0,0,1,76.94,13.1Z"/><path class="cls-15" d="M70.56,14c-.1.1-.3.09-.45.14h0C70.26,14.07,70.46,14.08,70.56,14Z"/><path class="cls-16" d="M70.56,14c-.1.1-.3.09-.45.14h0C70.26,14.07,70.46,14.08,70.56,14Z"/><path class="cls-17" d="M75.25,12.72a5.17,5.17,0,0,0-4,.65A5.17,5.17,0,0,1,75.25,12.72Z"/><path class="cls-18" d="M75.25,12.72a5.17,5.17,0,0,0-4,.65A5.17,5.17,0,0,1,75.25,12.72Z"/><path class="cls-5" d="M102.1,32.05a.86.86,0,0,1-.47.08A.86.86,0,0,0,102.1,32.05Z"/><path class="cls-19" d="M102.1,32.05a.86.86,0,0,1-.47.08A.86.86,0,0,0,102.1,32.05Z"/><path class="cls-5" d="M86.58,22.74a3.55,3.55,0,0,1,2-1,3.55,3.55,0,0,0-2,1Z"/><path class="cls-20" d="M86.58,22.74a3.55,3.55,0,0,1,2-1,3.55,3.55,0,0,0-2,1Z"/><path class="cls-5" d="M93.67,26.09a23.3,23.3,0,0,0-2-1.33A23.3,23.3,0,0,1,93.67,26.09Z"/><path class="cls-21" d="M93.67,26.09a23.3,23.3,0,0,0-2-1.33A23.3,23.3,0,0,1,93.67,26.09Z"/><path class="cls-5" d="M105.58,18.69h0Z"/><path class="cls-22" d="M105.58,18.69h0Z"/><path class="cls-5" d="M90.15,22.16a.57.57,0,0,1-.1.35,1.44,1.44,0,0,0-.23.59,1.44,1.44,0,0,1,.23-.59A.57.57,0,0,0,90.15,22.16Z"/><path class="cls-23" d="M90.15,22.16a.57.57,0,0,1-.1.35,1.44,1.44,0,0,0-.23.59,1.44,1.44,0,0,1,.23-.59A.57.57,0,0,0,90.15,22.16Z"/><path class="cls-5" d="M90.56,24.05l.09.05c.33.23.67.44,1,.66-.34-.22-.68-.43-1-.66Z"/><path class="cls-24" d="M90.56,24.05l.09.05c.33.23.67.44,1,.66-.34-.22-.68-.43-1-.66Z"/><path class="cls-5" d="M89.93,23.54a.88.88,0,0,1-.1-.22A.88.88,0,0,0,89.93,23.54Z"/><path class="cls-25" d="M89.93,23.54a.88.88,0,0,1-.1-.22A.88.88,0,0,0,89.93,23.54Z"/><path class="cls-5" d="M72.37,14.61l-.31,0a1,1,0,0,0-.25,0,1,1,0,0,1,.25,0Z"/><path class="cls-26" d="M72.37,14.61l-.31,0a1,1,0,0,0-.25,0,1,1,0,0,1,.25,0Z"/><path class="cls-5" d="M71.29,14.58l-.27,0Z"/><path class="cls-27" d="M71.29,14.58l-.27,0Z"/><path class="cls-5" d="M73.8,16.71c.7.25,1.39.54,2.08.8-.69-.26-1.38-.55-2.08-.8a.65.65,0,0,1-.49-.48A.65.65,0,0,0,73.8,16.71Z"/><path class="cls-28" d="M73.8,16.71c.7.25,1.39.54,2.08.8-.69-.26-1.38-.55-2.08-.8a.65.65,0,0,1-.49-.48A.65.65,0,0,0,73.8,16.71Z"/><path class="cls-8" d="M83.84,15.63a.89.89,0,0,1,.09.26A.89.89,0,0,0,83.84,15.63Z"/><path class="cls-29" d="M83.84,15.63a.89.89,0,0,1,.09.26A.89.89,0,0,0,83.84,15.63Z"/><path class="cls-8" d="M85.57,22.09a.81.81,0,0,1-.22,0A.81.81,0,0,0,85.57,22.09Z"/><path class="cls-30" d="M85.57,22.09a.81.81,0,0,1-.22,0A.81.81,0,0,0,85.57,22.09Z"/><path class="cls-6" d="M107.13,16c-4.43,0-8.85,0-13.27,0a3.16,3.16,0,0,0-3.39,2.5c-.31.95,0,1.36,1,1.37a12.18,12.18,0,0,0,3.6-.6c3.14-.92,6.39-1.32,9.54-2.19a1.43,1.43,0,0,0,.27-.09l.57-.2a2,2,0,0,1,1.52,0,3.87,3.87,0,0,0,1.47-.27C108.23,15.73,107.59,16,107.13,16Z"/><path class="cls-31" d="M98,109.68l.29-.28v0Z"/><path class="cls-32" d="M77.45,122.65c-1.63-.87-3.26-1.14-4.89-2.07A18.6,18.6,0,0,0,77.45,122.65Z"/><path class="cls-33" d="M61.8,115.31a3.62,3.62,0,0,0,.48.25Z"/><path class="cls-34" d="M70,115a45.93,45.93,0,0,1-9.81-1.06,2.93,2.93,0,0,1,.89.83,5.41,5.41,0,0,0,.72.54l.48.25a3.62,3.62,0,0,1-.48-.25l-.52-.27h0a4.23,4.23,0,0,1-.74-.21,3.82,3.82,0,0,1-1.73-1.2c-1.21-.31-2.4-.67-3.58-1.07a1.27,1.27,0,0,1-.37.36.56.56,0,0,1-.13.07,1.22,1.22,0,0,1-.62.16.88.88,0,0,1-.88-.55,1,1,0,0,1,.32-.58l0-.05-1.07-.42-.21,0h0l-2.1,1c-2.17,1.77-4.85,2.4-7.39,3.29-3.25,1.13-6.72,1.34-10,2.31-.4.12-.91.12-1.1.63a.64.64,0,0,0,.06.24.36.36,0,0,0,.08.12.47.47,0,0,0,.29,0l.25-.08,1.67-.49a25.79,25.79,0,0,1,5.11-1.06l1-.1,1.91-.25a17.35,17.35,0,0,1,1.91-.15,8.57,8.57,0,0,1,2.93.4,38.13,38.13,0,0,0,4.76-.45c2.05-.52,4.05-1.14,6-.59l.31.1A10.46,10.46,0,0,1,64,118.87l2.23,1a1,1,0,0,1-.09-.18.91.91,0,0,1,.88.38c1.82.47,3.7,1.09,4.51,2.31l.79.4a2.29,2.29,0,0,0,.59.17,8.29,8.29,0,0,1,3.86-.07l.88-.1-.2-.11a18.6,18.6,0,0,1-4.89-2.07c1.63.93,3.26,1.2,4.89,2.07q.4.1.81.18s0,0-.05-.08c1.56-.17,3.17-.09,4.79-.23a5.15,5.15,0,0,0,1.18-.73q2.79-2.17,5.46-4.45c.3-.25.59-.52.89-.78.14-.16.29-.31.43-.48,1.36-1.52,2.73-3.07,4.12-4.58a55.16,55.16,0,0,1,8.21-7.53l1.17-1.37c4.9-6.48,9.21-13.4,13.8-20.39.58-1.09,1.17-2.17,1.72-3.28a1.47,1.47,0,0,1-.58-.37.79.79,0,0,0-.32.07l-.33.28,0,0c-.14.13-.29.23-.43.36s-.44.37-.67.54a19,19,0,0,1-3.52,2.2A46,46,0,0,1,70,115Z"/><path class="cls-35" d="M118.26,82.21c-4.59,7-8.9,13.91-13.8,20.39A118.19,118.19,0,0,0,118.26,82.21Z"/><path class="cls-36" d="M118.26,82.21c-4.59,7-8.9,13.91-13.8,20.39A118.19,118.19,0,0,0,118.26,82.21Z"/><path class="cls-5" d="M120,78.82a.84.84,0,0,0-.64-.26,1.47,1.47,0,0,0,.58.37Z"/><path class="cls-37" d="M120,78.82a.84.84,0,0,0-.64-.26,1.47,1.47,0,0,0,.58.37Z"/><path class="cls-5" d="M117.63,79.84c.23-.17.44-.36.67-.54C118.08,79.48,117.86,79.67,117.63,79.84Z"/><path class="cls-38" d="M117.63,79.84c.23-.17.44-.36.67-.54C118.08,79.48,117.86,79.67,117.63,79.84Z"/><path class="cls-5" d="M118.75,78.91l.33-.28A.77.77,0,0,0,118.75,78.91Z"/><path class="cls-39" d="M118.75,78.91l.33-.28A.77.77,0,0,0,118.75,78.91Z"/><path class="cls-8" d="M34,118.66l-1.67.49-.25.08.25-.07Z"/><path class="cls-40" d="M34,118.66l-1.67.49-.25.08.25-.07Z"/><path class="cls-8" d="M31.72,119.1a.36.36,0,0,0,.08.12A.36.36,0,0,1,31.72,119.1Z"/><path class="cls-41" d="M31.72,119.1a.36.36,0,0,0,.08.12A.36.36,0,0,1,31.72,119.1Z"/><path class="cls-8" d="M51.58,117.05a38.13,38.13,0,0,1-4.76.45A11.34,11.34,0,0,0,51.58,117.05Z"/><path class="cls-42" d="M51.58,117.05a38.13,38.13,0,0,1-4.76.45A11.34,11.34,0,0,0,51.58,117.05Z"/><path class="cls-8" d="M57.86,116.56c1.94.6,4,1.42,6.14,2.31A10.46,10.46,0,0,0,57.86,116.56Z"/><path class="cls-43" d="M57.86,116.56c1.94.6,4,1.42,6.14,2.31A10.46,10.46,0,0,0,57.86,116.56Z"/><path class="cls-6" d="M68.85,121.06a.48.48,0,0,1-.14-.32c.3,0,.46.1.51.39a.77.77,0,0,1-.21,0l2.52,1.22c-.81-1.22-2.69-1.84-4.51-2.31a.93.93,0,0,1,.1.2Z"/><path class="cls-44" d="M68.85,121.06a.48.48,0,0,1-.14-.32c.3,0,.46.1.51.39a.77.77,0,0,1-.21,0l2.52,1.22c-.81-1.22-2.69-1.84-4.51-2.31a.93.93,0,0,1,.1.2Z"/><path class="cls-5" d="M76.77,122.86a8.29,8.29,0,0,0-3.86.07A14.49,14.49,0,0,0,76.77,122.86Z"/><path class="cls-45" d="M76.77,122.86a8.29,8.29,0,0,0-3.86.07A14.49,14.49,0,0,0,76.77,122.86Z"/><path class="cls-7" d="M98,109.68l.3-.3a7.91,7.91,0,0,1,1.51-1.55l1-1.11a.9.9,0,0,1,.31-.33c.74-.8,1.47-1.6,2.18-2.42a55.16,55.16,0,0,0-8.21,7.53c-1.39,1.51-2.76,3.06-4.12,4.58-.14.17-.29.32-.43.48,1.46-1.26,2.9-2.55,4.3-3.87C95.89,111.71,96.93,110.7,98,109.68Z"/><path class="cls-46" d="M98,109.68l.3-.3a7.91,7.91,0,0,1,1.51-1.55l1-1.11a.9.9,0,0,1,.31-.33c.74-.8,1.47-1.6,2.18-2.42a55.16,55.16,0,0,0-8.21,7.53c-1.39,1.51-2.76,3.06-4.12,4.58-.14.17-.29.32-.43.48,1.46-1.26,2.9-2.55,4.3-3.87C95.89,111.71,96.93,110.7,98,109.68Z"/><path class="cls-5" d="M98.25,109.38v0l.57-.56-.15.15Z"/><path class="cls-47" d="M98.25,109.38v0l.57-.56-.15.15Z"/><path class="cls-5" d="M98.25,109.38l.41-.39.15-.15c.32-.33.63-.68,1-1A7.91,7.91,0,0,0,98.25,109.38Z"/><path class="cls-48" d="M98.25,109.38l.41-.39.15-.15c.32-.33.63-.68,1-1A7.91,7.91,0,0,0,98.25,109.38Z"/><path class="cls-5" d="M100.8,106.72l.31-.33A.9.9,0,0,0,100.8,106.72Z"/><path class="cls-49" d="M100.8,106.72l.31-.33A.9.9,0,0,0,100.8,106.72Z"/><path class="cls-50" d="M13.28,85c0-.35,0-.78.46-.84a.59.59,0,0,1,.58.35l.11.22a32.72,32.72,0,0,0,1.91,4c1.18,2.17,2.46,4.28,3.42,6.56a4.62,4.62,0,0,1,.14,2.82,1.81,1.81,0,0,1-.09.31,1.59,1.59,0,0,0-.16,1c.46-.23.5-.73.65-1.17a1,1,0,0,1,.48-.64,3,3,0,0,1,.29-1.65c.94-2.35,2.3-4.56,2.63-7.14a3.22,3.22,0,0,1,.2-.69c0-.11.08-.24.12-.36.11-.37.26-.73.69-.69.74.06.31.76.42,1.17s-.11.73.11,1a.62.62,0,0,0,.38.18h0c0,.24,0,.48,0,.72a.49.49,0,0,1-.09.36.35.35,0,0,1-.13.11l-.2,0c-.88,2.54-1.77,5.07-2.65,7.6l-.8,2.3a2.36,2.36,0,0,1-.1.49.72.72,0,0,1-.48.48c0,.18-.07.36-.11.54a2.54,2.54,0,0,1-.48,1.62c-.35,1-.69,1.94-1,2.91a.6.6,0,0,1,0,.27.3.3,0,0,1-.19.21c0,.15,0,.3-.07.45l.06.15.05.16a1.27,1.27,0,0,0,.71-1c0-.13.07-.26.12-.38,1.69-4.58,3.31-9.18,5-13.76.51-1.41.67-1.74,1.3-1.15.22.2.48.5.84.9.77.87,1.63,1.66,2.46,2.48.38.38.65.83.22,1.26a.73.73,0,0,1-.18.14.49.49,0,0,1-.16,0l-.15,0a1,1,0,0,1-.39-.3l-.2-.23a9.93,9.93,0,0,0-.72-.73,6.16,6.16,0,0,0-.8-.63,1,1,0,0,0-.67-.2.49.49,0,0,0-.22.1.45.45,0,0,0-.15.22c-.05.21.15.42.28.61a2,2,0,0,0,.71.8,1.54,1.54,0,0,1,.36.25,1.88,1.88,0,0,1,.45.69,2.77,2.77,0,0,1,.12.41c.08.42.17.84.24,1.26s.13.84.17,1.26a10.73,10.73,0,0,1,0,1.27,7.17,7.17,0,0,1-.18,1.28c-.3,1.24-.6,2.48-.83,3.74a26.28,26.28,0,0,0-.45,3.67.77.77,0,0,1,0,.15,8.63,8.63,0,0,1-.23,1.57c-.11.53-.24,1.07-.33,1.6a8,8,0,0,0-.1.84,2.12,2.12,0,0,0,.12.82,1.28,1.28,0,0,1-.14,1.26,1.23,1.23,0,0,0-.25,1.32.85.85,0,0,1,.07.53c-.09.48-.59.8-.79,1.24l.53.08.94-.32h0a1.43,1.43,0,0,1,1.08-.85,3.24,3.24,0,0,0,.77-.3c.71-.45,1.56-.66,2.3-1,1.15-.62,1.29-1.92,1.36-2.93a39,39,0,0,1,1.77-9.77c.54-1.58-.78-2.09-1.46-3s-1.61-1.74-2.55-2.75a2,2,0,0,1,1.65.47,33.3,33.3,0,0,0,4,2.82,2.35,2.35,0,0,0,1.75.44,1,1,0,0,1,.17,0A46,46,0,0,1,26.59,84.21a.92.92,0,0,1-.25.06.78.78,0,0,1,.12-.43,46,46,0,0,1,2.65-35.9L27.3,49.86c-1.08,1.15-2.09,2.37-3.08,3.6s-2,2.48-3,3.7C20.15,58.78,19.08,60.4,18,62a13.75,13.75,0,0,0-2.25,3.53c-.16.55-.61.52-1,.67s-.67.26-1,.39a4.22,4.22,0,0,1-1,.28h0a1.86,1.86,0,0,0-.48,1.46h0a2.12,2.12,0,0,1,0,1.62,3.69,3.69,0,0,0-.1.84.62.62,0,0,0,.66.63,2,2,0,0,0,.42,0h0c.33,0,.59.1.63.36a.51.51,0,0,1,0,.29c-.21.67-.05,1.4-.28,2-1.33,3.64-.75,7.38-.66,11.1,0,.18.15.35.23.53a.61.61,0,0,0,.16-.16A1.19,1.19,0,0,0,13.28,85ZM26,85.19a1.13,1.13,0,0,1-.59,1.08.82.82,0,0,1-.38.06.76.76,0,0,1-.64-.48,2,2,0,0,1-.13-.44c0-.15,0-.31-.05-.47a1.34,1.34,0,0,0,.2.21,1.43,1.43,0,0,0,.56.33l.08,0h.22a1,1,0,0,0,.41-.12s.05,0,.07,0a.94.94,0,0,0,.18-.12ZM13.21,68.9c-.26-1,.31-1.34,1-1.53s.82.37,1,1a51.15,51.15,0,0,0,2.05,5.5,34.17,34.17,0,0,1,1.22,4A8.76,8.76,0,0,0,19,79.08c.41.9.73,1.85,1.06,2.78a8,8,0,0,1,.25,1,.83.83,0,0,0,0,.27c0,.26,0,.5-.24.55a.43.43,0,0,1-.26,0,.73.73,0,0,1-.27-.38c0-.08-.05-.16-.08-.23-1.18-2.72-2.39-5.42-3.48-8.18-.13-.31-.24-.63-.36-.95-.34-1-.65-1.92-1.06-2.85S13.44,69.79,13.21,68.9Z"/><path class="cls-51" d="M29.11,47.94h0L27.3,49.86c-1.08,1.15-2.09,2.37-3.08,3.6,1-1.23,2-2.45,3.08-3.6Z"/><path class="cls-52" d="M29.11,47.94h0L27.3,49.86c-1.08,1.15-2.09,2.37-3.08,3.6,1-1.23,2-2.45,3.08-3.6Z"/><path class="cls-53" d="M12.64,66.87h0a1.85,1.85,0,0,0-.48,1.45h0A1.86,1.86,0,0,1,12.64,66.87Z"/><path class="cls-54" d="M12.64,66.87h0a1.85,1.85,0,0,0-.48,1.45h0A1.86,1.86,0,0,1,12.64,66.87Z"/><path class="cls-5" d="M13,85.72c-.08-.18-.23-.35-.23-.53C12.79,85.37,12.94,85.54,13,85.72Z"/><path class="cls-55" d="M13,85.72c-.08-.18-.23-.35-.23-.53C12.79,85.37,12.94,85.54,13,85.72Z"/><path class="cls-5" d="M12.71,71.42a2,2,0,0,0,.42,0h0A2,2,0,0,1,12.71,71.42Z"/><path class="cls-56" d="M12.71,71.42a2,2,0,0,0,.42,0h0A2,2,0,0,1,12.71,71.42Z"/><path class="cls-5" d="M14.69,66.2c-.34.11-.67.26-1,.39C14,66.46,14.35,66.31,14.69,66.2Z"/><path class="cls-57" d="M14.69,66.2c-.34.11-.67.26-1,.39C14,66.46,14.35,66.31,14.69,66.2Z"/><path class="cls-8" d="M14.32,84.47l.11.22a32.72,32.72,0,0,0,1.91,4,32.72,32.72,0,0,1-1.91-4Z"/><path class="cls-58" d="M14.32,84.47l.11.22a32.72,32.72,0,0,0,1.91,4,32.72,32.72,0,0,1-1.91-4Z"/><path class="cls-8" d="M19.52,83.23a.73.73,0,0,0,.27.38A.73.73,0,0,1,19.52,83.23Z"/><path class="cls-59" d="M19.52,83.23a.73.73,0,0,0,.27.38A.73.73,0,0,1,19.52,83.23Z"/><path class="cls-8" d="M15.6,73.87c-.34-1-.65-1.92-1.06-2.85C15,72,15.26,72.92,15.6,73.87Z"/><path class="cls-60" d="M15.6,73.87c-.34-1-.65-1.92-1.06-2.85C15,72,15.26,72.92,15.6,73.87Z"/><path class="cls-5" d="M25.61,90.06h0c0-.24,0-.48,0-.72h0c0,.24,0,.48,0,.72Z"/><path class="cls-61" d="M25.61,90.06h0c0-.24,0-.48,0-.72h0c0,.24,0,.48,0,.72Z"/><path class="cls-5" d="M21.74,100.48l.8-2.3-.8,2.3Z"/><path class="cls-62" d="M21.74,100.48l.8-2.3-.8,2.3Z"/><path class="cls-9" d="M20.3,98.18c-.15.44-.19.94-.65,1.17h0C20.11,99.12,20.15,98.62,20.3,98.18Z"/><path class="cls-63" d="M20.3,98.18c-.15.44-.19.94-.65,1.17h0C20.11,99.12,20.15,98.62,20.3,98.18Z"/><path class="cls-9" d="M19.26,107.45h0c0-.15,0-.3.07-.45l-.07.45Z"/><path class="cls-64" d="M19.26,107.45h0c0-.15,0-.3.07-.45l-.07.45Z"/><path class="cls-9" d="M19.54,106.52h0c.34-1,.68-1.94,1-2.91-.35,1-.69,1.94-1,2.91Z"/><path class="cls-65" d="M19.54,106.52h0c.34-1,.68-1.94,1-2.91-.35,1-.69,1.94-1,2.91Z"/><path class="cls-8" d="M25.44,86.27A1.13,1.13,0,0,0,26,85.19l-.07,0,.07,0A1.13,1.13,0,0,1,25.44,86.27Z"/><path class="cls-66" d="M25.44,86.27A1.13,1.13,0,0,0,26,85.19l-.07,0,.07,0A1.13,1.13,0,0,1,25.44,86.27Z"/><path class="cls-8" d="M24.42,85.85a2,2,0,0,1-.13-.44A2,2,0,0,0,24.42,85.85Z"/><path class="cls-67" d="M24.42,85.85a2,2,0,0,1-.13-.44A2,2,0,0,0,24.42,85.85Z"/><path class="cls-8" d="M25.3,85.51h0Z"/><path class="cls-68" d="M25.3,85.51h0Z"/><path class="cls-8" d="M24.44,85.15a1.34,1.34,0,0,1-.2-.21A1.34,1.34,0,0,0,24.44,85.15Z"/><path class="cls-69" d="M24.44,85.15a1.34,1.34,0,0,1-.2-.21A1.34,1.34,0,0,0,24.44,85.15Z"/><path class="cls-8" d="M25.71,85.39s.05,0,.07,0S25.73,85.38,25.71,85.39Z"/><path class="cls-70" d="M25.71,85.39s.05,0,.07,0S25.73,85.38,25.71,85.39Z"/><path class="cls-8" d="M25,85.48l.08,0Z"/><path class="cls-71" d="M25,85.48l.08,0Z"/><path class="cls-8" d="M26.46,83.84a.78.78,0,0,0-.12.43.78.78,0,0,1,.12-.43Z"/><path class="cls-72" d="M26.46,83.84a.78.78,0,0,0-.12.43.78.78,0,0,1,.12-.43Z"/><path class="cls-5" d="M55.13,112.53c-.53-.18-1.05-.37-1.57-.57l0,.05a.57.57,0,0,0-.08.58.63.63,0,0,0,.64.55,1,1,0,0,0,.27-.09.69.69,0,0,0,.35-.07l.13-.07A.88.88,0,0,0,55.13,112.53Z"/><path class="cls-5" d="M53.44,112.59a.57.57,0,0,1,.08-.58,1,1,0,0,0-.32.58.88.88,0,0,0,.88.55A.63.63,0,0,1,53.44,112.59Z"/><path class="cls-5" d="M54.83,112.91l-.13.07A.56.56,0,0,0,54.83,112.91Z"/><path class="cls-8" d="M58.83,113.63a4.12,4.12,0,0,0,1.68,1.19,5,5,0,0,0,.74.21h0c-.06-.1-.14-.17-.2-.27a14.46,14.46,0,0,0-1.14-.89Z"/><path class="cls-8" d="M61.08,114.77a2.93,2.93,0,0,0-.89-.83l-.25-.06A14.46,14.46,0,0,1,61.08,114.77Z"/><path class="cls-8" d="M61.25,115a5,5,0,0,1-.74-.21A4.23,4.23,0,0,0,61.25,115Z"/><path class="cls-8" d="M66.26,119.86h0Z"/><path class="cls-8" d="M67.13,120.27s0,0,0,0l-.86-.39h0A.87.87,0,0,0,67.13,120.27Z"/><path class="cls-8" d="M67,120.05a.91.91,0,0,0-.88-.38,1,1,0,0,0,.09.18h0Z"/><path class="cls-8" d="M67.12,120.25a.93.93,0,0,0-.1-.2l-.76-.19Z"/><path class="cls-8" d="M69,121.14l-.16-.08A.3.3,0,0,0,69,121.14Z"/><path class="cls-8" d="M69.22,121.13c0-.29-.21-.44-.51-.39a.48.48,0,0,0,.14.32l.16.08A.77.77,0,0,0,69.22,121.13Z"/><path class="cls-73" d="M37.92,102a1,1,0,0,0-.17,0,2.35,2.35,0,0,1-1.75-.44,33.3,33.3,0,0,1-4-2.82,2,2,0,0,0-1.65-.47c.94,1,1.82,1.82,2.55,2.75s2,1.37,1.46,3a39,39,0,0,0-1.77,9.77c-.07,1-.21,2.31-1.36,2.93-.74.39-1.59.6-2.3,1a3.24,3.24,0,0,1-.77.3,1.43,1.43,0,0,0-1.08.85,2.18,2.18,0,0,1,1.14-.13.43.43,0,0,1,.3.32,1.66,1.66,0,0,1,0,.78,5,5,0,0,1,1.4-.29l.35-.07a1.72,1.72,0,0,0,.94-.56l.35,0h.12c.19-.51.7-.51,1.1-.63,3.28-1,6.75-1.18,10-2.31,2.54-.89,5.22-1.52,7.39-3.29a3.78,3.78,0,0,1,2.1-1l.16-.08A46,46,0,0,1,37.92,102Z"/><path class="cls-8" d="M31.54,118.87h0Z"/><path class="cls-74" d="M31.54,118.87h0Z"/><path class="cls-8" d="M28.5,119.81a5,5,0,0,1,1.4-.29,5,5,0,0,0-1.4.29Z"/><path class="cls-75" d="M28.5,119.81a5,5,0,0,1,1.4-.29,5,5,0,0,0-1.4.29Z"/><path class="cls-76" d="M52.25,111.59h0l.21,0-.07,0Z"/><path class="cls-77" d="M52.25,111.59h0l.21,0-.07,0Z"/><path class="cls-78" d="M28.14,118a1.43,1.43,0,0,0-1.08.85h0A1.43,1.43,0,0,1,28.14,118Z"/><path class="cls-79" d="M28.14,118a1.43,1.43,0,0,0-1.08.85h0A1.43,1.43,0,0,1,28.14,118Z"/><path class="cls-7" d="M24.16,120.18a.93.93,0,0,1,0-.27l-1,.15c-2,.69-4,1.42-6,2.06-.66.21-1.44.76-2,.24s.11-1.11.25-1.66A111.56,111.56,0,0,1,19,109.39a6.68,6.68,0,0,0,.39-1.63l-.05-.16-.06-.15c-.92.77-.7,2-1.26,3a1.8,1.8,0,0,1-.05.46c-.51,1.64-1.12,3.26-1.68,4.89-.37,1.09-.73,2.18-1,3.29a24.38,24.38,0,0,0-.58,2.85c0,.25-.07.51-.09.76-.05.5-.09,1-.1,1.52h0c.49-.06.93-.36,1.45-.23l6.78-1.74h0c.26-.46.78-.48,1.16-.72s1.1.05,1.26-.64a2.15,2.15,0,0,1-.6-.1A.52.52,0,0,1,24.16,120.18Z"/><path class="cls-7" d="M14.67,121.9a24.38,24.38,0,0,1,.58-2.85A24.38,24.38,0,0,0,14.67,121.9Z"/><path class="cls-7" d="M14.58,122.66c-.05.5-.09,1-.1,1.52h0C14.49,123.66,14.53,123.16,14.58,122.66Z"/><path class="cls-7" d="M15.93,124l6.78-1.74h0Z"/><path class="cls-7" d="M19.32,107.6l-.06-.15h0Z"/><path class="cls-5" d="M28,120.05h0l.5-.24h0a1.66,1.66,0,0,0,0-.78.43.43,0,0,0-.3-.32,2.18,2.18,0,0,0-1.14.13l-.94.32a1.29,1.29,0,0,1-1.5.71l-.42,0h0a.93.93,0,0,0,0,.27.52.52,0,0,0,.37.57,2.15,2.15,0,0,0,.6.1l1.65-.34C27,119.83,27.57,120.13,28,120.05Z"/><path class="cls-5" d="M28.5,119.81l-.5.24h0l.5-.24Z"/><path class="cls-5" d="M24.16,120.18a.93.93,0,0,1,0-.27h0A.93.93,0,0,0,24.16,120.18Z"/><path class="cls-7" d="M28,120.05c-.43.08-1-.22-1.22.46a1.5,1.5,0,0,1,.36,0l.2,0C27.64,120.62,27.91,120.59,28,120.05Z"/><path class="cls-7" d="M27.34,120.58c.3,0,.58,0,.66-.53h0C27.91,120.59,27.64,120.62,27.34,120.58Z"/><path class="cls-5" d="M19.38,100.77a3.6,3.6,0,0,0-.28.4A10.93,10.93,0,0,0,18,104.33,7.29,7.29,0,0,0,19.38,100.77Z"/><path class="cls-5" d="M19.1,101.17A11,11,0,0,0,18,104.34h0A10.93,10.93,0,0,1,19.1,101.17Z"/><path class="cls-8" d="M79.58,123.62a4.43,4.43,0,0,1,2,.93c.56.22,1.11.44,1.67.63,1.22.48.73-1.45.73-1.7l0,0a.87.87,0,0,1,.69-1.16,12.26,12.26,0,0,1-1.67.25,8,8,0,0,1-4.74.31C78.51,123.39,79.05,123.47,79.58,123.62Z"/><path class="cls-8" d="M83.21,125.18c-.56-.19-1.11-.41-1.67-.63,1.14.76,2.18,1.53,2.64.14.12-.35-.1-.82-.2-1.26l0,0C83.94,123.73,84.43,125.66,83.21,125.18Z"/><path class="cls-8" d="M83,122.52c-1.62.14-3.23.06-4.79.23,0,0,0,0,.05.08A8,8,0,0,0,83,122.52Z"/><path class="cls-8" d="M15.32,111.46a1.37,1.37,0,0,0,.13.39,1.37,1.37,0,0,0,.41-1.23A.82.82,0,0,0,15.32,111.46Z"/><path class="cls-8" d="M15.45,111.85h0a1.37,1.37,0,0,1-.13-.39A1.37,1.37,0,0,0,15.45,111.85Z"/><path class="cls-8" d="M16,109.51c.3-.08.47-.25.36-.58a.63.63,0,0,0-.22.07C16,109.09,15.92,109.27,16,109.51Z"/><path class="cls-8" d="M16.13,109c-.17.09-.21.27-.14.51h0C15.92,109.27,16,109.09,16.13,109Z"/><path class="cls-6" d="M19,109.39a111.56,111.56,0,0,0-3.57,11.31c-.14.55-.74,1.23-.25,1.66s1.37,0,2-.24c2-.64,4-1.37,6-2.06.24-.6.74-.65,1.25-.69h.22c.32-.06.7.06.94-.28h0c.2-.44.7-.76.79-1.24a.85.85,0,0,0-.07-.53,1.23,1.23,0,0,1,.25-1.32,1.28,1.28,0,0,0,.14-1.26,2.12,2.12,0,0,1-.12-.82,8,8,0,0,1,.1-.84c.09-.53.22-1.07.33-1.6a8.75,8.75,0,0,0,.23-1.57.77.77,0,0,0,0-.15,26.28,26.28,0,0,1,.45-3.67c.23-1.26.53-2.5.83-3.74a7.17,7.17,0,0,0,.18-1.28,10.73,10.73,0,0,0,0-1.27c0-.42-.1-.84-.17-1.26s-.16-.84-.24-1.26a2.77,2.77,0,0,0-.12-.41,1.88,1.88,0,0,0-.45-.69,1.54,1.54,0,0,0-.36-.25,2,2,0,0,1-.71-.8c-.13-.19-.33-.4-.28-.61a.45.45,0,0,1,.15-.22.49.49,0,0,1,.22-.1,1,1,0,0,1,.67.2,6.16,6.16,0,0,1,.8.63,9.93,9.93,0,0,1,.72.73l.2.23a1,1,0,0,0,.39.3l.15,0a.49.49,0,0,0,.16,0,.73.73,0,0,0,.18-.14c.43-.43.16-.88-.22-1.26C29,94,28.1,93.24,27.33,92.37c-.36-.4-.62-.7-.84-.9-.63-.59-.79-.26-1.3,1.15-1.68,4.58-3.3,9.18-5,13.76-.05.12-.08.25-.12.38a1.27,1.27,0,0,1-.71,1h0A6.68,6.68,0,0,1,19,109.39Z"/><path class="cls-6" d="M29.83,96.25a.49.49,0,0,1-.16,0A.49.49,0,0,0,29.83,96.25Z"/><path class="cls-6" d="M25.59,119.08c.2-.44.7-.76.79-1.24-.09.48-.59.8-.79,1.24Z"/><path class="cls-6" d="M27,111.47a8.63,8.63,0,0,0,.23-1.57.77.77,0,0,0,0-.15.77.77,0,0,1,0,.15A8.75,8.75,0,0,1,27,111.47Z"/><path class="cls-6" d="M27.72,96.17a1.88,1.88,0,0,1,.45.69A1.88,1.88,0,0,0,27.72,96.17Z"/><path class="cls-6" d="M28.21,95a9.93,9.93,0,0,1,.72.73l.2.23-.2-.23A9.93,9.93,0,0,0,28.21,95Z"/><path class="cls-6" d="M20.08,106.76a1.27,1.27,0,0,1-.71,1h0A1.27,1.27,0,0,0,20.08,106.76Z"/><path class="cls-7" d="M24.65,119.36l0,.51a1.29,1.29,0,0,0,1.5-.71l-.53-.08C25.35,119.42,25,119.3,24.65,119.36Z"/><path class="cls-7" d="M20.57,103.61a2.54,2.54,0,0,0,.48-1.62C20.17,102.31,20.48,103,20.57,103.61Z"/><path class="cls-7" d="M21.74,100.48l-.92.26h0c0,.3-.06.61.34.71a.72.72,0,0,0,.48-.48,2.36,2.36,0,0,0,.1-.49Z"/><path class="cls-7" d="M21.74,100.48h0l-.92.26h0Z"/><path class="cls-7" d="M21.74,100.48a2.36,2.36,0,0,1-.1.49,2.36,2.36,0,0,0,.1-.49Z"/><path class="cls-7" d="M25.19,90.58l.2,0a.35.35,0,0,0,.13-.11.49.49,0,0,0,.09-.36C25.27,90.08,25.11,90.24,25.19,90.58Z"/><path class="cls-7" d="M25.52,90.42a.49.49,0,0,0,.09-.36h0A.49.49,0,0,1,25.52,90.42Z"/><path class="cls-7" d="M19.54,106.52c-.33,0-.54.14-.21.48a.3.3,0,0,0,.19-.21A.6.6,0,0,0,19.54,106.52Z"/><path class="cls-7" d="M19.52,106.79a.6.6,0,0,0,0-.27h0A.6.6,0,0,1,19.52,106.79Z"/><path class="cls-7" d="M19.33,107a.3.3,0,0,0,.19-.21A.3.3,0,0,1,19.33,107Z"/><path class="cls-8" d="M24.65,119.36h-.22c-.51,0-1,.09-1.25.69l1-.15.42,0Z"/><path class="cls-8" d="M26.5,83.78s0,0,0,0S26.51,83.77,26.5,83.78Z"/><path class="cls-8" d="M26.59,84.21h0l.11,0Z"/><path class="cls-8" d="M26.63,83.66l.1-.07Z"/><path class="cls-8" d="M26.5,83.78s0,0,0,.06h0S26.48,83.79,26.5,83.78Z"/><path class="cls-8" d="M59.94,113.88l.25.06a3.92,3.92,0,0,0-.51-.22Z"/><path class="cls-80" d="M21,32h0A10,10,0,0,0,11,22h0A10,10,0,0,0,21,12h0A10,10,0,0,0,31,22h0A10,10,0,0,0,21,32Z"/><path class="cls-5" d="M21,18.63A12.28,12.28,0,0,0,24.37,22,12.28,12.28,0,0,0,21,25.37,12.28,12.28,0,0,0,17.63,22,12.28,12.28,0,0,0,21,18.63M21,12A10,10,0,0,1,11,22h0A10,10,0,0,1,21,32,10,10,0,0,1,31,22h0A10,10,0,0,1,21,12Z"/><path class="cls-80" d="M118,135.84h0A18.85,18.85,0,0,0,99.16,117h0A18.85,18.85,0,0,0,118,98.16h0A18.85,18.85,0,0,0,136.84,117h0A18.85,18.85,0,0,0,118,135.84Z"/><path class="cls-5" d="M118,111.06a23.29,23.29,0,0,0,5.94,5.94,23.29,23.29,0,0,0-5.94,5.94,23.29,23.29,0,0,0-5.94-5.94,23.29,23.29,0,0,0,5.94-5.94m0-12.9h0A18.85,18.85,0,0,1,99.16,117h0A18.85,18.85,0,0,1,118,135.84h0A18.85,18.85,0,0,1,136.84,117h0A18.85,18.85,0,0,1,118,98.16Z"/></svg>