<svg id="图层_4" data-name="图层 4" xmlns="http://www.w3.org/2000/svg" xmlns:xlink="http://www.w3.org/1999/xlink" viewBox="0 0 210 210"><defs><style>.cls-1{fill:#fe7193;}.cls-2{fill:url(#未命名的渐变_130);}.cls-3{fill:#ffc0da;}.cls-4{fill:#fe7699;}.cls-5{fill:#fff;}.cls-6{fill:#6bbf8f;}.cls-7{fill:url(#未命名的渐变_57);}.cls-8{fill:#fd7c9e;}.cls-9{fill:url(#未命名的渐变_57-2);}.cls-10{fill:url(#未命名的渐变_57-3);}</style><linearGradient id="未命名的渐变_130" x1="21.3" y1="105" x2="188.7" y2="105" gradientUnits="userSpaceOnUse"><stop offset="0" stop-color="#ffc0da"/><stop offset="1" stop-color="#fff"/></linearGradient><linearGradient id="未命名的渐变_57" x1="153.92" y1="200.67" x2="145.87" y2="192.62" gradientTransform="translate(4.6 1.97) rotate(-0.78)" gradientUnits="userSpaceOnUse"><stop offset="0.39" stop-color="#ffd2e4"/><stop offset="1" stop-color="#fe7699"/></linearGradient><linearGradient id="未命名的渐变_57-2" x1="155.45" y1="198.23" x2="137.59" y2="180.37" xlink:href="#未命名的渐变_57"/><linearGradient id="未命名的渐变_57-3" x1="162.03" y1="199.89" x2="117.86" y2="155.72" xlink:href="#未命名的渐变_57"/></defs><path class="cls-1" d="M105,15a90,90,0,1,1-90,90,90,90,0,0,1,90-90m0,160a70,70,0,1,0-70-70,70,70,0,0,0,70,70m0-162a92,92,0,1,0,92,92,92.1,92.1,0,0,0-92-92Zm0,160a68,68,0,1,1,68-68,68.07,68.07,0,0,1-68,68Z"/><path class="cls-2" d="M105,21.3A83.7,83.7,0,1,0,188.7,105,83.7,83.7,0,0,0,105,21.3Zm0,160.32A76.62,76.62,0,1,1,181.62,105,76.61,76.61,0,0,1,105,181.62Z"/><path class="cls-3" d="M105,21.5A83.5,83.5,0,1,1,21.5,105,83.6,83.6,0,0,1,105,21.5m0,160.32A76.82,76.82,0,1,0,28.18,105,76.91,76.91,0,0,0,105,181.82M105,21.3A83.7,83.7,0,1,0,188.7,105,83.7,83.7,0,0,0,105,21.3Zm0,160.32A76.62,76.62,0,1,1,181.62,105,76.61,76.61,0,0,1,105,181.62Z"/><path class="cls-4" d="M15.68,76.71a8.81,8.81,0,0,0-4.48-5.14c-2-.88-5.4-1.38-6.95.48-.67.8-1.12,2.19-.57,2.85.81,1,3.09-.56,6.28-.38A10.87,10.87,0,0,1,15.68,76.71Z"/><path class="cls-5" d="M7.55,70.78a9.46,9.46,0,0,1,3.65.79,8.81,8.81,0,0,1,4.48,5.14A10.87,10.87,0,0,0,10,74.52H9.44c-2.16,0-3.86.73-4.91.73a1,1,0,0,1-.85-.34c-.55-.66-.1-2.05.57-2.85a4.15,4.15,0,0,1,3.3-1.27m0-2h0a6,6,0,0,0-4.83,2c-1.23,1.48-1.86,3.87-.59,5.42a3,3,0,0,0,2.4,1.06,9.56,9.56,0,0,0,2.05-.32,12.87,12.87,0,0,1,2.86-.41h.41a8.79,8.79,0,0,1,4.65,1.81,2,2,0,0,0,1.18.38,2,2,0,0,0,1.89-2.65A10.79,10.79,0,0,0,12,69.74a11.4,11.4,0,0,0-4.47-1Z"/><path class="cls-4" d="M18,82.05c.25.36-.7,2-2,2.09-1.66.14-2.88-2.32-2.62-2.62s.89.6,2.34.72S17.78,81.78,18,82.05Z"/><path class="cls-5" d="M13.42,81.49a7.64,7.64,0,0,0,2.26.75H16A10.55,10.55,0,0,0,17.79,82a.19.19,0,0,1,.17.08c.25.36-.7,2-2,2.09h-.13c-1.6,0-2.74-2.33-2.49-2.63a.11.11,0,0,1,.08,0m0-2h0a2.07,2.07,0,0,0-1.58.72,2.48,2.48,0,0,0-.18,2.87,4.9,4.9,0,0,0,4.17,3.07h.3a4.6,4.6,0,0,0,3.55-2.6,2.53,2.53,0,0,0-.07-2.62,2.17,2.17,0,0,0-1.82-1,3.55,3.55,0,0,0-.93.15,3,3,0,0,1-.83.13h-.19a2.74,2.74,0,0,1-1.1-.37,2.79,2.79,0,0,0-1.32-.39Z"/><path class="cls-4" d="M3.68,66.39c0,.85,1.78,1.86,3.24,1.43,1.3-.39,2.28-1.91,1.9-2.67s-2-.63-2.95-.38S3.66,65.61,3.68,66.39Z"/><path class="cls-5" d="M7.31,64.57c.67,0,1.3.15,1.51.58.38.76-.6,2.28-1.9,2.67a2.64,2.64,0,0,1-.74.1c-1.25,0-2.49-.82-2.5-1.53S5.09,65,5.87,64.77a5.69,5.69,0,0,1,1.44-.2m0-2a7.79,7.79,0,0,0-2,.27c-1.8.49-3.71,1.69-3.66,3.59.05,2.06,2.41,3.49,4.5,3.49a4.31,4.31,0,0,0,1.3-.19A5,5,0,0,0,10.58,67a3.14,3.14,0,0,0,0-2.71c-.31-.63-1.15-1.69-3.3-1.69Z"/><path class="cls-4" d="M25.39,64.24c0,1,2.11,2.39,3.53,1.9s1.08-2.31,2.66-3,3,.35,3.14,0-1.81-2.57-4-2.39c-.68.06-1.53.61-3.24,1.72C25.48,63.73,25.4,64.05,25.39,64.24Z"/><path class="cls-5" d="M31,60.7c2.08,0,3.92,2,3.72,2.4,0,0-.08.07-.16.07a13.66,13.66,0,0,0-1.85-.31,2.65,2.65,0,0,0-1.13.24c-1.58.73-1.3,2.57-2.66,3a2.08,2.08,0,0,1-.66.11c-1.34,0-2.89-1.13-2.87-2,0-.19.09-.51,2.1-1.81,1.71-1.11,2.56-1.66,3.24-1.72H31m0-2-.44,0c-1.18.1-2.17.75-4.16,2s-3,2.14-3,3.44a3.3,3.3,0,0,0,1.05,2.4,5.61,5.61,0,0,0,3.82,1.66A4,4,0,0,0,29.57,68,4.2,4.2,0,0,0,32,65.63c.24-.5.33-.66.47-.72a.75.75,0,0,1,.29,0,3.61,3.61,0,0,1,.82.14,3.7,3.7,0,0,0,1,.17,2.16,2.16,0,0,0,2-1.22,2.36,2.36,0,0,0-.24-2.36A6.79,6.79,0,0,0,31,58.7Z"/><path class="cls-4" d="M50.82,68a15.72,15.72,0,0,0-5.71-1.24c-1.84,0-3.26-.06-4.48.86s-1,1.63-2.19,2.38c-1.56,1-2.94.38-3.14,1s1.25,2.06,3,2.48a5.38,5.38,0,0,0,5.14-1.62c1-1.07.65-1.78,1.43-2.66S47.22,67.43,50.82,68Z"/><path class="cls-5" d="M44.09,66.7h1A15.72,15.72,0,0,1,50.82,68a14.76,14.76,0,0,0-2.15-.17c-2.14,0-3.24.62-3.85,1.32-.78.88-.48,1.59-1.43,2.66a5.41,5.41,0,0,1-4,1.76,4.55,4.55,0,0,1-1.16-.14c-1.7-.42-3.18-1.84-3-2.48s1.58,0,3.14-1c1.23-.75,1.08-1.54,2.19-2.38a5.34,5.34,0,0,1,3.46-.87m0-2h0A7.27,7.27,0,0,0,39.42,66,5.58,5.58,0,0,0,38,67.64a1.51,1.51,0,0,1-.55.61,2.91,2.91,0,0,1-1.36.34,2.71,2.71,0,0,0-2.63,1.65,2.58,2.58,0,0,0,.23,2.16,6.75,6.75,0,0,0,4.13,2.92,6.82,6.82,0,0,0,1.64.2,7.39,7.39,0,0,0,5.48-2.43,5.69,5.69,0,0,0,1.2-2.16,1.34,1.34,0,0,1,.23-.52,3.32,3.32,0,0,1,2.35-.63,13,13,0,0,1,1.86.15,1.46,1.46,0,0,0,.29,0,2,2,0,0,0,.78-3.84,17.69,17.69,0,0,0-6.45-1.4Z"/><path class="cls-4" d="M52.34,61.57c-.09.55,1.52.77,3.34,2.48,1.35,1.26,1.55,2.16,2.07,2.07.77-.13,1.49-2.26.69-3.69S55.92,61,55.11,60.9C54,60.83,52.43,61,52.34,61.57Z"/><path class="cls-5" d="M54.65,60.89h.46c.81.06,2.57.18,3.33,1.53s.08,3.56-.69,3.69h-.07c-.47,0-.72-.88-2-2.08-1.82-1.71-3.43-1.93-3.34-2.48s1.28-.68,2.31-.68m0-2c-3.38,0-4.13,1.47-4.28,2.35-.28,1.67,1.18,2.47,1.89,2.85a9,9,0,0,1,2.05,1.42,8.67,8.67,0,0,1,1,1.17,2.91,2.91,0,0,0,2.34,1.45,2,2,0,0,0,.42,0,3.05,3.05,0,0,0,2.17-1.84,5.4,5.4,0,0,0-.09-4.8c-1.28-2.29-3.94-2.47-4.93-2.54l-.6,0Z"/><path class="cls-4" d="M120.25,20.62c.27-.83-.59-1.77-1.14-2.19-1.25-.95-3.25-1-3.72-.19-.25.43,0,1,.19,1.52a3,3,0,0,0,1.53,1.72C118.25,22,119.94,21.57,120.25,20.62Z"/><path class="cls-5" d="M116.82,17.68a3.89,3.89,0,0,1,2.29.75c.55.42,1.41,1.36,1.14,2.19a2.09,2.09,0,0,1-2,1.06,2.82,2.82,0,0,1-1.09-.2,3,3,0,0,1-1.53-1.72c-.2-.49-.44-1.09-.19-1.52a1.64,1.64,0,0,1,1.43-.56m0-2a3.5,3.5,0,0,0-3.15,1.54,3.62,3.62,0,0,0,.06,3.3,4.63,4.63,0,0,0,4.47,3.16,4,4,0,0,0,4-2.44c.58-1.78-.62-3.48-1.83-4.4a5.86,5.86,0,0,0-3.5-1.16Z"/><path class="cls-4" d="M147.49,36.62c-.27-.29-2.21,1.06-3.91,2.48-1.87,1.55-3.11,2.58-2.85,3.23.15.39.7.35,3.71.57s3.66.36,4.19-.19a2.1,2.1,0,0,0,.29-2.38c-.59-.89-1.93-.48-2.29-1.23S147.73,36.88,147.49,36.62Z"/><path class="cls-5" d="M147.37,36.58a.16.16,0,0,1,.12,0c.24.26-1.28,1.58-.86,2.48s1.7.34,2.29,1.23a2.1,2.1,0,0,1-.29,2.38,1.49,1.49,0,0,1-1.25.39c-.61,0-1.51-.09-2.94-.2-3-.22-3.56-.18-3.71-.57-.26-.65,1-1.68,2.85-3.23,1.55-1.29,3.29-2.52,3.79-2.52m0-2c-.48,0-1.49,0-5.07,3-2.54,2.11-4.22,3.51-3.44,5.5.59,1.5,1.83,1.58,4.09,1.74l1.34.1.94.07c1,.08,1.61.13,2.15.13a3.5,3.5,0,0,0,2.69-1,4,4,0,0,0,.52-4.86A3.23,3.23,0,0,0,149.11,38a2.23,2.23,0,0,0-.16-2.75,2.1,2.1,0,0,0-1.58-.68Z"/><path class="cls-4" d="M157,43.48c0,.68,4.3,1.1,6.86,1.23,3.17.17,3.81-.11,4.19-.57.85-1-.28-2.23.47-4,.89-2.06,3.27-2.38,3.11-3.1-.2-.88-3.74-.73-4.44-.71-1.9.08-3.29.13-4.76,1.05a6.88,6.88,0,0,0-2.57,2.67c-.49,1-.48,1.64-1.24,2.38S157,43.18,157,43.48Z"/><path class="cls-5" d="M168.36,36.31c1.3,0,3.14.11,3.28.73s-2.22,1-3.11,3.1c-.75,1.77.38,3-.47,4-.3.37-.78.62-2.61.62-.44,0-1,0-1.58,0-2.56-.13-6.86-.55-6.86-1.23,0-.3.79-.24,1.62-1s.75-1.42,1.24-2.38a6.88,6.88,0,0,1,2.57-2.67c1.47-.92,2.86-1,4.76-1.05l1.16,0m0-2c-.56,0-1,0-1.24,0a10.63,10.63,0,0,0-5.74,1.34,8.83,8.83,0,0,0-3.3,3.47,9.2,9.2,0,0,0-.46,1.11c-.18.48-.22.58-.38.73a1.56,1.56,0,0,1-.58.34A2.26,2.26,0,0,0,155,43.48c0,2.18,2.62,2.57,4.18,2.8,1.26.19,3,.35,4.58.43.64,0,1.19,0,1.68,0,1.88,0,3.23-.22,4.15-1.34a4,4,0,0,0,.72-3.25,2.17,2.17,0,0,1,.05-1.24,3.2,3.2,0,0,1,1.45-1.31c.7-.43,2.16-1.31,1.77-3-.52-2.29-3.58-2.29-5.23-2.29Z"/><path class="cls-4" d="M187.87,47.19c.56.73,3.13-1,7.33-2.29,4.89-1.49,7.1-.9,7.81-2.47s-.54-3.77-2.09-4.86c-2.5-1.76-5.65-.31-5.91-.19-1.95.93-1.79,2.18-3.71,2.86-2.13.75-4.1-.15-4.29.38s1.34.86,1.81,2.19C189.5,44.72,187.33,46.5,187.87,47.19Z"/><path class="cls-5" d="M198,36.71a5,5,0,0,1,2.89.86c1.55,1.09,2.77,3.36,2.09,4.86s-2.92,1-7.81,2.47c-3.51,1.08-5.88,2.46-6.89,2.46a.51.51,0,0,1-.44-.17c-.54-.69,1.63-2.47.95-4.38-.47-1.33-2-1.74-1.81-2.19.05-.14.21-.18.47-.18.41,0,1.06.11,1.83.11a6.08,6.08,0,0,0,2-.31c1.92-.68,1.76-1.93,3.71-2.86a7.61,7.61,0,0,1,3-.67m0-2h0a9.53,9.53,0,0,0-3.88.87,7.08,7.08,0,0,0-2.47,2,2.08,2.08,0,0,1-1.05.81,3.78,3.78,0,0,1-1.32.2c-.35,0-.68,0-1-.06s-.55-.05-.82-.05A2.32,2.32,0,0,0,185.13,40a2.56,2.56,0,0,0,1.17,2.9c.27.2.57.43.64.63s-.26,1-.49,1.39c-.41.78-1.18,2.24-.16,3.55a2.48,2.48,0,0,0,2,.94,9.56,9.56,0,0,0,3.36-1,43.85,43.85,0,0,1,4.12-1.53,33,33,0,0,1,4.43-1c1.93-.33,3.75-.64,4.61-2.54,1.15-2.52-.54-5.76-2.76-7.32a6.84,6.84,0,0,0-4-1.23Z"/><path class="cls-4" d="M186.53,28.9c.26-.83-2.38-2.56-4.85-3.42-1.34-.47-5.31-1.87-8.67.19-.37.23-3.32,2.08-2.95,4.28a4.05,4.05,0,0,0,3.33,2.86c2.74.48,3.68-2.23,8.1-3.24C184.44,28.9,186.33,29.58,186.53,28.9Z"/><path class="cls-5" d="M177.11,24.58a13.71,13.71,0,0,1,4.57.9c2.47.86,5.11,2.59,4.85,3.42-.09.32-.54.34-1.28.34h-.43a14.25,14.25,0,0,0-3.33.33c-4.07.93-5.19,3.3-7.47,3.3a3.52,3.52,0,0,1-.63-.06A4.05,4.05,0,0,1,170.06,30c-.37-2.2,2.58-4.05,2.95-4.28a7.73,7.73,0,0,1,4.1-1.09m0-2A9.67,9.67,0,0,0,172,24c-1.06.65-4.45,3-3.88,6.33.41,2.45,2.81,4.12,5,4.49a5.31,5.31,0,0,0,1,.09,7.1,7.1,0,0,0,4-1.55,10.68,10.68,0,0,1,3.86-1.8,12.41,12.41,0,0,1,2.89-.28h.43c.79,0,2.66,0,3.2-1.74,1-3.3-5.38-5.65-6.11-5.91a15.92,15.92,0,0,0-5.23-1Z"/><path class="cls-4" d="M164.06,36.43c.44-.46-.33-2.31-1.72-3.33-2-1.47-4.52-.66-5-.48-1.56.55-3.94,2.09-3.62,3.71a2.68,2.68,0,0,0,2.76,1.91c1.49-.22,1.47-2.21,3.14-2.76C161.57,34.82,163.5,37,164.06,36.43Z"/><path class="cls-5" d="M159.54,32.23a4.63,4.63,0,0,1,2.8.87c1.39,1,2.16,2.87,1.72,3.33a.33.33,0,0,1-.25.1c-.65,0-2-1.18-3.44-1.18a2.47,2.47,0,0,0-.79.13c-1.67.55-1.65,2.54-3.14,2.76l-.27,0a2.7,2.7,0,0,1-2.49-1.93c-.32-1.62,2.06-3.16,3.62-3.71a7,7,0,0,1,2.24-.39m0-2h0a9.3,9.3,0,0,0-2.91.5c-2,.69-5.53,2.84-4.91,6a4.66,4.66,0,0,0,4.45,3.54,5.09,5.09,0,0,0,.56,0,4.18,4.18,0,0,0,2.9-2.15c.29-.45.43-.64.58-.7l.16,0a4,4,0,0,1,1.46.54,4.37,4.37,0,0,0,2,.64,2.35,2.35,0,0,0,1.69-.71,2.59,2.59,0,0,0,.67-2.07,6.57,6.57,0,0,0-2.64-4.27,6.71,6.71,0,0,0-4-1.25Z"/><path class="cls-4" d="M182.34,35.29c0,.52,2.63,1.43,4,.38,1.13-.86.48-2.31,1.62-3.24,1.41-1.15,3.74,0,3.81-.29s-3.88-2.46-5.43-1.14c-.75.64-.29,1.55-1.23,2.67C184,35,182.33,34.87,182.34,35.29Z"/><path class="cls-5" d="M187.74,30.57c1.78,0,4.1,1.32,4,1.57,0,0,0,0-.1,0a15.24,15.24,0,0,0-2-.28,2.62,2.62,0,0,0-1.7.53c-1.14.93-.49,2.38-1.62,3.24a2.69,2.69,0,0,1-1.65.48c-1.17,0-2.33-.52-2.35-.86s1.63-.28,2.77-1.62c.94-1.12.48-2,1.23-2.67a2.13,2.13,0,0,1,1.4-.43m0-2a4,4,0,0,0-2.69.91,3.71,3.71,0,0,0-1.2,2.2,1.28,1.28,0,0,1-.27.7,2.38,2.38,0,0,1-1.2.64c-1.4.43-2.08,1.22-2,2.35.09,2,2.71,2.78,4.34,2.78a4.64,4.64,0,0,0,2.87-.9,4.31,4.31,0,0,0,1.55-2.77,2.58,2.58,0,0,1,.13-.52,1,1,0,0,1,.42-.06,5.6,5.6,0,0,1,1.11.16,4.74,4.74,0,0,0,.9.12,2.06,2.06,0,0,0,2-1.51,2.09,2.09,0,0,0-.37-1.83c-.78-1-3.51-2.27-5.59-2.27Z"/><path class="cls-4" d="M194.73,26.52c-.09.17.75.59,2.09,1.72.92.77,1.18,1.13,1.52,1.05.62-.15.3-1.38,1-2,1.11-.92,2.92.8,4.67-.1.88-.45,1.54-1.47,1.33-2.09-.3-.9-2.4-1-3.81-.77a4.25,4.25,0,0,0-2.09.86c-.79.68-.64,1.22-1.24,1.62C197,27.65,194.86,26.25,194.73,26.52Z"/><path class="cls-5" d="M203,24.21c1.13,0,2.23.25,2.44.89s-.45,1.64-1.33,2.09a2.42,2.42,0,0,1-1.15.27c-1,0-1.9-.45-2.67-.45a1.26,1.26,0,0,0-.85.28c-.75.62-.43,1.85-1,2h-.09c-.31,0-.6-.36-1.43-1.06-1.34-1.13-2.18-1.55-2.09-1.72,0,0,0,0,.08,0a12.27,12.27,0,0,0,2.44.59,1.77,1.77,0,0,0,1-.27c.6-.4.45-.94,1.24-1.62a4.25,4.25,0,0,1,2.09-.86,7.51,7.51,0,0,1,1.37-.12m0-2a9,9,0,0,0-1.75.16l-.08,0a6,6,0,0,0-2.94,1.28,4.89,4.89,0,0,0-1.1,1.39,5.25,5.25,0,0,1-1-.28,3.51,3.51,0,0,0-1.27-.29h0a2.07,2.07,0,0,0-1.88,1.15c-.79,1.6.68,2.67,1.23,3.07.34.25.81.59,1.37,1.06.21.17.38.32.52.45a3.21,3.21,0,0,0,2.2,1.08,2.78,2.78,0,0,0,.57-.07,2.63,2.63,0,0,0,1.9-2.13l.21,0a7.76,7.76,0,0,0,2,.31A4.5,4.5,0,0,0,205,29c1.61-.82,2.91-2.74,2.32-4.51-.28-.84-1.22-2.25-4.34-2.25Z"/><path class="cls-4" d="M153.3,78.05c-2.44-3.65-2.39-5.48-1.81-6.48,1.5-2.61,7.35-.94,8.76-3.9a3.2,3.2,0,0,0-.29-3.15c-1.75-2.31-7.57-.83-11.23,1.34-1.77,1-5.34,3.16-5.24,5.9S147.52,77.53,153.3,78.05Z"/><path class="cls-5" d="M156.81,63.36A3.8,3.8,0,0,1,160,64.52a3.2,3.2,0,0,1,.29,3.15c-1.41,3-7.26,1.29-8.76,3.9-.58,1-.63,2.83,1.81,6.48-5.78-.52-9.71-3.47-9.81-6.29s3.47-4.86,5.24-5.9a17.58,17.58,0,0,1,8.08-2.5m0-2a19.51,19.51,0,0,0-9.1,2.78c-2.07,1.22-6.36,3.76-6.22,7.69.15,4.1,5.14,7.62,11.63,8.21h.18A2,2,0,0,0,155,76.94c-1.81-2.71-1.93-4-1.74-4.37s1.77-.66,2.79-.81c2.16-.33,4.86-.74,6-3.23a5.22,5.22,0,0,0-.49-5.22c-.68-.89-2.06-2-4.75-2Z"/><path class="cls-4" d="M162.92,72.52a11.38,11.38,0,0,0,4.76,2.58c1.16.29,2.36.59,2.95,0,1-1-.08-4.29-1.62-4.67-.81-.2-1.29.51-3.43,1.33A16,16,0,0,1,162.92,72.52Z"/><path class="cls-5" d="M168.74,70.39a1.26,1.26,0,0,1,.27,0c1.54.38,2.62,3.65,1.62,4.67a1.38,1.38,0,0,1-1,.34,8.54,8.54,0,0,1-1.93-.34,11.38,11.38,0,0,1-4.76-2.58,16,16,0,0,0,2.66-.76c1.89-.72,2.48-1.37,3.16-1.37m0-2a4.39,4.39,0,0,0-2.15.7,12.65,12.65,0,0,1-1.72.8,13.74,13.74,0,0,1-2.33.67A2,2,0,0,0,161,72a2,2,0,0,0,.6,2,13.22,13.22,0,0,0,5.6,3,9.89,9.89,0,0,0,2.42.41,3.29,3.29,0,0,0,2.44-.94,4.25,4.25,0,0,0,.73-4.26c-.43-1.53-1.52-3.32-3.29-3.75a3.22,3.22,0,0,0-.75-.1Z"/><path class="cls-4" d="M174,60.05a6.14,6.14,0,0,1,3.53-7.43c2.54-1.22,6.06-1.07,8.19,1,1.11,1.06,2,2.8,1.52,3.43s-2.62.11-5.9-.76a5.81,5.81,0,0,0-3-.38,5.44,5.44,0,0,0-2.66,1.62A7.55,7.55,0,0,0,174,60.05Z"/><path class="cls-5" d="M181,51.85a6.81,6.81,0,0,1,4.7,1.72c1.11,1.06,2,2.8,1.52,3.43a1.11,1.11,0,0,1-.92.3,25.63,25.63,0,0,1-5-1.06,9,9,0,0,0-2.25-.46,3,3,0,0,0-.71.08,5.44,5.44,0,0,0-2.66,1.62A7.55,7.55,0,0,0,174,60.05a6.14,6.14,0,0,1,3.53-7.43,8.21,8.21,0,0,1,3.49-.77m0-2a10.08,10.08,0,0,0-4.36,1A8.14,8.14,0,0,0,172,60.59,2,2,0,0,0,173.85,62H174a2,2,0,0,0,1.86-1.25,5.36,5.36,0,0,1,1.26-1.89,3.69,3.69,0,0,1,1.68-1.1l.29,0a5.81,5.81,0,0,1,1.31.28l.42.11a25.12,25.12,0,0,0,5.5,1.13,3,3,0,0,0,2.5-1.07c1.46-1.89-.23-4.69-1.72-6.11A8.74,8.74,0,0,0,181,49.85Z"/><path class="cls-6" d="M108,72.08c.17.26,2.48,3.62,6.1,3.43,2.51-.13,5.35-2,5.21-3.68s-3-3.22-5-2.67c-1.36.38-1.61,1.61-3.55,2.41A7,7,0,0,1,108,72.08Z"/><path class="cls-5" d="M115.17,69.05c1.83,0,4,1.36,4.1,2.78.14,1.72-2.7,3.55-5.21,3.68h-.3c-3.45,0-5.63-3.19-5.8-3.44h.15a6.88,6.88,0,0,0,2.65-.51c1.94-.8,2.19-2,3.55-2.41a3,3,0,0,1,.86-.11m0-2a4.85,4.85,0,0,0-3.75,1.67,4.15,4.15,0,0,1-1.43,1,4.81,4.81,0,0,1-1.88.36H108a2,2,0,0,0-1.66,3.1c.29.45,3,4.34,7.46,4.34h.4a9,9,0,0,0,6-2.77,4.15,4.15,0,0,0,1.13-3.09c-.23-2.63-3.4-4.6-6.09-4.6Z"/><path class="cls-6" d="M23.65,61a14.44,14.44,0,0,1-2.67,3c-1.21,1-1.95,1.67-2.79,1.52-1.58-.28-2.62-3.13-1.91-3.93.51-.58,1.63.22,3.94.12A9.93,9.93,0,0,0,23.65,61Z"/><path class="cls-5" d="M23.65,61a14.44,14.44,0,0,1-2.67,3c-1.09.94-1.8,1.55-2.55,1.55a1,1,0,0,1-.24,0c-1.58-.28-2.62-3.13-1.91-3.93a.68.68,0,0,1,.56-.21,29.6,29.6,0,0,0,3,.34h.38A9.93,9.93,0,0,0,23.65,61m0-2a2,2,0,0,0-.76.15,8.23,8.23,0,0,1-2.75.62h-.3a9.51,9.51,0,0,1-1.78-.19,6.36,6.36,0,0,0-1.22-.15,2.64,2.64,0,0,0-2.05.88,3.78,3.78,0,0,0-.43,3.84,4.92,4.92,0,0,0,3.47,3.39,3.05,3.05,0,0,0,.6.06c1.49,0,2.54-.9,3.85-2a16.76,16.76,0,0,0,3-3.47A2,2,0,0,0,23.65,59Zm0,4Z"/><path class="cls-6" d="M123.71,27.64A4.1,4.1,0,0,0,129,29.41c2.19-1.28,1.86-5.1.89-5.58-.67-.34-2.12.68-2.92,1.65s-.82,1.63-1.65,2A2.61,2.61,0,0,1,123.71,27.64Z"/><path class="cls-5" d="M129.63,23.76a.6.6,0,0,1,.3.07c1,.48,1.3,4.3-.89,5.58a3.14,3.14,0,0,1-1.61.42,4.45,4.45,0,0,1-3.72-2.19,3.49,3.49,0,0,0,.69.07,2.27,2.27,0,0,0,1-.2c.83-.4.93-1.15,1.65-2a4.5,4.5,0,0,1,2.62-1.72m0-2c-1.71,0-3.42,1.54-4.17,2.45a8.39,8.39,0,0,0-.78,1.16l-.21.34h-.07l-.26,0a2.09,2.09,0,0,0-.43,0,2,2,0,0,0-1.63.83,2,2,0,0,0-.08,2.21,6.47,6.47,0,0,0,5.43,3.15,5.2,5.2,0,0,0,2.62-.69,5.94,5.94,0,0,0,2.63-5.38c0-.86-.27-2.93-1.86-3.72a2.54,2.54,0,0,0-1.19-.28Z"/><path class="cls-6" d="M149.61,20.52a12.66,12.66,0,0,1,3.81,3.31c1,1.29,1.1,2,1.78,2.15,2.15.58,6.22-4.89,5.21-6.34-.26-.38-.82-.43-6.1.25C152.35,20.14,150.73,20.37,149.61,20.52Z"/><path class="cls-5" d="M159.47,19.36c.64,0,.82.1.94.28,1,1.38-2.67,6.39-4.88,6.39a1.26,1.26,0,0,1-.33-.05c-.68-.18-.79-.86-1.78-2.15a12.66,12.66,0,0,0-3.81-3.31c1.12-.15,2.74-.38,4.7-.63,2.9-.37,4.38-.53,5.16-.53m0-2a49.3,49.3,0,0,0-5.41.55c-2,.25-3.6.47-4.73.63a2,2,0,0,0-.71,3.72A10.73,10.73,0,0,1,151.84,25a11.22,11.22,0,0,1,.68,1,3.62,3.62,0,0,0,2.16,1.87,3.48,3.48,0,0,0,.85.11c2.63,0,5.18-3,6.24-5.08,1.2-2.28.82-3.68.28-4.45a2.9,2.9,0,0,0-2.58-1.14Z"/><path class="cls-6" d="M174.25,36.4c-1.59.63-2,3.74-1.4,6a7.24,7.24,0,0,0,2.29,3.55c-.45-1.27-.74-2.78,0-3.81,1.56-2.18,6.59-.65,6.86-1.65.17-.67-2-1.79-3.94-2.79S175,36.1,174.25,36.4Z"/><path class="cls-5" d="M174.7,36.31c.71,0,1.71.51,3.36,1.36,2,1,4.11,2.12,3.94,2.79-.1.34-.74.39-1.61.39h-1.08c-1.55,0-3.35.12-4.17,1.27s-.45,2.54,0,3.81a7.24,7.24,0,0,1-2.29-3.55c-.6-2.23-.19-5.34,1.4-6a1.13,1.13,0,0,1,.45-.09m0-2a3.24,3.24,0,0,0-1.2.23c-3,1.19-3.3,5.69-2.58,8.35a9.31,9.31,0,0,0,2.9,4.54,2,2,0,0,0,1.32.49,1.93,1.93,0,0,0,1.12-.35,2,2,0,0,0,.76-2.32c-.44-1.23-.36-1.83-.26-2s.53-.43,2.55-.43h1.08c1,0,3,0,3.54-1.88.59-2.23-1.74-3.42-5-5.08-1.84-1-3.05-1.58-4.27-1.58Z"/><path class="cls-6" d="M64.79,176.59c-1.15-1-4-1.09-9.52-1.15-6.07-.05-6.92.34-13.34.26-2.53,0-3.69-.11-6.09,0-3.94.18-5.91.27-7.75.89-.61.2-7.29,2.55-8.76,8.12a15.44,15.44,0,0,0-.13,5.46c.22,2.49.33,3.73,1.14,5a8.16,8.16,0,0,0,6.73,3.17c2.78,0,3.23-1.45,6.1-1.78s4.35,1,7.49,1.91c5.86,1.7,11.24,0,13.08-.64,2.77-.89,8.17-2.63,11.05-7.87C67.05,185.81,67.85,179.37,64.79,176.59ZM33.11,188.21c-1.09.52-3.23,1.55-3.75,3.49-.39,1.44.28,2.82-.25,3.05a.77.77,0,0,1-.77-.26c-.89-1,.64-5.05,3.62-6.6a6.89,6.89,0,0,1,4.32-.57A9.45,9.45,0,0,0,33.11,188.21Zm7.74-4.13c-.17.09-1.32-3.81-4.12-4.51-.92-.22-2.11-.13-2.73-1-.19-.26-.43-.75-.26-1,.42-.5,3.35.77,5.27,3A6.9,6.9,0,0,1,40.85,184.08Zm.8,2c-.27,0-.58-.24-.57-.4s.31-.15.86-.48c.35-.21.48-.36.64-.31a.43.43,0,0,1,.26.41C42.85,185.7,42.21,186.16,41.65,186.07ZM50.06,195c-.19.19-.53.39-.7.29s.23-1.24.25-2.39a6,6,0,0,0-1.81-3.84,9.67,9.67,0,0,0-3.9-2.82,8.73,8.73,0,0,1,5,3.3C50.07,191.2,51,194,50.06,195ZM62,179.38c-1.1.63-3,.12-4.54.16a19.44,19.44,0,0,0-3,.7c-1.09.29-2,.56-5.17,1.62l-3.18,1c2-.82,3.6-1.47,4.83-1.93,0,0,5.78-2.18,10.19-2.16.3,0,1.13,0,1.17.22S62.06,179.33,62,179.38Z"/><path class="cls-5" d="M54.08,175.44h1.19c5.56.06,8.37.11,9.52,1.15,3.06,2.78,2.26,9.22,0,13.33-2.88,5.24-8.28,7-11.05,7.87a25.11,25.11,0,0,1-7.83,1.36,18.82,18.82,0,0,1-5.25-.72c-2.79-.81-4.18-2-6.56-2-.29,0-.6,0-.93.05-2.87.33-3.32,1.76-6.1,1.78H27a8.14,8.14,0,0,1-6.66-3.17c-.81-1.23-.92-2.47-1.14-5a15.44,15.44,0,0,1,.13-5.46c1.47-5.57,8.15-7.92,8.76-8.12,1.84-.62,3.81-.71,7.75-.89.92,0,1.66-.06,2.37-.06,1.12,0,2.16,0,3.72.06h1.68c4.57,0,6-.27,10.47-.27m-13.23,8.64h0A6.9,6.9,0,0,0,39,180.59c-1.64-1.89-4-3.09-4.93-3.09a.45.45,0,0,0-.34.1c-.17.21.07.7.26,1,.62.88,1.81.79,2.73,1,2.77.69,3.93,4.51,4.12,4.51m5.27-1.18,3.18-1c3.21-1.06,4.08-1.33,5.17-1.62a19.44,19.44,0,0,1,3-.7h.17c.93,0,1.93.16,2.81.16a3.05,3.05,0,0,0,1.56-.32c.1,0,.38-.21.35-.35s-.87-.22-1.17-.22h0C56.69,178.81,51,181,51,181c-1.23.46-2.88,1.11-4.83,1.93m-4.32,3.18c.51,0,1.05-.41,1-.79a.43.43,0,0,0-.26-.41h-.06c-.14,0-.27.14-.58.32-.55.33-.85.32-.86.48s.3.36.57.4h.15m7.67,9.23a1,1,0,0,0,.59-.31c1-1,0-3.8-1.14-5.46a8.73,8.73,0,0,0-5-3.3,9.67,9.67,0,0,1,3.9,2.82,6,6,0,0,1,1.81,3.84c0,1.15-.57,2.2-.25,2.39a.2.2,0,0,0,.11,0m-20.54-.53a.57.57,0,0,0,.18,0c.53-.23-.14-1.61.25-3.05.52-1.94,2.66-3,3.75-3.49a9.45,9.45,0,0,1,3.17-.89,8.06,8.06,0,0,0-1.36-.12,6.38,6.38,0,0,0-3,.69c-3,1.55-4.51,5.58-3.62,6.6a.88.88,0,0,0,.59.29m25.15-21.34c-2.29,0-3.82.07-5.29.14s-2.93.13-5.18.13H42l-1.71,0-2,0c-.81,0-1.59,0-2.46.06-4.12.19-6.19.28-8.3,1-.84.29-8.33,3-10.06,9.51a17.34,17.34,0,0,0-.18,6.15c.23,2.64.37,4.23,1.47,5.88,2,3,5.72,4.07,8.32,4.07h.09a8.53,8.53,0,0,0,4-1,6.29,6.29,0,0,1,2.3-.75,5.69,5.69,0,0,1,.7,0,7.81,7.81,0,0,1,3.15.84,25.66,25.66,0,0,0,2.86,1,20.94,20.94,0,0,0,5.8.8,27.27,27.27,0,0,0,8.45-1.45c2.89-.94,8.92-2.88,12.18-8.82,2.78-5,3.39-12.33-.41-15.77-1.73-1.58-4.78-1.61-10.85-1.67Z"/><path class="cls-7" d="M162.83,193.89l-2.34.8-.6-1.75a3.53,3.53,0,0,0-4.43-2.29h0a3.53,3.53,0,0,0-2.11,4.51h0l.6,1.76-2.34.8A1,1,0,0,0,151,199a3.77,3.77,0,0,0,4.75,2.44l6.08-2.07a3.78,3.78,0,0,0,2.26-4.84,1,1,0,0,0-1.23-.64Z"/><path class="cls-5" d="M156.54,190.48a3.58,3.58,0,0,1,3.35,2.46l.6,1.75,2.34-.8,0,0a1,1,0,0,1,.3-.05,1,1,0,0,1,.93.69,3.78,3.78,0,0,1-2.26,4.84l-6.08,2.07a3.33,3.33,0,0,1-1.16.2A3.84,3.84,0,0,1,151,199a1,1,0,0,1,.59-1.25l2.34-.8-.6-1.76a3.53,3.53,0,0,1,2.11-4.51h0a3.38,3.38,0,0,1,1.08-.17m0-2h0a5.26,5.26,0,0,0-1.72.28,5.52,5.52,0,0,0-3.41,6.92l-.46.16a3,3,0,0,0-1.83,3.79,5.83,5.83,0,0,0,5.48,4,5.54,5.54,0,0,0,1.81-.3l6.08-2.08a5.8,5.8,0,0,0,3.51-7.38,3,3,0,0,0-3.77-1.88l0,0h0l-.42.14a5.56,5.56,0,0,0-5.19-3.67Z"/><ellipse class="cls-8" cx="101.77" cy="197.92" rx="3.16" ry="3.28" transform="translate(-58.57 43.58) rotate(-18.88)"/><path class="cls-5" d="M101.69,194.65a3.32,3.32,0,0,1,1.61,6.17,3.06,3.06,0,0,1-1.45.37A3.25,3.25,0,0,1,99,199.43a3.28,3.28,0,0,1,1.25-4.41,3,3,0,0,1,1.45-.37m0-2h0a5.06,5.06,0,0,0-2.4.61,5.28,5.28,0,0,0-2.07,7.1,5.23,5.23,0,0,0,4.63,2.83,5.06,5.06,0,0,0,2.4-.61,5.31,5.31,0,0,0-2.56-9.93Z"/><ellipse class="cls-8" cx="106.55" cy="174.73" rx="3.16" ry="3.28" transform="translate(-50.81 43.88) rotate(-18.88)"/><path class="cls-5" d="M106.47,171.46a3.27,3.27,0,0,1,3.07,2.25,3.24,3.24,0,0,1-1.93,4.13,3.11,3.11,0,0,1-1,.16,3.27,3.27,0,0,1-3.06-2.25,3.21,3.21,0,0,1,1.93-4.12,2.81,2.81,0,0,1,1-.17m0-2h0a5.06,5.06,0,0,0-4.6,2.95,5.35,5.35,0,0,0,4.75,7.59,5,5,0,0,0,4.6-2.95,5.34,5.34,0,0,0-4.75-7.59Z"/><ellipse class="cls-8" cx="118.17" cy="154.72" rx="3.16" ry="3.28" transform="translate(-43.71 46.57) rotate(-18.88)"/><path class="cls-5" d="M118.1,151.45a3.28,3.28,0,0,1,3.06,2.25,3.24,3.24,0,0,1-1.93,4.13,3.11,3.11,0,0,1-1,.16,3.27,3.27,0,0,1-3.06-2.25,3.21,3.21,0,0,1,1.93-4.12,3.08,3.08,0,0,1,1-.17m0-2h0a5.09,5.09,0,0,0-1.64.28A5.3,5.3,0,0,0,118.24,160a5.08,5.08,0,0,0,1.64-.27,5.3,5.3,0,0,0-1.78-10.27Z"/><ellipse class="cls-8" cx="138.07" cy="139.96" rx="3.16" ry="3.28" transform="translate(-37.86 52.21) rotate(-18.88)"/><path class="cls-5" d="M138,136.7a3.27,3.27,0,0,1,3.06,2.24,3.22,3.22,0,0,1-1.92,4.13,3.11,3.11,0,0,1-1,.16,3.27,3.27,0,0,1-3.06-2.24,3.22,3.22,0,0,1,1.92-4.13,3.11,3.11,0,0,1,1-.16m0-2h0a5.06,5.06,0,0,0-4.6,3,5.32,5.32,0,0,0-.21,4,5.26,5.26,0,0,0,5,3.6,5,5,0,0,0,1.63-.27,5,5,0,0,0,3-2.68A5.33,5.33,0,0,0,138,134.7Z"/><path class="cls-9" d="M172.61,182.32a1,1,0,0,0-1.48.11l-5.72,7-1.3-1.37,4.59-6.89a1.13,1.13,0,0,0-.27-1.53l-.06,0-.82-.52a1,1,0,0,0-1.47.35v0l-4,7.34-1.82-.87,2.94-7.58a1.13,1.13,0,0,0-.6-1.44h0l-.52-.23a1,1,0,0,0-1.38.59h0L157.71,185l-1.32-.31,1.54-7.52a1.12,1.12,0,0,0-.83-1.32l-.07,0-.61-.1a1,1,0,0,0-1.2.91v0l-.93,7.66-2.25-7a1.07,1.07,0,0,0-1.34-.73h0a1.09,1.09,0,0,0-.63,1.39h0l2.51,6.89-5.43-5.49a1.06,1.06,0,0,0-1.52,0h0l-.43.46a1.13,1.13,0,0,0,.06,1.56l0,0,5.76,5-.83,1.05-7-4.31a1,1,0,0,0-1.46.38h0l-.27.49a1.14,1.14,0,0,0,.41,1.51h0l7,4.2-.9,1.8-7.7-3.33a1,1,0,0,0-1.39.59v0l-.33.92a1.12,1.12,0,0,0,.62,1.42l.07,0,7.86,2.65-.16,1.87-8.84-2.07a1,1,0,0,0-1.24.82l-.56,2.65a1.12,1.12,0,0,0,.84,1.31,1.27,1.27,0,0,0,.28,0l12.71-.45a.48.48,0,0,0,.42-.55s0-.05,0-.07a6.25,6.25,0,0,1,3.74-8l1.49-.51a6.26,6.26,0,0,1,7.86,4,.46.46,0,0,0,.57.31.35.35,0,0,0,.12-.07l10.33-7.42a1.12,1.12,0,0,0,.24-1.54,1,1,0,0,0-.19-.21Z"/><path class="cls-5" d="M156.25,175.74h.17l.61.1.07,0a1.12,1.12,0,0,1,.83,1.32l-1.54,7.52,1.32.31,2.94-7.71h0a1,1,0,0,1,1-.67,1,1,0,0,1,.41.08l.52.23h0a1.13,1.13,0,0,1,.6,1.44L160.21,186l1.82.87,4-7.34v0a1,1,0,0,1,.9-.52,1.11,1.11,0,0,1,.57.17l.82.52.06,0a1.13,1.13,0,0,1,.27,1.53l-4.59,6.89,1.3,1.37,5.72-7a1,1,0,0,1,.79-.37,1.08,1.08,0,0,1,.69.26l2,1.76a1,1,0,0,1,.19.21,1.12,1.12,0,0,1-.24,1.54l-10.33,7.42a.35.35,0,0,1-.12.07l-.13,0a.46.46,0,0,1-.44-.33,6.36,6.36,0,0,0-6-4.36,5.8,5.8,0,0,0-1.91.32l-1.49.51a6.25,6.25,0,0,0-3.74,8s0,0,0,.07a.48.48,0,0,1-.42.55l-12.71.45h0a.85.85,0,0,1-.23,0,1.12,1.12,0,0,1-.84-1.31l.56-2.65a1,1,0,0,1,1-.85.91.91,0,0,1,.23,0l8.84,2.07.16-1.87-7.86-2.65-.07,0a1.12,1.12,0,0,1-.62-1.42l.33-.92v0a1.06,1.06,0,0,1,1.39-.59l7.7,3.33.9-1.8-7-4.2h0a1.14,1.14,0,0,1-.41-1.51l.27-.49h0a1,1,0,0,1,.91-.54,1,1,0,0,1,.55.16l7,4.31.83-1.05-5.76-5,0,0a1.13,1.13,0,0,1-.06-1.56l.43-.46h0a1,1,0,0,1,.74-.32,1.1,1.1,0,0,1,.78.33l5.43,5.49-2.51-6.89h0a1.09,1.09,0,0,1,.63-1.39h0a1.18,1.18,0,0,1,.31-.05,1.08,1.08,0,0,1,1,.78l2.25,7,.93-7.66v0a1,1,0,0,1,1-.92m0-2h0a3.07,3.07,0,0,0-2.86,2A3.07,3.07,0,0,0,151,174.6a3.14,3.14,0,0,0-.91.14h0l-.05,0a3,3,0,0,0-2,2.82,3.16,3.16,0,0,0-1.64-.47,3,3,0,0,0-2.18.92v0l0,0-.43.46a3.13,3.13,0,0,0-.78,2.59h-.3a3,3,0,0,0-2.65,1.56l-.28.52a3.1,3.1,0,0,0,0,3.05A3,3,0,0,0,137,188.2v.06l-.33.92a3.09,3.09,0,0,0,.26,2.69,3.07,3.07,0,0,0-2,2.29l-.56,2.65a3.15,3.15,0,0,0,2.35,3.67,3.08,3.08,0,0,0,.68.08h.14l12.7-.45h.14a2.43,2.43,0,0,0,1.67-.92,2.52,2.52,0,0,0,.52-1.86c0-.11,0-.23-.07-.34l0-.07,0-.06a4.26,4.26,0,0,1,2.5-5.47l1.48-.51a3.93,3.93,0,0,1,1.27-.21,4.33,4.33,0,0,1,4.05,3,2.47,2.47,0,0,0,3.1,1.56,2.38,2.38,0,0,0,.67-.35l10.32-7.42a3.14,3.14,0,0,0,.71-4.3,3.06,3.06,0,0,0-.51-.57l-2.06-1.78a3.11,3.11,0,0,0-2-.74,3.16,3.16,0,0,0-1.06.19,3.15,3.15,0,0,0-1.26-2.18l-.16-.11-.82-.52A3.1,3.1,0,0,0,167,177a3,3,0,0,0-1.78.58,3.12,3.12,0,0,0-1.85-2.43l-.52-.22a3.07,3.07,0,0,0-3.28.55,3.12,3.12,0,0,0-2-1.52l-.2,0-.62-.1a2.7,2.7,0,0,0-.49,0Z"/><path class="cls-10" d="M198,167.36l-9.81-5.56a4.78,4.78,0,0,1-1.93-2.05l-3.07-6.21A4.66,4.66,0,0,0,179,150.9l-7.33,0a4.57,4.57,0,0,1-2.88-1l-5.16-4.12a4.48,4.48,0,0,0-4.27-.77L153,147.21a4.36,4.36,0,0,1-2.58.09l-6.06-1.66a7.39,7.39,0,0,0-7.84,2.68l-3.81,5a4.39,4.39,0,0,1-2.09,1.52l-6.37,2.18a4.49,4.49,0,0,0-2.9,3.22l-1.54,6.41a4.54,4.54,0,0,1-1.66,2.56l-5.82,4.46a4.67,4.67,0,0,0-1.68,4.65l1.37,6.79a4.77,4.77,0,0,1-.26,2.8l-4.33,10.4a1.56,1.56,0,0,0,.8,2,1.41,1.41,0,0,0,.64.13l24.77-.9h0a33.17,33.17,0,0,1,6.15-17.84,22.21,22.21,0,0,1,9.07-7.26l.86-.37h0l.91-.23a22.25,22.25,0,0,1,11.62.18,33.08,33.08,0,0,1,15.78,10.34h0L198.19,170a1.55,1.55,0,0,0,.34-2.13A1.64,1.64,0,0,0,198,167.36Zm-80.22,20a.75.75,0,0,1-.49-1.42.75.75,0,0,1,.49,1.42Zm9.89-.92a1.24,1.24,0,0,1-1.55-.79,1.21,1.21,0,1,1,1.55.79h0Zm-2.87-11.69a1,1,0,1,1,.58-1.25,1,1,0,0,1-.58,1.25h0Zm43.81-7.51a3.62,3.62,0,0,1-2.41,1.88l-.45.15a7.28,7.28,0,0,1-2.78.33,1,1,0,0,1-.93-1.06,1,1,0,0,1,1-.92,5.69,5.69,0,0,0,2.09-.25c.67-.23,1.53-.5,1.72-.91.26-.62-.58-2.29-1.92-2.93a3.1,3.1,0,0,0-1.7-.21,4.71,4.71,0,0,1-.92,0,5.63,5.63,0,0,1-2,2.89,4.84,4.84,0,0,1-4.3.51,3.86,3.86,0,0,1-2.36,2.51,3.59,3.59,0,0,1-.47.12,4,4,0,0,1-3.4-1.16,1,1,0,0,1,0-1.4,1,1,0,0,1,1.37,0,2.08,2.08,0,0,0,1.68.61,2,2,0,0,0,1.5-1.91,5.3,5.3,0,0,1-1.21-3.28,4.92,4.92,0,0,1,.72-2.52,2.3,2.3,0,0,0,.24-.5s-.39-.79-4.34-1.07c0,0-.07,0-.11,0a6.26,6.26,0,0,1-1.43,1.24,5.49,5.49,0,0,1-1.09.53,2.92,2.92,0,0,1-1.47.14,2.88,2.88,0,0,1-1.26.79,5.16,5.16,0,0,1-1.18.25,6.61,6.61,0,0,1-1.88-.1s-.05.05-.08.08c-3,2.64-2.78,3.5-2.78,3.5a2.6,2.6,0,0,0,.5.25,4.91,4.91,0,0,1,2.11,1.55,5.35,5.35,0,0,1,1.06,3.34,2,2,0,0,0,2.35.58,2.06,2.06,0,0,0,1-1.5,1,1,0,0,1,1.08-.84,1,1,0,0,1,.84,1.14h0a4,4,0,0,1-2,3,3.57,3.57,0,0,1-.45.19,3.84,3.84,0,0,1-3.4-.54,4.87,4.87,0,0,1-3.78,2.24,5.68,5.68,0,0,1-3.37-1,6.72,6.72,0,0,1-.73.56,3.15,3.15,0,0,0-1.22,1.21c-.67,1.32-.31,3.14.28,3.48.38.23,1.23-.08,1.92-.33a5.61,5.61,0,0,0,1.8-1.08.94.94,0,0,1,1.36.12,1,1,0,0,1-.08,1.4,7.25,7.25,0,0,1-2.4,1.44l-.45.15a3.51,3.51,0,0,1-3.05,0c-1.8-1.05-2.06-4.22-1.09-6.16a4.93,4.93,0,0,1,1.84-1.92l.24-.17a11.89,11.89,0,0,1-2.15-2.78,1.28,1.28,0,0,1,0-1.45,1,1,0,0,1,1-.32,5.42,5.42,0,0,1,3.14,3.15l0,.08a3.47,3.47,0,0,1,.19.72,4.1,4.1,0,0,0,2.53,1,2.88,2.88,0,0,0,2.47-1.87,2.91,2.91,0,0,0-1.9-3.46,2.5,2.5,0,0,1-1.54-1.33c-.56-1.32.26-2.95,2.64-5.2a2.78,2.78,0,0,1-1-1.57,3.84,3.84,0,0,1,1.82-3.86,1,1,0,0,1,1.35.29,1,1,0,0,1-.24,1.38,2,2,0,0,0-1,1.78c.17.74,1.76,1.08,2.75,1a2.18,2.18,0,0,0,1.19-.38l-.06-.18a1,1,0,0,1,.6-1.23l.07,0a1,1,0,0,1,1.22.6l.07.19a2.19,2.19,0,0,0,1.17-.44c.84-.52,1.9-1.76,1.58-2.45a2,2,0,0,0-1.92-.77,1,1,0,0,1-1-1,1,1,0,0,1,.84-1,3.82,3.82,0,0,1,3.8,1.93,2.78,2.78,0,0,1,.17,1.86c3.26.32,4.91,1.1,5.28,2.49a2.57,2.57,0,0,1-.41,2,2.89,2.89,0,0,0,.63,3.9,2.87,2.87,0,0,0,3.1,0,4.07,4.07,0,0,0,1.41-2.31,2.73,2.73,0,0,1-.29-.68l0-.08a5.43,5.43,0,0,1,.55-4.42,1,1,0,0,1,1-.37,1.28,1.28,0,0,1,.9,1.14,11.54,11.54,0,0,1,0,3.52l.3,0a4.92,4.92,0,0,1,2.64.4c2,.92,3.73,3.61,3,5.54Zm1.19-8.94a1,1,0,1,1,1.24.64,1,1,0,0,1-1.24-.64h0Zm6.12,11.63a1.22,1.22,0,0,1-1.54-.79,1.2,1.2,0,1,1,2.27-.78,1.21,1.21,0,0,1-.73,1.57h0Zm8.39-5.32a.75.75,0,1,1,.44-1,.75.75,0,0,1-.44,1h0Z"/><path class="cls-5" d="M160.81,144.8a4.59,4.59,0,0,1,2.85,1l5.16,4.12a4.57,4.57,0,0,0,2.84,1h0l7.33,0h0a4.66,4.66,0,0,1,4.16,2.64l3.07,6.21a4.78,4.78,0,0,0,1.93,2.05l9.81,5.56a1.64,1.64,0,0,1,.51.47,1.55,1.55,0,0,1-.34,2.13L178.05,184.4a33.08,33.08,0,0,0-15.78-10.34,22.28,22.28,0,0,0-6.15-.87,22,22,0,0,0-5.47.69l-.91.23-.86.37a22.21,22.21,0,0,0-9.07,7.26,33.17,33.17,0,0,0-6.15,17.84l-24.77.9h0a1.38,1.38,0,0,1-.6-.13,1.56,1.56,0,0,1-.8-2l4.33-10.4a4.77,4.77,0,0,0,.26-2.8l-1.37-6.79a4.67,4.67,0,0,1,1.68-4.65l5.82-4.46a4.54,4.54,0,0,0,1.66-2.56l1.54-6.41a4.49,4.49,0,0,1,2.9-3.22l6.37-2.18a4.39,4.39,0,0,0,2.09-1.52l3.81-5a7.39,7.39,0,0,1,5.89-2.94,7.69,7.69,0,0,1,1.95.26l6.06,1.66a4.56,4.56,0,0,0,1.16.15,4.32,4.32,0,0,0,1.42-.24l6.37-2.17a4.41,4.41,0,0,1,1.42-.24m-14.06,9.57H147a1.89,1.89,0,0,1,1.73.77c.32.69-.74,1.93-1.58,2.45A2.19,2.19,0,0,1,146,158l-.07-.19a1,1,0,0,0-.92-.65.79.79,0,0,0-.3.05l-.07,0a1,1,0,0,0-.6,1.23l.06.18a2.18,2.18,0,0,1-1.19.38l-.38,0c-1,0-2.22-.34-2.37-1a2,2,0,0,1,1-1.78,1,1,0,0,0,.24-1.38,1,1,0,0,0-1.35-.29,3.84,3.84,0,0,0-1.82,3.86,2.78,2.78,0,0,0,1,1.57c-2.38,2.25-3.2,3.88-2.64,5.2a2.5,2.5,0,0,0,1.54,1.33,2.91,2.91,0,0,1,1.9,3.46,2.88,2.88,0,0,1-2.47,1.87,4.1,4.1,0,0,1-2.53-1,3.47,3.47,0,0,0-.19-.72l0-.08a5.42,5.42,0,0,0-3.14-3.15,1.07,1.07,0,0,0-.25,0,1,1,0,0,0-.77.35,1.28,1.28,0,0,0,0,1.45,11.89,11.89,0,0,0,2.15,2.78l-.24.17a4.93,4.93,0,0,0-1.84,1.92c-1,1.94-.71,5.11,1.09,6.16a2.55,2.55,0,0,0,1.34.36,5.21,5.21,0,0,0,1.71-.35l.45-.15a7.25,7.25,0,0,0,2.4-1.44,1,1,0,0,0,.08-1.4,1,1,0,0,0-.74-.36.93.93,0,0,0-.62.24,5.61,5.61,0,0,1-1.8,1.08,5.54,5.54,0,0,1-1.57.41.63.63,0,0,1-.35-.08c-.59-.34-.95-2.16-.28-3.48a3.15,3.15,0,0,1,1.22-1.21,6.72,6.72,0,0,0,.73-.56,5.65,5.65,0,0,0,3.26,1h.11a4.87,4.87,0,0,0,3.78-2.24,3.93,3.93,0,0,0,2.25.72,3.74,3.74,0,0,0,1.15-.18,3.57,3.57,0,0,0,.45-.19,4,4,0,0,0,2-3,1,1,0,0,0-.84-1.14h-.14a1,1,0,0,0-.94.85,2.06,2.06,0,0,1-1,1.5,1.92,1.92,0,0,1-.78.17,2.07,2.07,0,0,1-1.57-.75,5.35,5.35,0,0,0-1.06-3.34,5,5,0,0,0-2.11-1.55,2.6,2.6,0,0,1-.5-.25s-.18-.86,2.78-3.5c0,0,0-.07.08-.08a6.88,6.88,0,0,0,1.29.13,5.68,5.68,0,0,0,.59,0,5.16,5.16,0,0,0,1.18-.25,2.88,2.88,0,0,0,1.26-.79,3.88,3.88,0,0,0,.48,0,2.76,2.76,0,0,0,1-.18,5.49,5.49,0,0,0,1.09-.53,6.26,6.26,0,0,0,1.43-1.24l.09,0h0c3.95.28,4.34,1.07,4.34,1.07a2.3,2.3,0,0,1-.24.5,4.92,4.92,0,0,0-.72,2.52,5.3,5.3,0,0,0,1.21,3.28,2,2,0,0,1-1.5,1.91h-.2a2.09,2.09,0,0,1-1.48-.62,1,1,0,0,0-.69-.29.91.91,0,0,0-.68.3,1,1,0,0,0,0,1.4,4,4,0,0,0,2.83,1.2,3.64,3.64,0,0,0,.57,0,3.59,3.59,0,0,0,.47-.12,3.86,3.86,0,0,0,2.36-2.51,5,5,0,0,0,1.65.28,4.85,4.85,0,0,0,2.65-.78,5.7,5.7,0,0,0,2-2.9l.44,0,.48,0a2.59,2.59,0,0,1,.48,0,3.25,3.25,0,0,1,1.22.25c1.34.64,2.18,2.31,1.92,2.93-.19.41-1,.68-1.72.91a5.73,5.73,0,0,1-1.69.26H163a1,1,0,0,0-.95.92,1,1,0,0,0,.93,1.06,4.61,4.61,0,0,0,.53,0,7.5,7.5,0,0,0,2.25-.35l.45-.15a3.62,3.62,0,0,0,2.41-1.88h0c.78-1.93-1-4.62-3-5.54a5,5,0,0,0-2-.44,4.17,4.17,0,0,0-.61,0l-.3,0a11.54,11.54,0,0,0,0-3.52,1.28,1.28,0,0,0-.9-1.14l-.2,0a1,1,0,0,0-.81.39,5.43,5.43,0,0,0-.55,4.42l0,.08a2.73,2.73,0,0,0,.29.68,4.07,4.07,0,0,1-1.41,2.31,2.8,2.8,0,0,1-1.57.47,2.91,2.91,0,0,1-1.53-.43,2.89,2.89,0,0,1-.63-3.9,2.57,2.57,0,0,0,.41-2c-.37-1.39-2-2.17-5.28-2.49a2.78,2.78,0,0,0-.17-1.86,3.74,3.74,0,0,0-3.52-1.94h-.28a1,1,0,0,0-.84,1,1,1,0,0,0,1,1m24,4.62a1.12,1.12,0,0,0,.31-.05,1,1,0,0,0-.35-1.94.79.79,0,0,0-.3.05,1,1,0,0,0-.59,1.25h0a1,1,0,0,0,.93.67m13.35,5.65a.91.91,0,0,0,.23,0h0a.76.76,0,0,0-.26-1.46.62.62,0,0,0-.23,0,.75.75,0,0,0,.26,1.45M175.57,170a1,1,0,0,0,.37-.07h0a1.21,1.21,0,0,0,.73-1.57,1.23,1.23,0,0,0-1.16-.85,1.26,1.26,0,0,0-.38.06,1.26,1.26,0,0,0,.44,2.43m-51,4.8a.79.79,0,0,0,.3-.05h0a1,1,0,0,0-.35-1.95,1,1,0,0,0-.3.05,1,1,0,0,0,.35,1.94m2.79,11.7a1.31,1.31,0,0,0,.38-.06h0a1.26,1.26,0,0,0-.44-2.43,1,1,0,0,0-.37.07,1.23,1.23,0,0,0-.74,1.57,1.25,1.25,0,0,0,1.17.85m-9.74.9a.62.62,0,0,0,.23,0,.75.75,0,0,0-.26-1.45.91.91,0,0,0-.23,0,.76.76,0,0,0,.26,1.46m43.24-44.6h0a6.54,6.54,0,0,0-2.06.34l-6.37,2.18a2.28,2.28,0,0,1-.78.13,2.35,2.35,0,0,1-.64-.09l-6.05-1.65a9.55,9.55,0,0,0-2.48-.33,9.32,9.32,0,0,0-7.48,3.73l-3.81,5A2.52,2.52,0,0,1,130,153l-6.37,2.18a6.46,6.46,0,0,0-4.19,4.64l-1.54,6.41a2.54,2.54,0,0,1-.92,1.43l-5.83,4.47a6.74,6.74,0,0,0-2.44,6.63l1.38,6.8a2.74,2.74,0,0,1-.15,1.63l-4.33,10.4a3.59,3.59,0,0,0,1.82,4.6,3.41,3.41,0,0,0,1.43.31h.1l24.79-.9,1.84-.07.08-1.84a31,31,0,0,1,5.77-16.76,20.16,20.16,0,0,1,8.25-6.59l.71-.31.74-.19a20.07,20.07,0,0,1,5-.63,20.53,20.53,0,0,1,5.6.79,31.1,31.1,0,0,1,14.81,9.72l1.19,1.4,1.5-1.07,20.14-14.45a3.57,3.57,0,0,0-.36-6l-9.8-5.56a2.74,2.74,0,0,1-1.12-1.19L185,152.65a6.71,6.71,0,0,0-5.95-3.75l-7.36,0h0a2.56,2.56,0,0,1-1.62-.57l-5.16-4.11a6.58,6.58,0,0,0-4.1-1.45Z"/><ellipse class="cls-8" cx="202.25" cy="163.56" rx="3.16" ry="3.28" transform="translate(-42.05 74.25) rotate(-18.88)"/><path class="cls-5" d="M202.18,160.29a3.27,3.27,0,0,1,3.06,2.25,3.21,3.21,0,0,1-1.93,4.12,2.83,2.83,0,0,1-1,.17,3.3,3.3,0,0,1-1.13-6.38,3.11,3.11,0,0,1,1-.16m0-2h0a5.08,5.08,0,0,0-1.64.27,5.3,5.3,0,0,0,1.78,10.27,5.06,5.06,0,0,0,4.61-3,5.35,5.35,0,0,0,.2-4,5.26,5.26,0,0,0-4.95-3.6Z"/><ellipse class="cls-8" cx="184.27" cy="148.15" rx="3.16" ry="3.28" transform="translate(-38.03 67.6) rotate(-18.88)"/><path class="cls-5" d="M184.19,144.88a3.27,3.27,0,0,1,3.07,2.25,3.22,3.22,0,0,1-1.93,4.12,2.87,2.87,0,0,1-1,.17,3.27,3.27,0,0,1-3.06-2.25,3.21,3.21,0,0,1,1.93-4.12,2.81,2.81,0,0,1,1-.17m0-2h0a5.07,5.07,0,0,0-1.63.27,5.3,5.3,0,0,0,1.78,10.27,5.08,5.08,0,0,0,1.64-.27,5.3,5.3,0,0,0-1.78-10.27Z"/><ellipse class="cls-8" cx="162.83" cy="139.45" rx="3.16" ry="3.28" transform="translate(-36.36 60.19) rotate(-18.88)"/><path class="cls-5" d="M162.75,136.18H163a3.33,3.33,0,0,1,3,3.5,3.13,3.13,0,0,1-3.09,3h-.24a3.33,3.33,0,0,1-3-3.5,3.13,3.13,0,0,1,3.09-3m0-2h0a5.15,5.15,0,0,0-5.09,4.93,5.33,5.33,0,0,0,4.85,5.59l.4,0a5.13,5.13,0,0,0,5.08-4.93,5.33,5.33,0,0,0-4.85-5.59l-.39,0Z"/></svg>