<svg xmlns="http://www.w3.org/2000/svg" xmlns:xlink="http://www.w3.org/1999/xlink" viewBox="0 0 210 210"><defs><style>.cls-1{fill:#ff698d;}.cls-2{fill:url(#未命名的渐变_8);}.cls-3{fill:#fff;}.cls-4{fill:url(#未命名的渐变_23);}.cls-5{fill:#ff678e;}.cls-6{fill:#efefef;}.cls-7{fill:#31d8ff;}.cls-8{fill:#ffd431;}.cls-9{fill:url(#未命名的渐变_6);}.cls-10{fill:url(#未命名的渐变_6-2);}.cls-11{fill:url(#未命名的渐变_6-3);}.cls-12{fill:url(#未命名的渐变_6-4);}.cls-13{fill:url(#未命名的渐变_12);}.cls-14{fill:url(#未命名的渐变_6-5);}.cls-15{fill:url(#未命名的渐变_6-6);}.cls-16{fill:url(#未命名的渐变_6-7);}.cls-17{fill:url(#未命名的渐变_6-8);}.cls-18{fill:url(#未命名的渐变_6-9);}.cls-19{fill:url(#未命名的渐变_13);}.cls-20{fill:url(#未命名的渐变_6-10);}.cls-21{fill:#54e4f4;}</style><linearGradient id="未命名的渐变_8" x1="105" y1="195" x2="105" y2="15" gradientUnits="userSpaceOnUse"><stop offset="0.36" stop-color="#fff"/><stop offset="0.61" stop-color="#fee3ed"/><stop offset="0.84" stop-color="#fecee1"/><stop offset="1" stop-color="#fec7dc"/></linearGradient><linearGradient id="未命名的渐变_23" x1="174.64" y1="26.66" x2="196.16" y2="56.71" gradientUnits="userSpaceOnUse"><stop offset="0" stop-color="#f33557"/><stop offset="0.02" stop-color="#f43b5e"/><stop offset="0.12" stop-color="#f94e74"/><stop offset="0.22" stop-color="#fc5c83"/><stop offset="0.34" stop-color="#fe648c"/><stop offset="0.5" stop-color="#ff678f"/><stop offset="0.63" stop-color="#fd6389"/><stop offset="0.81" stop-color="#f85678"/><stop offset="1" stop-color="#f1435d"/></linearGradient><linearGradient id="未命名的渐变_6" x1="-167.07" y1="138.74" x2="-169.73" y2="133.38" gradientTransform="translate(119.1 -4.1) rotate(-18.63)" gradientUnits="userSpaceOnUse"><stop offset="0" stop-color="#fd7699" stop-opacity="0"/><stop offset="1" stop-color="#fe7095"/></linearGradient><linearGradient id="未命名的渐变_6-2" x1="-155.69" y1="120.15" x2="-158.35" y2="114.79" xlink:href="#未命名的渐变_6"/><linearGradient id="未命名的渐变_6-3" x1="-139.15" y1="106.32" x2="-141.8" y2="100.96" xlink:href="#未命名的渐变_6"/><linearGradient id="未命名的渐变_6-4" x1="-116.8" y1="99.46" x2="-119.46" y2="94.1" xlink:href="#未命名的渐变_6"/><linearGradient id="未命名的渐变_12" x1="-122.49" y1="149.26" x2="-128.82" y2="136.5" gradientTransform="translate(119.1 -4.1) rotate(-18.63)" gradientUnits="userSpaceOnUse"><stop offset="0" stop-color="#fd7699" stop-opacity="0"/><stop offset="1" stop-color="#ffc0d7"/></linearGradient><linearGradient id="未命名的渐变_6-5" x1="-128.02" y1="140.79" x2="-142.93" y2="110.71" xlink:href="#未命名的渐变_6"/><linearGradient id="未命名的渐变_6-6" x1="-37.96" y1="182.27" x2="-40.61" y2="176.91" gradientTransform="matrix(-0.95, -0.32, -0.32, 0.95, 226.68, -4.1)" xlink:href="#未命名的渐变_6"/><linearGradient id="未命名的渐变_6-7" x1="-26.57" y1="163.68" x2="-29.23" y2="158.32" gradientTransform="matrix(-0.95, -0.32, -0.32, 0.95, 226.68, -4.1)" xlink:href="#未命名的渐变_6"/><linearGradient id="未命名的渐变_6-8" x1="-10.03" y1="149.85" x2="-12.68" y2="144.49" gradientTransform="matrix(-0.95, -0.32, -0.32, 0.95, 226.68, -4.1)" xlink:href="#未命名的渐变_6"/><linearGradient id="未命名的渐变_6-9" x1="12.32" y1="142.99" x2="9.66" y2="137.63" gradientTransform="matrix(-0.95, -0.32, -0.32, 0.95, 226.68, -4.1)" xlink:href="#未命名的渐变_6"/><linearGradient id="未命名的渐变_13" x1="6.63" y1="192.79" x2="0.3" y2="180.03" gradientTransform="matrix(-0.95, -0.32, -0.32, 0.95, 226.68, -4.1)" xlink:href="#未命名的渐变_12"/><linearGradient id="未命名的渐变_6-10" x1="1.1" y1="184.33" x2="-13.81" y2="154.24" gradientTransform="matrix(-0.95, -0.32, -0.32, 0.95, 226.68, -4.1)" xlink:href="#未命名的渐变_6"/></defs><g id="图层_6" data-name="图层 6"><path class="cls-1" d="M105,15a90,90,0,1,1-90,90,90,90,0,0,1,90-90m0,160a70,70,0,1,0-70-70,70,70,0,0,0,70,70m0-161a91,91,0,1,0,91,91,91.1,91.1,0,0,0-91-91Zm0,160a69,69,0,1,1,69-69,69.07,69.07,0,0,1-69,69Z"/><path class="cls-2" d="M105,15a90,90,0,1,0,90,90A90,90,0,0,0,105,15Zm0,160a70,70,0,1,1,70-70A70,70,0,0,1,105,175Z"/><path class="cls-3" d="M105,17a88,88,0,1,1-88,88,88.1,88.1,0,0,1,88-88m0,160a72,72,0,1,0-72-72,72.08,72.08,0,0,0,72,72m0-162a90,90,0,1,0,90,90,90,90,0,0,0-90-90Zm0,160a70,70,0,1,1,70-70,70,70,0,0,1-70,70Z"/><path class="cls-4" d="M164.68,35s8.81,19.4,20.56,28.21c5-2.68,18.13-10.72,18.13-10.72l-11.24.13-5-7.41,10-12.51-15.83,5.49-5-6.64L181,21.12Z"/><path class="cls-5" d="M181.44,20a.25.25,0,0,1,0,.49.24.24,0,0,1-.24-.24.24.24,0,0,1,.24-.25m0-1a1.25,1.25,0,1,0,1.24,1.25A1.24,1.24,0,0,0,181.44,19Z"/><path class="cls-5" d="M197.78,31.7a.24.24,0,0,1,.24.24.24.24,0,0,1-.24.25.25.25,0,0,1,0-.49m0-1A1.25,1.25,0,1,0,199,31.94a1.23,1.23,0,0,0-1.24-1.24Z"/><path class="cls-5" d="M204.29,51.68a.25.25,0,1,1-.24.24.25.25,0,0,1,.24-.24m0-1a1.25,1.25,0,0,0,0,2.49,1.25,1.25,0,1,0,0-2.49Z"/><polygon class="cls-6" points="176.84 46.85 179.65 47.26 181.89 45.98 182.14 42.98 179.33 42.83 177.42 44.17 176.84 46.85"/><polygon class="cls-7" points="176.27 42.31 176.27 44.29 174.32 44.29 174.55 42.31 176.27 42.31"/><polygon class="cls-7" points="185.81 57.31 185.81 59.29 183.87 59.29 184.09 57.31 185.81 57.31"/><polygon class="cls-6" points="178.7 48.47 178.7 50.01 177.19 50.01 177.36 48.47 178.7 48.47"/><polygon class="cls-6" points="180.65 52.02 180.65 53.55 179.14 53.55 179.31 52.02 180.65 52.02"/><polygon class="cls-6" points="188.82 59.29 188.82 60.83 187.31 60.83 187.48 59.29 188.82 59.29"/><polygon class="cls-6" points="172.89 41.1 172.89 42.63 171.38 42.63 171.56 41.1 172.89 41.1"/><polygon class="cls-6" points="170.42 38.36 170.42 39.89 168.91 39.89 169.08 38.36 170.42 38.36"/><polygon class="cls-6" points="181.97 37.81 181.97 39.35 180.46 39.35 180.64 37.81 181.97 37.81"/><polygon class="cls-6" points="187.53 46.69 187.53 48.22 186.02 48.22 186.19 46.69 187.53 46.69"/><polygon class="cls-6" points="176.55 32.42 176.55 33.95 175.04 33.95 175.21 32.42 176.55 32.42"/><polygon class="cls-8" points="169.66 36.03 169.66 38.01 167.72 38.01 167.94 36.03 169.66 36.03"/><polygon class="cls-8" points="186.99 44.05 186.99 46.03 185.05 46.03 185.27 44.05 186.99 44.05"/><polygon class="cls-8" points="183.67 55.62 183.67 57.6 181.73 57.6 181.95 55.62 183.67 55.62"/><path class="cls-9" d="M1.59,176a3,3,0,1,0,4.05,1.24A3,3,0,0,0,1.59,176Z"/><path class="cls-10" d="M10.68,156.42a3,3,0,1,0-1.88,3.79A3,3,0,0,0,10.68,156.42Z"/><path class="cls-11" d="M20.05,141.82a3,3,0,1,0-3.79-1.88A3,3,0,0,0,20.05,141.82Z"/><path class="cls-12" d="M39,128.18a3,3,0,1,0-3.79-1.88A3,3,0,0,0,39,128.18Z"/><path class="cls-13" d="M52.71,165.86l-2-6.37a1,1,0,0,0-1.25-.66h0a1,1,0,0,0-.61,1.27h0l2.26,6.29-5-5a1,1,0,0,0-1.43,0h0l-.41.42a1,1,0,0,0,0,1.43s0,0,0,0l5.36,4.56-.8,1L42.28,165a1,1,0,0,0-1.39.36h0l-.26.46a1,1,0,0,0,.36,1.37h0l6.51,3.79-.88,1.66-7.21-3a1,1,0,0,0-1.32.54v0l-.32.84a1,1,0,0,0,.57,1.3l.06,0,7.37,2.37-.18,1.71-8.3-1.83a1,1,0,0,0-1.18.76l-.57,2.42a1,1,0,0,0,.77,1.2.82.82,0,0,0,.27,0l12-.49A.46.46,0,0,0,49,178s0,0,0-.06a5.8,5.8,0,0,1,3.64-7.36l1.07-.36-.74-5.82Z"/><path class="cls-14" d="M44,130.5A7.22,7.22,0,0,0,36.52,133l-3.67,4.63a4.32,4.32,0,0,1-2,1.4l-6,2A4.3,4.3,0,0,0,22,144l-1.55,5.88a4.29,4.29,0,0,1-1.61,2.35l-5.55,4.12a4.32,4.32,0,0,0-1.66,4.27l1.2,6.21a4.25,4.25,0,0,1-.29,2.56L8.34,179a1.4,1.4,0,0,0,.73,1.84,1.36,1.36,0,0,0,.6.11l23.38-1a30.34,30.34,0,0,1,6.06-16.38,21.58,21.58,0,0,1,8.66-6.7l.82-.34.86-.22a21.72,21.72,0,0,1,2.38-.46l-3.09-24.1Z"/><path class="cls-15" d="M207.93,176a3,3,0,1,1-4,1.24A3,3,0,0,1,207.93,176Z"/><path class="cls-16" d="M198.85,156.42a3,3,0,1,1,1.87,3.79A3,3,0,0,1,198.85,156.42Z"/><path class="cls-17" d="M189.47,141.82a3,3,0,1,1,3.79-1.88A3,3,0,0,1,189.47,141.82Z"/><path class="cls-18" d="M170.48,128.18a3,3,0,1,1,3.79-1.88A3,3,0,0,1,170.48,128.18Z"/><path class="cls-19" d="M156.81,165.86l2-6.37a1,1,0,0,1,1.25-.66h0a1,1,0,0,1,.61,1.27h0l-2.26,6.29,5-5a1,1,0,0,1,1.43,0h0l.41.42a1,1,0,0,1,0,1.43s0,0,0,0l-5.36,4.56.8,1,6.56-3.9a1,1,0,0,1,1.39.36h0l.26.46a1,1,0,0,1-.36,1.37h0L162,170.93l.89,1.66,7.21-3a1,1,0,0,1,1.31.54v0l.32.84a1,1,0,0,1-.56,1.3l-.07,0-7.37,2.37.18,1.71,8.3-1.83a1,1,0,0,1,1.19.76l.56,2.42a1,1,0,0,1-.77,1.2.78.78,0,0,1-.26,0l-12-.49a.48.48,0,0,1-.4-.51l0-.06a5.82,5.82,0,0,0-3.65-7.36l-1.07-.36.75-5.82Z"/><path class="cls-20" d="M165.57,130.5A7.22,7.22,0,0,1,173,133l3.67,4.63a4.35,4.35,0,0,0,2,1.4l6,2a4.3,4.3,0,0,1,2.78,3l1.55,5.88a4.29,4.29,0,0,0,1.61,2.35l5.55,4.12a4.32,4.32,0,0,1,1.66,4.27l-1.2,6.21a4.25,4.25,0,0,0,.29,2.56l4.24,9.54a1.4,1.4,0,0,1-.72,1.84,1.43,1.43,0,0,1-.61.11l-23.38-1a30.34,30.34,0,0,0-6.06-16.38,21.52,21.52,0,0,0-8.66-6.7l-.82-.34-.86-.22a21.27,21.27,0,0,0-2.38-.46l3.09-24.1Z"/><path class="cls-21" d="M117.39,194.41l-.14,0a.49.49,0,0,1-.35-.57A27.62,27.62,0,0,1,120,185c.24-.41.46-.78.67-1.11l-1-.37A13.41,13.41,0,0,1,116.6,182a1.68,1.68,0,0,0-1-.41h0c-1,0-1.58.65-2.44,1.54a10,10,0,0,1-4.43,3c-1.33.43-3.08.75-3.78-.17-.43-.55-.22-1.17,0-1.78a4.33,4.33,0,0,0,.29-1.48,5.2,5.2,0,0,0-3-4.21c-3.27-1.54-7.91,1.9-8.81,2.61a15.46,15.46,0,0,0-2.07,2.05c-1,1.14-1.9,2.13-3.41,2.34s-3.39-.61-5.21-2.44c-1.3,3-4,4.93-6.72,4.63a5.46,5.46,0,0,1-4.09-2.73,5.17,5.17,0,0,1-.65-2.16,27.83,27.83,0,0,1-5.57,5.74c-3.08,2.38-8.64,6.08-11.17,4.19a3.85,3.85,0,0,1-1.31-2.85,15.2,15.2,0,0,1,3.9-10.55c4.71-5.16,12-4.61,13.38-4.45a.5.5,0,0,1,.44.56.5.5,0,0,1-.55.44c-1.33-.16-8.15-.67-12.53,4.12a14.35,14.35,0,0,0-3.65,9.78,3,3,0,0,0,.92,2.15c1.44,1.08,5.16-.49,10-4.18a27.17,27.17,0,0,0,6.42-7.08,6.32,6.32,0,0,1,1.43-2.49.5.5,0,0,1,.65-.07.52.52,0,0,1,.16.64c-.41.81-.85,1.58-1.32,2.33a4.51,4.51,0,0,0,.36,3.39,4.45,4.45,0,0,0,3.33,2.22c2.46.28,5-1.7,6-4.7a.49.49,0,0,1,.84-.18c1.8,2,3.44,2.89,4.9,2.69,1.14-.15,1.83-.93,2.79-2a16.82,16.82,0,0,1,2.2-2.18c1.38-1.08,6.15-4.48,9.86-2.72a6.17,6.17,0,0,1,3.52,5.11,5.49,5.49,0,0,1-.34,1.8c-.15.44-.24.73-.14.85.2.27,1.13.33,2.69-.17a9.06,9.06,0,0,0,4-2.75c.91-1,1.77-1.85,3.16-1.85h0a2.52,2.52,0,0,1,1.57.58,13,13,0,0,0,2.89,1.46l1.21.44.12-.17a28.51,28.51,0,0,0,2.24-3.75c.37-.73.67-1.38.93-1.94.75-1.62,1.09-2.35,1.8-2.23a.81.81,0,0,1,.53.39c.47.72.54,2.65.15,4.31-.76,3.25-2.21,4.32-3.29,4.66a3.61,3.61,0,0,1-2.07-.09c-.25.39-.51.79-.79,1.28a24.68,24.68,0,0,0-2,4.56,19.13,19.13,0,0,1,3.43-3.94c5.59-4.88,12.67-5.08,17.85-5.23l1.13,0a121.64,121.64,0,0,0,31.58-5.6.51.51,0,0,1,.63.33.51.51,0,0,1-.33.63,123.2,123.2,0,0,1-31.85,5.64l-1.14,0c-5.29.16-11.89.35-17.21,5a19.35,19.35,0,0,0-5.11,7.24A.5.5,0,0,1,117.39,194.41Zm4.87-11.07a2.31,2.31,0,0,0,1.17,0c.84-.26,2-1.14,2.61-3.92a7.77,7.77,0,0,0,.11-3.25c-.19.32-.45.88-.7,1.42s-.57,1.23-1,2A29.75,29.75,0,0,1,122.26,183.34Z"/></g></svg>