<?xml version="1.0" encoding="UTF-8" ?>
<!DOCTYPE svg PUBLIC "-//W3C//DTD SVG 1.1//EN" "http://www.w3.org/Graphics/SVG/1.1/DTD/svg11.dtd">
<svg width="840pt" height="840pt" viewBox="0 0 840 840" version="1.1" xmlns="http://www.w3.org/2000/svg">
<g id="#0000001a">
<path fill="#000000" opacity="0.10" d=" M 0.00 0.00 L 8.15 0.00 C 8.16 2.68 8.13 5.36 8.07 8.04 C 5.38 8.12 2.69 8.17 0.00 8.19 L 0.00 0.00 Z" />
<path fill="#000000" opacity="0.10" d=" M 831.82 0.00 L 840.00 0.00 L 840.00 8.16 C 837.31 8.20 834.64 8.16 831.97 8.04 C 831.87 5.36 831.83 2.68 831.82 0.00 Z" />
<path fill="#000000" opacity="0.10" d=" M 0.00 831.84 C 2.68 831.80 5.36 831.84 8.04 831.97 C 8.11 834.64 8.16 837.31 8.19 840.00 L 0.00 840.00 L 0.00 831.84 Z" />
<path fill="#000000" opacity="0.10" d=" M 831.98 831.96 C 834.64 831.89 837.32 831.85 840.00 831.84 L 840.00 840.00 L 831.81 840.00 C 831.82 837.31 831.87 834.63 831.98 831.96 Z" />
</g>
<g id="#f1112fff">
<path fill="#f1112f" opacity="1.00" d=" M 105.03 180.20 C 210.05 122.61 315.00 64.90 419.99 7.25 C 524.99 64.88 629.94 122.61 734.97 180.20 C 735.04 189.54 734.98 198.88 735.00 208.22 C 629.97 150.61 525.00 92.89 419.99 35.25 C 315.00 92.92 210.01 150.59 105.01 208.24 C 105.01 198.89 104.96 189.54 105.03 180.20 Z" />
<path fill="#f1112f" opacity="1.00" d=" M 761.51 420.00 C 772.34 420.01 783.17 420.01 794.00 420.01 C 794.00 425.16 794.00 430.32 794.00 435.48 C 783.17 435.48 772.33 435.48 761.50 435.48 C 761.50 430.32 761.48 425.16 761.51 420.00 Z" />
<path fill="#f1112f" opacity="1.00" d=" M 761.51 449.00 C 772.34 449.01 783.17 449.01 794.00 449.00 C 794.00 454.16 794.00 459.32 794.00 464.48 C 783.17 464.48 772.34 464.48 761.51 464.48 C 761.49 459.32 761.49 454.16 761.51 449.00 Z" />
<path fill="#f1112f" opacity="1.00" d=" M 699.97 568.81 C 711.66 562.44 723.30 555.99 735.00 549.65 C 734.98 569.71 735.05 589.77 734.96 609.82 C 647.52 657.72 560.17 705.80 472.76 753.77 C 467.57 756.77 462.10 759.31 457.09 762.62 C 456.74 747.84 457.20 733.06 456.84 718.28 C 455.88 717.56 454.86 716.96 453.77 716.49 C 457.48 714.09 461.46 712.16 465.37 710.14 C 468.56 708.57 471.71 706.90 474.77 705.09 C 484.09 700.02 493.42 694.97 502.82 690.07 C 507.82 687.55 512.70 684.82 517.62 682.18 C 514.71 679.09 511.45 676.33 508.73 673.07 C 508.48 671.93 508.60 670.76 508.61 669.62 C 510.01 670.87 511.39 672.17 512.73 673.52 C 515.14 675.95 517.57 678.37 519.98 680.81 C 524.69 678.32 529.37 675.77 534.08 673.26 C 542.38 668.81 550.70 664.40 558.96 659.88 C 559.58 657.73 560.19 655.60 560.83 653.47 C 561.82 650.18 562.75 646.88 563.64 643.57 C 576.43 636.35 589.41 629.44 602.26 622.30 C 622.44 611.14 642.69 600.09 662.96 589.07 C 667.92 590.29 672.29 586.41 674.82 582.54 C 683.23 578.00 691.57 573.37 699.97 568.81 Z" />
<path fill="#f1112f" opacity="1.00" d=" M 105.00 550.37 C 116.68 556.71 128.29 563.15 139.96 569.49 C 148.48 574.09 156.90 578.89 165.49 583.36 C 168.04 587.02 171.62 589.66 175.83 591.12 C 176.34 590.86 177.35 590.33 177.86 590.07 C 197.81 601.27 217.94 612.13 237.97 623.19 C 250.57 629.96 262.97 637.14 275.70 643.66 C 277.67 646.58 278.08 650.18 279.17 653.47 C 279.78 655.60 280.42 657.72 281.03 659.86 C 289.28 664.40 297.61 668.79 305.91 673.25 C 310.63 675.78 315.33 678.34 320.08 680.83 C 322.60 678.30 325.13 675.78 327.66 673.26 C 329.76 671.09 331.94 669.00 334.17 666.96 C 334.34 667.63 334.70 668.96 334.88 669.63 C 330.63 673.72 326.45 677.90 322.34 682.14 C 337.99 690.55 353.61 699.05 369.34 707.30 C 374.92 710.39 380.83 712.94 386.05 716.62 C 385.22 716.98 383.55 717.70 382.71 718.06 C 382.43 732.91 382.79 747.77 382.53 762.63 C 380.22 760.76 377.59 759.38 374.98 758.01 C 284.98 708.64 195.06 659.14 105.04 609.82 C 104.95 590.00 105.02 570.19 105.00 550.37 Z" />
<path fill="#f1112f" opacity="1.00" d=" M 393.21 607.63 C 402.24 598.82 411.08 589.82 420.02 580.91 C 429.08 589.78 437.98 598.82 446.95 607.78 C 446.05 608.12 445.15 608.47 444.27 608.83 C 436.22 600.68 428.05 592.66 420.01 584.50 C 412.14 592.13 404.56 600.04 396.68 607.65 C 395.52 607.64 394.36 607.63 393.21 607.63 Z" />
<path fill="#f1112f" opacity="1.00" d=" M 463.49 627.83 C 469.92 628.01 473.97 634.54 475.91 640.02 C 471.43 636.34 467.50 632.01 463.49 627.83 Z" />
<path fill="#f1112f" opacity="1.00" d=" M 370.16 630.72 C 371.17 629.34 372.97 629.69 374.44 629.69 C 370.81 633.77 366.94 637.66 362.85 641.28 C 363.08 639.87 362.51 638.11 363.76 637.06 C 365.93 634.99 368.10 632.91 370.16 630.72 Z" />
<path fill="#f1112f" opacity="1.00" d=" M 417.65 696.00 C 418.59 696.00 420.47 696.00 421.41 696.00 C 421.36 696.69 421.26 698.09 421.21 698.79 C 422.76 699.65 424.31 700.53 425.91 701.36 L 423.66 702.34 C 423.09 702.28 421.95 702.16 421.38 702.10 C 421.41 704.85 421.41 707.60 421.44 710.36 C 423.02 711.74 424.58 713.14 426.13 714.55 C 427.13 713.52 428.13 712.49 429.12 711.47 C 429.87 711.55 431.36 711.72 432.10 711.80 C 431.16 714.88 430.09 717.92 428.95 720.94 C 431.33 724.35 433.31 728.11 433.97 732.28 C 432.74 730.89 431.55 729.47 430.36 728.08 C 429.04 729.15 427.48 730.02 426.57 731.50 C 426.01 733.74 425.59 736.02 424.79 738.20 C 427.48 743.23 427.05 749.50 425.70 754.89 C 434.79 752.60 441.28 743.96 441.32 734.65 C 440.08 737.01 438.78 739.35 437.07 741.41 C 437.64 737.63 439.16 733.84 438.27 730.00 C 437.68 725.95 435.55 722.39 433.15 719.16 C 444.85 723.63 449.43 738.59 444.52 749.61 C 442.81 749.16 440.77 747.57 439.29 749.38 C 437.14 751.30 438.90 754.12 440.77 755.51 C 437.30 759.47 432.64 762.01 427.69 763.62 C 427.34 769.16 425.47 774.38 422.27 778.91 C 424.17 778.04 426.10 777.22 428.02 776.40 C 424.88 778.24 421.40 779.69 419.26 782.82 C 418.53 781.57 417.83 780.36 417.09 779.16 C 412.77 773.00 410.86 765.40 411.06 757.95 C 408.36 754.33 406.28 750.26 405.33 745.82 C 407.59 748.35 409.93 750.84 412.62 752.94 C 412.90 747.92 411.57 742.33 414.67 737.94 C 414.31 737.43 413.59 736.42 413.22 735.91 C 413.25 734.56 413.28 733.23 413.32 731.90 C 411.99 730.66 410.66 729.43 409.32 728.23 C 410.12 726.88 410.91 725.54 411.70 724.20 C 403.60 726.77 398.35 734.98 398.22 743.31 C 399.46 740.95 400.92 738.72 402.62 736.67 C 401.85 740.42 400.53 744.20 401.28 748.09 C 401.63 752.12 403.96 755.54 405.96 758.93 C 399.13 756.15 394.65 749.53 393.36 742.42 C 392.07 737.85 393.64 733.24 394.85 728.85 C 396.79 729.42 399.96 730.58 400.89 727.94 C 402.24 725.87 400.07 724.10 398.82 722.72 C 401.42 719.69 404.78 717.50 408.37 715.81 C 407.99 714.45 407.61 713.09 407.24 711.75 C 407.85 711.62 409.06 711.37 409.66 711.24 C 410.76 712.35 411.91 713.41 413.05 714.50 C 414.57 713.13 416.10 711.77 417.66 710.44 C 417.79 707.55 417.81 704.66 417.75 701.77 C 415.86 702.67 413.97 703.59 412.18 704.70 C 412.23 704.05 412.32 702.74 412.37 702.08 L 413.06 701.69 C 414.69 700.80 416.33 699.92 417.96 699.03 C 417.88 698.27 417.73 696.76 417.65 696.00 Z" />
</g>
<g id="#945f049f">
<path fill="#945f04" opacity="0.62" d=" M 406.15 57.13 C 410.49 52.39 415.12 47.90 419.76 43.45 C 424.67 48.38 429.80 53.11 434.35 58.37 C 433.85 58.37 432.83 58.38 432.33 58.38 C 428.12 54.08 424.06 49.61 419.47 45.71 C 415.42 50.05 411.12 54.15 406.98 58.42 L 406.30 58.43 L 406.15 57.13 Z" />
</g>
<g id="#95870398">
<path fill="#958703" opacity="0.60" d=" M 417.99 56.07 C 419.46 53.88 421.57 56.86 421.98 58.39 C 420.41 58.19 418.35 57.94 417.99 56.07 Z" />
</g>
<g id="#fff15aff">
<path fill="#fff15a" opacity="1.00" d=" M 416.00 58.50 C 416.66 57.69 417.33 56.88 417.99 56.07 C 418.35 57.94 420.41 58.19 421.98 58.39 C 419.98 58.44 417.99 58.52 416.00 58.50 Z" />
<path fill="#fff15a" opacity="1.00" d=" M 388.37 117.57 C 392.70 116.97 397.08 116.82 401.45 116.89 C 401.88 116.90 402.73 116.93 403.16 116.94 C 403.67 116.94 404.69 116.93 405.20 116.93 C 410.02 116.62 414.86 116.52 419.69 116.90 C 421.57 116.99 423.46 117.02 425.36 117.04 C 425.93 117.05 427.07 117.06 427.63 117.06 C 428.57 117.06 430.44 117.05 431.37 117.05 C 431.94 117.05 433.07 117.03 433.63 117.03 C 434.55 117.01 436.37 116.99 437.29 116.97 C 437.84 116.97 438.94 116.97 439.49 116.97 C 442.81 117.27 446.49 116.34 449.53 118.02 C 449.64 118.63 449.84 119.84 449.94 120.45 C 437.27 120.65 424.60 119.67 411.92 120.09 C 404.18 120.39 396.43 120.53 388.67 120.44 C 388.60 119.72 388.44 118.29 388.37 117.57 Z" />
</g>
<g id="#fbfbfbff">
<path fill="#fbfbfb" opacity="1.00" d=" M 405.31 58.40 C 405.52 58.08 405.94 57.45 406.15 57.13 L 406.30 58.43 L 406.98 58.42 C 409.98 58.37 412.99 58.41 416.00 58.50 C 417.99 58.52 419.98 58.44 421.98 58.39 C 425.42 58.37 428.88 58.41 432.33 58.38 C 432.83 58.38 433.85 58.37 434.35 58.37 C 438.26 58.41 442.17 58.38 446.08 58.43 C 446.03 62.30 446.17 66.18 446.00 70.06 C 445.98 70.46 445.93 71.26 445.90 71.66 C 444.68 74.00 443.38 76.32 442.80 78.92 L 444.45 78.37 C 444.41 78.99 444.35 80.22 444.32 80.83 C 448.96 85.30 453.42 89.95 458.10 94.38 C 457.87 94.59 457.41 95.02 457.19 95.23 C 452.09 89.86 446.64 84.82 441.77 79.24 C 436.30 88.58 430.63 97.85 425.73 107.50 C 427.26 107.48 428.79 107.45 430.33 107.43 C 430.33 108.09 430.33 109.42 430.34 110.08 C 429.72 110.09 428.49 110.11 427.88 110.12 C 427.80 112.43 427.72 114.74 427.63 117.06 C 427.07 117.06 425.93 117.05 425.36 117.04 C 425.27 114.53 425.16 112.01 424.97 109.51 C 422.81 111.67 421.33 114.36 419.69 116.90 C 414.86 116.52 410.02 116.62 405.20 116.93 C 413.76 101.76 422.65 86.77 431.13 71.55 C 422.38 71.59 413.63 71.43 404.88 71.63 L 404.17 71.62 C 403.37 71.20 402.55 71.11 401.71 71.36 C 401.04 71.45 399.72 71.64 399.05 71.73 C 399.00 70.04 398.91 68.36 398.91 66.68 C 398.91 66.12 398.90 65.02 398.89 64.47 C 398.90 62.45 398.90 60.44 398.88 58.42 C 401.02 58.41 403.16 58.40 405.31 58.40 Z" />
<path fill="#fbfbfb" opacity="1.00" d=" M 458.23 96.33 C 458.52 96.02 458.82 95.72 459.13 95.42 C 461.67 98.01 464.24 100.58 466.70 103.26 C 461.06 108.71 455.73 114.49 449.91 119.76 C 450.46 118.76 451.04 117.78 451.61 116.78 C 456.05 112.18 460.56 107.64 465.12 103.14 C 462.85 100.84 460.56 98.56 458.23 96.33 Z" />
<path fill="#fbfbfb" opacity="1.00" d=" M 382.71 718.06 C 383.55 717.70 385.22 716.98 386.05 716.62 C 386.08 716.61 386.14 716.60 386.17 716.60 L 388.32 717.15 C 387.12 718.05 385.95 719.00 384.80 719.97 C 384.40 733.79 384.66 747.62 384.65 761.45 L 385.15 761.76 C 395.81 767.52 406.38 773.46 417.09 779.16 C 417.83 780.36 418.53 781.57 419.26 782.82 C 421.40 779.69 424.88 778.24 428.02 776.40 C 435.48 772.03 443.17 768.04 450.74 763.85 C 452.08 763.19 453.44 762.57 454.80 761.95 C 454.79 747.95 454.74 733.96 454.82 719.97 C 454.69 719.80 454.41 719.46 454.27 719.29 C 453.58 718.95 452.22 718.28 451.53 717.94 C 452.07 717.56 453.13 716.81 453.67 716.44 L 453.77 716.49 C 454.86 716.96 455.88 717.56 456.84 718.28 C 457.20 733.06 456.74 747.84 457.09 762.62 C 453.63 765.51 449.40 767.21 445.55 769.48 C 437.29 774.13 428.78 778.37 420.72 783.35 C 420.24 783.33 419.27 783.29 418.79 783.28 C 407.03 775.84 394.14 770.27 382.53 762.63 C 382.79 747.77 382.43 732.91 382.71 718.06 Z" />
</g>
<g id="#ab6d01e8">
<path fill="#ab6d01" opacity="0.91" d=" M 388.21 74.91 C 391.84 71.50 395.22 67.84 398.89 64.47 C 398.90 65.02 398.91 66.12 398.91 66.68 C 391.10 74.07 383.52 81.71 376.05 89.46 C 377.68 90.91 379.28 92.39 380.85 93.91 L 380.39 94.39 C 380.18 94.59 379.76 94.98 379.55 95.17 C 377.74 93.14 375.92 91.12 374.01 89.19 C 378.77 84.47 383.51 79.71 388.21 74.91 Z" />
</g>
<g id="#000000ff">
<path fill="#000000" opacity="1.00" d=" M 376.05 89.46 C 383.52 81.71 391.10 74.07 398.91 66.68 C 398.91 68.36 399.00 70.04 399.05 71.73 C 399.72 71.64 401.04 71.45 401.71 71.36 L 401.80 72.35 C 400.84 73.45 399.85 74.52 398.86 75.58 C 393.00 81.83 386.55 87.51 380.85 93.91 C 379.28 92.39 377.68 90.91 376.05 89.46 Z" />
<path fill="#000000" opacity="1.00" d=" M 402.70 73.04 C 403.07 72.69 403.80 71.98 404.17 71.62 L 404.88 71.63 C 404.69 72.16 404.30 73.22 404.10 73.75 C 403.75 73.57 403.05 73.22 402.70 73.04 Z" />
<path fill="#000000" opacity="1.00" d=" M 442.80 78.92 C 443.38 76.32 444.68 74.00 445.90 71.66 C 451.58 77.57 457.39 83.37 463.28 89.08 C 461.58 90.88 459.90 92.69 458.10 94.38 C 453.42 89.95 448.96 85.30 444.32 80.83 C 444.35 80.22 444.41 78.99 444.45 78.37 L 442.80 78.92 Z" />
<path fill="#000000" opacity="1.00" d=" M 379.66 79.13 C 382.63 77.98 385.28 76.16 388.21 74.91 C 383.51 79.71 378.77 84.47 374.01 89.19 C 375.92 91.12 377.74 93.14 379.55 95.17 C 376.65 97.67 374.02 100.45 371.27 103.11 C 377.06 108.90 382.81 114.73 388.67 120.44 C 396.43 120.53 404.18 120.39 411.92 120.09 C 424.60 119.67 437.27 120.65 449.94 120.45 C 449.84 119.84 449.64 118.63 449.53 118.02 C 449.96 117.75 450.80 117.22 451.23 116.95 L 451.61 116.78 C 451.04 117.78 450.46 118.76 449.91 119.76 C 455.73 114.49 461.06 108.71 466.70 103.26 C 464.24 100.58 461.67 98.01 459.13 95.42 C 461.17 93.40 463.24 91.42 465.32 89.43 C 460.83 84.49 455.78 80.10 451.41 75.05 C 452.08 75.28 453.41 75.73 454.08 75.96 C 547.70 127.36 641.28 178.85 734.95 230.17 C 735.07 336.66 734.97 443.16 735.00 549.65 C 723.30 555.99 711.66 562.44 699.97 568.81 C 699.95 557.12 700.16 545.42 699.86 533.73 C 692.93 550.69 684.28 566.87 674.82 582.54 C 672.29 586.41 667.92 590.29 662.96 589.07 C 664.27 585.87 666.21 583.00 668.15 580.17 C 687.00 550.81 700.76 518.16 708.32 484.09 C 700.34 476.25 692.50 468.25 684.54 460.40 C 683.07 458.91 681.48 457.53 680.31 455.79 C 679.71 452.89 680.04 449.89 679.99 446.96 C 680.02 427.95 679.99 408.94 679.99 389.94 C 679.87 388.25 680.31 386.61 681.66 385.51 C 690.72 376.43 699.83 367.38 708.89 358.28 C 694.68 292.33 657.57 231.26 604.57 189.35 C 579.64 169.47 551.48 153.67 521.55 142.68 C 468.31 123.02 409.34 119.14 354.06 132.09 C 288.08 147.24 227.37 185.48 186.26 239.39 C 159.37 274.29 140.39 315.23 131.12 358.30 C 140.19 367.38 149.29 376.44 158.35 385.53 C 159.72 386.63 160.11 388.31 160.01 390.00 C 160.00 411.01 160.00 432.01 160.01 453.02 C 160.10 454.69 159.70 456.37 158.35 457.48 C 149.46 466.36 140.60 475.27 131.67 484.11 C 139.30 518.41 153.19 551.28 172.25 580.79 C 174.26 583.79 176.35 586.77 177.86 590.07 C 177.35 590.33 176.34 590.86 175.83 591.12 C 171.62 589.66 168.04 587.02 165.49 583.36 C 164.40 580.93 163.11 578.61 161.65 576.40 C 153.30 562.83 146.35 548.46 140.17 533.79 C 139.77 545.68 140.14 557.59 139.96 569.49 C 128.29 563.15 116.68 556.71 105.00 550.37 C 105.03 443.64 104.93 336.90 105.05 230.17 C 192.74 182.13 280.33 133.92 367.99 85.82 C 370.16 84.74 372.13 83.16 374.50 82.54 L 375.95 82.25 C 377.28 81.33 378.51 80.27 379.66 79.13 M 463.54 109.47 C 462.41 110.82 460.25 111.92 461.00 113.99 C 464.16 111.54 466.69 108.40 469.63 105.70 C 471.07 104.18 473.13 102.87 473.16 100.52 C 469.42 102.87 466.81 106.56 463.54 109.47 M 139.97 255.80 C 140.19 272.61 139.69 289.44 140.22 306.24 C 151.11 279.59 165.67 254.40 183.73 231.96 C 168.96 239.55 154.55 247.84 139.97 255.80 M 656.23 231.99 C 674.30 254.34 688.94 279.51 699.65 306.18 C 700.24 302.14 699.94 298.05 700.00 293.98 C 700.01 281.24 699.98 268.50 700.01 255.76 C 685.40 247.88 671.05 239.46 656.23 231.99 Z" />
<path fill="#000000" opacity="1.00" d=" M 482.94 136.40 C 484.06 136.01 485.21 135.64 486.35 135.28 C 486.40 135.97 486.49 137.36 486.53 138.06 C 485.35 137.44 484.08 137.06 482.94 136.40 Z" />
<path fill="#000000" opacity="1.00" d=" M 47.00 278.01 C 57.83 278.00 68.66 278.02 79.49 278.00 C 79.51 283.16 79.51 288.32 79.49 293.48 C 68.66 293.47 57.83 293.51 47.00 293.46 C 47.00 288.31 46.99 283.16 47.00 278.01 Z" />
<path fill="#000000" opacity="1.00" d=" M 47.00 307.01 C 57.83 307.00 68.66 307.02 79.49 307.00 C 79.51 312.15 79.50 317.31 79.50 322.47 C 68.67 322.49 57.83 322.50 47.00 322.46 C 47.00 317.31 47.00 312.16 47.00 307.01 Z" />
<path fill="#000000" opacity="1.00" d=" M 47.00 335.02 C 57.83 335.00 68.66 335.04 79.49 335.01 C 79.52 340.16 79.49 345.31 79.51 350.47 C 68.67 350.51 57.83 350.52 46.99 350.47 C 47.00 345.32 47.00 340.17 47.00 335.02 Z" />
<path fill="#000000" opacity="1.00" d=" M 47.16 365.39 C 57.95 365.68 68.75 365.33 79.54 365.58 C 79.46 370.72 79.54 375.86 79.47 381.00 C 68.65 380.96 57.83 380.98 47.02 380.99 C 47.04 375.79 46.85 370.59 47.16 365.39 Z" />
<path fill="#000000" opacity="1.00" d=" M 48.60 400.00 C 49.35 400.02 50.85 400.07 51.60 400.10 C 51.14 402.77 56.08 406.55 51.72 407.80 C 51.70 409.01 51.70 410.24 51.67 411.47 C 54.10 412.60 54.12 415.73 51.82 417.03 C 51.78 417.71 51.71 419.07 51.67 419.76 C 50.62 419.72 49.57 419.68 48.52 419.66 C 48.54 417.57 48.55 415.49 48.56 413.41 C 47.84 413.92 46.39 414.93 45.67 415.43 C 45.68 413.63 45.69 411.84 45.71 410.05 C 49.51 407.95 48.52 403.59 48.60 400.00 Z" />
<path fill="#000000" opacity="1.00" d=" M 54.70 400.09 C 55.48 400.11 57.05 400.15 57.83 400.17 C 57.88 404.11 57.81 408.06 57.82 412.00 C 57.48 416.24 62.36 417.99 64.39 421.13 C 62.56 421.19 60.73 421.23 58.91 421.30 C 57.44 419.89 55.99 418.45 54.57 417.00 C 54.68 411.36 54.49 405.72 54.70 400.09 Z" />
<path fill="#000000" opacity="1.00" d=" M 59.32 400.10 C 60.85 400.13 62.37 400.14 63.90 400.16 C 64.38 403.69 62.37 408.66 66.11 410.88 C 66.14 407.79 66.18 404.69 66.28 401.60 C 67.31 401.63 68.34 401.66 69.37 401.69 C 73.83 406.04 78.37 410.32 82.64 414.86 C 80.80 414.86 78.96 414.97 77.13 414.76 C 74.26 412.79 72.28 409.78 69.39 407.81 C 69.38 410.02 69.40 412.23 69.47 414.45 C 71.16 415.84 72.71 417.39 73.98 419.19 C 72.10 419.04 70.05 419.58 68.27 418.82 C 66.83 417.62 65.50 416.30 64.22 414.94 C 64.10 415.56 63.85 416.81 63.72 417.44 C 61.67 415.97 60.02 413.98 60.70 411.29 L 59.08 411.63 C 57.81 407.56 62.83 403.53 59.32 400.10 Z" />
<path fill="#000000" opacity="1.00" d=" M 53.33 420.40 C 55.83 419.89 56.84 421.11 56.72 423.42 C 64.02 423.37 71.32 423.40 78.63 423.40 C 80.03 424.78 81.44 426.17 82.84 427.57 C 79.04 427.53 75.24 427.48 71.45 427.63 C 73.23 429.89 75.65 431.62 77.28 433.99 C 77.46 440.79 77.39 447.60 77.27 454.40 C 76.25 453.50 75.22 452.61 74.18 451.75 C 74.17 449.46 74.17 447.17 74.14 444.89 C 72.58 444.87 71.02 444.86 69.46 444.86 C 69.43 446.65 69.40 448.44 69.35 450.24 C 69.72 450.65 70.45 451.47 70.81 451.87 C 66.93 451.90 63.05 451.90 59.18 451.87 C 59.18 449.54 59.18 447.21 59.18 444.89 L 57.87 444.85 C 57.86 446.86 57.86 448.87 57.86 450.89 C 54.77 450.89 51.69 450.89 48.61 450.92 C 47.95 445.55 49.76 439.73 47.56 434.66 C 50.99 434.72 54.42 434.69 57.85 434.73 C 58.31 436.51 56.76 440.52 59.02 440.84 C 59.21 438.43 59.26 436.01 59.28 433.60 C 62.65 433.64 66.02 433.67 69.39 433.71 C 69.40 436.03 69.40 438.36 69.40 440.70 C 70.96 440.73 72.52 440.75 74.07 440.78 C 74.02 439.27 74.46 437.67 73.89 436.23 C 71.17 433.13 68.04 430.41 65.12 427.51 C 62.14 427.53 59.17 427.52 56.20 427.59 C 56.76 428.54 57.22 429.55 57.60 430.60 C 56.19 430.54 54.78 430.50 53.38 430.47 C 53.33 429.74 53.22 428.27 53.17 427.54 C 51.17 427.55 49.16 427.57 47.15 427.61 C 47.15 426.18 47.13 424.77 47.08 423.36 C 49.12 423.37 51.16 423.36 53.20 423.37 C 53.23 422.63 53.29 421.14 53.33 420.40 M 62.53 437.72 C 62.49 438.68 62.44 439.66 62.40 440.64 C 63.60 440.70 64.80 440.76 66.00 440.83 C 66.05 440.08 66.15 438.58 66.19 437.83 C 64.97 437.79 63.75 437.74 62.53 437.72 M 51.74 439.39 C 51.62 441.82 51.71 444.25 51.69 446.69 C 52.66 446.71 53.63 446.74 54.61 446.78 C 54.61 444.26 54.70 441.74 54.58 439.23 C 53.53 438.42 52.59 438.47 51.74 439.39 M 62.37 445.10 C 62.39 445.76 62.43 447.08 62.45 447.74 C 63.66 447.78 64.88 447.83 66.09 447.88 C 66.12 447.11 66.17 445.56 66.20 444.79 C 64.93 444.93 63.65 445.03 62.37 445.10 Z" />
<path fill="#000000" opacity="1.00" d=" M 48.58 453.93 C 52.26 453.89 55.95 453.82 59.62 454.13 C 59.57 456.15 59.54 458.18 59.51 460.22 C 60.32 460.15 61.92 460.01 62.72 459.94 C 62.70 457.93 62.68 455.93 62.67 453.94 C 66.42 454.33 71.31 452.49 73.95 456.06 C 77.56 459.79 81.44 463.26 84.94 467.11 C 82.81 466.88 80.17 467.93 78.42 466.28 C 75.53 463.62 72.86 460.73 70.01 458.04 C 68.63 458.05 67.25 458.06 65.87 458.08 C 65.85 460.16 65.89 462.29 66.82 464.21 C 63.37 464.17 59.92 464.20 56.48 464.20 C 56.48 462.18 56.49 460.17 56.51 458.16 C 54.92 458.12 53.33 458.06 51.75 458.01 C 51.77 464.05 51.61 470.10 51.78 476.14 C 52.67 478.27 54.84 479.50 56.43 481.07 C 56.22 476.87 57.21 472.47 55.59 468.46 C 62.23 468.58 68.87 468.57 75.51 468.48 C 75.72 476.01 75.57 483.55 75.59 491.09 C 75.95 491.56 76.68 492.49 77.04 492.95 C 70.16 492.84 63.27 493.03 56.40 492.83 C 56.42 490.91 56.44 488.99 56.47 487.08 C 54.99 485.57 53.43 484.13 51.85 482.74 C 51.71 489.01 51.54 495.31 51.88 501.57 L 53.46 502.28 C 53.34 503.71 53.94 505.64 52.15 506.35 C 51.20 507.39 51.88 509.05 51.66 510.34 C 53.60 510.57 54.26 513.34 52.92 514.59 C 51.15 515.65 51.88 517.85 51.60 519.53 C 50.57 519.45 49.54 519.38 48.51 519.32 C 48.54 516.86 48.54 514.40 48.60 511.95 C 47.60 512.64 46.60 513.32 45.58 514.00 C 45.06 510.69 45.82 507.61 48.56 505.57 C 48.56 488.35 48.52 471.14 48.58 453.93 M 59.47 488.75 C 63.78 488.87 68.10 488.79 72.41 488.88 C 72.59 483.46 72.47 478.04 72.49 472.62 C 68.20 472.59 63.92 472.62 59.63 472.57 C 59.40 477.96 59.62 483.35 59.47 488.75 Z" />
<path fill="#000000" opacity="1.00" d=" M 62.90 474.83 C 65.10 476.85 67.19 478.99 69.37 481.04 C 69.38 482.92 69.39 484.79 69.39 486.68 C 67.11 484.55 64.49 482.66 62.76 480.01 C 62.40 478.29 62.74 476.54 62.90 474.83 Z" />
<path fill="#000000" opacity="1.00" d=" M 761.52 477.01 C 772.34 477.03 783.17 477.02 794.00 477.02 C 794.00 482.17 793.99 487.32 794.00 492.48 C 783.17 492.51 772.34 492.49 761.52 492.49 C 761.48 487.33 761.48 482.17 761.52 477.01 Z" />
<path fill="#000000" opacity="1.00" d=" M 68.36 495.15 C 70.29 495.15 72.23 495.16 74.16 495.14 C 75.23 496.36 76.79 497.30 77.30 498.91 C 77.52 502.23 77.32 505.57 77.34 508.90 C 75.06 508.89 72.79 508.88 70.51 508.91 C 70.79 510.04 71.34 511.01 72.17 511.82 C 76.43 516.10 80.90 520.18 85.00 524.63 C 83.13 524.63 81.26 524.63 79.40 524.64 C 76.70 522.16 74.19 519.48 71.47 517.03 C 71.15 517.36 70.51 518.03 70.19 518.36 C 66.53 518.55 62.87 518.29 59.22 518.42 C 59.11 511.69 59.21 504.97 59.15 498.24 C 62.87 497.74 67.54 499.82 70.51 496.92 C 69.98 496.48 68.90 495.60 68.36 495.15 M 70.66 504.75 C 71.57 504.76 73.39 504.77 74.30 504.77 C 74.37 502.41 73.85 500.14 72.22 498.37 C 70.08 499.85 70.72 502.52 70.66 504.75 M 62.19 501.91 C 61.86 506.07 61.96 510.25 62.01 514.42 C 62.45 514.29 63.32 514.04 63.75 513.91 C 63.98 510.11 64.07 506.26 63.61 502.48 C 63.26 502.34 62.55 502.05 62.19 501.91 M 66.31 502.56 C 65.80 506.36 65.96 510.23 66.14 514.05 C 66.59 514.08 67.48 514.12 67.93 514.15 C 68.16 510.05 68.13 505.94 67.73 501.87 C 67.38 502.04 66.67 502.39 66.31 502.56 Z" />
<path fill="#000000" opacity="1.00" d=" M 53.58 495.81 C 55.00 495.82 56.43 495.84 57.86 495.86 C 57.86 504.67 57.85 513.48 57.86 522.29 C 60.52 522.32 63.18 522.31 65.85 522.30 C 65.42 521.77 64.57 520.72 64.15 520.19 C 66.14 520.36 68.33 519.87 70.21 520.64 C 72.66 522.97 75.46 525.14 77.28 527.99 C 77.51 534.05 77.30 540.13 77.34 546.20 C 75.19 546.18 73.04 546.18 70.89 546.19 C 72.81 548.09 74.67 550.05 76.50 552.04 C 74.66 552.07 72.80 552.23 70.96 551.98 C 68.74 550.24 66.92 548.06 64.83 546.18 C 61.54 546.23 58.25 546.23 54.96 546.22 C 52.81 544.23 50.71 542.17 48.78 539.97 C 51.14 540.02 53.91 539.25 55.74 541.20 C 57.00 542.55 58.91 542.02 60.54 542.11 C 58.64 540.00 56.63 537.99 54.59 536.02 C 54.61 532.79 54.61 529.56 54.60 526.34 C 52.06 526.34 49.53 526.34 47.00 526.31 C 47.04 524.95 47.09 523.60 47.14 522.25 C 49.58 522.29 52.02 522.32 54.46 522.39 C 54.80 515.93 54.49 509.46 54.62 503.00 C 54.56 500.57 55.04 497.94 53.58 495.81 M 57.84 526.39 C 58.01 528.79 57.36 531.42 58.24 533.70 C 60.93 536.71 63.94 539.43 66.87 542.22 C 69.29 542.15 71.72 542.14 74.14 542.14 C 74.18 538.12 74.19 534.10 74.11 530.09 C 72.78 528.82 71.45 527.55 70.11 526.30 C 66.02 526.39 61.93 526.33 57.84 526.39 Z" />
<path fill="#000000" opacity="1.00" d=" M 761.50 507.52 C 772.33 507.48 783.17 507.48 794.00 507.52 C 793.99 512.68 794.01 517.84 793.99 523.00 C 783.16 522.96 772.34 522.98 761.52 522.99 C 761.48 517.83 761.50 512.68 761.50 507.52 Z" />
<path fill="#000000" opacity="1.00" d=" M 59.73 531.79 C 61.48 531.69 63.24 531.48 64.98 531.72 C 67.55 533.43 69.49 535.88 71.65 538.05 C 69.78 538.05 67.88 538.27 66.03 537.94 C 63.66 536.18 61.75 533.91 59.73 531.79 Z" />
<path fill="#000000" opacity="1.00" d=" M 761.52 535.00 C 772.35 535.02 783.17 535.00 794.00 535.00 C 794.00 540.16 793.99 545.31 794.00 550.47 C 783.17 550.48 772.33 550.50 761.50 550.46 C 761.50 545.30 761.47 540.15 761.52 535.00 Z" />
<path fill="#000000" opacity="1.00" d=" M 58.76 548.07 C 60.51 548.04 62.27 547.96 64.02 548.14 C 65.79 548.93 66.90 550.65 68.18 552.05 C 66.46 552.10 64.72 552.20 63.01 552.03 C 61.15 551.30 60.06 549.48 58.76 548.07 Z" />
<path fill="#000000" opacity="1.00" d=" M 55.31 549.47 C 56.35 549.54 57.38 549.63 58.42 549.71 C 58.41 551.07 58.40 552.44 58.38 553.82 C 64.61 554.01 70.84 553.80 77.07 553.91 C 79.67 553.75 80.94 556.51 82.64 558.00 C 79.20 558.07 75.77 558.05 72.33 558.09 C 73.58 559.38 74.84 560.66 76.11 561.95 C 74.14 561.94 72.17 561.94 70.21 561.95 C 68.84 560.66 67.76 558.91 66.01 558.16 C 63.36 557.83 60.69 558.10 58.04 558.25 C 58.45 559.54 58.90 560.81 59.42 562.07 C 58.00 562.01 56.59 561.95 55.17 561.91 C 55.17 560.61 55.18 559.31 55.18 558.02 C 54.45 558.04 53.00 558.09 52.28 558.11 C 52.31 558.82 52.38 560.24 52.41 560.95 C 51.61 560.93 50.01 560.87 49.21 560.85 C 49.00 557.89 48.81 554.95 48.62 552.00 C 48.25 551.55 47.50 550.66 47.13 550.22 C 48.64 550.25 50.16 550.28 51.68 550.31 C 51.80 551.50 51.93 552.70 52.06 553.90 C 52.82 553.90 54.35 553.91 55.11 553.91 C 55.18 552.42 55.26 550.94 55.31 549.47 Z" />
<path fill="#000000" opacity="1.00" d=" M 761.52 564.00 C 772.34 564.02 783.17 564.01 794.00 564.00 C 794.00 569.15 793.99 574.30 794.01 579.46 C 783.17 579.51 772.34 579.48 761.51 579.47 C 761.49 574.31 761.48 569.15 761.52 564.00 Z" />
<path fill="#000000" opacity="1.00" d=" M 396.68 607.65 C 404.56 600.04 412.14 592.13 420.01 584.50 C 428.05 592.66 436.22 600.68 444.27 608.83 C 445.15 608.47 446.05 608.12 446.95 607.78 C 463.03 601.77 483.28 604.89 494.72 618.35 C 496.67 620.22 497.68 624.08 501.02 623.52 C 531.36 623.49 561.70 623.49 592.03 623.51 C 595.45 623.41 599.13 624.07 602.26 622.30 C 589.41 629.44 576.43 636.35 563.64 643.57 C 544.51 643.40 525.38 643.57 506.25 643.48 C 506.81 646.81 507.36 650.15 507.87 653.49 C 525.52 653.49 543.18 653.53 560.83 653.47 C 560.19 655.60 559.58 657.73 558.96 659.88 C 550.70 664.40 542.38 668.81 534.08 673.26 C 526.97 673.81 519.84 673.34 512.73 673.52 C 511.39 672.17 510.01 670.87 508.61 669.62 C 508.60 670.76 508.48 671.93 508.73 673.07 C 511.45 676.33 514.71 679.09 517.62 682.18 C 512.70 684.82 507.82 687.55 502.82 690.07 C 504.32 681.58 504.86 672.93 504.54 664.33 C 504.08 649.27 501.80 633.04 491.89 621.05 C 480.96 608.14 461.20 605.67 446.20 612.33 C 437.84 615.95 431.41 623.09 427.63 631.28 C 423.53 640.15 421.75 649.90 421.05 659.60 C 420.25 668.76 420.84 678.01 422.34 687.07 C 423.36 692.09 424.33 697.26 426.84 701.79 C 426.61 701.68 426.14 701.47 425.91 701.36 C 424.31 700.53 422.76 699.65 421.21 698.79 C 421.26 698.09 421.36 696.69 421.41 696.00 C 420.47 696.00 418.59 696.00 417.65 696.00 C 417.73 696.76 417.88 698.27 417.96 699.03 C 416.33 699.92 414.69 700.80 413.06 701.69 C 416.16 693.74 415.76 684.68 413.63 676.53 C 411.35 667.65 404.66 660.16 396.12 656.84 C 384.37 651.83 371.35 653.30 358.92 653.08 C 358.86 643.89 359.03 634.69 358.81 625.50 C 376.66 625.90 394.54 625.71 412.39 625.59 C 412.29 620.92 412.31 616.25 412.32 611.59 C 394.06 611.59 375.79 611.55 357.53 611.61 C 351.05 611.56 344.57 611.59 338.09 611.59 C 338.08 630.06 338.08 648.53 338.07 667.00 C 348.73 667.04 359.38 666.92 370.04 667.05 C 377.65 667.27 386.32 669.51 390.41 676.56 C 394.31 683.74 394.48 693.57 389.24 700.15 C 384.37 705.84 376.39 706.95 369.34 707.30 C 353.61 699.05 337.99 690.55 322.34 682.14 C 326.45 677.90 330.63 673.72 334.88 669.63 C 334.70 668.96 334.34 667.63 334.17 666.96 C 331.94 669.00 329.76 671.09 327.66 673.26 C 320.43 673.68 313.14 673.64 305.91 673.25 C 297.61 668.79 289.28 664.40 281.03 659.86 C 280.42 657.72 279.78 655.60 279.17 653.47 C 297.48 653.51 315.80 653.51 334.12 653.48 C 334.18 650.13 334.11 646.79 333.98 643.45 C 314.55 643.67 295.12 643.26 275.70 643.66 C 262.97 637.14 250.57 629.96 237.97 623.19 C 241.63 623.67 245.34 623.51 249.03 623.50 C 277.39 623.48 305.76 623.53 334.13 623.47 C 334.26 619.10 333.68 614.65 334.55 610.34 C 335.38 607.61 338.64 607.63 340.97 607.60 C 358.38 607.65 375.80 607.59 393.21 607.63 C 394.36 607.63 395.52 607.64 396.68 607.65 M 362.87 629.66 C 362.84 632.35 362.86 635.05 363.05 637.75 L 363.76 637.06 C 362.51 638.11 363.08 639.87 362.85 641.28 C 366.94 637.66 370.81 633.77 374.44 629.69 C 372.97 629.69 371.17 629.34 370.16 630.72 L 370.25 630.01 C 367.90 629.19 365.31 629.72 362.87 629.66 Z" />
<path fill="#000000" opacity="1.00" d=" M 761.53 592.00 C 772.35 592.04 783.17 592.01 794.00 592.02 C 794.00 597.17 794.00 602.32 794.00 607.48 C 783.17 607.50 772.34 607.50 761.51 607.48 C 761.50 602.32 761.47 597.16 761.53 592.00 Z" />
<path fill="#000000" opacity="1.00" d=" M 105.04 609.82 C 195.06 659.14 284.98 708.64 374.98 758.01 C 377.59 759.38 380.22 760.76 382.53 762.63 C 394.14 770.27 407.03 775.84 418.79 783.28 C 419.27 783.29 420.24 783.33 420.72 783.35 C 428.78 778.37 437.29 774.13 445.55 769.48 C 449.40 767.21 453.63 765.51 457.09 762.62 C 462.10 759.31 467.57 756.77 472.76 753.77 C 560.17 705.80 647.52 657.72 734.96 609.82 C 735.02 626.49 735.04 643.16 734.95 659.82 C 629.94 717.39 525.00 775.11 420.01 832.74 C 315.01 775.13 210.06 717.39 105.04 659.81 C 104.97 643.14 104.97 626.48 105.04 609.82 Z" />
<path fill="#000000" opacity="1.00" d=" M 761.50 622.53 C 772.33 622.48 783.17 622.48 794.01 622.52 C 793.99 627.68 794.01 632.83 793.99 637.99 C 783.17 637.97 772.34 637.97 761.52 637.99 C 761.47 632.83 761.50 627.68 761.50 622.53 Z" />
<path fill="#000000" opacity="1.00" d=" M 454.43 626.34 C 460.47 622.49 469.50 623.04 474.23 628.73 C 479.11 634.46 480.58 642.17 481.66 649.40 C 482.97 661.82 483.11 674.44 481.45 686.84 C 480.52 693.29 478.60 699.73 474.77 705.09 C 471.71 706.90 468.56 708.57 465.37 710.14 C 459.68 710.45 453.65 708.46 450.34 703.58 C 444.31 694.98 443.44 684.02 442.87 673.85 C 442.56 663.88 442.67 653.80 444.74 644.01 C 446.21 637.42 448.62 630.33 454.43 626.34 M 463.49 627.83 C 467.50 632.01 471.43 636.34 475.91 640.02 C 473.97 634.54 469.92 628.01 463.49 627.83 Z" />
<path fill="#000000" opacity="1.00" d=" M 412.18 704.70 C 413.97 703.59 415.86 702.67 417.75 701.77 C 417.81 704.66 417.79 707.55 417.66 710.44 C 416.10 711.77 414.57 713.13 413.05 714.50 C 411.91 713.41 410.76 712.35 409.66 711.24 C 409.06 711.37 407.85 711.62 407.24 711.75 C 407.61 713.09 407.99 714.45 408.37 715.81 C 404.78 717.50 401.42 719.69 398.82 722.72 C 400.07 724.10 402.24 725.87 400.89 727.94 C 399.96 730.58 396.79 729.42 394.85 728.85 C 393.64 733.24 392.07 737.85 393.36 742.42 C 394.65 749.53 399.13 756.15 405.96 758.93 C 403.96 755.54 401.63 752.12 401.28 748.09 C 400.53 744.20 401.85 740.42 402.62 736.67 C 400.92 738.72 399.46 740.95 398.22 743.31 C 398.35 734.98 403.60 726.77 411.70 724.20 C 410.91 725.54 410.12 726.88 409.32 728.23 C 410.66 729.43 411.99 730.66 413.32 731.90 C 413.28 733.23 413.25 734.56 413.22 735.91 C 413.59 736.42 414.31 737.43 414.67 737.94 C 411.57 742.33 412.90 747.92 412.62 752.94 C 409.93 750.84 407.59 748.35 405.33 745.82 C 406.28 750.26 408.36 754.33 411.06 757.95 C 410.86 765.40 412.77 773.00 417.09 779.16 C 406.38 773.46 395.81 767.52 385.15 761.76 C 384.76 747.83 385.41 733.89 384.80 719.97 C 393.91 714.85 403.26 710.14 412.18 704.70 Z" />
<path fill="#000000" opacity="1.00" d=" M 421.38 702.10 C 421.95 702.16 423.09 702.28 423.66 702.34 C 432.65 708.04 442.10 713.01 451.53 717.94 C 452.22 718.28 453.58 718.95 454.27 719.29 C 454.87 733.23 454.20 747.20 454.60 761.16 C 453.31 762.04 452.04 762.98 450.74 763.85 C 443.17 768.04 435.48 772.03 428.02 776.40 C 426.10 777.22 424.17 778.04 422.27 778.91 C 425.47 774.38 427.34 769.16 427.69 763.62 C 432.64 762.01 437.30 759.47 440.77 755.51 C 438.90 754.12 437.14 751.30 439.29 749.38 C 440.77 747.57 442.81 749.16 444.52 749.61 C 449.43 738.59 444.85 723.63 433.15 719.16 C 435.55 722.39 437.68 725.95 438.27 730.00 C 439.16 733.84 437.64 737.63 437.07 741.41 C 438.78 739.35 440.08 737.01 441.32 734.65 C 441.28 743.96 434.79 752.60 425.70 754.89 C 427.05 749.50 427.48 743.23 424.79 738.20 C 425.59 736.02 426.01 733.74 426.57 731.50 C 427.48 730.02 429.04 729.15 430.36 728.08 C 431.55 729.47 432.74 730.89 433.97 732.28 C 433.31 728.11 431.33 724.35 428.95 720.94 C 430.09 717.92 431.16 714.88 432.10 711.80 C 431.36 711.72 429.87 711.55 429.12 711.47 C 428.13 712.49 427.13 713.52 426.13 714.55 C 424.58 713.14 423.02 711.74 421.44 710.36 C 421.41 707.60 421.41 704.85 421.38 702.10 Z" />
</g>
<g id="#bb7700cd">
<path fill="#bb7700" opacity="0.80" d=" M 374.50 82.54 C 378.32 77.84 382.68 73.53 387.31 69.63 C 386.65 73.82 381.97 75.80 379.66 79.13 C 378.51 80.27 377.28 81.33 375.95 82.25 L 374.50 82.54 Z" />
</g>
<g id="#bc7302f9">
<path fill="#bc7302" opacity="0.98" d=" M 446.00 70.06 C 447.74 71.79 449.63 73.36 451.41 75.05 C 455.78 80.10 460.83 84.49 465.32 89.43 C 463.24 91.42 461.17 93.40 459.13 95.42 C 458.82 95.72 458.52 96.02 458.23 96.33 C 453.24 101.65 447.94 106.66 442.88 111.90 C 441.81 112.82 440.69 113.67 439.59 114.54 C 439.61 114.01 439.65 112.94 439.67 112.41 C 445.70 106.89 451.26 100.87 457.19 95.23 C 457.41 95.02 457.87 94.59 458.10 94.38 C 459.90 92.69 461.58 90.88 463.28 89.08 C 457.39 83.37 451.58 77.57 445.90 71.66 C 445.93 71.26 445.98 70.46 446.00 70.06 Z" />
</g>
<g id="#e0d777ff">
<path fill="#e0d777" opacity="1.00" d=" M 401.71 71.36 C 402.55 71.11 403.37 71.20 404.17 71.62 C 403.80 71.98 403.07 72.69 402.70 73.04 L 401.80 72.35 L 401.71 71.36 Z" />
</g>
<g id="#464646ff">
<path fill="#464646" opacity="1.00" d=" M 404.88 71.63 C 413.63 71.43 422.38 71.59 431.13 71.55 C 422.65 86.77 413.76 101.76 405.20 116.93 C 404.69 116.93 403.67 116.94 403.16 116.94 L 402.34 116.06 C 410.39 102.00 418.79 88.12 426.55 73.89 C 419.07 73.60 411.58 74.05 404.10 73.75 C 404.30 73.22 404.69 72.16 404.88 71.63 Z" />
</g>
<g id="#ca654bff">
<path fill="#ca654b" opacity="1.00" d=" M 398.86 75.58 C 399.85 74.52 400.84 73.45 401.80 72.35 L 402.70 73.04 C 403.05 73.22 403.75 73.57 404.10 73.75 C 411.58 74.05 419.07 73.60 426.55 73.89 C 418.79 88.12 410.39 102.00 402.34 116.06 C 401.45 115.08 400.60 114.07 399.73 113.09 C 406.98 100.77 414.05 88.35 421.03 75.88 C 414.13 75.43 407.21 75.80 400.30 75.57 L 398.86 75.58 Z" />
<path fill="#ca654b" opacity="1.00" d=" M 454.27 719.29 C 454.41 719.46 454.69 719.80 454.82 719.97 C 454.74 733.96 454.79 747.95 454.80 761.95 C 453.44 762.57 452.08 763.19 450.74 763.85 C 452.04 762.98 453.31 762.04 454.60 761.16 C 454.20 747.20 454.87 733.23 454.27 719.29 Z" />
<path fill="#ca654b" opacity="1.00" d=" M 384.65 761.45 C 384.66 747.62 384.40 733.79 384.80 719.97 C 385.41 733.89 384.76 747.83 385.15 761.76 L 384.65 761.45 Z" />
</g>
<g id="#fffcc4ff">
<path fill="#fffcc4" opacity="1.00" d=" M 380.85 93.91 C 386.55 87.51 393.00 81.83 398.86 75.58 L 400.30 75.57 C 393.98 81.89 387.80 88.35 381.39 94.57 C 381.12 94.84 380.59 95.38 380.32 95.65 C 377.93 98.18 375.51 100.69 373.02 103.12 C 377.46 107.61 382.01 111.99 386.34 116.58 C 386.85 116.82 387.86 117.32 388.37 117.57 C 388.44 118.29 388.60 119.72 388.67 120.44 C 382.81 114.73 377.06 108.90 371.27 103.11 C 374.02 100.45 376.65 97.67 379.55 95.17 C 379.76 94.98 380.18 94.59 380.39 94.39 L 380.85 93.91 Z" />
<path fill="#fffcc4" opacity="1.00" d=" M 446.20 612.33 C 461.20 605.67 480.96 608.14 491.89 621.05 C 501.80 633.04 504.08 649.27 504.54 664.33 C 502.43 663.24 500.48 661.90 498.74 660.30 C 495.93 657.52 491.59 656.93 489.19 653.65 C 488.46 653.25 487.75 652.87 487.04 652.49 C 485.60 650.88 483.88 649.56 481.66 649.40 C 480.58 642.17 479.11 634.46 474.23 628.73 C 469.50 623.04 460.47 622.49 454.43 626.34 C 448.62 630.33 446.21 637.42 444.74 644.01 C 440.19 638.38 433.33 635.51 427.63 631.28 C 431.41 623.09 437.84 615.95 446.20 612.33 Z" />
</g>
<g id="#b92806ff">
<path fill="#b92806" opacity="1.00" d=" M 400.30 75.57 C 407.21 75.80 414.13 75.43 421.03 75.88 C 414.05 88.35 406.98 100.77 399.73 113.09 C 393.79 106.75 387.38 100.87 381.39 94.57 C 387.80 88.35 393.98 81.89 400.30 75.57 Z" />
</g>
<g id="#be3006ff">
<path fill="#be3006" opacity="1.00" d=" M 425.73 107.50 C 430.63 97.85 436.30 88.58 441.77 79.24 C 446.64 84.82 452.09 89.86 457.19 95.23 C 451.26 100.87 445.70 106.89 439.67 112.41 C 439.66 110.76 439.63 109.11 439.61 107.47 C 439.01 107.44 437.79 107.37 437.19 107.34 C 437.06 108.56 436.94 109.78 436.83 111.01 C 436.11 110.98 434.67 110.94 433.96 110.91 C 433.93 110.00 433.87 108.16 433.84 107.25 C 433.19 107.39 431.91 107.68 431.27 107.83 C 431.07 110.90 431.23 113.98 431.37 117.05 C 430.44 117.05 428.57 117.06 427.63 117.06 C 427.72 114.74 427.80 112.43 427.88 110.12 C 428.49 110.11 429.72 110.09 430.34 110.08 C 430.33 109.42 430.33 108.09 430.33 107.43 C 428.79 107.45 427.26 107.48 425.73 107.50 M 445.89 100.86 C 444.00 102.90 441.59 104.61 440.59 107.31 C 443.31 106.34 444.93 103.81 446.97 101.92 C 449.11 99.55 452.01 97.72 453.24 94.64 C 450.15 95.85 448.19 98.63 445.89 100.86 Z" />
</g>
<g id="#dd7f05ff">
<path fill="#dd7f05" opacity="1.00" d=" M 380.32 95.65 C 380.59 95.38 381.12 94.84 381.39 94.57 C 387.38 100.87 393.79 106.75 399.73 113.09 C 400.60 114.07 401.45 115.08 402.34 116.06 L 403.16 116.94 C 402.73 116.93 401.88 116.90 401.45 116.89 C 400.35 115.92 399.30 114.91 398.27 113.88 C 392.30 107.78 386.35 101.67 380.32 95.65 Z" />
</g>
<g id="#e37f02ff">
<path fill="#e37f02" opacity="1.00" d=" M 445.89 100.86 C 448.19 98.63 450.15 95.85 453.24 94.64 C 452.01 97.72 449.11 99.55 446.97 101.92 C 444.93 103.81 443.31 106.34 440.59 107.31 C 441.59 104.61 444.00 102.90 445.89 100.86 Z" />
</g>
<g id="#bb2906ff">
<path fill="#bb2906" opacity="1.00" d=" M 373.02 103.12 C 375.51 100.69 377.93 98.18 380.32 95.65 C 386.35 101.67 392.30 107.78 398.27 113.88 C 396.65 113.93 395.04 114.00 393.44 113.97 C 389.30 109.70 385.47 105.00 380.53 101.62 C 382.85 106.50 387.62 109.54 391.08 113.55 C 389.50 114.57 387.92 115.57 386.34 116.58 C 382.01 111.99 377.46 107.61 373.02 103.12 Z" />
</g>
<g id="#c53706ff">
<path fill="#c53706" opacity="1.00" d=" M 442.88 111.90 C 447.94 106.66 453.24 101.65 458.23 96.33 C 460.56 98.56 462.85 100.84 465.12 103.14 C 460.56 107.64 456.05 112.18 451.61 116.78 L 451.23 116.95 C 449.14 114.29 445.80 113.30 442.88 111.90 Z" />
</g>
<g id="#996200ff">
<path fill="#996200" opacity="1.00" d=" M 463.54 109.47 C 466.81 106.56 469.42 102.87 473.16 100.52 C 473.13 102.87 471.07 104.18 469.63 105.70 C 466.69 108.40 464.16 111.54 461.00 113.99 C 460.25 111.92 462.41 110.82 463.54 109.47 Z" />
</g>
<g id="#e38302ff">
<path fill="#e38302" opacity="1.00" d=" M 380.53 101.62 C 385.47 105.00 389.30 109.70 393.44 113.97 C 392.85 113.86 391.67 113.65 391.08 113.55 C 387.62 109.54 382.85 106.50 380.53 101.62 Z" />
</g>
<g id="#f9fcfcff">
<path fill="#f9fcfc" opacity="1.00" d=" M 437.19 107.34 C 437.79 107.37 439.01 107.44 439.61 107.47 C 439.63 109.11 439.66 110.76 439.67 112.41 C 439.65 112.94 439.61 114.01 439.59 114.54 C 439.56 115.15 439.51 116.36 439.49 116.97 C 438.94 116.97 437.84 116.97 437.29 116.97 C 437.24 116.14 437.15 114.48 437.11 113.65 C 436.28 113.64 434.63 113.64 433.81 113.63 C 433.77 114.48 433.68 116.18 433.63 117.03 C 433.07 117.03 431.94 117.05 431.37 117.05 C 431.23 113.98 431.07 110.90 431.27 107.83 C 431.91 107.68 433.19 107.39 433.84 107.25 C 433.87 108.16 433.93 110.00 433.96 110.91 C 434.67 110.94 436.11 110.98 436.83 111.01 C 436.94 109.78 437.06 108.56 437.19 107.34 Z" />
</g>
<g id="#ab310dff">
<path fill="#ab310d" opacity="1.00" d=" M 419.69 116.90 C 421.33 114.36 422.81 111.67 424.97 109.51 C 425.16 112.01 425.27 114.53 425.36 117.04 C 423.46 117.02 421.57 116.99 419.69 116.90 Z" />
</g>
<g id="#a8350dff">
<path fill="#a8350d" opacity="1.00" d=" M 439.59 114.54 C 440.69 113.67 441.81 112.82 442.88 111.90 C 445.80 113.30 449.14 114.29 451.23 116.95 C 450.80 117.22 449.96 117.75 449.53 118.02 C 446.49 116.34 442.81 117.27 439.49 116.97 C 439.51 116.36 439.56 115.15 439.59 114.54 Z" />
</g>
<g id="#a22e0eff">
<path fill="#a22e0e" opacity="1.00" d=" M 386.34 116.58 C 387.92 115.57 389.50 114.57 391.08 113.55 C 391.67 113.65 392.85 113.86 393.44 113.97 C 395.04 114.00 396.65 113.93 398.27 113.88 C 399.30 114.91 400.35 115.92 401.45 116.89 C 397.08 116.82 392.70 116.97 388.37 117.57 C 387.86 117.32 386.85 116.82 386.34 116.58 Z" />
</g>
<g id="#a63910ff">
<path fill="#a63910" opacity="1.00" d=" M 433.81 113.63 C 434.63 113.64 436.28 113.64 437.11 113.65 C 437.15 114.48 437.24 116.14 437.29 116.97 C 436.37 116.99 434.55 117.01 433.63 117.03 C 433.68 116.18 433.77 114.48 433.81 113.63 Z" />
</g>
<g id="#0000000e">
<path fill="#000000" opacity="0.05" d=" M 70.66 504.75 C 70.72 502.52 70.08 499.85 72.22 498.37 C 73.85 500.14 74.37 502.41 74.30 504.77 C 73.39 504.77 71.57 504.76 70.66 504.75 Z" />
</g>
<g id="#0000008f">
<path fill="#000000" opacity="0.56" d=" M 62.19 501.91 C 62.55 502.05 63.26 502.34 63.61 502.48 C 64.07 506.26 63.98 510.11 63.75 513.91 C 63.32 514.04 62.45 514.29 62.01 514.42 C 61.96 510.25 61.86 506.07 62.19 501.91 Z" />
</g>
<g id="#00000085">
<path fill="#000000" opacity="0.52" d=" M 66.31 502.56 C 66.67 502.39 67.38 502.04 67.73 501.87 C 68.13 505.94 68.16 510.05 67.93 514.15 C 67.48 514.12 66.59 514.08 66.14 514.05 C 65.96 510.23 65.80 506.36 66.31 502.56 Z" />
</g>
<g id="#fffddcff">
<path fill="#fffddc" opacity="1.00" d=" M 338.09 611.59 C 344.57 611.59 351.05 611.56 357.53 611.61 C 360.47 612.72 363.08 614.52 365.10 616.94 C 370.09 618.12 373.20 622.60 377.75 624.69 C 371.45 625.14 364.99 623.92 358.81 625.50 C 359.03 634.69 358.86 643.89 358.92 653.08 C 371.35 653.30 384.37 651.83 396.12 656.84 C 404.66 660.16 411.35 667.65 413.63 676.53 C 415.76 684.68 416.16 693.74 413.06 701.69 L 412.37 702.08 C 403.48 706.62 394.61 711.27 386.17 716.60 C 386.14 716.60 386.08 716.61 386.05 716.62 C 380.83 712.94 374.92 710.39 369.34 707.30 C 376.39 706.95 384.37 705.84 389.24 700.15 C 394.48 693.57 394.31 683.74 390.41 676.56 C 386.32 669.51 377.65 667.27 370.04 667.05 C 359.38 666.92 348.73 667.04 338.07 667.00 C 338.08 648.53 338.08 630.06 338.09 611.59 Z" />
</g>
<g id="#fffcd0ff">
<path fill="#fffcd0" opacity="1.00" d=" M 357.53 611.61 C 375.79 611.55 394.06 611.59 412.32 611.59 C 412.31 616.25 412.29 620.92 412.39 625.59 C 394.54 625.71 376.66 625.90 358.81 625.50 C 364.99 623.92 371.45 625.14 377.75 624.69 C 373.20 622.60 370.09 618.12 365.10 616.94 C 363.08 614.52 360.47 612.72 357.53 611.61 Z" />
</g>
<g id="#fffcd1ff">
<path fill="#fffcd1" opacity="1.00" d=" M 421.05 659.60 C 421.75 649.90 423.53 640.15 427.63 631.28 C 433.33 635.51 440.19 638.38 444.74 644.01 C 442.67 653.80 442.56 663.88 442.87 673.85 C 440.12 671.27 436.97 669.21 433.79 667.22 C 429.57 664.63 425.96 660.90 421.05 659.60 Z" />
</g>
<g id="#fffccdff">
<path fill="#fffccd" opacity="1.00" d=" M 481.66 649.40 C 483.88 649.56 485.60 650.88 487.04 652.49 C 487.75 652.87 488.46 653.25 489.19 653.65 C 491.59 656.93 495.93 657.52 498.74 660.30 C 500.48 661.90 502.43 663.24 504.54 664.33 C 504.86 672.93 504.32 681.58 502.82 690.07 C 493.42 694.97 484.09 700.02 474.77 705.09 C 478.60 699.73 480.52 693.29 481.45 686.84 C 483.11 674.44 482.97 661.82 481.66 649.40 Z" />
</g>
<g id="#fffdd9ff">
<path fill="#fffdd9" opacity="1.00" d=" M 421.05 659.60 C 425.96 660.90 429.57 664.63 433.79 667.22 C 436.97 669.21 440.12 671.27 442.87 673.85 C 443.44 684.02 444.31 694.98 450.34 703.58 C 453.65 708.46 459.68 710.45 465.37 710.14 C 461.46 712.16 457.48 714.09 453.77 716.49 L 453.67 716.44 C 444.83 711.37 435.92 706.40 426.84 701.79 C 424.33 697.26 423.36 692.09 422.34 687.07 C 420.84 678.01 420.25 668.76 421.05 659.60 Z" />
</g>
<g id="#cf3042fc">
<path fill="#cf3042" opacity="1.00" d=" M 386.17 716.60 C 394.61 711.27 403.48 706.62 412.37 702.08 C 412.32 702.74 412.23 704.05 412.18 704.70 C 403.26 710.14 393.91 714.85 384.80 719.97 C 385.95 719.00 387.12 718.05 388.32 717.15 L 386.17 716.60 Z" />
</g>
<g id="#d3283bfb">
<path fill="#d3283b" opacity="1.00" d=" M 423.66 702.34 L 425.91 701.36 C 426.14 701.47 426.61 701.68 426.84 701.79 C 435.92 706.40 444.83 711.37 453.67 716.44 C 453.13 716.81 452.07 717.56 451.53 717.94 C 442.10 713.01 432.65 708.04 423.66 702.34 Z" />
</g>
</svg>
