<svg xmlns="http://www.w3.org/2000/svg" xmlns:xlink="http://www.w3.org/1999/xlink" viewBox="0 0 210 210"><defs><style>.cls-1{fill:url(#未命名的渐变_53);}.cls-2{fill:#ff789e;}.cls-3{fill:#f9648f;}.cls-4{fill:url(#未命名的渐变_126);}.cls-5{fill:#fff;}.cls-6{fill:url(#未命名的渐变_40);}.cls-7{fill:url(#未命名的渐变_40-2);}.cls-8{fill:url(#未命名的渐变_43);}.cls-9{fill:url(#未命名的渐变_43-2);}.cls-10{fill:#b4c2b1;}.cls-11{fill:url(#未命名的渐变_40-3);}.cls-12{fill:url(#未命名的渐变_53-2);}.cls-13{fill:url(#未命名的渐变_40-4);}.cls-14{fill:url(#未命名的渐变_40-5);}.cls-15{fill:url(#未命名的渐变_43-3);}.cls-16{fill:url(#未命名的渐变_43-4);}.cls-17{fill:url(#未命名的渐变_40-6);}</style><linearGradient id="未命名的渐变_53" x1="172.84" y1="80.95" x2="172.84" y2="206.42" gradientUnits="userSpaceOnUse"><stop offset="0" stop-color="#f3cad8"/><stop offset="1" stop-color="#f0597e"/></linearGradient><linearGradient id="未命名的渐变_126" x1="105" y1="195" x2="105" y2="15" gradientUnits="userSpaceOnUse"><stop offset="0" stop-color="#ffc5cb"/><stop offset="0.02" stop-color="#ffc9ce" stop-opacity="0.94"/><stop offset="0.13" stop-color="#ffd9dd" stop-opacity="0.66"/><stop offset="0.22" stop-color="#ffe6e9" stop-opacity="0.42"/><stop offset="0.31" stop-color="#fff1f3" stop-opacity="0.24"/><stop offset="0.39" stop-color="#fff9f9" stop-opacity="0.11"/><stop offset="0.46" stop-color="#fffdfd" stop-opacity="0.03"/><stop offset="0.5" stop-color="#fff" stop-opacity="0"/><stop offset="0.54" stop-color="#fffdfd" stop-opacity="0.03"/><stop offset="0.61" stop-color="#fff9f9" stop-opacity="0.11"/><stop offset="0.69" stop-color="#fff1f3" stop-opacity="0.24"/><stop offset="0.78" stop-color="#ffe6e9" stop-opacity="0.42"/><stop offset="0.87" stop-color="#ffd9dd" stop-opacity="0.66"/><stop offset="0.98" stop-color="#ffc9ce" stop-opacity="0.94"/><stop offset="1" stop-color="#ffc5cb"/></linearGradient><linearGradient id="未命名的渐变_40" x1="167.67" y1="178.77" x2="188.85" y2="178.77" gradientUnits="userSpaceOnUse"><stop offset="0" stop-color="#fdb8cd"/><stop offset="1" stop-color="#fd8baa"/></linearGradient><linearGradient id="未命名的渐变_40-2" x1="169.9" y1="177.66" x2="182.4" y2="177.66" xlink:href="#未命名的渐变_40"/><linearGradient id="未命名的渐变_43" x1="155.52" y1="171.68" x2="165.78" y2="171.68" gradientUnits="userSpaceOnUse"><stop offset="0" stop-color="#ffc8d7"/><stop offset="1" stop-color="#ffc2d2"/></linearGradient><linearGradient id="未命名的渐变_43-2" x1="154.25" y1="184.58" x2="154.25" y2="168.76" xlink:href="#未命名的渐变_43"/><linearGradient id="未命名的渐变_40-3" x1="146.26" y1="174.86" x2="177.55" y2="174.86" xlink:href="#未命名的渐变_40"/><linearGradient id="未命名的渐变_53-2" x1="59.25" y1="80.95" x2="59.25" y2="206.42" gradientTransform="matrix(-1, 0, 0, 1, 96.5, 0)" xlink:href="#未命名的渐变_53"/><linearGradient id="未命名的渐变_40-4" x1="54.08" y1="178.77" x2="75.26" y2="178.77" gradientTransform="matrix(-1, 0, 0, 1, 96.5, 0)" xlink:href="#未命名的渐变_40"/><linearGradient id="未命名的渐变_40-5" x1="56.31" y1="177.66" x2="68.81" y2="177.66" gradientTransform="matrix(-1, 0, 0, 1, 96.5, 0)" xlink:href="#未命名的渐变_40"/><linearGradient id="未命名的渐变_43-3" x1="41.93" y1="171.68" x2="52.19" y2="171.68" gradientTransform="matrix(-1, 0, 0, 1, 96.5, 0)" xlink:href="#未命名的渐变_43"/><linearGradient id="未命名的渐变_43-4" x1="40.66" y1="184.58" x2="40.66" y2="168.76" gradientTransform="matrix(-1, 0, 0, 1, 96.5, 0)" xlink:href="#未命名的渐变_43"/><linearGradient id="未命名的渐变_40-6" x1="32.67" y1="174.86" x2="63.97" y2="174.86" gradientTransform="matrix(-1, 0, 0, 1, 96.5, 0)" xlink:href="#未命名的渐变_40"/></defs><g id="图层_7" data-name="图层 7"><path class="cls-1" d="M193.7,206.41c.54-.28-.28-6.89-4.47-9.06s-7.46,2.11-13.4,1c-3.91-.72-6.27-3.33-11-8.56-8.17-9.06-7.95-14-13.53-15.95-3.84-1.33-9.09-.77-11,2.17s.15,7,1.28,9.32c3.33,6.88,9.84,9.53,11.74,10.21,3,1.06,7.19,2.58,10.73.38a8.74,8.74,0,0,0,3.95-6.38c.47-4.8-3.89-7.28-9.95-14.94-5.08-6.41-10.84-13.69-8.94-19.27,1.27-3.73,5.48-5.33,10-7,13.19-5,20.57.5,27.83-4.73,5-3.61,6.34-9.74,7-12.89,2.11-9.79-3.09-13.5-3.83-28.6-.29-5.73-.74-14.86,3.57-16.85,2.68-1.24,7.6.1,10.85,2.43A13.52,13.52,0,0,1,206.09,89a9.09,9.09,0,0,0-2.56-5.74c-4-3.8-12.2-2.49-16.21,1.4-6.34,6.16-2.89,19.36.38,26.3,3.75,8,7.28,7.77,8.94,14.3,2,7.74-.47,18-7.15,22.72-5.69,4-13.63,3.5-18.13,3.19-6.4-.43-9.34-2.19-13.4-.25-.28.13-5.43,2.69-6.51,7.79s3,7.79,7.91,19.53c2.64,6.26,4,9.56,2.43,11.49-2.07,2.56-8.36,1.52-12.26-1.28-2.69-1.93-5.48-5.6-4.47-7.4s6.25-1.87,10.09.12c7.27,3.79,4.25,11.92,12,17.75.78.59,8.31,6.25,15.45,4.34,2.07-.56,4.15-1.77,6.63-.89C192.25,203.38,193.31,206.61,193.7,206.41Z"/><path class="cls-2" d="M109.25,37.94h-1.76V36.82A2.33,2.33,0,0,0,105,34.63h0a2.34,2.34,0,0,0-2.46,2.19h0v1.12h-1.76a.66.66,0,0,0-.68.61,2.49,2.49,0,0,0,2.63,2.34h4.56A2.49,2.49,0,0,0,110,38.55a.65.65,0,0,0-.68-.61Z"/><ellipse class="cls-2" cx="67.31" cy="28.24" rx="2.24" ry="2"/><ellipse class="cls-2" cx="75.84" cy="15.82" rx="2.24" ry="2"/><ellipse class="cls-2" cx="88.25" cy="6.58" rx="2.24" ry="2"/><ellipse class="cls-2" cx="104.99" cy="2.01" rx="2.24" ry="2"/><path class="cls-2" d="M118.48,33.21a.82.82,0,0,0-1-.23L112,35.91l-.56-1,4.67-3.07a.62.62,0,0,0,.17-.93l0,0-.43-.46a.82.82,0,0,0-1.07-.08h0l-4.4,3.44-1-.86L113,29.08a.62.62,0,0,0-.07-.95h0l-.29-.23a.82.82,0,0,0-1.07.06h0l-3.74,3.87-.82-.44,2.76-4a.63.63,0,0,0-.25-.93l0,0-.39-.18a.81.81,0,0,0-1,.29v0l-2.39,4.23.1-4.47a.71.71,0,0,0-.73-.68h0a.72.72,0,0,0-.74.68h0l.1,4.47L102,26.54a.79.79,0,0,0-1-.31h0l-.39.18a.63.63,0,0,0-.32.91s0,0,0,0l2.71,4-.79.44L98.5,28a.83.83,0,0,0-1.07-.07h0l-.29.24a.61.61,0,0,0-.07.94h0l3.71,3.79-1,.86-4.41-3.43a.82.82,0,0,0-1.06.07h0l-.43.46a.61.61,0,0,0,.09.94l0,0,4.67,3.07-.54,1.05L92.64,33a.81.81,0,0,0-1,.23l-1,1.42a.62.62,0,0,0,.26.92,1,1,0,0,0,.18.07l8.64,2.25a.35.35,0,0,0,.41-.24s0,0,0,0a4.14,4.14,0,0,1,4.35-3.88h1.12A4.14,4.14,0,0,1,110,37.59a.3.3,0,0,0,.31.29h.1L119,35.62a.66.66,0,0,0,.51-.84.51.51,0,0,0-.07-.15Z"/><path class="cls-2" d="M139,29.59l-5.31-5.13a2.75,2.75,0,0,1-.83-1.56l-.63-4.19A3,3,0,0,0,130,16.37l-4.92-1.43a3.2,3.2,0,0,1-1.71-1.14l-2.52-3.39a3.37,3.37,0,0,0-2.69-1.29h-4.78a3.52,3.52,0,0,1-1.75-.46l-3.69-2.15a6,6,0,0,0-5.88,0L98.34,8.66a3.52,3.52,0,0,1-1.75.46H91.81a3.34,3.34,0,0,0-2.69,1.29l-2.5,3.39a3.2,3.2,0,0,1-1.71,1.14L80,16.37a3,3,0,0,0-2.2,2.34l-.64,4.19a2.68,2.68,0,0,1-.82,1.56L71,29.59a.87.87,0,0,0,.08,1.32.89.89,0,0,0,.4.2l16.85,4.37h0a20.93,20.93,0,0,1,8.23-9.07A17.34,17.34,0,0,1,104.34,24L105,24h0l.66.05a17.34,17.34,0,0,1,7.76,2.39,20.93,20.93,0,0,1,8.23,9.07h0l16.85-4.36a.92.92,0,0,0,.71-1.15A.89.89,0,0,0,139,29.59ZM80.5,25.31a.46.46,0,1,1,.51-.46A.48.48,0,0,1,80.5,25.31Zm6.85,1.42a.76.76,0,1,1,0-1.52.77.77,0,1,1,0,1.52Zm.76-7.3a.64.64,0,0,1-.68-.61.68.68,0,0,1,1.36,0,.64.64,0,0,1-.68.61h0Zm31.15,4.3a2.81,2.81,0,0,1-2,.61h-.35a5.85,5.85,0,0,1-1.94-.36.58.58,0,0,1-.37-.79.7.7,0,0,1,.88-.33,4.53,4.53,0,0,0,1.46.26c.51,0,1.15,0,1.37-.18s.14-1.43-.62-2.06a2.32,2.32,0,0,0-1.09-.46,6.32,6.32,0,0,1-.62-.18,4.1,4.1,0,0,1-2,1.27,4,4,0,0,1-3-.56,2.86,2.86,0,0,1-2.16,1l-.34,0a2.8,2.8,0,0,1-2-1.34.57.57,0,0,1,.3-.81.71.71,0,0,1,.92.26,1.37,1.37,0,0,0,2.44-.12,2.81,2.81,0,0,1-.06-2.13,3,3,0,0,1,1.07-1.31,1.55,1.55,0,0,0,.27-.24s-.08-.53-2.67-1.47l-.07,0a5.36,5.36,0,0,1-1.24.43,4.09,4.09,0,0,1-.85.09,2.41,2.41,0,0,1-1-.21,2.36,2.36,0,0,1-1,.21,4,4,0,0,1-.85-.09,5.28,5.28,0,0,1-1.25-.43l-.07,0c-2.59.94-2.67,1.47-2.67,1.47a1.61,1.61,0,0,0,.28.24A3,3,0,0,1,101,17.77a2.85,2.85,0,0,1,0,2.13,1.36,1.36,0,0,0,2.43.12.71.71,0,0,1,.92-.26.57.57,0,0,1,.3.81h0a2.8,2.8,0,0,1-2,1.34l-.34,0A2.86,2.86,0,0,1,100,21a3.9,3.9,0,0,1-3.06.54,4,4,0,0,1-2-1.27,3.38,3.38,0,0,1-.62.18,2.36,2.36,0,0,0-1.09.46c-.75.63-.94,1.75-.61,2.06s.84.19,1.36.19a4.54,4.54,0,0,0,1.46-.27.72.72,0,0,1,.89.34A.59.59,0,0,1,96,24a6.4,6.4,0,0,1-1.94.36h-.34a2.77,2.77,0,0,1-2.05-.61c-1-1-.41-2.84.68-3.76A3.77,3.77,0,0,1,94,19.21l.21-.05a6.35,6.35,0,0,1-.81-2,.72.72,0,0,1,.34-.83.85.85,0,0,1,.76,0,3.15,3.15,0,0,1,1.39,2.43v.06a1.71,1.71,0,0,1,0,.45,2.81,2.81,0,0,0,1.48,1,2.27,2.27,0,0,0,2.09-.59,1.62,1.62,0,0,0,.2-1.57,1.81,1.81,0,0,0-.68-.8,1.53,1.53,0,0,1-.73-1.07c-.07-.87.85-1.65,3-2.47a1.56,1.56,0,0,1-.32-1.11A2.55,2.55,0,0,1,103,10.84a.69.69,0,0,1,.84.43.61.61,0,0,1-.48.75c-.69.16-1.08.53-1.12.81-.06.47.94,1,1.63,1.11a1.87,1.87,0,0,0,.88,0v-.13a.66.66,0,0,1,.69-.58h0a.65.65,0,0,1,.68.58V14a1.91,1.91,0,0,0,.89,0c.68-.14,1.68-.64,1.63-1.11,0-.28-.43-.65-1.12-.81a.6.6,0,0,1-.45-.76.7.7,0,0,1,.8-.42A2.55,2.55,0,0,1,110,12.7a1.56,1.56,0,0,1-.32,1.11c2.12.82,3,1.6,3,2.47a1.55,1.55,0,0,1-.74,1.07,1.88,1.88,0,0,0-.68.8,1.62,1.62,0,0,0,.21,1.57,2.25,2.25,0,0,0,2.09.59,2.79,2.79,0,0,0,1.47-1,1.71,1.71,0,0,1,0-.45v-.06a3.14,3.14,0,0,1,1.38-2.43.84.84,0,0,1,.77,0,.72.72,0,0,1,.34.83,6.44,6.44,0,0,1-.81,2l.2,0a3.76,3.76,0,0,1,1.69.75c1.12.92,1.67,2.82.71,3.78Zm2.86-4.91a.69.69,0,1,1,.68.61.66.66,0,0,1-.69-.6h0Zm1.44,7.91a.77.77,0,1,1,0-1.52.76.76,0,1,1,0,1.52h0Zm6.85-1.42a.46.46,0,1,1,.52-.46.48.48,0,0,1-.52.46Z"/><ellipse class="cls-2" cx="142.69" cy="28.24" rx="2.24" ry="2"/><ellipse class="cls-2" cx="134.15" cy="15.82" rx="2.24" ry="2"/><ellipse class="cls-2" cx="121.75" cy="6.58" rx="2.24" ry="2"/><path class="cls-3" d="M105,15a90,90,0,1,1-90,90,90,90,0,0,1,90-90m0,160a70,70,0,1,0-70-70,70,70,0,0,0,70,70m0-161a91,91,0,1,0,91,91,91.1,91.1,0,0,0-91-91Zm0,160a69,69,0,1,1,69-69,69.07,69.07,0,0,1-69,69Z"/><path class="cls-4" d="M105,15a90,90,0,1,0,90,90A90,90,0,0,0,105,15Zm0,160a70,70,0,1,1,70-70A70,70,0,0,1,105,175Z"/><path class="cls-5" d="M105,17a88,88,0,1,1-88,88,88.1,88.1,0,0,1,88-88m0,160a72,72,0,1,0-72-72,72.08,72.08,0,0,0,72,72m0-162a90,90,0,1,0,90,90,90,90,0,0,0-90-90Zm0,160a70,70,0,1,1,70-70,70,70,0,0,1-70,70Z"/><path class="cls-6" d="M168.94,188s19,3.26,19.91-12.19V169.4s-1.28,4.73-11,8S165.87,186.37,168.94,188Z"/><path class="cls-7" d="M182.21,169.66s1.95,15.38-6.63,16-5.32-5.11-3.69-6.16S182,174.57,182.21,169.66Z"/><path class="cls-8" d="M160.77,161.74s-.51,4.8-3.58,7.54-2,12.95,4.15,12.31S167.15,167.81,160.77,161.74Z"/><path class="cls-9" d="M152,168.76s-5.11,12.77,1,15.26,5.94-4.05,4.85-6.36S151.89,171.51,152,168.76Z"/><path class="cls-10" d="M163.32,180.25s-5.36-4-4.26-9.5c.68-2.41,11.92-2,13.37.48s-2.9,8.6-4.86,9A12.45,12.45,0,0,1,163.32,180.25Z"/><path class="cls-11" d="M148.51,170.93s-5.62,11.88.89,15.32,8,.64,8,.64,4.08,1.66,10.34-1,13-7.66,8-24.13c-5.36,3.19-23.36,11.24-18,23.62C154.64,180.51,147.23,174.51,148.51,170.93Z"/><path class="cls-12" d="M16.38,206.41c-.54-.28.28-6.89,4.47-9.06s7.47,2.11,13.41,1c3.91-.72,6.26-3.33,11-8.56,8.17-9.06,8-14,13.54-15.95,3.84-1.33,9.08-.77,11,2.17s-.15,7-1.27,9.32c-3.33,6.88-9.84,9.53-11.75,10.21-3,1.06-7.19,2.58-10.72.38a8.75,8.75,0,0,1-4-6.38c-.46-4.8,3.9-7.28,10-14.94,5.08-6.41,10.84-13.69,8.94-19.27-1.27-3.73-5.49-5.33-10-7-13.2-5-20.57.5-27.83-4.73-5-3.61-6.34-9.74-7-12.89-2.12-9.79,3.08-13.5,3.83-28.6.28-5.73.73-14.86-3.58-16.85-2.68-1.24-7.6.1-10.85,2.43A13.27,13.27,0,0,0,4,89a9.12,9.12,0,0,1,2.55-5.74c4-3.8,12.21-2.49,16.22,1.4,6.34,6.16,2.88,19.36-.39,26.3-3.74,8-7.27,7.77-8.93,14.3-2,7.74.46,18,7.15,22.72,5.68,4,13.63,3.5,18.12,3.19,6.41-.43,9.34-2.19,13.41-.25.28.13,5.43,2.69,6.51,7.79s-3,7.79-7.92,19.53c-2.63,6.26-4,9.56-2.42,11.49,2.07,2.56,8.36,1.52,12.25-1.28,2.69-1.93,5.48-5.6,4.47-7.4s-6.25-1.87-10.08.12c-7.27,3.79-4.25,11.92-12,17.75-.78.59-8.32,6.25-15.45,4.34-2.08-.56-4.15-1.77-6.64-.89C17.83,203.38,16.78,206.61,16.38,206.41Z"/><path class="cls-13" d="M41.15,188s-19,3.26-19.92-12.19V169.4s1.28,4.73,11,8S44.21,186.37,41.15,188Z"/><path class="cls-14" d="M27.87,169.66s-1.94,15.38,6.64,16,5.32-5.11,3.68-6.16S28.13,174.57,27.87,169.66Z"/><path class="cls-15" d="M49.32,161.74s.51,4.8,3.57,7.54,2,12.95-4.15,12.31S42.94,167.81,49.32,161.74Z"/><path class="cls-16" d="M58.07,168.76s5.11,12.77-1,15.26-5.93-4.05-4.85-6.36S58.2,171.51,58.07,168.76Z"/><path class="cls-10" d="M46.77,180.25s5.36-4,4.25-9.5c-.68-2.41-11.91-2-13.36.48s2.89,8.6,4.85,9A12.5,12.5,0,0,0,46.77,180.25Z"/><path class="cls-17" d="M61.57,170.93s5.62,11.88-.89,15.32-8,.64-8,.64-4.09,1.66-10.34-1-13-7.66-8-24.13c5.36,3.19,23.36,11.24,18,23.62C55.45,180.51,62.85,174.51,61.57,170.93Z"/></g></svg>