<svg id="图层_1" data-name="图层 1" xmlns="http://www.w3.org/2000/svg" xmlns:xlink="http://www.w3.org/1999/xlink" viewBox="0 0 140 140"><defs><style>.cls-1,.cls-11,.cls-12,.cls-2,.cls-3,.cls-7,.cls-8,.cls-9{fill-rule:evenodd;}.cls-1{fill:url(#未命名的渐变_7);}.cls-2{fill:url(#未命名的渐变_7-2);}.cls-3{fill:url(#未命名的渐变_7-3);}.cls-4{fill:url(#未命名的渐变_13);}.cls-5{fill:url(#未命名的渐变_13-2);}.cls-6{fill:url(#未命名的渐变_13-3);}.cls-7{fill:url(#未命名的渐变_15);}.cls-8{fill:url(#未命名的渐变_8);}.cls-9{fill:url(#未命名的渐变_8-2);}.cls-10{fill:url(#未命名的渐变_13-4);}.cls-11{fill:url(#未命名的渐变_8-3);}.cls-12{fill:url(#未命名的渐变_13-5);}</style><linearGradient id="未命名的渐变_7" x1="21.46" y1="18.1" x2="30.1" y2="18.1" gradientUnits="userSpaceOnUse"><stop offset="0.27" stop-color="#ba1d22"/><stop offset="0.65" stop-color="#4c080c"/><stop offset="1" stop-color="#47200e"/></linearGradient><linearGradient id="未命名的渐变_7-2" x1="33.9" y1="19.72" x2="45.36" y2="19.72" xlink:href="#未命名的渐变_7"/><linearGradient id="未命名的渐变_7-3" x1="33.11" y1="15.51" x2="38.86" y2="15.51" xlink:href="#未命名的渐变_7"/><linearGradient id="未命名的渐变_13" x1="27.68" y1="32.26" x2="24.08" y2="51.96" gradientUnits="userSpaceOnUse"><stop offset="0" stop-color="#ba1d22"/><stop offset="1" stop-color="#47200e"/></linearGradient><linearGradient id="未命名的渐变_13-2" x1="19.33" y1="40.03" x2="18.18" y2="70.03" xlink:href="#未命名的渐变_13"/><linearGradient id="未命名的渐变_13-3" x1="112.74" y1="25.71" x2="117.4" y2="54" xlink:href="#未命名的渐变_13"/><linearGradient id="未命名的渐变_15" x1="7.39" y1="101.5" x2="90.8" y2="101.5" gradientUnits="userSpaceOnUse"><stop offset="0" stop-color="#b17c1e"/><stop offset="1" stop-color="#faeb9b"/></linearGradient><linearGradient id="未命名的渐变_8" x1="89.97" y1="18.67" x2="110.39" y2="39.6" gradientUnits="userSpaceOnUse"><stop offset="0" stop-color="#b17c1e"/><stop offset="1" stop-color="#f9de79"/></linearGradient><linearGradient id="未命名的渐变_8-2" x1="50.3" y1="20.48" x2="34.13" y2="38.61" xlink:href="#未命名的渐变_8"/><linearGradient id="未命名的渐变_13-4" x1="70" y1="15.3" x2="70" y2="23.38" xlink:href="#未命名的渐变_13"/><linearGradient id="未命名的渐变_8-3" x1="42.29" y1="113.3" x2="89.16" y2="113.3" xlink:href="#未命名的渐变_8"/><linearGradient id="未命名的渐变_13-5" x1="102.47" y1="73.83" x2="87.66" y2="127.83" xlink:href="#未命名的渐变_13"/></defs><path class="cls-1" d="M26.27,19.3l-.64.08a3.24,3.24,0,0,0-4.07-.7l-.1-.17c1.14-1.48,2.64-1.19,4.27-.31l.16,0c1.35-1.26,2.73-1.91,4.21-.77L30,17.6A3.25,3.25,0,0,0,26.27,19.3Z"/><path class="cls-2" d="M40.05,21.16H39.2A4.26,4.26,0,0,0,34,19.57l-.11-.23c1.74-1.74,3.65-1.13,5.62.3h.22c2-1.43,3.87-2,5.62-.3l-.12.23A4.26,4.26,0,0,0,40.05,21.16Z"/><path class="cls-3" d="M36.09,16.36l-.43-.06a2.14,2.14,0,0,0-2.5-1.11l0-.13c1-.76,1.9-.34,2.8.5H36c1.08-.59,2.07-.78,2.84.2l-.07.11A2.13,2.13,0,0,0,36.09,16.36Z"/><path class="cls-4" d="M34.06,34.67c.12-.15.66-1,.66-1l-5.11-3.53c-1.82-1.25-3.72-2.58-5.69-3.93-.66-.46-1.36.29-1.55,1.63-.05.37-.1.75-.15,1.11-.18,1.29.2,2.66.85,3.07,1.15.74,2.3,1.44,3.41,2.15a10.1,10.1,0,0,0-2.28,3l-3-1.73c-.63-.37-1.27.28-1.4,1.4l-.12.92a2.72,2.72,0,0,0,.86,2.56c.69.38,1.37.76,2,1.11A25.9,25.9,0,0,0,22,44.8l-2.62-1.31c-.58-.3-1.16.26-1.27,1.22q0,.4-.09.78a2.19,2.19,0,0,0,.84,2.15l3,1.39a16.54,16.54,0,0,0,.39,3L19.77,51c-.53-.23-1.06.24-1.17,1,0,.23-.05.45-.08.68a1.73,1.73,0,0,0,.75,1.78l2.84,1.15A49.87,49.87,0,0,1,33,36.36C33.36,35.79,33.7,35.23,34.06,34.67Z"/><path class="cls-5" d="M21.61,57.38c-.07.17-.14.34-.22.5l-2-.78c-.49-.19-1,.23-1.07.93,0,.2-.05.39-.08.57a1.42,1.42,0,0,0,.71,1.52l1.06.37c-.34.61-.69,1.23-1,1.88l-1.3-.43c-.47-.15-.93.22-1,.83l-.06.5a1.21,1.21,0,0,0,.7,1.33l.64.2a14.69,14.69,0,0,0-.48,1.82l-1.37-.4a.77.77,0,0,0-.94.76c0,.14,0,.3-.05.44a1.09,1.09,0,0,0,.7,1.17l1.32.35c-.07.6-.1,1.17-.12,1.7l-.84-.21a.73.73,0,0,0-.89.67c0,.14,0,.27,0,.4a.93.93,0,0,0,.65,1l1.18.27a10.63,10.63,0,0,0,.26,1.58l-.87-.19a.68.68,0,0,0-.82.61c0,.12,0,.24,0,.35a.8.8,0,0,0,.61.89l1.87.38a8.05,8.05,0,0,0,1,1.52l-2.3-.43a.65.65,0,0,0-.78.55,2.87,2.87,0,0,1,0,.31.69.69,0,0,0,.57.77l2.36.42c.73.14,1.45.26,2.16.38a50.28,50.28,0,0,1,.62-22.55Z"/><path class="cls-6" d="M123.18,69.33l-.85.16c0-.53,0-1.1,0-1.7.44-.08.89-.18,1.34-.28a1.08,1.08,0,0,0,.76-1.13c0-.14,0-.29,0-.44a.77.77,0,0,0-.9-.81l-1.39.32a13.32,13.32,0,0,0-.38-1.84l.65-.16a1.24,1.24,0,0,0,.78-1.29l0-.5c0-.62-.48-1-1-.89l-1.32.35c-.29-.66-.6-1.31-.91-1.93l1.08-.31a1.42,1.42,0,0,0,.79-1.48c0-.18,0-.37-.05-.57,0-.7-.52-1.15-1-1l-2.07.67a11.86,11.86,0,0,1-.72-2.26l3-1a1.71,1.71,0,0,0,.85-1.74c0-.23,0-.45,0-.68,0-.8-.56-1.3-1.1-1.11l-2.53,1a16.58,16.58,0,0,0,.56-3l3.07-1.23a2.17,2.17,0,0,0,1-2.09c0-.26,0-.52,0-.79-.06-1-.6-1.56-1.21-1.29l-2.68,1.16a26.22,26.22,0,0,0-.42-3.38c.69-.31,1.39-.65,2.1-1a2.73,2.73,0,0,0,1-2.51c0-.3,0-.62-.07-.93-.07-1.12-.67-1.81-1.32-1.47-1,.54-2,1-3.06,1.56a10.27,10.27,0,0,0-2.11-3.1l3.53-2c.66-.37,1.12-1.72,1-3l-.09-1.12c-.12-1.35-.77-2.14-1.46-1.72L112,28.4l-5.3,3.24s.49.83.6,1a97.85,97.85,0,0,1,5.83,12.07,49.92,49.92,0,0,1,6.17,33.68l.69-.08,2.39-.29a.7.7,0,0,0,.61-.74l0-.31a.66.66,0,0,0-.75-.6l-2.32.31a8.21,8.21,0,0,0,1.06-1.47l1.89-.27a.82.82,0,0,0,.66-.86l0-.35a.68.68,0,0,0-.79-.65l-.88.14a10.2,10.2,0,0,0,.35-1.56l1.2-.21a.94.94,0,0,0,.7-1c0-.13,0-.27,0-.4A.73.73,0,0,0,123.18,69.33Z"/><path id="SVGID" class="cls-7" d="M79.8,114.11,76.62,111l-.15-.17-.2-.18-1.08-1a36,36,0,0,0-4-3.29l-.77-.53a21.67,21.67,0,0,0-2.25-1.31c-.21-.08-.38-.21-.58-.3l-.59-.26a21,21,0,0,0-2.79-1,21.35,21.35,0,0,0-2.7-.59l-.5-.08c-.18,0-.35,0-.52-.06l-.5,0-2.52,0-.23,0-.72.1-.45.1-.46.13a4.65,4.65,0,0,0-1.69,1c-1.08,1.1-1.43,2.52-2,3.19,0,.22-.42.49-.6.65a3,3,0,0,1-1.5.65,1.84,1.84,0,0,1-.41.05l-.43,0a1.61,1.61,0,0,0-.31,0c-.48,0-1.25-.1-1.71-.17l-.17,0c-.69-.13-.86-.14-1.65-.34-1.27-.32-1.55-.42-2.7-.79-.25-.08-.44-.16-.7-.26l-.69-.26-1.41-.57c-.81-.34-2.17-1-2.85-1.36a45.7,45.7,0,0,1-4.13-2.49,32.21,32.21,0,0,1-2.72-2.13l-.71-.64L29,98.65a2.08,2.08,0,0,0-.21-.21l-.62-.64c-.16-.17-.23-.29-.38-.44-.42-.46-.43-.53-.72-.88a14.22,14.22,0,0,1-1.17-1.77c-.32-.55-.57-1.24-.83-1.8l-.53-1.12a27.33,27.33,0,0,0-1.39-2.45L23,89.13l-.15-.23a21.31,21.31,0,0,0-1.53-2c-.07-.08-.15-.14-.22-.23A15,15,0,0,0,19.27,85,10.14,10.14,0,0,0,18,84.14c0,.09,0,.11.08.23l.3.4c.2.26.36.56.51.8l.87,1.88s0,0,0,.07a8.13,8.13,0,0,1,.29,1.18l.09.58c0,.07,0,0,.05.07a2.51,2.51,0,0,0,0,.55v.35A8,8,0,0,1,20,92l-.31.91a9.2,9.2,0,0,0-.65,2,8.16,8.16,0,0,0-.14,1.87c0,.07,0,0,0,0-.09.17.06.75.09.94l.17.62a2.88,2.88,0,0,0,.13.31c.52,4-1.76,2.64-3.94,6.1a2.6,2.6,0,0,1-1.06.43,4.44,4.44,0,0,1-.82.07,12.79,12.79,0,0,1-2.64-.4c-.32-.07-.61-.14-.92-.23s-1.88-.59-2.27-.76c-.2-.08-.18-.12-.3,0l.55.45.57.44c.38.3.79.57,1.23.88a8.73,8.73,0,0,0,1,.66,3.3,3.3,0,0,1,.3.22c.12.09.25.14.36.22a6.17,6.17,0,0,0,1.07.65c.36.2,3.89,2.2,4.24,2.31s.85.4,1.13.52l.75.3c1,.39,1.92.69,2.88,1,1.58.52,3,.93,4.63,1.39l.35.1.7.19.69.18,1,.26.35.08,2.1.49c.55.1,1.45.32,2.05.43l2.07.38c.21,0,.46.09.67.11.78.11,2.28.36,3,.42l.33,0,.34,0c.13,0,.19,0,.33,0l.33,0a45.3,45.3,0,0,0,4.88.19c.13,0,.19,0,.32,0l.66,0,.31,0,1.25-.09a2.87,2.87,0,0,1,.31,0l.23,0a22,22,0,0,0,2.34-.44c.14,0,.09,0,.13-.09a7.55,7.55,0,0,0,2.17-.82c.2-.12.47-.27.67-.42s.23-.17.32-.25a4,4,0,0,1,.31-.29,5,5,0,0,0,.54-.64,6.33,6.33,0,0,0,.8-1.3,4.87,4.87,0,0,0,.31-.6,6.77,6.77,0,0,1,1.19-1.89,3.06,3.06,0,0,1,.5-.46c.19-.15.42-.25.57-.39s0,0,.1,0l.37-.16a5.75,5.75,0,0,1,1.06-.29,3.6,3.6,0,0,1,.56-.08,9.55,9.55,0,0,1,2.6,0,11.87,11.87,0,0,1,2.25.63,9.08,9.08,0,0,1,1.34.6c.24.12.28.12.69.35a64.06,64.06,0,0,1,5.47,3.56c.77.54,1.57,1.07,2.32,1.59l1.88,1.18c.16.09.14.11.3.2,1,.58,2,1.19,3.1,1.71.14.08.15.06.31.14a2.31,2.31,0,0,0,.35.18l.67.29c2,.85,4.21,1.25,5.91.29a6.06,6.06,0,0,0,1.3-1.28,4.33,4.33,0,0,0,.25-.47l.53-1.8v-.1a.3.3,0,0,0,0-.1.54.54,0,0,0,0-.22l-.17-1.1a2.25,2.25,0,0,1,0-.22c0-.15-.08-.27-.11-.42s-.13-.59-.27-.37a8.13,8.13,0,0,1-.42.82c-.27.46-.16.7-.3,1.14A4.58,4.58,0,0,1,87,116.53c-1.35,1-2.78.66-4.56-.35-.27-.15-.5-.35-.74-.51a11.54,11.54,0,0,1-1-.78Z"/><path id="SVGID-2" data-name="SVGID" class="cls-8" d="M90.42,21.75,89.79,23l-.63,1.21c4.66,2.61,9.68,5.2,14,8.94s7.26,8.62,9.72,13.29l.23-.15c.07-.7.13-1.4.15-2.08a13.55,13.55,0,0,0-.09-2,6.09,6.09,0,0,0-1.38-3.34,4,4,0,0,0-.92-.69,6.8,6.8,0,0,1-.66-.38,2.91,2.91,0,0,1-.89-.89,2.65,2.65,0,0,1-.46-1.27,6.74,6.74,0,0,1,0-1.19,8.17,8.17,0,0,0,0-1,3,3,0,0,0-.49-1.49,2.45,2.45,0,0,0-1.22-.88L107,31a16.1,16.1,0,0,0-2.08-.34,16.85,16.85,0,0,1-2.3-.26,5.2,5.2,0,0,1-2.14-.87A4.86,4.86,0,0,1,99,27.88c-.34-.56-.83-1.45-1.4-2.3a14.54,14.54,0,0,0-1.67-2.14,5.75,5.75,0,0,0-.54-.44,6.13,6.13,0,0,0-1.27-.66A7,7,0,0,0,92.7,22a18.59,18.59,0,0,0-2.28-.2Zm5.73,1.65a8.65,8.65,0,0,1,1.56-.72,2.41,2.41,0,0,1,1.9,0,2.73,2.73,0,0,1,.86,1.17,9.08,9.08,0,0,1,.51,1.7c0,.13,0,.27.08.43.14.94.33,2.35,1.26,2.54a2.41,2.41,0,0,0,1.09-.13,3.17,3.17,0,0,1,1.86,0,2.05,2.05,0,0,1,1.14.93,3.15,3.15,0,0,1,.36,1.46,14.58,14.58,0,0,0-1.84-.27,16.39,16.39,0,0,1-2.27-.27,4.79,4.79,0,0,1-2-.81,4.68,4.68,0,0,1-1.44-1.58c-.36-.59-.84-1.44-1.38-2.27A14.93,14.93,0,0,0,96.15,23.4Z"/><path id="SVGID-3" data-name="SVGID" class="cls-9" d="M52.12,21.75a19,19,0,0,0-2.28.2,7,7,0,0,0-1.4.39,6.05,6.05,0,0,0-1.26.66,5.75,5.75,0,0,0-.54.44A14.53,14.53,0,0,0,45,25.58c-.56.85-1.06,1.74-1.4,2.3a4.76,4.76,0,0,1-1.5,1.64,5.1,5.1,0,0,1-2.13.87,17.18,17.18,0,0,1-2.31.26,16.69,16.69,0,0,0-2.08.34l-.18.05a2.5,2.5,0,0,0-1.22.88,3.17,3.17,0,0,0-.49,1.49,6.53,6.53,0,0,0,0,1,7.86,7.86,0,0,1,0,1.19,2.75,2.75,0,0,1-.46,1.27,2.83,2.83,0,0,1-.9.89,6.73,6.73,0,0,1-.65.38,4,4,0,0,0-.92.69,6,6,0,0,0-1.38,3.34,13.55,13.55,0,0,0-.09,2c0,.68.08,1.38.15,2.08l.23.15c2.46-4.67,5.37-9.55,9.71-13.29s9.36-6.33,14-8.94L52.75,23l-.63-1.23Zm-7.37,3.77c-.54.83-1,1.68-1.38,2.27a4.82,4.82,0,0,1-3.48,2.39,16.39,16.39,0,0,1-2.27.27,14.73,14.73,0,0,0-1.85.27,3.42,3.42,0,0,1,.36-1.46,2.11,2.11,0,0,1,1.15-.93,3.13,3.13,0,0,1,1.85,0,2.42,2.42,0,0,0,1.09.13c.94-.19,1.12-1.6,1.27-2.54,0-.16,0-.3.07-.43a9.89,9.89,0,0,1,.51-1.7,2.75,2.75,0,0,1,.87-1.17,2.41,2.41,0,0,1,1.9,0,8.2,8.2,0,0,1,1.55.72A15.71,15.71,0,0,0,44.75,25.52Z"/><path class="cls-10" d="M87.42,21.51a.17.17,0,0,0-.15,0c-.09-.15-.27-.12-.41-.16a5.52,5.52,0,0,1-1-.35c0-.19-.05-.36-.07-.55l3.79-2.37a1,1,0,0,1,.68-.21c.13,0,.25,0,.3-.15.21-.69.43-1.38.66-2.14a15.68,15.68,0,0,1-7.14.67c-.53.1-1-.25-1.48-.3a5.87,5.87,0,0,1-1.24-.22c-.78-.24-1.56-.52-2.36-.73-.32-.09-.64-.21-.54-.68a4.45,4.45,0,0,0,0-.73,1.89,1.89,0,0,0-.7-.88c-.37-.12-.72-.25-1.08-.38h-.08c-.06.21-.18.43.14.53s.57.31.47.73a1.6,1.6,0,0,0,0,.38c0,.34-.18.47-.43.42a13.6,13.6,0,0,0-2.3,0c-1.21,0-2.43,0-3.65,0-1.55,0-3.1,0-4.64,0a8.7,8.7,0,0,1-1.25,0H64.9a1.64,1.64,0,0,0-.38,0,6.61,6.61,0,0,1-1.54,0c-.09,0-.17,0-.21-.12a1.19,1.19,0,0,1,.44-1.35c.13-.07.23-.13.21-.28s-.21-.17-.34-.16a2.92,2.92,0,0,0-1.2.45h0l-.12.14-.11,0c-.1.07-.25.12-.15.3l0,.23,0,0a.14.14,0,0,1,0,.06l0,.27.12,0-.12,0a1.58,1.58,0,0,1-.36.69c-.1.1-.23.17-.23.34h0l0,0s0,0,0,0a21.61,21.61,0,0,1-4.47,1.16,17.75,17.75,0,0,1-4.37.17,9.8,9.8,0,0,1-1.55-.21c-.45-.12-.91-.24-1.36-.39-.21-.07-.32,0-.24.25.16.47.31.95.45,1.43.09.32.19.58.61.49a.35.35,0,0,1,.29.09l1.36.82,2.61,1.67A1.07,1.07,0,0,0,54,21a6.38,6.38,0,0,1-1.81.53,14,14,0,0,1-3,0A19.1,19.1,0,0,1,46,21l-.43-.1c.34,1,.36,1,1.09,1.51.49.32,1,.64,1.46,1a2.06,2.06,0,0,0,.93.41,10.11,10.11,0,0,1,1.79.58c.49.2.77.46.67,1a2.78,2.78,0,0,0,0,.5c0,.63,0,.62.58.33.11-.06.28,0,.41-.06a21.15,21.15,0,0,1,3.25-.81c.27-.06.32-.17.32-.41,0-.56,0-1.13,0-1.69a.81.81,0,0,1,.83-.9.83.83,0,0,1,.79.9c0,.5,0,1,0,1.5,0,.24.08.28.29.24a14.2,14.2,0,0,1,1.44-.19c.29,0,.37-.12.37-.39a5.31,5.31,0,0,1,.06-1.49c.12,0,.18-.08.26-.15a.68.68,0,0,1,1.07.06c.08.09.11.24.27.25,0,.19-.07.4.08.57,0,0,0,0,0,0-.2.77-.15.88.46.86a7.38,7.38,0,0,0,1.32-.13c.2,0,.24-.13.24-.31a8.18,8.18,0,0,1,0-1.31c0-.1,0-.24-.14-.25.06-.13.18-.23.13-.39s-.08-.38,0-.55a1,1,0,0,1,1.12-.41.67.67,0,0,1,.51.76c0,.71,0,1.43,0,2.15,0,.21.07.3.29.28l1.62-.07c.19,0,.24-.1.24-.27,0-.36,0-.72,0-1.08,0-.08,0-.16,0-.25a1.07,1.07,0,0,1,1-.34.76.76,0,0,1,.57.77c0,.23,0,.46,0,.69s.12.43.43.42.9,0,1.35,0c.26,0,.34-.1.32-.34a3,3,0,0,1,.06-1,.74.74,0,0,1,.77-.6.82.82,0,0,1,.83.62,3.35,3.35,0,0,1,0,.95c-.05.23,0,.36.3.4a11.07,11.07,0,0,1,1.42.07c.29.07.36-.05.36-.32,0-.68,0-1.36,0-2a1.15,1.15,0,0,1,.09-.59.93.93,0,0,1,1.45.13,3,3,0,0,1,.19,1.42c0,.41,0,.83,0,1.25,0,.14,0,.26.2.25.55,0,1.09.11,1.64.15.07,0,.19.06.19-.1,0-.46,0-.91.06-1.37a.81.81,0,0,1,.81-.81.8.8,0,0,1,.8.8c0,.4,0,.79,0,1.19,0,.19,0,.41.26.46a5.9,5.9,0,0,0,1.57.15c.17,0,.27-.06.25-.24a5.37,5.37,0,0,0-.08-1.55.32.32,0,0,1,0-.19,1.09,1.09,0,0,1,1.14-.59.58.58,0,0,0,.34,0l.27.31a.07.07,0,0,0,0,.06h0c-.07,0-.07.07,0,.11l0,.1c0,.14-.05.3.07.42l-.06.18c0,.45,0,.91,0,1.36s.09.54.48.45a15.18,15.18,0,0,1,3.42,1c.18.08.4.12.42-.26s0-.81,0-1.22c0-.1,0-.18.14-.26a9.76,9.76,0,0,1,2.34-.84,2.61,2.61,0,0,0,1-.47c.11-.07.13-.23.25-.27a7.47,7.47,0,0,0,1.45-.9c.5-.28.55-.81.79-1.29C90.42,21.73,90.29,21.74,87.42,21.51ZM65.25,17l0,.09h0ZM64,19.17a.11.11,0,0,0-.09-.09.08.08,0,0,0-.07,0,.08.08,0,0,1,.07,0A.11.11,0,0,1,64,19.17Zm-1.18,2.54,0,.06,0,0,0,0Zm0-4.18v.38h0v-.38Zm-.69,5.38Zm-.05,0-.1,0-.1,0,.1,0ZM63.35,17Zm-.19.05s0,0,0,0S63.16,17,63.16,17Zm-1.29-3h0l0,0Zm.72,9.61-.06,0,.06,0,0,0Zm1.45-8-.06,0,.06,0a.21.21,0,0,0,.21-.11A.21.21,0,0,1,64,15.67ZM65.29,19h0c-.05,0-.06.05-.05.08S65.24,19,65.29,19Zm18.27,1.31s0,0,0,.06S83.58,20.28,83.56,20.26Zm.57-.66a.12.12,0,0,0-.11,0,.12.12,0,0,1,.11,0Zm-.21.32,0,0,0,0Zm-.23.12L83.62,20Zm3.63,2v0Zm0-.13a.56.56,0,0,1,0-.12A.56.56,0,0,0,87.31,21.87Z"/><path id="SVGID-4" data-name="SVGID" class="cls-11" d="M78.69,111.18l.3-.07a27.49,27.49,0,0,0,10.17-5.18c-.1.6-3,3.91-3.58,4.54a12.93,12.93,0,0,1-5.43,3.44l-1.4.34c-1.8.45-4.64.22-6.27.2a28.42,28.42,0,0,0-6.42.31l-.29.07a21.66,21.66,0,0,0-3.46,1.09c-.51.26-1,.45-1.5.71s-1,.57-1.37.79c-1.59.81-3.63,2.47-5.76,3l-.29.08c-1.57.38-2.91.22-3.08-1.17a3.8,3.8,0,0,0-2-2.61c-1.07-.62-1.73-1-2.85-1.53A31.22,31.22,0,0,1,42.29,114l5.39-1.65.73-.18a52.88,52.88,0,0,1,15.78-1.36c1.18.13,2.26.17,3.39.38s2,.42,3.25.56A21.4,21.4,0,0,0,78.69,111.18Z"/><path class="cls-12" d="M116.38,76.31a3.78,3.78,0,0,1,.38-.43A4.14,4.14,0,0,1,118,74.79a1.26,1.26,0,0,1,1.92.87,4.32,4.32,0,0,1-.58,2.46c-.16.27-1.1,1.78-1.23,1.88l-.06-.14c-.2-.68-.08-2-.91-3-.35-.39-.56-.39-.78-.59Zm-15.86,5.87c-.27,0-.25-.11-.56-.16a11.4,11.4,0,0,1-2.42-1c-.32-.2-.55-.32-.87-.51a10,10,0,0,0-.87-.5,22,22,0,0,0-5.44-1.53A3.89,3.89,0,0,1,87,76.31c-.76-1.36.22-2.63,1.57-3.34a4.5,4.5,0,0,1,4.38.15c1.8,1,1.91,1.75,3.1,2.38.55.3,2.57.89,2.94,1.21a11,11,0,0,0,1.69,1.07l.92.47a27.32,27.32,0,0,1-1.07,3.93Zm22-6.6V74.7c-.19-.43-.22-1.87-1.41-2-2.06-.19-2.73.91-4,1.12a6.27,6.27,0,0,0-1.42.32,4,4,0,0,0-1.91,1.47c-.25-.13-.53-.15-.78-.27s-.32-.29-.3-.75c-.4-.07-.73-.26-1.3-.34.52-.3.51,0,.72-.76.12.08.16.16.27.21s0,0,.12,0,.06-.36,0-.53c.2-.09.72-.17,1-.27,1.08-.43.51-1.08.33-1.56-.1-.26.12-.71.2-.92.07.08.07,0,.06.19s-.12.25-.13.43c.29-.1.28-.51.49-.7.48.9,0,1.07,0,1.84,0,.46.6,1.21,1.08,1.21-.21-.27-.49-.45-.61-.81-.3-.84.23-1.71,0-2.56-.15-.59.26-.47.4-.91a5.41,5.41,0,0,0-.42-2.33,5.33,5.33,0,0,0-.5-1l-.58-.82a4,4,0,0,1,.23-.53,2.43,2.43,0,0,0,.3-.44c-.43-.08-1.36.12-1.69-.11a1.13,1.13,0,0,0-.18-.12l-.14-.12c.48-.17,2-.35,2.25-.78a.52.52,0,0,0,0-.71,2.17,2.17,0,0,0,.23-.82c-.91.1-1.76,1-2.75,1-.09.2-.19.41-.43.47a1.44,1.44,0,0,1-.31-.39c-.06-.15,0-.42,0-.61a.94.94,0,0,0-.67-.75c-.43-.13-.88,0-1-.44,0-.21-.06-.43-.38-.33s-.11.28-.22.48c-.2,0-.22-.15-.47-.24a2.22,2.22,0,0,1-.47-.17,1.49,1.49,0,0,0,.62-1.25c-.06-.76-1-.24-1.34-.2-.07-.49-.11-1.53-1.06-1-.25.14-.39.15-.53.45a4,4,0,0,0-.21.41c-.12.44.19.43.28.66s-.06.22-.07.23c-.12-.39-.17-.4-.62-.5,0-.59-.15-.76-.7-.91a1.56,1.56,0,0,0-.68,0c-.34.06-.23.34-.41.38s-.36,0-.48.21a2.55,2.55,0,0,0-.33,1.49,4.47,4.47,0,0,0-1.19.53c-.53.24-.43.72.17.86l-.35.16c0,.46.23.54.47.76a2.69,2.69,0,0,1-.56.69c.18.38,1,.59,1.4.88a.6.6,0,0,0,.14.58l0,.1s0,0,0,0c-.18.07-.32-.06-.58-.1s-.42-.05-.64-.07c-.44,0-.62-.33-1.06,0s0,.62-.51.9a9.66,9.66,0,0,1-1.07.33c.05.29.14.21.42.2s.41,0,.65,0,.36,0,.63,0a5.3,5.3,0,0,0,.69,0c-.1.25-.26.18-.14.45s.11.2.07.56c0,.13.08.77,0,1.21a4.39,4.39,0,0,1-.06.67c-.06.14-.09,0-.09.22a1.58,1.58,0,0,0,.06.26c.15.63-.26,1.08.32,1a4.29,4.29,0,0,1,.1-1c.1-.32,0-.22,0-.42v-1.5c0-.35-.1-.75.21-.92a11.33,11.33,0,0,1,.12,2.94c0,.26-.13.17-.07.51a4.86,4.86,0,0,0,.14,1H102a1.37,1.37,0,0,0,0-.65c0-.22.09-.43.06-.6s-.06-.12-.08-.26c-.09-.59,0-1.73,0-2.34,0-.41.26-.77-.17-1l-.3.2-.14-.24a2.68,2.68,0,0,1,.8,0l0,0,0,0a.51.51,0,0,1,.55-.12c.28.15-.11.28.59.28a4.1,4.1,0,0,0,.86,0,1.47,1.47,0,0,1,.8-.07c-.13.41-.33.81-.46,1.29-.32,1.24-1.4,3.09,1,3.24,0,.34-.54.84-.62,1.37-.11.79.6.71,1.07.93l0,1c.27.15.27.33.49.43,0-.26-.44-.65,0-.89.17.07,0-.07.15.16,0,0,.05.1.09.16a1.06,1.06,0,0,1,0,1.15c-.15.19-.48.2-.69.34s-.09.12-.28.21a9.74,9.74,0,0,1-1.9.67c-.26.07-.59.14-.82.23s-.45.28-.73.29a7.82,7.82,0,0,1-3.14-1,7.43,7.43,0,0,1-1.84-1.24,5.7,5.7,0,0,1-.52-.46c-.37-.39-.53-.47-1-1-.16-.19-.31-.38-.47-.56s-.3-.34-.45-.52a6.26,6.26,0,0,0-.53-.5c-1-1-1.52-.85-2.63-1.45A3.83,3.83,0,0,0,89,69.75a11.9,11.9,0,0,0-2.06,1,2,2,0,0,0-.44.51A7.63,7.63,0,0,0,84,71.1c-1.4.27-1.17.4-1.28,1.35-1.26.94-.74,3,.1,4a1.47,1.47,0,0,0,.26.23c.6.52,0,.2,1.29,1.1.2.13.31.28.51.42a11.59,11.59,0,0,0,3.85,1.92c1.7.61,1.44.34,2.43.2,1.15-.16,3.41-.78,4,0a5.66,5.66,0,0,0,1.88,1.92,3.55,3.55,0,0,0,1.46.49c.48,0,1.65-.21,1.83-.06-.18.22-.51-.11-.61.21s.16.13.3.41c-.23.1,0,.11-.22,0s-.36-.25-.56-.37a1,1,0,0,0-1-.08c0,.64.2.73.47,1.16s.08.33.38.49a4.85,4.85,0,0,1,.51.27c-.57.13-.67-.31-1.31-.61-.86-.39-.24-.2-1.57-.13l0,.38c-.51,0-.81-.07-1.36-.07s-1-.13-1.2.08a3.9,3.9,0,0,0,.28.29,3.23,3.23,0,0,1,.25.29c.71.94.76.81,1.89,1,.33,0,.08,0,.23.08l.16.08c-.13.12-.14.18-.14.38a2.13,2.13,0,0,0,1.27.25c.49-.23,0-.42,1-.57-.19.4-.43.86-.65,1.26s-.54.78-.19,1.36c.24.39.77.76.48,1.22-.56.88-.68.15-2.68,1.22-.78.41-.72.1-1.59.26s-.91,1-1.39,1.48c-.91.94-.67-.18-1.47.47a.54.54,0,0,0,.26.4c-.22.29-.91.61-1,1,.6-.11,1.2-.26,1.8-.37a5.39,5.39,0,0,0,1.73-.46,5.48,5.48,0,0,0,1.36-.8l.94-1.21.48.15a4.81,4.81,0,0,1-.87,1.06l-3.63,3c-.5.42-1,1-1.49,1.35l-1.84,1.91c-.58.67-1.2,1.35-1.75,2-1.82,2.32-2.44,2.28-1.31,4.94.68,1.6,1.26,1.61.68,2.53-.25.4-.43.81-.66,1.22s-.46.8-.7,1.19a41.39,41.39,0,0,1-3.13,4.38A4.81,4.81,0,0,1,81,117.23a3.66,3.66,0,0,0-.59.34,4.5,4.5,0,0,0-1,.93,12.39,12.39,0,0,0-.76,1.13c-.48.78-.87,1.74-1.3,2.42s-.84,1.6-1.36,2.36a12.45,12.45,0,0,0-1.36,2.34,12.79,12.79,0,0,0,2.37-.83c6.14-2.64,7.16-1.59,10.26-2.58a6.63,6.63,0,0,0,2-1.1c.63-.41,1.66-.6,2.22-1a9.32,9.32,0,0,0,1.22-1.12,3.23,3.23,0,0,0,.34-.43c1.22-1.79,1.17-2.54,1.74-4.46a25.73,25.73,0,0,0,1-5.16c.17-2-.18-3.58.71-5.43a19.54,19.54,0,0,0,1-2.16,16.57,16.57,0,0,1,.84-2.21c0,.82-.14,1.78-.13,2.68s.06,1.82.06,2.74c0,1.84.14,3.62.07,5.49a7.35,7.35,0,0,0,1.15-.8l1.92-1.46c.8-.61,1.54-1.31,2.29-2s1.48-1.47,2-1.86c.28-.23.63-.67.91-.95a41.35,41.35,0,0,0,3.5-4.08,47.17,47.17,0,0,0,7.82-14.67c.31-1,.57-1.9.85-2.88.19-.65-.36-1-.17-1.43a38.81,38.81,0,0,1,2.71-3A6.49,6.49,0,0,0,122,77l.37-1a1.62,1.62,0,0,0,0-.19l.06-.16ZM88.24,96.34c-.47,0-.66-.07-.76-.43-.53.25-.23.38-1.08.45-.18.32-.22.2-.39.35s-.1.26-.32.41a1.55,1.55,0,0,1-.22.12c-.27.12-.12,0-.22.18s0,.3,0,.59c0,.73-.61.37-.82.55s-.18.28-.45.3a.71.71,0,0,1-.54-.24c-.06-.4.14-.5.3-.75a4,4,0,0,1,.17-.36l.14-.14c.11-.12,0-.1.13-.15.32-.07.39.12.71.19,0,0,0,0,0,0s0,0,0-.06l.17-.12c.06,0,0,0,.08-.07a3.38,3.38,0,0,1,.19-.39c.19-.25.52-.4.49-.73a.69.69,0,0,1-.53,0c-.3,0-.23,0-.42.15a2.17,2.17,0,0,1-1.07.14c-.1.16,0,.17-.22.25s-.7.11-.62-.21.15-.11.35-.06c.17-.28.09-.14.38-.23s.15-.15.35-.29.79-.15,1.13-.22c0-.5,0-.64.39-.87,1.53-1,2.52-.25,3.4-.6-.62-.26-1.91.43-2.07-.85,1.15-.25,1.82-.31,2.56.64a.63.63,0,0,0,.4-.27c.4-.42.55-.1,1,0,.21.08.4.06.59.15a.68.68,0,0,1-.22.32c-.45.42-.39.38-1.24.43-.21.68-1.09,1.23-1.22,1.46s0,.29-.56.33Zm4-13.24c-.29.13-.52.05-.5.48-.42,0-.45-.08-.34.16a.08.08,0,0,0,0,0s0,0,0,0c-.25.08-.45.11-.55.37a2.34,2.34,0,0,0,1.64.18,3.11,3.11,0,0,0,1.31-.58c.54.09-.11.2.81-.12.42.22,1.34.85,2,.36a1.7,1.7,0,0,1-.46-.38c-.19-.22-.25-.2-.37-.51s0-.19-.45-.43a1.17,1.17,0,0,0-.78-.09l-.07.35c-.35-.1-.3-.75-.91-.92a10.14,10.14,0,0,0-1.43-.41c-.22,0-.22,0-.41,0a2.17,2.17,0,0,0-.44,0,.3.3,0,0,0-.07.57c.33.2.31,0,.6.33s.32.12.43.5Zm-2.12,0c-.09-.16.06-.1-.42-.16-.76-.09-.82-.69-.3-.73H90a.54.54,0,0,1,.43.14c.32.22.62.1.67.44-.18.14-.29.12-.55.13C90.12,83,90.3,82.93,90.13,83.13Z"/></svg>