<svg id="图层_3" data-name="图层 3" xmlns="http://www.w3.org/2000/svg" xmlns:xlink="http://www.w3.org/1999/xlink" viewBox="0 0 140 140"><defs><style>.cls-1{fill:none;}.cls-2{fill:url(#未命名的渐变_5);}.cls-3{fill:url(#未命名的渐变_5-2);}.cls-4{isolation:isolate;}.cls-5{fill:#a56735;}.cls-6{fill:#9c5628;}.cls-7{clip-path:url(#clip-path);}.cls-8{fill:#a56634;}.cls-9{fill:#a26130;}.cls-10{fill:#9f5b2b;}.cls-11{fill:url(#未命名的渐变_5-3);}.cls-12{clip-path:url(#clip-path-2);}.cls-13{fill:#a2602f;}.cls-14{clip-path:url(#clip-path-3);}.cls-15{fill:#a86b3a;}.cls-16{fill:url(#未命名的渐变_5-4);}.cls-17{clip-path:url(#clip-path-4);}.cls-18{fill:#9e5929;}.cls-19{fill:#b78d65;}.cls-20{clip-path:url(#clip-path-5);}.cls-21{fill:#b18153;}.cls-22{fill:#af7c4c;}.cls-23{fill:#ad7646;}.cls-24{clip-path:url(#clip-path-6);}.cls-25{fill:#aa7140;}.cls-26{fill:url(#未命名的渐变_5-5);}.cls-27{clip-path:url(#clip-path-7);}.cls-28{clip-path:url(#clip-path-8);}.cls-29{clip-path:url(#clip-path-9);}.cls-30{fill:url(#未命名的渐变_5-6);}.cls-31{clip-path:url(#clip-path-10);}.cls-32{clip-path:url(#clip-path-11);}.cls-33{fill:url(#未命名的渐变_5-7);}.cls-34{clip-path:url(#clip-path-12);}.cls-35{clip-path:url(#clip-path-13);}.cls-36{clip-path:url(#clip-path-14);}.cls-37{fill:#c8b8a7;}.cls-38{clip-path:url(#clip-path-15);}.cls-39{fill:url(#未命名的渐变_5-8);}.cls-40{fill:#b68c62;}.cls-41{clip-path:url(#clip-path-16);}.cls-42{fill:url(#未命名的渐变_5-9);}.cls-43{clip-path:url(#clip-path-17);}.cls-44{clip-path:url(#clip-path-18);}.cls-45{fill:#cec6bd;}.cls-46{clip-path:url(#clip-path-19);}.cls-47{fill:url(#未命名的渐变_5-10);}.cls-48{clip-path:url(#clip-path-20);}.cls-49{fill:url(#未命名的渐变_5-11);}.cls-50{clip-path:url(#clip-path-21);}.cls-51{fill:#bc9a78;}.cls-52{fill:#c5b09a;}.cls-53{clip-path:url(#clip-path-22);}.cls-54{fill:#b4865b;}.cls-55{fill:#b8916a;}.cls-56{fill:#bb9672;}.cls-57{fill:#bd9b7a;}.cls-58{fill:#bfa182;}.cls-59{clip-path:url(#clip-path-23);}.cls-60{fill:#c1a68a;}.cls-61{fill:#c3ab92;}.cls-62{fill:#c7b5a2;}.cls-63{fill:#c9baaa;}.cls-64{fill:#cbbeb1;}.cls-65{fill:#cdc3b9;}.cls-66{fill:#cec8c0;}.cls-67{fill:#d0ccc7;}.cls-68{fill:#ab7342;}.cls-69{clip-path:url(#clip-path-24);}.cls-70{fill:url(#未命名的渐变_5-12);}.cls-71{clip-path:url(#clip-path-25);}.cls-72{clip-path:url(#clip-path-26);}.cls-73{clip-path:url(#clip-path-27);}.cls-74{clip-path:url(#clip-path-28);}.cls-75{clip-path:url(#clip-path-29);}.cls-76{clip-path:url(#clip-path-30);}.cls-77{fill:url(#未命名的渐变_5-15);}.cls-78{clip-path:url(#clip-path-31);}.cls-79{clip-path:url(#clip-path-32);}.cls-80{fill:#cbc0b3;}.cls-81{clip-path:url(#clip-path-33);}.cls-82{fill:url(#未命名的渐变_5-16);}.cls-83{clip-path:url(#clip-path-34);}.cls-84{clip-path:url(#clip-path-35);}.cls-85{fill:url(#未命名的渐变_5-17);}.cls-86{clip-path:url(#clip-path-36);}.cls-87{clip-path:url(#clip-path-37);}.cls-88{fill:url(#未命名的渐变_5-18);}.cls-89{clip-path:url(#clip-path-38);}.cls-90{clip-path:url(#clip-path-39);}.cls-91{clip-path:url(#clip-path-40);}.cls-92{fill:url(#未命名的渐变_5-19);}.cls-93{clip-path:url(#clip-path-41);}.cls-94{clip-path:url(#clip-path-42);}.cls-95{fill:url(#未命名的渐变_5-20);}.cls-96{clip-path:url(#clip-path-43);}.cls-97{clip-path:url(#clip-path-44);}.cls-98{fill:url(#未命名的渐变_5-21);}.cls-99{clip-path:url(#clip-path-45);}.cls-100{clip-path:url(#clip-path-46);}.cls-101{fill:url(#未命名的渐变_5-22);}.cls-102{clip-path:url(#clip-path-47);}.cls-103{clip-path:url(#clip-path-48);}.cls-104{clip-path:url(#clip-path-49);}.cls-105{fill:url(#未命名的渐变_5-23);}.cls-106{clip-path:url(#clip-path-50);}.cls-107{clip-path:url(#clip-path-51);}.cls-108{fill:url(#未命名的渐变_5-24);}.cls-109{clip-path:url(#clip-path-52);}.cls-110{clip-path:url(#clip-path-53);}.cls-111{fill:url(#未命名的渐变_5-25);}.cls-112{clip-path:url(#clip-path-54);}.cls-113{clip-path:url(#clip-path-55);}.cls-114{clip-path:url(#clip-path-56);}.cls-115{fill:url(#未命名的渐变_5-26);}.cls-116{clip-path:url(#clip-path-57);}.cls-117{clip-path:url(#clip-path-58);}.cls-118{fill:url(#未命名的渐变_5-27);}</style><linearGradient id="未命名的渐变_5" x1="19.83" y1="73.41" x2="29.86" y2="73.41" gradientUnits="userSpaceOnUse"><stop offset="0" stop-color="#f3b22c"/><stop offset="0.49" stop-color="#e9e9e9"/><stop offset="1" stop-color="#f1a405"/></linearGradient><linearGradient id="未命名的渐变_5-2" x1="11.02" y1="103.29" x2="20.58" y2="103.29" xlink:href="#未命名的渐变_5"/><clipPath id="clip-path"><path id="SVGID" class="cls-1" d="M67.31,115l-.4,1.81a10.76,10.76,0,0,1-7.47,7.64c-6.56,2.17-14.27-.6-17.23-6.2a9.36,9.36,0,0,1-.94-6.44l.4-1.81a9.39,9.39,0,0,0,.94,6.45c3,5.6,10.67,8.37,17.23,6.19C63.9,121.33,66.56,118.41,67.31,115Z"/></clipPath><linearGradient id="未命名的渐变_5-3" x1="41.46" y1="112.54" x2="67.52" y2="112.54" xlink:href="#未命名的渐变_5"/><clipPath id="clip-path-2"><path id="SVGID-2" data-name="SVGID" class="cls-1" d="M49.14,102.41c6.56-2.18,14.27.59,17.23,6.19s0,11.9-6.53,14.08-14.27-.59-17.23-6.19S42.58,104.59,49.14,102.41ZM63,115.59l-5.27-10L46,109.5l5.27,10L63,115.59"/></clipPath><clipPath id="clip-path-3"><path id="SVGID-3" data-name="SVGID" class="cls-1" d="M25.31,95.74l-1.09.79a5.33,5.33,0,0,1-2.53,1c-3.82.44-8.2-2.58-9.78-6.75-1.18-3.1-.48-6,1.52-7.4l1.09-.79c-2,1.45-2.7,4.31-1.52,7.4,1.58,4.17,6,7.19,9.78,6.75A5.33,5.33,0,0,0,25.31,95.74Z"/></clipPath><linearGradient id="未命名的渐变_5-4" x1="12.43" y1="89.14" x2="27.4" y2="89.14" xlink:href="#未命名的渐变_5"/><clipPath id="clip-path-4"><path id="SVGID-4" data-name="SVGID" class="cls-1" d="M17.05,81.59c3.82-.44,8.2,2.58,9.78,6.75s-.23,7.91-4,8.35-8.2-2.58-9.78-6.75S13.23,82,17.05,81.59Zm7.68,10.87L21.91,85l-6.81.79,2.82,7.43,6.81-.79"/></clipPath><clipPath id="clip-path-5"><path id="SVGID-5" data-name="SVGID" class="cls-1" d="M84.42,114.27l1.87,1a7.19,7.19,0,0,0-4.21-.68l-1.86-1A7,7,0,0,1,84.42,114.27Z"/></clipPath><clipPath id="clip-path-6"><path id="SVGID-6" data-name="SVGID" class="cls-1" d="M77.84,129.85,76,128.9a6.85,6.85,0,0,1-3.65-6.28,9.36,9.36,0,0,1,7.89-9l1.86,1a9.37,9.37,0,0,0-7.89,9A6.85,6.85,0,0,0,77.84,129.85Z"/></clipPath><linearGradient id="未命名的渐变_5-5" x1="74.19" y1="122.54" x2="89.94" y2="122.54" xlink:href="#未命名的渐变_5"/><clipPath id="clip-path-7"><path id="SVGID-7" data-name="SVGID" class="cls-1" d="M82.08,114.54a6.79,6.79,0,0,1,7.86,7,9.36,9.36,0,0,1-7.89,9,6.78,6.78,0,0,1-7.86-7A9.37,9.37,0,0,1,82.08,114.54ZM85.93,126l0-7.87-7.75,1,0,7.88,7.75-1"/></clipPath><clipPath id="clip-path-8"><path id="SVGID-8" data-name="SVGID" class="cls-1" d="M72.7,8.59l1.87,1A5.61,5.61,0,0,0,71.24,9l-1.87-1A5.66,5.66,0,0,1,72.7,8.59Z"/></clipPath><clipPath id="clip-path-9"><path id="SVGID-9" data-name="SVGID" class="cls-1" d="M67.88,21.13,66,20.18a5.42,5.42,0,0,1-2.89-5,7.41,7.41,0,0,1,6.24-7.16l1.87,1A7.41,7.41,0,0,0,65,16.16,5.43,5.43,0,0,0,67.88,21.13Z"/></clipPath><linearGradient id="未命名的渐变_5-6" x1="64.99" y1="15.34" x2="77.46" y2="15.34" xlink:href="#未命名的渐变_5"/><clipPath id="clip-path-10"><path id="SVGID-10" data-name="SVGID" class="cls-1" d="M71.24,9a5.37,5.37,0,0,1,6.22,5.51,7.42,7.42,0,0,1-6.25,7.15A5.37,5.37,0,0,1,65,16.16,7.41,7.41,0,0,1,71.24,9Zm3.05,9V11.82l-6.14.81v6.23l6.14-.81"/></clipPath><clipPath id="clip-path-11"><path id="SVGID-11" data-name="SVGID" class="cls-1" d="M45.05,27.2,44,28a4.2,4.2,0,0,1-2,.75c-3,.35-6.49-2-7.74-5.34-.93-2.45-.38-4.72,1.2-5.86l1.09-.79c-1.58,1.14-2.13,3.41-1.2,5.86C36.55,25.91,40,28.3,43,28A4.2,4.2,0,0,0,45.05,27.2Z"/></clipPath><linearGradient id="未命名的渐变_5-7" x1="34.84" y1="21.97" x2="46.7" y2="21.97" xlink:href="#未命名的渐变_5"/><clipPath id="clip-path-12"><path id="SVGID-12" data-name="SVGID" class="cls-1" d="M38.51,16c3-.35,6.49,2,7.74,5.34S46.07,27.6,43,28s-6.49-2-7.74-5.34S35.48,16.35,38.51,16Zm6.08,8.61-2.23-5.89-5.4.62,2.23,5.89,5.4-.62"/></clipPath><clipPath id="clip-path-13"><path id="SVGID-13" data-name="SVGID" class="cls-1" d="M37.32,100.2l1.87,1a5.54,5.54,0,0,0-3.33-.54l-1.87-1A5.66,5.66,0,0,1,37.32,100.2Z"/></clipPath><clipPath id="clip-path-14"><path id="SVGID-14" data-name="SVGID" class="cls-1" d="M32.5,112.74l-1.86-.95a5.42,5.42,0,0,1-2.89-5A7.41,7.41,0,0,1,34,99.66l1.87,1a7.41,7.41,0,0,0-6.25,7.15A5.43,5.43,0,0,0,32.5,112.74Z"/></clipPath><clipPath id="clip-path-15"><path id="SVGID-15" data-name="SVGID" class="cls-1" d="M35.86,100.62a5.37,5.37,0,0,1,6.22,5.5,7.42,7.42,0,0,1-6.25,7.16,5.37,5.37,0,0,1-6.22-5.51A7.41,7.41,0,0,1,35.86,100.62Zm3,9v-6.23l-6.14.81v6.23l6.14-.81"/></clipPath><linearGradient id="未命名的渐变_5-8" x1="29.61" y1="106.95" x2="42.08" y2="106.95" xlink:href="#未命名的渐变_5"/><clipPath id="clip-path-16"><path id="SVGID-16" data-name="SVGID" class="cls-1" d="M128.29,67.26l-.73,1.47c-.51,1-2.26,1.44-4.45.9-2.77-.67-5.19-2.57-5.42-4.25a1.52,1.52,0,0,1,.13-.91l.73-1.47a1.54,1.54,0,0,0-.13.92c.22,1.67,2.65,3.57,5.41,4.25C126,68.7,127.78,68.29,128.29,67.26Z"/></clipPath><linearGradient id="未命名的渐变_5-9" x1="118.4" y1="65.13" x2="128.44" y2="65.13" xlink:href="#未命名的渐变_5"/><clipPath id="clip-path-17"><path id="SVGID-17" data-name="SVGID" class="cls-1" d="M123,62.09c2.77.67,5.19,2.58,5.42,4.25s-1.83,2.5-4.59,1.83-5.19-2.58-5.41-4.25S120.24,61.42,123,62.09Zm3.08,5.13-.4-3L120.75,63l.41,3,4.92,1.19"/></clipPath><clipPath id="clip-path-18"><path id="SVGID-18" data-name="SVGID" class="cls-1" d="M41.89,121.4l-.73,1.47c-.51,1-2.26,1.44-4.45.9-2.77-.67-5.19-2.57-5.42-4.25a1.45,1.45,0,0,1,.14-.91l.72-1.47a1.54,1.54,0,0,0-.13.92c.23,1.67,2.65,3.58,5.41,4.25C39.63,122.84,41.38,122.43,41.89,121.4Z"/></clipPath><clipPath id="clip-path-19"><path id="SVGID-19" data-name="SVGID" class="cls-1" d="M36.6,116.23c2.77.67,5.19,2.58,5.42,4.25s-1.83,2.5-4.59,1.83-5.18-2.58-5.41-4.25S33.84,115.56,36.6,116.23Zm3.08,5.13-.4-3-4.93-1.19.41,3,4.92,1.19"/></clipPath><linearGradient id="未命名的渐变_5-10" x1="32" y1="119.27" x2="42.04" y2="119.27" xlink:href="#未命名的渐变_5"/><clipPath id="clip-path-20"><path id="SVGID-20" data-name="SVGID" class="cls-1" d="M23.78,38.39l-.72,1.47c-.51,1-2.26,1.44-4.46.91-2.76-.68-5.18-2.58-5.41-4.26a1.52,1.52,0,0,1,.13-.91l.73-1.47a1.55,1.55,0,0,0-.14.92c.23,1.67,2.66,3.58,5.42,4.25C21.52,39.83,23.27,39.42,23.78,38.39Z"/></clipPath><linearGradient id="未命名的渐变_5-11" x1="13.89" y1="36.26" x2="23.93" y2="36.26" xlink:href="#未命名的渐变_5"/><clipPath id="clip-path-21"><path id="SVGID-21" data-name="SVGID" class="cls-1" d="M18.5,33.23c2.76.67,5.19,2.57,5.42,4.25S22.09,40,19.33,39.3s-5.19-2.58-5.42-4.25S15.74,32.56,18.5,33.23Zm3.08,5.12-.41-3-4.92-1.2.41,3,4.92,1.19"/></clipPath><clipPath id="clip-path-22"><path id="SVGID-22" data-name="SVGID" class="cls-1" d="M22.23,42.37l1.19-.64a3.73,3.73,0,0,1,3.21,0l-1.19.64A3.73,3.73,0,0,0,22.23,42.37Z"/></clipPath><clipPath id="clip-path-23"><path id="SVGID-23" data-name="SVGID" class="cls-1" d="M28.78,50.48l-1.19.64a3.28,3.28,0,0,0,1.66-2.62,6.3,6.3,0,0,0-3.81-6.18l1.19-.64a6.31,6.31,0,0,1,3.81,6.18A3.32,3.32,0,0,1,28.78,50.48Z"/></clipPath><clipPath id="clip-path-24"><path id="SVGID-24" data-name="SVGID" class="cls-1" d="M25.44,42.32a6.3,6.3,0,0,1,3.81,6.18c-.29,2.44-2.47,3.64-4.87,2.67A6.3,6.3,0,0,1,20.57,45C20.86,42.55,23,41.35,25.44,42.32Zm1.35,7.47.52-4.36L23,43.71l-.52,4.35,4.27,1.73"/></clipPath><linearGradient id="未命名的渐变_5-12" x1="20.54" y1="46.75" x2="29.28" y2="46.75" xlink:href="#未命名的渐变_5"/><clipPath id="clip-path-25"><path id="SVGID-25" data-name="SVGID" class="cls-1" d="M29.71,75.54,29,77c-.51,1-2.26,1.44-4.46.91-2.76-.67-5.18-2.58-5.41-4.25a1.55,1.55,0,0,1,.13-.92L20,71.27a1.57,1.57,0,0,0-.14.92c.23,1.68,2.66,3.58,5.42,4.25C27.46,77,29.2,76.57,29.71,75.54Z"/></clipPath><clipPath id="clip-path-26"><path id="SVGID-26" data-name="SVGID" class="cls-2" d="M24.43,70.37c2.76.67,5.19,2.57,5.42,4.25S28,77.11,25.26,76.44s-5.19-2.57-5.42-4.25S21.67,69.7,24.43,70.37Zm3.08,5.13-.41-3-4.92-1.2.41,3,4.92,1.2"/></clipPath><clipPath id="clip-path-27"><path id="SVGID-27" data-name="SVGID" class="cls-1" d="M16.5,97.9l1.86.95a4.24,4.24,0,0,0-2.55-.41l-1.86-1A4.33,4.33,0,0,1,16.5,97.9Z"/></clipPath><clipPath id="clip-path-28"><path id="SVGID-28" data-name="SVGID" class="cls-1" d="M13.24,107.73l-1.86-1A4.17,4.17,0,0,1,9.16,103,5.69,5.69,0,0,1,14,97.48l1.86,1A5.68,5.68,0,0,0,11,103.92,4.17,4.17,0,0,0,13.24,107.73Z"/></clipPath><clipPath id="clip-path-29"><path id="SVGID-29" data-name="SVGID" class="cls-3" d="M15.81,98.44a4.11,4.11,0,0,1,4.77,4.22,5.67,5.67,0,0,1-4.79,5.48A4.12,4.12,0,0,1,11,103.92,5.68,5.68,0,0,1,15.81,98.44Zm2.34,6.93v-4.78l-4.7.62V106l4.7-.62"/></clipPath><clipPath id="clip-path-30"><path id="SVGID-30" data-name="SVGID" class="cls-1" d="M26.26,114.31l-1.09.79a3.18,3.18,0,0,1-1.54.58c-2.32.27-5-1.56-5.94-4.1-.71-1.87-.28-3.61.93-4.49l1.09-.79c-1.22.88-1.64,2.62-.93,4.5,1,2.53,3.62,4.36,5.94,4.09A3.22,3.22,0,0,0,26.26,114.31Z"/></clipPath><linearGradient id="未命名的渐变_5-15" x1="18.44" y1="110.31" x2="27.53" y2="110.31" xlink:href="#未命名的渐变_5"/><clipPath id="clip-path-31"><path id="SVGID-31" data-name="SVGID" class="cls-1" d="M21.25,105.73c2.31-.27,5,1.56,5.93,4.1s-.14,4.79-2.46,5.06-5-1.56-5.94-4.09S18.93,106,21.25,105.73Zm4.65,6.6-1.71-4.51-4.13.47,1.71,4.51,4.13-.47"/></clipPath><clipPath id="clip-path-32"><path id="SVGID-32" data-name="SVGID" class="cls-1" d="M100.9,108.73l-1.09.79a3.18,3.18,0,0,1-1.54.58c-2.31.27-5-1.57-5.93-4.1-.71-1.87-.29-3.61.92-4.49l1.09-.79c-1.21.88-1.63,2.62-.92,4.5,1,2.52,3.61,4.36,5.93,4.09A3.18,3.18,0,0,0,100.9,108.73Z"/></clipPath><clipPath id="clip-path-33"><path id="SVGID-33" data-name="SVGID" class="cls-1" d="M95.89,100.15c2.32-.27,5,1.56,5.94,4.09s-.15,4.8-2.47,5.07-5-1.57-5.93-4.09S93.57,100.42,95.89,100.15Zm4.66,6.6-1.71-4.51-4.13.47,1.71,4.51,4.13-.47"/></clipPath><linearGradient id="未命名的渐变_5-16" x1="93.08" y1="104.73" x2="102.17" y2="104.73" xlink:href="#未命名的渐变_5"/><clipPath id="clip-path-34"><path id="SVGID-34" data-name="SVGID" class="cls-1" d="M41.77,38.19l-.72,1.46c-.32.63-1.38.88-2.72.55-1.68-.4-3.16-1.56-3.3-2.59a.91.91,0,0,1,.08-.55l.72-1.47a.94.94,0,0,0-.08.56c.14,1,1.62,2.18,3.3,2.59C40.39,39.06,41.46,38.82,41.77,38.19Z"/></clipPath><clipPath id="clip-path-35"><path id="SVGID-35" data-name="SVGID" class="cls-1" d="M38.55,35c1.68.41,3.16,1.57,3.3,2.59s-1.11,1.52-2.8,1.11-3.16-1.57-3.3-2.59S36.87,34.63,38.55,35Zm1.88,3.12-.25-1.82-3-.73.25,1.82,3,.73"/></clipPath><linearGradient id="未命名的渐变_5-17" x1="35.74" y1="36.89" x2="41.86" y2="36.89" xlink:href="#未命名的渐变_5"/><clipPath id="clip-path-36"><path id="SVGID-36" data-name="SVGID" class="cls-1" d="M110,118.29l-.73,1.47c-.31.63-1.37.87-2.71.55-1.69-.41-3.17-1.57-3.31-2.59a1,1,0,0,1,.09-.56l.72-1.47a1,1,0,0,0-.08.56c.14,1,1.62,2.18,3.3,2.59C108.65,119.17,109.72,118.92,110,118.29Z"/></clipPath><clipPath id="clip-path-37"><path id="SVGID-37" data-name="SVGID" class="cls-1" d="M106.81,115.14c1.68.41,3.16,1.57,3.3,2.59s-1.11,1.52-2.8,1.11-3.16-1.57-3.3-2.59S105.12,114.73,106.81,115.14Zm1.87,3.13-.24-1.82-3-.73.25,1.82,3,.73"/></clipPath><linearGradient id="未命名的渐变_5-18" x1="104" y1="116.99" x2="110.12" y2="116.99" xlink:href="#未命名的渐变_5"/><clipPath id="clip-path-38"><path id="SVGID-38" data-name="SVGID" class="cls-1" d="M19.65,55.87l1.18-.65a2.3,2.3,0,0,1,2,0l-1.19.65A2.24,2.24,0,0,0,19.65,55.87Z"/></clipPath><clipPath id="clip-path-39"><path id="SVGID-39" data-name="SVGID" class="cls-1" d="M24.1,60.56l-1.18.64a2,2,0,0,0,1-1.6,3.83,3.83,0,0,0-2.33-3.76l1.19-.65A3.85,3.85,0,0,1,25.11,59,2,2,0,0,1,24.1,60.56Z"/></clipPath><clipPath id="clip-path-40"><path id="SVGID-40" data-name="SVGID" class="cls-1" d="M21.6,55.84a3.83,3.83,0,0,1,2.33,3.76,2,2,0,0,1-3,1.63,3.83,3.83,0,0,1-2.32-3.76A2,2,0,0,1,21.6,55.84Zm.83,4.55.31-2.66-2.6-1-.32,2.66,2.61,1"/></clipPath><linearGradient id="未命名的渐变_5-19" x1="18.62" y1="58.53" x2="23.95" y2="58.53" xlink:href="#未命名的渐变_5"/><clipPath id="clip-path-41"><path id="SVGID-41" data-name="SVGID" class="cls-1" d="M13.75,74.75,13,76.22c-.31.63-1.38.88-2.72.55C8.63,76.36,7.15,75.2,7,74.18a.94.94,0,0,1,.08-.56l.73-1.47a1,1,0,0,0-.08.56c.14,1,1.61,2.18,3.3,2.59C12.38,75.63,13.44,75.38,13.75,74.75Z"/></clipPath><clipPath id="clip-path-42"><path id="SVGID-42" data-name="SVGID" class="cls-1" d="M10.53,71.6c1.69.41,3.17,1.57,3.3,2.59S12.72,75.71,11,75.3s-3.16-1.57-3.3-2.59S8.85,71.19,10.53,71.6Zm1.88,3.13-.25-1.82-3-.73L9.41,74l3,.73"/></clipPath><linearGradient id="未命名的渐变_5-20" x1="7.73" y1="73.45" x2="13.84" y2="73.45" xlink:href="#未命名的渐变_5"/><clipPath id="clip-path-43"><path id="SVGID-43" data-name="SVGID" class="cls-1" d="M71.71,127.54,71,129c-.51,1-2.26,1.44-4.46.91-2.76-.67-5.18-2.58-5.41-4.25a1.55,1.55,0,0,1,.13-.92l.73-1.47a1.57,1.57,0,0,0-.14.92c.23,1.68,2.66,3.58,5.42,4.25C69.46,129,71.2,128.57,71.71,127.54Z"/></clipPath><clipPath id="clip-path-44"><path id="SVGID-44" data-name="SVGID" class="cls-1" d="M66.43,122.37c2.76.67,5.19,2.57,5.42,4.25s-1.83,2.49-4.59,1.82-5.19-2.57-5.42-4.25S63.67,121.7,66.43,122.37Zm3.08,5.13-.41-3-4.92-1.2.41,3,4.92,1.2"/></clipPath><linearGradient id="未命名的渐变_5-21" x1="61.83" y1="125.41" x2="71.86" y2="125.41" xlink:href="#未命名的渐变_5"/><clipPath id="clip-path-45"><path id="SVGID-45" data-name="SVGID" class="cls-1" d="M55.75,126.75,55,128.22c-.31.63-1.38.88-2.72.55-1.68-.41-3.16-1.57-3.3-2.59a.94.94,0,0,1,.08-.56l.73-1.47a1,1,0,0,0-.08.56c.14,1,1.61,2.18,3.3,2.59C54.38,127.63,55.44,127.38,55.75,126.75Z"/></clipPath><clipPath id="clip-path-46"><path id="SVGID-46" data-name="SVGID" class="cls-1" d="M52.53,123.6c1.69.41,3.17,1.57,3.3,2.59s-1.11,1.52-2.79,1.11-3.16-1.57-3.3-2.59S50.85,123.19,52.53,123.6Zm1.88,3.13-.25-1.82-3-.73.25,1.82,3,.73"/></clipPath><linearGradient id="未命名的渐变_5-22" x1="49.73" y1="125.45" x2="55.84" y2="125.45" xlink:href="#未命名的渐变_5"/><clipPath id="clip-path-47"><path id="SVGID-47" data-name="SVGID" class="cls-1" d="M29.26,125.54l1.19-.65a2.27,2.27,0,0,1,1.95,0l-1.18.64A2.29,2.29,0,0,0,29.26,125.54Z"/></clipPath><clipPath id="clip-path-48"><path id="SVGID-48" data-name="SVGID" class="cls-1" d="M33.71,130.23l-1.18.64a2,2,0,0,0,1-1.6,3.85,3.85,0,0,0-2.32-3.77l1.18-.64a3.87,3.87,0,0,1,2.33,3.77A2,2,0,0,1,33.71,130.23Z"/></clipPath><clipPath id="clip-path-49"><path id="SVGID-49" data-name="SVGID" class="cls-1" d="M31.22,125.5a3.85,3.85,0,0,1,2.32,3.77,2,2,0,0,1-3,1.63,3.83,3.83,0,0,1-2.32-3.76A2,2,0,0,1,31.22,125.5Zm.82,4.56.31-2.66-2.6-1.05L29.43,129,32,130.06"/></clipPath><linearGradient id="未命名的渐变_5-23" x1="28.23" y1="128.2" x2="33.56" y2="128.2" xlink:href="#未命名的渐变_5"/><clipPath id="clip-path-50"><path id="SVGID-50" data-name="SVGID" class="cls-1" d="M73.67,90.92,73,92.39c-.31.62-1.38.87-2.72.55-1.68-.41-3.16-1.57-3.3-2.59a.94.94,0,0,1,.08-.56l.73-1.47a.94.94,0,0,0-.08.56c.14,1,1.62,2.18,3.3,2.59C72.3,91.8,73.36,91.55,73.67,90.92Z"/></clipPath><clipPath id="clip-path-51"><path id="SVGID-51" data-name="SVGID" class="cls-1" d="M70.45,87.77c1.69.41,3.17,1.57,3.3,2.59S72.64,91.88,71,91.47s-3.16-1.57-3.3-2.59S68.77,87.36,70.45,87.77Zm1.88,3.12-.25-1.82-3-.73.25,1.83,3,.72"/></clipPath><linearGradient id="未命名的渐变_5-24" x1="67.65" y1="89.62" x2="73.76" y2="89.62" xlink:href="#未命名的渐变_5"/><clipPath id="clip-path-52"><path id="SVGID-52" data-name="SVGID" class="cls-1" d="M32,106.29l-.73,1.47c-.31.63-1.38.88-2.71.55-1.69-.41-3.17-1.57-3.31-2.59a1,1,0,0,1,.09-.56l.72-1.47a1,1,0,0,0-.08.56c.14,1,1.62,2.19,3.3,2.59C30.65,107.17,31.72,106.92,32,106.29Z"/></clipPath><clipPath id="clip-path-53"><path id="SVGID-53" data-name="SVGID" class="cls-1" d="M28.81,103.14c1.68.41,3.16,1.57,3.3,2.59s-1.12,1.52-2.8,1.11-3.16-1.56-3.3-2.59S27.12,102.73,28.81,103.14Zm1.87,3.13-.25-1.82-3-.73.25,1.82,3,.73"/></clipPath><linearGradient id="未命名的渐变_5-25" x1="26" y1="104.99" x2="32.12" y2="104.99" xlink:href="#未命名的渐变_5"/><clipPath id="clip-path-54"><path id="SVGID-54" data-name="SVGID" class="cls-1" d="M108.61,91.47l1.19-.64a2.24,2.24,0,0,1,2,0l-1.19.64A2.27,2.27,0,0,0,108.61,91.47Z"/></clipPath><clipPath id="clip-path-55"><path id="SVGID-55" data-name="SVGID" class="cls-1" d="M113.06,96.16l-1.18.65a2,2,0,0,0,1-1.6,3.84,3.84,0,0,0-2.33-3.77l1.19-.64a3.83,3.83,0,0,1,2.32,3.76A2,2,0,0,1,113.06,96.16Z"/></clipPath><clipPath id="clip-path-56"><path id="SVGID-56" data-name="SVGID" class="cls-1" d="M110.56,91.44a3.84,3.84,0,0,1,2.33,3.77,2,2,0,0,1-3,1.63,3.85,3.85,0,0,1-2.32-3.77A2,2,0,0,1,110.56,91.44Zm.83,4.55.31-2.65-2.6-1-.32,2.65,2.61,1"/></clipPath><linearGradient id="未命名的渐变_5-26" x1="107.58" y1="94.14" x2="112.91" y2="94.14" xlink:href="#未命名的渐变_5"/><clipPath id="clip-path-57"><path id="SVGID-57" data-name="SVGID" class="cls-1" d="M113.14,38.38l-.72,1.47c-.31.62-1.38.87-2.72.55-1.68-.41-3.16-1.57-3.3-2.59a.94.94,0,0,1,.08-.56l.73-1.47a.94.94,0,0,0-.08.56c.14,1,1.61,2.18,3.3,2.59C111.77,39.25,112.83,39,113.14,38.38Z"/></clipPath><clipPath id="clip-path-58"><path id="SVGID-58" data-name="SVGID" class="cls-1" d="M109.92,35.23c1.69.41,3.17,1.57,3.31,2.59s-1.12,1.52-2.8,1.11-3.16-1.57-3.3-2.59S108.24,34.82,109.92,35.23Zm1.88,3.12-.25-1.82-3-.73.25,1.83,3,.72"/></clipPath><linearGradient id="未命名的渐变_5-27" x1="107.12" y1="37.08" x2="113.24" y2="37.08" xlink:href="#未命名的渐变_5"/></defs><g class="cls-4"><polygon class="cls-5" points="57.7 105.61 57.3 107.42 45.61 111.3 46.01 109.5 57.7 105.61"/><polygon class="cls-6" points="62.97 115.59 62.57 117.4 57.3 107.42 57.7 105.61 62.97 115.59"/><g class="cls-4"><g class="cls-7"><g class="cls-4"><path class="cls-8" d="M67.31,115l-.4,1.81a10,10,0,0,1-4.2,6l.4-1.81a10,10,0,0,0,4.2-6"/><path class="cls-9" d="M63.11,121.06l-.4,1.81a13,13,0,0,1-3.27,1.62c-.42.14-.85.26-1.28.36l.4-1.81c.43-.1.86-.22,1.28-.36a13,13,0,0,0,3.27-1.62"/><path class="cls-10" d="M58.56,123l-.4,1.81c-6.25,1.45-13.18-1.32-15.95-6.56a9.36,9.36,0,0,1-.94-6.44l.4-1.81a9.39,9.39,0,0,0,.94,6.45c2.77,5.24,9.7,8,16,6.55"/></g></g></g><path class="cls-11" d="M49.14,102.41c6.56-2.18,14.27.59,17.23,6.19s0,11.9-6.53,14.08-14.27-.59-17.23-6.19S42.58,104.59,49.14,102.41ZM63,115.59l-5.27-10L46,109.5l5.27,10L63,115.59"/></g><g class="cls-4"><polygon class="cls-13" points="24.73 92.46 23.64 93.25 20.82 85.82 21.91 85.03 24.73 92.46"/><polygon class="cls-6" points="21.91 85.03 20.82 85.82 14.01 86.61 15.1 85.82 21.91 85.03"/><g class="cls-4"><g class="cls-14"><g class="cls-4"><path class="cls-10" d="M25.31,95.74l-1.09.79a5.33,5.33,0,0,1-2.53,1c-3.82.44-8.2-2.58-9.78-6.75a8.9,8.9,0,0,1-.41-1.41l1.09-.79A8.9,8.9,0,0,0,13,89.94c1.58,4.17,6,7.19,9.78,6.75a5.33,5.33,0,0,0,2.53-1"/><path class="cls-9" d="M12.59,88.53l-1.09.79a7.21,7.21,0,0,1-.15-2l1.09-.79a7.21,7.21,0,0,0,.15,2"/><path class="cls-8" d="M12.44,86.54l-1.09.79a5.88,5.88,0,0,1,.43-1.87l1.08-.79a6.23,6.23,0,0,0-.42,1.87"/><path class="cls-15" d="M12.86,84.67l-1.08.79a4.84,4.84,0,0,1,1.65-2.13l1.09-.79a4.93,4.93,0,0,0-1.66,2.13"/></g></g></g><path class="cls-16" d="M17.05,81.59c3.82-.44,8.2,2.58,9.78,6.75s-.23,7.91-4,8.35-8.2-2.58-9.78-6.75S13.23,82,17.05,81.59Zm7.68,10.87L21.91,85l-6.81.79,2.82,7.43,6.81-.79"/></g><g class="cls-4"><polygon class="cls-18" points="85.93 125.96 84.07 125.01 84.08 117.13 85.95 118.09 85.93 125.96"/><polygon class="cls-19" points="78.18 126.99 76.32 126.03 84.07 125.01 85.93 125.96 78.18 126.99"/><g class="cls-4"><g class="cls-20"><g class="cls-4"><path class="cls-21" d="M82.08,114.54l-1.86-1a7.24,7.24,0,0,1,2.72.13l1.86,1a7.44,7.44,0,0,0-2.72-.13"/><path class="cls-22" d="M84.8,114.67l-1.86-1a6.49,6.49,0,0,1,1.24.43l1.87.95a7.37,7.37,0,0,0-1.25-.43"/><path class="cls-23" d="M86.05,115.1l-1.87-.95.24.12,1.87,1-.24-.12"/></g></g></g><g class="cls-4"><g class="cls-24"><g class="cls-4"><path class="cls-10" d="M77.84,129.85,76,128.9a6.85,6.85,0,0,1-3.65-6.28,8.59,8.59,0,0,1,.6-3.14l1.87,1a8.65,8.65,0,0,0-.61,3.15,6.85,6.85,0,0,0,3.65,6.27"/><path class="cls-9" d="M74.8,120.43l-1.87-1a9.57,9.57,0,0,1,.6-1.25l1.86,1a9.51,9.51,0,0,0-.59,1.25"/><path class="cls-8" d="M75.39,119.18l-1.86-1a9.16,9.16,0,0,1,.64-1l1.86,1c-.23.32-.44.64-.64,1"/><path class="cls-15" d="M76,118.2l-1.86-1c.22-.29.46-.58.71-.85l1.86,1c-.25.27-.49.55-.71.84"/><path class="cls-25" d="M76.74,117.36l-1.86-1a9.58,9.58,0,0,1,.8-.76l1.87,1a8.28,8.28,0,0,0-.81.76"/><path class="cls-23" d="M77.55,116.6l-1.87-1a11.17,11.17,0,0,1,.95-.71l1.87,1a8.09,8.09,0,0,0-1,.71"/><path class="cls-22" d="M78.5,115.89l-1.87-1a9.31,9.31,0,0,1,1.28-.69l1.87,1a8.82,8.82,0,0,0-1.28.7"/><path class="cls-21" d="M79.78,115.19l-1.87-1a8.27,8.27,0,0,1,2.31-.65l1.86,1a8.65,8.65,0,0,0-2.3.65"/></g></g></g><path class="cls-26" d="M82.08,114.54a6.79,6.79,0,0,1,7.86,7,9.36,9.36,0,0,1-7.89,9,6.78,6.78,0,0,1-7.86-7A9.37,9.37,0,0,1,82.08,114.54ZM85.93,126l0-7.87-7.75,1,0,7.88,7.75-1"/></g><g class="cls-4"><polygon class="cls-18" points="74.29 18.05 72.42 17.1 72.44 10.86 74.3 11.82 74.29 18.05"/><polygon class="cls-19" points="68.15 18.86 66.29 17.91 72.42 17.1 74.29 18.05 68.15 18.86"/><g class="cls-4"><g class="cls-28"><g class="cls-4"><path class="cls-21" d="M71.24,9l-1.87-1a6,6,0,0,1,2.16.11l1.86.95A5.91,5.91,0,0,0,71.24,9"/><path class="cls-22" d="M73.39,9.11l-1.86-.95a5.4,5.4,0,0,1,1,.34l1.87.95a6.8,6.8,0,0,0-1-.34"/><path class="cls-23" d="M74.38,9.45,72.51,8.5l.19.09,1.87,1-.19-.1"/></g></g></g><g class="cls-4"><g class="cls-29"><g class="cls-4"><path class="cls-10" d="M67.88,21.13,66,20.18a5.42,5.42,0,0,1-2.89-5,6.81,6.81,0,0,1,.48-2.49l1.86.95A6.81,6.81,0,0,0,65,16.16a5.43,5.43,0,0,0,2.89,5"/><path class="cls-9" d="M65.47,13.67l-1.86-.95a7.46,7.46,0,0,1,.47-1l1.86,1a6.79,6.79,0,0,0-.47,1"/><path class="cls-8" d="M65.94,12.69l-1.86-1a5.71,5.71,0,0,1,.51-.77l1.86.95q-.27.38-.51.78"/><path class="cls-15" d="M66.45,11.91,64.59,11a6,6,0,0,1,.56-.67l1.86,1a7.1,7.1,0,0,0-.56.67"/><path class="cls-25" d="M67,11.24l-1.86-1a7.23,7.23,0,0,1,.63-.61l1.87,1a6.06,6.06,0,0,0-.64.6"/><path class="cls-23" d="M67.65,10.64l-1.87-1a7.09,7.09,0,0,1,.76-.56l1.86,1a8.23,8.23,0,0,0-.75.57"/><path class="cls-22" d="M68.4,10.07l-1.86-1a7.58,7.58,0,0,1,1-.55l1.86.95a7.58,7.58,0,0,0-1,.55"/><path class="cls-21" d="M69.41,9.52l-1.86-.95a7.16,7.16,0,0,1,1.82-.52l1.87,1a6.72,6.72,0,0,0-1.83.51"/></g></g></g><path class="cls-30" d="M71.24,9a5.37,5.37,0,0,1,6.22,5.51,7.42,7.42,0,0,1-6.25,7.15A5.37,5.37,0,0,1,65,16.16,7.41,7.41,0,0,1,71.24,9Zm3.05,9V11.82l-6.14.81v6.23l6.14-.81"/></g><g class="cls-4"><polygon class="cls-13" points="44.59 24.61 43.5 25.39 41.27 19.51 42.35 18.72 44.59 24.61"/><polygon class="cls-6" points="42.35 18.72 41.27 19.51 35.87 20.13 36.96 19.34 42.35 18.72"/><g class="cls-4"><g class="cls-32"><g class="cls-4"><path class="cls-10" d="M45.05,27.2,44,28a4.2,4.2,0,0,1-2,.75c-3,.35-6.49-2-7.74-5.34a7.07,7.07,0,0,1-.33-1.12L35,21.49a7.07,7.07,0,0,0,.33,1.12C36.55,25.91,40,28.3,43,28a4.2,4.2,0,0,0,2-.75"/><path class="cls-9" d="M35,21.49l-1.09.79a5.74,5.74,0,0,1-.11-1.58l1.09-.79A5.72,5.72,0,0,0,35,21.49"/><path class="cls-8" d="M34.86,19.91l-1.09.79a4.71,4.71,0,0,1,.33-1.48l1.09-.79a4.71,4.71,0,0,0-.33,1.48"/><path class="cls-15" d="M35.19,18.43l-1.09.79a3.89,3.89,0,0,1,1.31-1.68l1.09-.79a3.89,3.89,0,0,0-1.31,1.68"/></g></g></g><path class="cls-33" d="M38.51,16c3-.35,6.49,2,7.74,5.34S46.07,27.6,43,28s-6.49-2-7.74-5.34S35.48,16.35,38.51,16Zm6.08,8.61-2.23-5.89-5.4.62,2.23,5.89,5.4-.62"/></g><g class="cls-4"><polygon class="cls-18" points="38.91 109.66 37.04 108.7 37.05 102.47 38.92 103.42 38.91 109.66"/><polygon class="cls-19" points="32.77 110.47 30.91 109.52 37.04 108.7 38.91 109.66 32.77 110.47"/><g class="cls-4"><g class="cls-35"><g class="cls-4"><path class="cls-21" d="M35.86,100.62l-1.87-1a5.73,5.73,0,0,1,2.16.11l1.86,1a5.91,5.91,0,0,0-2.15-.1"/><path class="cls-22" d="M38,100.72l-1.86-1a4.74,4.74,0,0,1,1,.34l1.87,1a5.51,5.51,0,0,0-1-.34"/><path class="cls-23" d="M39,101.06l-1.87-1,.19.09,1.87,1-.19-.1"/></g></g></g><g class="cls-4"><g class="cls-36"><g class="cls-4"><path class="cls-10" d="M32.5,112.74l-1.86-.95a5.42,5.42,0,0,1-2.89-5,6.77,6.77,0,0,1,.48-2.49l1.86,1a6.81,6.81,0,0,0-.48,2.49,5.43,5.43,0,0,0,2.89,5"/><path class="cls-9" d="M30.09,105.28l-1.86-1a7.46,7.46,0,0,1,.47-1l1.86,1a7.46,7.46,0,0,0-.47,1"/><path class="cls-8" d="M30.56,104.29l-1.86-1a6.52,6.52,0,0,1,.51-.78l1.86,1c-.18.25-.35.5-.51.77"/><path class="cls-15" d="M31.07,103.52l-1.86-1a8.64,8.64,0,0,1,.56-.67l1.86,1a7.35,7.35,0,0,0-.56.67"/><path class="cls-25" d="M31.63,102.85l-1.86-1q.3-.31.63-.6l1.87.95a7.34,7.34,0,0,0-.64.61"/><path class="cls-23" d="M32.27,102.24l-1.87-.95a8.26,8.26,0,0,1,.76-.56l1.86,1a8.12,8.12,0,0,0-.75.56"/><path class="cls-22" d="M33,101.68l-1.86-1a6.59,6.59,0,0,1,1-.55l1.86.95a7.58,7.58,0,0,0-1,.55"/><path class="cls-21" d="M34,101.13l-1.86-.95A6.77,6.77,0,0,1,34,99.66l1.87,1a6.72,6.72,0,0,0-1.83.51"/></g></g></g><path class="cls-37" d="M35.86,100.62a5.37,5.37,0,0,1,6.22,5.5,7.42,7.42,0,0,1-6.25,7.16,5.37,5.37,0,0,1-6.22-5.51A7.41,7.41,0,0,1,35.86,100.62Zm3,9v-6.23l-6.14.81v6.23l6.14-.81"/><g class="cls-4"><g class="cls-38"><polyline id="SVGID-59" data-name="SVGID" class="cls-39" points="42.05 106.78 41.95 107.42 41.8 108.04 41.58 108.65 41.32 109.24 41.01 109.81 40.65 110.34 40.24 110.84 39.8 111.31 39.32 111.74 38.8 112.12 38.26 112.46 37.69 112.75 37.09 112.99 36.47 113.16 35.83 113.28 35.19 113.33 34.58 113.32 33.98 113.24 33.41 113.1 32.86 112.91 32.35 112.66 31.87 112.36 31.43 112.01 31.03 111.61 30.67 111.17 30.36 110.69 30.1 110.17 29.89 109.62 29.73 109.03 29.64 108.42 29.61 107.77 29.64 107.12 29.74 106.48 29.89 105.85 30.11 105.24 30.37 104.66 30.68 104.09 31.04 103.56 31.45 103.05 31.89 102.59 32.37 102.16 32.88 101.77 33.43 101.44 34 101.15 34.6 100.91 35.22 100.73 35.86 100.62 36.49 100.56 37.11 100.58 37.71 100.66 38.28 100.79 38.83 100.99 39.34 101.24 39.82 101.54 40.26 101.89 40.66 102.28 41.02 102.72 41.33 103.2 41.59 103.72 41.8 104.28 41.95 104.86 42.05 105.48 42.08 106.12 42.05 106.78"/></g></g></g><g class="cls-4"><polygon class="cls-40" points="125.68 64.23 124.95 65.7 120.03 64.5 120.75 63.04 125.68 64.23"/><polygon class="cls-6" points="126.08 67.22 125.36 68.69 124.95 65.7 125.68 64.23 126.08 67.22"/><g class="cls-4"><g class="cls-41"><g class="cls-4"><path class="cls-9" d="M128.29,67.26l-.73,1.47a1.85,1.85,0,0,1-.23.34l.72-1.47a1.31,1.31,0,0,0,.24-.34"/><path class="cls-8" d="M128.05,67.6l-.72,1.47a1.79,1.79,0,0,1-.36.3l.73-1.47a1.68,1.68,0,0,0,.35-.3"/><path class="cls-15" d="M127.7,67.9,127,69.37a1.9,1.9,0,0,1-.45.23l.73-1.46a3.21,3.21,0,0,0,.45-.24"/><path class="cls-25" d="M127.25,68.14l-.73,1.46a3,3,0,0,1-.58.17l.73-1.46a4.41,4.41,0,0,0,.58-.17"/><path class="cls-23" d="M126.67,68.31l-.73,1.46a4.4,4.4,0,0,1-.85.1l.73-1.47a5.54,5.54,0,0,0,.85-.09"/><path class="cls-22" d="M125.82,68.4l-.73,1.47a7.67,7.67,0,0,1-2-.24,9.08,9.08,0,0,1-1-.31l.72-1.47c.35.12.7.23,1,.32a8.11,8.11,0,0,0,2,.23"/><path class="cls-23" d="M122.78,67.85l-.72,1.47a10,10,0,0,1-1-.43l.72-1.47c.32.16.66.3,1,.43"/><path class="cls-25" d="M121.78,67.42l-.72,1.47c-.26-.13-.51-.27-.75-.41L121,67c.24.15.49.28.74.41"/><path class="cls-15" d="M121,67l-.73,1.47c-.22-.14-.44-.28-.64-.43l.73-1.46c.2.14.41.29.64.42"/><path class="cls-8" d="M120.4,66.59l-.73,1.46a7.16,7.16,0,0,1-.59-.47l.72-1.47c.19.16.38.32.6.48"/><path class="cls-9" d="M119.8,66.11l-.72,1.47a6.43,6.43,0,0,1-.58-.59l.73-1.47a6.29,6.29,0,0,0,.57.59"/><path class="cls-10" d="M119.23,65.52,118.5,67a3.24,3.24,0,0,1-.81-1.61,1.52,1.52,0,0,1,.13-.91l.73-1.47a1.54,1.54,0,0,0-.13.92,3.21,3.21,0,0,0,.81,1.6"/></g></g></g><path class="cls-42" d="M123,62.09c2.77.67,5.19,2.58,5.42,4.25s-1.83,2.5-4.59,1.83-5.19-2.58-5.41-4.25S120.24,61.42,123,62.09Zm3.08,5.13-.4-3L120.75,63l.41,3,4.92,1.19"/></g><g class="cls-4"><polygon class="cls-40" points="39.28 118.37 38.55 119.84 33.63 118.64 34.35 117.18 39.28 118.37"/><polygon class="cls-6" points="39.68 121.36 38.96 122.83 38.55 119.84 39.28 118.37 39.68 121.36"/><g class="cls-4"><g class="cls-44"><g class="cls-4"><path class="cls-9" d="M41.89,121.4l-.73,1.47a1.85,1.85,0,0,1-.23.34l.72-1.47a1.31,1.31,0,0,0,.24-.34"/><path class="cls-8" d="M41.65,121.74l-.72,1.47a1.79,1.79,0,0,1-.36.3l.73-1.46a2.1,2.1,0,0,0,.35-.31"/><path class="cls-15" d="M41.3,122.05l-.73,1.46a1.9,1.9,0,0,1-.45.23l.73-1.46a4.73,4.73,0,0,0,.45-.23"/><path class="cls-25" d="M40.85,122.28l-.73,1.46a3,3,0,0,1-.58.17l.73-1.46a4.41,4.41,0,0,0,.58-.17"/><path class="cls-23" d="M40.27,122.45l-.73,1.46a4.4,4.4,0,0,1-.85.1l.73-1.47a5.54,5.54,0,0,0,.85-.09"/><path class="cls-22" d="M39.42,122.54,38.69,124a7.67,7.67,0,0,1-2-.24,9.08,9.08,0,0,1-1.05-.31l.73-1.47c.34.12.69.23,1,.32a8.11,8.11,0,0,0,2,.23"/><path class="cls-23" d="M36.39,122l-.73,1.47a10,10,0,0,1-1-.43l.72-1.47a10.21,10.21,0,0,0,1,.43"/><path class="cls-25" d="M35.38,121.56,34.66,123c-.26-.13-.51-.26-.75-.41l.73-1.47c.24.15.49.28.74.41"/><path class="cls-15" d="M34.64,121.15l-.73,1.47c-.22-.14-.44-.28-.64-.43l.73-1.46c.2.14.41.29.64.42"/><path class="cls-8" d="M34,120.73l-.73,1.46a7.16,7.16,0,0,1-.59-.47l.72-1.47.6.48"/><path class="cls-9" d="M33.4,120.25l-.72,1.47a6.43,6.43,0,0,1-.58-.59l.73-1.47a6.29,6.29,0,0,0,.57.59"/><path class="cls-10" d="M32.83,119.66l-.73,1.47a3.24,3.24,0,0,1-.81-1.61,1.45,1.45,0,0,1,.14-.91l.72-1.47a1.54,1.54,0,0,0-.13.92,3.21,3.21,0,0,0,.81,1.6"/></g></g></g><path class="cls-45" d="M36.6,116.23c2.77.67,5.19,2.58,5.42,4.25s-1.83,2.5-4.59,1.83-5.18-2.58-5.41-4.25S33.84,115.56,36.6,116.23Zm3.08,5.13-.4-3-4.93-1.19.41,3,4.92,1.19"/><g class="cls-4"><g class="cls-46"><polyline id="SVGID-60" data-name="SVGID" class="cls-47" points="42.04 120.79 42 121.07 41.92 121.33 41.79 121.57 41.61 121.78 41.4 121.97 41.14 122.14 40.85 122.28 40.52 122.39 40.16 122.47 39.77 122.52 39.35 122.54 38.9 122.53 38.43 122.49 37.94 122.41 37.43 122.31 36.92 122.17 36.41 122 35.93 121.81 35.45 121.59 35 121.36 34.56 121.11 34.16 120.84 33.77 120.56 33.42 120.26 33.1 119.96 32.82 119.65 32.57 119.33 32.36 119.01 32.2 118.69 32.09 118.37 32.02 118.06 32 117.75 32.03 117.47 32.12 117.21 32.25 116.97 32.42 116.75 32.64 116.57 32.9 116.4 33.19 116.27 33.52 116.16 33.88 116.07 34.27 116.02 34.69 116 35.13 116.01 35.6 116.05 36.09 116.13 36.6 116.23 37.12 116.37 37.62 116.54 38.11 116.73 38.58 116.94 39.04 117.18 39.47 117.43 39.88 117.7 40.26 117.98 40.62 118.28 40.94 118.58 41.22 118.89 41.47 119.21 41.67 119.53 41.84 119.85 41.95 120.17 42.02 120.48 42.04 120.79"/></g></g></g><g class="cls-4"><polygon class="cls-40" points="21.17 35.37 20.45 36.83 15.52 35.64 16.25 34.17 21.17 35.37"/><polygon class="cls-6" points="21.58 38.35 20.86 39.82 20.45 36.83 21.17 35.37 21.58 38.35"/><g class="cls-4"><g class="cls-48"><g class="cls-4"><path class="cls-9" d="M23.78,38.39l-.72,1.47a1.31,1.31,0,0,1-.24.34l.73-1.47a1.36,1.36,0,0,0,.23-.34"/><path class="cls-8" d="M23.55,38.73l-.73,1.47a2,2,0,0,1-.35.3L23.19,39a1.55,1.55,0,0,0,.36-.31"/><path class="cls-15" d="M23.19,39l-.72,1.46a2.38,2.38,0,0,1-.45.23l.72-1.46a3.14,3.14,0,0,0,.45-.23"/><path class="cls-25" d="M22.74,39.27,22,40.73a3.28,3.28,0,0,1-.58.17l.72-1.46a4,4,0,0,0,.58-.17"/><path class="cls-23" d="M22.16,39.44l-.72,1.46a4.5,4.5,0,0,1-.85.1l.72-1.47a5.41,5.41,0,0,0,.85-.09"/><path class="cls-22" d="M21.31,39.53,20.59,41a8.11,8.11,0,0,1-2-.23c-.35-.09-.7-.2-1-.32L18.28,39c.34.12.69.23,1,.32a7.63,7.63,0,0,0,2,.23"/><path class="cls-23" d="M18.28,39l-.72,1.47c-.35-.13-.68-.27-1-.43l.73-1.47c.32.16.66.3,1,.43"/><path class="cls-25" d="M17.28,38.55,16.55,40c-.25-.13-.5-.26-.74-.41l.72-1.46c.24.14.49.28.75.4"/><path class="cls-15" d="M16.53,38.15l-.72,1.46a6,6,0,0,1-.64-.43l.72-1.46c.2.15.42.29.64.43"/><path class="cls-8" d="M15.89,37.72l-.72,1.46c-.21-.15-.41-.31-.6-.47l.73-1.47c.18.16.38.32.59.48"/><path class="cls-9" d="M15.3,37.24l-.73,1.47a6.29,6.29,0,0,1-.57-.59l.72-1.47a6.43,6.43,0,0,0,.58.59"/><path class="cls-10" d="M14.72,36.65,14,38.12a3.24,3.24,0,0,1-.81-1.61,1.52,1.52,0,0,1,.13-.91l.73-1.47a1.55,1.55,0,0,0-.14.92,3.17,3.17,0,0,0,.81,1.6"/></g></g></g><path class="cls-49" d="M18.5,33.23c2.76.67,5.19,2.57,5.42,4.25S22.09,40,19.33,39.3s-5.19-2.58-5.42-4.25S15.74,32.56,18.5,33.23Zm3.08,5.12-.41-3-4.92-1.2.41,3,4.92,1.19"/></g><g class="cls-4"><polygon class="cls-51" points="23.04 43.71 24.22 43.06 23.7 47.42 22.52 48.06 23.04 43.71"/><polygon class="cls-52" points="22.52 48.06 23.7 47.42 27.98 49.14 26.79 49.79 22.52 48.06"/><g class="cls-4"><g class="cls-53"><g class="cls-4"><path class="cls-10" d="M22.23,42.37l1.19-.64.4-.19-1.19.65a2.87,2.87,0,0,0-.4.18"/><path class="cls-9" d="M22.63,42.19l1.19-.65.35-.1L23,42.08l-.35.11"/><path class="cls-8" d="M23,42.08l1.19-.64.28-.06L23.27,42l-.29,0"/><path class="cls-15" d="M23.27,42l1.18-.65.25,0L23.52,42a1,1,0,0,0-.25,0"/><path class="cls-25" d="M23.52,42l1.18-.65h.24L23.75,42h-.23"/><path class="cls-23" d="M23.75,42l1.19-.65h.21L24,42a1.47,1.47,0,0,0-.21,0"/><path class="cls-22" d="M24,42l1.19-.65.21,0L24.17,42H24"/><path class="cls-21" d="M24.17,42l1.19-.64.2,0L24.37,42l-.2,0"/><path class="cls-54" d="M24.37,42l1.19-.65.19,0-1.18.64-.2,0"/><path class="cls-40" d="M24.57,42.06l1.18-.64.2,0-1.19.64-.19,0"/><path class="cls-55" d="M24.76,42.1,26,41.46l.19,0L25,42.15l-.2,0"/><path class="cls-56" d="M25,42.15l1.18-.64.2.06-1.19.64L25,42.15"/><path class="cls-57" d="M25.15,42.21l1.19-.64.19.07-1.19.64-.19-.07"/><path class="cls-58" d="M25.34,42.28l1.19-.64.1,0-1.19.64-.1,0"/></g></g></g><g class="cls-4"><g class="cls-59"><g class="cls-4"><path class="cls-58" d="M25.44,42.32l1.19-.64.1,0-1.19.64-.1,0"/><path class="cls-60" d="M25.54,42.36l1.19-.64.2.09-1.19.64-.2-.09"/><path class="cls-61" d="M25.74,42.45l1.19-.64.2.1L26,42.56l-.21-.11"/><path class="cls-52" d="M26,42.56l1.18-.65.21.12-1.19.64-.2-.11"/><path class="cls-62" d="M26.15,42.67,27.34,42l.22.13-1.19.64-.22-.13"/><path class="cls-63" d="M26.37,42.8l1.19-.64.23.16L26.6,43l-.23-.16"/><path class="cls-64" d="M26.6,43l1.19-.64.24.18-1.18.65L26.6,43"/><path class="cls-65" d="M26.85,43.15,28,42.5l.28.24-1.18.64-.28-.23"/><path class="cls-66" d="M27.13,43.38l1.18-.64a4,4,0,0,1,.36.35l-1.18.64-.36-.35"/><path class="cls-67" d="M27.49,43.73l1.18-.64a6.7,6.7,0,0,1,1.11,1.54l-1.19.64a6.66,6.66,0,0,0-1.1-1.54"/><path class="cls-66" d="M28.59,45.27l1.19-.64.21.44-1.19.65a4.54,4.54,0,0,0-.21-.45"/><path class="cls-65" d="M28.8,45.72,30,45.07l.14.35-1.19.64c0-.11-.09-.23-.14-.34"/><path class="cls-64" d="M28.94,46.06l1.19-.64.1.3L29,46.36c0-.1-.06-.2-.1-.3"/><path class="cls-63" d="M29,46.36l1.19-.64c0,.09.05.18.07.27l-1.18.64c0-.09-.05-.18-.08-.27"/><path class="cls-62" d="M29.12,46.63,30.3,46l.06.24-1.19.64c0-.08,0-.16-.05-.24"/><path class="cls-52" d="M29.17,46.87l1.19-.64c0,.08,0,.16,0,.23l-1.18.65c0-.08,0-.16,0-.24"/><path class="cls-61" d="M29.22,47.11l1.18-.65,0,.23-1.18.64,0-.22"/><path class="cls-60" d="M29.25,47.33l1.18-.64,0,.21-1.19.64c0-.07,0-.14,0-.21"/><path class="cls-58" d="M29.27,47.54l1.19-.64a1.48,1.48,0,0,0,0,.21l-1.19.64c0-.07,0-.14,0-.21"/><path class="cls-57" d="M29.28,47.75l1.19-.64v.2L29.29,48c0-.07,0-.14,0-.21"/><path class="cls-56" d="M29.29,48l1.18-.65v.2l-1.19.65c0-.07,0-.14,0-.2"/><path class="cls-55" d="M29.28,48.16l1.19-.65c0,.07,0,.14,0,.21l-1.18.64c0-.07,0-.13,0-.2"/><path class="cls-40" d="M29.27,48.36l1.18-.64s0,.09,0,.14v.06l-1.19.64V48.5s0-.09,0-.14"/><path class="cls-54" d="M29.24,48.56l1.19-.64,0,.2-1.19.64a.64.64,0,0,0,0-.2"/><path class="cls-21" d="M29.21,48.76l1.19-.64c0,.07,0,.13,0,.2L29.17,49a1.18,1.18,0,0,0,0-.2"/><path class="cls-22" d="M29.17,49l1.19-.64-.06.2-1.18.65a1.6,1.6,0,0,0,.05-.21"/><path class="cls-23" d="M29.12,49.17l1.18-.65-.06.21-1.19.65a1.72,1.72,0,0,0,.07-.21"/><path class="cls-25" d="M29.05,49.38l1.19-.65-.09.22L29,49.59a1.8,1.8,0,0,0,.08-.21"/><path class="cls-15" d="M29,49.59,30.15,49a2.14,2.14,0,0,1-.1.22l-1.19.64.11-.22"/><path class="cls-8" d="M28.86,49.81l1.19-.64-.14.25-1.19.64a2,2,0,0,0,.14-.25"/><path class="cls-9" d="M28.72,50.06l1.19-.64-.21.29-1.19.64a1.94,1.94,0,0,0,.21-.29"/><path class="cls-10" d="M28.51,50.35l1.19-.64a3.08,3.08,0,0,1-.92.77l-1.19.64a2.85,2.85,0,0,0,.92-.77"/></g></g></g><path class="cls-68" d="M25.44,42.32a6.3,6.3,0,0,1,3.81,6.18c-.29,2.44-2.47,3.64-4.87,2.67A6.3,6.3,0,0,1,20.57,45C20.86,42.55,23,41.35,25.44,42.32Zm1.35,7.47.52-4.36L23,43.71l-.52,4.35,4.27,1.73"/><g class="cls-4"><g class="cls-69"><polyline id="SVGID-61" data-name="SVGID" class="cls-70" points="29.18 48.94 29.06 49.36 28.9 49.74 28.71 50.09 28.48 50.4 28.22 50.67 27.93 50.91 27.61 51.12 27.27 51.28 26.9 51.4 26.52 51.48 26.11 51.51 25.7 51.5 25.27 51.44 24.83 51.33 24.38 51.17 23.94 50.97 23.52 50.73 23.12 50.45 22.73 50.15 22.38 49.8 22.05 49.44 21.74 49.05 21.47 48.64 21.23 48.21 21.02 47.77 20.84 47.32 20.71 46.86 20.61 46.39 20.55 45.92 20.54 45.46 20.57 45 20.65 44.55 20.77 44.14 20.92 43.76 21.12 43.41 21.35 43.1 21.61 42.82 21.9 42.58 22.22 42.38 22.56 42.22 22.92 42.1 23.31 42.02 23.71 41.99 24.13 42 24.55 42.06 24.99 42.16 25.44 42.32 25.88 42.52 26.3 42.76 26.71 43.04 27.09 43.35 27.45 43.69 27.78 44.05 28.08 44.45 28.36 44.85 28.6 45.28 28.81 45.72 28.98 46.18 29.12 46.64 29.21 47.1 29.27 47.57 29.28 48.04 29.25 48.5 29.18 48.94"/></g></g></g><g class="cls-4"><polygon class="cls-40" points="27.1 72.51 26.38 73.98 21.45 72.78 22.18 71.31 27.1 72.51"/><polygon class="cls-6" points="27.51 75.5 26.79 76.96 26.38 73.98 27.1 72.51 27.51 75.5"/><g class="cls-4"><g class="cls-71"><g class="cls-4"><path class="cls-9" d="M29.71,75.54,29,77a1.36,1.36,0,0,1-.23.34l.72-1.46a1.85,1.85,0,0,0,.23-.34"/><path class="cls-8" d="M29.48,75.88l-.72,1.46a2.11,2.11,0,0,1-.36.31l.72-1.47a1.79,1.79,0,0,0,.36-.3"/><path class="cls-15" d="M29.12,76.18l-.72,1.47a4.73,4.73,0,0,1-.45.23l.72-1.47a2.37,2.37,0,0,0,.45-.23"/><path class="cls-25" d="M28.67,76.41,28,77.88a4.41,4.41,0,0,1-.58.17l.73-1.47a3.16,3.16,0,0,0,.57-.17"/><path class="cls-23" d="M28.1,76.58l-.73,1.47a5.41,5.41,0,0,1-.85.09l.73-1.47a4.61,4.61,0,0,0,.85-.09"/><path class="cls-22" d="M27.25,76.67l-.73,1.47a7.7,7.7,0,0,1-2-.23c-.35-.09-.7-.2-1-.32l.72-1.47a9.12,9.12,0,0,0,1.05.32,7.25,7.25,0,0,0,2,.23"/><path class="cls-23" d="M24.21,76.12l-.72,1.47c-.35-.13-.68-.27-1-.43l.73-1.46c.32.15.66.3,1,.42"/><path class="cls-25" d="M23.21,75.7l-.73,1.46c-.25-.12-.5-.26-.74-.4l.72-1.47c.24.14.49.28.75.41"/><path class="cls-15" d="M22.46,75.29l-.72,1.47c-.23-.14-.44-.28-.64-.43l.72-1.47c.2.15.42.29.64.43"/><path class="cls-8" d="M21.82,74.86l-.72,1.47-.6-.48.73-1.47a5.6,5.6,0,0,0,.59.48"/><path class="cls-9" d="M21.23,74.38l-.73,1.47a6.29,6.29,0,0,1-.57-.59l.72-1.46a6.35,6.35,0,0,0,.58.58"/><path class="cls-10" d="M20.65,73.8l-.72,1.46a3.17,3.17,0,0,1-.81-1.6,1.55,1.55,0,0,1,.13-.92L20,71.27a1.57,1.57,0,0,0-.14.92,3.24,3.24,0,0,0,.81,1.61"/></g></g></g><path class="cls-45" d="M24.43,70.37c2.76.67,5.19,2.57,5.42,4.25S28,77.11,25.26,76.44s-5.19-2.57-5.42-4.25S21.67,69.7,24.43,70.37Zm3.08,5.13-.41-3-4.92-1.2.41,3,4.92,1.2"/><g class="cls-4"><path id="SVGID-62" data-name="SVGID" class="cls-2" d="M24.43,70.37c2.76.67,5.19,2.57,5.42,4.25S28,77.11,25.26,76.44s-5.19-2.57-5.42-4.25S21.67,69.7,24.43,70.37Zm3.08,5.13-.41-3-4.92-1.2.41,3,4.92,1.2"/></g></g><g class="cls-4"><polygon class="cls-18" points="18.15 105.37 16.29 104.42 16.3 99.64 18.16 100.59 18.15 105.37"/><polygon class="cls-19" points="13.45 105.99 11.58 105.04 16.29 104.42 18.15 105.37 13.45 105.99"/><g class="cls-4"><g class="cls-73"><g class="cls-4"><path class="cls-21" d="M15.81,98.44l-1.86-1a4.74,4.74,0,0,1,1.65.08l1.86,1a4.3,4.3,0,0,0-1.65-.08"/><path class="cls-22" d="M17.46,98.52l-1.86-1a4.44,4.44,0,0,1,.75.27l1.87,1a3.78,3.78,0,0,0-.76-.26"/><path class="cls-23" d="M18.22,98.78l-1.87-1,.15.07,1.86.95-.14-.07"/></g></g></g><g class="cls-4"><g class="cls-74"><g class="cls-4"><path class="cls-10" d="M13.24,107.73l-1.86-1A4.17,4.17,0,0,1,9.16,103a5.15,5.15,0,0,1,.37-1.91l1.86,1a5.64,5.64,0,0,0-.37,1.91,4.17,4.17,0,0,0,2.22,3.81"/><path class="cls-9" d="M11.39,102l-1.86-1a5.84,5.84,0,0,1,.36-.76l1.86,1a6.47,6.47,0,0,0-.36.75"/><path class="cls-8" d="M11.75,101.26l-1.86-1c.12-.2.25-.4.39-.59l1.86,1a6.17,6.17,0,0,0-.39.6"/><path class="cls-15" d="M12.14,100.66l-1.86-1a5.27,5.27,0,0,1,.43-.51l1.86,1c-.15.16-.29.33-.43.51"/><path class="cls-25" d="M12.57,100.15l-1.86-1a5.44,5.44,0,0,1,.49-.47l1.86,1c-.17.14-.33.3-.49.46"/><path class="cls-23" d="M13.06,99.69l-1.86-1a6.07,6.07,0,0,1,.57-.43l1.87,1a4.83,4.83,0,0,0-.58.43"/><path class="cls-22" d="M13.64,99.26l-1.87-1a5.86,5.86,0,0,1,.78-.42l1.87,1a5.93,5.93,0,0,0-.78.43"/><path class="cls-21" d="M14.42,98.83l-1.87-1a5.12,5.12,0,0,1,1.4-.4l1.86,1a5.13,5.13,0,0,0-1.39.39"/></g></g></g><path class="cls-37" d="M15.81,98.44a4.11,4.11,0,0,1,4.77,4.22,5.67,5.67,0,0,1-4.79,5.48A4.12,4.12,0,0,1,11,103.92,5.68,5.68,0,0,1,15.81,98.44Zm2.34,6.93v-4.78l-4.7.62V106l4.7-.62"/><g class="cls-4"><path id="SVGID-63" data-name="SVGID" class="cls-3" d="M15.81,98.44a4.11,4.11,0,0,1,4.77,4.22,5.67,5.67,0,0,1-4.79,5.48A4.12,4.12,0,0,1,11,103.92,5.68,5.68,0,0,1,15.81,98.44Zm2.34,6.93v-4.78l-4.7.62V106l4.7-.62"/></g></g><g class="cls-4"><polygon class="cls-13" points="25.9 112.33 24.81 113.11 23.1 108.61 24.19 107.82 25.9 112.33"/><polygon class="cls-6" points="24.19 107.82 23.1 108.61 18.97 109.08 20.06 108.29 24.19 107.82"/><g class="cls-4"><g class="cls-76"><g class="cls-4"><path class="cls-10" d="M26.26,114.31l-1.09.79a3.18,3.18,0,0,1-1.54.58c-2.32.27-5-1.56-5.94-4.1a4.51,4.51,0,0,1-.24-.85l1.08-.79a5.92,5.92,0,0,0,.25.86c1,2.53,3.62,4.36,5.94,4.09a3.22,3.22,0,0,0,1.54-.58"/><path class="cls-9" d="M18.53,109.94l-1.08.79a4.22,4.22,0,0,1-.09-1.21l1.09-.79a4.59,4.59,0,0,0,.08,1.21"/><path class="cls-8" d="M18.45,108.73l-1.09.79a3.51,3.51,0,0,1,.25-1.14l1.09-.79a3.51,3.51,0,0,0-.25,1.14"/><path class="cls-15" d="M18.7,107.59l-1.09.79a3.06,3.06,0,0,1,1-1.29l1.09-.79a3.06,3.06,0,0,0-1,1.29"/></g></g></g><path class="cls-77" d="M21.25,105.73c2.31-.27,5,1.56,5.93,4.1s-.14,4.79-2.46,5.06-5-1.56-5.94-4.09S18.93,106,21.25,105.73Zm4.65,6.6-1.71-4.51-4.13.47,1.71,4.51,4.13-.47"/></g><g class="cls-4"><polygon class="cls-13" points="100.55 106.75 99.46 107.53 97.75 103.02 98.84 102.23 100.55 106.75"/><polygon class="cls-6" points="98.84 102.23 97.75 103.02 93.62 103.5 94.71 102.71 98.84 102.23"/><g class="cls-4"><g class="cls-79"><g class="cls-4"><path class="cls-10" d="M100.9,108.73l-1.09.79a3.18,3.18,0,0,1-1.54.58c-2.31.27-5-1.57-5.93-4.1a5.46,5.46,0,0,1-.25-.85l1.09-.79a5.92,5.92,0,0,0,.25.86c1,2.52,3.61,4.36,5.93,4.09a3.18,3.18,0,0,0,1.54-.58"/><path class="cls-9" d="M93.18,104.36l-1.09.79a5.09,5.09,0,0,1-.09-1.21l1.09-.79a4.61,4.61,0,0,0,.09,1.21"/><path class="cls-8" d="M93.09,103.15l-1.09.79a3.8,3.8,0,0,1,.26-1.14l1.09-.79a3.8,3.8,0,0,0-.26,1.14"/><path class="cls-15" d="M93.35,102l-1.09.79a3.11,3.11,0,0,1,1-1.29l1.09-.79a3,3,0,0,0-1,1.29"/></g></g></g><path class="cls-80" d="M95.89,100.15c2.32-.27,5,1.56,5.94,4.09s-.15,4.8-2.47,5.07-5-1.57-5.93-4.09S93.57,100.42,95.89,100.15Zm4.66,6.6-1.71-4.51-4.13.47,1.71,4.51,4.13-.47"/><g class="cls-4"><g class="cls-81"><polyline id="SVGID-64" data-name="SVGID" class="cls-82" points="101.98 104.72 102.09 105.18 102.15 105.63 102.17 106.07 102.15 106.49 102.08 106.89 101.97 107.27 101.83 107.63 101.64 107.96 101.42 108.26 101.16 108.53 100.86 108.76 100.53 108.96 100.17 109.12 99.78 109.24 99.36 109.31 98.93 109.34 98.48 109.32 98.04 109.25 97.59 109.14 97.15 108.99 96.72 108.8 96.3 108.57 95.89 108.31 95.49 108.02 95.12 107.69 94.76 107.34 94.44 106.96 94.14 106.56 93.86 106.13 93.63 105.68 93.43 105.22 93.27 104.74 93.17 104.28 93.1 103.83 93.08 103.39 93.11 102.97 93.17 102.57 93.28 102.19 93.43 101.83 93.62 101.5 93.84 101.2 94.1 100.93 94.39 100.7 94.72 100.5 95.08 100.34 95.47 100.22 95.89 100.15 96.33 100.12 96.77 100.14 97.22 100.21 97.66 100.32 98.1 100.47 98.53 100.66 98.96 100.89 99.37 101.15 99.76 101.44 100.14 101.77 100.49 102.12 100.82 102.5 101.12 102.9 101.39 103.33 101.63 103.78 101.83 104.25 101.98 104.72"/></g></g></g><g class="cls-4"><polygon class="cls-40" points="40.18 36.34 39.45 37.81 36.45 37.08 37.18 35.61 40.18 36.34"/><polygon class="cls-6" points="40.43 38.16 39.7 39.63 39.45 37.81 40.18 36.34 40.43 38.16"/><g class="cls-4"><g class="cls-83"><g class="cls-4"><path class="cls-9" d="M41.77,38.19l-.72,1.46a.8.8,0,0,1-.15.21l.73-1.47a.9.9,0,0,0,.14-.2"/><path class="cls-8" d="M41.63,38.39l-.73,1.47a1.29,1.29,0,0,1-.21.19l.72-1.47a1.37,1.37,0,0,0,.22-.19"/><path class="cls-15" d="M41.41,38.58l-.72,1.47-.28.14.73-1.47a1.71,1.71,0,0,0,.27-.14"/><path class="cls-25" d="M41.14,38.72l-.73,1.47-.35.1.72-1.47a1.89,1.89,0,0,0,.36-.1"/><path class="cls-23" d="M40.78,38.82l-.72,1.47a3.92,3.92,0,0,1-.52.06l.73-1.47a2.64,2.64,0,0,0,.51-.06"/><path class="cls-22" d="M40.27,38.88l-.73,1.47a4.54,4.54,0,0,1-1.21-.15,4.71,4.71,0,0,1-.64-.19l.73-1.47a6.6,6.6,0,0,0,.63.2,5,5,0,0,0,1.22.14"/><path class="cls-23" d="M38.42,38.54,37.69,40a6.57,6.57,0,0,1-.61-.26l.73-1.47a4.14,4.14,0,0,0,.61.26"/><path class="cls-25" d="M37.81,38.28l-.73,1.47a4.79,4.79,0,0,1-.45-.25L37.35,38c.15.08.3.17.46.24"/><path class="cls-15" d="M37.35,38l-.72,1.46c-.14-.08-.27-.17-.4-.26L37,37.77l.39.27"/><path class="cls-8" d="M37,37.77l-.73,1.47L35.87,39l.73-1.47a3.51,3.51,0,0,0,.36.29"/><path class="cls-9" d="M36.6,37.48,35.87,39c-.13-.12-.24-.24-.35-.36l.73-1.46a2.89,2.89,0,0,0,.35.35"/><path class="cls-10" d="M36.25,37.13l-.73,1.46a1.94,1.94,0,0,1-.49-1,.91.91,0,0,1,.08-.55l.72-1.47a.94.94,0,0,0-.08.56,2,2,0,0,0,.5,1"/></g></g></g><path class="cls-45" d="M38.55,35c1.68.41,3.16,1.57,3.3,2.59s-1.11,1.52-2.8,1.11-3.16-1.57-3.3-2.59S36.87,34.63,38.55,35Zm1.88,3.12-.25-1.82-3-.73.25,1.82,3,.73"/><g class="cls-4"><g class="cls-84"><polyline id="SVGID-65" data-name="SVGID" class="cls-85" points="41.86 37.81 41.84 37.98 41.79 38.14 41.71 38.29 41.6 38.42 41.47 38.54 41.32 38.63 41.14 38.72 40.94 38.79 40.72 38.84 40.48 38.87 40.22 38.88 39.95 38.88 39.66 38.85 39.37 38.8 39.05 38.74 38.74 38.65 38.44 38.55 38.14 38.43 37.85 38.3 37.57 38.16 37.31 38.01 37.06 37.84 36.83 37.67 36.61 37.49 36.41 37.31 36.24 37.12 36.09 36.92 35.97 36.73 35.87 36.53 35.8 36.34 35.75 36.15 35.74 35.96 35.76 35.79 35.81 35.63 35.89 35.48 36 35.35 36.13 35.24 36.29 35.14 36.47 35.06 36.67 34.99 36.89 34.94 37.13 34.91 37.38 34.9 37.66 34.9 37.94 34.93 38.24 34.97 38.55 35.04 38.86 35.12 39.17 35.23 39.47 35.34 39.76 35.47 40.03 35.61 40.3 35.77 40.55 35.93 40.78 36.1 40.99 36.28 41.19 36.47 41.36 36.66 41.51 36.85 41.64 37.04 41.74 37.24 41.81 37.44 41.85 37.63 41.86 37.81"/></g></g></g><g class="cls-4"><polygon class="cls-40" points="108.44 116.45 107.71 117.91 104.71 117.18 105.44 115.72 108.44 116.45"/><polygon class="cls-6" points="108.68 118.27 107.96 119.73 107.71 117.91 108.44 116.45 108.68 118.27"/><g class="cls-4"><g class="cls-86"><g class="cls-4"><path class="cls-9" d="M110,118.29l-.73,1.47a.85.85,0,0,1-.14.21l.73-1.47a1.1,1.1,0,0,0,.14-.21"/><path class="cls-8" d="M109.89,118.5l-.73,1.47a1,1,0,0,1-.22.18l.73-1.47a1.24,1.24,0,0,0,.22-.18"/><path class="cls-15" d="M109.67,118.68l-.73,1.47a1.71,1.71,0,0,1-.27.14l.72-1.47a1.22,1.22,0,0,0,.28-.14"/><path class="cls-25" d="M109.39,118.82l-.72,1.47a2,2,0,0,1-.35.1l.72-1.46a1.6,1.6,0,0,0,.35-.11"/><path class="cls-23" d="M109,118.93l-.72,1.46a2.18,2.18,0,0,1-.52.06l.72-1.47a2.78,2.78,0,0,0,.52,0"/><path class="cls-22" d="M108.52,119l-.72,1.47a4.5,4.5,0,0,1-1.21-.14c-.22,0-.43-.12-.64-.19l.72-1.47c.21.07.42.14.64.19a4.5,4.5,0,0,0,1.21.14"/><path class="cls-23" d="M106.67,118.65l-.72,1.47-.61-.26.72-1.47.61.26"/><path class="cls-25" d="M106.06,118.39l-.72,1.47-.46-.25.73-1.47c.14.09.3.17.45.25"/><path class="cls-15" d="M105.61,118.14l-.73,1.47-.39-.26.73-1.47a3.77,3.77,0,0,0,.39.26"/><path class="cls-8" d="M105.22,117.88l-.73,1.47c-.13-.1-.25-.19-.36-.29l.73-1.47a3.51,3.51,0,0,0,.36.29"/><path class="cls-9" d="M104.86,117.59l-.73,1.47a3.91,3.91,0,0,1-.35-.36l.73-1.47a3.91,3.91,0,0,0,.35.36"/><path class="cls-10" d="M104.51,117.23l-.73,1.47a2.09,2.09,0,0,1-.5-1,1,1,0,0,1,.09-.56l.72-1.47a1,1,0,0,0-.08.56,1.92,1.92,0,0,0,.5,1"/></g></g></g><path class="cls-45" d="M106.81,115.14c1.68.41,3.16,1.57,3.3,2.59s-1.11,1.52-2.8,1.11-3.16-1.57-3.3-2.59S105.12,114.73,106.81,115.14Zm1.87,3.13-.24-1.82-3-.73.25,1.82,3,.73"/><g class="cls-4"><g class="cls-87"><polyline id="SVGID-66" data-name="SVGID" class="cls-88" points="110.12 117.92 110.1 118.09 110.05 118.25 109.97 118.39 109.86 118.53 109.73 118.64 109.57 118.74 109.39 118.82 109.19 118.89 108.97 118.94 108.73 118.97 108.48 118.98 108.21 118.98 107.92 118.95 107.62 118.91 107.31 118.84 107 118.76 106.69 118.66 106.39 118.54 106.11 118.41 105.83 118.27 105.56 118.11 105.31 117.95 105.08 117.78 104.87 117.6 104.67 117.41 104.5 117.22 104.35 117.03 104.22 116.83 104.12 116.64 104.05 116.44 104.01 116.25 104 116.07 104.02 115.89 104.07 115.73 104.15 115.59 104.26 115.46 104.39 115.34 104.55 115.25 104.72 115.16 104.92 115.09 105.14 115.05 105.38 115.01 105.64 115 105.91 115.01 106.2 115.03 106.5 115.08 106.81 115.14 107.12 115.23 107.43 115.33 107.72 115.45 108.01 115.58 108.29 115.72 108.56 115.87 108.81 116.04 109.04 116.21 109.25 116.39 109.45 116.57 109.62 116.76 109.77 116.95 109.9 117.15 110 117.34 110.07 117.54 110.11 117.73 110.12 117.92"/></g></g></g><g class="cls-4"><polygon class="cls-51" points="20.14 56.68 21.32 56.04 21.01 58.69 19.82 59.34 20.14 56.68"/><polygon class="cls-52" points="19.82 59.34 21.01 58.69 23.61 59.74 22.43 60.39 19.82 59.34"/><g class="cls-4"><g class="cls-89"><g class="cls-4"><path class="cls-10" d="M19.65,55.87l1.18-.65.25-.11-1.19.65a1.28,1.28,0,0,0-.24.11"/><path class="cls-9" d="M19.89,55.76l1.19-.65.21-.06-1.18.64-.22.07"/><path class="cls-8" d="M20.11,55.69l1.18-.64.17,0-1.18.65-.17,0"/><path class="cls-15" d="M20.28,55.66,21.46,55h.16l-1.19.64-.15,0"/><path class="cls-25" d="M20.43,55.64,21.62,55h.14l-1.19.64h-.14"/><path class="cls-23" d="M20.57,55.63,21.76,55h.13l-1.19.64h-.13"/><path class="cls-22" d="M20.7,55.63,21.89,55H22l-1.19.64H20.7"/><path class="cls-21" d="M20.83,55.64,22,55h.12L21,55.66l-.12,0"/><path class="cls-54" d="M21,55.66,22.14,55l.12,0-1.19.65-.12,0"/><path class="cls-40" d="M21.07,55.68,22.26,55l.12,0-1.19.64-.12,0"/><path class="cls-55" d="M21.19,55.7l1.19-.64.11,0-1.18.64-.12,0"/><path class="cls-56" d="M21.31,55.73l1.18-.64.12,0-1.18.64-.12,0"/><path class="cls-57" d="M21.43,55.77l1.18-.64.12,0-1.18.64-.12,0"/><path class="cls-58" d="M21.55,55.81l1.18-.64.06,0-1.19.65-.05,0"/></g></g></g><g class="cls-4"><g class="cls-90"><g class="cls-4"><path class="cls-58" d="M21.6,55.84l1.19-.65.06,0-1.18.64-.07,0"/><path class="cls-60" d="M21.67,55.86l1.18-.64.12.05-1.18.65-.12-.06"/><path class="cls-61" d="M21.79,55.92,23,55.27l.13.07L21.91,56l-.12-.06"/><path class="cls-52" d="M21.91,56l1.19-.64.12.07L22,56.05,21.91,56"/><path class="cls-62" d="M22,56.05l1.18-.64.14.08-1.19.64L22,56.05"/><path class="cls-63" d="M22.17,56.13l1.19-.64.14.09-1.19.65-.14-.1"/><path class="cls-64" d="M22.31,56.23l1.19-.65.15.12-1.19.64-.15-.11"/><path class="cls-65" d="M22.46,56.34l1.19-.64.17.14-1.19.64-.17-.14"/><path class="cls-66" d="M22.63,56.48l1.19-.64.22.21-1.19.65a2.28,2.28,0,0,0-.22-.22"/><path class="cls-67" d="M22.85,56.7,24,56.05a4.13,4.13,0,0,1,.67.94l-1.19.64a3.79,3.79,0,0,0-.67-.93"/><path class="cls-66" d="M23.52,57.63,24.71,57c.05.09.09.18.13.27l-1.19.65a2.39,2.39,0,0,0-.13-.28"/><path class="cls-65" d="M23.65,57.91l1.19-.65a1.8,1.8,0,0,1,.08.21l-1.18.65-.09-.21"/><path class="cls-64" d="M23.74,58.12l1.18-.65a.6.6,0,0,1,.06.19l-1.18.64-.06-.18"/><path class="cls-63" d="M23.8,58.3,25,57.66a1,1,0,0,1,.05.16l-1.19.64a.94.94,0,0,0,0-.16"/><path class="cls-62" d="M23.84,58.46,25,57.82l0,.15-1.18.64a.83.83,0,0,0,0-.15"/><path class="cls-52" d="M23.88,58.61,25.06,58l0,.14-1.18.64,0-.14"/><path class="cls-61" d="M23.91,58.75l1.18-.64a.68.68,0,0,1,0,.14l-1.19.64s0-.09,0-.14"/><path class="cls-60" d="M23.92,58.89l1.19-.64a.53.53,0,0,1,0,.13L23.94,59s0-.09,0-.13"/><path class="cls-58" d="M23.94,59l1.18-.64a.49.49,0,0,1,0,.12L24,59.15a.62.62,0,0,1,0-.13"/><path class="cls-57" d="M24,59.15l1.18-.65v.13L24,59.27v-.12"/><path class="cls-56" d="M24,59.27l1.18-.64v.12l-1.19.64a.49.49,0,0,0,0-.12"/><path class="cls-55" d="M23.94,59.39l1.19-.64a.49.49,0,0,1,0,.12l-1.18.65v-.13"/><path class="cls-40" d="M23.94,59.52l1.18-.65a.28.28,0,0,1,0,.09v0l-1.19.64v0a.22.22,0,0,1,0-.08"/><path class="cls-54" d="M23.92,59.64,25.11,59s0,.08,0,.12l-1.19.64a.5.5,0,0,0,0-.12"/><path class="cls-21" d="M23.9,59.76l1.19-.64,0,.12-1.18.65a.51.51,0,0,0,0-.13"/><path class="cls-22" d="M23.88,59.89l1.18-.65,0,.12L23.85,60l0-.12"/><path class="cls-23" d="M23.85,60,25,59.36a.5.5,0,0,1,0,.13l-1.19.65s0-.09.05-.13"/><path class="cls-25" d="M23.8,60.14,25,59.49a.5.5,0,0,1,0,.13l-1.19.65a1.12,1.12,0,0,0,.05-.13"/><path class="cls-15" d="M23.75,60.27l1.19-.65-.06.14-1.19.64.06-.13"/><path class="cls-8" d="M23.69,60.4l1.19-.64-.09.15-1.19.64.09-.15"/><path class="cls-9" d="M23.6,60.55l1.19-.64-.13.18-1.18.64.12-.18"/><path class="cls-10" d="M23.48,60.73l1.18-.64a1.82,1.82,0,0,1-.56.47l-1.18.64a1.78,1.78,0,0,0,.56-.47"/></g></g></g><path class="cls-68" d="M21.6,55.84a3.83,3.83,0,0,1,2.33,3.76,2,2,0,0,1-3,1.63,3.83,3.83,0,0,1-2.32-3.76A2,2,0,0,1,21.6,55.84Zm.83,4.55.31-2.66-2.6-1-.32,2.66,2.61,1"/><g class="cls-4"><g class="cls-91"><polyline id="SVGID-67" data-name="SVGID" class="cls-92" points="23.88 59.87 23.81 60.13 23.71 60.36 23.59 60.57 23.45 60.76 23.3 60.93 23.12 61.08 22.93 61.2 22.72 61.3 22.49 61.37 22.26 61.42 22.02 61.44 21.76 61.43 21.5 61.39 21.23 61.33 20.96 61.23 20.96 61.23 20.69 61.11 20.43 60.96 20.19 60.8 19.95 60.61 19.74 60.4 19.54 60.18 19.35 59.94 19.18 59.69 19.04 59.43 18.91 59.16 18.8 58.88 18.72 58.6 18.66 58.32 18.62 58.03 18.62 57.75 18.64 57.47 18.68 57.2 18.75 56.95 18.85 56.71 18.97 56.5 19.11 56.31 19.27 56.14 19.45 55.99 19.64 55.87 19.85 55.77 20.07 55.7 20.3 55.65 20.55 55.63 20.8 55.64 21.06 55.68 21.33 55.74 21.6 55.84 21.87 55.96 22.13 56.11 22.38 56.27 22.61 56.46 22.83 56.67 23.03 56.89 23.21 57.13 23.38 57.38 23.53 57.64 23.66 57.91 23.76 58.19 23.84 58.47 23.91 58.75 23.94 59.04 23.95 59.32 23.93 59.6 23.88 59.87"/></g></g></g><g class="cls-4"><polygon class="cls-40" points="12.16 72.91 11.44 74.37 8.44 73.64 9.16 72.18 12.16 72.91"/><polygon class="cls-6" points="12.41 74.73 11.69 76.19 11.44 74.37 12.16 72.91 12.41 74.73"/><g class="cls-4"><g class="cls-93"><g class="cls-4"><path class="cls-9" d="M13.75,74.75,13,76.22c0,.07-.09.14-.14.21L13.61,75a.6.6,0,0,0,.14-.21"/><path class="cls-8" d="M13.61,75l-.72,1.47a1.24,1.24,0,0,1-.22.18l.72-1.47a.79.79,0,0,0,.22-.18"/><path class="cls-15" d="M13.39,75.14l-.72,1.47a1.15,1.15,0,0,1-.27.14l.72-1.47a1.15,1.15,0,0,0,.27-.14"/><path class="cls-25" d="M13.12,75.28l-.72,1.47-.36.11.73-1.47a2,2,0,0,0,.35-.11"/><path class="cls-23" d="M12.77,75.39,12,76.86a2.78,2.78,0,0,1-.52,0l.73-1.46a4.12,4.12,0,0,0,.52-.06"/><path class="cls-22" d="M12.25,75.45l-.73,1.46a4.5,4.5,0,0,1-1.21-.14c-.21,0-.43-.12-.64-.19l.73-1.47a4.71,4.71,0,0,0,.64.19,5,5,0,0,0,1.21.15"/><path class="cls-23" d="M10.4,75.11l-.73,1.47-.61-.26.73-1.47a5.59,5.59,0,0,0,.61.26"/><path class="cls-25" d="M9.79,74.85l-.73,1.47c-.15-.08-.31-.16-.45-.25l.72-1.47.46.25"/><path class="cls-15" d="M9.33,74.6l-.72,1.47c-.14-.09-.27-.17-.39-.26l.72-1.47.39.26"/><path class="cls-8" d="M8.94,74.34l-.72,1.47c-.13-.1-.25-.19-.36-.29l.72-1.47a3.51,3.51,0,0,0,.36.29"/><path class="cls-9" d="M8.58,74.05l-.72,1.47a3.91,3.91,0,0,1-.35-.36l.72-1.47a3.91,3.91,0,0,0,.35.36"/><path class="cls-10" d="M8.23,73.69l-.72,1.47a1.92,1.92,0,0,1-.5-1,.94.94,0,0,1,.08-.56l.73-1.47a1,1,0,0,0-.08.56,2,2,0,0,0,.49,1"/></g></g></g><path class="cls-45" d="M10.53,71.6c1.69.41,3.17,1.57,3.3,2.59S12.72,75.71,11,75.3s-3.16-1.57-3.3-2.59S8.85,71.19,10.53,71.6Zm1.88,3.13-.25-1.82-3-.73L9.41,74l3,.73"/><g class="cls-4"><g class="cls-94"><polyline id="SVGID-68" data-name="SVGID" class="cls-95" points="13.85 74.38 13.82 74.55 13.77 74.71 13.69 74.86 13.59 74.99 13.46 75.1 13.3 75.2 13.12 75.28 12.92 75.35 12.7 75.4 12.46 75.43 12.21 75.45 11.93 75.44 11.65 75.42 11.35 75.37 11.04 75.3 10.72 75.22 10.42 75.12 10.12 75 9.83 74.87 9.55 74.73 9.29 74.57 9.04 74.41 8.81 74.24 8.59 74.06 8.4 73.87 8.22 73.68 8.07 73.49 7.95 73.3 7.85 73.1 7.78 72.91 7.74 72.71 7.73 72.53 7.75 72.36 7.8 72.2 7.88 72.05 7.98 71.92 8.12 71.81 8.27 71.71 8.45 71.62 8.65 71.56 8.87 71.51 9.11 71.47 9.37 71.46 9.64 71.47 9.92 71.49 10.22 71.54 10.53 71.6 10.85 71.69 11.15 71.79 11.45 71.91 11.74 72.04 12.02 72.18 12.28 72.33 12.53 72.5 12.76 72.67 12.98 72.85 13.17 73.03 13.35 73.22 13.5 73.42 13.62 73.61 13.72 73.81 13.79 74 13.84 74.19 13.85 74.38"/></g></g></g><g class="cls-4"><polygon class="cls-40" points="69.1 124.51 68.38 125.98 63.45 124.78 64.18 123.31 69.1 124.51"/><polygon class="cls-6" points="69.51 127.5 68.78 128.96 68.38 125.98 69.1 124.51 69.51 127.5"/><g class="cls-4"><g class="cls-96"><g class="cls-4"><path class="cls-9" d="M71.71,127.54,71,129a1.36,1.36,0,0,1-.23.34l.72-1.46a1.85,1.85,0,0,0,.23-.34"/><path class="cls-8" d="M71.48,127.88l-.72,1.46a2.11,2.11,0,0,1-.36.31l.72-1.47a1.79,1.79,0,0,0,.36-.3"/><path class="cls-15" d="M71.12,128.18l-.72,1.47a4.73,4.73,0,0,1-.45.23l.72-1.47a2.37,2.37,0,0,0,.45-.23"/><path class="cls-25" d="M70.67,128.41,70,129.88a4.41,4.41,0,0,1-.58.17l.73-1.47a3.16,3.16,0,0,0,.57-.17"/><path class="cls-23" d="M70.1,128.58l-.73,1.47a5.41,5.41,0,0,1-.85.09l.73-1.47a4.61,4.61,0,0,0,.85-.09"/><path class="cls-22" d="M69.25,128.67l-.73,1.47a7.7,7.7,0,0,1-2-.23c-.35-.09-.7-.2-1-.32l.72-1.47a9.12,9.12,0,0,0,1.05.32,7.25,7.25,0,0,0,2,.23"/><path class="cls-23" d="M66.21,128.12l-.72,1.47c-.35-.13-.68-.27-1-.43l.73-1.46c.32.15.66.3,1,.42"/><path class="cls-25" d="M65.21,127.7l-.73,1.46c-.25-.12-.5-.26-.74-.4l.72-1.47c.24.14.49.28.75.41"/><path class="cls-15" d="M64.46,127.29l-.72,1.47c-.23-.14-.44-.28-.64-.43l.72-1.47c.2.15.42.29.64.43"/><path class="cls-8" d="M63.82,126.86l-.72,1.47-.6-.48.73-1.47a5.6,5.6,0,0,0,.59.48"/><path class="cls-9" d="M63.23,126.38l-.73,1.47a6.29,6.29,0,0,1-.57-.59l.72-1.46a6.35,6.35,0,0,0,.58.58"/><path class="cls-10" d="M62.65,125.8l-.72,1.46a3.17,3.17,0,0,1-.81-1.6,1.55,1.55,0,0,1,.13-.92l.73-1.47a1.57,1.57,0,0,0-.14.92,3.24,3.24,0,0,0,.81,1.61"/></g></g></g><path class="cls-45" d="M66.43,122.37c2.76.67,5.19,2.57,5.42,4.25s-1.83,2.49-4.59,1.82-5.19-2.57-5.42-4.25S63.67,121.7,66.43,122.37Zm3.08,5.13-.41-3-4.92-1.2.41,3,4.92,1.2"/><g class="cls-4"><g class="cls-97"><polyline id="SVGID-69" data-name="SVGID" class="cls-98" points="71.86 126.92 71.83 127.21 71.75 127.47 71.61 127.7 71.44 127.92 71.22 128.11 70.97 128.27 70.67 128.41 70.35 128.52 69.98 128.6 69.59 128.65 69.17 128.68 68.73 128.66 68.26 128.62 67.77 128.55 67.26 128.44 66.75 128.3 66.24 128.13 65.75 127.94 65.28 127.73 64.83 127.5 64.39 127.24 63.98 126.97 63.6 126.69 63.25 126.4 62.93 126.09 62.64 125.78 62.4 125.47 62.19 125.15 62.03 124.83 61.91 124.51 61.84 124.19 61.83 123.89 61.86 123.6 61.94 123.34 62.07 123.11 62.25 122.89 62.47 122.7 62.72 122.54 63.02 122.4 63.34 122.29 63.7 122.21 64.1 122.16 64.52 122.14 64.96 122.14 65.43 122.19 65.92 122.26 66.43 122.37 66.94 122.51 67.45 122.68 67.94 122.87 68.41 123.08 68.87 123.31 69.3 123.57 69.71 123.83 70.09 124.12 70.44 124.41 70.76 124.72 71.05 125.03 71.29 125.34 71.5 125.66 71.66 125.98 71.78 126.3 71.85 126.62 71.86 126.92"/></g></g></g><g class="cls-4"><polygon class="cls-40" points="54.16 124.91 53.44 126.37 50.44 125.64 51.16 124.18 54.16 124.91"/><polygon class="cls-6" points="54.41 126.73 53.69 128.19 53.44 126.37 54.16 124.91 54.41 126.73"/><g class="cls-4"><g class="cls-99"><g class="cls-4"><path class="cls-9" d="M55.75,126.75,55,128.22l-.14.21.72-1.47a.6.6,0,0,0,.14-.21"/><path class="cls-8" d="M55.61,127l-.72,1.47a1.24,1.24,0,0,1-.22.18l.72-1.47a.79.79,0,0,0,.22-.18"/><path class="cls-15" d="M55.39,127.14l-.72,1.47a1.15,1.15,0,0,1-.27.14l.72-1.47a1.15,1.15,0,0,0,.27-.14"/><path class="cls-25" d="M55.12,127.28l-.72,1.47-.36.11.73-1.47a2,2,0,0,0,.35-.11"/><path class="cls-23" d="M54.77,127.39,54,128.86a2.78,2.78,0,0,1-.52,0l.73-1.46a4.12,4.12,0,0,0,.52-.06"/><path class="cls-22" d="M54.25,127.45l-.73,1.46a4.5,4.5,0,0,1-1.21-.14c-.21-.05-.43-.12-.64-.19l.73-1.47a4.71,4.71,0,0,0,.64.19,5,5,0,0,0,1.21.15"/><path class="cls-23" d="M52.4,127.11l-.73,1.47-.61-.26.73-1.47a5.59,5.59,0,0,0,.61.26"/><path class="cls-25" d="M51.79,126.85l-.73,1.47c-.15-.08-.31-.16-.45-.25l.72-1.47.46.25"/><path class="cls-15" d="M51.33,126.6l-.72,1.47c-.14-.09-.27-.17-.39-.26l.72-1.47.39.26"/><path class="cls-8" d="M50.94,126.34l-.72,1.47c-.13-.1-.25-.19-.36-.29l.72-1.47a3.51,3.51,0,0,0,.36.29"/><path class="cls-9" d="M50.58,126.05l-.72,1.47a3.91,3.91,0,0,1-.35-.36l.72-1.47a3.91,3.91,0,0,0,.35.36"/><path class="cls-10" d="M50.23,125.69l-.72,1.47a1.92,1.92,0,0,1-.5-1,.94.94,0,0,1,.08-.56l.73-1.47a1,1,0,0,0-.08.56,2,2,0,0,0,.49,1"/></g></g></g><path class="cls-45" d="M52.53,123.6c1.69.41,3.17,1.57,3.3,2.59s-1.11,1.52-2.79,1.11-3.16-1.57-3.3-2.59S50.85,123.19,52.53,123.6Zm1.88,3.13-.25-1.82-3-.73.25,1.82,3,.73"/><g class="cls-4"><g class="cls-100"><polyline id="SVGID-70" data-name="SVGID" class="cls-101" points="55.84 126.38 55.82 126.55 55.77 126.71 55.69 126.86 55.59 126.99 55.45 127.1 55.3 127.2 55.12 127.28 54.92 127.35 54.7 127.4 54.46 127.43 54.2 127.45 53.93 127.44 53.65 127.42 53.35 127.37 53.04 127.3 52.73 127.22 52.42 127.12 52.12 127 51.83 126.87 51.55 126.73 51.29 126.57 51.04 126.41 50.81 126.24 50.59 126.06 50.4 125.87 50.22 125.68 50.07 125.49 49.95 125.3 49.85 125.1 49.78 124.91 49.74 124.71 49.73 124.53 49.75 124.36 49.8 124.2 49.88 124.05 49.98 123.92 50.12 123.81 50.27 123.71 50.45 123.62 50.65 123.56 50.87 123.51 51.11 123.47 51.37 123.46 51.64 123.47 51.92 123.49 52.22 123.54 52.53 123.6 52.85 123.69 53.15 123.79 53.45 123.91 53.74 124.04 54.02 124.18 54.28 124.33 54.53 124.5 54.76 124.67 54.98 124.85 55.17 125.03 55.35 125.22 55.5 125.42 55.62 125.61 55.72 125.81 55.79 126 55.84 126.19 55.84 126.38"/></g></g></g><g class="cls-4"><polygon class="cls-51" points="29.75 126.35 30.94 125.7 30.62 128.36 29.43 129 29.75 126.35"/><polygon class="cls-52" points="29.43 129 30.62 128.36 33.22 129.41 32.04 130.06 29.43 129"/><g class="cls-4"><g class="cls-102"><g class="cls-4"><path class="cls-10" d="M29.26,125.54l1.19-.65.24-.11-1.18.64a1.92,1.92,0,0,0-.25.12"/><path class="cls-9" d="M29.51,125.42l1.18-.64a1.41,1.41,0,0,1,.22-.06l-1.19.64-.21.06"/><path class="cls-8" d="M29.72,125.36l1.19-.64.17,0-1.19.65a1,1,0,0,0-.17,0"/><path class="cls-15" d="M29.89,125.33l1.19-.65.15,0-1.19.65-.15,0"/><path class="cls-25" d="M30,125.31l1.19-.65h.14l-1.18.64H30"/><path class="cls-23" d="M30.19,125.3l1.18-.64h.13l-1.18.64h-.13"/><path class="cls-22" d="M30.32,125.3l1.18-.64h.13l-1.19.64h-.12"/><path class="cls-21" d="M30.44,125.31l1.19-.64h.12l-1.18.65-.13,0"/><path class="cls-54" d="M30.57,125.33l1.18-.65.12,0-1.19.65-.11,0"/><path class="cls-40" d="M30.68,125.35l1.19-.65.12,0-1.19.64-.12,0"/><path class="cls-55" d="M30.8,125.37l1.19-.64.12,0-1.19.64-.12,0"/><path class="cls-56" d="M30.92,125.4l1.19-.64.11,0-1.18.64-.12,0"/><path class="cls-57" d="M31,125.44l1.18-.64.12,0-1.18.64-.12,0"/><path class="cls-58" d="M31.16,125.48l1.18-.64.06,0-1.18.64-.06,0"/></g></g></g><g class="cls-4"><g class="cls-103"><g class="cls-4"><path class="cls-58" d="M31.22,125.5l1.18-.64.06,0-1.18.64-.06,0"/><path class="cls-60" d="M31.28,125.53l1.18-.64.13,0-1.19.65-.12-.06"/><path class="cls-61" d="M31.4,125.59l1.19-.65.12.06-1.19.65-.12-.06"/><path class="cls-52" d="M31.52,125.65l1.19-.65.13.07-1.19.65-.13-.07"/><path class="cls-62" d="M31.65,125.72l1.19-.65.13.09-1.19.64-.13-.08"/><path class="cls-63" d="M31.78,125.8l1.19-.64.14.09-1.19.65a.71.71,0,0,0-.14-.1"/><path class="cls-64" d="M31.92,125.9l1.19-.65.15.12-1.19.64-.15-.11"/><path class="cls-65" d="M32.07,126l1.19-.64.17.14-1.19.64-.17-.14"/><path class="cls-66" d="M32.24,126.15l1.19-.64.22.21-1.19.65a2.28,2.28,0,0,0-.22-.22"/><path class="cls-67" d="M32.46,126.37l1.19-.65a3.84,3.84,0,0,1,.67.94l-1.18.64a4.11,4.11,0,0,0-.68-.93"/><path class="cls-66" d="M33.14,127.3l1.18-.64c0,.09.09.18.13.27l-1.18.65c0-.1-.09-.19-.13-.28"/><path class="cls-65" d="M33.27,127.58l1.18-.65.09.21-1.19.65-.08-.21"/><path class="cls-64" d="M33.35,127.79l1.19-.65.06.18-1.19.65-.06-.18"/><path class="cls-63" d="M33.41,128l1.19-.65c0,.06,0,.11,0,.17l-1.18.64s0-.11-.05-.16"/><path class="cls-62" d="M33.46,128.13l1.18-.64c0,.05,0,.1,0,.15l-1.19.64,0-.15"/><path class="cls-52" d="M33.49,128.28l1.19-.64a.59.59,0,0,1,0,.14l-1.18.64,0-.14"/><path class="cls-61" d="M33.52,128.42l1.18-.64a.59.59,0,0,1,0,.13l-1.18.65a.68.68,0,0,1,0-.14"/><path class="cls-60" d="M33.54,128.56l1.18-.65s0,.09,0,.13l-1.19.65c0-.05,0-.09,0-.13"/><path class="cls-58" d="M33.55,128.69l1.19-.65v.13l-1.18.65s0-.09,0-.13"/><path class="cls-57" d="M33.56,128.82l1.18-.65s0,.08,0,.13l-1.19.64v-.12"/><path class="cls-56" d="M33.56,128.94l1.19-.64s0,.08,0,.12l-1.18.64v-.12"/><path class="cls-55" d="M33.56,129.06l1.18-.64a.49.49,0,0,1,0,.12l-1.18.64a.49.49,0,0,1,0-.12"/><path class="cls-40" d="M33.55,129.18l1.18-.64v.12l-1.19.65v0s0-.06,0-.09"/><path class="cls-54" d="M33.53,129.31l1.19-.65a.51.51,0,0,1,0,.13l-1.18.64s0-.08,0-.12"/><path class="cls-21" d="M33.52,129.43l1.18-.64s0,.08,0,.12l-1.19.64,0-.12"/><path class="cls-22" d="M33.49,129.55l1.19-.64a.56.56,0,0,1,0,.12l-1.18.65,0-.13"/><path class="cls-23" d="M33.46,129.68l1.18-.65a.5.5,0,0,1,0,.13l-1.18.64s0-.08,0-.12"/><path class="cls-25" d="M33.42,129.8l1.18-.64a.69.69,0,0,1-.05.13l-1.18.64a1.12,1.12,0,0,1,.05-.13"/><path class="cls-15" d="M33.37,129.93l1.18-.64-.06.14-1.19.64.07-.14"/><path class="cls-8" d="M33.3,130.07l1.19-.64-.09.15-1.18.64a1.09,1.09,0,0,0,.08-.15"/><path class="cls-9" d="M33.22,130.22l1.18-.64-.12.18-1.19.64.13-.18"/><path class="cls-10" d="M33.09,130.4l1.19-.64a2,2,0,0,1-.57.47l-1.18.64a1.92,1.92,0,0,0,.56-.47"/></g></g></g><path class="cls-68" d="M31.22,125.5a3.85,3.85,0,0,1,2.32,3.77,2,2,0,0,1-3,1.63,3.83,3.83,0,0,1-2.32-3.76A2,2,0,0,1,31.22,125.5Zm.82,4.56.31-2.66-2.6-1.05L29.43,129,32,130.06"/><g class="cls-4"><g class="cls-104"><polyline id="SVGID-71" data-name="SVGID" class="cls-105" points="33.49 129.54 33.42 129.79 33.33 130.02 33.21 130.24 33.07 130.43 32.91 130.6 32.73 130.74 32.54 130.87 32.33 130.96 32.11 131.04 31.87 131.08 31.63 131.1 31.37 131.1 31.11 131.06 30.84 131 30.57 130.9 30.3 130.78 30.05 130.63 29.8 130.46 29.57 130.27 29.35 130.07 29.15 129.84 28.96 129.61 28.8 129.36 28.65 129.1 28.52 128.83 28.41 128.55 28.33 128.27 28.27 127.99 28.24 127.7 28.23 127.42 28.25 127.14 28.3 126.86 28.37 126.61 28.46 126.38 28.58 126.17 28.72 125.98 28.88 125.81 29.06 125.66 29.25 125.54 29.46 125.44 29.68 125.37 29.92 125.32 30.16 125.3 30.41 125.31 30.68 125.34 30.94 125.41 31.21 125.5 31.48 125.63 31.74 125.78 31.99 125.94 32.22 126.13 32.44 126.34 32.64 126.56 32.83 126.8 32.99 127.05 33.14 127.31 33.27 127.58 33.37 127.86 33.46 128.14 33.52 128.42 33.55 128.7 33.56 128.99 33.54 129.27 33.49 129.54"/></g></g></g><g class="cls-4"><polygon class="cls-40" points="72.08 89.07 71.36 90.54 68.36 89.81 69.08 88.34 72.08 89.07"/><polygon class="cls-6" points="72.33 90.89 71.61 92.36 71.36 90.54 72.08 89.07 72.33 90.89"/><g class="cls-4"><g class="cls-106"><g class="cls-4"><path class="cls-9" d="M73.67,90.92,73,92.39a1.43,1.43,0,0,1-.14.2l.72-1.46a.85.85,0,0,0,.14-.21"/><path class="cls-8" d="M73.53,91.13l-.72,1.46-.22.19.72-1.47a1,1,0,0,0,.22-.18"/><path class="cls-15" d="M73.31,91.31l-.72,1.47a1.71,1.71,0,0,1-.27.14L73,91.45a1.71,1.71,0,0,0,.27-.14"/><path class="cls-25" d="M73,91.45l-.72,1.47A1.89,1.89,0,0,1,72,93l.73-1.46.35-.11"/><path class="cls-23" d="M72.69,91.56,72,93a3.92,3.92,0,0,1-.52.06l.73-1.47a2.87,2.87,0,0,0,.52,0"/><path class="cls-22" d="M72.17,91.61l-.73,1.47a4.94,4.94,0,0,1-1.21-.14,6.6,6.6,0,0,1-.63-.2l.72-1.46c.21.07.42.14.64.19a4.5,4.5,0,0,0,1.21.14"/><path class="cls-23" d="M70.32,91.28l-.72,1.46a4.14,4.14,0,0,1-.61-.26L69.71,91l.61.26"/><path class="cls-25" d="M69.71,91,69,92.48c-.16-.07-.31-.16-.46-.24l.73-1.47a4.79,4.79,0,0,0,.45.25"/><path class="cls-15" d="M69.26,90.77l-.73,1.47a3.83,3.83,0,0,1-.39-.27l.72-1.46c.13.09.26.18.4.26"/><path class="cls-8" d="M68.86,90.51,68.14,92a3.51,3.51,0,0,1-.36-.29l.72-1.46.36.29"/><path class="cls-9" d="M68.5,90.22l-.72,1.46a2.89,2.89,0,0,1-.35-.35l.72-1.47c.11.12.22.24.35.36"/><path class="cls-10" d="M68.15,89.86l-.72,1.47a2,2,0,0,1-.5-1,.94.94,0,0,1,.08-.56l.73-1.47a.94.94,0,0,0-.08.56,2,2,0,0,0,.49,1"/></g></g></g><path class="cls-45" d="M70.45,87.77c1.69.41,3.17,1.57,3.3,2.59S72.64,91.88,71,91.47s-3.16-1.57-3.3-2.59S68.77,87.36,70.45,87.77Zm1.88,3.12-.25-1.82-3-.73.25,1.83,3,.72"/><g class="cls-4"><g class="cls-107"><polyline id="SVGID-72" data-name="SVGID" class="cls-108" points="73.77 90.55 73.74 90.72 73.69 90.88 73.61 91.02 73.51 91.15 73.38 91.27 73.22 91.37 73.04 91.45 72.84 91.52 72.62 91.57 72.38 91.6 72.13 91.61 71.85 91.61 71.57 91.58 71.27 91.54 70.96 91.47 70.64 91.39 70.34 91.28 70.04 91.17 69.75 91.04 69.47 90.89 69.21 90.74 68.96 90.58 68.73 90.41 68.51 90.23 68.32 90.04 68.15 89.85 68 89.66 67.87 89.46 67.77 89.27 67.7 89.07 67.66 88.88 67.65 88.69 67.67 88.52 67.72 88.36 67.8 88.22 67.91 88.09 68.04 87.97 68.19 87.87 68.37 87.79 68.57 87.72 68.79 87.67 69.03 87.64 69.29 87.63 69.56 87.63 69.84 87.66 70.14 87.7 70.45 87.77 70.77 87.85 71.07 87.96 71.37 88.07 71.66 88.2 71.94 88.34 72.2 88.5 72.45 88.66 72.68 88.83 72.9 89.01 73.09 89.2 73.27 89.39 73.42 89.58 73.54 89.78 73.64 89.97 73.71 90.17 73.75 90.36 73.77 90.55"/></g></g></g><g class="cls-4"><polygon class="cls-40" points="30.43 104.45 29.71 105.91 26.71 105.19 27.43 103.72 30.43 104.45"/><polygon class="cls-6" points="30.68 106.27 29.96 107.73 29.71 105.91 30.43 104.45 30.68 106.27"/><g class="cls-4"><g class="cls-109"><g class="cls-4"><path class="cls-9" d="M32,106.29l-.73,1.47a1.28,1.28,0,0,1-.14.21l.72-1.47a.8.8,0,0,0,.15-.21"/><path class="cls-8" d="M31.88,106.5,31.16,108a1,1,0,0,1-.22.18l.73-1.47a.91.91,0,0,0,.21-.18"/><path class="cls-15" d="M31.67,106.68l-.73,1.47a1.15,1.15,0,0,1-.27.14l.72-1.47a1.47,1.47,0,0,0,.28-.14"/><path class="cls-25" d="M31.39,106.82l-.72,1.47-.36.11.73-1.47a1.6,1.6,0,0,0,.35-.11"/><path class="cls-23" d="M31,106.93l-.73,1.47a2.67,2.67,0,0,1-.51,0l.72-1.46a3.92,3.92,0,0,0,.52-.06"/><path class="cls-22" d="M30.52,107l-.72,1.46a4.42,4.42,0,0,1-1.21-.14c-.22,0-.43-.12-.64-.19l.72-1.47a4.71,4.71,0,0,0,.64.19,5,5,0,0,0,1.21.15"/><path class="cls-23" d="M28.67,106.65,28,108.12l-.61-.26.72-1.47a6.57,6.57,0,0,0,.61.26"/><path class="cls-25" d="M28.06,106.39l-.72,1.47-.46-.25.73-1.47c.14.09.3.17.45.25"/><path class="cls-15" d="M27.61,106.14l-.73,1.47-.39-.26.73-1.47a3.77,3.77,0,0,0,.39.26"/><path class="cls-8" d="M27.22,105.88l-.73,1.47c-.13-.1-.25-.19-.36-.29l.73-1.47a3.51,3.51,0,0,0,.36.29"/><path class="cls-9" d="M26.86,105.59l-.73,1.47a3.91,3.91,0,0,1-.35-.36l.73-1.47a3.91,3.91,0,0,0,.35.36"/><path class="cls-10" d="M26.51,105.23l-.73,1.47a2.09,2.09,0,0,1-.5-1,1,1,0,0,1,.09-.56l.72-1.47a1,1,0,0,0-.08.56,1.88,1.88,0,0,0,.5,1"/></g></g></g><path class="cls-45" d="M28.81,103.14c1.68.41,3.16,1.57,3.3,2.59s-1.12,1.52-2.8,1.11-3.16-1.56-3.3-2.59S27.12,102.73,28.81,103.14Zm1.87,3.13-.25-1.82-3-.73.25,1.82,3,.73"/><g class="cls-4"><g class="cls-110"><polyline id="SVGID-73" data-name="SVGID" class="cls-111" points="32.12 105.92 32.1 106.09 32.05 106.25 31.97 106.39 31.86 106.53 31.73 106.64 31.57 106.74 31.39 106.83 31.19 106.89 30.97 106.94 30.73 106.97 30.48 106.99 30.21 106.98 29.92 106.95 29.62 106.91 29.31 106.84 29 106.76 28.69 106.66 28.39 106.54 28.1 106.41 27.83 106.27 27.56 106.11 27.31 105.95 27.08 105.78 26.87 105.6 26.67 105.41 26.5 105.22 26.35 105.03 26.22 104.84 26.12 104.64 26.05 104.45 26.01 104.25 26 104.07 26.02 103.89 26.07 103.74 26.15 103.59 26.26 103.46 26.39 103.34 26.55 103.25 26.73 103.16 26.93 103.09 27.14 103.05 27.38 103.01 27.64 103 27.91 103.01 28.2 103.03 28.5 103.08 28.8 103.14 29.12 103.23 29.43 103.33 29.72 103.45 30.01 103.58 30.29 103.72 30.55 103.87 30.8 104.04 31.04 104.21 31.25 104.39 31.45 104.57 31.62 104.76 31.77 104.95 31.89 105.15 31.99 105.34 32.07 105.54 32.11 105.73 32.12 105.92"/></g></g></g><g class="cls-4"><polygon class="cls-51" points="109.1 92.29 110.28 91.64 109.97 94.3 108.78 94.94 109.1 92.29"/><polygon class="cls-52" points="108.78 94.94 109.97 94.3 112.57 95.35 111.39 95.99 108.78 94.94"/><g class="cls-4"><g class="cls-112"><g class="cls-4"><path class="cls-10" d="M108.61,91.47l1.19-.64.24-.11-1.19.64-.24.11"/><path class="cls-9" d="M108.85,91.36l1.19-.64.21-.07-1.18.65a.9.9,0,0,0-.22.06"/><path class="cls-8" d="M109.07,91.3l1.18-.65.18,0-1.19.64-.17,0"/><path class="cls-15" d="M109.24,91.26l1.19-.64.15,0-1.19.64-.15,0"/><path class="cls-25" d="M109.39,91.24l1.19-.64h.14l-1.19.65h-.14"/><path class="cls-23" d="M109.53,91.24l1.19-.65h.13l-1.18.65h-.14"/><path class="cls-22" d="M109.67,91.24l1.18-.65H111l-1.19.65h-.12"/><path class="cls-21" d="M109.79,91.25,111,90.6l.12,0-1.18.64h-.13"/><path class="cls-54" d="M109.92,91.26l1.18-.64.12,0-1.19.64-.11,0"/><path class="cls-40" d="M110,91.28l1.19-.64.12,0-1.19.65-.12,0"/><path class="cls-55" d="M110.15,91.31l1.19-.65.12,0-1.19.65-.12,0"/><path class="cls-56" d="M110.27,91.34l1.19-.65.11,0-1.18.65-.12,0"/><path class="cls-57" d="M110.39,91.38l1.18-.65.12,0-1.18.65-.12,0"/><path class="cls-58" d="M110.51,91.42l1.18-.65.06,0-1.19.64,0,0"/></g></g></g><g class="cls-4"><g class="cls-113"><g class="cls-4"><path class="cls-58" d="M110.56,91.44l1.19-.64.06,0-1.18.65-.07,0"/><path class="cls-60" d="M110.63,91.47l1.18-.65.12.06-1.18.64-.12,0"/><path class="cls-61" d="M110.75,91.52l1.18-.64.13.06-1.19.64-.12-.06"/><path class="cls-52" d="M110.87,91.58l1.19-.64.12.07-1.18.64-.13-.07"/><path class="cls-62" d="M111,91.65l1.18-.64.14.08-1.19.65-.13-.09"/><path class="cls-63" d="M111.13,91.74l1.19-.65.14.1-1.19.64-.14-.09"/><path class="cls-64" d="M111.27,91.83l1.19-.64.15.11-1.19.64-.15-.11"/><path class="cls-65" d="M111.42,91.94l1.19-.64.17.14-1.19.65-.17-.15"/><path class="cls-66" d="M111.59,92.09l1.19-.65c.07.07.15.14.22.22l-1.19.64-.22-.21"/><path class="cls-67" d="M111.81,92.3l1.19-.64a4.07,4.07,0,0,1,.67.93l-1.18.65a4.17,4.17,0,0,0-.68-.94"/><path class="cls-66" d="M112.49,93.24l1.18-.65a2.39,2.39,0,0,1,.13.28l-1.19.64c0-.09-.08-.18-.12-.27"/><path class="cls-65" d="M112.61,93.51l1.19-.64a1.8,1.8,0,0,1,.08.21l-1.18.64-.09-.21"/><path class="cls-64" d="M112.7,93.72l1.18-.64a1.34,1.34,0,0,1,.07.18l-1.19.64-.06-.18"/><path class="cls-63" d="M112.76,93.9l1.19-.64s0,.11,0,.16l-1.18.65,0-.17"/><path class="cls-62" d="M112.81,94.07l1.18-.65s0,.1,0,.15l-1.19.65,0-.15"/><path class="cls-52" d="M112.84,94.22l1.19-.65c0,.05,0,.1,0,.14l-1.18.65,0-.14"/><path class="cls-61" d="M112.87,94.36l1.18-.65a.68.68,0,0,1,0,.14l-1.18.64a.59.59,0,0,1,0-.13"/><path class="cls-60" d="M112.89,94.49l1.18-.64a.57.57,0,0,1,0,.13l-1.18.64a.53.53,0,0,1,0-.13"/><path class="cls-58" d="M112.9,94.62l1.18-.64a.57.57,0,0,1,0,.13l-1.18.64a.53.53,0,0,1,0-.13"/><path class="cls-57" d="M112.91,94.75l1.18-.64v.12l-1.18.65v-.13"/><path class="cls-56" d="M112.91,94.88l1.18-.65v.13l-1.18.64v-.12"/><path class="cls-55" d="M112.91,95l1.18-.64a.49.49,0,0,1,0,.12l-1.18.64a.49.49,0,0,1,0-.12"/><path class="cls-40" d="M112.9,95.12l1.18-.64a.22.22,0,0,1,0,.08v0l-1.19.64v0a.28.28,0,0,1,0-.09"/><path class="cls-54" d="M112.88,95.24l1.19-.64s0,.08,0,.12l-1.19.65a.51.51,0,0,0,0-.13"/><path class="cls-21" d="M112.86,95.37l1.19-.65a.69.69,0,0,0,0,.13l-1.19.64a.5.5,0,0,0,0-.12"/><path class="cls-22" d="M112.84,95.49l1.19-.64,0,.12-1.18.64,0-.12"/><path class="cls-23" d="M112.81,95.61,114,95a.65.65,0,0,1,0,.13l-1.18.64a.93.93,0,0,1,0-.13"/><path class="cls-25" d="M112.77,95.74,114,95.1a1.12,1.12,0,0,1,0,.13l-1.19.64.06-.13"/><path class="cls-15" d="M112.71,95.87l1.19-.64-.06.13-1.19.65.06-.14"/><path class="cls-8" d="M112.65,96l1.19-.65-.09.16-1.19.64a1.19,1.19,0,0,0,.09-.15"/><path class="cls-9" d="M112.56,96.16l1.19-.64a1.09,1.09,0,0,1-.13.17l-1.18.65a1.88,1.88,0,0,0,.12-.18"/><path class="cls-10" d="M112.44,96.34l1.18-.65a1.59,1.59,0,0,1-.56.47l-1.18.65a2.09,2.09,0,0,0,.56-.47"/></g></g></g><path class="cls-68" d="M110.56,91.44a3.84,3.84,0,0,1,2.33,3.77,2,2,0,0,1-3,1.63,3.85,3.85,0,0,1-2.32-3.77A2,2,0,0,1,110.56,91.44Zm.83,4.55.31-2.65-2.6-1-.32,2.65,2.61,1"/><g class="cls-4"><g class="cls-114"><polyline id="SVGID-74" data-name="SVGID" class="cls-115" points="112.84 95.48 112.77 95.73 112.67 95.96 112.56 96.17 112.42 96.36 112.26 96.53 112.08 96.68 111.89 96.8 111.68 96.9 111.45 96.97 111.22 97.02 110.98 97.04 110.72 97.03 110.46 97 110.19 96.93 109.92 96.84 109.65 96.72 109.39 96.57 109.15 96.4 108.92 96.21 108.7 96 108.5 95.78 108.31 95.54 108.14 95.29 108 95.03 107.87 94.76 107.76 94.49 107.68 94.21 107.62 93.92 107.59 93.64 107.58 93.35 107.6 93.07 107.64 92.8 107.72 92.55 107.81 92.32 107.93 92.11 108.07 91.92 108.23 91.75 108.41 91.6 108.6 91.48 108.81 91.38 109.03 91.31 109.27 91.26 109.51 91.24 109.76 91.24 110.03 91.28 110.29 91.34 110.56 91.44 110.83 91.56 111.09 91.71 111.34 91.88 111.57 92.07 111.79 92.28 111.99 92.5 112.17 92.74 112.34 92.98 112.49 93.25 112.62 93.52 112.72 93.79 112.81 94.07 112.86 94.36 112.9 94.64 112.91 94.92 112.89 95.21 112.84 95.48"/></g></g></g><g class="cls-4"><polygon class="cls-40" points="111.55 36.53 110.83 38 107.83 37.27 108.55 35.8 111.55 36.53"/><polygon class="cls-6" points="111.8 38.35 111.08 39.82 110.83 38 111.55 36.53 111.8 38.35"/><g class="cls-4"><g class="cls-116"><g class="cls-4"><path class="cls-9" d="M113.14,38.38l-.72,1.47a1.43,1.43,0,0,1-.14.2l.72-1.46a.85.85,0,0,0,.14-.21"/><path class="cls-8" d="M113,38.59l-.72,1.46a1.37,1.37,0,0,1-.22.19l.72-1.47a1,1,0,0,0,.22-.18"/><path class="cls-15" d="M112.78,38.77l-.72,1.47a1.71,1.71,0,0,1-.27.14l.72-1.47a1.71,1.71,0,0,0,.27-.14"/><path class="cls-25" d="M112.51,38.91l-.72,1.47a1.89,1.89,0,0,1-.36.1l.73-1.47a1.79,1.79,0,0,0,.35-.1"/><path class="cls-23" d="M112.16,39l-.73,1.47a3.92,3.92,0,0,1-.52.06l.73-1.47a2.12,2.12,0,0,0,.52-.06"/><path class="cls-22" d="M111.64,39.07l-.73,1.47a4.94,4.94,0,0,1-1.21-.14,6.6,6.6,0,0,1-.63-.2l.72-1.46c.21.07.42.14.64.19a4.5,4.5,0,0,0,1.21.14"/><path class="cls-23" d="M109.79,38.74l-.72,1.46a4.26,4.26,0,0,1-.62-.26l.73-1.46.61.26"/><path class="cls-25" d="M109.18,38.48l-.73,1.46a5.05,5.05,0,0,1-.45-.25l.73-1.46a4.79,4.79,0,0,0,.45.25"/><path class="cls-15" d="M108.73,38.23,108,39.69a3.77,3.77,0,0,1-.39-.26l.72-1.46.4.26"/><path class="cls-8" d="M108.33,38l-.72,1.46a3.51,3.51,0,0,1-.36-.29l.72-1.46c.11.1.23.19.36.29"/><path class="cls-9" d="M108,37.68l-.72,1.46a2.89,2.89,0,0,1-.35-.35l.72-1.47c.11.12.22.24.35.36"/><path class="cls-10" d="M107.62,37.32l-.72,1.47a2,2,0,0,1-.5-1,.94.94,0,0,1,.08-.56l.73-1.47a.94.94,0,0,0-.08.56,2,2,0,0,0,.49,1"/></g></g></g><path class="cls-45" d="M109.92,35.23c1.69.41,3.17,1.57,3.31,2.59s-1.12,1.52-2.8,1.11-3.16-1.57-3.3-2.59S108.24,34.82,109.92,35.23Zm1.88,3.12-.25-1.82-3-.73.25,1.83,3,.72"/><g class="cls-4"><g class="cls-117"><polyline id="SVGID-75" data-name="SVGID" class="cls-118" points="113.24 38.01 113.22 38.18 113.16 38.34 113.08 38.48 112.98 38.61 112.85 38.73 112.69 38.83 112.51 38.91 112.31 38.98 112.09 39.03 111.85 39.06 111.6 39.07 111.32 39.07 111.04 39.04 110.74 39 110.43 38.93 110.12 38.84 109.81 38.74 109.51 38.63 109.22 38.5 108.94 38.35 108.68 38.2 108.43 38.04 108.2 37.86 107.98 37.69 107.79 37.5 107.61 37.31 107.47 37.12 107.34 36.92 107.24 36.73 107.17 36.53 107.13 36.34 107.12 36.15 107.14 35.98 107.19 35.82 107.27 35.68 107.38 35.55 107.51 35.43 107.66 35.33 107.84 35.25 108.04 35.18 108.26 35.13 108.5 35.1 108.76 35.09 109.03 35.09 109.31 35.12 109.61 35.16 109.92 35.23 110.24 35.31 110.54 35.42 110.84 35.53 111.13 35.66 111.41 35.81 111.67 35.96 111.92 36.12 112.15 36.3 112.37 36.47 112.56 36.66 112.74 36.85 112.89 37.04 113.01 37.24 113.11 37.43 113.18 37.63 113.23 37.82 113.24 38.01"/></g></g></g></svg>