<svg xmlns="http://www.w3.org/2000/svg" xmlns:xlink="http://www.w3.org/1999/xlink" viewBox="0 0 140 140"><defs><style>.cls-1{fill-opacity:0.31;}.cls-2{fill:none;}.cls-3{fill:#c11922;}.cls-4{mask:url(#mask);}.cls-5{clip-path:url(#clip-path);}.cls-6{clip-path:url(#clip-path-2);}.cls-7{fill:#945659;}.cls-8{clip-path:url(#clip-path-4);}.cls-9{clip-path:url(#clip-path-7);}.cls-10{clip-path:url(#clip-path-10);}.cls-11{clip-path:url(#clip-path-13);}.cls-12{fill:#decbcc;}.cls-13{clip-path:url(#clip-path-16);}.cls-14{clip-path:url(#clip-path-17);}.cls-15{clip-path:url(#clip-path-19);}.cls-16{clip-path:url(#clip-path-22);}.cls-17{clip-path:url(#clip-path-25);}.cls-18{clip-path:url(#clip-path-28);}.cls-19{clip-path:url(#clip-path-31);}.cls-20{clip-path:url(#clip-path-32);}.cls-21{clip-path:url(#clip-path-35);}.cls-22{clip-path:url(#clip-path-39);}.cls-23{clip-path:url(#clip-path-43);}.cls-24{clip-path:url(#clip-path-47);}.cls-25{clip-path:url(#clip-path-51);}.cls-26{clip-path:url(#clip-path-52);}.cls-27{clip-path:url(#clip-path-55);}.cls-28{clip-path:url(#clip-path-59);}.cls-29{clip-path:url(#clip-path-63);}.cls-30{clip-path:url(#clip-path-67);}.cls-31{clip-path:url(#clip-path-71);}.cls-32{clip-path:url(#clip-path-72);}.cls-33{clip-path:url(#clip-path-73);}.cls-34{clip-path:url(#clip-path-74);}</style><mask id="mask" x="-9.95" y="-10.11" width="160.66" height="160.85" maskUnits="userSpaceOnUse"><g id="_2c7af554ae" data-name="2c7af554ae"><rect class="cls-1" x="-9.95" y="-10.11" width="160.66" height="160.85"/></g></mask><clipPath id="clip-path"><rect id="SVGID" class="cls-2" x="28.97" y="36.49" width="2.55" height="2.55"/></clipPath><clipPath id="clip-path-2"><rect id="SVGID-2" data-name="SVGID" class="cls-2" x="4.42" y="30.41" width="41.12" height="31.56" transform="translate(-26.78 55.04) rotate(-71.29)"/></clipPath><clipPath id="clip-path-4"><rect id="SVGID-4" data-name="SVGID" class="cls-2" x="30.25" y="37.76" width="2.55" height="2.55"/></clipPath><clipPath id="clip-path-7"><rect id="SVGID-7" data-name="SVGID" class="cls-2" x="28.97" y="39.04" width="2.55" height="2.55"/></clipPath><clipPath id="clip-path-10"><rect id="SVGID-10" data-name="SVGID" class="cls-2" x="27.69" y="39.04" width="2.55" height="1.28"/></clipPath><clipPath id="clip-path-13"><rect id="SVGID-13" data-name="SVGID" class="cls-2" x="27.69" y="37.76" width="2.55" height="2.55"/></clipPath><clipPath id="clip-path-16"><rect id="SVGID-16" data-name="SVGID" class="cls-2" x="58.33" y="21.17" width="2.55" height="2.55"/></clipPath><clipPath id="clip-path-17"><rect id="SVGID-17" data-name="SVGID" class="cls-2" x="34.38" y="11.68" width="34.43" height="26.78" transform="translate(-5.27 32.63) rotate(-33.49)"/></clipPath><clipPath id="clip-path-19"><rect id="SVGID-19" data-name="SVGID" class="cls-2" x="58.33" y="22.44" width="2.55" height="2.55"/></clipPath><clipPath id="clip-path-22"><rect id="SVGID-22" data-name="SVGID" class="cls-2" x="57.06" y="22.44" width="2.55" height="2.55"/></clipPath><clipPath id="clip-path-25"><rect id="SVGID-25" data-name="SVGID" class="cls-2" x="55.78" y="21.17" width="2.55" height="2.55"/></clipPath><clipPath id="clip-path-28"><rect id="SVGID-28" data-name="SVGID" class="cls-2" x="57.06" y="21.17" width="2.55" height="2.55"/></clipPath><clipPath id="clip-path-31"><rect id="SVGID-31" data-name="SVGID" class="cls-2" x="58.33" y="18.61" width="2.55" height="2.55"/></clipPath><clipPath id="clip-path-32"><rect id="SVGID-32" data-name="SVGID" class="cls-2" x="34.38" y="9.29" width="34.43" height="26.78" transform="translate(-3.95 32.23) rotate(-33.49)"/></clipPath><clipPath id="clip-path-35"><rect id="SVGID-35" data-name="SVGID" class="cls-2" x="58.33" y="19.89" width="2.55" height="2.55"/></clipPath><clipPath id="clip-path-39"><rect id="SVGID-39" data-name="SVGID" class="cls-2" x="57.06" y="19.89" width="2.55" height="2.55"/></clipPath><clipPath id="clip-path-43"><rect id="SVGID-43" data-name="SVGID" class="cls-2" x="57.06" y="19.89" width="2.55" height="1.28"/></clipPath><clipPath id="clip-path-47"><rect id="SVGID-47" data-name="SVGID" class="cls-2" x="57.06" y="18.61" width="2.55" height="2.55"/></clipPath><clipPath id="clip-path-51"><rect id="SVGID-51" data-name="SVGID" class="cls-2" x="26.42" y="35.21" width="2.55" height="2.55"/></clipPath><clipPath id="clip-path-52"><rect id="SVGID-52" data-name="SVGID" class="cls-2" x="1.76" y="28.59" width="41.12" height="31.56" transform="translate(-26.86 51.28) rotate(-71.29)"/></clipPath><clipPath id="clip-path-55"><rect id="SVGID-55" data-name="SVGID" class="cls-2" x="27.69" y="36.49" width="2.55" height="1.28"/></clipPath><clipPath id="clip-path-59"><rect id="SVGID-59" data-name="SVGID" class="cls-2" x="26.42" y="36.49" width="2.55" height="2.55"/></clipPath><clipPath id="clip-path-63"><rect id="SVGID-63" data-name="SVGID" class="cls-2" x="25.14" y="36.49" width="2.55" height="2.55"/></clipPath><clipPath id="clip-path-67"><rect id="SVGID-67" data-name="SVGID" class="cls-2" x="25.14" y="35.21" width="2.55" height="2.55"/></clipPath><clipPath id="clip-path-71"><rect id="SVGID-71" data-name="SVGID" class="cls-2" x="95.35" y="55.63" width="3.83" height="8.49"/></clipPath><clipPath id="clip-path-72"><rect id="SVGID-72" data-name="SVGID" class="cls-2" x="96.63" y="24.91" width="1.28" height="6.47"/></clipPath><clipPath id="clip-path-73"><rect id="SVGID-73" data-name="SVGID" class="cls-2" x="90.36" y="32.66" width="14.35" height="17.87"/></clipPath><clipPath id="clip-path-74"><rect id="SVGID-74" data-name="SVGID" class="cls-2" x="108.12" y="69.68" width="3.83" height="10.63"/></clipPath></defs><g id="图层_3" data-name="图层 3"><path class="cls-3" d="M71.68,18.29a4.66,4.66,0,0,1,8.45.16c.35.79.58.75,1.2.27,2.89-2.24,6.26-1.26,7.59,2.21.3.79.54.91,1.29.5a4.67,4.67,0,0,1,6.9,3.13c.25,1.06.5,1.38,1.64,1a4.67,4.67,0,0,1,5.8,4.05c.22,1.62.22,1.62,1.76,1.64A4.64,4.64,0,0,1,111,35.79c.13,1.93.14,1.9,2,2.52a4.67,4.67,0,0,1,3.17,3.22,6.72,6.72,0,0,1,.31,3.5.73.73,0,0,0,.61,1c3.38.94,3.8,4.73,3.24,7.41-.15.71-.07,1,.51,1.36a6,6,0,0,1,1.82,7.75,1,1,0,0,0,.11,1.4,6.25,6.25,0,0,1,.51,8.09,1.25,1.25,0,0,0-.07,1.54c1.47,2.68,1.54,6.22-1.2,8-.59.4-.26.85-.12,1.32.58,2,1,4-.37,5.81a4.54,4.54,0,0,1-1.78,1.59c-.82.34-1,.86-.83,1.73.21,1.45.57,2.9-.37,4.33a5,5,0,0,1-3.3,2.45c-.78.17-1,.52-.87,1.28.5,3.55-1,5.66-4.53,6.27-.92.16-1.18.56-1.22,1.44-.12,3.26-2.35,5.28-5.55,5-1.11-.11-1.16.6-1.31,1.31-.51,2.28-2.16,4.08-4.41,4-2.1-.11-3.29.27-4.32,2.29s-3.75,2.42-5.93,1.43c-.92-.42-1.36-.18-1.87.58-1.85,2.74-4.56,3.29-7.34,1.52-.62-.4-1.08-.43-1.56.22a4.86,4.86,0,0,1-7.67.41c-.53-.65-1-.54-1.65,0a5.12,5.12,0,0,1-6.56.24,2.49,2.49,0,0,1,.08-4c1.64-1.35,3.43-1.06,5.24-.89a48.14,48.14,0,0,0,17.06-1.57A48.87,48.87,0,0,0,107,103.33a48.05,48.05,0,0,0,11.31-21.77,45.46,45.46,0,0,0,1.24-8.74,55.79,55.79,0,0,0-.73-9.47,46.26,46.26,0,0,0-3.79-12.61,45.11,45.11,0,0,0-7.34-11.56,63.9,63.9,0,0,0-9.07-8.42A44.72,44.72,0,0,0,85,24a49.52,49.52,0,0,0-14-2.34c-1.38,0-2.74.12-4.11.05-1.18-.05-1.58-.56-1.52-1.77.08-1.49,2.4-2.5,2.65-3.93.07-.37.48-.38.78-.33,1.24.2,1.38.94,1.82,1.24S71.24,17.73,71.68,18.29Z"/><path class="cls-3" d="M25.56,46c-.12,3.68-2.18,6.73-3.18,10.13a40.26,40.26,0,0,0-2.16,12c0,1.28-.52,2.47-.42,3.73.16,1.94.32,3.89.58,5.81a44.18,44.18,0,0,0,1.45,6.5c.31,1,.64,2.23-.44,2.94s-2.15.2-3.1-.47c-2.15-1.51-2.78-4.21-1.58-7.13a1.63,1.63,0,0,0-.35-2.1,6.11,6.11,0,0,1-.17-7.72,1,1,0,0,0,0-1.52,6.22,6.22,0,0,1,.89-7.86,1.15,1.15,0,0,0,.35-1.65c-.75-1.47-.42-3,0-4.48.08-.3.2-.61.54-.7,1.94-.51,2.79-2.25,4-3.58.87-1,1.58-2.07,2.42-3.07C24.71,46.46,25,46,25.56,46Z"/><path class="cls-3" d="M34.61,30.18c.08-1.43.17-1.61,1.57-1.35s1.56-.26,1.73-1.37c.29-1.91.67-2.19,2.54-2.51a20.7,20.7,0,0,1,5.83-.06c.51.05,1,.14.39.79-.08.08-.23.19-.22.25.36,1.75-1.14,2-2.14,2.64a57,57,0,0,0-7.05,5.11c-1.19,1-1.9.77-2.28-.74A5,5,0,0,1,34.61,30.18Z"/><path class="cls-3" d="M56.11,119.13c.54,1.53-.51,2.44-1.5,3.36s-2.37,1.07-3.17-.14c-1-1.58-2.41-3.11-1.84-5.31.2-.78.5-1.05,1.27-.74A29.52,29.52,0,0,0,55.73,118C56.33,118.15,56.43,118.54,56.11,119.13Z"/><path class="cls-3" d="M47.69,22.81c-.86.15-.68-.8-1.06-1.19s0-.63.26-.87a5.69,5.69,0,0,1,1.61-1.08,1.07,1.07,0,0,1,1.25.27c.45.39,0,.56-.19.79-.06.06-.05.21,0,.31A1.58,1.58,0,0,1,47.69,22.81Z"/><g class="cls-4"><g class="cls-5"><g class="cls-6"><g class="cls-6"><path class="cls-7" d="M30.32,38.82a.3.3,0,0,1,.12.13c1.26-1.78-.45-2.05-.49-.38C30,38.8,30,38.69,30.32,38.82Z"/></g></g></g><g class="cls-8"><g class="cls-6"><g class="cls-6"><path class="cls-7" d="M30.46,39c0,.1.15.15-.11.47,2.1.67,1.8-1,.22-.58Z"/></g></g></g><g class="cls-9"><g class="cls-6"><g class="cls-6"><path class="cls-7" d="M30.3,39.51a.43.43,0,0,1-.48,0c0,2.27,1.57,1.51.62.1Z"/></g></g></g><g class="cls-10"><g class="cls-6"><g class="cls-6"><path class="cls-7" d="M29.79,39.45c0-.06-.15-.07-.11-.41-2.2.71-1,2,.07.64Z"/></g></g></g><g class="cls-11"><g class="cls-6"><g class="cls-6"><path class="cls-7" d="M29.69,39a.44.44,0,0,1,.31-.26c-1.32-1.82-2.15-.26-.56.3Z"/></g></g></g></g><path class="cls-12" d="M102.84,34.62h-.36a0,0,0,0,0,0,0c-1-.06-1.93-.08-3.1-.08-.94,0-2,0-3.1.08a0,0,0,0,0,0,0h-.35a.39.39,0,0,1,0-.14l.14-.4a.77.77,0,0,1,.7-.43H97a0,0,0,0,0,0,0c.8.08,1.62.09,2.33.09s1.57,0,2.34-.09c0,0,0,0,0,0H102a.77.77,0,0,1,.7.43l.15.4A.39.39,0,0,1,102.84,34.62Z"/><path class="cls-12" d="M102.84,51.18a.39.39,0,0,1,0,.14l-.15.39a.76.76,0,0,1-.7.43H96.74a.76.76,0,0,1-.7-.43l-.14-.39a.39.39,0,0,1,0-.14h.35a0,0,0,0,0,0,0c1.06.07,2.16.08,3.1.09,1.17,0,2.15,0,3.1-.09a0,0,0,0,0,0,0Z"/><path class="cls-12" d="M101.76,33.65h-.05a0,0,0,0,0,0,0c-.72-.07-1.46-.09-2.34-.09s-1.61,0-2.33.09l0,0h0a.43.43,0,0,0,0,0l.1-.33a.53.53,0,0,1,.49-.35h3.63a.52.52,0,0,1,.48.35l.11.33Z"/><path class="cls-12" d="M99.27,55.08l.42.25a4.49,4.49,0,0,0-.42.24,4.92,4.92,0,0,0-.45-.24Z"/><path class="cls-12" d="M100.88,54.68h-.06a.54.54,0,0,0,0-.39.59.59,0,0,0-.45-.34.65.65,0,0,1-1-.44.59.59,0,0,0-.58.54.56.56,0,0,0-.41-.1.59.59,0,0,0-.44.34.54.54,0,0,0,0,.39h-.06a.63.63,0,0,0-.62.63.61.61,0,0,0,.62.61h.06a.54.54,0,0,0,0,.39.59.59,0,0,0,.44.34.57.57,0,0,0,.41-.11.59.59,0,0,0,.58.55.64.64,0,0,1,1-.44.59.59,0,0,0,.45-.34.54.54,0,0,0,0-.39h.06a.62.62,0,0,0,.63-.61A.63.63,0,0,0,100.88,54.68Zm-.52.32c-.13.11-.27.23-.41.33a4,4,0,0,1,.39.3,0,0,0,0,1,0,0s0,0,0,0-.32-.17-.48-.27a4.78,4.78,0,0,1-.42.26c.2.13.39.26.57.4,0,0,0,0,0,0h0c-.23-.1-.46-.22-.7-.35a4.87,4.87,0,0,1-.85.37,0,0,0,0,1,0,0l0,0s0,0,0,0l.72-.43-.43-.27-.24.1h0s0,0,0,0a1.4,1.4,0,0,1,.18-.13l-.21-.15a0,0,0,0,1,0,0h0l.28.12.42-.27-.74-.44s0,0,0,0,0,0,0,0a4.92,4.92,0,0,1,.88.39,6.16,6.16,0,0,1,.73-.36s0,0,0,0,0,0,0,0a6.13,6.13,0,0,1-.58.42,4.53,4.53,0,0,1,.4.26l.51-.28h0A0,0,0,0,1,100.36,55Z"/><path class="cls-12" d="M99.41,57.81h0a.77.77,0,0,0-.55.24.87.87,0,0,0-.19.32,2.91,2.91,0,0,0-.1,1.13c0,.25,0,.49,0,.74,0,1,0,2.22,0,2.36,0,.71-.09,1.72-.24,2.94a.18.18,0,0,0,.15.21,5.39,5.39,0,0,0,1,.08,6.48,6.48,0,0,0,1-.11.19.19,0,0,0,.14-.23c-.07-.31-.15-.75-.22-1.26a20.29,20.29,0,0,1-.13-3.4c0-.79.1-2.36-.36-2.81A.67.67,0,0,0,99.41,57.81Z"/><path class="cls-12" d="M99.35,58.15a.15.15,0,0,1-.14-.15v-.92a.14.14,0,0,1,.14-.14.15.15,0,0,1,.15.14V58A.15.15,0,0,1,99.35,58.15Z"/><path class="cls-12" d="M99.35,53.67a.15.15,0,0,1-.14-.15V52.14a.14.14,0,0,1,.14-.14.15.15,0,0,1,.15.14v1.38A.15.15,0,0,1,99.35,53.67Z"/><path class="cls-12" d="M99.35,33.06a.14.14,0,0,1-.14-.14v-6a.15.15,0,0,1,.14-.15.15.15,0,0,1,.15.15v6A.15.15,0,0,1,99.35,33.06Z"/><path class="cls-12" d="M106.6,38a.55.55,0,0,0,0-.53l-.25-.5a.57.57,0,0,1,0-.54l.25-.5a.55.55,0,0,0,0-.53l-.23-.45a.58.58,0,0,0-.52-.32h-3.37a0,0,0,0,1,0,0c-1,.07-2.09.08-3.1.09s-2,0-3.1-.09a0,0,0,0,1,0,0H92.85a.56.56,0,0,0-.51.32l-.23.45a.55.55,0,0,0,0,.53l.25.5a.57.57,0,0,1,0,.54l-.25.5a.55.55,0,0,0,0,.53l.25.5a.57.57,0,0,1,0,.54l-.25.5a.55.55,0,0,0,0,.53l.25.5a.57.57,0,0,1,0,.54l-.25.5a.57.57,0,0,0,0,.54l.25.49a.57.57,0,0,1,0,.54l-.25.5a.55.55,0,0,0,0,.53l.25.5a.57.57,0,0,1,0,.54l-.25.5a.55.55,0,0,0,0,.53l.25.5a.57.57,0,0,1,0,.54l-.25.5a.55.55,0,0,0,0,.53l.25.5a.57.57,0,0,1,0,.54l-.25.49a.57.57,0,0,0,0,.54l.23.45a.56.56,0,0,0,.51.32h3.37a0,0,0,0,1,0,0c1-.06,1.93-.08,3.1-.09s2.15,0,3.1.09a0,0,0,0,1,0,0h3.37a.58.58,0,0,0,.52-.32l.23-.45a.57.57,0,0,0,0-.54l-.25-.49a.57.57,0,0,1,0-.54l.25-.5a.55.55,0,0,0,0-.53l-.25-.5a.57.57,0,0,1,0-.54l.25-.5a.55.55,0,0,0,0-.53l-.25-.5a.57.57,0,0,1,0-.54l.25-.5a.55.55,0,0,0,0-.53l-.25-.5a.57.57,0,0,1,0-.54l.25-.49a.57.57,0,0,0,0-.54l-.25-.5a.57.57,0,0,1,0-.54l.25-.5a.55.55,0,0,0,0-.53l-.25-.5a.57.57,0,0,1,0-.54Zm-3.44-2a.15.15,0,0,1,.19-.08,4,4,0,0,1,1.12.69,3.83,3.83,0,0,1,1.21,1.82,2.77,2.77,0,0,1-.22,2.13l0,.07h0l-.07,0a4.78,4.78,0,0,1-2-1.73,3,3,0,0,1-.44-1.49A3.11,3.11,0,0,1,103.16,36Zm-6.65,1.1a3.05,3.05,0,0,0,1.27-1,2.6,2.6,0,0,0,.42-1.18,0,0,0,0,1,0,0l0,0a2,2,0,0,1-1,2,1.89,1.89,0,0,1-.73.26h0a0,0,0,0,1,0,0A0,0,0,0,1,96.51,37.05ZM93,36.62a1,1,0,1,1,1.14,1.14A1,1,0,0,1,93,36.62ZM92.71,41h-.12a0,0,0,0,1,0,0l0,0a3.12,3.12,0,0,0,1.76-1.2h0v0a.14.14,0,0,1,.1-.08h.12a2.23,2.23,0,0,0,1.32.65,1.41,1.41,0,0,0,1.58-1.11,1.53,1.53,0,0,0-1-1.74s0,0,0,0l0,0a1.81,1.81,0,0,1,.46.17.28.28,0,0,0,.37-.1,1.74,1.74,0,0,1,.2-.3,3.21,3.21,0,0,1,.26-.3,3.72,3.72,0,0,1,1.66-.61,5.35,5.35,0,0,1,2.61.3h0v0a4.09,4.09,0,0,1-2.94,2l-.57,0a3.81,3.81,0,0,1-.59,0h-.08a.11.11,0,0,0-.13.13,1.6,1.6,0,0,1-.33,1.29,1.66,1.66,0,0,1-1.26.55.86.86,0,0,1-.23,0h-.05v0a3.53,3.53,0,0,1,1,.56,4,4,0,0,1,1.38,2.85h0a.44.44,0,0,1,0,.1,0,0,0,0,1,0,0H98.1a4.3,4.3,0,0,1-3.31-1.58,4.11,4.11,0,0,1-.64-1.06v0a1.21,1.21,0,0,1-.05-.18c0-.1-.06-.2-.08-.3a.57.57,0,0,1,0-.14.15.15,0,0,0-.24-.1A1.84,1.84,0,0,1,92.71,41Zm9.46-.92a.8.8,0,0,1-1.59,0V40a.8.8,0,1,1,1.59.07Zm-8.32,5.42a.74.74,0,0,1-.64-.64.74.74,0,0,1,1.47-.2A.75.75,0,0,1,93.85,45.49Zm2,2.69a3,3,0,0,1-1.38.81l-.28.06a.12.12,0,0,1-.14-.12s0,0,0-.07a3.56,3.56,0,0,1,.15-1.19,3.17,3.17,0,0,1,2.47-2.07h0l.1,0h0s0,0,0,0v.1A3.3,3.3,0,0,1,95.86,48.18Zm6.3-5.24a2.33,2.33,0,0,0-.3,2,3.07,3.07,0,0,0,.37.75.1.1,0,0,1,0,.14.26.26,0,0,1-.17,0h-.21a1.56,1.56,0,0,0-1.66,1.61,1.28,1.28,0,0,0,.45.93,2,2,0,0,0,1.53.45h0s.06,0,.07,0a.13.13,0,0,1,0,.08v.09a.25.25,0,0,0,0,.08h0v0a.09.09,0,0,0,0,.05h0a5.6,5.6,0,0,0,.44,1.62s0,0,0,0h0a1.48,1.48,0,0,1-.26-.3.2.2,0,0,0-.23-.09c-.14,0-.31.09-.51.13a6.06,6.06,0,0,1-5.07-.85v0a0,0,0,0,1,0,0,4.59,4.59,0,0,1,2.43-1,9.45,9.45,0,0,1,1.31-.07.07.07,0,0,0,0-.12,1.44,1.44,0,0,1-.22-.26,1.66,1.66,0,0,1,.38-2.09l0,0a.09.09,0,0,0,0-.15l-.25-.13a2.63,2.63,0,0,1-1.14-2.6l0,0a3,3,0,0,1,2.21.82h0a.06.06,0,0,0,.1,0,2.28,2.28,0,0,1,.4-1.18,1.23,1.23,0,0,1,1.2-.46,1.71,1.71,0,0,1,1.1.69,2.58,2.58,0,0,1,.46,1.24,0,0,0,0,1,0,0s0,0,0,0a2,2,0,0,0-1.54-1.72A1,1,0,0,0,102.16,42.94Zm2.35,5.23a1.09,1.09,0,1,1,1.2-1.19A1.09,1.09,0,0,1,104.51,48.17Zm.34,2.88h0s0,0,0,0a3.56,3.56,0,0,0,.56-.7,3.61,3.61,0,0,0,.32-.84l0,0,0,0A1.49,1.49,0,0,1,104.85,51.05Zm1.65-1.17a0,0,0,0,1,0,0l0,0a.37.37,0,0,1-.15,0,.36.36,0,0,1-.2-.06.32.32,0,0,1-.18-.3,0,0,0,0,1,0,0h0A2.45,2.45,0,0,1,106.5,49.88Zm-.15-6.18,0,0,0,0a2.12,2.12,0,0,0-1.42.77h0a0,0,0,0,1,0,0,1.14,1.14,0,0,1,.57-.71A1.17,1.17,0,0,1,106.35,43.7Z"/><path class="cls-12" d="M94.26,48.64a10.19,10.19,0,0,1,.83-1.23,11.65,11.65,0,0,1,1-1.09A3.89,3.89,0,0,0,94.26,48.64Z"/><path class="cls-12" d="M94.26,48.67h0s0,0,0,0a3.93,3.93,0,0,1,1.87-2.34h0a0,0,0,0,1,0,0,11.91,11.91,0,0,0-1,1.09,11.1,11.1,0,0,0-.83,1.23S94.27,48.67,94.26,48.67Zm1.65-2.2a3.92,3.92,0,0,0-1.55,2,10,10,0,0,1,.71-1A9.27,9.27,0,0,1,95.91,46.47Z"/><path class="cls-12" d="M99.78,49.48a9.36,9.36,0,0,0-2,.28c.66,0,1.32-.09,2-.1s1.32,0,2,0A8.77,8.77,0,0,0,99.78,49.48Z"/><path class="cls-12" d="M97.8,49.78l0,0s0,0,0,0a9.28,9.28,0,0,1,4-.13s0,0,0,0,0,0,0,0h-.65c-.44,0-.89,0-1.33,0l-1.35.06Zm2-.27a9.1,9.1,0,0,0-1.67.2l.31,0,1.36-.06c.44,0,.89,0,1.33,0h.34A8.86,8.86,0,0,0,99.78,49.51Z"/><path class="cls-12" d="M95,40.77c.43.46.87.9,1.28,1.37s.81,1,1.21,1.43A7.89,7.89,0,0,0,96.45,42,7.35,7.35,0,0,0,95,40.77Z"/><path class="cls-12" d="M97.53,43.6h0l-.36-.43c-.28-.33-.56-.67-.85-1s-.6-.65-.9-1l-.38-.4a0,0,0,0,1,0,0h0A7.74,7.74,0,0,1,96.47,42a7.48,7.48,0,0,1,1.09,1.55s0,0,0,0ZM95.27,41l.18.19c.29.32.6.64.89,1s.58.66.85,1l.18.21a8.51,8.51,0,0,0-.94-1.28A8.28,8.28,0,0,0,95.27,41Z"/><path class="cls-12" d="M99.76,43.72c.25.27.63.61.9.88s.64.62.92.86A4.9,4.9,0,0,0,99.76,43.72Z"/><path class="cls-12" d="M101.58,45.49h0l-.65-.61c-.09-.1-.19-.18-.27-.26l-.28-.27c-.21-.2-.45-.43-.62-.61a0,0,0,0,1,0,0h0a4.88,4.88,0,0,1,1.82,1.76,0,0,0,0,1,0,0Zm-1.65-1.64.48.46.27.26.27.27.49.46A4.75,4.75,0,0,0,99.93,43.85Z"/><path class="cls-12" d="M101.25,36.8a8.89,8.89,0,0,0-1.86.28,8.36,8.36,0,0,0-1.77.66c.59-.16,1.21-.34,1.81-.49S100.65,37,101.25,36.8Z"/><path class="cls-12" d="M97.62,37.77s0,0,0,0,0,0,0,0a9.66,9.66,0,0,1,3.65-.94,0,0,0,0,1,0,0s0,0,0,0l-.85.21-1,.24-1,.27-.82.22Zm3.34-.92a9,9,0,0,0-1.57.26,8.06,8.06,0,0,0-1.49.53l.53-.15,1-.26,1-.25Z"/><path class="cls-12" d="M103.56,36.52c.32.55.64,1.11.91,1.69a18.39,18.39,0,0,1,.72,1.78A6.74,6.74,0,0,0,103.56,36.52Z"/><path class="cls-12" d="M105.19,40l0,0c-.23-.6-.45-1.2-.73-1.78s-.6-1.16-.9-1.69c0,0,0,0,0,0h0A6.76,6.76,0,0,1,105.22,40s0,0,0,0Zm-1.45-3.24a16,16,0,0,1,.76,1.42c.23.48.42,1,.61,1.48A6.59,6.59,0,0,0,103.74,36.78Z"/><path class="cls-12" d="M33.13,29.49C30.28,31.7,30.69,32.73,30,34c-1.17,2.34-3.32-2.55-5.35-.76A175.83,175.83,0,0,1,8.9,44.49,41.77,41.77,0,0,1,20,40.86c1.77-.32-.3,2,1.48,1.89s3.26-.29,2.62.55-2.19,4-4.15,6C18.49,50.79,12.76,54.18,7.47,57c2.29-1.2,12.79-6.4,1.65,5.51.11-.1,6.09-6.06,8.29-8.46,3-3.23,9.21-6.74,11.1-7.16s-.22,3.76,2.4,4.32,1.71,1.3,2.93,4.89S34.1,63.56,34,66s.85-7.68,2.38-13.25C39.78,40.32,36,39.43,36,37.41c0-2.29,2.16-1.22-.7-6.91a5.17,5.17,0,0,1-.52-2.43A11.19,11.19,0,0,1,33.13,29.49ZM27,45.06c-.15.22,0-.81-.4-1s-.69.1-1.05.18C26.54,43.07,27.55,43.81,27,45.06Zm.94-.73c-.15.25,0-.86-.36-1-.46-.45-.9.05-1.3.13C27.44,42,28.57,42.88,28,44.33Zm.83-.68c-.07-1.56-.6-1.95-2-1.23C28.28,40.68,29.59,41.85,28.8,43.65Zm4.87-3.36c.07,0,.08.12.09.2a3.58,3.58,0,0,1,0,.4,12.85,12.85,0,0,1-.27,1.27c-.07.24-.15.48-.22.7s-.13.37-.19.52a3,3,0,0,1-.18.36c0,.07-.11.15-.18.13s-.09-.12-.09-.2a1.6,1.6,0,0,1,0-.41A10.53,10.53,0,0,1,32.89,42a11.49,11.49,0,0,1,.41-1.22C33.5,40.31,33.6,40.27,33.67,40.29Zm.54,4.63c-.1.28-.17.32-.23.31s-.18-.1-.21-.76a12.94,12.94,0,0,1,.06-1.69,14,14,0,0,1,.25-1.67,3.28,3.28,0,0,1,.15-.51c0-.09.1-.21.19-.2s.18.09.21.76a15,15,0,0,1-.06,1.69,14,14,0,0,1-.25,1.67C34.28,44.69,34.24,44.82,34.21,44.92Zm1.24-4.32a1.77,1.77,0,0,1,.11.38,9.38,9.38,0,0,1,.18,1.28,9.92,9.92,0,0,1,0,1.29,2,2,0,0,1-.05.41.25.25,0,0,1,0,.07c0,.06-.05.11-.1.11s-.12-.08-.16-.16-.07-.22-.11-.39a11.26,11.26,0,0,1-.18-1.28,12,12,0,0,1,0-1.29,2.87,2.87,0,0,1,.05-.4c0-.09,0-.18.12-.18s.13.07.16.15Zm-4.23-3.08c.1.44-.17.85-.56,1.28,2.17-1,2.05,2-.1.84,1.67,1.74-1.26,2.55-.83.17-1.15,2.12-2.8-.42-.42-.74-2.37-.44-.46-2.79.58-.62-.18-1.74,1-1.6,1.34-.93ZM24.57,38.9c-.05,0-.07-.15.19-.58a11.25,11.25,0,0,1,1.63-2,2.65,2.65,0,0,1,.31-.26c.07,0,.16-.09.22,0s0,.11,0,.18,0,0,0,0a3.34,3.34,0,0,1-.19.36,10.59,10.59,0,0,1-.76,1,9.77,9.77,0,0,1-.87,1,2.41,2.41,0,0,1-.31.25C24.72,38.9,24.63,38.94,24.57,38.9Zm1.75-3.52a.14.14,0,0,1,0,.14.54.54,0,0,1-.07.13,3.62,3.62,0,0,1-.33.42,13.89,13.89,0,0,1-1.21,1.17,14.26,14.26,0,0,1-1.34,1,4.22,4.22,0,0,1-.46.26c-.1,0-.22.08-.28,0s0-.19.05-.27a3.62,3.62,0,0,1,.33-.42,11.7,11.7,0,0,1,1.22-1.17,13.07,13.07,0,0,1,1.34-1,2.92,2.92,0,0,1,.46-.26C26.13,35.35,26.26,35.31,26.32,35.38Zm-.47-.6a.08.08,0,0,1,0,.08.34.34,0,0,1-.09.12,2.14,2.14,0,0,1-.3.28A10.9,10.9,0,0,1,24.4,36a11.57,11.57,0,0,1-1.14.59,2.35,2.35,0,0,1-.38.14c-.09,0-.19,0-.23,0s0-.15.08-.21a2.92,2.92,0,0,1,.3-.28,12.26,12.26,0,0,1,1.07-.72,10.6,10.6,0,0,1,1.15-.59,1.71,1.71,0,0,1,.38-.13C25.71,34.73,25.81,34.71,25.85,34.78Zm8-2.15a.69.69,0,0,1-.38.44.76.76,0,0,1-.59,0,.69.69,0,0,1-.44-.38.72.72,0,0,1,0-.59.74.74,0,0,1,.39-.44.69.69,0,0,1,.58,0,.74.74,0,0,1,.44.39A.72.72,0,0,1,33.89,32.63Z"/><g class="cls-13"><g class="cls-14"><g class="cls-14"><path class="cls-7" d="M58.85,22.78a.39.39,0,0,1,0,.15c1.75-.53.75-1.59-.13-.51C58.68,22.63,58.72,22.55,58.85,22.78Z"/></g></g></g><g class="cls-15"><g class="cls-14"><g class="cls-14"><path class="cls-7" d="M58.86,23c-.07.06,0,.18-.32.26,1.05,1.52,1.73.23.43-.27Z"/></g></g></g><g class="cls-16"><g class="cls-14"><g class="cls-14"><path class="cls-7" d="M58.49,23.23a.38.38,0,0,1-.31-.27c-1.16,1.5.27,1.81.36.39Z"/></g></g></g><g class="cls-17"><g class="cls-14"><g class="cls-14"><path class="cls-7" d="M58.18,22.92s-.07-.11.14-.32c-1.82-.66-1.66.81-.28.46Z"/></g></g></g><g class="cls-18"><g class="cls-14"><g class="cls-14"><path class="cls-7" d="M58.34,22.59a.35.35,0,0,1,.34,0c.06-1.88-1.29-1.28-.52-.09Z"/></g></g></g><path class="cls-12" d="M65.5,18.05c-3,0-3.27.88-4.38,1.41-2,.95-.89-3.4-3.15-3.25a146.13,146.13,0,0,1-16.22-.68A35.38,35.38,0,0,1,51,18.83c1.34.69-1.22,1.15,0,2s2.31,1.49,1.45,1.71a36,36,0,0,1-5.82,1.84c-1.73.24-7.27-.46-12.24-1.29,2.14.38,11.76,2.33-1.73,4.5.12,0,7.14-.89,9.83-1.35,3.63-.61,9.57.27,11,1s-2.07,2.37-.62,4.08.46,1.74-.57,4.75-3.66,5.06-5,6.63,4.51-4.65,8.39-7.56c8.64-6.49,6.61-9,7.65-10.34,1.18-1.51,2.06.3,3.09-4.94A4.09,4.09,0,0,1,67.36,18,9.81,9.81,0,0,1,65.5,18.05Zm-12,7.18c-.21.07.42-.54.23-.84s-.51-.28-.79-.42C54.17,23.66,54.45,24.67,53.46,25.23Zm1,0c-.24.09.44-.57.29-.88-.08-.54-.62-.44-.93-.58C55.3,23.42,55.61,24.58,54.47,25.23Zm.9,0c.75-1.07.6-1.6-.69-1.83C56.55,23,56.81,24.41,55.37,25.2Zm5,.27c0,.05,0,.12,0,.18a2,2,0,0,1-.22.26,9.77,9.77,0,0,1-.83.69c-.18.13-.34.26-.51.36s-.27.18-.39.25a1.52,1.52,0,0,1-.31.14c-.07,0-.15,0-.19,0s0-.13,0-.19l.23-.25c.21-.2.5-.45.82-.7a10,10,0,0,1,.9-.6C60.2,25.41,60.28,25.43,60.32,25.47Zm-2,3.35c-.21.14-.28.12-.32.09s-.07-.16.26-.61a11.62,11.62,0,0,1,.9-1.09,11.09,11.09,0,0,1,1-1,3,3,0,0,1,.36-.26c.07,0,.18-.09.23,0s.06.16-.25.61a12.18,12.18,0,0,1-.92,1.09,10,10,0,0,1-1,1Zm3-2.22a2.11,2.11,0,0,1-.13.31,8.07,8.07,0,0,1-.53.94,8.24,8.24,0,0,1-.64.87,2,2,0,0,1-.24.25l0,0a.13.13,0,0,1-.13,0s0-.12,0-.19.07-.19.13-.32a8.31,8.31,0,0,1,.54-.94,10.06,10.06,0,0,1,.63-.87,2.65,2.65,0,0,1,.24-.24c.06,0,.13-.1.18-.06S61.36,26.53,61.34,26.6Zm-1.22-4.21c-.16.33-.55.47-1,.55,2,.43.35,2.36-.49.51.21,2-2.14,1-.63-.32-1.86.82-1.65-1.71.1-.7-1.35-1.51,1.12-2.09.7-.11C59.54,21.07,60.25,21.78,60.12,22.39ZM55,19.88c0-.06,0-.13.42-.29a8.5,8.5,0,0,1,1-.3,7.57,7.57,0,0,1,1.06-.18,1.35,1.35,0,0,1,.34,0c.07,0,.16,0,.17.08s0,.09-.08.13l0,0-.3.14a9.06,9.06,0,0,1-1,.3,7.68,7.68,0,0,1-1.07.18,1.28,1.28,0,0,1-.33,0C55.1,20,55,19.94,55,19.88Zm3-1.44a.12.12,0,0,1-.07.1l-.11.06-.43.11a11.53,11.53,0,0,1-1.41.15,13.12,13.12,0,0,1-1.42,0,2.22,2.22,0,0,1-.44-.06c-.08,0-.19-.06-.19-.14s.1-.12.18-.15a3.26,3.26,0,0,1,.43-.11,11.75,11.75,0,0,1,1.41-.15,9.4,9.4,0,0,1,1.42,0,2.22,2.22,0,0,1,.44.06C57.86,18.33,58,18.37,58,18.44Zm0-.63s0,0,0,.06l-.12,0-.34,0a9.21,9.21,0,0,1-1.08-.07,7.46,7.46,0,0,1-1.06-.2,2.06,2.06,0,0,1-.32-.1c-.07,0-.14-.08-.13-.14s.09-.08.16-.1l.33,0a9.23,9.23,0,0,1,1.09.07,7.75,7.75,0,0,1,1.06.2,2.06,2.06,0,0,1,.32.1C57.9,17.7,58,17.75,58,17.81Zm6.44,2.7a.64.64,0,0,1-.9-.18.59.59,0,0,1-.09-.48.63.63,0,0,1,.76-.5.57.57,0,0,1,.4.27.63.63,0,0,1,.1.48A.65.65,0,0,1,64.41,20.51Z"/><path class="cls-12" d="M31.8,132.58a3.75,3.75,0,0,1-1.24.6c-.77.21-.74-.25-.53-.75h0a7.36,7.36,0,0,1,.57-1l0-.05.66-1.08-.24,1.18.72-.94L31.67,132l.71-1.29-.12,1.18.82-1.18-.15.82c-.23.24-.46.47-.69.68Zm-2.54-.15h-.05c-.8,1-1.79,2.41-1.2,2.54a4.22,4.22,0,0,0,4.4-2.77h0a.08.08,0,0,0,0,0,43.45,43.45,0,0,0,7.86-1.58l.08.53.56,3.49,0,.11,0-.06h0l0,.51.08.92s-.24,2.17,1,1.62c.84-.38,1-1.74,1-2.55v-.06l1.11-6h0v-.06c4.17-2,7.31-5.21,7.78-10.12.76-7.83-.32-12.6-2.2-15.3,4-1.42,3-4.15,1.59-6.25,4.26,1.74,10.31,4.76,11,8,1.14,5.11,0,15.24-5.09,18.66s1.12,8.48,1.12,8.48-.56-7.34,6.22-10.73,10.66-18.06-2.25-22.62a67.41,67.41,0,0,0-12.16-3.37,3.56,3.56,0,0,1-.75-1.18c0-1-2.69-5.66-1.73-6.62s.52-5.17.52-5.17a10,10,0,0,1-5.41,2.44c-.81-.08-1.59-.14-2.34-.17,1.66-.78,6-2.71,7.74-2.29,0,0-6.42-2.73-8.27,2.27a29.4,29.4,0,0,0-7.42.59l.07,0a8,8,0,0,0,4.24-3.09c1.29-2.22-4.82,1.94-4.91,2s1.91-1.55,1.18-3.34-3.11,3-3.11,3a7.57,7.57,0,0,0-.67-3c-.77-2.18-1.71,4-1.71,4A10.49,10.49,0,0,0,25.39,83c-1.43-1,.32,3.19.32,3.19A5.61,5.61,0,0,0,22,88.27c-1.31,1.45,1.85.8,3.9.27a21.94,21.94,0,0,0-2.51,1.95c-1.28-.22-5.68-.74-7.42,2a8.75,8.75,0,0,0,5.86-.57c-.33.3-.66.58-1,.81-3.2,2.45-4.89-.24-4.89-.24.48,5.9,4.89,6.11,4.89,6.11a3.77,3.77,0,0,0-.61,2.81,10.68,10.68,0,0,1-4.73,5.74C9.83,110,.79,120.69,8.13,125.23s1.11,6.23,1.11,6.23,9-1.12,6.79-6.79-1.73-10.18,1.7-13.57c1.61-1.6,2.83-4.88,3.57-8.11a5.66,5.66,0,0,0,2,1c-1.48,3.69-1.45,7.11,1.49,8.6a2.4,2.4,0,0,0,.94.26v.22c0,.74-.39,5.53,4.4,11,3.76,4.32-2.76,7.19-7.52,8a2.88,2.88,0,0,0,.06-.59,2,2,0,0,0-.09-.59,2.38,2.38,0,0,0-.23-.55A2.35,2.35,0,0,0,22,130a2.28,2.28,0,0,0-.46-.36,3,3,0,0,0-.55-.24,2.36,2.36,0,0,0-1.18,0,2.38,2.38,0,0,0-.56.21,2.34,2.34,0,0,0-.49.33,2.27,2.27,0,0,0-.76,1.58,2.92,2.92,0,0,0,0,.59,1.93,1.93,0,0,0,.18.56,2.08,2.08,0,0,0,.32.51,2.78,2.78,0,0,0,.43.41,3,3,0,0,0,.53.28,2.16,2.16,0,0,0,.57.14,2.41,2.41,0,0,0,.6,0,1.92,1.92,0,0,0,.57-.15,2.51,2.51,0,0,0,.51-.29,2.14,2.14,0,0,0,.43-.42,1.88,1.88,0,0,0,.31-.51c1.7,0,3.9,0,6.35-.09l.43,0m6.92-40.75c.95-1.14,1.13-3,3.2-3.21,0,0,.22-1.11,2.28-.56,0,0,.4-1,3.39.94a3.68,3.68,0,0,0-3.39.36s3.41-.72,5.28,1.15c0,0-2.28-.58-2.65.18s1.69-1.12,3,1.33c0,0-4-2.43-7-.38a12.12,12.12,0,0,0-4.16,4.91S35.17,92.83,36.13,91.69Zm6.66,0A3.28,3.28,0,0,1,44,95.3c-.82,2.17-3.74,2.3-5.69-.9a2.94,2.94,0,0,0,3.71.82c2.25-1.14.79-3.56.79-3.56Zm.77,5.9C46.39,96.47,44.68,92,44.68,92c1.54,1.56,1.62,4.84,0,6a4.64,4.64,0,0,1-5,.29c-1.53-.76-2-3.4-2-3.4a4.72,4.72,0,0,0,5.9,2.62Zm-8.55-9a.49.49,0,0,1,.34.14.48.48,0,0,1,.14.34.48.48,0,0,1-.48.47.4.4,0,0,1-.33-.14.42.42,0,0,1-.14-.33.48.48,0,0,1,.47-.48Zm-7.11.93a4.76,4.76,0,0,1,4.72-2.3s1.52.25,1.27.9-2.24-.35-2.3-.38,1.52,1,1.27,1.9-2.14-1.49-2.16-1.52a5.78,5.78,0,0,1,.51,2.67c-.24.87-1.37-2.07-1.41-2.16,0,.07.26,1.55-.25,2S28.92,89,28.92,89a4.42,4.42,0,0,1-1,1.78C27.27,91.26,27.9,89.49,27.9,89.49Zm6.16,1.64a.48.48,0,0,1-.14.34.49.49,0,0,1-.34.14.48.48,0,0,1-.48-.48.49.49,0,0,1,.14-.34.47.47,0,0,1,.34-.13.48.48,0,0,1,.34.13A.49.49,0,0,1,34.06,91.13Zm-1.59,1.22a.46.46,0,0,1-.14.34.49.49,0,0,1-.34.14.48.48,0,0,1-.34-.14.46.46,0,0,1-.14-.34.45.45,0,0,1,.14-.33.44.44,0,0,1,.34-.14.48.48,0,0,1,.48.47Zm-2.26.26a.48.48,0,0,1-.48.48A.42.42,0,0,1,29.4,93a.42.42,0,0,1-.14-.34.43.43,0,0,1,.14-.33.45.45,0,0,1,.33-.14.46.46,0,0,1,.34.14A.43.43,0,0,1,30.21,92.61Zm-2.65-.55a.48.48,0,0,1,.48.48.48.48,0,0,1-.48.47.4.4,0,0,1-.33-.14.42.42,0,0,1-.14-.33.45.45,0,0,1,.14-.34A.44.44,0,0,1,27.56,92.06Zm-3.13,11.88c-1.36-.54-2.11-2.36-2-4,0-.41,0-.68,0-.68s0,.24,0,.36A3.82,3.82,0,0,1,23,98.11c-.37-.56.92-1.33.92-1.33a2.09,2.09,0,0,0-1.8,1,13.58,13.58,0,0,0,0-2,5.32,5.32,0,0,1,2-1.41,2.51,2.51,0,0,0-2.25.39c1.7-2.25,3.39-1.32,3.39-1.32,3.4-.38,4.32,1.69,4.32,1.69,3.19,1.33,2.1,3.77,2.1,3.77-2.88-2.89-5.35-2.31-6.91-1.55h0c-.07.25-.69,2.72,1.65,3.24l.11,0,.11,0C29,100,28.2,97.28,28.2,97.28A3.65,3.65,0,0,1,29,99.91a3.21,3.21,0,0,0,.77-1.06,5.71,5.71,0,0,1-1.42,2.47,2.44,2.44,0,0,1-3.71,0,5.56,5.56,0,0,1-1.43-2.46,3.36,3.36,0,0,0,.77,1.06,3.6,3.6,0,0,1,.74-2.6c-1,.48-1.59,1-1.73.8a8.13,8.13,0,0,0,.26,3.09,4.89,4.89,0,0,0,3.24,2,4.88,4.88,0,0,0,3.25-2A8.25,8.25,0,0,0,30,98.11a3.82,3.82,0,0,1,.49,1.47,1.47,1.47,0,0,0,0-.36s0,.27,0,.68c.11,1.68-.64,3.5-2,4a4.58,4.58,0,0,1-2,.32A4.6,4.6,0,0,1,24.43,103.94Zm4.49,8.51c.55-.3,1.13-.68,1.7-1.07a13.72,13.72,0,0,0,2.09,1c.77,2,2.24,3.75,5,3.43l.89-.13c.07.25.16.63.26,1.08a11.07,11.07,0,0,0-2,.56,16.15,16.15,0,0,0,2.19.17l.12.65a11.22,11.22,0,0,0-2.18.59,15.93,15.93,0,0,0,2.29.16c0,.26.06.52.08.78a9.55,9.55,0,0,0-1.94.54,11.84,11.84,0,0,0,2,.14,3.81,3.81,0,0,1-.15,1.2,21.89,21.89,0,0,1-3.3-.75c.13-.24.19-.37.19-.37s0-1.7-3.95-4.51A9.62,9.62,0,0,1,28.92,112.45Zm6.29-3.7c-.28,0-.6,0-.94-.06l.26-.19.51-.38A5.54,5.54,0,0,1,39,106.67c.31,0,.67,0,1.07.07A1.79,1.79,0,0,0,39,107.93c-.34,1.77-.43,2.47-.43,2.47l-1.08.33a1.62,1.62,0,0,0,.79.49l.11.38-.85.21a1,1,0,0,0,1.22.55.85.85,0,0,0,.72-1l-.48.12-.07-.36c.73-.48-.4-1.52.85-2.82a3.51,3.51,0,0,1,2.3-1,4.87,4.87,0,0,1,.28.56,3.76,3.76,0,0,0-2.84,2.41s1.49,1.35,3.35-.39a6.08,6.08,0,0,1,0,1.13c-.19,1.72-1,2.92-3.23,3.55a11.61,11.61,0,0,1-1.84.35,3.71,3.71,0,0,1-3.92-2.18,6.42,6.42,0,0,1-.49-1.14c2.86,1.12,3.65-1,3.65-1a3.72,3.72,0,0,0-3.89-.75l-.18,0,0-.11h0l.74-.56a16,16,0,0,1,2.65.23A2.64,2.64,0,0,0,35.21,108.75ZM35,129.13c-.21.26-.41.52-.63.77a4.43,4.43,0,0,1-2.7-.73l.89-1.75-.33,1,.83-1.29-.35,1.65.7-1.06L33.2,129l.71-.95-.12,1.42.71-1.3-.12,1.18.83-1.18Zm1.29-1.76a5,5,0,0,1-3.11-1.18l.39-.78-.07.23.83-1.3L34,126l.71-1.07-.24,1.18.71-.94-.12,1.41.71-1.29-.12,1.18.83-1.18-.24,1.29.83-1.18-.12.71.21-.14C36.9,126.44,36.61,126.91,36.31,127.37Zm3.63.81v0Zm3.14,6.74c0-.25,0-.42,0-.42a3.26,3.26,0,0,1-.15.44c-.17.41-.48,1-.91,1.13-.21.06-.4-.08-.56-.29v-.07l-.08-.59-.21-1.62.16-.85.2,1.15.18-.86.15.82.21-.79.29.94.12-1,.19.66,0,.13.23-1,.13.64c-.08.83-.13,1.46-.13,1.53h0a3.12,3.12,0,0,0,.15-.43S43.08,134.64,43.08,134.92Zm.34-5.49c-.05.59-.15,1.55-.24,2.49l0,.12-.11.05a2.09,2.09,0,0,1-2.08-.15v-.06l-.19-1.44-.09-.69-.07-.55,0-.2,0-.15.27,1.53h0v.09l0-.1h0l.22-1.1.18,1h0l0,.18,0-.21h0l.23-.88.22.71h0l.18.6.08-.7h0l.08-.72.18.62.15.52.15-.64.18-.76.13.63h0l.13.62.11-.48.06-.27h0v0Zm.1-1.52a5.13,5.13,0,0,1-3,0h0c-.06-.56-.13-1.19-.23-1.8l.16-.81.29,1.66.26-1.25.22,1.19.31-1.14.42,1.36.17-1.47.33,1.13.32-1.4.27,1.29.33-1.4.15.7s.06-.08.14-.21C43.63,126.46,43.58,127.18,43.52,127.91Zm.27-3.74a5.1,5.1,0,0,1-3.88.1l0,0c-.42-1.24-1.06-1.72-2,.18a4.61,4.61,0,0,1-3.29-1.06c.23-.47.45-.9.64-1.28a19,19,0,0,0,8.77.12A18.72,18.72,0,0,0,43.79,124.17ZM46.3,113c-1.4,3.13-1.66,6.56-2.14,8.61a21.56,21.56,0,0,1-4.25-.06c.07-.32.15-.78.23-1.31a2.86,2.86,0,0,0,2.08-.88,13.77,13.77,0,0,0-2,.09c0-.22.05-.46.06-.7a3.09,3.09,0,0,0,2.19-1,16.24,16.24,0,0,0-2.16.09c0-.19,0-.38,0-.57a3,3,0,0,0,2-.92,16.24,16.24,0,0,0-2.1.08,5.93,5.93,0,0,0-.28-1.19,4.61,4.61,0,0,0,3.39-2.71,17.25,17.25,0,0,0,1.4-5.72,3.35,3.35,0,0,0,1.39-.47l0,0h0l0,0A7,7,0,0,1,46.3,113Zm-9.83-8.24a14.6,14.6,0,0,0-2.1,1.29,6.9,6.9,0,0,0-1.13,1.45l-.27-.06a8.34,8.34,0,0,1-1.08,1.19,15.21,15.21,0,0,1-2.46,1.91,9.58,9.58,0,0,1-.89.49,5.14,5.14,0,0,1-.95.35c-1.18.3-1.53-.26-1.63-.77a9.71,9.71,0,0,0-.17,1v.05s0,.06,0,.1v-.1c-1.34-.7-1.06-1.5-.54-2.07-1.41-1.18,1.07-2.46,1.07-2.46-1.26-1,.31-1.62.31-1.62-.22-1,2.19-1.11,2.7-1.57a7.46,7.46,0,0,1,6.54-1.91c1.89-3,5.77-2,6.22-2,2.25-.92,3.07-.47,3.07-.47a2.81,2.81,0,0,1,2.93-.29c2.48-.21,1.21,1.83,1.21,1.83,2.21.52.56,1.46-.11,1.79.19.22.37.45.54.68l-.18.06c.13.42-.48.55-1,.59-.2,0-.41,0-.61,0a1.06,1.06,0,0,1-.38.38c-1.54,1-5.76-.81-7.73-.85a4.15,4.15,0,0,0-.79.07,9.5,9.5,0,0,0-2.31.8Z"/><path class="cls-12" d="M117.35,48.57l-1.56-.07a.87.87,0,0,0,.1-.42,1,1,0,0,0-.84-1,21.68,21.68,0,0,0-3.15-.28V40.09a.2.2,0,0,0-.21-.2.2.2,0,0,0-.2.2V46.8h0a20.59,20.59,0,0,0-3.16.27,1,1,0,0,0-.84,1,1,1,0,0,0,.1.43c-.52,0-1,0-1.55.06A3.26,3.26,0,0,0,103,51.82V66.08A3.26,3.26,0,0,0,106,69.33l1.55.07a1,1,0,0,0-.1.43,1,1,0,0,0,.24.64,1,1,0,0,0,.6.35,20.77,20.77,0,0,0,3.38.28,20.35,20.35,0,0,0,3.34-.28,1,1,0,0,0,.84-1,.88.88,0,0,0-.1-.43l1.56-.07a3.25,3.25,0,0,0,3.08-3.25V51.82A3.25,3.25,0,0,0,117.35,48.57Zm-9.11-.09a.1.1,0,0,1,.08-.11h6.58c.06,0,.1,0,.1.09h0v0a.1.1,0,0,1-.1.08h-6.58A.1.1,0,0,1,108.24,48.48ZM115,69.41h0a.1.1,0,0,1-.1.1h-6.58a.12.12,0,0,1-.11-.09.11.11,0,0,1,.11-.12h6.58a.09.09,0,0,1,.1.07Zm-3.31-4.1A6.36,6.36,0,1,1,118.06,59,6.36,6.36,0,0,1,111.69,65.31Z"/><path class="cls-12" d="M111.69,53a6,6,0,1,0,6,6A6,6,0,0,0,111.69,53Zm0,11.73A5.73,5.73,0,1,1,117.42,59,5.73,5.73,0,0,1,111.69,64.68Z"/><path class="cls-12" d="M111.48,71h.42v1.59h-.42Z"/><path class="cls-12" d="M112.77,80c-.12-1.23,0-3-.36-3.68a1.22,1.22,0,0,0-.32-.4.83.83,0,0,0,.45-.74.85.85,0,0,0-.35-.68,1.1,1.1,0,0,0,.61-1,1.11,1.11,0,1,0-2.21,0,1.09,1.09,0,0,0,.6,1,.87.87,0,0,0-.34.68.83.83,0,0,0,.46.75,1.5,1.5,0,0,0-.32.49,4.5,4.5,0,0,0-.32,1.95c0,.76-.07,1.14-.1,1.39a7.89,7.89,0,0,1-.32,1.6.42.42,0,0,0,.29.51,3.78,3.78,0,0,0,.64.14,4.18,4.18,0,0,0,1.56-.11.42.42,0,0,0,.29-.51A7.68,7.68,0,0,1,112.77,80Zm-1.48-5.45-.06,0a1.32,1.32,0,0,0,.94,0l-.09.06A.8.8,0,0,1,111.29,74.5Zm0,4.36a5.75,5.75,0,0,1-.48,2.09,9.23,9.23,0,0,0,.35-2.09,19.09,19.09,0,0,1,.17-2.14C111.39,77.44,111.36,78.15,111.34,78.86Zm.48-1.47c0,1.11,0,2.2.07,3.31A8.21,8.21,0,0,1,111.82,77.39Zm-.41-1.47,0,0a1.31,1.31,0,0,0,.68,0l0,0A.54.54,0,0,1,111.41,75.92Zm.85,1.35a13.65,13.65,0,0,0,.33,3.71A6.62,6.62,0,0,1,112.26,77.27Z"/><path class="cls-12" d="M109.52,60.8c0,.39,0,.79,0,1.19s0,.81.08,1.21a.25.25,0,0,1-.33.27.54.54,0,0,1-.41-.74,8.39,8.39,0,0,0,.14-2l0-.07a1.89,1.89,0,0,1-.76,1,6.84,6.84,0,0,1-.81.41.77.77,0,0,1-.68,0,.81.81,0,0,1-.32-.34c-.13-.27-.22-.56-.34-.84,0-.09,0-.13.06-.19a.6.6,0,0,1,.26-.14.48.48,0,0,1,.21,0c.24,0,.47.08.61.11a.58.58,0,0,0,.67,0,.8.8,0,0,0,.36-.83.77.77,0,0,0-.08-.28.39.39,0,0,0-.41-.08,3.09,3.09,0,0,1-1.35-.07.24.24,0,0,1-.14-.14,2,2,0,0,1,0-1.21.26.26,0,0,1,.34-.22,15.5,15.5,0,0,0,2.55.1H111c.12,0,.18.06.21.19a1.07,1.07,0,0,1-.51,1.21,1.17,1.17,0,0,1-.26,0H110c-.27,0-.42.3-.42.53,0,0,.08.11.13.11.24,0,.48,0,.72,0s.38.09.37.4c0,.14,0,.27,0,.41s-.09.32-.3.29a7.45,7.45,0,0,1-.82-.17l-.14,0Z"/><path class="cls-12" d="M113,59.63c.69-.05,1.38-.08,2.05-.15a5.29,5.29,0,0,0,.79-.17.55.55,0,0,1,.7.56c0,.44,0,.88,0,1.31a4.7,4.7,0,0,1-.18,1.06.83.83,0,0,1-.81.57c-.56,0-1.1.16-1.66.17a17.27,17.27,0,0,1-1.76-.08,2.18,2.18,0,0,1-.23-.09,2.43,2.43,0,0,0-.38-.13.35.35,0,0,1-.33-.39,5,5,0,0,1,.06-.54c0-.32.07-.64.09-1s0-.65,0-1c0-.13,0-.23.2-.23l.5,0A5.6,5.6,0,0,0,113,59.63ZM112.81,61a2.64,2.64,0,0,0,.29,0c.13,0,.31.07.38-.11a1.7,1.7,0,0,0,.06-.46.2.2,0,0,0-.21-.23,6.45,6.45,0,0,0-.76,0c-.06,0-.14.08-.17.15-.18.43,0,.66.42.66Zm1.65-.82c-.43,0-.5,0-.46.51,0,.17.1.26.25.26s.28,0,.42,0,.17-.08.19-.2C114.92,60.29,114.85,60.08,114.46,60.14ZM113,62.06a1.59,1.59,0,0,0,.34,0,.29.29,0,0,0,.2-.36c0-.17-.15-.09-.24-.09l-.66,0c-.13,0-.16.09-.18.2s0,.17.11.19l.43.07Zm1.82-.3c0-.09-.06-.24-.1-.24a3.53,3.53,0,0,0-.56,0s0,0,0,.08a1.86,1.86,0,0,0,0,.34c0,.1,0,.14.14.13a2.85,2.85,0,0,1,.29,0C114.72,62.07,114.76,62,114.79,61.76Z"/><path class="cls-12" d="M113.11,59.18h-.91a.43.43,0,0,1-.4-.22,1,1,0,0,1-.16-.72,4.11,4.11,0,0,0,0-.7c0-.16,0-.32,0-.47a.36.36,0,0,1,.34-.39c1,0,2-.1,3-.12a2,2,0,0,1,1,.25.4.4,0,0,1,.23.43,5.15,5.15,0,0,1-.28,1.35.71.71,0,0,1-.22.33.87.87,0,0,1-.5.18C114.77,59.13,114.05,59.16,113.11,59.18Zm.17-.68c.73,0,.75,0,.86-.48a.08.08,0,0,0,0,0c.06-.12,0-.21-.18-.25a5.27,5.27,0,0,0-.81-.15c-.55,0-.63,0-.62.37V58C112.53,58.49,112.54,58.49,113.28,58.5Z"/><path class="cls-12" d="M108.93,57.14a4.32,4.32,0,0,1-1.67-.28.54.54,0,0,1-.37-.67,3,3,0,0,1,.68-1.37.29.29,0,0,1,.39-.08,4,4,0,0,0,.54.28c.43.16.86.3,1.3.44a1.22,1.22,0,0,0,.27,0h.14c.44,0,.57.21.43.62a1.49,1.49,0,0,1-1.38,1.07h-.33Z"/><path class="cls-12" d="M113.1,56.07c-.52,0-1,0-1.57.06-.26,0-.35-.09-.33-.37,0-.11,0-.23,0-.34s.21-.3.38-.19a2,2,0,0,0,1,.22h3.27a1.82,1.82,0,0,1,.33,0,1.34,1.34,0,0,1,.24.12,1.33,1.33,0,0,1-.14.19,1.17,1.17,0,0,1-.31.2,1.23,1.23,0,0,1-.44.07l-2.5,0Z"/><path class="cls-3" d="M29.44,130.38a3.66,3.66,0,0,1-1.24.6c-.77.21-.74-.24-.53-.75h0a7.36,7.36,0,0,1,.57-1l0-.05.67-1.08-.24,1.18.71-.95-.12,1.43.71-1.31-.12,1.19.83-1.19-.15.83c-.24.24-.47.47-.7.68Zm-2.54-.14h0c-.81,1-1.79,2.42-1.21,2.55a4.21,4.21,0,0,0,4.4-2.78h0a.08.08,0,0,0,0-.05A43.73,43.73,0,0,0,38,128.37l.09.53.55,3.5v.11a.32.32,0,0,1,0-.07h0l0,.51.09.92s-.24,2.18,1,1.62c.84-.38,1-1.74,1-2.56v-.05l1.11-6h0v0c4.17-2,7.32-5.23,7.79-10.14.75-7.85-.32-12.63-2.21-15.34,4.05-1.41,3-4.15,1.59-6.26,4.27,1.75,10.32,4.77,11,8,1.14,5.13,0,15.28-5.09,18.7s1.11,8.5,1.11,8.5-.55-7.35,6.24-10.75S73,101.53,60.08,97a66.89,66.89,0,0,0-12.17-3.38,3.47,3.47,0,0,1-.74-1.18c0-1-2.7-5.67-1.73-6.64s.51-5.18.51-5.18A10.11,10.11,0,0,1,40.54,83c-.81-.08-1.59-.14-2.33-.17,1.65-.79,6-2.72,7.73-2.29,0,0-6.42-2.74-8.27,2.27a30,30,0,0,0-7.43.58l.07,0a8,8,0,0,0,4.25-3.09c1.29-2.22-4.83,2-4.92,2s1.92-1.55,1.19-3.34-3.12,3-3.12,3A7.6,7.6,0,0,0,27,79c-.78-2.19-1.71,4-1.71,4A10.65,10.65,0,0,0,23,80.7c-1.43-1,.32,3.2.32,3.2A5.55,5.55,0,0,0,19.59,86c-1.31,1.44,1.86.8,3.9.26a23.13,23.13,0,0,0-2.51,2c-1.28-.22-5.69-.74-7.42,2a8.75,8.75,0,0,0,5.86-.57c-.34.3-.66.58-1,.82-3.21,2.45-4.9-.24-4.9-.24.48,5.91,4.9,6.11,4.9,6.11a3.79,3.79,0,0,0-.61,2.82,10.68,10.68,0,0,1-4.74,5.75C7.45,107.71-1.59,118.47,5.76,123s1.11,6.25,1.11,6.25,9.05-1.12,6.79-6.81-1.72-10.19,1.7-13.59c1.61-1.6,2.83-4.89,3.57-8.12a5.75,5.75,0,0,0,2,1c-1.48,3.7-1.45,7.12,1.48,8.61a2.45,2.45,0,0,0,1,.26,1.77,1.77,0,0,0,0,.23c0,.73-.39,5.54,4.4,11.07,3.76,4.33-2.75,7.2-7.53,8a2.32,2.32,0,0,0,.07-.59,3,3,0,0,0-.09-.59,2.38,2.38,0,0,0-.23-.55,2.67,2.67,0,0,0-.36-.47,2.35,2.35,0,0,0-.47-.36,1.8,1.8,0,0,0-.55-.24,2,2,0,0,0-.59-.09,1.91,1.91,0,0,0-.58.06,2.07,2.07,0,0,0-.56.2,2.85,2.85,0,0,0-.49.34,2.74,2.74,0,0,0-.39.45,2.69,2.69,0,0,0-.26.54,2.94,2.94,0,0,0-.12.59,2.35,2.35,0,0,0,0,.59,2.09,2.09,0,0,0,.18.57,2.33,2.33,0,0,0,.31.5,2.14,2.14,0,0,0,.44.41,2.39,2.39,0,0,0,.52.29,2.34,2.34,0,0,0,1.17.13,2,2,0,0,0,.58-.15,2.62,2.62,0,0,0,.51-.3,2.4,2.4,0,0,0,.43-.41,3.3,3.3,0,0,0,.31-.51c1.69,0,3.9,0,6.35-.1l.44,0m6.91-40.83c.95-1.14,1.14-3,3.21-3.21,0,0,.21-1.12,2.28-.56,0,0,.4-1,3.39.93a3.67,3.67,0,0,0-3.39.37c.05,0,3.41-.73,5.28,1.14,0,0-2.29-.58-2.65.19s1.7-1.12,3,1.33c0,0-4-2.44-7-.38a12.09,12.09,0,0,0-4.17,4.92s-1-3.59,0-4.73Zm6.66,0A3.29,3.29,0,0,1,41.62,93c-.82,2.17-3.74,2.3-5.69-.9a2.92,2.92,0,0,0,3.7.82C41.89,91.81,40.43,89.38,40.43,89.38Zm.77,5.91c2.84-1.09,1.13-5.54,1.13-5.54,1.55,1.56,1.63,4.85,0,6a4.67,4.67,0,0,1-5,.3c-1.53-.77-2-3.41-2-3.41A4.71,4.71,0,0,0,41.2,95.29Zm-8.54-9a.42.42,0,0,1,.33.14.46.46,0,0,1,.14.34.48.48,0,0,1-.47.47.46.46,0,0,1-.34-.14.45.45,0,0,1-.14-.33.46.46,0,0,1,.14-.34A.42.42,0,0,1,32.66,86.28Zm-7.12.92a4.76,4.76,0,0,1,4.72-2.29s1.52.25,1.27.89-2.24-.35-2.3-.38,1.53,1,1.28,1.91-2.15-1.5-2.17-1.53a5.8,5.8,0,0,1,.52,2.68c-.25.87-1.38-2.08-1.42-2.17,0,.07.26,1.55-.25,2s-.63-1.66-.63-1.66a4.42,4.42,0,0,1-1,1.78C24.91,89,25.54,87.2,25.54,87.2Zm6.16,1.65a.49.49,0,0,1-.14.34.48.48,0,0,1-.34.14.48.48,0,0,1-.47-.48.42.42,0,0,1,.14-.33.43.43,0,0,1,.33-.15.45.45,0,0,1,.34.15A.45.45,0,0,1,31.7,88.85Zm-1.59,1.22a.46.46,0,0,1-.14.34.48.48,0,0,1-.68,0,.46.46,0,0,1-.14-.34.45.45,0,0,1,.14-.33.48.48,0,0,1,.68,0A.45.45,0,0,1,30.11,90.07Zm-2.26.27a.44.44,0,0,1-.14.34.46.46,0,0,1-.34.14.47.47,0,0,1-.33-.14.48.48,0,0,1-.14-.34A.49.49,0,0,1,27,90a.47.47,0,0,1,.33-.14.46.46,0,0,1,.34.14A.45.45,0,0,1,27.85,90.34Zm-2.65-.56a.48.48,0,0,1,.34.14.49.49,0,0,1,.14.34.48.48,0,0,1-.48.48.49.49,0,0,1-.34-.14.48.48,0,0,1-.14-.34.48.48,0,0,1,.48-.48Zm-3.13,11.9c-1.36-.53-2.11-2.36-2-4a6.36,6.36,0,0,1,0-.69,1.5,1.5,0,0,0,0,.37,4,4,0,0,1,.48-1.48c-.37-.56.94-1.33.94-1.33a2.09,2.09,0,0,0-1.81,1,13.74,13.74,0,0,0,0-2.06,5.38,5.38,0,0,1,2-1.41,2.48,2.48,0,0,0-2.25.4c1.69-2.26,3.39-1.33,3.39-1.33,3.4-.37,4.33,1.7,4.33,1.7,3.18,1.33,2.09,3.77,2.09,3.77-2.88-2.9-5.35-2.31-6.91-1.55h0c-.07.25-.69,2.72,1.65,3.25l.11,0,.11,0c2.47-.55,1.64-3.27,1.64-3.27a3.65,3.65,0,0,1,.76,2.63,3.11,3.11,0,0,0,.77-1.06A5.5,5.5,0,0,1,26,99.05a2.44,2.44,0,0,1-3.72,0,5.69,5.69,0,0,1-1.42-2.47,3.11,3.11,0,0,0,.77,1.06,3.66,3.66,0,0,1,.73-2.6c-1,.48-1.58,1-1.72.8a8.18,8.18,0,0,0,.26,3.1,4.85,4.85,0,0,0,3.24,2,4.85,4.85,0,0,0,3.25-2,8.3,8.3,0,0,0,.25-3.1,3.86,3.86,0,0,1,.49,1.48,1.5,1.5,0,0,0,0-.37,5.29,5.29,0,0,1,0,.69c.11,1.68-.64,3.51-2,4a4.61,4.61,0,0,1-2,.33A4.61,4.61,0,0,1,22.07,101.68Zm4.49,8.53c.55-.3,1.13-.68,1.7-1.06a15.82,15.82,0,0,0,2.09.94c.78,2,2.25,3.76,5,3.43.32,0,.62-.08.9-.13.07.26.16.64.26,1.09a12.91,12.91,0,0,0-2,.56,14.48,14.48,0,0,0,2.19.17c0,.21.08.43.11.65a12.75,12.75,0,0,0-2.17.59,14.62,14.62,0,0,0,2.29.17c0,.26.06.52.08.77a11.15,11.15,0,0,0-2,.54,13.2,13.2,0,0,0,2,.15,4.16,4.16,0,0,1-.14,1.2,24.61,24.61,0,0,1-3.3-.74l.19-.39s0-1.7-4-4.51A9.76,9.76,0,0,1,26.56,110.21Zm6.29-3.71c-.27,0-.6,0-.94-.06l.26-.19.52-.38a5.52,5.52,0,0,1,3.92-1.45c.3,0,.67,0,1.07.07a1.79,1.79,0,0,0-1.08,1.2c-.34,1.77-.43,2.47-.43,2.47l-1.08.32a1.55,1.55,0,0,0,.78.5l.12.39-.85.2a1,1,0,0,0,1.22.55c.92-.26.72-1,.72-1l-.49.11-.06-.37c.73-.47-.4-1.51.85-2.81a3.48,3.48,0,0,1,2.3-1c.1.18.2.37.29.56A3.75,3.75,0,0,0,37.12,108s1.49,1.36,3.35-.4a6.2,6.2,0,0,1,0,1.14c-.19,1.72-1,2.93-3.23,3.56a13,13,0,0,1-1.85.35,3.73,3.73,0,0,1-3.92-2.18,7.07,7.07,0,0,1-.48-1.14c2.85,1.11,3.65-1,3.65-1a3.69,3.69,0,0,0-3.89-.75l-.19,0a.36.36,0,0,0,0-.11c.3-.22.54-.42.74-.57a15.57,15.57,0,0,1,2.66.24,2.81,2.81,0,0,0-1.07-.66Zm-.18,20.43-.63.77a4.4,4.4,0,0,1-2.71-.74c.29-.57.59-1.15.89-1.75l-.33,1.06.83-1.3-.35,1.65.7-1.06-.23,1.18.71-.94-.12,1.42.71-1.3L32,127.1l.83-1.18ZM34,125.16A5,5,0,0,1,30.84,124l.4-.79-.07.24.83-1.3-.36,1.65.71-1.06-.24,1.18.72-1-.12,1.42.7-1.3-.11,1.19.83-1.19-.24,1.3.82-1.18-.11.71.2-.14A14.51,14.51,0,0,1,34,125.16Zm3.63.82h0v0Zm3.15,6.75c0-.26,0-.42,0-.42a3.12,3.12,0,0,1-.15.43c-.17.42-.48,1-.91,1.14-.21.06-.4-.08-.56-.3v-.06l-.08-.6-.22-1.62.16-.85.2,1.16.18-.87.16.83.21-.8.3.95.11-1,.19.66,0,.13.23-1,.13.64c-.08.83-.13,1.47-.13,1.53h0a3.66,3.66,0,0,0,.15-.43S40.73,132.44,40.73,132.73Zm.34-5.51c-.06.6-.15,1.56-.24,2.5l0,.12-.11,0a2.09,2.09,0,0,1-2.08-.15v-.06l-.19-1.44-.09-.7-.07-.54,0-.21,0-.14.27,1.53h0v.09l0-.1h0l.23-1.09.18,1h0l0,.18.06-.2h0l.24-.88.22.72h0l.18.6.08-.7h0L40,127l.18.61.16.53.14-.65.18-.76.13.63h0l.13.62.11-.49.06-.26h0v0Zm.1-1.52a5,5,0,0,1-3,0h0c0-.56-.13-1.19-.22-1.8l.15-.81.29,1.67.25-1.26.23,1.19.3-1.14.43,1.36.17-1.48.33,1.14.32-1.4.27,1.29.33-1.4.15.7.14-.21C41.28,124.26,41.23,125,41.17,125.7Zm.27-3.75a5.1,5.1,0,0,1-3.89.11v0c-.42-1.25-1-1.72-2,.18a4.74,4.74,0,0,1-3.3-1.06c.24-.47.45-.9.64-1.29a19.06,19.06,0,0,0,8.78.12A16.72,16.72,0,0,0,41.44,122ZM44,110.8c-1.41,3.13-1.67,6.57-2.15,8.62a21.56,21.56,0,0,1-4.25-.06c.07-.32.15-.78.23-1.32a2.85,2.85,0,0,0,2.08-.87,13.77,13.77,0,0,0-2,.09c0-.23,0-.46.06-.7a3.14,3.14,0,0,0,2.2-1,16.38,16.38,0,0,0-2.17.09c0-.19,0-.38,0-.57a3,3,0,0,0,2-.92,16.21,16.21,0,0,0-2.1.08,5.1,5.1,0,0,0-.29-1.18,4.67,4.67,0,0,0,3.4-2.73,17.31,17.31,0,0,0,1.4-5.73,3.35,3.35,0,0,0,1.39-.47s0,0,0,0h0l0,0A7.06,7.06,0,0,1,44,110.8Zm-9.84-8.27A16.76,16.76,0,0,0,32,103.82a6.65,6.65,0,0,0-1.12,1.47l-.27-.07a9.85,9.85,0,0,1-1.09,1.2,15.34,15.34,0,0,1-2.46,1.91,9.58,9.58,0,0,1-.89.49,5.17,5.17,0,0,1-.95.36c-1.18.29-1.53-.27-1.63-.78-.06.32-.12.65-.17,1v0h0s0,.06,0,.1v-.1c-1.35-.7-1.06-1.5-.54-2.07C21.48,106.18,24,104.9,24,104.9c-1.27-1,.31-1.62.31-1.62-.22-1,2.19-1.11,2.71-1.57a7.41,7.41,0,0,1,6.53-1.91c1.89-3,5.78-2,6.23-2,2.26-.94,3.07-.48,3.07-.48a2.83,2.83,0,0,1,2.93-.3c2.48-.21,1.21,1.84,1.21,1.84,2.22.52.57,1.46-.11,1.79a7.12,7.12,0,0,1,.54.69l-.18.06c.14.42-.48.55-1,.58a4.12,4.12,0,0,1-.61,0,1.06,1.06,0,0,1-.38.38c-1.53,1-5.76-.81-7.73-.86a4.33,4.33,0,0,0-.8.07,9.64,9.64,0,0,0-2.3.81Z"/><g class="cls-19"><g class="cls-20"><g class="cls-20"><g class="cls-20"><path class="cls-3" d="M59.09,20.56a.39.39,0,0,1,0,.15c1.76-.52.76-1.6-.13-.51C58.92,20.41,59,20.32,59.09,20.56Z"/></g></g></g></g><g class="cls-21"><g class="cls-20"><g class="cls-20"><g class="cls-20"><path class="cls-3" d="M59.1,20.76c-.06.06,0,.18-.32.26,1.07,1.54,1.75.24.44-.28Z"/></g></g></g></g><g class="cls-22"><g class="cls-20"><g class="cls-20"><g class="cls-20"><path class="cls-3" d="M58.73,21a.4.4,0,0,1-.31-.28c-1.17,1.51.28,1.84.37.4Z"/></g></g></g></g><g class="cls-23"><g class="cls-20"><g class="cls-20"><g class="cls-20"><path class="cls-3" d="M58.42,20.71c0-.05-.07-.13.14-.33-1.84-.68-1.67.81-.28.46Z"/></g></g></g></g><g class="cls-24"><g class="cls-20"><g class="cls-20"><g class="cls-20"><path class="cls-3" d="M58.58,20.36a.39.39,0,0,1,.34,0c0-1.91-1.31-1.3-.53-.09Z"/></g></g></g></g><path class="cls-3" d="M65.78,15.81c-3.06,0-3.3.87-4.41,1.4-2,.95-.93-3.45-3.21-3.32a147,147,0,0,1-16.36-.78,35.25,35.25,0,0,1,9.32,3.4c1.35.71-1.23,1.16,0,2s2.33,1.53,1.47,1.75-3.52,1.52-5.86,1.83c-1.74.23-7.34-.51-12.35-1.39,2.16.4,11.88,2.44-1.72,4.56.12,0,7.2-.86,9.91-1.31,3.65-.6,9.65.33,11.13,1.05s-2.08,2.4-.6,4.14.47,1.77-.55,4.81-3.66,5.11-5,6.69S52.11,36,56,33.05c8.67-6.52,6.62-9.08,7.66-10.43,1.17-1.53,2.07.32,3.08-5a4.28,4.28,0,0,1,.9-1.89A9.38,9.38,0,0,1,65.78,15.81ZM53.68,23c-.22.07.42-.54.22-.85s-.52-.29-.79-.42C54.38,21.43,54.67,22.45,53.68,23Zm1,0c-.23.09.45-.57.3-.89-.09-.54-.64-.44-1-.59C55.52,21.19,55.83,22.36,54.69,23Zm.91,0c.75-1.08.59-1.61-.7-1.86C56.77,20.73,57.05,22.21,55.6,23Zm5,.31c0,.06,0,.13,0,.19a2.3,2.3,0,0,1-.23.25,7.19,7.19,0,0,1-.83.7c-.18.13-.35.26-.51.36s-.27.18-.39.25a1.52,1.52,0,0,1-.31.14c-.07,0-.15,0-.19,0s0-.13,0-.19a1.44,1.44,0,0,1,.22-.25,9.63,9.63,0,0,1,.83-.71,10.77,10.77,0,0,1,.91-.6C60.47,23.23,60.56,23.26,60.59,23.3Zm-2,3.38c-.21.14-.29.13-.32.09s-.07-.16.25-.61a9.53,9.53,0,0,1,.91-1.1,10.12,10.12,0,0,1,1-1,2.35,2.35,0,0,1,.36-.26c.07,0,.17-.09.23,0s.07.16-.25.62a13.37,13.37,0,0,1-.91,1.1c-.37.39-.74.74-1,1A2.26,2.26,0,0,1,58.58,26.68Zm3.05-2.23a1.42,1.42,0,0,1-.13.32,8.07,8.07,0,0,1-.53.94,8.72,8.72,0,0,1-.64.89,1.82,1.82,0,0,1-.23.24l-.05,0s-.1.05-.14,0,0-.12,0-.19.07-.19.13-.32a6.44,6.44,0,0,1,.54-.94,8.79,8.79,0,0,1,.63-.89,1.34,1.34,0,0,1,.24-.24c0-.05.13-.1.18-.06S61.65,24.38,61.63,24.45Zm-1.25-4.28c-.16.34-.56.48-1.05.56,2,.45.37,2.39-.49.51.22,2-2.16,1-.65-.32-1.86.81-1.67-1.75.11-.71-1.37-1.55,1.11-2.11.7-.12C59.78,18.83,60.51,19.56,60.38,20.17ZM55.2,17.6c0-.06,0-.14.42-.29a9.29,9.29,0,0,1,1.05-.3,7.68,7.68,0,0,1,1.07-.18,2.1,2.1,0,0,1,.34,0c.08,0,.16,0,.18.08s0,.1-.09.13l0,0a1.54,1.54,0,0,1-.31.14,7.83,7.83,0,0,1-1,.3,8.27,8.27,0,0,1-1.08.19,1.9,1.9,0,0,1-.34,0C55.29,17.68,55.21,17.66,55.2,17.6Zm3-1.44a.11.11,0,0,1-.07.1l-.11,0a2.19,2.19,0,0,1-.43.11,11.94,11.94,0,0,1-1.42.15,10.89,10.89,0,0,1-1.43,0,2.13,2.13,0,0,1-.45-.07c-.08,0-.19-.06-.19-.13s.1-.12.18-.15a2.88,2.88,0,0,1,.43-.11A10.31,10.31,0,0,1,56.11,16a11.09,11.09,0,0,1,1.43,0A2.7,2.7,0,0,1,58,16C58.07,16.05,58.18,16.09,58.18,16.16Zm0-.64a.1.1,0,0,1,0,.05.31.31,0,0,1-.12,0l-.35,0a9.25,9.25,0,0,1-2.16-.29,1.17,1.17,0,0,1-.32-.11c-.07,0-.14-.07-.13-.14s.09-.08.15-.1l.34,0a9.05,9.05,0,0,1,2.17.29,1.17,1.17,0,0,1,.32.11C58.11,15.41,58.18,15.45,58.18,15.52Zm6.5,2.78a.59.59,0,0,1-.48.09.62.62,0,0,1-.42-.28.65.65,0,0,1-.1-.49.63.63,0,0,1,.28-.41.65.65,0,0,1,.49-.1.67.67,0,0,1,.41.29.65.65,0,0,1,.1.49.63.63,0,0,1-.28.41Z"/><g class="cls-25"><g class="cls-26"><g class="cls-26"><g class="cls-26"><path class="cls-3" d="M27.82,36.87a.49.49,0,0,1,.12.13c1.28-1.78-.44-2.06-.49-.38C27.55,36.85,27.53,36.75,27.82,36.87Z"/></g></g></g></g><g class="cls-27"><g class="cls-26"><g class="cls-26"><g class="cls-26"><path class="cls-3" d="M28,37.05c0,.1.15.15-.12.48,2.12.67,1.82-1.06.22-.58Z"/></g></g></g></g><g class="cls-28"><g class="cls-26"><g class="cls-26"><g class="cls-26"><path class="cls-3" d="M27.8,37.57a.43.43,0,0,1-.48,0c0,2.29,1.59,1.53.63.11Z"/></g></g></g></g><g class="cls-29"><g class="cls-26"><g class="cls-26"><g class="cls-26"><path class="cls-3" d="M27.29,37.51c0-.06-.14-.07-.1-.41-2.22.71-1,2,.07.64Z"/></g></g></g></g><g class="cls-30"><g class="cls-26"><g class="cls-26"><g class="cls-26"><path class="cls-3" d="M27.2,37.07a.44.44,0,0,1,.3-.26c-1.32-1.83-2.15-.27-.55.3Z"/></g></g></g></g><path class="cls-3" d="M30.65,27.49c-2.87,2.23-2.45,3.26-3.11,4.57-1.18,2.35-3.35-2.57-5.39-.77A176.31,176.31,0,0,1,6.28,42.58a41.8,41.8,0,0,1,11.16-3.65c1.78-.33-.31,2,1.48,1.89s3.29-.28,2.64.56-2.2,4-4.17,6c-1.46,1.5-7.23,4.91-12.55,7.77,2.3-1.21,12.87-6.44,1.67,5.55.1-.11,6.11-6.1,8.33-8.52C17.83,49,24.1,45.44,26,45s-.22,3.78,2.41,4.34,1.72,1.31,2.95,4.91.26,7.49.16,9.95.85-7.73,2.39-13.34c3.42-12.49-.35-13.39-.35-15.43,0-2.3,2.17-1.22-.7-7a5.17,5.17,0,0,1-.52-2.44A11.16,11.16,0,0,1,30.65,27.49ZM24.52,43.15c-.16.23,0-.82-.41-.95s-.68.1-1.05.18C24,41.15,25,41.9,24.52,43.15Zm.95-.73c-.15.25,0-.86-.36-1.05-.48-.45-.92.05-1.32.13C24.93,40.09,26.07,41,25.47,42.42Zm.83-.69c-.07-1.57-.61-2-2-1.24C25.77,38.74,27.09,39.93,26.3,41.73Zm4.89-3.38c.08,0,.09.12.09.21a2,2,0,0,1,0,.4A12.85,12.85,0,0,1,31,40.23c-.07.25-.14.49-.22.71s-.13.37-.19.52a2.47,2.47,0,0,1-.19.37c0,.07-.11.15-.18.13s-.09-.12-.09-.21a3.74,3.74,0,0,1,0-.41,8.76,8.76,0,0,1,.27-1.26,12,12,0,0,1,.41-1.24C31,38.38,31.13,38.33,31.19,38.35ZM31.74,43c-.1.28-.17.32-.23.32s-.18-.11-.21-.77a13,13,0,0,1,.06-1.7,14.36,14.36,0,0,1,.25-1.69,3.28,3.28,0,0,1,.15-.51c0-.08.1-.21.19-.2s.18.1.21.76a13.18,13.18,0,0,1-.06,1.71,13.85,13.85,0,0,1-.25,1.68C31.81,42.78,31.77,42.91,31.74,43ZM33,38.66a2.47,2.47,0,0,1,.11.39,9.32,9.32,0,0,1,.18,1.29,10,10,0,0,1,0,1.3,3.14,3.14,0,0,1,0,.4.19.19,0,0,0,0,.07.17.17,0,0,1-.11.12c-.08,0-.12-.09-.16-.17a2.47,2.47,0,0,1-.11-.39,11.26,11.26,0,0,1-.18-1.28,9.88,9.88,0,0,1,0-1.3,2.09,2.09,0,0,1,0-.41c0-.08,0-.17.13-.18S33,38.59,33,38.66Zm-4.25-3.09c.1.44-.18.85-.57,1.29,2.18-1,2.06,2-.1.84,1.68,1.75-1.27,2.56-.83.17-1.16,2.13-2.83-.42-.42-.74-2.39-.44-.47-2.81.57-.62C27.21,34.75,28.42,34.89,28.74,35.57ZM22,37c-.05,0-.07-.15.2-.58a9.54,9.54,0,0,1,.76-1,11.22,11.22,0,0,1,.87-1,2.62,2.62,0,0,1,.32-.26c.07-.05.16-.09.22-.05s0,.12,0,.19v0a3.81,3.81,0,0,1-.2.36,9.54,9.54,0,0,1-.76,1,9.77,9.77,0,0,1-.87,1,2.39,2.39,0,0,1-.32.25C22.19,37,22.1,37,22,37Zm1.76-3.54a.14.14,0,0,1,0,.14.61.61,0,0,1-.07.14,4.74,4.74,0,0,1-.32.42,14.4,14.4,0,0,1-1.23,1.18,13.07,13.07,0,0,1-1.35,1,3.45,3.45,0,0,1-.46.26c-.09,0-.22.08-.28,0s0-.19,0-.28a3.62,3.62,0,0,1,.33-.42,14.4,14.4,0,0,1,1.23-1.18,12.08,12.08,0,0,1,1.35-1,3.45,3.45,0,0,1,.46-.26C23.61,33.39,23.74,33.34,23.8,33.41Zm-.47-.6a.08.08,0,0,1,0,.08.38.38,0,0,1-.09.13,2.23,2.23,0,0,1-.3.27,9.59,9.59,0,0,1-1.08.72,9.27,9.27,0,0,1-1.15.6,2.35,2.35,0,0,1-.38.14c-.09,0-.19,0-.23,0s0-.15.08-.21a2.32,2.32,0,0,1,.31-.28,10.05,10.05,0,0,1,1.08-.72,8.57,8.57,0,0,1,1.14-.6,2.92,2.92,0,0,1,.39-.13C23.19,32.76,23.3,32.74,23.33,32.81Zm8.09-2.16a.74.74,0,0,1-.39.44.8.8,0,0,1-.59,0,.74.74,0,0,1-.44-.39.72.72,0,0,1,0-.59.79.79,0,0,1,.39-.45.76.76,0,0,1,.59,0,.78.78,0,0,1,.48,1Z"/><path class="cls-3" d="M101.18,32.8h-.36s0,0,0,0c-1-.06-1.93-.08-3.1-.08-1,0-2,0-3.1.08a0,0,0,0,0,0,0h-.35a.78.78,0,0,1,0-.14l.15-.4a.75.75,0,0,1,.7-.42h.25s0,0,0,0c.8.08,1.62.09,2.33.09s1.57,0,2.33-.09a0,0,0,0,0,0,0h.26a.77.77,0,0,1,.7.42l.15.4A.78.78,0,0,1,101.18,32.8Z"/><path class="cls-3" d="M101.18,49.36a.68.68,0,0,1,0,.14l-.15.39a.76.76,0,0,1-.7.43H95.09a.75.75,0,0,1-.7-.43l-.15-.39a.68.68,0,0,1,0-.14h.35a0,0,0,0,0,0,0c1.06.07,2.15.08,3.1.09,1.17,0,2.15,0,3.1-.09,0,0,0,0,0,0Z"/><path class="cls-3" d="M100.11,31.84h-.06s0,0,0,0c-.72-.07-1.45-.09-2.33-.09s-1.61,0-2.33.09a0,0,0,0,0,0,0h-.06s0,0,0-.06l.1-.33a.53.53,0,0,1,.48-.35h3.64a.54.54,0,0,1,.48.35l.1.33S100.11,31.82,100.11,31.84Z"/><path class="cls-3" d="M97.61,53.26l.42.24-.42.25c-.14-.09-.29-.17-.44-.25A3.75,3.75,0,0,0,97.61,53.26Z"/><path class="cls-3" d="M99.23,52.87h-.06a.59.59,0,0,0,0-.39.62.62,0,0,0-.45-.34.56.56,0,0,0-.42.11.57.57,0,0,0-.57-.55.58.58,0,0,0-.58.55.54.54,0,0,0-.41-.11.59.59,0,0,0-.45.34.54.54,0,0,0,0,.39h0a.62.62,0,1,0,0,1.23h0a.54.54,0,0,0,0,.39.59.59,0,0,0,.45.34.64.64,0,0,1,1,.44.57.57,0,0,0,.57-.55.61.61,0,0,0,.42.11.62.62,0,0,0,.45-.34.59.59,0,0,0,0-.39h.06a.62.62,0,1,0,0-1.23Zm-.52.31a2.59,2.59,0,0,1-.42.32l.4.31a0,0,0,0,1,0,0s0,0,0,0l-.48-.27a4.65,4.65,0,0,1-.41.26c.2.13.38.26.56.4a0,0,0,0,1,0,0h0a7.61,7.61,0,0,1-.7-.35,5.93,5.93,0,0,1-.86.38h0a0,0,0,0,1,0,0s0,0,0,0l.71-.43L97,53.57l-.24.11h0s0,0,0,0l.18-.14-.2-.14a0,0,0,0,1,0,0h0l.28.12.41-.27-.74-.44a0,0,0,0,1,0,0h0a5.25,5.25,0,0,1,.88.39,5.49,5.49,0,0,1,.73-.36h0s0,0,0,0a6.27,6.27,0,0,1-.59.42,4.65,4.65,0,0,1,.41.26c.17-.1.34-.2.51-.28h0A0,0,0,0,1,98.71,53.18Z"/><g class="cls-31"><path class="cls-3" d="M97.75,56h0a.81.81,0,0,0-.56.24.87.87,0,0,0-.18.32,2.9,2.9,0,0,0-.11,1.13c0,.25,0,.49,0,.74,0,1,0,2.22,0,2.36,0,.71-.09,1.72-.24,2.95a.19.19,0,0,0,.16.2,5.3,5.3,0,0,0,1,.08,6.34,6.34,0,0,0,1-.11.19.19,0,0,0,.15-.23,11.7,11.7,0,0,1-.22-1.26,21,21,0,0,1-.14-3.4c0-.79.11-2.36-.36-2.81A.62.62,0,0,0,97.75,56Z"/></g><path class="cls-3" d="M97.7,56.33a.15.15,0,0,1-.15-.15v-.92a.15.15,0,0,1,.3,0v.92A.15.15,0,0,1,97.7,56.33Z"/><path class="cls-3" d="M97.7,51.85a.15.15,0,0,1-.15-.15V50.32a.15.15,0,0,1,.3,0V51.7A.15.15,0,0,1,97.7,51.85Z"/><g class="cls-32"><path class="cls-3" d="M97.7,31.24a.15.15,0,0,1-.15-.14v-6a.15.15,0,1,1,.3,0v6A.15.15,0,0,1,97.7,31.24Z"/></g><g class="cls-33"><path class="cls-3" d="M105,36.17a.55.55,0,0,0,0-.53l-.26-.5a.57.57,0,0,1,0-.54l.26-.5a.55.55,0,0,0,0-.53l-.23-.45a.6.6,0,0,0-.53-.32h-3.37s0,0,0,0c-1,.07-2.09.08-3.1.09s-2,0-3.1-.09a0,0,0,0,1,0,0H91.2a.6.6,0,0,0-.52.32l-.23.45a.55.55,0,0,0,0,.53l.25.5a.57.57,0,0,1,0,.54l-.25.5a.55.55,0,0,0,0,.53l.25.5a.57.57,0,0,1,0,.54l-.25.5a.57.57,0,0,0,0,.54l.25.49a.57.57,0,0,1,0,.54l-.25.5a.57.57,0,0,0,0,.54l.25.49a.57.57,0,0,1,0,.54l-.25.5a.55.55,0,0,0,0,.53l.25.5a.57.57,0,0,1,0,.54l-.25.5a.55.55,0,0,0,0,.53l.25.5a.57.57,0,0,1,0,.54l-.25.5a.55.55,0,0,0,0,.53l.25.5a.57.57,0,0,1,0,.54l-.25.49a.57.57,0,0,0,0,.54l.23.45a.58.58,0,0,0,.52.32h3.37a0,0,0,0,1,0,0c1-.06,1.93-.08,3.1-.09s2.14,0,3.1.09c0,0,0,0,0,0h3.37a.58.58,0,0,0,.53-.32l.23-.45a.57.57,0,0,0,0-.54l-.26-.49a.57.57,0,0,1,0-.54l.26-.5a.55.55,0,0,0,0-.53l-.26-.5a.57.57,0,0,1,0-.54l.26-.5a.55.55,0,0,0,0-.53l-.26-.5a.57.57,0,0,1,0-.54l.26-.5a.55.55,0,0,0,0-.53l-.26-.5a.57.57,0,0,1,0-.54l.26-.49a.57.57,0,0,0,0-.54l-.26-.5a.57.57,0,0,1,0-.54l.26-.49a.57.57,0,0,0,0-.54l-.26-.5a.57.57,0,0,1,0-.54Zm-3.45-2a.16.16,0,0,1,.19-.08,4.13,4.13,0,0,1,1.13.69,3.83,3.83,0,0,1,1.2,1.82,2.73,2.73,0,0,1-.22,2.13l0,.07h0l-.07,0a4.84,4.84,0,0,1-2-1.74,2.94,2.94,0,0,1-.44-1.49A3.13,3.13,0,0,1,101.5,34.13Zm-6.64,1.1a3.12,3.12,0,0,0,1.27-1A2.59,2.59,0,0,0,96.54,33l0,0s0,0,0,0a2,2,0,0,1-1,2,1.83,1.83,0,0,1-.73.26l0,0S94.85,35.23,94.86,35.23Zm-3.52-.43a1,1,0,1,1,1.14,1.14A1.05,1.05,0,0,1,91.34,34.8Zm-.29,4.37h-.11a0,0,0,0,1,0,0l0,0a3.07,3.07,0,0,0,1.75-1.2h0a.13.13,0,0,1,.1-.09h.11a2.29,2.29,0,0,0,1.32.65,1.42,1.42,0,0,0,1.59-1.11,1.53,1.53,0,0,0-1.06-1.74.05.05,0,0,1,0,0l0,0a1.74,1.74,0,0,1,.45.17.27.27,0,0,0,.37-.1,2.61,2.61,0,0,1,.2-.3s.13-.16.27-.3a3.81,3.81,0,0,1,1.66-.61,5.31,5.31,0,0,1,2.6.3h0a0,0,0,0,1,0,0,4.09,4.09,0,0,1-2.93,2l-.57,0a3.86,3.86,0,0,1-.6,0h-.07a.11.11,0,0,0-.13.13,1.6,1.6,0,0,1-.34,1.29,1.63,1.63,0,0,1-1.26.55h-.27s0,0,0,0a3.49,3.49,0,0,1,1,.56,4.1,4.1,0,0,1,1.39,2.85s0,.07,0,.1a0,0,0,0,1,0,0h-.12a4.33,4.33,0,0,1-3.32-1.58,4.4,4.4,0,0,1-.64-1.06,0,0,0,0,1,0,0,1.27,1.27,0,0,1-.06-.18c0-.1,0-.2-.08-.3l0-.14a.16.16,0,0,0-.25-.1A1.81,1.81,0,0,1,91.05,39.17Zm9.46-.92a.8.8,0,0,1-.74.76.82.82,0,0,1-.85-.74v-.09a.8.8,0,0,1,1.59.07Zm-8.32,5.42a.74.74,0,1,1,.2-1.47.74.74,0,0,1-.2,1.47Zm2,2.69a2.94,2.94,0,0,1-1.38.81l-.28.06a.12.12,0,0,1-.14-.11V47a3.72,3.72,0,0,1,.14-1.19A3.18,3.18,0,0,1,95,43.78h0l.1,0h0v.12A3.31,3.31,0,0,1,94.2,46.36Zm6.31-5.24a2.27,2.27,0,0,0-.3,2,2.75,2.75,0,0,0,.37.75s.06.1,0,.14a.22.22,0,0,1-.16,0h0s0,0-.07,0a0,0,0,0,1,0,0h-.11a1.56,1.56,0,0,0-1.66,1.61,1.28,1.28,0,0,0,.45.94,2,2,0,0,0,1.52.44h0a.08.08,0,0,1,.08,0,.13.13,0,0,1,0,.08v.17h0v.07h0a5.3,5.3,0,0,0,.44,1.62s0,0,0,0h0a1.81,1.81,0,0,1-.25-.3.2.2,0,0,0-.23-.09c-.14,0-.31.09-.52.13A6,6,0,0,1,95,48v0a.08.08,0,0,1,0,0,4.61,4.61,0,0,1,2.43-1,9.39,9.39,0,0,1,1.3-.07.07.07,0,0,0,.05-.12,1.83,1.83,0,0,1-.21-.26,1.65,1.65,0,0,1,.38-2.09l0,0a.09.09,0,0,0,0-.15L98.71,44a2.6,2.6,0,0,1-1.14-2.6l0,0a3,3,0,0,1,2.21.82h0a.06.06,0,0,0,.1,0,2.2,2.2,0,0,1,.41-1.18,1.21,1.21,0,0,1,1.19-.46,1.66,1.66,0,0,1,1.1.7,2.42,2.42,0,0,1,.46,1.23s0,0,0,0,0,0,0,0a2,2,0,0,0-1.54-1.72,1,1,0,0,0-1,.37Zm2.35,5.23a1.09,1.09,0,1,1,1.2-1.19A1.09,1.09,0,0,1,102.86,46.35Zm.33,2.88h0s0,0,0,0a3.23,3.23,0,0,0,.56-.7,3.58,3.58,0,0,0,.33-.84s0,0,0,0l0,0A1.49,1.49,0,0,1,103.19,49.23Zm1.65-1.17s0,0,0,0v0a.35.35,0,0,1-.36,0,.36.36,0,0,1-.18-.3l0,0h0A1.84,1.84,0,0,1,104.84,48.06Zm-.15-6.18s0,0,0,0,0,0,0,0a2.1,2.1,0,0,0-1.42.77h0s0,0,0,0a1.16,1.16,0,0,1,.56-.71A1.17,1.17,0,0,1,104.69,41.88Z"/></g><path class="cls-3" d="M92.6,46.82a10.27,10.27,0,0,1,.84-1.23,11.54,11.54,0,0,1,1-1.09A4,4,0,0,0,92.6,46.82Z"/><path class="cls-3" d="M92.6,46.85h0s0,0,0,0a4,4,0,0,1,1.87-2.33h0a0,0,0,0,1,0,0,13.41,13.41,0,0,0-1,1.09,11.26,11.26,0,0,0-.84,1.23Zm1.66-2.2a4,4,0,0,0-1.56,2,11.93,11.93,0,0,1,.71-1A10.76,10.76,0,0,1,94.26,44.65Z"/><path class="cls-3" d="M98.12,47.66a10,10,0,0,0-2,.27c.66,0,1.32-.08,2-.09s1.32,0,2,0A8.77,8.77,0,0,0,98.12,47.66Z"/><path class="cls-3" d="M96.15,48s0,0,0,0,0,0,0,0a9.28,9.28,0,0,1,4-.13s0,0,0,0a0,0,0,0,1,0,0h-.65l-1.33,0-1.35.06Zm2-.27a9.93,9.93,0,0,0-1.66.2l.31,0,1.35-.06,1.33,0h.35A8.92,8.92,0,0,0,98.12,47.69Z"/><path class="cls-3" d="M93.39,39c.43.46.86.9,1.27,1.37s.81,1,1.22,1.43A8.51,8.51,0,0,0,93.39,39Z"/><path class="cls-3" d="M95.88,41.78h0c-.12-.14-.24-.29-.37-.43-.27-.33-.55-.67-.85-1s-.59-.65-.89-1l-.38-.4a0,0,0,0,1,0,0h0a8.46,8.46,0,0,1,1.41,1.27,8.32,8.32,0,0,1,1.09,1.55.06.06,0,0,1,0,0Zm-2.27-2.64.18.19c.3.32.6.64.9,1s.57.66.85,1l.17.21a7.32,7.32,0,0,0-.94-1.28A8.28,8.28,0,0,0,93.61,39.14Z"/><path class="cls-3" d="M98.1,41.9c.26.27.64.62.91.88s.64.62.91.86A4.76,4.76,0,0,0,98.1,41.9Z"/><path class="cls-3" d="M99.92,43.67h0c-.19-.17-.43-.41-.64-.61L99,42.8l-.28-.27-.63-.61a0,0,0,0,1,0,0h0A4.83,4.83,0,0,1,100,43.63a.06.06,0,0,1,0,0ZM98.27,42l.48.46.28.26.27.27c.16.15.33.32.49.46A4.89,4.89,0,0,0,98.27,42Z"/><path class="cls-3" d="M99.6,35a9.09,9.09,0,0,0-1.87.28,9.18,9.18,0,0,0-1.77.66c.6-.16,1.22-.34,1.82-.49S99,35.14,99.6,35Z"/><path class="cls-3" d="M96,36l0,0s0,0,0,0a8.32,8.32,0,0,1,1.78-.65A8.54,8.54,0,0,1,99.6,35l0,0s0,0,0,0l-.85.21-1,.24-1,.27L96,36ZM99.31,35a8.84,8.84,0,0,0-1.57.26,8.45,8.45,0,0,0-1.5.53l.53-.15,1-.26,1-.25Z"/><path class="cls-3" d="M101.9,34.7a18.42,18.42,0,0,1,.92,1.69c.27.58.5,1.17.72,1.78A6.67,6.67,0,0,0,101.9,34.7Z"/><path class="cls-3" d="M103.54,38.2l0,0c-.22-.6-.44-1.2-.72-1.78s-.6-1.16-.91-1.69c0,0,0,0,0,0h0a6.74,6.74,0,0,1,1.64,3.49l0,0ZM102.09,35a18,18,0,0,1,1.37,2.9A6.7,6.7,0,0,0,102.09,35Z"/><path class="cls-3" d="M115.92,46.92l-1.55-.07a1,1,0,0,0-.75-1.42,20.36,20.36,0,0,0-3.15-.28h0V38.44a.2.2,0,0,0-.2-.21.21.21,0,0,0-.21.21v6.71a20.36,20.36,0,0,0-3.15.28,1,1,0,0,0-.6.34,1,1,0,0,0-.24.65,1,1,0,0,0,.09.43l-1.55.07a3.26,3.26,0,0,0-3.09,3.25V64.43a3.26,3.26,0,0,0,3.09,3.25l1.55.06a1,1,0,0,0-.09.43,1,1,0,0,0,.24.65,1,1,0,0,0,.6.35,20.64,20.64,0,0,0,3.37.28,21.29,21.29,0,0,0,3.34-.28,1,1,0,0,0,.84-1,1,1,0,0,0-.09-.43c.52,0,1,0,1.55-.06A3.26,3.26,0,0,0,119,64.43V50.17A3.26,3.26,0,0,0,115.92,46.92Zm-9.11-.09a.11.11,0,0,1,.09-.11h6.57c.06,0,.1,0,.11.09h0v0a.11.11,0,0,1-.11.08H106.9A.11.11,0,0,1,106.81,46.83Zm6.77,20.93h0a.11.11,0,0,1-.11.11H106.9a.1.1,0,0,1-.11-.09.1.1,0,0,1,.11-.11h6.57c.06,0,.09,0,.1.07S113.58,67.75,113.58,67.76Zm-3.31-4.1a6.37,6.37,0,1,1,6.36-6.37A6.37,6.37,0,0,1,110.27,63.66Z"/><path class="cls-3" d="M110.27,51.3a6,6,0,1,0,6,6A6,6,0,0,0,110.27,51.3Zm0,11.72A5.73,5.73,0,1,1,116,57.29,5.72,5.72,0,0,1,110.27,63Z"/><path class="cls-3" d="M110.06,69.34h.41v1.58h-.41Z"/><g class="cls-34"><path class="cls-3" d="M111.34,78.29c-.12-1.23,0-3-.36-3.67a1.16,1.16,0,0,0-.31-.4.85.85,0,0,0,.43-.74.82.82,0,0,0-.33-.68,1.12,1.12,0,0,0,.6-1,1.11,1.11,0,1,0-1.61,1,.86.86,0,0,0-.34.68.84.84,0,0,0,.46.75,1.59,1.59,0,0,0-.32.48,4.68,4.68,0,0,0-.33,2c0,.76,0,1.13-.08,1.39a9.28,9.28,0,0,1-.32,1.59.41.41,0,0,0,.28.52,3.81,3.81,0,0,0,.64.13,4.2,4.2,0,0,0,1.56-.1.41.41,0,0,0,.29-.52A7.53,7.53,0,0,1,111.34,78.29Zm-1.47-5.44-.07,0a1.47,1.47,0,0,0,1,0l-.1.06A.83.83,0,0,1,109.87,72.85Zm0,4.36a5.61,5.61,0,0,1-.49,2.09,8.87,8.87,0,0,0,.35-2.09c0-.71.08-1.44.18-2.14C110,75.79,109.94,76.49,109.92,77.21Zm.48-1.47q0,1.65.06,3.3A8.33,8.33,0,0,1,110.4,75.74ZM110,74.27l0,0a1.18,1.18,0,0,0,.67,0l0,0A.55.55,0,0,1,110,74.27Zm.85,1.34a14.12,14.12,0,0,0,.32,3.72A6.66,6.66,0,0,1,110.84,75.61Z"/></g><path class="cls-3" d="M108.09,59.14c0,.4,0,.8,0,1.2s.06.8.08,1.2a.25.25,0,0,1-.32.28.54.54,0,0,1-.42-.74,8.39,8.39,0,0,0,.14-2l0-.07a2,2,0,0,1-.75,1,7.84,7.84,0,0,1-.82.41.81.81,0,0,1-.68-.05A.83.83,0,0,1,105,60a7.92,7.92,0,0,1-.34-.85c0-.08,0-.13.06-.19a.69.69,0,0,1,.25-.14.79.79,0,0,1,.22,0l.6.12c.26.1.48.14.67,0s.46-.45.37-.83a.66.66,0,0,0-.09-.29c-.1-.13-.26-.1-.4-.07a3.41,3.41,0,0,1-1.35-.07.22.22,0,0,1-.15-.15,2,2,0,0,1,0-1.2.25.25,0,0,1,.33-.23,13.61,13.61,0,0,0,2.55.1h1.86c.12,0,.18.06.22.19a1.1,1.1,0,0,1-.52,1.21.74.74,0,0,1-.26,0h-.44c-.27,0-.42.29-.42.53,0,0,.09.11.14.11a5.63,5.63,0,0,0,.71,0c.29,0,.38.09.37.41,0,.13,0,.27,0,.41s-.1.32-.3.29-.54-.11-.82-.18Z"/><path class="cls-3" d="M111.57,58l2.05-.15a7.25,7.25,0,0,0,.78-.17.55.55,0,0,1,.7.56c0,.44.05.87,0,1.31a4.52,4.52,0,0,1-.18,1,.83.83,0,0,1-.81.57c-.55.05-1.1.17-1.65.18s-1.18,0-1.77-.08a1.38,1.38,0,0,1-.22-.1,3,3,0,0,0-.39-.13c-.22,0-.34-.15-.33-.38s0-.36.06-.54.07-.65.09-1,0-.64,0-1c0-.14.06-.23.2-.24a5,5,0,0,1,.51,0A6.94,6.94,0,0,0,111.57,58Zm-.19,1.32a1,1,0,0,0,.3,0c.12,0,.31.08.37-.11a1.68,1.68,0,0,0,.06-.45.19.19,0,0,0-.2-.23,6.59,6.59,0,0,0-.77,0,.25.25,0,0,0-.16.16c-.18.43,0,.66.41.66Zm1.65-.82c-.43,0-.5,0-.45.52a.24.24,0,0,0,.25.25c.13,0,.27,0,.41,0a.2.2,0,0,0,.19-.19C113.49,58.64,113.42,58.42,113,58.48Zm-1.49,1.93.35,0a.3.3,0,0,0,.19-.36c0-.17-.15-.09-.23-.09l-.67,0c-.13,0-.15.09-.18.2a.13.13,0,0,0,.11.18Zm1.82-.31c0-.08-.06-.23-.1-.23a2.65,2.65,0,0,0-.56.05s0,0,0,.08,0,.22,0,.33,0,.15.14.13l.29,0C113.29,60.42,113.33,60.38,113.36,60.1Z"/><path class="cls-3" d="M111.69,57.52c-.31,0-.62,0-.92,0a.4.4,0,0,1-.39-.22,1,1,0,0,1-.17-.71,3.29,3.29,0,0,0,0-.7c0-.16,0-.32,0-.48a.35.35,0,0,1,.34-.38c1-.05,2-.1,3-.12a1.86,1.86,0,0,1,1,.25.4.4,0,0,1,.24.43,5.69,5.69,0,0,1-.28,1.35.86.86,0,0,1-.22.32.87.87,0,0,1-.51.18C113.34,57.47,112.63,57.51,111.69,57.52Zm.16-.68c.73,0,.76,0,.87-.48a0,0,0,0,1,0,0c0-.12,0-.21-.19-.25a7.08,7.08,0,0,0-.8-.16c-.56,0-.64,0-.63.38v.07C111.1,56.84,111.11,56.84,111.85,56.84Z"/><path class="cls-3" d="M107.5,55.49a4.56,4.56,0,0,1-1.67-.29.54.54,0,0,1-.37-.66,2.91,2.91,0,0,1,.68-1.37.29.29,0,0,1,.4-.08c.18.09.35.21.53.28l1.31.44a1.22,1.22,0,0,0,.27,0,.65.65,0,0,1,.14,0c.43,0,.56.21.42.62a1.48,1.48,0,0,1-1.38,1.06C107.72,55.48,107.61,55.49,107.5,55.49Z"/><path class="cls-3" d="M111.67,54.42l-1.56.06c-.27,0-.35-.09-.34-.37,0-.12,0-.23,0-.34s.21-.3.38-.2a1.91,1.91,0,0,0,1,.23h3.27a1.79,1.79,0,0,1,.33,0,.86.86,0,0,1,.24.11,1,1,0,0,1-.14.2,1.13,1.13,0,0,1-.31.19,1.08,1.08,0,0,1-.43.08l-2.5,0Z"/></g></svg>