<svg id="图层_1" data-name="图层 1" xmlns="http://www.w3.org/2000/svg" xmlns:xlink="http://www.w3.org/1999/xlink" viewBox="0 0 140 140"><defs><style>.cls-1{fill:none;}.cls-2{clip-path:url(#clip-path);}.cls-3{fill:url(#未命名的渐变);}.cls-4{fill:#2c63a7;}.cls-5{fill:#54a0ce;}.cls-6{clip-path:url(#clip-path-4);}.cls-7{fill:#e8ba89;}.cls-8{fill:#fff;}.cls-9{fill:#ffe4bc;}.cls-10{fill:url(#未命名的渐变_2);}.cls-11{fill:url(#未命名的渐变_3);}.cls-12{fill:url(#未命名的渐变_4);}.cls-13{fill:url(#未命名的渐变_5);}.cls-14{fill:url(#未命名的渐变_6);}.cls-15{fill:url(#未命名的渐变_7);}.cls-16{fill:url(#未命名的渐变_8);}.cls-17{fill:url(#未命名的渐变_9);}.cls-18{fill:url(#未命名的渐变_10);}.cls-19{fill:url(#未命名的渐变_11);}.cls-20{fill:url(#未命名的渐变_12);}.cls-21{fill:url(#未命名的渐变_13);}.cls-22{fill:url(#未命名的渐变_14);}.cls-23{fill:url(#未命名的渐变_15);}.cls-24{fill:url(#未命名的渐变_16);}.cls-25{fill:url(#未命名的渐变_17);}.cls-26{fill:url(#未命名的渐变_18);}.cls-27{fill:url(#未命名的渐变_19);}.cls-28{fill:url(#未命名的渐变_20);}.cls-29{fill:url(#未命名的渐变_21);}.cls-30{fill:url(#未命名的渐变_22);}.cls-31{fill:url(#未命名的渐变_23);}.cls-32{fill:url(#未命名的渐变_24);}.cls-33{fill:url(#未命名的渐变_25);}.cls-34{fill:url(#未命名的渐变_26);}.cls-35{fill:url(#未命名的渐变_27);}.cls-36{fill:url(#未命名的渐变_28);}.cls-37{fill:url(#未命名的渐变_29);}.cls-38{fill:url(#未命名的渐变_30);}.cls-39{fill:url(#未命名的渐变_31);}.cls-40{fill:url(#未命名的渐变_32);}.cls-41{fill:url(#未命名的渐变_34);}.cls-42{fill:url(#未命名的渐变_36);}.cls-43{fill:url(#未命名的渐变_41);}.cls-44{fill:url(#未命名的渐变_44);}.cls-45{fill:url(#未命名的渐变_47);}.cls-46{fill:url(#未命名的渐变_50);}.cls-47{fill:url(#未命名的渐变_51);}.cls-48{fill:url(#未命名的渐变_54);}.cls-49{fill:url(#未命名的渐变_55);}.cls-50{fill:url(#未命名的渐变_66);}.cls-51{fill:url(#未命名的渐变_72);}.cls-52{fill:url(#未命名的渐变_74);}.cls-53{fill:url(#未命名的渐变_76);}.cls-54{fill:url(#未命名的渐变_78);}.cls-55{fill:url(#未命名的渐变_80);}.cls-56{fill:url(#未命名的渐变_90);}.cls-57{fill:url(#未命名的渐变_91);}.cls-58{fill:url(#未命名的渐变_92);}.cls-59{fill:url(#未命名的渐变_96);}.cls-60{fill:url(#未命名的渐变_98);}.cls-61{fill:url(#未命名的渐变_102);}.cls-62{fill:url(#未命名的渐变_103);}.cls-63{fill:url(#未命名的渐变_104);}.cls-64{fill:url(#未命名的渐变_105);}.cls-65{fill:url(#未命名的渐变_106);}.cls-66{fill:url(#未命名的渐变_107);}.cls-67{fill:url(#未命名的渐变_108);}.cls-68{fill:url(#未命名的渐变_109);}.cls-69{fill:url(#未命名的渐变_110);}.cls-70{fill:url(#未命名的渐变_111);}.cls-71{fill:url(#未命名的渐变_112);}.cls-72{fill:url(#未命名的渐变_113);}.cls-73{fill:url(#未命名的渐变_114);}.cls-74{fill:url(#未命名的渐变_115);}.cls-75{fill:url(#未命名的渐变_116);}.cls-76{fill:url(#未命名的渐变_117);}.cls-77{fill:url(#未命名的渐变_119);}.cls-78{fill:url(#未命名的渐变_120);}.cls-79{fill:url(#未命名的渐变_121);}.cls-80{fill:url(#未命名的渐变_122);}</style><clipPath id="clip-path"><path class="cls-1" d="M99.2,26.3l2.9-2.6a58.61,58.61,0,0,1,16.1,16.8h0l-2.2,2L113.2,45h-.1A49.48,49.48,0,0,0,97,28.3l.3-.2Zm20.4,16.8-.2.2-2.1,1.9-2.7,2.4h-.1A49.91,49.91,0,1,1,70.1,20.5a50.31,50.31,0,0,1,23.8,6l.3-.2L96,24.7h0l3.2-2.8a56.57,56.57,0,1,0,27.5,48.5A57.16,57.16,0,0,0,119.6,43.1Z"/></clipPath><linearGradient id="未命名的渐变" x1="-346.14" y1="-125.08" x2="-346.06" y2="-125.08" gradientTransform="matrix(1208.62, 1351.38, 1351.38, -1208.62, 587423.29, 316627.31)" gradientUnits="userSpaceOnUse"><stop offset="0" stop-color="#00439a"/><stop offset="1" stop-color="#001d5c"/></linearGradient><clipPath id="clip-path-4"><circle class="cls-1" cx="70.1" cy="70.4" r="56.6"/></clipPath><linearGradient id="未命名的渐变_2" x1="-348" y1="-125.56" x2="-347.92" y2="-125.56" gradientTransform="matrix(108.58, 196.91, 196.91, -108.58, 62630.1, 54958.4)" gradientUnits="userSpaceOnUse"><stop offset="0" stop-color="#1c76b5"/><stop offset="1" stop-color="#001d5c"/></linearGradient><linearGradient id="未命名的渐变_3" x1="-348.47" y1="-125.14" x2="-348.39" y2="-125.14" gradientTransform="matrix(108.58, 196.91, 196.91, -108.58, 62596.56, 55108.56)" xlink:href="#未命名的渐变_2"/><linearGradient id="未命名的渐变_4" x1="-346.52" y1="-122.42" x2="-346.44" y2="-122.42" gradientTransform="matrix(249.53, 0, 0, -249.53, 86569.11, -30439.28)" xlink:href="#未命名的渐变"/><linearGradient id="未命名的渐变_5" x1="-349.11" y1="-123.55" x2="-349.03" y2="-123.55" gradientTransform="matrix(108.58, 196.91, 196.91, -108.58, 62331.03, 55433.79)" xlink:href="#未命名的渐变_2"/><linearGradient id="未命名的渐变_6" x1="-349.07" y1="-123.19" x2="-348.99" y2="-123.19" gradientTransform="matrix(108.58, 196.91, 196.91, -108.58, 62249.99, 55467.82)" xlink:href="#未命名的渐变_2"/><linearGradient id="未命名的渐变_7" x1="-348.93" y1="-122.61" x2="-348.85" y2="-122.61" gradientTransform="matrix(108.58, 196.91, 196.91, -108.58, 62107.92, 55507.8)" xlink:href="#未命名的渐变_2"/><linearGradient id="未命名的渐变_8" x1="41.32" y1="69.99" x2="5.71" y2="111.53" gradientTransform="translate(0 -60.11)" gradientUnits="userSpaceOnUse"><stop offset="0" stop-color="#3a9cd2"/><stop offset="0.01" stop-color="#3a9cd2"/><stop offset="1" stop-color="#001c54"/></linearGradient><linearGradient id="未命名的渐变_9" x1="51.38" y1="78.62" x2="15.77" y2="120.15" xlink:href="#未命名的渐变_8"/><linearGradient id="未命名的渐变_10" x1="50.2" y1="77.6" x2="14.59" y2="119.14" xlink:href="#未命名的渐变_8"/><linearGradient id="未命名的渐变_11" x1="52.08" y1="79.22" x2="16.47" y2="120.75" xlink:href="#未命名的渐变_8"/><linearGradient id="未命名的渐变_12" x1="49.54" y1="77.04" x2="13.92" y2="118.57" xlink:href="#未命名的渐变_8"/><linearGradient id="未命名的渐变_13" x1="50.65" y1="77.99" x2="15.04" y2="119.53" xlink:href="#未命名的渐变_8"/><linearGradient id="未命名的渐变_14" x1="39.8" y1="68.69" x2="4.19" y2="110.23" xlink:href="#未命名的渐变_8"/><linearGradient id="未命名的渐变_15" x1="39.44" y1="68.38" x2="3.83" y2="109.92" xlink:href="#未命名的渐变_8"/><linearGradient id="未命名的渐变_16" x1="40.09" y1="68.93" x2="4.47" y2="110.47" xlink:href="#未命名的渐变_8"/><linearGradient id="未命名的渐变_17" x1="40.49" y1="69.27" x2="4.87" y2="110.81" xlink:href="#未命名的渐变_8"/><linearGradient id="未命名的渐变_18" x1="40.86" y1="69.6" x2="5.25" y2="111.13" xlink:href="#未命名的渐变_8"/><linearGradient id="未命名的渐变_19" x1="50.14" y1="77.55" x2="14.53" y2="119.09" xlink:href="#未命名的渐变_8"/><linearGradient id="未命名的渐变_20" x1="49.79" y1="77.25" x2="14.17" y2="118.79" xlink:href="#未命名的渐变_8"/><linearGradient id="未命名的渐变_21" x1="50.94" y1="78.24" x2="15.32" y2="119.77" xlink:href="#未命名的渐变_8"/><linearGradient id="未命名的渐变_22" x1="51.37" y1="78.61" x2="15.76" y2="120.14" xlink:href="#未命名的渐变_8"/><linearGradient id="未命名的渐变_23" x1="50.11" y1="77.52" x2="14.49" y2="119.06" xlink:href="#未命名的渐变_8"/><linearGradient id="未命名的渐变_24" x1="49.65" y1="77.13" x2="14.03" y2="118.66" xlink:href="#未命名的渐变_8"/><linearGradient id="未命名的渐变_25" x1="49.56" y1="77.05" x2="13.94" y2="118.59" xlink:href="#未命名的渐变_8"/><linearGradient id="未命名的渐变_26" x1="49.8" y1="77.26" x2="14.18" y2="118.8" xlink:href="#未命名的渐变_8"/><linearGradient id="未命名的渐变_27" x1="49.16" y1="76.71" x2="13.54" y2="118.25" xlink:href="#未命名的渐变_8"/><linearGradient id="未命名的渐变_28" x1="50.56" y1="77.91" x2="14.95" y2="119.45" xlink:href="#未命名的渐变_8"/><linearGradient id="未命名的渐变_29" x1="49.43" y1="76.94" x2="13.82" y2="118.48" xlink:href="#未命名的渐变_8"/><linearGradient id="未命名的渐变_30" x1="38.86" y1="67.88" x2="3.25" y2="109.42" xlink:href="#未命名的渐变_8"/><linearGradient id="未命名的渐变_31" x1="48.91" y1="76.49" x2="13.29" y2="118.03" xlink:href="#未命名的渐变_8"/><linearGradient id="未命名的渐变_32" x1="39.13" y1="68.11" x2="3.51" y2="109.65" xlink:href="#未命名的渐变_8"/><linearGradient id="未命名的渐变_34" x1="46.56" y1="74.48" x2="10.95" y2="116.02" xlink:href="#未命名的渐变_8"/><linearGradient id="未命名的渐变_36" x1="45.98" y1="73.98" x2="10.36" y2="115.52" xlink:href="#未命名的渐变_8"/><linearGradient id="未命名的渐变_41" x1="-342.97" y1="-128.18" x2="-342.89" y2="-128.18" gradientTransform="matrix(139.41, -148.16, -148.16, -139.41, 28844.43, -68629.15)" xlink:href="#未命名的渐变_8"/><linearGradient id="未命名的渐变_44" x1="49.55" y1="77.05" x2="13.94" y2="118.59" xlink:href="#未命名的渐变_8"/><linearGradient id="未命名的渐变_47" x1="50.38" y1="77.76" x2="14.76" y2="119.29" xlink:href="#未命名的渐变_8"/><linearGradient id="未命名的渐变_50" x1="21.02" y1="113.52" x2="8.07" y2="128.62" xlink:href="#未命名的渐变_8"/><linearGradient id="未命名的渐变_51" x1="50.75" y1="78.07" x2="15.13" y2="119.61" xlink:href="#未命名的渐变_8"/><linearGradient id="未命名的渐变_54" x1="49.73" y1="77.2" x2="14.11" y2="118.74" xlink:href="#未命名的渐变_8"/><linearGradient id="未命名的渐变_55" x1="49.53" y1="77.03" x2="13.92" y2="118.57" xlink:href="#未命名的渐变_8"/><linearGradient id="未命名的渐变_66" x1="46.61" y1="74.52" x2="10.99" y2="116.06" xlink:href="#未命名的渐变_8"/><linearGradient id="未命名的渐变_72" x1="45.98" y1="73.98" x2="10.36" y2="115.52" xlink:href="#未命名的渐变_8"/><linearGradient id="未命名的渐变_74" x1="45.49" y1="73.56" x2="9.87" y2="115.1" xlink:href="#未命名的渐变_8"/><linearGradient id="未命名的渐变_76" x1="48.89" y1="76.48" x2="13.28" y2="118.02" xlink:href="#未命名的渐变_8"/><linearGradient id="未命名的渐变_78" x1="49.7" y1="77.17" x2="14.09" y2="118.71" xlink:href="#未命名的渐变_8"/><linearGradient id="未命名的渐变_80" x1="45.79" y1="73.82" x2="10.17" y2="115.36" xlink:href="#未命名的渐变_8"/><linearGradient id="未命名的渐变_90" x1="45.76" y1="73.79" x2="10.14" y2="115.33" xlink:href="#未命名的渐变_8"/><linearGradient id="未命名的渐变_91" x1="45.49" y1="73.56" x2="9.87" y2="115.1" xlink:href="#未命名的渐变_8"/><linearGradient id="未命名的渐变_92" x1="45.9" y1="73.92" x2="10.29" y2="115.46" xlink:href="#未命名的渐变_8"/><linearGradient id="未命名的渐变_96" x1="39.9" y1="68.77" x2="4.29" y2="110.31" xlink:href="#未命名的渐变_8"/><linearGradient id="未命名的渐变_98" x1="39.57" y1="68.48" x2="3.95" y2="110.02" xlink:href="#未命名的渐变_8"/><linearGradient id="未命名的渐变_102" x1="48.74" y1="75.16" x2="13.76" y2="119.37" xlink:href="#未命名的渐变_8"/><linearGradient id="未命名的渐变_103" x1="49.71" y1="75.93" x2="14.74" y2="120.14" xlink:href="#未命名的渐变_8"/><linearGradient id="未命名的渐变_104" x1="-324.57" y1="-183.2" x2="-324.49" y2="-183.2" gradientTransform="matrix(7.93, -8.43, -8.43, -7.93, 1072.44, -4167.02)" xlink:href="#未命名的渐变_8"/><linearGradient id="未命名的渐变_105" x1="-324.57" y1="-183.21" x2="-324.49" y2="-183.21" gradientTransform="matrix(7.93, -8.43, -8.43, -7.93, 1072.44, -4167.02)" xlink:href="#未命名的渐变_8"/><linearGradient id="未命名的渐变_106" x1="-345.79" y1="-126.2" x2="-345.71" y2="-126.2" gradientTransform="matrix(187.07, 175.02, 175.02, -187.07, 86876.85, 36932.25)" gradientUnits="userSpaceOnUse"><stop offset="0" stop-color="#32aeb7"/><stop offset="0.53" stop-color="#311664"/><stop offset="1" stop-color="#2db8bc"/></linearGradient><linearGradient id="未命名的渐变_107" x1="-345.79" y1="-126.19" x2="-345.71" y2="-126.19" gradientTransform="matrix(187.07, 175.02, 175.02, -187.07, 86874.83, 36934.42)" xlink:href="#未命名的渐变_106"/><linearGradient id="未命名的渐变_108" x1="-345.79" y1="-126.22" x2="-345.71" y2="-126.22" gradientTransform="matrix(187.07, 175.02, 175.02, -187.07, 86881.72, 36927.05)" xlink:href="#未命名的渐变_106"/><linearGradient id="未命名的渐变_109" x1="-345.79" y1="-126.17" x2="-345.71" y2="-126.17" gradientTransform="matrix(187.07, 175.02, 175.02, -187.07, 86870.98, 36938.52)" xlink:href="#未命名的渐变_106"/><linearGradient id="未命名的渐变_110" x1="-345.79" y1="-126.21" x2="-345.71" y2="-126.21" gradientTransform="matrix(187.07, 175.02, 175.02, -187.07, 86879.84, 36929.06)" xlink:href="#未命名的渐变_106"/><linearGradient id="未命名的渐变_111" x1="-345.79" y1="-126.15" x2="-345.71" y2="-126.15" gradientTransform="matrix(187.07, 175.02, 175.02, -187.07, 86867.74, 36941.99)" xlink:href="#未命名的渐变_106"/><linearGradient id="未命名的渐变_112" x1="-345.79" y1="-126.27" x2="-345.71" y2="-126.27" gradientTransform="matrix(187.07, 175.02, 175.02, -187.07, 86890.56, 36917.6)" xlink:href="#未命名的渐变_106"/><linearGradient id="未命名的渐变_113" x1="-345.79" y1="-126.21" x2="-345.71" y2="-126.21" gradientTransform="matrix(187.07, 175.02, 175.02, -187.07, 86880.09, 36928.8)" xlink:href="#未命名的渐变_106"/><linearGradient id="未命名的渐变_114" x1="-345.79" y1="-126.22" x2="-345.71" y2="-126.22" gradientTransform="matrix(187.07, 175.02, 175.02, -187.07, 86881.2, 36927.6)" xlink:href="#未命名的渐变_106"/><linearGradient id="未命名的渐变_115" x1="-345.79" y1="-126.19" x2="-345.71" y2="-126.19" gradientTransform="matrix(187.07, 175.02, 175.02, -187.07, 86875.6, 36933.59)" xlink:href="#未命名的渐变_106"/><linearGradient id="未命名的渐变_116" x1="-345.79" y1="-126.2" x2="-345.71" y2="-126.2" gradientTransform="matrix(187.07, 175.02, 175.02, -187.07, 86878.22, 36930.79)" xlink:href="#未命名的渐变_106"/><linearGradient id="未命名的渐变_117" x1="-346.14" y1="-125.39" x2="-346.06" y2="-125.39" gradientTransform="matrix(1208.62, 1351.38, 1351.38, -1208.62, 587872.86, 316225.22)" xlink:href="#未命名的渐变"/><linearGradient id="未命名的渐变_119" x1="-346.14" y1="-125.39" x2="-346.06" y2="-125.39" gradientTransform="matrix(1208.62, 1351.38, 1351.38, -1208.62, 587875.73, 316222.7)" xlink:href="#未命名的渐变"/><linearGradient id="未命名的渐变_120" x1="-343.09" y1="-123.47" x2="-343.01" y2="-123.47" gradientTransform="matrix(-35.07, 35.07, 35.07, 35.07, -7596.12, 16390.02)" gradientUnits="userSpaceOnUse"><stop offset="0" stop-color="#fff"/><stop offset="0.01" stop-color="#fff"/><stop offset="1" stop-color="#d9fffe"/></linearGradient><linearGradient id="未命名的渐变_121" x1="-343.09" y1="-124.73" x2="-343.01" y2="-124.73" gradientTransform="matrix(-35.07, 35.07, 35.07, 35.07, -7548.48, 16439.48)" xlink:href="#未命名的渐变_120"/><linearGradient id="未命名的渐变_122" x1="-343.08" y1="-126.13" x2="-343" y2="-126.13" gradientTransform="matrix(-35.07, 35.07, 35.07, 35.07, -7493.83, 16489.85)" xlink:href="#未命名的渐变_120"/></defs><g id="龙"><g class="cls-2"><path class="cls-3" d="M126.6,70.4A56.6,56.6,0,1,1,70,13.8,56.61,56.61,0,0,1,126.6,70.4ZM70.1,20.5A49.9,49.9,0,1,0,120,70.4,49.91,49.91,0,0,0,70.1,20.5Z"/></g><g class="cls-2"><path class="cls-4" d="M123.5,56l-8.3-25.3L92.9,16.4s-10.4-4-11-4l-14.2.1c-.2.1-8.9.1-9.3.5s-2.2,1.8-2.2,1.8a5,5,0,0,0,2.7,2.3,5,5,0,0,0,1.6.4c.3,0,1.4.1,1.5.1a.37.37,0,0,1,.3.1c.2,0,.1,0,.3.1s.6.7,1,1,.2,0,.9.3,3.1.7,3.3.9.6.3,1.3.7h.8a49.91,49.91,0,0,1,49.9,49.9c0,1.3-.1,2.6-.2,3.9l1.2,1.4s2.6-8.4,2.6-8.7C123.7,66.7,123.5,56,123.5,56Z"/></g><g class="cls-2"><path class="cls-5" d="M113.1,26.2l-25.3-13-10.7-.7-9.8-.2c.2.1,6.1,6.5,6.1,6.5s0,.8.1.8L75,20h.7l.3-.2a4.33,4.33,0,0,0,.5.1c.1,0,.8.2.8.3a4.23,4.23,0,0,1,.7.5h.9l.1-.5.1-.3a.35.35,0,0,1,.2-.1c.1,0,8.3.9,9.3,1.2s.8.1,1,.6.5,1.4,1,1.4,2.7.8,3.2.9a49.16,49.16,0,0,1,7,3.5c2.1,1.3,5,3.7,9.4,8.4s4.3,4.2,5.8,7,2,4.4,3.3,8.8,5.7,16,5.7,16l3.2-6.4C128.4,61.1,113.1,26.2,113.1,26.2Z"/></g><g class="cls-6"><path class="cls-7" d="M22.1,65.4l-1.9-12-1,5-1.6,1.7L12.7,89s4.5.9,4.7.9S22.1,65.4,22.1,65.4Z"/></g><g class="cls-6"><path class="cls-8" d="M22.1,65.4h.1l-2-12.6L19,58.5l-1.6,1.7-5,29h.1l2.3.4c.6.1,1.2.2,1.6.3.2,0,.4.1.6.1h.4v-.2c0-.1,0-.1.1-.2.1-.3.2-.9.4-1.8,1.2-5.9,4.3-22.6,4.3-22.6h0l-.1.2H22v.3c-.2,1.3-1.4,7.4-2.4,13.2-.5,2.9-1.1,5.7-1.5,7.7-.2,1-.4,1.9-.5,2.5a6.37,6.37,0,0,1-.2.7V90h0l.1.1-.1-.1h0l.1.1-.1-.1.1.1V90h-.1l.1.1V90h-.1a5.76,5.76,0,0,1-1-.2c-.7-.1-1.6-.3-2.3-.4a6.37,6.37,0,0,1-.9-.2,1,1,0,0,1-.4-.1v.1h.1l4.9-28.8,1.6-1.7.9-4.4L22,65.5l.1-.1h0Z"/></g><g class="cls-6"><path class="cls-9" d="M32.4,94.3c-.2-.9-8.6-28.8-8.6-28.8l-4-2.2-5.4,37.3,9.7-1.9,8.2,4.4Z"/></g><g class="cls-6"><path class="cls-8" d="M32.4,94.3h.1v-.2c-.2-.6-.8-2.7-1.6-5.5-2.5-8.4-7-23.2-7-23.2v-.1L19.7,63l-5.5,37.6L24,98.7l8.4,4.5.1-9h0l-.1.1h-.1l-.1,8.6L24,98.5l-9.6,1.8,5.4-37,3.8,2.1.1-.1h-.1a.77.77,0,0,0,.1.3c.5,1.5,2.5,8.5,4.6,15.1,1,3.3,2,6.6,2.7,9.1.4,1.2.7,2.3.9,3a4.65,4.65,0,0,0,.3.9c0,.1.1.2.1.3v.1h.1Z"/></g><g class="cls-6"><path class="cls-7" d="M40.7,101.1c-.2-.7-12-29.4-12-29.4l-3-1.7L26,84l2.9,13.1,6.3,3.4Z"/></g><g class="cls-6"><path class="cls-8" d="M40.7,101.1h.1s0-.1-.1,0c.1-.2,0-.4-.1-.7-.8-2.2-3.8-9.3-6.5-16s-5.3-12.8-5.3-12.8h0l-3.3-1.8L25.9,84l2.9,13.2,6.4,3.4,5.7.6V101l-.2.1V101l-5.5-.6L29,97,26.1,84l-.4-13.8,2.9,1.6.1-.1-.1.1a.77.77,0,0,0,.1.3c.6,1.6,3.6,8.7,6.4,15.5,1.4,3.4,2.8,6.7,3.8,9.2.5,1.3.9,2.3,1.2,3.1a2.3,2.3,0,0,1,.3.9c0,.1.1.2.1.3v.1h0l.2-.1v0Z"/></g><g class="cls-6"><polygon class="cls-7" points="23 89.2 20.8 78.1 16 78.1 9.1 105.7 22.9 113.6 23 89.2"/></g><g class="cls-6"><polygon class="cls-8" points="23 89.2 23.1 89.2 20.9 78 15.9 78 9 105.8 23 113.8 23.1 89.2 23.1 89.2 23 89.2 22.9 89.2 22.7 113.4 9.3 105.6 16.1 78.2 20.7 78.2 22.9 89.2 23 89.2 22.9 89.2 23 89.2"/></g><g class="cls-6"><polygon class="cls-7" points="28.4 85.9 26.2 74.9 21.4 74.9 14.6 102.4 28.3 110.4 28.4 85.9"/></g><g class="cls-6"><polygon class="cls-8" points="28.4 85.9 28.6 85.9 26.3 74.8 21.3 74.8 14.4 102.5 28.4 110.6 28.6 85.9 28.6 85.9 28.4 85.9 28.3 85.9 28.2 110.2 14.7 102.4 21.5 75 26.1 75 28.3 85.9 28.4 85.9 28.3 85.9 28.4 85.9"/></g><g class="cls-6"><polygon class="cls-9" points="34.5 96.7 28.6 84.3 24.4 84.3 23.3 115.8 34.3 120.4 36.4 105 34.5 96.7"/></g><g class="cls-6"><polygon class="cls-8" points="34.5 96.7 34.7 96.6 28.6 84.2 24.3 84.2 23.2 115.9 34.4 120.6 36.5 104.9 34.7 96.6 34.7 96.6 34.5 96.7 34.4 96.7 36.2 105 34.2 120.2 23.5 115.7 24.5 84.4 28.5 84.4 34.4 96.7 34.5 96.7 34.4 96.7 34.5 96.7"/></g><g class="cls-6"><polygon class="cls-7" points="30.3 91.2 36.8 91.2 61.7 118.1 66.8 131.2 24.1 132 30.3 91.2"/></g><g class="cls-6"><polygon class="cls-8" points="30.3 91.2 30.3 91.3 36.8 91.3 61.6 118.2 66.6 131.1 24.3 131.9 30.4 91.2 30.3 91.2 30.3 91.3 30.3 91.2 30.2 91.2 24 132.1 67 131.3 61.8 118.1 36.9 91.1 30.2 91.1 30.2 91.2 30.3 91.2"/></g><g class="cls-6"><path class="cls-10" d="M130.8,81.7c.9.1,3.1.2,2.8-.8-.1-.3-.7-.5-.9-.6a14.23,14.23,0,0,1-3.9-5.4c.4,0,.7.1,1.1.1s3.2.3,2.8-.5c-.1-.2-.6-.3-.8-.4-2.4-1.4-4-4.5-5.2-7.5-.5-1.2-.5-4-1.9-4-1.2,0-1.3,2.9-1.8,4-1.1,3-2.7,6.1-5.2,7.5-.2.1-.7.2-.8.4-.3.8,2.5.6,2.8.5s.7-.1,1.1-.1a14,14,0,0,1-3.9,5.4c-.2.1-.8.3-.9.6-.3,1,1.9.8,2.8.8-.3.6-.6,1.1-.8,1.6h13.2A2.35,2.35,0,0,0,130.8,81.7Z"/></g><g class="cls-6"><path class="cls-8" d="M130.8,81.7v.1c.3,0,.7.1,1.1.1a4.48,4.48,0,0,0,1.2-.1c.2-.1.3-.1.4-.2s.1-.1.1-.2a.35.35,0,0,1,.1-.2V81h0a.22.22,0,0,0-.2-.2.76.76,0,0,0-.4-.2c-.1,0-.1-.1-.2-.1a.1.1,0,0,1-.1-.1h0a13.41,13.41,0,0,1-3.8-5.3l-.1.1v.1c.4,0,.7.1,1.1.1h1.3a3.75,3.75,0,0,0,1.1-.1.52.52,0,0,0,.4-.2.1.1,0,0,0,.1-.1.35.35,0,0,0,.1-.2v-.2c0-.1-.1-.1-.2-.2s-.2-.1-.4-.2-.1-.1-.2-.1-.1,0-.1-.1a8.93,8.93,0,0,1-3-3.1,28.58,28.58,0,0,1-2.1-4.3c-.1-.3-.2-.7-.3-1.1a13.32,13.32,0,0,0-.5-1.9,4.35,4.35,0,0,0-.4-.7c-.1-.1-.2-.2-.3-.2s-.2-.1-.4-.1h0v0a.55.55,0,0,0-.5.2,2.76,2.76,0,0,0-.6.8,8.45,8.45,0,0,0-.5,1.7c-.1.3-.1.6-.2.8s-.1.5-.2.6A21.43,21.43,0,0,1,121,71a8.93,8.93,0,0,1-3,3.1.35.35,0,0,1-.2.1c-.1,0-.2.1-.4.2s-.1.1-.2.1-.1.1-.1.2h0v.2c0,.1,0,.1.1.2s.2.2.3.2a1.27,1.27,0,0,0,.6.1h2c.4,0,.7-.1,1.1-.1v-.1l-.1-.1a13.67,13.67,0,0,1-3.8,5.3.35.35,0,0,1-.2.1c-.1.1-.3.1-.4.2s-.1.1-.2.2-.1.1-.1.2h0v.2c0,.1,0,.2.1.2l.3.3a1.45,1.45,0,0,0,.7.2c.3,0,.5.1.8.1a3.75,3.75,0,0,0,1.1-.1v-.1l-.1-.1a11.94,11.94,0,0,0-.8,1.6l-.1.2h13.7l-.1-.2c-.6-.7-.8-1.2-1.2-1.7h0v0l-.1.1c.3.6.6,1.1.9,1.6l.1-.1v-.1H118.5v.1l.1.1a8,8,0,0,0,.8-1.6l.1-.2h-.2c-.3,0-.7.1-1.1.1a3.75,3.75,0,0,1-1.1-.1c-.2,0-.3-.1-.3-.2l-.1-.1v-.2h0l.1-.1a.52.52,0,0,1,.4-.2c.1,0,.1-.1.2-.1s.1-.1.2-.1a14,14,0,0,0,3.9-5.4l.1-.2h-.2c-.3,0-.7.1-1.1.1H119a2.79,2.79,0,0,1-1-.1c-.1,0-.2-.1-.3-.1l-.1-.1v-.2h0a.1.1,0,0,1,.1-.1c.1-.1.2-.1.3-.2s.1-.1.2-.1.1,0,.1-.1a10.56,10.56,0,0,0,3.1-3.2,25.62,25.62,0,0,0,2.1-4.4c.1-.3.2-.7.3-1.1a13.32,13.32,0,0,1,.5-1.9,1.61,1.61,0,0,1,.4-.7c.1-.1.2-.1.2-.2a.35.35,0,0,0,.2-.1h0c.2,0,.3,0,.4.1a1,1,0,0,1,.5.6,15.6,15.6,0,0,1,.5,1.6,7.49,7.49,0,0,0,.4,1.6,25.31,25.31,0,0,0,2.1,4.4,10.56,10.56,0,0,0,3.1,3.2c.1,0,.1.1.2.1s.2.1.4.2a.1.1,0,0,1,.1.1l.1.1v.2a.35.35,0,0,1-.2.1.75.75,0,0,1-.5.1h-2c-.4,0-.7-.1-1.1-.1h-.2l.1.2a13.25,13.25,0,0,0,3.9,5.4h0c.1,0,.1.1.2.1s.3.1.4.2a.1.1,0,0,1,.1.1l.1.1h0v.2c0,.1-.1.1-.2.2s-.4.1-.6.2-.5.1-.8.1a3.75,3.75,0,0,1-1.1-.1h-.2l.1.2Z"/></g><g class="cls-6"><path class="cls-11" d="M128.1,93.7c.9.1,3.1.2,2.8-.8-.1-.3-.7-.5-.9-.6a14.23,14.23,0,0,1-3.9-5.4c.3,0,.7.1,1.1.1s3.2.3,2.8-.5c-.1-.2-.6-.3-.8-.4-2.4-1.4-4-4.5-5.2-7.5-.5-1.2-.5-4-1.9-4-1.2,0-1.3,2.9-1.8,4-1.1,3-2.7,6.1-5.2,7.5-.2.1-.7.2-.8.4-.3.8,2.5.6,2.8.5s.7-.1,1.1-.1a14,14,0,0,1-3.9,5.4c-.2.1-.8.3-.9.6-.3,1,1.9.8,2.8.8-.3.6-.6,1.1-.8,1.6H129C128.7,94.8,128.4,94.2,128.1,93.7Z"/></g><g class="cls-6"><path class="cls-8" d="M128.1,93.7v.1c.3,0,.7.1,1.1.1a4.48,4.48,0,0,0,1.2-.1c.2-.1.3-.1.4-.2s.1-.1.1-.2a.35.35,0,0,1,.1-.2V93h0a.22.22,0,0,0-.2-.2.76.76,0,0,0-.4-.2c-.1,0-.1-.1-.2-.1a.1.1,0,0,1-.1-.1h0a13.41,13.41,0,0,1-3.8-5.3l-.1.1v.1c.3,0,.7.1,1.1.1h1.3a3.75,3.75,0,0,0,1.1-.1.52.52,0,0,0,.4-.2.1.1,0,0,0,.1-.1.35.35,0,0,0,.1-.2v-.2c0-.1-.1-.1-.2-.2s-.2-.1-.4-.2-.1-.1-.2-.1-.1,0-.1-.1a8.93,8.93,0,0,1-3-3.1,28.58,28.58,0,0,1-2.1-4.3c-.1-.3-.2-.7-.3-1.1a13.32,13.32,0,0,0-.5-1.9,4.35,4.35,0,0,0-.4-.7c-.1-.1-.2-.2-.3-.2s-.2-.1-.4-.1h0v0c-.2,0-.3.1-.5.2a2.76,2.76,0,0,0-.6.8,8.45,8.45,0,0,0-.5,1.7c-.1.3-.1.6-.2.8s-.1.5-.2.6a21.43,21.43,0,0,1-2.1,4.3,8.93,8.93,0,0,1-3,3.1.35.35,0,0,1-.2.1c-.1,0-.2.1-.4.2s-.1.1-.2.1-.1.1-.1.2h0v.2c0,.1,0,.1.1.2s.2.2.3.2a1.27,1.27,0,0,0,.6.1h2c.4,0,.7-.1,1.1-.1v-.1l-.1-.1a13.67,13.67,0,0,1-3.8,5.3.35.35,0,0,1-.2.1c-.1.1-.3.1-.4.2s-.1.1-.2.2-.1.1-.1.2h0v.2c0,.1,0,.2.1.2l.3.3a1.45,1.45,0,0,0,.7.2c.3,0,.5.1.8.1a3.75,3.75,0,0,0,1.1-.1v-.1l-.1-.1a11.94,11.94,0,0,0-.8,1.6l-.1.2h13.7l-.1-.2c-.5-.7-.8-1.2-1.2-1.7h0v0l-.1.1c.3.6.6,1.1.9,1.6l.1-.1v-.1H115.8v.1l.1.1a8,8,0,0,0,.8-1.6l.1-.2h-.2c-.3,0-.7.1-1.1.1a3.75,3.75,0,0,1-1.1-.1c-.2,0-.3-.1-.3-.2l-.1-.1v-.2h0l.1-.1a.52.52,0,0,1,.4-.2c.1,0,.1-.1.2-.1s.1-.1.2-.1a14,14,0,0,0,3.9-5.4l.1-.2h-.2c-.3,0-.7.1-1.1.1h-1.3a2.79,2.79,0,0,1-1-.1c-.1,0-.2-.1-.3-.1l-.1-.1v-.2h0a.1.1,0,0,1,.1-.1c.1-.1.2-.1.3-.2s.1-.1.2-.1.1,0,.1-.1a10.56,10.56,0,0,0,3.1-3.2,25.62,25.62,0,0,0,2.1-4.4c.1-.3.2-.7.3-1.1a13.32,13.32,0,0,1,.5-1.9,1.61,1.61,0,0,1,.4-.7c.1-.1.2-.1.2-.2a.35.35,0,0,0,.2-.1h0c.2,0,.3,0,.4.1a1,1,0,0,1,.5.6,15.6,15.6,0,0,1,.5,1.6,7.49,7.49,0,0,0,.4,1.6,25.31,25.31,0,0,0,2.1,4.4,9.53,9.53,0,0,0,3.1,3.2c.1,0,.1.1.2.1s.2.1.4.2a.1.1,0,0,1,.1.1l.1.1v.2a.35.35,0,0,1-.2.1.75.75,0,0,1-.5.1h-2c-.3,0-.7-.1-1.1-.1h-.2l.1.2a13.25,13.25,0,0,0,3.9,5.4h0c.1,0,.1.1.2.1s.3.1.4.2a.1.1,0,0,1,.1.1l.1.1h0v.2c0,.1-.1.1-.2.2s-.4.1-.6.2-.5.1-.8.1a3.75,3.75,0,0,1-1.1-.1h-.2l.1.2Z"/></g><g class="cls-6"><polygon class="cls-9" points="32.7 100.8 39.2 100.8 74.6 128.2 69.2 135.9 26.5 136.7 32.7 100.8"/></g><g class="cls-6"><polygon class="cls-8" points="32.7 100.8 32.7 100.9 39.1 100.9 74.4 128.2 69.1 135.8 26.6 136.5 32.8 100.8 32.7 100.8 32.7 100.9 32.7 100.8 32.5 100.8 26.4 136.8 69.2 136.1 74.8 128.1 39.2 100.7 32.5 100.7 32.5 100.8 32.7 100.8"/></g><g class="cls-6"><polygon class="cls-4" points="114.7 97 118.6 88.2 121.3 88.2 122 110.8 114.8 114.1 113.5 103 114.7 97"/></g><g class="cls-6"><polygon class="cls-8" points="114.7 97 114.8 97.1 118.6 88.3 121.2 88.3 121.8 110.7 114.9 113.9 113.6 103 114.8 97 114.7 97 114.8 97.1 114.7 97 114.6 97 113.4 103 114.7 114.2 122.1 110.8 121.4 88 118.5 88 114.6 97 114.6 97 114.7 97"/></g><g class="cls-6"><polygon class="cls-5" points="117.4 93.1 113.2 93.1 97 112.4 93.7 121.8 121.5 122.4 117.4 93.1"/></g><g class="cls-6"><polygon class="cls-8" points="117.4 93.1 117.4 93 113.2 93 96.9 112.4 93.5 121.9 121.6 122.5 117.6 93 117.4 93 117.4 93.1 117.3 93.1 121.3 122.3 93.9 121.7 97.1 112.5 113.3 93.2 117.4 93.2 117.4 93.1 117.3 93.1 117.4 93.1"/></g><g class="cls-6"><polygon class="cls-4" points="115.8 98.9 111.6 98.9 88.6 121.2 92.1 127.6 119.8 128.2 115.8 98.9"/></g><g class="cls-6"><polygon class="cls-8" points="115.8 98.9 115.8 98.7 111.6 98.7 88.4 121.2 92 127.7 120 128.3 115.9 98.7 115.8 98.7 115.8 98.9 115.7 98.9 119.7 128 92.2 127.4 88.7 121.2 111.7 99 115.8 99 115.8 98.9 115.7 98.9 115.8 98.9"/></g><g class="cls-6"><path class="cls-12" d="M121.7,94.4c-4.2,5.5-9.4,12.2-15.7,16.2s-2.4,10.7-2.4,10.7l18.8-17.8Z"/></g><g class="cls-6"><path class="cls-8" d="M121.7,94.4h0c-4.2,5.4-9.5,12.2-15.8,16.1a8.22,8.22,0,0,0-2.9,3,6.59,6.59,0,0,0-.8,3.2,9.84,9.84,0,0,0,1.2,4.6l.1.1,18.9-17.9-.8-9.3.1.2h0l.7,9-18.8,17.8.1.1h.1a9.49,9.49,0,0,1-1.2-4.6,7,7,0,0,1,.7-3.1,7.61,7.61,0,0,1,2.8-2.9c6.2-4,11.5-10.7,15.6-16.3Z"/></g><g class="cls-6"><path class="cls-13" d="M106.8,119.8c.9.1,3.1.2,2.8-.8-.1-.3-.7-.5-.9-.6a14.23,14.23,0,0,1-3.9-5.4c.3,0,.7.1,1.1.1s3.2.3,2.8-.5c-.1-.2-.6-.3-.8-.4-2.4-1.4-4-4.5-5.2-7.5-.5-1.2-.5-4-1.9-4-1.2,0-1.3,2.9-1.8,4-1.1,3-2.7,6.1-5.2,7.5-.2.1-.7.2-.8.4-.3.8,2.5.6,2.8.5s.7-.1,1.1-.1a14,14,0,0,1-3.9,5.4c-.2.1-.8.3-.9.6-.3,1,1.9.8,2.8.8-.3.6-.6,1.1-.8,1.6h13.2A2.7,2.7,0,0,0,106.8,119.8Z"/></g><g class="cls-6"><path class="cls-8" d="M106.8,119.8v.1c.3,0,.7.1,1.1.1a4.48,4.48,0,0,0,1.2-.1c.2-.1.3-.1.4-.2s.1-.1.1-.2a.35.35,0,0,1,.1-.2v-.2h0a.22.22,0,0,0-.2-.2.76.76,0,0,0-.4-.2c-.1,0-.1-.1-.2-.1a.1.1,0,0,1-.1-.1h0a13.41,13.41,0,0,1-3.8-5.3l-.1.1v.1c.3,0,.7.1,1.1.1h1.3a3.75,3.75,0,0,0,1.1-.1.52.52,0,0,0,.4-.2.1.1,0,0,0,.1-.1.35.35,0,0,0,.1-.2v-.2c0-.1-.1-.1-.2-.2s-.2-.1-.4-.2-.1-.1-.2-.1-.1,0-.1-.1a8.93,8.93,0,0,1-3-3.1,28.58,28.58,0,0,1-2.1-4.3c-.1-.3-.2-.7-.3-1.1a13.32,13.32,0,0,0-.5-1.9,4.35,4.35,0,0,0-.4-.7c-.1-.1-.2-.2-.3-.2s-.2-.1-.4-.1h0v0c-.2,0-.3.1-.5.2a2.76,2.76,0,0,0-.6.8,8.45,8.45,0,0,0-.5,1.7c-.1.3-.1.6-.2.8s-.1.5-.2.6a21.43,21.43,0,0,1-2.1,4.3,8.93,8.93,0,0,1-3,3.1.35.35,0,0,1-.2.1c-.1,0-.2.1-.4.2s-.1.1-.2.1-.1.1-.1.2h0v.2c0,.1,0,.1.1.2s.2.2.3.2a1.27,1.27,0,0,0,.6.1h2c.4,0,.7-.1,1.1-.1v-.1l-.1-.1a13.67,13.67,0,0,1-3.8,5.3h0a.35.35,0,0,1-.2.1c-.1.1-.3.1-.4.2s-.1.1-.2.2-.1.1-.1.2h0v.2c0,.1,0,.2.1.2l.3.3a1.45,1.45,0,0,0,.7.2c.3,0,.5.1.8.1a3.75,3.75,0,0,0,1.1-.1V120l-.1-.1a11.94,11.94,0,0,0-.8,1.6l-.1.2h13.7l-.1-.2a13.6,13.6,0,0,1-1.2-1.7h0v0l-.1.1c.3.6.6,1.1.8,1.6l.1-.1v-.1H94.4v.1l.1.1a8,8,0,0,0,.8-1.6l.1-.2h-.2c-.3,0-.7.1-1.1.1a3.75,3.75,0,0,1-1.1-.1c-.2,0-.3-.1-.3-.2l-.1-.1v-.2h0l.1-.1a.52.52,0,0,1,.4-.2c.1,0,.1-.1.2-.1s.1-.1.2-.1h0a14,14,0,0,0,3.9-5.4l.1-.2h-.2c-.3,0-.7.1-1.1.1H94.9a2.79,2.79,0,0,1-1-.1c-.1,0-.2-.1-.3-.1l-.1-.1v-.2h0a.1.1,0,0,1,.1-.1c.1-.1.2-.1.3-.2s.1-.1.2-.1.1,0,.1-.1a10.56,10.56,0,0,0,3.1-3.2,25.62,25.62,0,0,0,2.1-4.4c.1-.3.2-.7.3-1.1a13.32,13.32,0,0,1,.5-1.9,1.61,1.61,0,0,1,.4-.7c.1-.1.2-.1.2-.2a.35.35,0,0,0,.2-.1h0c.2,0,.3,0,.4.1a1,1,0,0,1,.5.6,15.6,15.6,0,0,1,.5,1.6,7.49,7.49,0,0,0,.4,1.6,25.31,25.31,0,0,0,2.1,4.4,9.53,9.53,0,0,0,3.1,3.2c.1,0,.1.1.2.1s.2.1.3.2a.1.1,0,0,1,.1.1l.1.1v.2a.35.35,0,0,1-.2.1.75.75,0,0,1-.5.1h-2c-.3,0-.7-.1-1.1-.1h-.2l.1.2a13.25,13.25,0,0,0,3.9,5.4h0c.1,0,.1.1.2.1s.3.1.4.2a.1.1,0,0,1,.1.1l.1.1h0v.2c0,.1-.1.1-.2.2s-.3.1-.6.2-.5.1-.8.1a3.75,3.75,0,0,1-1.1-.1h-.2l.1.2Z"/></g><g class="cls-6"><path class="cls-14" d="M100.3,122.6c.9.1,3.1.2,2.8-.8-.1-.3-.7-.5-.9-.6a14.23,14.23,0,0,1-3.9-5.4c.3,0,.7.1,1.1.1s3.2.3,2.8-.5c-.1-.2-.6-.3-.8-.4-2.4-1.4-4-4.5-5.2-7.5-.5-1.2-.5-4-1.9-4-1.2,0-1.3,2.9-1.8,4-1.1,3-2.7,6.1-5.2,7.5-.2.1-.7.2-.8.4-.3.8,2.5.6,2.8.5s.7-.1,1.1-.1a14,14,0,0,1-3.9,5.4c-.2.1-.8.3-.9.6-.3,1,1.9.8,2.8.8-.3.6-.6,1.1-.8,1.6h13.2A2.35,2.35,0,0,0,100.3,122.6Z"/></g><g class="cls-6"><path class="cls-8" d="M100.3,122.6v.1c.3,0,.7.1,1.1.1a4.48,4.48,0,0,0,1.2-.1c.2-.1.3-.1.4-.2s.1-.1.1-.2a.35.35,0,0,1,.1-.2v-.2h0a.22.22,0,0,0-.2-.2.76.76,0,0,0-.4-.2c-.1,0-.1-.1-.2-.1a.1.1,0,0,1-.1-.1h0a13.41,13.41,0,0,1-3.8-5.3l-.1.1v.1c.3,0,.7.1,1.1.1h1.3a3.75,3.75,0,0,0,1.1-.1.52.52,0,0,0,.4-.2.1.1,0,0,0,.1-.1.35.35,0,0,0,.1-.2v-.2c0-.1-.1-.1-.2-.2s-.2-.1-.4-.2-.1-.1-.2-.1-.1,0-.1-.1a8.93,8.93,0,0,1-3-3.1,28.58,28.58,0,0,1-2.1-4.3c-.1-.3-.2-.7-.3-1.1a13.32,13.32,0,0,0-.5-1.9,4.35,4.35,0,0,0-.4-.7c-.1-.1-.2-.2-.3-.2s-.2-.1-.4-.1h0v0c-.2,0-.3.1-.5.2a2.76,2.76,0,0,0-.6.8,8.45,8.45,0,0,0-.5,1.7c-.1.3-.1.6-.2.8s-.1.5-.2.6a21.43,21.43,0,0,1-2.1,4.3,8.93,8.93,0,0,1-3,3.1h0a.35.35,0,0,1-.2.1c-.1,0-.2.1-.4.2s-.1.1-.2.1-.1.1-.1.2h0v.2c0,.1,0,.1.1.2s.2.2.3.2a1.27,1.27,0,0,0,.6.1h2c.4,0,.7-.1,1.1-.1v-.1l-.1-.1a13.67,13.67,0,0,1-3.8,5.3h0a.35.35,0,0,1-.2.1c-.1.1-.3.1-.4.2s-.1.1-.2.2-.1.1-.1.2h0v.2c0,.1,0,.2.1.2l.3.3a1.45,1.45,0,0,0,.7.2c.3,0,.5.1.8.1a3.75,3.75,0,0,0,1.1-.1v-.1l-.1-.1a11.94,11.94,0,0,0-.8,1.6l-.1.2h13.7l-.1-.2c-.6-.7-.8-1.2-1.2-1.7h0v0l-.1.1c.3.6.6,1.1.8,1.6l.1-.1V124H87.9v.1l.1.1a8,8,0,0,0,.8-1.6l.1-.2h-.2c-.3,0-.7.1-1.1.1a3.75,3.75,0,0,1-1.1-.1c-.2,0-.3-.1-.3-.2l-.1-.1v-.2h0l.1-.1a.52.52,0,0,1,.4-.2c.1,0,.1-.1.2-.1s.1-.1.2-.1h0a14,14,0,0,0,3.9-5.4l.1-.2h-.2c-.3,0-.7.1-1.1.1H88.4a2.79,2.79,0,0,1-1-.1c-.1,0-.2-.1-.3-.1l-.1-.1v-.2h0a.1.1,0,0,1,.1-.1c.1-.1.2-.1.3-.2s.1-.1.2-.1.1,0,.1-.1h0a10.56,10.56,0,0,0,3.1-3.2,25.62,25.62,0,0,0,2.1-4.4c.1-.3.2-.7.3-1.1a13.32,13.32,0,0,1,.5-1.9,1.61,1.61,0,0,1,.4-.7c.1-.1.2-.1.2-.2a.35.35,0,0,0,.2-.1h0c.2,0,.3,0,.4.1a1,1,0,0,1,.5.6,15.6,15.6,0,0,1,.5,1.6,7.49,7.49,0,0,0,.4,1.6,25.31,25.31,0,0,0,2.1,4.4,9.53,9.53,0,0,0,3.1,3.2c.1,0,.1.1.2.1s.2.1.3.2a.1.1,0,0,1,.1.1l.1.1v.2a.35.35,0,0,1-.2.1.75.75,0,0,1-.5.1h-2c-.3,0-.7-.1-1.1-.1h-.2l.1.2a13.25,13.25,0,0,0,3.9,5.4h0c.1,0,.1.1.2.1s.3.1.4.2a.1.1,0,0,1,.1.1l.1.1h0v.2c0,.1-.1.1-.2.2s-.3.1-.6.2-.5.1-.8.1a3.75,3.75,0,0,1-1.1-.1h-.2l.1.2Z"/></g><g class="cls-6"><path class="cls-15" d="M88.9,125.8c.9.1,3.1.2,2.8-.8-.1-.3-.7-.5-.9-.6a14.23,14.23,0,0,1-3.9-5.4c.3,0,.7.1,1.1.1s3.2.3,2.8-.5c-.1-.2-.6-.3-.8-.4-2.4-1.4-4-4.5-5.2-7.5-.5-1.2-.5-4-1.9-4-1.2,0-1.3,2.9-1.8,4-1.1,3-2.7,6.1-5.2,7.5-.2.1-.7.2-.8.4-.3.8,2.5.6,2.8.5s.7-.1,1.1-.1a14,14,0,0,1-3.9,5.4c-.2.1-.8.3-.9.6-.3,1,1.9.8,2.8.8-.3.6-.6,1.1-.8,1.6H89.4A2.35,2.35,0,0,0,88.9,125.8Z"/></g><g class="cls-6"><path class="cls-8" d="M88.9,125.8v.1c.3,0,.7.1,1.1.1a4.48,4.48,0,0,0,1.2-.1c.2-.1.3-.1.4-.2s.1-.1.1-.2a.35.35,0,0,1,.1-.2v-.2h0a.22.22,0,0,0-.2-.2.76.76,0,0,0-.4-.2c-.1,0-.1-.1-.2-.1a.1.1,0,0,1-.1-.1h0a13.41,13.41,0,0,1-3.8-5.3L87,119v.1c.3,0,.7.1,1.1.1h1.3a3.75,3.75,0,0,0,1.1-.1.52.52,0,0,0,.4-.2.1.1,0,0,0,.1-.1.35.35,0,0,0,.1-.2v-.2c0-.1-.1-.1-.2-.2s-.2-.1-.4-.2-.1-.1-.2-.1-.1,0-.1-.1h0a8.93,8.93,0,0,1-3-3.1,28.58,28.58,0,0,1-2.1-4.3c-.1-.3-.2-.7-.3-1.1a13.32,13.32,0,0,0-.5-1.9,4.35,4.35,0,0,0-.4-.7c-.1-.1-.2-.2-.3-.2s-.2-.1-.4-.1h0v0c-.2,0-.3.1-.5.2a2.76,2.76,0,0,0-.6.8,8.45,8.45,0,0,0-.5,1.7c-.1.3-.1.6-.2.8s-.1.5-.2.6a21.43,21.43,0,0,1-2.1,4.3,8.93,8.93,0,0,1-3,3.1h0a.35.35,0,0,1-.2.1c-.1,0-.2.1-.4.2s-.1.1-.2.1-.1.1-.1.2h0v.2c0,.1,0,.1.1.2s.2.2.3.2a1.27,1.27,0,0,0,.6.1h2c.4,0,.7-.1,1.1-.1V119l-.1-.1a13.67,13.67,0,0,1-3.8,5.3h0a.35.35,0,0,1-.2.1c-.1.1-.3.1-.4.2s-.1.1-.2.2-.1.1-.1.2h0v.2c0,.1,0,.2.1.2l.3.3a1.45,1.45,0,0,0,.7.2c.3,0,.5.1.8.1a3.75,3.75,0,0,0,1.1-.1v-.1l-.1-.1a11.94,11.94,0,0,0-.8,1.6l-.1.2H90.2l-.1-.2a3.92,3.92,0,0,1-1.2-1.4h0v0l-.1.1c.3.6.6,1.1.8,1.6l.1-.1v-.1H76.5v.1l.1.1a8,8,0,0,0,.8-1.6l.1-.2h-.2c-.3,0-.7.1-1.1.1a3.75,3.75,0,0,1-1.1-.1c-.2,0-.3-.1-.3-.2l-.1-.1v-.2h0l.1-.1a.52.52,0,0,1,.4-.2c.1,0,.1-.1.2-.1s.1-.1.2-.1h0a14,14,0,0,0,3.9-5.4l.1-.2h-.2c-.3,0-.7.1-1.1.1H77a2.79,2.79,0,0,1-1-.1c-.1,0-.2-.1-.3-.1l-.1-.1v-.2h0a.1.1,0,0,1,.1-.1c.1-.1.2-.1.3-.2s.1-.1.2-.1.1,0,.1-.1h0a10.56,10.56,0,0,0,3.1-3.2,25.62,25.62,0,0,0,2.1-4.4c.1-.3.2-.7.3-1.1a13.32,13.32,0,0,1,.5-1.9,1.61,1.61,0,0,1,.4-.7c.1-.1.2-.1.2-.2a.35.35,0,0,0,.2-.1h0v0h0v0h0c.2,0,.3,0,.4.1a1,1,0,0,1,.5.6,15.6,15.6,0,0,1,.5,1.6,7.49,7.49,0,0,0,.4,1.6,25.31,25.31,0,0,0,2.1,4.4,9.53,9.53,0,0,0,3.1,3.2h0c.1,0,.1.1.2.1s.2.1.3.2a.1.1,0,0,1,.1.1l.1.1v.2a.35.35,0,0,1-.2.1.75.75,0,0,1-.5.1h-2c-.3,0-.7-.1-1.1-.1h-.2l.1.2a13.25,13.25,0,0,0,3.9,5.4h0c.1,0,.1.1.2.1s.3.1.4.2a.1.1,0,0,1,.1.1l.1.1h0v.2c0,.1-.1.1-.2.2s-.3.1-.6.2-.5.1-.8.1a3.75,3.75,0,0,1-1.1-.1h-.2l.1.2Z"/></g><path class="cls-1" d="M55.5,22.8v-.1l-.2-.4a.1.1,0,0,0-.1-.1.35.35,0,0,0-.1-.2c-.1,0-.3.1-.4.1h-.2c0,.1-.1.1-.1.2a.1.1,0,0,1-.1.1c-.1,0,0,.1-.1.1v.1l-.1.2h.3l.1.1a.35.35,0,0,1,.1.2,1.38,1.38,0,0,1,.3.4h0c.2-.1.3-.1.5-.2h0V23A.31.31,0,0,0,55.5,22.8Z"/><path class="cls-1" d="M53.7,22.5a1.38,1.38,0,0,1-.3-.4h0a2.49,2.49,0,0,1-.8.1h-2l-.1.7h0l-.1.4L50,23h-.1c-.1-.1-.2-.1-.3-.2s-.4-.3-.6-.4a.35.35,0,0,1-.2-.1c-.1,0-.2.2-.2.3v.8a.66.66,0,0,0,.7.6h.2a4.51,4.51,0,0,0,1.1-.3h0c.2-.1.3-.1.5-.2a4.51,4.51,0,0,1,1.1-.3h.3a5,5,0,0,1,1.2.2.31.31,0,0,1,.2.1L54,23v-.1l-.2-.2C53.8,22.6,53.8,22.5,53.7,22.5Z"/><path class="cls-16" d="M19,36.3c-.1-.1-.3-.2-.4-.3A1.38,1.38,0,0,0,19,36.3Z"/><path class="cls-17" d="M23,52.2c-.4,0-.8.1-1.1.1A3.75,3.75,0,0,1,23,52.2Z"/><path class="cls-18" d="M20.5,52.5a1.88,1.88,0,0,0-.8.2A1.88,1.88,0,0,1,20.5,52.5Z"/><path class="cls-19" d="M24.5,52.1c-.5,0-1,.1-1.5.1C23.4,52.2,24,52.1,24.5,52.1Z"/><path class="cls-20" d="M17.9,53.8c.1-.2.3-.3.5-.5Z"/><path class="cls-21" d="M21.6,52.3c-.4,0-.7.1-1,.1C21,52.4,21.3,52.3,21.6,52.3Z"/><path class="cls-22" d="M17.5,34.8c0-.1-.1-.2-.1-.3A.37.37,0,0,0,17.5,34.8Z"/><path class="cls-23" d="M17.3,34.3c0-.1-.1-.2-.1-.3C17.2,34.2,17.2,34.3,17.3,34.3Z"/><path class="cls-24" d="M17.7,35.2c-.1-.1-.1-.2-.2-.3C17.6,35,17.7,35.1,17.7,35.2Z"/><path class="cls-25" d="M18.1,35.6l-.3-.3Z"/><path class="cls-26" d="M18.5,36c-.1-.1-.3-.2-.4-.4C18.2,35.8,18.4,35.9,18.5,36Z"/><path class="cls-27" d="M13.8,60.2a1.38,1.38,0,0,1-.3-.4A1.38,1.38,0,0,1,13.8,60.2Z"/><path class="cls-28" d="M17,55.2c-.1.2-.1.4-.2.6A1.42,1.42,0,0,0,17,55.2Z"/><path class="cls-29" d="M14.5,60.9c-.1-.1-.2-.2-.3-.2C14.3,60.8,14.4,60.8,14.5,60.9Z"/><path class="cls-30" d="M15,61.3c-.1-.1-.3-.2-.4-.3A1.38,1.38,0,0,1,15,61.3Z"/><path class="cls-31" d="M16.9,55.9c0,.2-.1.4-.1.6A1.27,1.27,0,0,1,16.9,55.9Z"/><path class="cls-32" d="M17.4,54.5l-.3.6Z"/><path class="cls-33" d="M17.8,54c-.1.2-.3.3-.4.5A1,1,0,0,1,17.8,54Z"/><path class="cls-34" d="M13.5,59.8a.76.76,0,0,1-.2-.4A.76.76,0,0,0,13.5,59.8Z"/><path class="cls-35" d="M13.1,58.8v-.3C13,58.6,13.1,58.7,13.1,58.8Z"/><path class="cls-36" d="M14.1,60.6c-.1-.1-.2-.2-.2-.3C14,60.4,14,60.5,14.1,60.6Z"/><path class="cls-37" d="M13.2,59.3c0-.1-.1-.2-.1-.3C13.1,59.1,13.2,59.2,13.2,59.3Z"/><path class="cls-38" d="M17.1,33.4v-.5A.45.45,0,0,0,17.1,33.4Z"/><path class="cls-39" d="M13,58.4a.6.6,0,0,1,.1-.4A.76.76,0,0,1,13,58.4Z"/><path class="cls-40" d="M17.1,33.9a.37.37,0,0,0-.1-.3A.37.37,0,0,1,17.1,33.9Z"/><path class="cls-41" d="M39.4,22.6h.2c0,.1-.1,0-.2,0Z"/><path class="cls-42" d="M38.2,22.7h0c.2,0,.3-.1.5-.1h0A.9.9,0,0,1,38.2,22.7Z"/><path class="cls-8" d="M57,23.8a2.59,2.59,0,0,0-1-1.1c-.1,0-.1-.1-.2-.1h-.1l-.2-.1.1-.2c0-.1,0-.1.1-.2s.1-.2.1-.3a.22.22,0,0,1,.2-.2,1.38,1.38,0,0,0,.4-.3,1,1,0,0,0,.3-1,4.87,4.87,0,0,0-.4-1.1c-.1-.3-.3-.4-.6-.5s-.3-.1-.5-.1H55c-.1-.1-.2-.3-.3-.4s-.1-.2-.2-.3a7.68,7.68,0,0,0-1.6-1.5,7.54,7.54,0,0,0-1.3-.6,2.35,2.35,0,0,0-.8-.2c-.2,0-.3-.1-.5-.1h-.1c-.2-.1-.5-.1-.7-.2a2.09,2.09,0,0,1-.6-.4c-.1-.1-.2-.1-.4-.2a4.28,4.28,0,0,0-1.7-.6H42.5v.2h0v.2l.2.1c.1,0,.1,0,.2.1s.3.1.5.1h2.3c.5,0,.9.1,1.3.1a3.7,3.7,0,0,1,1.1.5c.1.1.2.1.3.2s.4.3.6.4a5.23,5.23,0,0,0,1.6.6c.5.2.9.3,1.3.5a4.49,4.49,0,0,1,1.3,1c.2.2.3.5.5.7h-.2a7.72,7.72,0,0,0-1.5-.2h-.1a.85.85,0,0,0-.3-.5,1.14,1.14,0,0,0-.8-.3h-.5a.37.37,0,0,0-.3.1c-.2,0-.3.1-.5.1h-.2a6.88,6.88,0,0,1-1.3-.2,1.85,1.85,0,0,1-.7-.2c-.2-.1-.5-.1-.8-.2a2.2,2.2,0,0,0-.8-.1,1.49,1.49,0,0,0-.9.2h-.3c-.3,0-.6-.1-.9-.1-.6-.1-1.2-.2-1.7-.3-.3-.1-.7-.1-1-.2s-.3-.1-.5-.1h-.2a.52.52,0,0,0-.4.2.64.64,0,0,0,0,.6,1.56,1.56,0,0,0,.8.6H37.8c-.3,0-.7.1-1.2.1-.2,0-.4.2-.5.2a.76.76,0,0,0-.2.5c0,.2.1.3.3.4a.76.76,0,0,0,.4.1,8.62,8.62,0,0,0,1.7.1h.5a12.13,12.13,0,0,0,1.8-.1c.7-.1,1.3-.1,1.9-.2h.3a1.38,1.38,0,0,0-.4.3l-.3.3.4.1h0a7.72,7.72,0,0,0-1.5.2,9.35,9.35,0,0,0-2.2.7,6.58,6.58,0,0,0-2.3,1.7l-.1.1a.1.1,0,0,1-.1.1l-.2.2a106.74,106.74,0,0,0-10.8,3,24,24,0,0,0-6,2.9,5,5,0,0,0-2.5,4,3.93,3.93,0,0,0,1.5,3.2,23.18,23.18,0,0,0,5,2.7,22,22,0,0,0,5.2,1.7c1.9.4,3.2.7,3.9,2.2a2.29,2.29,0,0,1,.2,1.8c-.7,2.2-4.9,4.1-9.8,6.3l-3.3,1.5v.1l-1.4.7c-3,1.5-4.7,2.9-5.3,4.8q-.45,1.35,1.2,3a14.17,14.17,0,0,0,2.3,1.7h.1l1,.6-.7-1c-.9-1.3-1.3-2.3-1.1-2.9a1.34,1.34,0,0,1,.9-.9h0l.1-.1v-.2c0-1.2.2-3.5,1.7-4.7l1.1-.9.1.2a23.68,23.68,0,0,1,4.6-.5,66.15,66.15,0,0,0,7-.7c5-.8,10.3-4.1,12.1-6.1h0a4,4,0,0,0,.8-3.1A6.3,6.3,0,0,0,42.1,39c-1.1-1.2-4-1.8-7.2-2.4a37.46,37.46,0,0,1-6-1.5c-1.8-.7-2.7-1.6-2.7-2.6s1-2,3.2-2.9a53.64,53.64,0,0,1,7.3-2.1c1.5-.4,3.1-.7,4.5-1.1h.9l.1-.1c.1-.1.2-.2.2-.3.7-.2,1.3-.4,1.9-.6l-.5.4.8-.1a3.55,3.55,0,0,0,1-.2l-.2.5-.7.6.9-.2a6.47,6.47,0,0,0,1.3-.4h.6a4,4,0,0,0,1.5-.3h.1l-.4.3.5.1h.5a2,2,0,0,0,.7-.1,8.65,8.65,0,0,0,1.7-.7.37.37,0,0,1,.3-.1h.2c.2,0,.3.1.5.1h0l-.5.3.5.1a1.27,1.27,0,0,0,.6.1,1.78,1.78,0,0,0,1.3-.6.37.37,0,0,1-.1.3l-.1.5.5-.3a2,2,0,0,0,1-1V25l-.1.6.5-.4A1.05,1.05,0,0,0,57,23.8ZM18.4,53.4c-1.5,1.2-1.7,3.5-1.7,4.8v.1h-.1a1.44,1.44,0,0,0-1,1c-.2.7.2,1.7,1.1,3l.4.5-.6-.3c-2.8-1.7-4-3.2-3.5-4.6.6-1.8,2.3-3.2,5.3-4.7l.9-.4ZM56.6,25.2l-.2.2v-.3c0-.2,0-.5-.2-.6a1.68,1.68,0,0,1-1,1.2l-.2.1.1-.3a.64.64,0,0,0,0-.6,1.87,1.87,0,0,1-1.4.8.9.9,0,0,1-.5-.1l-.3-.1.2-.1.1-.1a1,1,0,0,0,.5-.4h0a1.45,1.45,0,0,1-.7.2.9.9,0,0,1-.5-.1h-.2a.76.76,0,0,0-.4.1,4.59,4.59,0,0,1-1.6.7c-.1.2-.3.2-.6.2H49l.7-.5c-.3.1-.5.2-.8.3s-.9.2-1.4.2h-.4l.2-.2a4.92,4.92,0,0,1-1.7.6l-.4.1,1.3-1.1a8.33,8.33,0,0,1-1.5.4h-.4l.9-.7a29.07,29.07,0,0,1-2.8,1,1.38,1.38,0,0,0-.3.4v.1l-.9-.1c-1.4.4-3,.8-4.5,1.1-5.2,1.2-10.6,2.5-10.6,5s4.5,3.4,8.8,4.3c3.1.6,6,1.2,7.1,2.4,2.1,2.1,2.4,4.2,1,6.2h0a25.79,25.79,0,0,1-12.1,6.1,64.49,64.49,0,0,1-6.9.7,23.68,23.68,0,0,0-4.6.5l-.1-.2,3.3-1.5c4.9-2.2,9.1-4.2,9.8-6.4a2.18,2.18,0,0,0-.2-1.9c-.8-1.6-2.2-1.9-4-2.3a20.68,20.68,0,0,1-5.2-1.7c-4.7-2.1-6.4-3.1-6.4-5.8,0-2.5,2.8-4.8,8.4-6.8a90.94,90.94,0,0,1,11.3-2.9l.2-.2a.1.1,0,0,1,.1-.1l.1-.1a6,6,0,0,1,2.2-1.6,8.64,8.64,0,0,1,2.1-.7c.5-.1,1.1-.1,1.6-.2h.4l-.5-.4.2-.1a1.39,1.39,0,0,1,1.1-.5c.5,0,.9-.1,1.3-.1h.4a.35.35,0,0,0-.2-.1,2,2,0,0,0-.8-.1,4.25,4.25,0,0,0-1.1.2h-.1c-.2,0-.4.1-.6.1-.6.1-1.2.1-1.9.2a11.48,11.48,0,0,1-1.8.1h-.5a9.15,9.15,0,0,1-1.7-.1c-.1,0-.2-.1-.4-.1s-.2-.2-.2-.3a.4.4,0,0,1,.2-.4.52.52,0,0,1,.4-.2,4.48,4.48,0,0,1,1.1-.1h3.6c-.2-.1-.5-.2-.7-.3a1.06,1.06,0,0,1-.7-.6c0-.1-.2-.3,0-.5,0-.1.2-.2.3-.2h.2c.2,0,.3.1.5.1a3.55,3.55,0,0,0,1,.2c.5.1,1,.2,1.7.3.3,0,.6.1.9.1h.3a2.2,2.2,0,0,1,.8-.1,2.49,2.49,0,0,1,.8.1c.2.1.5.1.7.2s.5.1.7.2a6.88,6.88,0,0,0,1.3.2h.2a.9.9,0,0,0,.5-.1.37.37,0,0,0,.3-.1h.5a1.45,1.45,0,0,1,.7.2,2.19,2.19,0,0,1,.3.5c0,.1.1.1.2.2a7.72,7.72,0,0,0,1.5.2h.4c0-.1-.1-.1-.1-.2-.2-.2-.3-.5-.5-.7a4.73,4.73,0,0,0-1.3-1.1,8.93,8.93,0,0,0-1.3-.5,10.41,10.41,0,0,1-1.6-.6,2.09,2.09,0,0,1-.6-.4c-.1-.1-.2-.1-.3-.2a10.91,10.91,0,0,0-1.1-.6c-.4-.1-.8-.1-1.4-.2H43.7c-.2,0-.3-.1-.5-.1s-.1,0-.2-.1h-.1v-.3h4.2a2.83,2.83,0,0,1,1.6.6c.1.1.2.1.4.2s.4.3.6.4a1.85,1.85,0,0,0,.7.2h.1a.9.9,0,0,0,.5.1c.3.1.5.1.8.2a3.79,3.79,0,0,1,1.3.6,5.56,5.56,0,0,1,1.6,1.4c.1.1.1.2.2.3s.2.3.3.4l.1.1h0c.2,0,.3.1.5.1a.66.66,0,0,1,.5.4c.1.3.3.7.4,1a1,1,0,0,1-.2.9c-.1.1-.3.2-.4.3s-.2.2-.2.3-.1.2-.1.3a.31.31,0,0,1-.1.2l-.1.3-.1-.3a.1.1,0,0,0-.1-.1c0-.1-.1-.2-.1-.3v-.1h-.1c-.1,0-.3.1-.4.1a.37.37,0,0,0-.3.1h0c0,.1-.1.2-.1.3v.1a.1.1,0,0,1-.1.1v.1l-.1.2-.3-.3-.4-.4h0a2.49,2.49,0,0,1-.8.1H50.6l-.2,1h-.5c-.1-.1-.2-.1-.2-.2-.2-.1-.4-.3-.6-.4a.35.35,0,0,1-.2-.1c-.2,0-.3.2-.3.4a2,2,0,0,0,.1.8.76.76,0,0,0,.8.7h.2a4.51,4.51,0,0,0,1.1-.3h0c.2-.1.4-.1.5-.2a3.54,3.54,0,0,1,1.1-.3h.3a5,5,0,0,1,1.2.2c.1,0,.2.1.3.1h0l.1-.7h.2v.1a.35.35,0,0,1,.1.2,1.38,1.38,0,0,1,.3.4l.1.1h.1c.2-.1.3-.1.5-.2h0v-.1h0v-.7l.2.1h.1a.35.35,0,0,0,.2.1,4.36,4.36,0,0,1,.9,1.1A1.1,1.1,0,0,1,56.6,25.2Zm-1.1-2c-.2,0-.3.1-.5.2h0c-.1-.1-.2-.3-.3-.4a.35.35,0,0,1-.1-.2l-.1-.1h-.3l.1-.2v-.1a7961314590657.68,7961314590657.68,0,0,0,.2-.2.35.35,0,0,1,.1-.2h.2a.6.6,0,0,0,.4-.1c0,.1.1.1.1.2a.1.1,0,0,0,.1.1l.2.4v.3a.37.37,0,0,0-.1.3Zm-1.4-.3V23l-.1.5a.31.31,0,0,1-.2-.1,2.54,2.54,0,0,0-1.2-.2h-.3a3.54,3.54,0,0,0-1.1.3c-.2.1-.3.1-.5.2h0c-.3.1-.7.2-1.1.3h-.2a.66.66,0,0,1-.7-.6,2.13,2.13,0,0,1,0-.8c0-.1,0-.3.2-.3a.31.31,0,0,1,.2.1,2.09,2.09,0,0,1,.6.4c.1.1.2.1.3.2h.1l.3.3.1-.4h0l.1-.7h2a2.2,2.2,0,0,0,.8-.1h0a1.38,1.38,0,0,1,.3.4l.2.2Z"/><path class="cls-8" d="M39.2,22.7a6.33,6.33,0,0,0-2.1.4c.6-.1,1.3-.2,2.1-.4Z"/><path class="cls-8" d="M56,22.8a.35.35,0,0,0-.2-.1h-.1l-.2-.1v.7h0v.1h0c-.2.1-.3.1-.5.2h-.1l-.1-.1c-.1-.1-.2-.3-.3-.4a.35.35,0,0,1-.1-.2v-.1h-.2l-.1.7h0c-.1,0-.2-.1-.3-.1a5,5,0,0,0-1.2-.2h-.3a3.54,3.54,0,0,0-1.1.3c-.2.1-.4.1-.5.2h0l-1.1.3h-.2a.76.76,0,0,1-.8-.7,2,2,0,0,1-.1-.8c0-.2.1-.4.3-.4s.2,0,.2.1a2.09,2.09,0,0,1,.6.4c.1.1.2.1.2.2h.1l.2.1.2-1h2.1a2.49,2.49,0,0,0,.8-.1h.1l.4.4.3.3.1-.2v-.1a.1.1,0,0,1,.1-.1V22c0-.1.1-.2.1-.3h0a.37.37,0,0,0,.3-.1c.1,0,.3-.1.4-.1h.1v.1c0,.1.1.2.1.3a.1.1,0,0,0,.1.1l.1.3.1-.3c0-.1,0-.1.1-.2s.1-.2.1-.3.1-.2.2-.3.3-.2.4-.3a.9.9,0,0,0,.2-.9,3,3,0,0,0-.4-1,.66.66,0,0,0-.5-.4c-.2,0-.3-.1-.5-.1h0a.1.1,0,0,1-.1-.1c-.1-.1-.2-.3-.3-.4s-.1-.2-.2-.3a5.56,5.56,0,0,0-1.6-1.4,7.54,7.54,0,0,0-1.3-.6,1.88,1.88,0,0,0-.8-.2c-.2,0-.3-.1-.5-.1h-.1c-.2-.1-.5-.1-.7-.2a2.09,2.09,0,0,1-.6-.4c-.1-.1-.2-.1-.4-.2a4.42,4.42,0,0,0-1.6-.6H42.7v.3h.1c.1,0,.1,0,.2.1s.3.1.5.1h2.3a5.9,5.9,0,0,1,1.4.2,2.38,2.38,0,0,1,1.1.6c.1.1.2.1.3.2s.4.3.6.4a5.23,5.23,0,0,0,1.6.6,8.93,8.93,0,0,1,1.3.5,3.48,3.48,0,0,1,1.3,1.1,3,3,0,0,1,.5.7c0,.1.1.1.1.2h-.4a7.72,7.72,0,0,0-1.5-.2c-.1,0-.2,0-.2-.2s-.1-.3-.3-.5a.84.84,0,0,0-.7-.2h-.5a.37.37,0,0,0-.3.1c-.2,0-.3.1-.5.1h-.2a5.85,5.85,0,0,1-1.3-.2,1.85,1.85,0,0,1-.7-.2c-.2-.1-.5-.1-.7-.2a2.2,2.2,0,0,0-.8-.1,2,2,0,0,0-.8.1h-.3c-.3,0-.6-.1-.9-.1-.6-.1-1.2-.2-1.7-.3-.3-.1-.7-.1-1-.2s-.3-.1-.5-.1h-.2c-.2,0-.3.1-.3.2-.2.2,0,.4,0,.5a1.87,1.87,0,0,0,.7.6c.2.1.5.2.7.3H38c-.3,0-.7.1-1.1.1a.71.71,0,0,0-.6.6c0,.1.1.2.2.3a.76.76,0,0,0,.4.1,8.62,8.62,0,0,0,1.7.1h.5a12.13,12.13,0,0,0,1.8-.1c.7-.1,1.3-.1,1.9-.2.2,0,.4-.1.6-.1h.1a4.25,4.25,0,0,1,1.1-.2,2.2,2.2,0,0,1,.8.1c.1,0,.1,0,.2.1h-.4a6.15,6.15,0,0,0-1.3.1,1.82,1.82,0,0,0-1.1.5V20l.7.3h-.4a8.75,8.75,0,0,0-1.6.2,8.64,8.64,0,0,0-2.1.7,6.27,6.27,0,0,0-2.2,1.6l-.1.1a.1.1,0,0,1-.1.1l-.2.2a77.8,77.8,0,0,0-11.4,2.9c-5.6,2-8.4,4.3-8.4,6.8,0,2.7,1.8,3.7,6.4,5.8a20.68,20.68,0,0,0,5.2,1.7c1.9.4,3.2.7,4,2.3a2.49,2.49,0,0,1,.2,1.9c-.8,2.2-5,4.1-9.8,6.4l-3.3,1.5.1.2a23.68,23.68,0,0,1,4.6-.5,62,62,0,0,0,6.9-.7c5-.8,10.2-4,12.1-6.1h0c1.4-2,1.1-4.1-1-6.2-1.1-1.2-4-1.8-7.1-2.4-4.3-.9-8.8-1.8-8.8-4.3s5.4-3.8,10.6-5c1.5-.4,3.1-.7,4.5-1.1l.9.1v-.1a1.38,1.38,0,0,0,.3-.4,29.07,29.07,0,0,0,2.8-1l-.9.7h.4a4.19,4.19,0,0,0,1.5-.4l-1.3,1.1.4-.1a4.92,4.92,0,0,0,1.7-.6l-.3.3h.4a3.19,3.19,0,0,0,1.4-.3c.3-.1.5-.2.8-.3l-.6.6h.7a1.27,1.27,0,0,0,.6-.1,5.93,5.93,0,0,0,1.6-.7c.1-.1.2-.1.4-.1h.2c.2,0,.3.1.5.1a1.85,1.85,0,0,0,.7-.2h0c-.1.1-.3.2-.5.4a.1.1,0,0,0-.1.1l-.2.1.3.1a4.33,4.33,0,0,1,.5.1,1.87,1.87,0,0,0,1.4-.8c.1.2,0,.4,0,.6l-.2.3.2-.1a1.68,1.68,0,0,0,1-1.2.73.73,0,0,1,.2.6v.3l.2-.2a1.2,1.2,0,0,0,.3-1.4A3.13,3.13,0,0,0,56,22.8Zm-8,3Zm8.5-.7a.7.7,0,0,0-.4-.9,1.5,1.5,0,0,1-1,1.4,1,1,0,0,0-.1-.9,1.62,1.62,0,0,1-1.4.9.9.9,0,0,1-.5-.1c.3-.2.7-.4.8-.8-.1,0-.2.1-.3.1a1.27,1.27,0,0,1-.6.1c-.2,0-.3,0-.4-.1h-.2a.9.9,0,0,0-.5.1,4.59,4.59,0,0,1-1.6.7c-.2,0-.4.1-.6.1h-.4c.3-.3.7-.5,1-.8h0a12.13,12.13,0,0,1-1.4.5,7,7,0,0,1-1.4.3h-.1l.6-.6a6.43,6.43,0,0,1-2.4,1c.5-.4.9-.9,1.4-1.3h0a4.66,4.66,0,0,1-2,.6c.5-.4,1.1-.8,1.6-1.2h0a24.2,24.2,0,0,1-3.9,1.6,1.38,1.38,0,0,0-.3.4h-.8c-6.1,1.8-15.2,2.9-15.2,6.3,0,4.5,13.5,4,16,6.8,2.2,2.2,2.3,4.2,1,6.1a25,25,0,0,1-12,6c-1.9.3-3.8.5-5.5.6h0c-.4,0-.8.1-1.2.1s-1,.1-1.5.1h0c-.4,0-.8.1-1.1.1h-.2c-.4,0-.7.1-1,.1h-.2a1.88,1.88,0,0,0-.8.2c7.7-3.7,14.9-6.2,13-10-1.5-2.8-4.5-1.6-9.3-4.1A26.18,26.18,0,0,1,19,36.4h0c-.1-.1-.3-.2-.4-.3h0c-.1-.1-.3-.2-.4-.4h0l-.3-.3a.1.1,0,0,0-.1-.1c-.1-.1-.1-.2-.2-.3a.1.1,0,0,0-.1-.1c0-.1-.1-.2-.1-.3a.31.31,0,0,0-.1-.2c0-.1-.1-.2-.1-.3v-.2a.37.37,0,0,0-.1-.3v-.7c0-5.7,14.8-8.8,22.1-10,.1-.1.3-.1.4-.2h-1a.9.9,0,0,0-.5.1H38c-.1,0-.3.1-.4.1h-.1a1.42,1.42,0,0,0-.6.2c.1-.1.1-.2.2-.2a6.91,6.91,0,0,1,2.2-1.6,1.69,1.69,0,0,1,.5-.2h0a8.8,8.8,0,0,1,1.5-.5,15,15,0,0,1,2-.2h.6a6.89,6.89,0,0,1-1-.4h0a.31.31,0,0,1-.2-.1l.2-.2h0a3,3,0,0,1,.8-.4c.4,0,.9-.1,1.3-.1h0c.2,0,.4.1.7.1a1,1,0,0,0-.5-.4,2.2,2.2,0,0,0-.8-.1,3.59,3.59,0,0,0-1.1.2,1.7,1.7,0,0,1-.7.1,12.25,12.25,0,0,1-1.9.2c-.6,0-1.2.1-1.8.1h-.5a8.6,8.6,0,0,1-1.6-.1c-.1,0-.2-.1-.4-.1s-.2-.3,0-.5.2-.2.3-.2a4.48,4.48,0,0,1,1.1-.1h3.6a4.1,4.1,0,0,1,1.1.1h.2a.37.37,0,0,1-.3-.1,4.8,4.8,0,0,1-1.7-.5,1.16,1.16,0,0,1-.7-.5.3.3,0,0,1,0-.4c.1-.1.1-.1.2-.1h.1c.5.1,1,.3,1.5.4l1.7.3a5.28,5.28,0,0,0,1.3.1h.1a2.2,2.2,0,0,1,.8-.1,2.49,2.49,0,0,1,.8.1,7.37,7.37,0,0,1,1.4.4,6.75,6.75,0,0,0,1.4.2h.2a2.35,2.35,0,0,0,.8-.2h.4a.73.73,0,0,1,.6.2.76.76,0,0,1,.2.4c0,.2.2.2.3.2a7.72,7.72,0,0,0,1.5.2h.5c.1,0,.1-.1,0-.2-.2-.3-.5-.7-.7-1a4.49,4.49,0,0,0-1.3-1.1,6.94,6.94,0,0,0-1.3-.5,6.71,6.71,0,0,1-1.5-.6l-.9-.6a4.49,4.49,0,0,0-1.2-.6,6.75,6.75,0,0,0-1.4-.2H43.3c-.2,0-.4-.1-.6-.1v-.1a4.33,4.33,0,0,1,.5.1h1.3c.3,0,.5-.1.8-.1h1.4a3.14,3.14,0,0,1,1.6.6c.3.2.7.4,1,.6a6.89,6.89,0,0,1,.8.3l1.2.3a5.17,5.17,0,0,1,1.3.6,5,5,0,0,1,1.5,1.4c.2.2.3.5.5.7a.35.35,0,0,0,.2.1,1.27,1.27,0,0,0,.6.1c.2,0,.3.1.4.3s.3.7.4,1a.62.62,0,0,1-.2.7,1.38,1.38,0,0,1-.4.3c-.2.1-.3.2-.3.4a.76.76,0,0,1-.2.4c-.1-.2-.1-.3-.2-.4s-.1-.1-.2-.1h-.1a1.7,1.7,0,0,1-.7.1l-.1.1c-.1.1-.1.3-.2.4s0,.1-.1.2c-.2-.2-.3-.4-.5-.5l-.1-.1h-.1c-.3,0-.5.1-.8.1H50.8a4.48,4.48,0,0,1-1.1-.1c0,.3-.1.6-.1.9l-.1-.1c-.3-.2-.5-.4-.8-.6a.37.37,0,0,0-.3-.1.46.46,0,0,0-.4.5,2.77,2.77,0,0,0,.1.9.88.88,0,0,0,.9.8h.2a3.54,3.54,0,0,0,1.1-.3,4.28,4.28,0,0,1,1.6-.5h.3a5,5,0,0,1,1.2.2.76.76,0,0,1,.4.2c0-.3.1-.5.1-.8h0a2.18,2.18,0,0,0,.4.5c.1.1.1.2.2.2h.1c.2-.1.3-.1.5-.2s.1-.1.1-.2v-.5a.35.35,0,0,1,.2.1,2.44,2.44,0,0,1,.9,1.1C57,24.3,56.9,24.9,56.5,25.1ZM37,23.1a6.8,6.8,0,0,1,2.1-.4H39A11.8,11.8,0,0,1,37,23.1Z"/><path class="cls-8" d="M13,57.9c-.5,1.3.7,2.9,3.5,4.6l.6.3-.4-.5c-.9-1.3-1.3-2.3-1.1-3,.1-.4.4-.7,1-1h.1v-.1c0-1.3.2-3.6,1.7-4.8l.8-.6-.9.4C15.3,54.7,13.7,56.1,13,57.9Zm4.9-4.1-.1.1c-.1.2-.3.3-.4.5h0l-.3.6a.31.31,0,0,1-.1.2c-.1.2-.1.4-.2.6h0c0,.2-.1.4-.1.6v.2a10.28,10.28,0,0,0-.1,1.7h0c-1.2.5-1.8,1.5.1,4.2-.3-.2-.9-.6-1.6-1.1h0c-.1-.1-.3-.2-.4-.3l-.1-.1c-.1-.1-.2-.2-.3-.2l-.1-.1c-.1-.1-.2-.2-.2-.3l-.1-.1a1.38,1.38,0,0,1-.3-.4h0a.76.76,0,0,1-.2-.4.1.1,0,0,0-.1-.1c0-.1-.1-.2-.1-.3v-.6a.6.6,0,0,1,.1-.4c.7-1.9,2.5-3.3,5.2-4.6A.85.85,0,0,0,17.9,53.8Z"/><path class="cls-8" d="M34,44.3a2.72,2.72,0,0,0-.8-1,2.57,2.57,0,0,1-.1,1.5c-.4,1.1-1.5,2.2-3.5,3.3-1.8,1-4.1,2.1-6.5,3.2-.6.3-1.1.5-1.7.8a23.28,23.28,0,0,1,2.9-.2c.4,0,.9-.1,1.4-.1,4.2-2,7.8-3.8,8.5-5.7A2.82,2.82,0,0,0,34,44.3Z"/><path class="cls-8" d="M34.2,44.2a3.89,3.89,0,0,0-1.5-1.6v.1c1.9,3.7-5.3,6.3-13,10,.2-.1.5-.1.8-.2h.2c.3,0,.6-.1,1-.1h.2c.4,0,.7-.1,1.1-.1h0c.5,0,1-.1,1.5-.1s.8-.1,1.2-.1C31.4,49.3,35.7,47.1,34.2,44.2Zm-8.6,7.6c-.5,0-.9.1-1.4.1-1.1.1-2.1.1-2.9.2.6-.3,1.2-.5,1.7-.8a66,66,0,0,0,6.5-3.2c2-1.2,3.1-2.3,3.5-3.3a2.57,2.57,0,0,0,.1-1.5,3.92,3.92,0,0,1,.8,1,2.29,2.29,0,0,1,.2,1.8C33.5,48,29.9,49.8,25.6,51.8Z"/><path class="cls-8" d="M25.7,52h0c-.4,0-.8.1-1.2.1C24.9,52.1,25.3,52,25.7,52Z"/><path class="cls-43" d="M25.7,52h0c-.4,0-.8.1-1.2.1C24.9,52.1,25.3,52,25.7,52Z"/><path class="cls-8" d="M14.3,60.4a1.42,1.42,0,0,1,.1-1.1,6.67,6.67,0,0,1,2.1-2.8,5,5,0,0,1,.9-2.5c-2.2,1.2-3.4,2.4-4,3.9A2.52,2.52,0,0,0,14.3,60.4Z"/><path class="cls-8" d="M13.1,58a.6.6,0,0,0-.1.4V59c0,.1.1.2.1.3a.1.1,0,0,0,.1.1c.1.1.1.3.2.4h0c.1.1.2.3.3.4l.1.1c.1.1.2.2.2.3l.1.1c.1.1.2.2.3.2l.1.1c.1.1.3.2.4.3h0a2.18,2.18,0,0,1-.4-1.9,6.64,6.64,0,0,1,2.1-2.7v-.3c0-.2.1-.4.1-.6h0a1.42,1.42,0,0,1,.2-.6A.31.31,0,0,1,17,55l.3-.6h0a1,1,0,0,1,.4-.5l.1-.1c.1-.2.3-.3.5-.5C15.6,54.6,13.8,56,13.1,58Zm4.2-3.9a8.15,8.15,0,0,0-.9,2.5,6.31,6.31,0,0,0-2.1,2.8,3.75,3.75,0,0,0-.1,1.1c-.7-.7-1.3-1.6-1-2.4A8.8,8.8,0,0,1,17.3,54.1Z"/><path class="cls-8" d="M17.8,54l.1-.1C17.8,53.9,17.8,53.9,17.8,54Z"/><path class="cls-44" d="M17.8,54l.1-.1C17.8,53.9,17.8,53.9,17.8,54Z"/><path class="cls-8" d="M13.9,60.3l-.1-.1A.1.1,0,0,0,13.9,60.3Z"/><path class="cls-45" d="M13.9,60.3l-.1-.1A.1.1,0,0,0,13.9,60.3Z"/><path class="cls-8" d="M14.6,61l-.1-.1Z"/><path class="cls-46" d="M14.6,61l-.1-.1Z"/><path class="cls-8" d="M14.2,60.7l-.1-.1C14.2,60.6,14.2,60.6,14.2,60.7Z"/><path class="cls-47" d="M14.2,60.7l-.1-.1C14.2,60.6,14.2,60.6,14.2,60.7Z"/><path class="cls-8" d="M17.1,55.1a.31.31,0,0,1-.1.2A.31.31,0,0,0,17.1,55.1Z"/><path class="cls-48" d="M17.1,55.1a.31.31,0,0,1-.1.2A.31.31,0,0,0,17.1,55.1Z"/><path class="cls-8" d="M13.2,59.4a.1.1,0,0,0-.1-.1C13.2,59.3,13.2,59.3,13.2,59.4Z"/><path class="cls-49" d="M13.2,59.4a.1.1,0,0,0-.1-.1C13.2,59.3,13.2,59.3,13.2,59.4Z"/><path class="cls-8" d="M20.8,30.4a24,24,0,0,1,6-2.9,90.94,90.94,0,0,1,11.3-2.9l.2-.2a.1.1,0,0,1,.1-.1l.1-.1a6.9,6.9,0,0,1,2.3-1.7,9.35,9.35,0,0,1,2.2-.7c.5-.1,1-.1,1.5-.2h0l-.5-.1.3-.3c.1-.1.3-.2.4-.3h-.3c-.6.1-1.2.1-1.9.2a11.48,11.48,0,0,1-1.8.1h-.8c-.2.1-.3.1-.5.2a7.12,7.12,0,0,0-1.7,1.1,8.87,8.87,0,0,1,1.5-.2.75.75,0,0,1,.5.1l.4.2-.4.2c-.1.1-.2.1-.4.2h0a90.91,90.91,0,0,0-13.8,3.3c-5.4,1.9-8.2,4.1-8.2,6.5a3.26,3.26,0,0,0,1.2,2.7,4.87,4.87,0,0,1-.1-1.2C18.3,33,19.1,31.6,20.8,30.4Z"/><path class="cls-8" d="M45.1,21.6c-.2-.1-.4-.1-.6-.2h0A1.42,1.42,0,0,1,45.1,21.6Z"/><path class="cls-8" d="M45.2,20.5c.2,0,.3-.1.5-.1A1.09,1.09,0,0,1,45.2,20.5Z"/><path class="cls-8" d="M38.5,24.6c.2-.1.4-.1.6-.2A.85.85,0,0,0,38.5,24.6Z"/><path class="cls-8" d="M39.2,24.4c.2,0,.3-.1.5-.1A.75.75,0,0,0,39.2,24.4Z"/><path class="cls-8" d="M47.5,20.9a.76.76,0,0,1-.4-.1C47.3,20.8,47.4,20.9,47.5,20.9Z"/><path class="cls-8" d="M39.7,24.2c.2,0,.3-.1.5-.1A.9.9,0,0,1,39.7,24.2Z"/><path class="cls-50" d="M39.6,22.7h-.2A.14.14,0,0,1,39.6,22.7Z"/><path class="cls-50" d="M39.6,22.7h-.2A.14.14,0,0,1,39.6,22.7Z"/><path class="cls-51" d="M38.2,22.7c.2,0,.3-.1.5-.1A.9.9,0,0,1,38.2,22.7Z"/><path class="cls-51" d="M38.2,22.7c.2,0,.3-.1.5-.1A.9.9,0,0,1,38.2,22.7Z"/><path class="cls-52" d="M37,23.1c.2-.1.4-.1.6-.2A.85.85,0,0,0,37,23.1Z"/><path class="cls-52" d="M37,23.1c.2-.1.4-.1.6-.2A.85.85,0,0,0,37,23.1Z"/><path class="cls-53" d="M44.5,21.4c.2-.1.3-.3.5-.4a1.76,1.76,0,0,0-.5.4Z"/><path class="cls-53" d="M44.5,21.4c.2-.1.3-.3.5-.4a1.76,1.76,0,0,0-.5.4Z"/><path class="cls-54" d="M46.6,20.4c.2,0,.3.1.4.1C46.9,20.4,46.8,20.4,46.6,20.4Z"/><path class="cls-54" d="M46.6,20.4c.2,0,.3.1.4.1C46.9,20.4,46.8,20.4,46.6,20.4Z"/><path class="cls-55" d="M37.7,22.9c.1,0,.3-.1.4-.1h.1A.75.75,0,0,0,37.7,22.9Z"/><path class="cls-55" d="M37.7,22.9c.1,0,.3-.1.4-.1h.1A.75.75,0,0,0,37.7,22.9Z"/><path class="cls-8" d="M37.7,22.9c.1,0,.3-.1.4-.1-.2,0-.3,0-.4.1Z"/><path class="cls-56" d="M37.7,22.9c.1,0,.3-.1.4-.1-.2,0-.3,0-.4.1Z"/><path class="cls-8" d="M37,23.1c.2-.1.4-.1.6-.2h0A.85.85,0,0,0,37,23.1Z"/><path class="cls-57" d="M37,23.1c.2-.1.4-.1.6-.2h0A.85.85,0,0,0,37,23.1Z"/><path class="cls-8" d="M40.7,24.4c.1-.1.3-.1.4-.2h-1a.9.9,0,0,0-.5.1h0c-.2,0-.3.1-.5.1H39a1.42,1.42,0,0,0-.6.2c.1-.1.1-.2.2-.2a6.91,6.91,0,0,1,2.2-1.6,8.64,8.64,0,0,1,2.1-.7,15,15,0,0,1,2-.2h.6c-.2-.1-.4-.1-.5-.2s-.4-.1-.6-.2h0c.2-.1.3-.3.5-.4s.3-.1.5-.2c.4,0,.9-.1,1.3-.1H47a.76.76,0,0,1,.4.1,1,1,0,0,0-.5-.4.76.76,0,0,0-.4-.1H45.4c-.2,0-.3.1-.5.1a1.7,1.7,0,0,1-.7.1,12.25,12.25,0,0,1-1.9.2c-.6,0-1.2.1-1.8.1h-.8c-.2.1-.4.1-.6.2a6.91,6.91,0,0,0-2.2,1.6c0,.1-.1.1-.2.2.2-.1.4-.1.6-.2h.1c.2,0,.3-.1.5-.1h0c.2,0,.3-.1.5-.1h.9c-.1.1-.3.1-.4.2C31.5,24,16.8,27,16.8,32.7v.7a.37.37,0,0,0,.1.3v.2c0,.1.1.2.1.3a.31.31,0,0,0,.1.2c0,.1.1.2.1.3a.1.1,0,0,0,.1.1c.1.1.1.2.2.3a.1.1,0,0,0,.1.1l.3.3h0c.1.1.3.2.4.4h0c.1.1.3.2.4.3h0a4.14,4.14,0,0,1-.5-1.9C18.5,28.7,33.3,25.7,40.7,24.4ZM17.3,32.9c0-2.4,2.7-4.5,8.2-6.5a90.91,90.91,0,0,1,13.8-3.3h0c.1-.1.3-.1.4-.2l.4-.2-.4-.2a.75.75,0,0,0-.5-.1,10.4,10.4,0,0,0-1.5.2,7.12,7.12,0,0,1,1.7-1.1c.2-.1.3-.1.5-.2h.8a12.13,12.13,0,0,0,1.8-.1c.7-.1,1.3-.1,1.9-.2h.3a1.38,1.38,0,0,0-.4.3l-.3.2.4.1h0a7.72,7.72,0,0,0-1.5.2,9.35,9.35,0,0,0-2.2.7,6.58,6.58,0,0,0-2.3,1.7l-.1.1a.1.1,0,0,1-.1.1l-.2.2a76.1,76.1,0,0,0-11.3,2.9,24,24,0,0,0-6,2.9,5,5,0,0,0-2.5,4,4.87,4.87,0,0,0,.1,1.2A3.62,3.62,0,0,1,17.3,32.9Z"/><path class="cls-8" d="M39.9,21c-.2.1-.4.1-.5.2.1-.1.3-.1.5-.2Z"/><path class="cls-58" d="M39.9,21c-.2.1-.4.1-.5.2.1-.1.3-.1.5-.2Z"/><path class="cls-8" d="M17.5,34.9a.1.1,0,0,0-.1-.1A.1.1,0,0,1,17.5,34.9Z"/><path class="cls-59" d="M17.5,34.9a.1.1,0,0,0-.1-.1A.1.1,0,0,1,17.5,34.9Z"/><path class="cls-8" d="M17.3,34.5a.31.31,0,0,0-.1-.2A.31.31,0,0,1,17.3,34.5Z"/><path class="cls-60" d="M17.3,34.5a.31.31,0,0,0-.1-.2A.31.31,0,0,1,17.3,34.5Z"/><path class="cls-8" d="M44.3,20h.2a.37.37,0,0,1-.3-.1,2.92,2.92,0,0,1-.9-.2c-.1,0-.1.1-.2.2.1,0,.1,0,.2.1h.1C43.6,19.9,43.9,20,44.3,20Z"/><path class="cls-61" d="M56.8,23.9a3.13,3.13,0,0,0-.9-1.1c-.1,0-.1-.1-.2-.1v.5c0,.1,0,.2-.1.2s-.3.1-.5.2H55a.22.22,0,0,1-.2-.2,2.18,2.18,0,0,0-.4-.5h0c0,.3-.1.5-.1.8-.2-.1-.3-.1-.4-.2a5,5,0,0,0-1.2-.2h-.3c-.6.1-1.1.4-1.6.5s-.8.2-1.1.3h-.2a.88.88,0,0,1-.9-.8,2.77,2.77,0,0,1-.1-.9.46.46,0,0,1,.4-.5.37.37,0,0,1,.3.1,2.41,2.41,0,0,1,.8.6l.1.1c0-.3.1-.6.1-.9.4,0,.7.1,1.1.1h1.2c.3,0,.5-.1.8-.1h.1a.1.1,0,0,1,.1.1l.5.5c0-.1.1-.1.1-.2a.76.76,0,0,1,.2-.4l.1-.1a1.7,1.7,0,0,1,.7-.1h.1c.1,0,.1,0,.2.1s.1.2.2.4c.1-.2.1-.3.2-.4s.1-.3.3-.4.3-.2.4-.3a.66.66,0,0,0,.2-.7,3,3,0,0,0-.4-1c-.1-.2-.2-.3-.4-.3s-.4-.1-.6-.1-.1-.1-.2-.1c-.2-.2-.3-.5-.5-.7a6.58,6.58,0,0,0-1.5-1.4c-.4-.2-.8-.4-1.3-.6l-1.2-.3a6.89,6.89,0,0,1-.8-.3c-.3-.2-.7-.4-1-.6a4.42,4.42,0,0,0-1.6-.6H45.8a2.2,2.2,0,0,0-.8.1H43.7a.75.75,0,0,1-.5-.1v.1c.2,0,.4.1.6.1H46a4.3,4.3,0,0,1,2.6.8l.9.6a4.71,4.71,0,0,0,1.5.6,5,5,0,0,1,1.3.5,3.48,3.48,0,0,1,1.3,1.1,8.65,8.65,0,0,1,.7,1c0,.1.1.1,0,.2h-.5c-.5-.1-1-.1-1.5-.2-.1,0-.3-.1-.3-.2a.76.76,0,0,0-.2-.4.73.73,0,0,0-.6-.2h-.4a2.35,2.35,0,0,0-.8.2h-.2a6.75,6.75,0,0,1-1.4-.2,7.37,7.37,0,0,1-1.4-.4,2,2,0,0,0-.8-.1,2.2,2.2,0,0,0-.8.1h-.1c-.4,0-.9-.1-1.3-.1l-1.7-.3a8.33,8.33,0,0,1-1.5-.4h-.1c-.1,0-.2,0-.2.1s0,.2,0,.4a1.16,1.16,0,0,0,.7.5,8.45,8.45,0,0,0,1.7.5.37.37,0,0,1,.3.1H43c-.4,0-.7-.1-1.1-.1H38.3c-.4,0-.8.1-1.1.1-.1,0-.2.1-.3.2s-.1.4,0,.5.2.1.4.1a8.6,8.6,0,0,0,1.6.1h.5c.6,0,1.2-.1,1.8-.1s1.3-.1,1.9-.2c.2,0,.5-.1.7-.1a5.16,5.16,0,0,1,1.1-.2,2.2,2.2,0,0,1,.8.1,1.76,1.76,0,0,1,.5.4c-.2,0-.5-.1-.7-.1h0a5.7,5.7,0,0,0-1.3.1.91.91,0,0,0-.8.4c-.1,0-.1.1-.2.2.1,0,.1,0,.2.1a4.18,4.18,0,0,1,1,.4h-.6c-.7.1-1.4.1-2,.2a8.8,8.8,0,0,0-1.5.5h0c-.2.1-.4.1-.6.2a6.91,6.91,0,0,0-2.2,1.6c0,.1-.1.1-.2.2.2-.1.4-.1.6-.2H38c.2,0,.3-.1.5-.1h0c.2,0,.3-.1.5-.1h.9c-.1.1-.3.1-.4.2C31.8,24.2,17,27.2,17,33v.7a.37.37,0,0,0,.1.3v.2c0,.1.1.2.1.3a.31.31,0,0,0,.1.2c0,.1.1.2.1.3a.1.1,0,0,0,.1.1c.1.1.1.2.2.3a.1.1,0,0,0,.1.1l.3.3h0c.1.1.3.2.4.4h0c.1.1.3.2.4.3h0a22.15,22.15,0,0,0,4.4,2.2c4.8,2.4,7.8,1.2,9.3,4.1,1.9,3.7-5.3,6.3-13,10,.2-.1.5-.1.8-.2h.2c.3,0,.6-.1,1-.1h.2c.4,0,.7-.1,1.1-.1h0c.5,0,1-.1,1.5-.1s.8-.1,1.2-.1c1.7-.1,3.6-.3,5.5-.6a25,25,0,0,0,12-6c1.3-1.9,1.2-3.9-1-6.1-2.5-2.8-16-2.3-16-6.8,0-3.4,9.1-4.5,15.2-6.3h.8c.1-.1.2-.3.3-.4a24.2,24.2,0,0,0,3.9-1.6h0c-.5.4-1.1.8-1.6,1.2a6.64,6.64,0,0,0,2-.6h0c-.5.4-.9.9-1.4,1.3a6.43,6.43,0,0,0,2.4-1l-.6.6h.1a3.19,3.19,0,0,0,1.4-.3c.5-.1,1-.4,1.4-.5h0c-.3.3-.7.5-1,.8h.4a1.27,1.27,0,0,0,.6-.1,4.59,4.59,0,0,0,1.6-.7.75.75,0,0,1,.5-.1h.2c.2,0,.3.1.4.1a1.27,1.27,0,0,0,.6-.1c.1,0,.2-.1.3-.1a2,2,0,0,1-.8.8c.2,0,.3.1.5.1a1.84,1.84,0,0,0,1.4-.9c.2.3.1.6.1.9a1.5,1.5,0,0,0,1-1.4,1,1,0,0,1,.4.9A1.07,1.07,0,0,0,56.8,23.9ZM25.6,51.8c-.5,0-.9.1-1.4.1-1.1.1-2.1.1-2.9.2.6-.3,1.2-.5,1.7-.8a66,66,0,0,0,6.5-3.2c2-1.2,3.1-2.3,3.5-3.3a2.57,2.57,0,0,0,.1-1.5,3.92,3.92,0,0,1,.8,1,2.29,2.29,0,0,1,.2,1.8C33.5,48,29.9,49.8,25.6,51.8ZM44.5,21.4c.2-.1.3-.3.5-.4a1.76,1.76,0,0,0-.5.4c.2.1.4.1.6.2a1.42,1.42,0,0,0-.6-.2Zm1.8-1h0ZM18.4,35.6a3.57,3.57,0,0,1-1.2-2.7c0-2.4,2.7-4.5,8.2-6.5a90.91,90.91,0,0,1,13.8-3.3h0c.1-.1.3-.1.4-.2l.4-.2-.4-.2a.75.75,0,0,0-.5-.1,10.4,10.4,0,0,0-1.5.2,7.12,7.12,0,0,1,1.7-1.1c.2-.1.3-.1.5-.2h.8a12.13,12.13,0,0,0,1.8-.1c.7-.1,1.3-.1,1.9-.2h.3a1.38,1.38,0,0,0-.4.3l-.2.2.4.1h0a7.72,7.72,0,0,0-1.5.2,9.35,9.35,0,0,0-2.2.7,6.58,6.58,0,0,0-2.3,1.7l-.1.1a.1.1,0,0,1-.1.1l-.2.2a76.1,76.1,0,0,0-11.3,2.9,24,24,0,0,0-6,2.9,5,5,0,0,0-2.5,4C18.3,34.8,18.3,35.2,18.4,35.6ZM40.7,24.1Zm4.7-2.3Zm1.4-1Z"/><path class="cls-62" d="M13.1,58a.6.6,0,0,0-.1.4V59c0,.1.1.2.1.3a.1.1,0,0,0,.1.1c.1.1.1.3.2.4h0c.1.1.2.3.3.4l.1.1c.1.1.2.2.2.3l.1.1c.1.1.2.2.3.2l.1.1c.1.1.3.2.4.3h0c.7.5,1.3.9,1.6,1.1-1.9-2.7-1.3-3.7-.1-4.2h0a11.56,11.56,0,0,1,.1-1.7v-.2c0-.2.1-.4.1-.6h0a1.42,1.42,0,0,1,.2-.6.31.31,0,0,1,.1-.2l.3-.6h0a1,1,0,0,1,.4-.5l.1-.1c.1-.2.3-.3.5-.5C15.6,54.6,13.8,56,13.1,58Zm4.2-3.9a8.15,8.15,0,0,0-.9,2.5,6.31,6.31,0,0,0-2.1,2.8,3.75,3.75,0,0,0-.1,1.1c-.7-.7-1.3-1.6-1-2.4A8.8,8.8,0,0,1,17.3,54.1Z"/><path class="cls-8" d="M43.2,19.7c-.1,0-.1.1-.2.2l.2-.2Z"/><path class="cls-63" d="M43.2,19.7c-.1,0-.1.1-.2.2l.2-.2Z"/><path class="cls-8" d="M43.2,19.9h0c-.1,0-.1,0-.2-.1C43,19.9,43.1,19.9,43.2,19.9Z"/><path class="cls-64" d="M43.2,19.9h0c-.1,0-.1,0-.2-.1C43,19.9,43.1,19.9,43.2,19.9Z"/><path class="cls-65" d="M109.5,22.7v-.4h0l.5.5c.1.1,0,.2,0,.3a.37.37,0,0,0,.1.3l4.5,4.5.1.1a1,1,0,0,0-.4.5c-.2.1-.3.3-.5.5s-.1.1-.2,0l-.5-.5-.3.3a1.76,1.76,0,0,1,.4.5c.1.1.1.1,0,.2l-.6.6c-.1,0-.1.1-.2.1h-2.3a.1.1,0,0,1,.1-.1l.1-.1a.87.87,0,0,1,.9-.4h1.1l.3-.3c-.2-.2-.3-.5-.7-.4l.1-.1a6,6,0,0,0,.8-.8c.1-.1.1-.1.2,0l.5.5c.1-.1.3-.2.4-.4l-.5-.5a11.41,11.41,0,0,0-1.1-1.1c-.1,0-.1-.1-.2-.1h-.7l.1.1.8.8a.37.37,0,0,0,.3.1l-.1.1-1.6,1.6a.19.19,0,0,1-.3,0L109,27.5c-.2-.2-.3-.4-.6-.4h0c.6-.6,1.2-1.2,1.9-1.8l.4.4c.1,0,.1.1.2.1h.6l-1.7-1.7a.1.1,0,0,0-.1.1c-.1.1-.1.1-.2,0s-.1-.1-.2-.1-.1-.1,0-.3l-.4-.4c-.1,0-.1.1-.2.1l-.3-.3v-.1c.1-.1.1-.1,0-.2l-.2-.2c-.1,0-.1-.1,0-.1.2-.2.2-.2.4,0C109.2,22.4,109.3,22.5,109.5,22.7Zm1.4,5.7c.1-.1.1-.1.2-.1l.9-.9c.1-.1.1-.1,0-.2L110.8,26l-.1-.1L109.6,27A15.41,15.41,0,0,0,110.9,28.4Z"/><path class="cls-66" d="M116.6,29.6a9.43,9.43,0,0,0-1,1c-.2-.2-.3-.4-.5-.5l-.1.1.5.5c.1.1.1.1,0,.3l-.7.7c-.1.1-.1.1-.2,0s-.3-.4-.5-.5a1.38,1.38,0,0,0-.3.4v.1l.3.3h1.5c.1,0,.2,0,.2-.1l.7-.7c-.1,0-.1-.1-.2-.1h-.2l.4-.4h.1l.2.2c.2-.1.3-.3.4-.4s.1-.1.2,0c.3.3.3.3,0,.5l-.1.1c-.1.1-.2.1-.2.2s.1.1.2.2v.1l-.2.2H117c-.2-.2-.2-.2-.4,0-.6.6-1.2,1.1-1.7,1.7-.1,0-.1.1-.2.1h-.6c.3-.3.6-.7.9-1h-1c-.1,0-.2,0-.2-.1L112,30.7h0a.82.82,0,0,1,.7.1l.4.4h.1l.4-.4-.5-.5h-.3a10,10,0,0,1,1.1-1l.3.3.2.2h.1v-.1c-.1-.1-.2-.3-.4-.4s-.1-.1,0-.2a4.35,4.35,0,0,1,.7-.6c.1-.1.1-.1.2,0l1,1A1.27,1.27,0,0,0,116.6,29.6Zm-.8.1-.7-.7-.2.2.7.7Zm-1.5.4c-.1-.1-.2-.2-.2-.3-.1.1-.2.2-.3.2v.1l.2.2C114.1,30.3,114.2,30.2,114.3,30.1Zm.3.9.3-.3-.2-.2-.3.3Z"/><path class="cls-67" d="M109.9,24.8c-.1-.1-.2-.3-.4-.4l-1.7-1.7c-.1-.1-.1-.1-.2,0l-.6.6h.3l-.3.3c-.2.2-.3.2-.6.2h-.9c-.1,0-.1,0-.2-.1l-1.6-1.6c-.1-.1-.1-.1,0-.2a1,1,0,0,0,.4-.5h-.9l.2-.2.2-.2c.1,0,.1-.1.2-.1h.8c.1,0,.2,0,.2-.1l.7-.7.1-.1h1.1c-.3.2-.4.5-.8.5s-.3.2-.5.4h.7a1.42,1.42,0,0,1,.6.2l.6.6.2-.2a1.38,1.38,0,0,0,.3-.4c.1-.1.1-.1.2,0l.1.1c.2.2.2.2,0,.5l-.3.3c-.1.1-.1.1,0,.2l1.1,1.1.8.8c.1.1.2.3.5.2h0c-.1.1-.3.2-.4.4h-.1c.3.2.2.2.2.1Zm-2.6-2.6-.6-.6h-1.6c-.1,0-.1,0-.2.1l-.5.5c-.1.1-.1.1,0,.2l.6.6a.67.67,0,0,0,.8.3.37.37,0,0,0,.3-.1l.3-.3A2.33,2.33,0,0,0,107.3,22.2Z"/><path class="cls-68" d="M109.9,24.8c-.2.2-.3.4-.5.5s-.3.3-.5.5-.1.1-.2,0l-.5-.5-.3.3.3.3h1.1l-.1.1-.1.1c-.4.4-.2.3-.8.3-.1,0-.1,0-.1-.1l-.8-.8c-.1-.1-.1-.1,0-.2l.5-.5c-.1-.1-.1-.1-.2-.1h-2.5c.2-.2.3-.4.5-.5s.2,0,.4,0h1.1c-.1,0-.1,0-.2-.1a.1.1,0,0,1,.1-.1,9.43,9.43,0,0,0,1-1c.1-.1.1,0,.2,0l1.5,1.5c-.2.2-.1.3.1.3Zm-1.9-1h0v.1l.9.9h.1v-.1a9,9,0,0,0-1-.9Zm-.4.3h0v.1l.9.9h.1V25a7.3,7.3,0,0,1-1-.9Z"/><path class="cls-69" d="M103.1,20.6h-.7a1.38,1.38,0,0,0,.3-.4.52.52,0,0,1,.4-.2h0a.83.83,0,0,0,.8-.3,1.38,1.38,0,0,0,.3-.4c-.1-.2-.1-.2-.5-.3l.4-.4.4.4.3-.3a.35.35,0,0,1-.2-.1c-.1-.1-.1-.1,0-.2s.2-.2.4,0a2.65,2.65,0,0,0,.6.5.37.37,0,0,0,.3.1l-.4.4h-.1c-.1,0-.1-.1-.2-.2s-.1,0-.2,0c-.2.2-.2.2,0,.4h0c.2.2.2.3-.1.4h-.1l-.3-.3-.5.5-1.2,1.2-.1.1H102a5.31,5.31,0,0,0,1.1-.9Z"/><path class="cls-70" d="M117.6,32.8l.5.5v.1a.52.52,0,0,0,.2.4.37.37,0,0,0,.3.1,1.38,1.38,0,0,1-.4.3h-.1l-.6-.6c-.2-.2-.2-.2-.5-.1l.1.1a4.35,4.35,0,0,1,.6.7c.1.1.1.1,0,.2s-.3.2-.5.2h-2c.2-.2.3-.5.8-.5h1.1l-.3-.3a.83.83,0,0,0-.8-.3h-.3l.5-.5h.8c-.1-.1-.1-.2-.2-.2a.76.76,0,0,1,.9.3h0C117.6,32.9,117.6,32.9,117.6,32.8Z"/><path class="cls-71" d="M117.9,31.1l.6.6v-.5h.1l.1.1a.63.63,0,0,1,.3.8.31.31,0,0,0,.1.2c.1.2.3.3.4.5l.1.1-.2.2h-.1a.1.1,0,0,1-.1-.1c-.1-.1-.1-.1-.2,0h-.1l-.2-.2c-.1-.1-.1-.1,0-.2v-.1l-.3-.3a.1.1,0,0,0-.1.1c-.1.1-.1.1-.2,0l-.1-.1c-.2-.1-.2-.1,0-.3-.1-.1-.1-.2-.2-.2s-.1-.1,0-.1A.4.4,0,0,1,117.9,31.1Z"/><path class="cls-72" d="M116.3,32.4l.5-.5h.6c.2,0,.3,0,.4.1a15.93,15.93,0,0,0,1.3,1.3l.1.1-.3.3-.4-.4a5.72,5.72,0,0,1-.7-.8.37.37,0,0,0-.3-.1,4.74,4.74,0,0,1-1.2,0Z"/><path class="cls-73" d="M104.1,20.8c.2-.1.3-.3.5-.5h.7l-.5.5h-.7Z"/><path class="cls-74" d="M111.6,27.4h-1.2l-.5-.5h1.2c.2.1.3.3.5.5Z"/><path class="cls-75" d="M106.7,21.9l-.5.5h-1.3l.5-.5h1.3Z"/><path class="cls-76" d="M114.2,47.1a.35.35,0,0,1-.1-.2h0c0,.1,0,.1.1.2Z"/><path class="cls-77" d="M113.5,45.9c0-.1-.1-.1-.1-.2h0c.1.1.1.1.1.2Z"/><path class="cls-4" d="M107.4,54l2.7,3,6.2-5.5a26.4,26.4,0,0,0-1.8-3.8Z"/><path class="cls-4" d="M90.7,39.2l9.6-8.5c-1.1-.8-2.2-1.6-3.4-2.4l-9.1,8.1Z"/><path class="cls-4" d="M118.7,49.3a38.49,38.49,0,0,0-1.4-4.1l-2.7,2.4h-.1c.6,1.2,1.2,2.5,1.8,3.8h0Z"/><path class="cls-4" d="M111.1,41.9a32.84,32.84,0,0,1,2,3.1l2.8-2.5a11.08,11.08,0,0,0-2.2-3Z"/><path class="cls-4" d="M100.3,30.6l2.2-2a13.6,13.6,0,0,0-1.7-1.2c-.5-.3-1.2-.7-1.8-1l-2,1.8-.1.1c1.1.8,2.3,1.6,3.4,2.3Z"/><path class="cls-4" d="M91.9,23.4l-1.5,1.3A30.21,30.21,0,0,1,94,26.5l1.8-1.6a8.33,8.33,0,0,0-2-.8A9.72,9.72,0,0,0,91.9,23.4Z"/><path class="cls-5" d="M100.2,20.9l.9-.8,5.1-4.6L103.5,13l-5.9,5.3-.6.5L95.7,20a37.18,37.18,0,0,1,3.4,1.9Z"/><path class="cls-5" d="M120.8,47.5l.7-.7c-.6-1.3-1.2-2.5-1.9-3.7l-.2.2-2.1,1.9a38.49,38.49,0,0,1,1.4,4.1h0Z"/><path class="cls-5" d="M124.1,30.3l-6.7,5.9-.3.3-1.1,1-2.3,2a13.68,13.68,0,0,1,2.2,3l2.2-2,.3-.2.6-.5,7.6-6.8Z"/><path class="cls-5" d="M102.6,28.6h0l2.8-2.5c-1.1-.9-2.2-1.7-3.3-2.5l-3,2.7c.7.4,1.3.7,1.8,1A7.63,7.63,0,0,0,102.6,28.6Z"/><path class="cls-5" d="M99.2,21.9c-1.1-.7-2.3-1.3-3.4-1.9L92,23.4c.8.2,1.6.5,2,.6a18.83,18.83,0,0,1,2,.8h0Z"/><path class="cls-78" d="M103.8,32.1h0l-1.9-2h0V28.9h0l.8-.7h.5v-.5h0l.7-.6h1.2l1.9,2h0v1.1h0l-.7.7h-.5v.5h0l-.8.8h0Zm.1-1.1h.7v-.7h0l-1-1h-.8V30h0Zm2.1-1.3V29l-1-1.1h-.7v.7h0l1,1h0Z"/><path class="cls-8" d="M103.9,26.9h1.2l1.9,2V30l-.7.7h-.5v.5l-.8.8h-1.2l-1.9-2V28.8l.8-.7h.6v-.5l.6-.7m1.4,2.8h.7V29h0l-1-1.1h-.7v.7h0l1,1.1m-1.6-.5H103v.7h-.1l1,1.1h.8v-.7h0l.1-.1-1.1-1h0m1.6.5h0M103.9,31h0m0-4.2h0l-.8.7v.6h-.6l-.8.7v1.4l1.9,2H105l.8-.8v-.5h.5l.7-.7V28.9l-1.9-2H105l-1.1-.1Zm.5,1.8h0V28h.6l1,1v.6h-.6Zm-.7.7h0l1,.9h0v.7h-.6l-.9-1h0v-.6Zm1.6.5Z"/><path class="cls-79" d="M107.1,35.6h0L106,34.5h0l2.7-2.5-.6-.6h0V30.3h0l3.3,3.5h-1.1l-.5-.6-2.7,2.4Z"/><path class="cls-8" d="M108.1,30.2l3.3,3.5h-1.1l-.6-.6L107,35.6l-1-1.1,2.7-2.5-.6-.7V30.2m0-.1h0l-.1,1.1v.1l.6.6L106,34.4v.2l1,1.1h.2l2.6-2.5.5.5h1.3v-.1l-3.5-3.5Z"/><path class="cls-80" d="M112.4,41.2h0l-1.1-1.1h0l1.4-1.3-1.2-1.2-1.4,1.3h0l-1-1.1h0l3.1-2.9.2-.2h0l1,1.1v.1l-1.2,1.2,1.1,1.2,1-.9.2-.2h0l1,1.1v.1l-3.1,2.8Z"/><path class="cls-8" d="M112.3,34.7l1,1.1L112.1,37l1.2,1.3,1.1-1,.2-.2,1,1.1-3.2,3.1-1-1.1,1.4-1.3-1.2-1.3-1.4,1.3-1-1.1,3.1-2.9v-.2m0-.1h0l-.2.2L109,37.7v.2l1,1.1h.2l1.4-1.3,1.1,1.2-1.4,1.3v.2l1,1.1h.2l3.2-3.1v-.1l-1-1.1h-.2l-.2.2-1,.9-1.1-1.2,1.2-1.1v-.1l-1.1-1.3Z"/><path class="cls-8" d="M18.1,78.3a16.87,16.87,0,0,0,6.8-1.4c2-.9,3.2-2.1,3.2-3.2,0-.9-1.5-2-3-2.6h0l-.6-1.8h.2A34,34,0,0,1,32.1,71c1.9.8,3,1.8,3,2.8,0,1.3-1.8,2.6-5,3.5a45.71,45.71,0,0,1-11.9,1.4A1,1,0,0,1,18.1,78.3Z"/><path class="cls-9" d="M24.7,69.3c6,.7,10.3,2.4,10.3,4.4,0,2.6-7.5,4.7-16.9,4.7,4.8,0,10.2-2.1,10.2-4.7,0-1-1.8-2.2-3.1-2.7l-.5-1.7m-.4-.2.1.3.5,1.6v.1H25c1.4.6,3,1.7,3,2.5,0,1.1-1.1,2.2-3.1,3.1a17.23,17.23,0,0,1-6.8,1.4v.5a46.52,46.52,0,0,0,12-1.4,14.81,14.81,0,0,0,3.7-1.5,2.39,2.39,0,0,0,1.4-2c0-1.1-1-2-3-2.9a26,26,0,0,0-7.5-1.7Z"/><path class="cls-8" d="M29.9,98.7c-8.4,0-17-1.1-17-2.9,0-1.1,3-1.8,5.4-2.2h.1l1.5,1.9v.1c0,.1-.1.1-.1.2,0,1.4,5,2.7,10.1,2.7v.2Z"/><path class="cls-7" d="M18.4,93.7l1.4,1.8a.35.35,0,0,1-.1.2c0,1.6,5.4,2.8,10.2,2.8-9.3,0-16.9-1.3-16.9-2.8,0-.7,2.1-1.5,5.4-2m.1-.2h-.1a29.09,29.09,0,0,0-3.9.9c-1.1.4-1.6.8-1.6,1.4s.5.9,1.5,1.3a18.15,18.15,0,0,0,3.7.9,81,81,0,0,0,12,.8v-.5a28.82,28.82,0,0,1-6.8-.8c-2.3-.6-3.1-1.3-3.1-1.8v-.1l.1-.1-.3-.1-1.4-1.8Z"/><path class="cls-8" d="M116.6,100.2A69.63,69.63,0,0,1,106.3,99c-4-.8-6.2-2-6.2-3.1,0-.9,1.6-1.9,4.4-2.7a55.23,55.23,0,0,1,10.8-1.6l-.3.2c-3.9.8-6.2,2.3-6.2,4,0,1.3,1.3,2.5,3.8,3.3A21.07,21.07,0,0,0,116.6,100.2Z"/><path class="cls-7" d="M114.8,91.8c-3.8.9-6.1,2.4-6.1,4.1,0,1.3,1.4,2.6,3.9,3.4a14.13,14.13,0,0,0,2.2.6,61.47,61.47,0,0,1-8.4-1.1c-3.8-.8-6.1-1.9-6.1-3,0-.9,1.6-1.8,4.3-2.6a67.87,67.87,0,0,1,10.2-1.4m1-.3c-9.1.5-15.8,2.3-15.8,4.4,0,2.5,9.7,4.6,21.6,4.6-7,0-12.6-2-12.6-4.6,0-1.7,2.4-3.1,6.1-3.9Zm5.8,8.9Z"/><path class="cls-7" d="M114.8,101.1l.7,2.6a2.71,2.71,0,0,0,2,2l2.6.7a.46.46,0,0,1,0,.9l-2.6.7a2.71,2.71,0,0,0-2,2l-.7,2.6a.46.46,0,0,1-.9,0l-.7-2.6a2.71,2.71,0,0,0-2-2l-2.6-.7a.46.46,0,0,1,0-.9l2.6-.7a2.71,2.71,0,0,0,2-2l.7-2.6A.46.46,0,0,1,114.8,101.1Z"/><path class="cls-8" d="M114.8,101.1h-.1l.7,2.6a3.16,3.16,0,0,0,2.1,2.1l2.6.7a.35.35,0,0,1,.2.1c.1.1.1.1.1.2s0,.2-.1.2-.1.1-.2.1l-2.6.7a3.16,3.16,0,0,0-2.1,2.1l-.7,2.6a.35.35,0,0,1-.1.2c-.1.1-.1.1-.2.1s-.2,0-.2-.1-.1-.1-.1-.2l-.7-2.6a3.16,3.16,0,0,0-2.1-2.1l-2.6-.7a.35.35,0,0,1-.2-.1c-.1-.1-.1-.1-.1-.2s0-.2.1-.2.1-.1.2-.1l2.6-.7a3.16,3.16,0,0,0,2.1-2.1l.7-2.6a.35.35,0,0,1,.1-.2c.1-.1.1-.1.2-.1s.2,0,.2.1.1.1.1.2h.2c0-.2-.1-.3-.2-.3s-.2-.1-.4-.1a.6.6,0,0,0-.4.1c-.1.1-.2.2-.2.3l-.7,2.6a2.79,2.79,0,0,1-1.9,1.9l-2.6.7c-.2,0-.3.1-.3.2s-.1.2-.1.4a.6.6,0,0,0,.1.4c.1.1.2.2.3.2l2.6.7a2.79,2.79,0,0,1,1.9,1.9l.7,2.6c0,.2.1.3.2.3s.2.1.4.1a.6.6,0,0,0,.4-.1c.1-.1.2-.2.2-.3l.7-2.6a2.79,2.79,0,0,1,1.9-1.9l2.6-.7c.2,0,.3-.1.3-.2s.1-.2.1-.4a.6.6,0,0,0-.1-.4c-.1-.1-.2-.2-.3-.2l-2.6-.7a2.79,2.79,0,0,1-1.9-1.9l-.7-2.6Z"/><path class="cls-7" d="M123.7,101.1l.3,1a1,1,0,0,0,.7.7l1,.3a.21.21,0,0,1,0,.4l-1,.3a1,1,0,0,0-.7.7l-.3,1a.21.21,0,0,1-.4,0l-.3-1a1,1,0,0,0-.7-.7l-1-.3a.21.21,0,0,1,0-.4l1-.3a1,1,0,0,0,.7-.7l.3-1A.21.21,0,0,1,123.7,101.1Z"/><path class="cls-8" d="M123.7,101.1h-.1l.3,1a1.09,1.09,0,0,0,.8.8l1,.3h0l-1,.3a1.09,1.09,0,0,0-.8.8l-.3,1h0l-.3-1a1.09,1.09,0,0,0-.8-.8l-1-.3h0l1-.3a1.09,1.09,0,0,0,.8-.8l.3-1h.2c0-.1-.1-.1-.1-.2s-.1-.1-.2-.1-.1,0-.2.1-.1.1-.1.2l-.3,1a1,1,0,0,1-.7.7l-1,.3c-.1,0-.1.1-.2.1s-.1.1-.1.2,0,.1.1.2.1.1.2.1l1,.3a1,1,0,0,1,.7.7l.3,1c0,.1.1.1.1.2s.1.1.2.1.1,0,.2-.1.1-.1.1-.2l.3-1a1,1,0,0,1,.7-.7l1-.3c.1,0,.1-.1.2-.1s.1-.1.1-.2,0-.1-.1-.2-.1-.1-.2-.1l-1-.3a1,1,0,0,1-.7-.7l-.3-1Z"/><path class="cls-8" d="M120.4,48.6c2.3-.1,6.8,5.3,6.7,8.2a9.24,9.24,0,0,0-3.9-4.2,8,8,0,0,1,.1,2.6A26.14,26.14,0,0,0,120.4,48.6Z"/><path class="cls-5" d="M120.4,48.6v.1h.1a2.92,2.92,0,0,1,.9.2,5.1,5.1,0,0,1,1.8,1.3,16.51,16.51,0,0,1,2.6,3.2c.3.6.6,1.2.8,1.7a4.43,4.43,0,0,1,.3,1.5v.1h.1l.1-.1a13.69,13.69,0,0,0-2.2-3,7.83,7.83,0,0,0-1.8-1.3l-.2-.1.1.2a10.5,10.5,0,0,1,.2,1.3V55h.2c-.7-1.9-1-3-1.4-3.9a27.17,27.17,0,0,0-1.5-2.8l-.1.3v0l-.1.1a14.48,14.48,0,0,1,1.4,2.8c.3.9.8,1.9,1.4,3.8l.3.8v-2a3.69,3.69,0,0,0-.2-1.3h-.1l-.1.1a5.35,5.35,0,0,1,1.7,1.2,10.34,10.34,0,0,1,2.1,2.9l.2.4v-.5a6.76,6.76,0,0,0-.7-2.6,15.46,15.46,0,0,0-2.8-3.9,9.62,9.62,0,0,0-1.7-1.3,3.74,3.74,0,0,0-1.5-.5H120l.1.2Z"/><path class="cls-8" d="M60.8,26.9c.1-3.1,7.9-8.5,11.8-8.1-3.9,1.7-5.3,3.6-6.1,4.8,2.3-.3,2.1.1,3.5.2A37.62,37.62,0,0,0,60.8,26.9Z"/><path class="cls-5" d="M60.8,26.9H61a2.61,2.61,0,0,1,.3-1.1,11.19,11.19,0,0,1,1.8-2.3,17.43,17.43,0,0,1,4.4-3.1,12.23,12.23,0,0,1,2.4-1,9.33,9.33,0,0,1,2.2-.4h.5v-.1l-.1-.1a18.17,18.17,0,0,0-4.2,2.6,11.25,11.25,0,0,0-1.9,2.2l-.1.2h.2a7.17,7.17,0,0,1,1.3-.1,2.51,2.51,0,0,1,1,.1,3.42,3.42,0,0,0,1.1.1v-.2c-2.6.7-4.1,1.1-5.3,1.5s-2.2.9-3.9,1.6l.1.1h0V27a32.5,32.5,0,0,1,3.9-1.6c1.2-.4,2.7-.8,5.3-1.5l.8-.2H70c-.5,0-.8-.1-1.1-.1a3.42,3.42,0,0,0-1.1-.1,6.64,6.64,0,0,0-1.3.1v.1l.1.1a13.42,13.42,0,0,1,1.8-2.2A16.19,16.19,0,0,1,72.6,19l.4-.2h-.9a8.62,8.62,0,0,0-3.5.9,20.87,20.87,0,0,0-5.3,3.4,10.42,10.42,0,0,0-1.8,2,4.32,4.32,0,0,0-.8,1.9v.2l.1-.3Z"/><path class="cls-8" d="M73.8,20.3c1.2-1.4,6.7-1,8.3.6a7.16,7.16,0,0,0-4.5,0c1.1.7.9.8,1.6,1.4A26.46,26.46,0,0,0,73.8,20.3Z"/><path class="cls-5" d="M73.8,20.3h0c.2,0,.4-.2.6-.3s.7-.3,1.1-.4a7.08,7.08,0,0,1,1.5-.1,9.25,9.25,0,0,1,2.9.4,3.34,3.34,0,0,1,1.2.5,3.49,3.49,0,0,1,.9.6l.1-.1v-.1a9.15,9.15,0,0,0-2.6-.4,7.66,7.66,0,0,0-2,.3l-.2.1.2.1a5.92,5.92,0,0,1,.6.4l.4.4a2.25,2.25,0,0,0,.5.5l.1-.1.1-.1c-1.4-.7-2.3-1-3-1.3a18.38,18.38,0,0,0-2.4-.7v.3h0v.1a18.38,18.38,0,0,1,2.4.7c.7.3,1.5.6,3,1.3l.8.4-.6-.5c-.3-.2-.4-.3-.4-.4l-.2-.2-.4-.4c-.2-.1-.4-.3-.7-.5l-.1.1V21a7.52,7.52,0,0,1,1.9-.3,8.55,8.55,0,0,1,2.5.4l.4.1-.3-.3a4.31,4.31,0,0,0-1-.7,6.64,6.64,0,0,0-2-.6,16.41,16.41,0,0,0-2.3-.2,12.31,12.31,0,0,0-2,.2c-.3.1-.5.2-.8.3.1.1-.1.2-.2.4l-.2.1h.2Z"/><path class="cls-8" d="M121.7,56.4c1.2,1.1.7,6.3-.9,7.7a6.76,6.76,0,0,0,.2-4.2c-.7,1-.8.8-1.3,1.4A21.94,21.94,0,0,0,121.7,56.4Z"/><path class="cls-5" d="M121.7,56.4h0c0,.2.1.3.2.5a9.44,9.44,0,0,1,.3.9,4.87,4.87,0,0,1,.1,1.2,9.67,9.67,0,0,1-.4,2.9,3.34,3.34,0,0,1-.5,1.2,3.49,3.49,0,0,1-.6.9l.1.1h.1a10.26,10.26,0,0,0,.4-2.6,5.67,5.67,0,0,0-.2-1.6l-.1-.2-.1.2a6.13,6.13,0,0,0-.4.6l-.4.4c-.1.1-.3.2-.5.4l.1.1h.1c.7-1.3,1-2.1,1.3-2.7a19.38,19.38,0,0,0,.7-2.2l-.2-.1h-.1c-.3,1-.5,1.5-.7,2.2a15.21,15.21,0,0,1-1.3,2.7l-.4.8.6-.6.3-.3.2-.2.3-.3c.1-.2.3-.3.5-.6L121,60h-.1a6.27,6.27,0,0,1,.2,1.6,9.68,9.68,0,0,1-.4,2.6l-.1.4.3-.3a2.55,2.55,0,0,0,.7-1,11.76,11.76,0,0,0,.7-2,8.58,8.58,0,0,0,.2-2.2,7.77,7.77,0,0,0-.2-1.6c-.1-.2-.1-.4-.2-.6a.7.7,0,0,0-.4-.5l-.1-.2-.1.2Z"/></g></svg>